999
dxfrw 0.6.3
  0
SECTION
  2
HEADER
  9
$ACADVER
  1
AC1021
  9
$DWGCODEPAGE
  3
ANSI_1252
  9
$INSBASE
 10
0
 20
0
 30
0
  9
$EXTMIN
 10
89.6688
 20
-162.744
 30
0
  9
$EXTMAX
 10
200.844
 20
-29.3438
 30
0
  9
$LIMMIN
 10
0
 20
0
  9
$LIMMAX
 10
420
 20
297
  9
$ORTHOMODE
 70
    0
  9
$REGENMODE
 70
    1
  9
$FILLMODE
 70
    1
  9
$QTEXTMODE
 70
    0
  9
$MIRRTEXT
 70
    0
  9
$LTSCALE
 40
1
  9
$ATTMODE
 70
    0
  9
$TEXTSIZE
 40
2.5
  9
$TRACEWID
 40
15.68
  9
$TEXTSTYLE
  7
STANDARD
  9
$CLAYER
  8
0
  9
$CELTYPE
  6
BYLAYER
  9
$CECOLOR
 62
  256
  9
$CELTSCALE
 40
1
  9
$DISPSILH
 70
    0
  9
$DIMSCALE
 40
2.5
  9
$DIMASZ
 40
2.5
  9
$DIMEXO
 40
0.625
  9
$DIMDLI
 40
3.75
  9
$DIMRND
 40
0
  9
$DIMDLE
 40
0
  9
$DIMEXE
 40
1.25
  9
$DIMTP
 40
0
  9
$DIMTM
 40
0
  9
$DIMTXT
 40
2.5
  9
$DIMCEN
 40
2.5
  9
$DIMTSZ
 40
0
  9
$DIMTOL
 70
    0
  9
$DIMLIM
 70
    0
  9
$DIMTIH
 70
    0
  9
$DIMTOH
 70
    0
  9
$DIMSE1
 70
    0
  9
$DIMSE2
 70
    0
  9
$DIMTAD
 70
    1
  9
$DIMZIN
 70
    8
  9
$DIMBLK
  1

  9
$DIMASO
 70
    1
  9
$DIMSHO
 70
    1
  9
$DIMPOST
  1

  9
$DIMAPOST
  1

  9
$DIMALT
 70
    0
  9
$DIMALTD
 70
    3
  9
$DIMALTF
 40
0.03937
  9
$DIMLFAC
 40
1
  9
$DIMTOFL
 70
    1
  9
$DIMTVP
 40
0
  9
$DIMTIX
 70
    0
  9
$DIMSOXD
 70
    0
  9
$DIMSAH
 70
    0
  9
$DIMBLK1
  1

  9
$DIMBLK2
  1

  9
$DIMSTYLE
  2
Standard
  9
$DIMCLRD
 70
    0
  9
$DIMCLRE
 70
    0
  9
$DIMCLRT
 70
    0
  9
$DIMTFAC
 40
1
  9
$DIMGAP
 40
0.625
  9
$DIMJUST
 70
    0
  9
$DIMSD1
 70
    0
  9
$DIMSD2
 70
    0
  9
$DIMTOLJ
 70
    0
  9
$DIMTZIN
 70
    8
  9
$DIMALTZ
 70
    0
  9
$DIMALTTZ
 70
    0
  9
$DIMUPT
 70
    0
  9
$DIMDEC
 70
    2
  9
$DIMTDEC
 70
    2
  9
$DIMALTU
 70
    2
  9
$DIMALTTD
 70
    3
  9
$DIMTXSTY
  7
STANDARD
  9
$DIMAUNIT
 70
    0
  9
$DIMADEC
 70
    0
  9
$DIMALTRND
 40
0
  9
$DIMAZIN
 70
    0
  9
$DIMDSEP
 70
   44
  9
$DIMATFIT
 70
    3
  9
$DIMFRAC
 70
    0
  9
$DIMLDRBLK
  1
STANDARD
  9
$DIMLUNIT
 70
    2
  9
$DIMLWD
 70
   -2
  9
$DIMLWE
 70
   -2
  9
$DIMTMOVE
 70
    0
  9
$DIMFXL
 40
1
  9
$DIMFXLON
 70
    0
  9
$DIMJOGANG
 40
0.7854
  9
$DIMTFILL
 70
    0
  9
$DIMTFILLCLR
 70
    0
  9
$DIMARCSYM
 70
    0
  9
$DIMLTYPE
  6

  9
$DIMLTEX1
  6

  9
$DIMLTEX2
  6

  9
$LUNITS
 70
    2
  9
$LUPREC
 70
    4
  9
$SKETCHINC
 40
1
  9
$FILLETRAD
 40
0
  9
$AUNITS
 70
    0
  9
$AUPREC
 70
    2
  9
$MENU
  1
.
  9
$ELEVATION
 40
0
  9
$PELEVATION
 40
0
  9
$THICKNESS
 40
0
  9
$LIMCHECK
 70
    0
  9
$CHAMFERA
 40
0
  9
$CHAMFERB
 40
0
  9
$CHAMFERC
 40
0
  9
$CHAMFERD
 40
0
  9
$SKPOLY
 70
    0
  9
$USRTIMER
 70
    1
  9
$ANGBASE
 50
0
  9
$ANGDIR
 70
    1
  9
$PDMODE
 70
   34
  9
$PDSIZE
 40
0
  9
$PLINEWID
 40
0
  9
$SPLFRAME
 70
    0
  9
$SPLINETYPE
 70
    2
  9
$SPLINESEGS
 70
    8
  9
$HANDSEED
  5
20000
  9
$SURFTAB1
 70
    6
  9
$SURFTAB2
 70
    6
  9
$SURFTYPE
 70
    6
  9
$SURFU
 70
    6
  9
$SURFV
 70
    6
  9
$UCSBASE
  2

  9
$UCSNAME
  2

  9
$UCSORG
 10
0
 20
0
 30
0
  9
$UCSXDIR
 10
1
 20
0
 30
0
  9
$UCSYDIR
 10
0
 20
1
 30
0
  9
$UCSORTHOREF
  2

  9
$UCSORTHOVIEW
 70
    0
  9
$UCSORGTOP
 10
0
 20
0
 30
0
  9
$UCSORGBOTTOM
 10
0
 20
0
 30
0
  9
$UCSORGLEFT
 10
0
 20
0
 30
0
  9
$UCSORGRIGHT
 10
0
 20
0
 30
0
  9
$UCSORGFRONT
 10
0
 20
0
 30
0
  9
$UCSORGBACK
 10
0
 20
0
 30
0
  9
$PUCSBASE
  2

  9
$PUCSNAME
  2

  9
$PUCSORG
 10
0
 20
0
 30
0
  9
$PUCSXDIR
 10
1
 20
0
 30
0
  9
$PUCSYDIR
 10
0
 20
1
 30
0
  9
$PUCSORTHOREF
  2

  9
$PUCSORTHOVIEW
 70
    0
  9
$PUCSORGTOP
 10
0
 20
0
 30
0
  9
$PUCSORGBOTTOM
 10
0
 20
0
 30
0
  9
$PUCSORGLEFT
 10
0
 20
0
 30
0
  9
$PUCSORGRIGHT
 10
0
 20
0
 30
0
  9
$PUCSORGFRONT
 10
0
 20
0
 30
0
  9
$PUCSORGBACK
 10
0
 20
0
 30
0
  9
$USERI1
 70
    0
  9
$USERI2
 70
    0
  9
$USERI3
 70
    0
  9
$USERI4
 70
    0
  9
$USERI5
 70
    0
  9
$USERR1
 40
0
  9
$USERR2
 40
0
  9
$USERR3
 40
0
  9
$USERR4
 40
0
  9
$USERR5
 40
0
  9
$WORLDVIEW
 70
    1
  9
$SHADEDGE
 70
    3
  9
$SHADEDIF
 70
   70
  9
$TILEMODE
 70
    1
  9
$MAXACTVP
 70
   64
  9
$PINSBASE
 10
0
 20
0
 30
0
  9
$PLIMCHECK
 70
    0
  9
$PEXTMIN
 10
0
 20
0
 30
0
  9
$PEXTMAX
 10
0
 20
0
 30
0
  9
$GRIDMODE
 70
    1
  9
$SNAPSTYLE
 70
    0
  9
$PLIMMIN
 10
0
 20
0
  9
$PLIMMAX
 10
297
 20
210
  9
$UNITMODE
 70
    0
  9
$VISRETAIN
 70
    1
  9
$PLINEGEN
 70
    0
  9
$PSLTSCALE
 70
    1
  9
$TREEDEPTH
 70
 3020
  9
$CMLSTYLE
  2
Standard
  9
$CMLJUST
 70
    0
  9
$CMLSCALE
 40
20
  9
$PROXYGRAPHICS
 70
    1
  9
$MEASUREMENT
 70
    1
  9
$CELWEIGHT
370
   -1
  9
$ENDCAPS
280
    0
  9
$JOINSTYLE
280
    0
  9
$LWDISPLAY
290
    0
  9
$INSUNITS
 70
    4
  9
$HYPERLINKBASE
  1

  9
$STYLESHEET
  1

  9
$XEDIT
290
    1
  9
$CEPSNTYPE
380
    0
  9
$PSTYLEMODE
290
    1
  9
$EXTNAMES
290
    1
  9
$PSVPSCALE
 40
1
  9
$OLESTARTUP
290
    0
  9
$SORTENTS
280
  127
  9
$INDEXCTL
280
    0
  9
$HIDETEXT
280
    1
  9
$XCLIPFRAME
290
    0
  9
$HALOGAP
280
    0
  9
$OBSCOLOR
 70
  257
  9
$OBSLTYPE
280
    0
  9
$INTERSECTIONDISPLAY
280
    0
  9
$INTERSECTIONCOLOR
 70
  257
  9
$DIMASSOC
280
    1
  9
$PROJECTNAME
  1

  9
$CAMERADISPLAY
290
    0
  9
$LENSLENGTH
 40
50
  9
$CAMERAHEIGHT
 40
0
  9
$STEPSPERSEC
 40
2
  9
$STEPSIZE
 40
50
  9
$3DDWFPREC
 40
2
  9
$PSOLWIDTH
 40
5
  9
$PSOLHEIGHT
 40
80
  9
$LOFTANG1
 40
1.570796326794897
  9
$LOFTANG2
 40
1.570796326794897
  9
$LOFTMAG1
 40
0
  9
$LOFTMAG2
 40
0
  9
$LOFTPARAM
 70
    7
  9
$LOFTNORMALS
280
    1
  9
$LATITUDE
 40
1
  9
$LONGITUDE
 40
1
  9
$NORTHDIRECTION
 40
0
  9
$TIMEZONE
 70
-8000
  9
$LIGHTGLYPHDISPLAY
280
    1
  9
$TILEMODELIGHTSYNCH
280
    1
  9
$SOLIDHIST
280
    1
  9
$SHOWHIST
280
    1
  9
$DWFFRAME
280
    2
  9
$DGNFRAME
280
    0
  9
$REALWORLDSCALE
290
    1
  9
$INTERFERECOLOR
 62
    1
  9
$CSHADOW
280
    0
  9
$SHADOWPLANELOCATION
 40
0
  0
ENDSEC
  0
SECTION
  2
CLASSES
  0
ENDSEC
  0
SECTION
  2
TABLES
  0
TABLE
  2
VPORT
  5
8
330
0
100
AcDbSymbolTable
 70
    1
  0
VPORT
  5
31
330
2
100
AcDbSymbolTableRecord
100
AcDbViewportTableRecord
  2
*ACTIVE
 70
    0
 10
0
 20
0
 11
1
 21
1
 12
124.9690075842697
 22
4.215596207865168
 13
0
 23
0
 14
10
 24
10
 15
10
 25
10
 16
0
 26
0
 36
1
 17
0
 27
0
 37
0
 40
137.1473966292135
 41
1.531420765027322
 42
50
 43
0
 44
0
 50
0
 51
0
 71
    0
 72
  100
 73
    1
 74
    3
 75
    0
 76
    1
 77
    0
 78
    0
281
    0
 65
    1
110
0
120
0
130
0
111
1
121
0
131
0
112
0
122
1
132
0
 79
    0
146
0
348
10020
 60
    7
 61
    5
292
1
282
    1
141
0
142
0
 63
  250
421
3358443
  0
ENDTAB
  0
TABLE
  2
LTYPE
  5
5
330
0
100
AcDbSymbolTable
 70
    4
  0
LTYPE
  5
14
330
5
100
AcDbSymbolTableRecord
100
AcDbLinetypeTableRecord
  2
ByBlock
 70
    0
  3

 72
   65
 73
    0
 40
0
  0
LTYPE
  5
15
330
5
100
AcDbSymbolTableRecord
100
AcDbLinetypeTableRecord
  2
ByLayer
 70
    0
  3

 72
   65
 73
    0
 40
0
  0
LTYPE
  5
16
330
5
100
AcDbSymbolTableRecord
100
AcDbLinetypeTableRecord
  2
Continuous
 70
    0
  3
Solid line
 72
   65
 73
    0
 40
0
  0
LTYPE
  5
32
330
5
100
AcDbSymbolTableRecord
100
AcDbLinetypeTableRecord
  2
DOT
 70
    0
  3
Dot . . . . . . . . . . . . . . . . . . . . . .
 72
   65
 73
    2
 40
6.35
 49
0
 74
    0
 49
-6.35
 74
    0
  0
LTYPE
  5
33
330
5
100
AcDbSymbolTableRecord
100
AcDbLinetypeTableRecord
  2
DOTTINY
 70
    0
  3
Dot (.15x) .....................................
 72
   65
 73
    2
 40
0.9525
 49
0
 74
    0
 49
-0.9525
 74
    0
  0
LTYPE
  5
34
330
5
100
AcDbSymbolTableRecord
100
AcDbLinetypeTableRecord
  2
DOT2
 70
    0
  3
Dot (.5x) .....................................
 72
   65
 73
    2
 40
3.175
 49
0
 74
    0
 49
-3.175
 74
    0
  0
LTYPE
  5
35
330
5
100
AcDbSymbolTableRecord
100
AcDbLinetypeTableRecord
  2
DOTX2
 70
    0
  3
Dot (2x) .  .  .  .  .  .  .  .  .  .  .  .  .
 72
   65
 73
    2
 40
12.7
 49
0
 74
    0
 49
-12.7
 74
    0
  0
LTYPE
  5
36
330
5
100
AcDbSymbolTableRecord
100
AcDbLinetypeTableRecord
  2
DASHED
 70
    0
  3
Dashed _ _ _ _ _ _ _ _ _ _ _ _ _ _ _ _ _
 72
   65
 73
    2
 40
19.05
 49
12.7
 74
    0
 49
-6.35
 74
    0
  0
LTYPE
  5
37
330
5
100
AcDbSymbolTableRecord
100
AcDbLinetypeTableRecord
  2
DASHEDTINY
 70
    0
  3
Dashed (.15x) _ _ _ _ _ _ _ _ _ _ _ _ _ _ _ _ _
 72
   65
 73
    2
 40
2.8575
 49
1.905
 74
    0
 49
-0.9525
 74
    0
  0
LTYPE
  5
38
330
5
100
AcDbSymbolTableRecord
100
AcDbLinetypeTableRecord
  2
DASHED2
 70
    0
  3
Dashed (.5x) _ _ _ _ _ _ _ _ _ _ _ _ _ _ _ _ _
 72
   65
 73
    2
 40
9.524999999999999
 49
6.35
 74
    0
 49
-3.175
 74
    0
  0
LTYPE
  5
39
330
5
100
AcDbSymbolTableRecord
100
AcDbLinetypeTableRecord
  2
DASHEDX2
 70
    0
  3
Dashed (2x) ____  ____  ____  ____  ____  ___
 72
   65
 73
    2
 40
38.09999999999999
 49
25.4
 74
    0
 49
-12.7
 74
    0
  0
LTYPE
  5
3A
330
5
100
AcDbSymbolTableRecord
100
AcDbLinetypeTableRecord
  2
DASHDOT
 70
    0
  3
Dash dot __ . __ . __ . __ . __ . __ . __ . __
 72
   65
 73
    4
 40
25.4
 49
12.7
 74
    0
 49
-6.35
 74
    0
 49
0
 74
    0
 49
-6.35
 74
    0
  0
LTYPE
  5
3B
330
5
100
AcDbSymbolTableRecord
100
AcDbLinetypeTableRecord
  2
DASHDOTTINY
 70
    0
  3
Dash dot (.15x) _._._._._._._._._._._._._._._.
 72
   65
 73
    4
 40
3.81
 49
1.905
 74
    0
 49
-0.9525
 74
    0
 49
0
 74
    0
 49
-0.9525
 74
    0
  0
LTYPE
  5
3C
330
5
100
AcDbSymbolTableRecord
100
AcDbLinetypeTableRecord
  2
DASHDOT2
 70
    0
  3
Dash dot (.5x) _._._._._._._._._._._._._._._.
 72
   65
 73
    4
 40
12.7
 49
6.35
 74
    0
 49
-3.175
 74
    0
 49
0
 74
    0
 49
-3.175
 74
    0
  0
LTYPE
  5
3D
330
5
100
AcDbSymbolTableRecord
100
AcDbLinetypeTableRecord
  2
DASHDOTX2
 70
    0
  3
Dash dot (2x) ____  .  ____  .  ____  .  ___
 72
   65
 73
    4
 40
50.8
 49
25.4
 74
    0
 49
-12.7
 74
    0
 49
0
 74
    0
 49
-12.7
 74
    0
  0
LTYPE
  5
3E
330
5
100
AcDbSymbolTableRecord
100
AcDbLinetypeTableRecord
  2
DIVIDE
 70
    0
  3
Divide ____ . . ____ . . ____ . . ____ . . ____
 72
   65
 73
    6
 40
31.75
 49
12.7
 74
    0
 49
-6.35
 74
    0
 49
0
 74
    0
 49
-6.35
 74
    0
 49
0
 74
    0
 49
-6.35
 74
    0
  0
LTYPE
  5
3F
330
5
100
AcDbSymbolTableRecord
100
AcDbLinetypeTableRecord
  2
DIVIDETINY
 70
    0
  3
Divide (.15x) __..__..__..__..__..__..__..__.._
 72
   65
 73
    6
 40
4.7625
 49
1.905
 74
    0
 49
-0.9525
 74
    0
 49
0
 74
    0
 49
-0.9525
 74
    0
 49
0
 74
    0
 49
-0.9525
 74
    0
  0
LTYPE
  5
40
330
5
100
AcDbSymbolTableRecord
100
AcDbLinetypeTableRecord
  2
DIVIDE2
 70
    0
  3
Divide (.5x) __..__..__..__..__..__..__..__.._
 72
   65
 73
    6
 40
15.875
 49
6.35
 74
    0
 49
-3.175
 74
    0
 49
0
 74
    0
 49
-3.175
 74
    0
 49
0
 74
    0
 49
-3.175
 74
    0
  0
LTYPE
  5
41
330
5
100
AcDbSymbolTableRecord
100
AcDbLinetypeTableRecord
  2
DIVIDEX2
 70
    0
  3
Divide (2x) ________  .  .  ________  .  .  _
 72
   65
 73
    6
 40
63.5
 49
25.4
 74
    0
 49
-12.7
 74
    0
 49
0
 74
    0
 49
-12.7
 74
    0
 49
0
 74
    0
 49
-12.7
 74
    0
  0
LTYPE
  5
42
330
5
100
AcDbSymbolTableRecord
100
AcDbLinetypeTableRecord
  2
BORDER
 70
    0
  3
Border __ __ . __ __ . __ __ . __ __ . __ __ .
 72
   65
 73
    6
 40
44.45
 49
12.7
 74
    0
 49
-6.35
 74
    0
 49
12.7
 74
    0
 49
-6.35
 74
    0
 49
0
 74
    0
 49
-6.35
 74
    0
  0
LTYPE
  5
43
330
5
100
AcDbSymbolTableRecord
100
AcDbLinetypeTableRecord
  2
BORDERTINY
 70
    0
  3
Border (.15x) __.__.__.__.__.__.__.__.__.__.__.
 72
   65
 73
    6
 40
6.6675
 49
1.905
 74
    0
 49
-0.9525
 74
    0
 49
1.905
 74
    0
 49
-0.9525
 74
    0
 49
0
 74
    0
 49
-0.9525
 74
    0
  0
LTYPE
  5
44
330
5
100
AcDbSymbolTableRecord
100
AcDbLinetypeTableRecord
  2
BORDER2
 70
    0
  3
Border (.5x) __.__.__.__.__.__.__.__.__.__.__.
 72
   65
 73
    6
 40
22.225
 49
6.35
 74
    0
 49
-3.175
 74
    0
 49
6.35
 74
    0
 49
-3.175
 74
    0
 49
0
 74
    0
 49
-3.175
 74
    0
  0
LTYPE
  5
45
330
5
100
AcDbSymbolTableRecord
100
AcDbLinetypeTableRecord
  2
BORDERX2
 70
    0
  3
Border (2x) ____  ____  .  ____  ____  .  ___
 72
   65
 73
    6
 40
88.89999999999999
 49
25.4
 74
    0
 49
-12.7
 74
    0
 49
25.4
 74
    0
 49
-12.7
 74
    0
 49
0
 74
    0
 49
-12.7
 74
    0
  0
LTYPE
  5
46
330
5
100
AcDbSymbolTableRecord
100
AcDbLinetypeTableRecord
  2
CENTER
 70
    0
  3
Center ____ _ ____ _ ____ _ ____ _ ____ _ ____
 72
   65
 73
    4
 40
50.8
 49
31.75
 74
    0
 49
-6.35
 74
    0
 49
6.35
 74
    0
 49
-6.35
 74
    0
  0
LTYPE
  5
47
330
5
100
AcDbSymbolTableRecord
100
AcDbLinetypeTableRecord
  2
CENTERTINY
 70
    0
  3
Center (.15x) ___ _ ___ _ ___ _ ___ _ ___ _ ___
 72
   65
 73
    4
 40
7.62
 49
4.7625
 74
    0
 49
-0.9525
 74
    0
 49
0.9525
 74
    0
 49
-0.9525
 74
    0
  0
LTYPE
  5
48
330
5
100
AcDbSymbolTableRecord
100
AcDbLinetypeTableRecord
  2
CENTER2
 70
    0
  3
Center (.5x) ___ _ ___ _ ___ _ ___ _ ___ _ ___
 72
   65
 73
    4
 40
28.575
 49
19.05
 74
    0
 49
-3.175
 74
    0
 49
3.175
 74
    0
 49
-3.175
 74
    0
  0
LTYPE
  5
49
330
5
100
AcDbSymbolTableRecord
100
AcDbLinetypeTableRecord
  2
CENTERX2
 70
    0
  3
Center (2x) ________  __  ________  __  _____
 72
   65
 73
    4
 40
101.6
 49
63.5
 74
    0
 49
-12.7
 74
    0
 49
12.7
 74
    0
 49
-12.7
 74
    0
  0
ENDTAB
  0
TABLE
  2
LAYER
  5
2
330
0
100
AcDbSymbolTable
 70
    1
  0
LAYER
  5
10
330
2
100
AcDbSymbolTableRecord
100
AcDbLayerTableRecord
  2
0
 70
    1
 62
    7
  6
CONTINUOUS
370
    0
390
F
  0
LAYER
  5
4A
330
2
100
AcDbSymbolTableRecord
100
AcDbLayerTableRecord
  2
cover bottom
 70
    0
 62
    1
  6
CONTINUOUS
370
    0
390
F
  0
ENDTAB
  0
TABLE
  2
STYLE
  5
3
330
0
100
AcDbSymbolTable
 70
    3
  0
STYLE
  5
4B
330
2
100
AcDbSymbolTableRecord
100
AcDbTextStyleTableRecord
  2
Standard
 70
    0
 40
0
 41
1
 50
0
 71
    0
 42
1
  3
txt
  4

  0
ENDTAB
  0
TABLE
  2
VIEW
  5
6
330
0
100
AcDbSymbolTable
 70
    0
  0
ENDTAB
  0
TABLE
  2
UCS
  5
7
330
0
100
AcDbSymbolTable
 70
    0
  0
ENDTAB
  0
TABLE
  2
APPID
  5
9
330
0
100
AcDbSymbolTable
 70
    1
  0
APPID
  5
12
330
9
100
AcDbSymbolTableRecord
100
AcDbRegAppTableRecord
  2
ACAD
 70
    0
  0
APPID
  5
4C
330
9
100
AcDbSymbolTableRecord
100
AcDbRegAppTableRecord
  2
LibreCad
 70
    0
  0
ENDTAB
  0
TABLE
  2
DIMSTYLE
  5
A
330
0
100
AcDbSymbolTable
 70
    1
100
AcDbDimStyleTable
 71
    1
  0
DIMSTYLE
105
4D
330
A
100
AcDbSymbolTableRecord
100
AcDbDimStyleTableRecord
  2
Standard
 70
    0
 40
2.5
 41
2.5
 42
0.625
 43
0.38
 44
1.25
 45
0
 46
0
 47
0
 48
0
 49
1
140
2.5
141
0.09
142
0
143
25.4
144
1
145
0
146
1
147
0.625
148
0
 71
    0
 72
    0
 73
    0
 74
    1
 75
    0
 76
    0
 77
    0
 78
    8
 79
    0
170
    0
171
    2
172
    0
173
    0
174
    0
175
    0
176
    0
177
    0
178
    0
179
    0
271
    2
272
    4
273
    2
274
    2
275
    0
276
    0
277
    2
278
   44
279
    0
280
    0
281
    0
282
    0
283
    1
284
    0
285
    0
286
    0
288
    0
289
    3
340
STANDARD
341

371
   -2
372
   -2
  0
ENDTAB
  0
TABLE
  2
BLOCK_RECORD
  5
1
330
0
100
AcDbSymbolTable
 70
    2
  0
BLOCK_RECORD
  5
1F
330
1
100
AcDbSymbolTableRecord
100
AcDbBlockTableRecord
  2
*Model_Space
 70
    0
280
    1
281
    0
  0
BLOCK_RECORD
  5
1E
330
1
100
AcDbSymbolTableRecord
100
AcDbBlockTableRecord
  2
*Paper_Space
 70
    0
280
    1
281
    0
  0
ENDTAB
  0
ENDSEC
  0
SECTION
  2
BLOCKS
  0
BLOCK
  5
20
330
1F
100
AcDbEntity
  8
0
100
AcDbBlockBegin
  2
*Model_Space
 70
    0
 10
0
 20
0
 30
0
  3
*Model_Space
  1

  0
ENDBLK
  5
21
330
1F
100
AcDbEntity
  8
0
100
AcDbBlockEnd
  0
BLOCK
  5
1C
330
1B
100
AcDbEntity
  8
0
100
AcDbBlockBegin
  2
*Paper_Space
 70
    0
 10
0
 20
0
 30
0
  3
*Paper_Space
  1

  0
ENDBLK
  5
1D
330
1F
100
AcDbEntity
  8
0
100
AcDbBlockEnd
  0
ENDSEC
  0
SECTION
  2
ENTITIES
  0
CIRCLE
  5
4E
100
AcDbEntity
  8
cover bottom
  6
ByLayer
 62
  256
370
   -1
100
AcDbCircle
 10
185.0371946901556
 20
-84.58304724488985
 40
1.1
  0
CIRCLE
  5
4F
100
AcDbEntity
  8
cover bottom
  6
ByLayer
 62
  256
370
   -1
100
AcDbCircle
 10
195.33115592601
 20
-35.176085391317
 40
1.1
  0
CIRCLE
  5
50
100
AcDbEntity
  8
cover bottom
  6
ByLayer
 62
  256
370
   -1
100
AcDbCircle
 10
185.0555599527259
 20
-135.6135453854609
 40
1.1
  0
CIRCLE
  5
51
100
AcDbEntity
  8
cover bottom
  6
ByLayer
 62
  256
370
   -1
100
AcDbCircle
 10
94.9956132247721
 20
-34.92291074707163
 40
1.1
  0
LINE
  5
52
100
AcDbEntity
  8
cover bottom
  6
CONTINUOUS
 62
  256
370
   -1
100
AcDbLine
 10
90.48899999999998
 20
-162.694
 11
200.025
 21
-162.694
  0
LINE
  5
53
100
AcDbEntity
  8
cover bottom
  6
CONTINUOUS
 62
  256
370
   -1
100
AcDbLine
 10
200.182
 20
-29.359
 11
200.184
 21
-29.3595
  0
LINE
  5
54
100
AcDbEntity
  8
cover bottom
  6
CONTINUOUS
 62
  256
370
   -1
100
AcDbLine
 10
200.184
 20
-29.3595
 11
200.186
 21
-29.3599
  0
LINE
  5
55
100
AcDbEntity
  8
cover bottom
  6
CONTINUOUS
 62
  256
370
   -1
100
AcDbLine
 10
200.186
 20
-29.3599
 11
200.335
 21
-29.4047
  0
LINE
  5
56
100
AcDbEntity
  8
cover bottom
  6
CONTINUOUS
 62
  256
370
   -1
100
AcDbLine
 10
200.335
 20
-29.4047
 11
200.335
 21
-29.4048
  0
LINE
  5
57
100
AcDbEntity
  8
cover bottom
  6
CONTINUOUS
 62
  256
370
   -1
100
AcDbLine
 10
200.335
 20
-29.4048
 11
200.337
 21
-29.4057
  0
LINE
  5
58
100
AcDbEntity
  8
cover bottom
  6
CONTINUOUS
 62
  256
370
   -1
100
AcDbLine
 10
200.337
 20
-29.4057
 11
200.339
 21
-29.4066
  0
LINE
  5
59
100
AcDbEntity
  8
cover bottom
  6
CONTINUOUS
 62
  256
370
   -1
100
AcDbLine
 10
200.339
 20
-29.4066
 11
200.476
 21
-29.4793
  0
LINE
  5
5A
100
AcDbEntity
  8
cover bottom
  6
CONTINUOUS
 62
  256
370
   -1
100
AcDbLine
 10
200.476
 20
-29.4793
 11
200.476
 21
-29.4795
  0
LINE
  5
5B
100
AcDbEntity
  8
cover bottom
  6
CONTINUOUS
 62
  256
370
   -1
100
AcDbLine
 10
200.476
 20
-29.4795
 11
200.478
 21
-29.4807
  0
LINE
  5
5C
100
AcDbEntity
  8
cover bottom
  6
CONTINUOUS
 62
  256
370
   -1
100
AcDbLine
 10
200.478
 20
-29.4807
 11
200.48
 21
-29.482
  0
LINE
  5
5D
100
AcDbEntity
  8
cover bottom
  6
CONTINUOUS
 62
  256
370
   -1
100
AcDbLine
 10
200.48
 20
-29.482
 11
200.6
 21
-29.5799
  0
LINE
  5
5E
100
AcDbEntity
  8
cover bottom
  6
CONTINUOUS
 62
  256
370
   -1
100
AcDbLine
 10
200.6
 20
-29.5799
 11
200.6
 21
-29.5801
  0
LINE
  5
5F
100
AcDbEntity
  8
cover bottom
  6
CONTINUOUS
 62
  256
370
   -1
100
AcDbLine
 10
200.6
 20
-29.5801
 11
200.602
 21
-29.5817
  0
LINE
  5
60
100
AcDbEntity
  8
cover bottom
  6
CONTINUOUS
 62
  256
370
   -1
100
AcDbLine
 10
200.602
 20
-29.5817
 11
200.604
 21
-29.5833
  0
LINE
  5
61
100
AcDbEntity
  8
cover bottom
  6
CONTINUOUS
 62
  256
370
   -1
100
AcDbLine
 10
200.604
 20
-29.5833
 11
200.702
 21
-29.7027
  0
LINE
  5
62
100
AcDbEntity
  8
cover bottom
  6
CONTINUOUS
 62
  256
370
   -1
100
AcDbLine
 10
200.702
 20
-29.7027
 11
200.703
 21
-29.703
  0
LINE
  5
63
100
AcDbEntity
  8
cover bottom
  6
CONTINUOUS
 62
  256
370
   -1
100
AcDbLine
 10
200.703
 20
-29.703
 11
200.704
 21
-29.7049
  0
LINE
  5
64
100
AcDbEntity
  8
cover bottom
  6
CONTINUOUS
 62
  256
370
   -1
100
AcDbLine
 10
200.704
 20
-29.7049
 11
200.705
 21
-29.7067
  0
LINE
  5
65
100
AcDbEntity
  8
cover bottom
  6
CONTINUOUS
 62
  256
370
   -1
100
AcDbLine
 10
200.705
 20
-29.7067
 11
200.779
 21
-29.843
  0
LINE
  5
66
100
AcDbEntity
  8
cover bottom
  6
CONTINUOUS
 62
  256
370
   -1
100
AcDbLine
 10
200.779
 20
-29.843
 11
200.779
 21
-29.843
  0
LINE
  5
67
100
AcDbEntity
  8
cover bottom
  6
CONTINUOUS
 62
  256
370
   -1
100
AcDbLine
 10
200.779
 20
-29.843
 11
200.779
 21
-29.843
  0
LINE
  5
68
100
AcDbEntity
  8
cover bottom
  6
CONTINUOUS
 62
  256
370
   -1
100
AcDbLine
 10
200.779
 20
-29.843
 11
200.779
 21
-29.8433
  0
LINE
  5
69
100
AcDbEntity
  8
cover bottom
  6
CONTINUOUS
 62
  256
370
   -1
100
AcDbLine
 10
200.779
 20
-29.8433
 11
200.78
 21
-29.8454
  0
LINE
  5
6A
100
AcDbEntity
  8
cover bottom
  6
CONTINUOUS
 62
  256
370
   -1
100
AcDbLine
 10
200.78
 20
-29.8454
 11
200.781
 21
-29.8475
  0
LINE
  5
6B
100
AcDbEntity
  8
cover bottom
  6
CONTINUOUS
 62
  256
370
   -1
100
AcDbLine
 10
200.781
 20
-29.8475
 11
200.826
 21
-29.9955
  0
LINE
  5
6C
100
AcDbEntity
  8
cover bottom
  6
CONTINUOUS
 62
  256
370
   -1
100
AcDbLine
 10
200.826
 20
-29.9955
 11
200.827
 21
-29.9958
  0
LINE
  5
6D
100
AcDbEntity
  8
cover bottom
  6
CONTINUOUS
 62
  256
370
   -1
100
AcDbLine
 10
200.827
 20
-29.9958
 11
200.827
 21
-29.9981
  0
LINE
  5
6E
100
AcDbEntity
  8
cover bottom
  6
CONTINUOUS
 62
  256
370
   -1
100
AcDbLine
 10
200.827
 20
-29.9981
 11
200.827
 21
-30.0003
  0
LINE
  5
6F
100
AcDbEntity
  8
cover bottom
  6
CONTINUOUS
 62
  256
370
   -1
100
AcDbLine
 10
200.827
 20
-30.0003
 11
200.844
 21
-30.1543
  0
LINE
  5
70
100
AcDbEntity
  8
cover bottom
  6
CONTINUOUS
 62
  256
370
   -1
100
AcDbLine
 10
200.844
 20
-30.1543
 11
200.844
 21
-30.1547
  0
LINE
  5
71
100
AcDbEntity
  8
cover bottom
  6
CONTINUOUS
 62
  256
370
   -1
100
AcDbLine
 10
200.844
 20
-30.1547
 11
200.844
 21
-30.1558
  0
LINE
  5
72
100
AcDbEntity
  8
cover bottom
  6
CONTINUOUS
 62
  256
370
   -1
100
AcDbLine
 10
200.844
 20
-30.1558
 11
200.844
 21
-30.1569
  0
LINE
  5
73
100
AcDbEntity
  8
cover bottom
  6
CONTINUOUS
 62
  256
370
   -1
100
AcDbLine
 10
200.844
 20
-30.1569
 11
200.844
 21
-30.1612
  0
LINE
  5
74
100
AcDbEntity
  8
cover bottom
  6
CONTINUOUS
 62
  256
370
   -1
100
AcDbLine
 10
200.844
 20
-30.1612
 11
200.844
 21
-30.1613
  0
LINE
  5
75
100
AcDbEntity
  8
cover bottom
  6
CONTINUOUS
 62
  256
370
   -1
100
AcDbLine
 10
200.844
 20
-30.1613
 11
200.844
 21
-161.926
  0
LINE
  5
76
100
AcDbEntity
  8
cover bottom
  6
CONTINUOUS
 62
  256
370
   -1
100
AcDbLine
 10
200.829
 20
-162.082
 11
200.828
 21
-162.082
  0
LINE
  5
77
100
AcDbEntity
  8
cover bottom
  6
CONTINUOUS
 62
  256
370
   -1
100
AcDbLine
 10
200.828
 20
-162.082
 11
200.828
 21
-162.084
  0
LINE
  5
78
100
AcDbEntity
  8
cover bottom
  6
CONTINUOUS
 62
  256
370
   -1
100
AcDbLine
 10
200.828
 20
-162.084
 11
200.828
 21
-162.086
  0
LINE
  5
79
100
AcDbEntity
  8
cover bottom
  6
CONTINUOUS
 62
  256
370
   -1
100
AcDbLine
 10
200.828
 20
-162.086
 11
200.783
 21
-162.235
  0
LINE
  5
7A
100
AcDbEntity
  8
cover bottom
  6
CONTINUOUS
 62
  256
370
   -1
100
AcDbLine
 10
200.783
 20
-162.235
 11
200.783
 21
-162.235
  0
LINE
  5
7B
100
AcDbEntity
  8
cover bottom
  6
CONTINUOUS
 62
  256
370
   -1
100
AcDbLine
 10
200.783
 20
-162.235
 11
200.782
 21
-162.237
  0
LINE
  5
7C
100
AcDbEntity
  8
cover bottom
  6
CONTINUOUS
 62
  256
370
   -1
100
AcDbLine
 10
200.782
 20
-162.237
 11
200.781
 21
-162.239
  0
LINE
  5
7D
100
AcDbEntity
  8
cover bottom
  6
CONTINUOUS
 62
  256
370
   -1
100
AcDbLine
 10
200.781
 20
-162.239
 11
200.708
 21
-162.376
  0
LINE
  5
7E
100
AcDbEntity
  8
cover bottom
  6
CONTINUOUS
 62
  256
370
   -1
100
AcDbLine
 10
200.708
 20
-162.376
 11
200.708
 21
-162.376
  0
LINE
  5
7F
100
AcDbEntity
  8
cover bottom
  6
CONTINUOUS
 62
  256
370
   -1
100
AcDbLine
 10
200.708
 20
-162.376
 11
200.707
 21
-162.378
  0
LINE
  5
80
100
AcDbEntity
  8
cover bottom
  6
CONTINUOUS
 62
  256
370
   -1
100
AcDbLine
 10
200.707
 20
-162.378
 11
200.706
 21
-162.38
  0
LINE
  5
81
100
AcDbEntity
  8
cover bottom
  6
CONTINUOUS
 62
  256
370
   -1
100
AcDbLine
 10
200.706
 20
-162.38
 11
200.608
 21
-162.5
  0
LINE
  5
82
100
AcDbEntity
  8
cover bottom
  6
CONTINUOUS
 62
  256
370
   -1
100
AcDbLine
 10
200.608
 20
-162.5
 11
200.607
 21
-162.5
  0
LINE
  5
83
100
AcDbEntity
  8
cover bottom
  6
CONTINUOUS
 62
  256
370
   -1
100
AcDbLine
 10
200.607
 20
-162.5
 11
200.606
 21
-162.502
  0
LINE
  5
84
100
AcDbEntity
  8
cover bottom
  6
CONTINUOUS
 62
  256
370
   -1
100
AcDbLine
 10
200.606
 20
-162.502
 11
200.604
 21
-162.504
  0
LINE
  5
85
100
AcDbEntity
  8
cover bottom
  6
CONTINUOUS
 62
  256
370
   -1
100
AcDbLine
 10
200.604
 20
-162.504
 11
200.485
 21
-162.602
  0
LINE
  5
86
100
AcDbEntity
  8
cover bottom
  6
CONTINUOUS
 62
  256
370
   -1
100
AcDbLine
 10
200.485
 20
-162.602
 11
200.485
 21
-162.603
  0
LINE
  5
87
100
AcDbEntity
  8
cover bottom
  6
CONTINUOUS
 62
  256
370
   -1
100
AcDbLine
 10
200.485
 20
-162.603
 11
200.483
 21
-162.604
  0
LINE
  5
88
100
AcDbEntity
  8
cover bottom
  6
CONTINUOUS
 62
  256
370
   -1
100
AcDbLine
 10
200.483
 20
-162.604
 11
200.481
 21
-162.605
  0
LINE
  5
89
100
AcDbEntity
  8
cover bottom
  6
CONTINUOUS
 62
  256
370
   -1
100
AcDbLine
 10
200.481
 20
-162.605
 11
200.344
 21
-162.679
  0
LINE
  5
8A
100
AcDbEntity
  8
cover bottom
  6
CONTINUOUS
 62
  256
370
   -1
100
AcDbLine
 10
200.344
 20
-162.679
 11
200.344
 21
-162.679
  0
LINE
  5
8B
100
AcDbEntity
  8
cover bottom
  6
CONTINUOUS
 62
  256
370
   -1
100
AcDbLine
 10
200.344
 20
-162.679
 11
200.342
 21
-162.68
  0
LINE
  5
8C
100
AcDbEntity
  8
cover bottom
  6
CONTINUOUS
 62
  256
370
   -1
100
AcDbLine
 10
200.342
 20
-162.68
 11
200.34
 21
-162.681
  0
LINE
  5
8D
100
AcDbEntity
  8
cover bottom
  6
CONTINUOUS
 62
  256
370
   -1
100
AcDbLine
 10
200.34
 20
-162.681
 11
200.192
 21
-162.726
  0
LINE
  5
8E
100
AcDbEntity
  8
cover bottom
  6
CONTINUOUS
 62
  256
370
   -1
100
AcDbLine
 10
200.192
 20
-162.726
 11
200.192
 21
-162.727
  0
LINE
  5
8F
100
AcDbEntity
  8
cover bottom
  6
CONTINUOUS
 62
  256
370
   -1
100
AcDbLine
 10
200.192
 20
-162.727
 11
200.189
 21
-162.727
  0
LINE
  5
90
100
AcDbEntity
  8
cover bottom
  6
CONTINUOUS
 62
  256
370
   -1
100
AcDbLine
 10
200.189
 20
-162.727
 11
200.187
 21
-162.727
  0
LINE
  5
91
100
AcDbEntity
  8
cover bottom
  6
CONTINUOUS
 62
  256
370
   -1
100
AcDbLine
 10
200.187
 20
-162.727
 11
200.033
 21
-162.744
  0
LINE
  5
92
100
AcDbEntity
  8
cover bottom
  6
CONTINUOUS
 62
  256
370
   -1
100
AcDbLine
 10
200.033
 20
-162.744
 11
200.033
 21
-162.744
  0
LINE
  5
93
100
AcDbEntity
  8
cover bottom
  6
CONTINUOUS
 62
  256
370
   -1
100
AcDbLine
 10
200.033
 20
-162.744
 11
200.032
 21
-162.744
  0
LINE
  5
94
100
AcDbEntity
  8
cover bottom
  6
CONTINUOUS
 62
  256
370
   -1
100
AcDbLine
 10
200.032
 20
-162.744
 11
200.031
 21
-162.744
  0
LINE
  5
95
100
AcDbEntity
  8
cover bottom
  6
CONTINUOUS
 62
  256
370
   -1
100
AcDbLine
 10
200.031
 20
-162.744
 11
200.026
 21
-162.744
  0
LINE
  5
96
100
AcDbEntity
  8
cover bottom
  6
CONTINUOUS
 62
  256
370
   -1
100
AcDbLine
 10
200.026
 20
-162.744
 11
200.026
 21
-162.744
  0
LINE
  5
97
100
AcDbEntity
  8
cover bottom
  6
CONTINUOUS
 62
  256
370
   -1
100
AcDbLine
 10
200.026
 20
-162.744
 11
90.48630000000003
 21
-162.744
  0
LINE
  5
98
100
AcDbEntity
  8
cover bottom
  6
CONTINUOUS
 62
  256
370
   -1
100
AcDbLine
 10
90.48630000000003
 20
-162.744
 11
90.48509999999999
 21
-162.744
  0
LINE
  5
99
100
AcDbEntity
  8
cover bottom
  6
CONTINUOUS
 62
  256
370
   -1
100
AcDbLine
 10
90.48509999999999
 20
-162.744
 11
90.48509999999999
 21
-162.744
  0
LINE
  5
9A
100
AcDbEntity
  8
cover bottom
  6
CONTINUOUS
 62
  256
370
   -1
100
AcDbLine
 10
90.48509999999999
 20
-162.744
 11
90.33089999999999
 21
-162.729
  0
LINE
  5
9B
100
AcDbEntity
  8
cover bottom
  6
CONTINUOUS
 62
  256
370
   -1
100
AcDbLine
 10
90.33089999999999
 20
-162.729
 11
90.33050000000003
 21
-162.728
  0
LINE
  5
9C
100
AcDbEntity
  8
cover bottom
  6
CONTINUOUS
 62
  256
370
   -1
100
AcDbLine
 10
90.33050000000003
 20
-162.728
 11
90.32830000000001
 21
-162.728
  0
LINE
  5
9D
100
AcDbEntity
  8
cover bottom
  6
CONTINUOUS
 62
  256
370
   -1
100
AcDbLine
 10
90.32830000000001
 20
-162.728
 11
90.3261
 21
-162.728
  0
LINE
  5
9E
100
AcDbEntity
  8
cover bottom
  6
CONTINUOUS
 62
  256
370
   -1
100
AcDbLine
 10
90.3261
 20
-162.728
 11
90.17779999999999
 21
-162.683
  0
LINE
  5
9F
100
AcDbEntity
  8
cover bottom
  6
CONTINUOUS
 62
  256
370
   -1
100
AcDbLine
 10
90.17779999999999
 20
-162.683
 11
90.17750000000001
 21
-162.683
  0
LINE
  5
A0
100
AcDbEntity
  8
cover bottom
  6
CONTINUOUS
 62
  256
370
   -1
100
AcDbLine
 10
90.17750000000001
 20
-162.683
 11
90.17539999999997
 21
-162.682
  0
LINE
  5
A1
100
AcDbEntity
  8
cover bottom
  6
CONTINUOUS
 62
  256
370
   -1
100
AcDbLine
 10
90.17539999999997
 20
-162.682
 11
90.17329999999998
 21
-162.681
  0
LINE
  5
A2
100
AcDbEntity
  8
cover bottom
  6
CONTINUOUS
 62
  256
370
   -1
100
AcDbLine
 10
90.17329999999998
 20
-162.681
 11
90.03649999999999
 21
-162.608
  0
LINE
  5
A3
100
AcDbEntity
  8
cover bottom
  6
CONTINUOUS
 62
  256
370
   -1
100
AcDbLine
 10
90.03649999999999
 20
-162.608
 11
90.03620000000001
 21
-162.608
  0
LINE
  5
A4
100
AcDbEntity
  8
cover bottom
  6
CONTINUOUS
 62
  256
370
   -1
100
AcDbLine
 10
90.03620000000001
 20
-162.608
 11
90.03430000000003
 21
-162.607
  0
LINE
  5
A5
100
AcDbEntity
  8
cover bottom
  6
CONTINUOUS
 62
  256
370
   -1
100
AcDbLine
 10
90.03430000000003
 20
-162.607
 11
90.0324
 21
-162.606
  0
LINE
  5
A6
100
AcDbEntity
  8
cover bottom
  6
CONTINUOUS
 62
  256
370
   -1
100
AcDbLine
 10
90.0324
 20
-162.606
 11
89.91239999999999
 21
-162.508
  0
LINE
  5
A7
100
AcDbEntity
  8
cover bottom
  6
CONTINUOUS
 62
  256
370
   -1
100
AcDbLine
 10
89.91239999999999
 20
-162.508
 11
89.91210000000001
 21
-162.507
  0
LINE
  5
A8
100
AcDbEntity
  8
cover bottom
  6
CONTINUOUS
 62
  256
370
   -1
100
AcDbLine
 10
89.91210000000001
 20
-162.507
 11
89.91059999999999
 21
-162.506
  0
LINE
  5
A9
100
AcDbEntity
  8
cover bottom
  6
CONTINUOUS
 62
  256
370
   -1
100
AcDbLine
 10
89.91059999999999
 20
-162.506
 11
89.90890000000002
 21
-162.504
  0
LINE
  5
AA
100
AcDbEntity
  8
cover bottom
  6
CONTINUOUS
 62
  256
370
   -1
100
AcDbLine
 10
89.90890000000002
 20
-162.504
 11
89.81020000000001
 21
-162.385
  0
LINE
  5
AB
100
AcDbEntity
  8
cover bottom
  6
CONTINUOUS
 62
  256
370
   -1
100
AcDbLine
 10
89.81020000000001
 20
-162.385
 11
89.81
 21
-162.385
  0
LINE
  5
AC
100
AcDbEntity
  8
cover bottom
  6
CONTINUOUS
 62
  256
370
   -1
100
AcDbLine
 10
89.81
 20
-162.385
 11
89.80869999999999
 21
-162.383
  0
LINE
  5
AD
100
AcDbEntity
  8
cover bottom
  6
CONTINUOUS
 62
  256
370
   -1
100
AcDbLine
 10
89.80869999999999
 20
-162.383
 11
89.8075
 21
-162.381
  0
LINE
  5
AE
100
AcDbEntity
  8
cover bottom
  6
CONTINUOUS
 62
  256
370
   -1
100
AcDbLine
 10
89.8075
 20
-162.381
 11
89.73379999999997
 21
-162.244
  0
LINE
  5
AF
100
AcDbEntity
  8
cover bottom
  6
CONTINUOUS
 62
  256
370
   -1
100
AcDbLine
 10
89.73379999999997
 20
-162.244
 11
89.73360000000002
 21
-162.244
  0
LINE
  5
B0
100
AcDbEntity
  8
cover bottom
  6
CONTINUOUS
 62
  256
370
   -1
100
AcDbLine
 10
89.73360000000002
 20
-162.244
 11
89.7328
 21
-162.242
  0
LINE
  5
B1
100
AcDbEntity
  8
cover bottom
  6
CONTINUOUS
 62
  256
370
   -1
100
AcDbLine
 10
89.7328
 20
-162.242
 11
89.7319
 21
-162.24
  0
LINE
  5
B2
100
AcDbEntity
  8
cover bottom
  6
CONTINUOUS
 62
  256
370
   -1
100
AcDbLine
 10
89.7319
 20
-162.24
 11
89.68610000000001
 21
-162.092
  0
LINE
  5
B3
100
AcDbEntity
  8
cover bottom
  6
CONTINUOUS
 62
  256
370
   -1
100
AcDbLine
 10
89.68610000000001
 20
-162.092
 11
89.68600000000004
 21
-162.092
  0
LINE
  5
B4
100
AcDbEntity
  8
cover bottom
  6
CONTINUOUS
 62
  256
370
   -1
100
AcDbLine
 10
89.68600000000004
 20
-162.092
 11
89.68560000000002
 21
-162.089
  0
LINE
  5
B5
100
AcDbEntity
  8
cover bottom
  6
CONTINUOUS
 62
  256
370
   -1
100
AcDbLine
 10
89.68560000000002
 20
-162.089
 11
89.68510000000003
 21
-162.087
  0
LINE
  5
B6
100
AcDbEntity
  8
cover bottom
  6
CONTINUOUS
 62
  256
370
   -1
100
AcDbLine
 10
89.66880000000003
 20
-161.926
 11
89.66880000000003
 21
-30.1613
  0
LINE
  5
B7
100
AcDbEntity
  8
cover bottom
  6
CONTINUOUS
 62
  256
370
   -1
100
AcDbLine
 10
89.66880000000003
 20
-30.1613
 11
89.66890000000001
 21
-30.1601
  0
LINE
  5
B8
100
AcDbEntity
  8
cover bottom
  6
CONTINUOUS
 62
  256
370
   -1
100
AcDbLine
 10
89.66890000000001
 20
-30.1601
 11
89.66890000000001
 21
-30.1601
  0
LINE
  5
B9
100
AcDbEntity
  8
cover bottom
  6
CONTINUOUS
 62
  256
370
   -1
100
AcDbLine
 10
89.66890000000001
 20
-30.1601
 11
89.68399999999997
 21
-30.0059
  0
LINE
  5
BA
100
AcDbEntity
  8
cover bottom
  6
CONTINUOUS
 62
  256
370
   -1
100
AcDbLine
 10
89.68399999999997
 20
-30.0059
 11
89.68399999999997
 21
-30.0055
  0
LINE
  5
BB
100
AcDbEntity
  8
cover bottom
  6
CONTINUOUS
 62
  256
370
   -1
100
AcDbLine
 10
89.68399999999997
 20
-30.0055
 11
89.68450000000001
 21
-30.0033
  0
LINE
  5
BC
100
AcDbEntity
  8
cover bottom
  6
CONTINUOUS
 62
  256
370
   -1
100
AcDbLine
 10
89.68450000000001
 20
-30.0033
 11
89.68489999999997
 21
-30.0011
  0
LINE
  5
BD
100
AcDbEntity
  8
cover bottom
  6
CONTINUOUS
 62
  256
370
   -1
100
AcDbLine
 10
89.68489999999997
 20
-30.0011
 11
89.72969999999998
 21
-29.8528
  0
LINE
  5
BE
100
AcDbEntity
  8
cover bottom
  6
CONTINUOUS
 62
  256
370
   -1
100
AcDbLine
 10
89.72969999999998
 20
-29.8528
 11
89.72980000000001
 21
-29.8525
  0
LINE
  5
BF
100
AcDbEntity
  8
cover bottom
  6
CONTINUOUS
 62
  256
370
   -1
100
AcDbLine
 10
89.72980000000001
 20
-29.8525
 11
89.73070000000001
 21
-29.8504
  0
LINE
  5
C0
100
AcDbEntity
  8
cover bottom
  6
CONTINUOUS
 62
  256
370
   -1
100
AcDbLine
 10
89.73070000000001
 20
-29.8504
 11
89.73160000000001
 21
-29.8483
  0
LINE
  5
C1
100
AcDbEntity
  8
cover bottom
  6
CONTINUOUS
 62
  256
370
   -1
100
AcDbLine
 10
89.73160000000001
 20
-29.8483
 11
89.80430000000001
 21
-29.7115
  0
LINE
  5
C2
100
AcDbEntity
  8
cover bottom
  6
CONTINUOUS
 62
  256
370
   -1
100
AcDbLine
 10
89.80430000000001
 20
-29.7115
 11
89.80450000000002
 21
-29.7112
  0
LINE
  5
C3
100
AcDbEntity
  8
cover bottom
  6
CONTINUOUS
 62
  256
370
   -1
100
AcDbLine
 10
89.80450000000002
 20
-29.7112
 11
89.8057
 21
-29.7093
  0
LINE
  5
C4
100
AcDbEntity
  8
cover bottom
  6
CONTINUOUS
 62
  256
370
   -1
100
AcDbLine
 10
89.8057
 20
-29.7093
 11
89.80700000000002
 21
-29.7074
  0
LINE
  5
C5
100
AcDbEntity
  8
cover bottom
  6
CONTINUOUS
 62
  256
370
   -1
100
AcDbLine
 10
89.80700000000002
 20
-29.7074
 11
89.9049
 21
-29.5874
  0
LINE
  5
C6
100
AcDbEntity
  8
cover bottom
  6
CONTINUOUS
 62
  256
370
   -1
100
AcDbLine
 10
89.9049
 20
-29.5874
 11
89.9051
 21
-29.5871
  0
LINE
  5
C7
100
AcDbEntity
  8
cover bottom
  6
CONTINUOUS
 62
  256
370
   -1
100
AcDbLine
 10
89.9051
 20
-29.5871
 11
89.9067
 21
-29.5856
  0
LINE
  5
C8
100
AcDbEntity
  8
cover bottom
  6
CONTINUOUS
 62
  256
370
   -1
100
AcDbLine
 10
89.9067
 20
-29.5856
 11
89.9083
 21
-29.5839
  0
LINE
  5
C9
100
AcDbEntity
  8
cover bottom
  6
CONTINUOUS
 62
  256
370
   -1
100
AcDbLine
 10
89.9083
 20
-29.5839
 11
90.02769999999998
 21
-29.4852
  0
LINE
  5
CA
100
AcDbEntity
  8
cover bottom
  6
CONTINUOUS
 62
  256
370
   -1
100
AcDbLine
 10
90.02769999999998
 20
-29.4852
 11
90.02800000000002
 21
-29.485
  0
LINE
  5
CB
100
AcDbEntity
  8
cover bottom
  6
CONTINUOUS
 62
  256
370
   -1
100
AcDbLine
 10
90.02800000000002
 20
-29.485
 11
90.0299
 21
-29.4837
  0
LINE
  5
CC
100
AcDbEntity
  8
cover bottom
  6
CONTINUOUS
 62
  256
370
   -1
100
AcDbLine
 10
90.0299
 20
-29.4837
 11
90.03179999999998
 21
-29.4825
  0
LINE
  5
CD
100
AcDbEntity
  8
cover bottom
  6
CONTINUOUS
 62
  256
370
   -1
100
AcDbLine
 10
90.03179999999998
 20
-29.4825
 11
90.16800000000001
 21
-29.4088
  0
LINE
  5
CE
100
AcDbEntity
  8
cover bottom
  6
CONTINUOUS
 62
  256
370
   -1
100
AcDbLine
 10
90.16800000000001
 20
-29.4088
 11
90.16800000000001
 21
-29.4088
  0
LINE
  5
CF
100
AcDbEntity
  8
cover bottom
  6
CONTINUOUS
 62
  256
370
   -1
100
AcDbLine
 10
90.16800000000001
 20
-29.4088
 11
90.16800000000001
 21
-29.4088
  0
LINE
  5
D0
100
AcDbEntity
  8
cover bottom
  6
CONTINUOUS
 62
  256
370
   -1
100
AcDbLine
 10
90.16800000000001
 20
-29.4088
 11
90.16829999999999
 21
-29.4086
  0
LINE
  5
D1
100
AcDbEntity
  8
cover bottom
  6
CONTINUOUS
 62
  256
370
   -1
100
AcDbLine
 10
90.16829999999999
 20
-29.4086
 11
90.17039999999997
 21
-29.4078
  0
LINE
  5
D2
100
AcDbEntity
  8
cover bottom
  6
CONTINUOUS
 62
  256
370
   -1
100
AcDbLine
 10
90.17039999999997
 20
-29.4078
 11
90.17250000000001
 21
-29.4069
  0
LINE
  5
D3
100
AcDbEntity
  8
cover bottom
  6
CONTINUOUS
 62
  256
370
   -1
100
AcDbLine
 10
90.17250000000001
 20
-29.4069
 11
90.32049999999998
 21
-29.3611
  0
LINE
  5
D4
100
AcDbEntity
  8
cover bottom
  6
CONTINUOUS
 62
  256
370
   -1
100
AcDbLine
 10
90.32049999999998
 20
-29.3611
 11
90.32080000000002
 21
-29.361
  0
LINE
  5
D5
100
AcDbEntity
  8
cover bottom
  6
CONTINUOUS
 62
  256
370
   -1
100
AcDbLine
 10
90.32080000000002
 20
-29.361
 11
90.32310000000001
 21
-29.3606
  0
LINE
  5
D6
100
AcDbEntity
  8
cover bottom
  6
CONTINUOUS
 62
  256
370
   -1
100
AcDbLine
 10
90.32310000000001
 20
-29.3606
 11
90.32529999999997
 21
-29.3601
  0
LINE
  5
D7
100
AcDbEntity
  8
cover bottom
  6
CONTINUOUS
 62
  256
370
   -1
100
AcDbLine
 10
90.32529999999997
 20
-29.3601
 11
90.47929999999997
 21
-29.3439
  0
LINE
  5
D8
100
AcDbEntity
  8
cover bottom
  6
CONTINUOUS
 62
  256
370
   -1
100
AcDbLine
 10
90.47929999999997
 20
-29.3439
 11
90.47969999999998
 21
-29.3439
  0
LINE
  5
D9
100
AcDbEntity
  8
cover bottom
  6
CONTINUOUS
 62
  256
370
   -1
100
AcDbLine
 10
90.47969999999998
 20
-29.3439
 11
90.48079999999999
 21
-29.3439
  0
LINE
  5
DA
100
AcDbEntity
  8
cover bottom
  6
CONTINUOUS
 62
  256
370
   -1
100
AcDbLine
 10
90.48079999999999
 20
-29.3439
 11
90.4819
 21
-29.3438
  0
LINE
  5
DB
100
AcDbEntity
  8
cover bottom
  6
CONTINUOUS
 62
  256
370
   -1
100
AcDbLine
 10
90.4819
 20
-29.3438
 11
90.4862
 21
-29.3438
  0
LINE
  5
DC
100
AcDbEntity
  8
cover bottom
  6
CONTINUOUS
 62
  256
370
   -1
100
AcDbLine
 10
90.4862
 20
-29.3438
 11
90.48630000000003
 21
-29.3438
  0
LINE
  5
DD
100
AcDbEntity
  8
cover bottom
  6
CONTINUOUS
 62
  256
370
   -1
100
AcDbLine
 10
90.48630000000003
 20
-29.3438
 11
200.026
 21
-29.3438
  0
LINE
  5
DE
100
AcDbEntity
  8
cover bottom
  6
CONTINUOUS
 62
  256
370
   -1
100
AcDbLine
 10
200.026
 20
-29.3438
 11
200.027
 21
-29.3439
  0
LINE
  5
DF
100
AcDbEntity
  8
cover bottom
  6
CONTINUOUS
 62
  256
370
   -1
100
AcDbLine
 10
200.027
 20
-29.3439
 11
200.027
 21
-29.3439
  0
LINE
  5
E0
100
AcDbEntity
  8
cover bottom
  6
CONTINUOUS
 62
  256
370
   -1
100
AcDbLine
 10
200.027
 20
-29.3439
 11
200.182
 21
-29.359
  0
LINE
  5
E1
100
AcDbEntity
  8
cover bottom
  6
CONTINUOUS
 62
  256
370
   -1
100
AcDbLine
 10
200.182
 20
-29.359
 11
200.182
 21
-29.359
  0
LINE
  5
E2
100
AcDbEntity
  8
cover bottom
  6
CONTINUOUS
 62
  256
370
   -1
100
AcDbLine
 10
200.182
 20
-29.359
 11
200.182
 21
-29.359
  0
LINE
  5
E3
100
AcDbEntity
  8
cover bottom
  6
CONTINUOUS
 62
  256
370
   -1
100
AcDbLine
 10
90.48759999999999
 20
-29.3937
 11
90.48329999999999
 21
-29.3938
  0
LINE
  5
E4
100
AcDbEntity
  8
cover bottom
  6
CONTINUOUS
 62
  256
370
   -1
100
AcDbLine
 10
90.48329999999999
 20
-29.3938
 11
90.3329
 21
-29.4096
  0
LINE
  5
E5
100
AcDbEntity
  8
cover bottom
  6
CONTINUOUS
 62
  256
370
   -1
100
AcDbLine
 10
90.3329
 20
-29.4096
 11
90.18959999999998
 21
-29.4539
  0
LINE
  5
E6
100
AcDbEntity
  8
cover bottom
  6
CONTINUOUS
 62
  256
370
   -1
100
AcDbLine
 10
90.18959999999998
 20
-29.4539
 11
90.05770000000001
 21
-29.5253
  0
LINE
  5
E7
100
AcDbEntity
  8
cover bottom
  6
CONTINUOUS
 62
  256
370
   -1
100
AcDbLine
 10
90.05770000000001
 20
-29.5253
 11
89.94209999999998
 21
-29.6209
  0
LINE
  5
E8
100
AcDbEntity
  8
cover bottom
  6
CONTINUOUS
 62
  256
370
   -1
100
AcDbLine
 10
89.94209999999998
 20
-29.6209
 11
89.84730000000002
 21
-29.7371
  0
LINE
  5
E9
100
AcDbEntity
  8
cover bottom
  6
CONTINUOUS
 62
  256
370
   -1
100
AcDbLine
 10
89.84730000000002
 20
-29.7371
 11
89.77690000000001
 21
-29.8696
  0
LINE
  5
EA
100
AcDbEntity
  8
cover bottom
  6
CONTINUOUS
 62
  256
370
   -1
100
AcDbLine
 10
89.77690000000001
 20
-29.8696
 11
89.73349999999999
 21
-30.0132
  0
LINE
  5
EB
100
AcDbEntity
  8
cover bottom
  6
CONTINUOUS
 62
  256
370
   -1
100
AcDbLine
 10
89.73349999999999
 20
-30.0132
 11
89.71879999999999
 21
-30.1637
  0
LINE
  5
EC
100
AcDbEntity
  8
cover bottom
  6
CONTINUOUS
 62
  256
370
   -1
100
AcDbLine
 10
89.7346
 20
-162.08
 11
89.77890000000002
 21
-162.223
  0
LINE
  5
ED
100
AcDbEntity
  8
cover bottom
  6
CONTINUOUS
 62
  256
370
   -1
100
AcDbLine
 10
89.77890000000002
 20
-162.223
 11
89.8503
 21
-162.355
  0
LINE
  5
EE
100
AcDbEntity
  8
cover bottom
  6
CONTINUOUS
 62
  256
370
   -1
100
AcDbLine
 10
89.8503
 20
-162.355
 11
89.94589999999999
 21
-162.47
  0
LINE
  5
EF
100
AcDbEntity
  8
cover bottom
  6
CONTINUOUS
 62
  256
370
   -1
100
AcDbLine
 10
89.94589999999999
 20
-162.47
 11
90.06209999999999
 21
-162.565
  0
LINE
  5
F0
100
AcDbEntity
  8
cover bottom
  6
CONTINUOUS
 62
  256
370
   -1
100
AcDbLine
 10
90.06209999999999
 20
-162.565
 11
90.19459999999998
 21
-162.636
  0
LINE
  5
F1
100
AcDbEntity
  8
cover bottom
  6
CONTINUOUS
 62
  256
370
   -1
100
AcDbLine
 10
90.19459999999998
 20
-162.636
 11
90.33820000000003
 21
-162.679
  0
LINE
  5
F2
100
AcDbEntity
  8
cover bottom
  6
CONTINUOUS
 62
  256
370
   -1
100
AcDbLine
 10
90.33820000000003
 20
-162.679
 11
90.48869999999999
 21
-162.694
  0
LINE
  5
F3
100
AcDbEntity
  8
cover bottom
  6
CONTINUOUS
 62
  256
370
   -1
100
AcDbLine
 10
200.025
 20
-162.694
 11
200.029
 21
-162.694
  0
LINE
  5
F4
100
AcDbEntity
  8
cover bottom
  6
CONTINUOUS
 62
  256
370
   -1
100
AcDbLine
 10
200.029
 20
-162.694
 11
200.18
 21
-162.678
  0
LINE
  5
F5
100
AcDbEntity
  8
cover bottom
  6
CONTINUOUS
 62
  256
370
   -1
100
AcDbLine
 10
200.18
 20
-162.678
 11
200.323
 21
-162.634
  0
LINE
  5
F6
100
AcDbEntity
  8
cover bottom
  6
CONTINUOUS
 62
  256
370
   -1
100
AcDbLine
 10
200.323
 20
-162.634
 11
200.455
 21
-162.562
  0
LINE
  5
F7
100
AcDbEntity
  8
cover bottom
  6
CONTINUOUS
 62
  256
370
   -1
100
AcDbLine
 10
200.455
 20
-162.562
 11
200.57
 21
-162.467
  0
LINE
  5
F8
100
AcDbEntity
  8
cover bottom
  6
CONTINUOUS
 62
  256
370
   -1
100
AcDbLine
 10
200.57
 20
-162.467
 11
200.665
 21
-162.35
  0
LINE
  5
F9
100
AcDbEntity
  8
cover bottom
  6
CONTINUOUS
 62
  256
370
   -1
100
AcDbLine
 10
200.665
 20
-162.35
 11
200.736
 21
-162.218
  0
LINE
  5
FA
100
AcDbEntity
  8
cover bottom
  6
CONTINUOUS
 62
  256
370
   -1
100
AcDbLine
 10
200.736
 20
-162.218
 11
200.779
 21
-162.074
  0
LINE
  5
FB
100
AcDbEntity
  8
cover bottom
  6
CONTINUOUS
 62
  256
370
   -1
100
AcDbLine
 10
200.794
 20
-30.1626
 11
200.794
 21
-30.1583
  0
LINE
  5
FC
100
AcDbEntity
  8
cover bottom
  6
CONTINUOUS
 62
  256
370
   -1
100
AcDbLine
 10
200.794
 20
-30.1583
 11
200.778
 21
-30.0079
  0
LINE
  5
FD
100
AcDbEntity
  8
cover bottom
  6
CONTINUOUS
 62
  256
370
   -1
100
AcDbLine
 10
200.778
 20
-30.0079
 11
200.734
 21
-29.8646
  0
LINE
  5
FE
100
AcDbEntity
  8
cover bottom
  6
CONTINUOUS
 62
  256
370
   -1
100
AcDbLine
 10
200.734
 20
-29.8646
 11
200.662
 21
-29.7327
  0
LINE
  5
FF
100
AcDbEntity
  8
cover bottom
  6
CONTINUOUS
 62
  256
370
   -1
100
AcDbLine
 10
200.662
 20
-29.7327
 11
200.567
 21
-29.6171
  0
LINE
  5
100
100
AcDbEntity
  8
cover bottom
  6
CONTINUOUS
 62
  256
370
   -1
100
AcDbLine
 10
200.567
 20
-29.6171
 11
200.45
 21
-29.5223
  0
LINE
  5
101
100
AcDbEntity
  8
cover bottom
  6
CONTINUOUS
 62
  256
370
   -1
100
AcDbLine
 10
200.45
 20
-29.5223
 11
200.318
 21
-29.4519
  0
LINE
  5
102
100
AcDbEntity
  8
cover bottom
  6
CONTINUOUS
 62
  256
370
   -1
100
AcDbLine
 10
200.318
 20
-29.4519
 11
200.174
 21
-29.4085
  0
LINE
  5
103
100
AcDbEntity
  8
cover bottom
  6
CONTINUOUS
 62
  256
370
   -1
100
AcDbLine
 10
200.174
 20
-29.4085
 11
200.024
 21
-29.3937
  0
LINE
  5
104
100
AcDbEntity
  8
cover bottom
  6
CONTINUOUS
 62
  256
370
   -1
100
AcDbLine
 10
200.024
 20
-29.3937
 11
90.48759999999999
 21
-29.3937
  0
CIRCLE
  5
105
100
AcDbEntity
  8
cover bottom
  6
ByLayer
 62
  256
370
   -1
100
AcDbCircle
 10
112.0148441280834
 20
-140.5690735068352
 40
1.1
  0
CIRCLE
  5
106
100
AcDbEntity
  8
cover bottom
  6
ByLayer
 62
  256
370
   -1
100
AcDbCircle
 10
111.8862250386088
 20
-83.43957612329208
 40
1.1
  0
ENDSEC
  0
SECTION
  2
OBJECTS
  0
DICTIONARY
  5
C
330
0
100
AcDbDictionary
281
    1
  3
ACAD_GROUP
350
D
  0
DICTIONARY
  5
D
330
C
100
AcDbDictionary
281
    1
  0
ENDSEC
  0
EOF
