<?xml version="1.0" standalone="no"?>
 <!DOCTYPE svg PUBLIC "-//W3C//DTD SVG 1.1//EN" 
 "http://www.w3.org/Graphics/SVG/1.1/DTD/svg11.dtd"> 
<svg
  xmlns:svg="http://www.w3.org/2000/svg"
  xmlns="http://www.w3.org/2000/svg"
  xmlns:xlink="http://www.w3.org/1999/xlink"
  version="1.1"
  width="29.700220cm" height="21.000720cm" viewBox="0 0 116930 82680">
<title>SVG Picture created as EGPad-F_Fab.svg date 2021/11/19 11:29:07 </title>
  <desc>Picture generated by PCBNEW </desc>
<g style="fill:#000000; fill-opacity:1;stroke:#000000; stroke-opacity:1;
stroke-linecap:round; stroke-linejoin:round;"
 transform="translate(0 0) scale(1 1)">
</g>
<g style="fill:#000000; fill-opacity:0.0; 
stroke:#000000; stroke-width:-0.000393701; stroke-opacity:1; 
stroke-linecap:round; stroke-linejoin:round;">
</g>
<g style="fill:#000000; fill-opacity:0.0; 
stroke:#000000; stroke-width:39.3701; stroke-opacity:1; 
stroke-linecap:round; stroke-linejoin:round;">
</g>
<g style="fill:#000000; fill-opacity:0.0; 
stroke:#000000; stroke-width:59.0551; stroke-opacity:1; 
stroke-linecap:round; stroke-linejoin:round;">
<rect x="69685.9" y="65357.2" width="42519.7" height="12598.4" rx="0" />
</g>
<g style="fill:#000000; fill-opacity:0.0; 
stroke:#000000; stroke-width:39.3701; stroke-opacity:1; 
stroke-linecap:round; stroke-linejoin:round;">
</g>
<g style="fill:#000000; fill-opacity:0.0; 
stroke:#000000; stroke-width:59.0551; stroke-opacity:1; 
stroke-linecap:round; stroke-linejoin:round;">
<rect x="3937.01" y="3937.01" width="109056" height="74806" rx="0" />
</g>
<g style="fill:#000000; fill-opacity:0.0; 
stroke:#000000; stroke-width:39.3701; stroke-opacity:1; 
stroke-linecap:round; stroke-linejoin:round;">
</g>
<g style="fill:#000000; fill-opacity:0.0; 
stroke:#000000; stroke-width:59.0551; stroke-opacity:1; 
stroke-linecap:round; stroke-linejoin:round;">
<rect x="4724.41" y="4724.41" width="107481" height="73231.2" rx="0" />
</g>
<g style="fill:#000000; fill-opacity:0.0; 
stroke:#000000; stroke-width:39.3701; stroke-opacity:1; 
stroke-linecap:round; stroke-linejoin:round;">
</g>
<g style="fill:#000000; fill-opacity:0.0; 
stroke:#000000; stroke-width:59.0551; stroke-opacity:1; 
stroke-linecap:round; stroke-linejoin:round;">
<path d="M23622 4724
L23622 3937
" />
</g>
<g style="fill:#000000; fill-opacity:0.0; 
stroke:#000000; stroke-width:39.3701; stroke-opacity:1; 
stroke-linecap:round; stroke-linejoin:round;">
</g>
<g style="fill:#000000; fill-opacity:0.0; 
stroke:#000000; stroke-width:59.0551; stroke-opacity:1; 
stroke-linecap:round; stroke-linejoin:round;">
<path d="M43307 4724
L43307 3937
" />
</g>
<g style="fill:#000000; fill-opacity:0.0; 
stroke:#000000; stroke-width:39.3701; stroke-opacity:1; 
stroke-linecap:round; stroke-linejoin:round;">
</g>
<g style="fill:#000000; fill-opacity:0.0; 
stroke:#000000; stroke-width:59.0551; stroke-opacity:1; 
stroke-linecap:round; stroke-linejoin:round;">
<path d="M62992 4724
L62992 3937
" />
</g>
<g style="fill:#000000; fill-opacity:0.0; 
stroke:#000000; stroke-width:39.3701; stroke-opacity:1; 
stroke-linecap:round; stroke-linejoin:round;">
</g>
<g style="fill:#000000; fill-opacity:0.0; 
stroke:#000000; stroke-width:59.0551; stroke-opacity:1; 
stroke-linecap:round; stroke-linejoin:round;">
<path d="M82677 4724
L82677 3937
" />
</g>
<g style="fill:#000000; fill-opacity:0.0; 
stroke:#000000; stroke-width:39.3701; stroke-opacity:1; 
stroke-linecap:round; stroke-linejoin:round;">
</g>
<g style="fill:#000000; fill-opacity:0.0; 
stroke:#000000; stroke-width:59.0551; stroke-opacity:1; 
stroke-linecap:round; stroke-linejoin:round;">
<path d="M102362 4724
L102362 3937
" />
</g>
<g style="fill:#000000; fill-opacity:0.0; 
stroke:#000000; stroke-width:39.3701; stroke-opacity:1; 
stroke-linecap:round; stroke-linejoin:round;">
</g>
<g style="fill:#000000; fill-opacity:0.0; 
stroke:#000000; stroke-width:59.0551; stroke-opacity:1; 
stroke-linecap:round; stroke-linejoin:round;">
<text x="13779.5" y="4586.61"
textLength="546.494" font-size="682.415" lengthAdjust="spacingAndGlyphs"
text-anchor="start" opacity="0">1</text>
<path d="M14199 4562
L13906 4562
" />
<path d="M14052 4562
L14052 4050
L14004 4123
L13955 4172
L13906 4196
" />
</g>
<g style="fill:#000000; fill-opacity:0.0; 
stroke:#000000; stroke-width:39.3701; stroke-opacity:1; 
stroke-linecap:round; stroke-linejoin:round;">
</g>
<g style="fill:#000000; fill-opacity:0.0; 
stroke:#000000; stroke-width:59.0551; stroke-opacity:1; 
stroke-linecap:round; stroke-linejoin:round;">
<text x="33464.6" y="4586.61"
textLength="546.494" font-size="682.415" lengthAdjust="spacingAndGlyphs"
text-anchor="start" opacity="0">2</text>
<path d="M33591 4099
L33615 4074
L33664 4050
L33786 4050
L33835 4074
L33859 4099
L33884 4147
L33884 4196
L33859 4269
L33567 4562
L33884 4562
" />
</g>
<g style="fill:#000000; fill-opacity:0.0; 
stroke:#000000; stroke-width:39.3701; stroke-opacity:1; 
stroke-linecap:round; stroke-linejoin:round;">
</g>
<g style="fill:#000000; fill-opacity:0.0; 
stroke:#000000; stroke-width:59.0551; stroke-opacity:1; 
stroke-linecap:round; stroke-linejoin:round;">
<text x="53149.6" y="4586.61"
textLength="546.494" font-size="682.415" lengthAdjust="spacingAndGlyphs"
text-anchor="start" opacity="0">3</text>
<path d="M53252 4050
L53569 4050
L53398 4245
L53471 4245
L53520 4269
L53544 4294
L53569 4342
L53569 4464
L53544 4513
L53520 4537
L53471 4562
L53325 4562
L53276 4537
L53252 4513
" />
</g>
<g style="fill:#000000; fill-opacity:0.0; 
stroke:#000000; stroke-width:39.3701; stroke-opacity:1; 
stroke-linecap:round; stroke-linejoin:round;">
</g>
<g style="fill:#000000; fill-opacity:0.0; 
stroke:#000000; stroke-width:59.0551; stroke-opacity:1; 
stroke-linecap:round; stroke-linejoin:round;">
<text x="72834.6" y="4586.61"
textLength="546.494" font-size="682.415" lengthAdjust="spacingAndGlyphs"
text-anchor="start" opacity="0">4</text>
<path d="M73205 4221
L73205 4562
" />
<path d="M73083 4026
L72961 4391
L73278 4391
" />
</g>
<g style="fill:#000000; fill-opacity:0.0; 
stroke:#000000; stroke-width:39.3701; stroke-opacity:1; 
stroke-linecap:round; stroke-linejoin:round;">
</g>
<g style="fill:#000000; fill-opacity:0.0; 
stroke:#000000; stroke-width:59.0551; stroke-opacity:1; 
stroke-linecap:round; stroke-linejoin:round;">
<text x="92519.7" y="4586.61"
textLength="546.494" font-size="682.415" lengthAdjust="spacingAndGlyphs"
text-anchor="start" opacity="0">5</text>
<path d="M92914 4050
L92671 4050
L92646 4294
L92671 4269
L92719 4245
L92841 4245
L92890 4269
L92914 4294
L92939 4342
L92939 4464
L92914 4513
L92890 4537
L92841 4562
L92719 4562
L92671 4537
L92646 4513
" />
</g>
<g style="fill:#000000; fill-opacity:0.0; 
stroke:#000000; stroke-width:39.3701; stroke-opacity:1; 
stroke-linecap:round; stroke-linejoin:round;">
</g>
<g style="fill:#000000; fill-opacity:0.0; 
stroke:#000000; stroke-width:59.0551; stroke-opacity:1; 
stroke-linecap:round; stroke-linejoin:round;">
<text x="112205" y="4586.61"
textLength="546.494" font-size="682.415" lengthAdjust="spacingAndGlyphs"
text-anchor="start" opacity="0">6</text>
<path d="M112575 4050
L112477 4050
L112429 4074
L112404 4099
L112356 4172
L112331 4269
L112331 4464
L112356 4513
L112380 4537
L112429 4562
L112526 4562
L112575 4537
L112599 4513
L112624 4464
L112624 4342
L112599 4294
L112575 4269
L112526 4245
L112429 4245
L112380 4269
L112356 4294
L112331 4342
" />
</g>
<g style="fill:#000000; fill-opacity:0.0; 
stroke:#000000; stroke-width:39.3701; stroke-opacity:1; 
stroke-linecap:round; stroke-linejoin:round;">
</g>
<g style="fill:#000000; fill-opacity:0.0; 
stroke:#000000; stroke-width:59.0551; stroke-opacity:1; 
stroke-linecap:round; stroke-linejoin:round;">
<path d="M23622 77955
L23622 78742
" />
</g>
<g style="fill:#000000; fill-opacity:0.0; 
stroke:#000000; stroke-width:39.3701; stroke-opacity:1; 
stroke-linecap:round; stroke-linejoin:round;">
</g>
<g style="fill:#000000; fill-opacity:0.0; 
stroke:#000000; stroke-width:59.0551; stroke-opacity:1; 
stroke-linecap:round; stroke-linejoin:round;">
<path d="M43307 77955
L43307 78742
" />
</g>
<g style="fill:#000000; fill-opacity:0.0; 
stroke:#000000; stroke-width:39.3701; stroke-opacity:1; 
stroke-linecap:round; stroke-linejoin:round;">
</g>
<g style="fill:#000000; fill-opacity:0.0; 
stroke:#000000; stroke-width:59.0551; stroke-opacity:1; 
stroke-linecap:round; stroke-linejoin:round;">
<path d="M62992 77955
L62992 78742
" />
</g>
<g style="fill:#000000; fill-opacity:0.0; 
stroke:#000000; stroke-width:39.3701; stroke-opacity:1; 
stroke-linecap:round; stroke-linejoin:round;">
</g>
<g style="fill:#000000; fill-opacity:0.0; 
stroke:#000000; stroke-width:59.0551; stroke-opacity:1; 
stroke-linecap:round; stroke-linejoin:round;">
<path d="M82677 77955
L82677 78742
" />
</g>
<g style="fill:#000000; fill-opacity:0.0; 
stroke:#000000; stroke-width:39.3701; stroke-opacity:1; 
stroke-linecap:round; stroke-linejoin:round;">
</g>
<g style="fill:#000000; fill-opacity:0.0; 
stroke:#000000; stroke-width:59.0551; stroke-opacity:1; 
stroke-linecap:round; stroke-linejoin:round;">
<path d="M102362 77955
L102362 78742
" />
</g>
<g style="fill:#000000; fill-opacity:0.0; 
stroke:#000000; stroke-width:39.3701; stroke-opacity:1; 
stroke-linecap:round; stroke-linejoin:round;">
</g>
<g style="fill:#000000; fill-opacity:0.0; 
stroke:#000000; stroke-width:59.0551; stroke-opacity:1; 
stroke-linecap:round; stroke-linejoin:round;">
<text x="13779.5" y="78605.2"
textLength="546.494" font-size="682.415" lengthAdjust="spacingAndGlyphs"
text-anchor="start" opacity="0">1</text>
<path d="M14199 78580
L13906 78580
" />
<path d="M14052 78580
L14052 78069
L14004 78142
L13955 78190
L13906 78215
" />
</g>
<g style="fill:#000000; fill-opacity:0.0; 
stroke:#000000; stroke-width:39.3701; stroke-opacity:1; 
stroke-linecap:round; stroke-linejoin:round;">
</g>
<g style="fill:#000000; fill-opacity:0.0; 
stroke:#000000; stroke-width:59.0551; stroke-opacity:1; 
stroke-linecap:round; stroke-linejoin:round;">
<text x="33464.6" y="78605.2"
textLength="546.494" font-size="682.415" lengthAdjust="spacingAndGlyphs"
text-anchor="start" opacity="0">2</text>
<path d="M33591 78117
L33615 78093
L33664 78069
L33786 78069
L33835 78093
L33859 78117
L33884 78166
L33884 78215
L33859 78288
L33567 78580
L33884 78580
" />
</g>
<g style="fill:#000000; fill-opacity:0.0; 
stroke:#000000; stroke-width:39.3701; stroke-opacity:1; 
stroke-linecap:round; stroke-linejoin:round;">
</g>
<g style="fill:#000000; fill-opacity:0.0; 
stroke:#000000; stroke-width:59.0551; stroke-opacity:1; 
stroke-linecap:round; stroke-linejoin:round;">
<text x="53149.6" y="78605.2"
textLength="546.494" font-size="682.415" lengthAdjust="spacingAndGlyphs"
text-anchor="start" opacity="0">3</text>
<path d="M53252 78069
L53569 78069
L53398 78263
L53471 78263
L53520 78288
L53544 78312
L53569 78361
L53569 78483
L53544 78532
L53520 78556
L53471 78580
L53325 78580
L53276 78556
L53252 78532
" />
</g>
<g style="fill:#000000; fill-opacity:0.0; 
stroke:#000000; stroke-width:39.3701; stroke-opacity:1; 
stroke-linecap:round; stroke-linejoin:round;">
</g>
<g style="fill:#000000; fill-opacity:0.0; 
stroke:#000000; stroke-width:59.0551; stroke-opacity:1; 
stroke-linecap:round; stroke-linejoin:round;">
<text x="72834.6" y="78605.2"
textLength="546.494" font-size="682.415" lengthAdjust="spacingAndGlyphs"
text-anchor="start" opacity="0">4</text>
<path d="M73205 78239
L73205 78580
" />
<path d="M73083 78044
L72961 78410
L73278 78410
" />
</g>
<g style="fill:#000000; fill-opacity:0.0; 
stroke:#000000; stroke-width:39.3701; stroke-opacity:1; 
stroke-linecap:round; stroke-linejoin:round;">
</g>
<g style="fill:#000000; fill-opacity:0.0; 
stroke:#000000; stroke-width:59.0551; stroke-opacity:1; 
stroke-linecap:round; stroke-linejoin:round;">
<text x="92519.7" y="78605.2"
textLength="546.494" font-size="682.415" lengthAdjust="spacingAndGlyphs"
text-anchor="start" opacity="0">5</text>
<path d="M92914 78069
L92671 78069
L92646 78312
L92671 78288
L92719 78263
L92841 78263
L92890 78288
L92914 78312
L92939 78361
L92939 78483
L92914 78532
L92890 78556
L92841 78580
L92719 78580
L92671 78556
L92646 78532
" />
</g>
<g style="fill:#000000; fill-opacity:0.0; 
stroke:#000000; stroke-width:39.3701; stroke-opacity:1; 
stroke-linecap:round; stroke-linejoin:round;">
</g>
<g style="fill:#000000; fill-opacity:0.0; 
stroke:#000000; stroke-width:59.0551; stroke-opacity:1; 
stroke-linecap:round; stroke-linejoin:round;">
<text x="112205" y="78605.2"
textLength="546.494" font-size="682.415" lengthAdjust="spacingAndGlyphs"
text-anchor="start" opacity="0">6</text>
<path d="M112575 78069
L112477 78069
L112429 78093
L112404 78117
L112356 78190
L112331 78288
L112331 78483
L112356 78532
L112380 78556
L112429 78580
L112526 78580
L112575 78556
L112599 78532
L112624 78483
L112624 78361
L112599 78312
L112575 78288
L112526 78263
L112429 78263
L112380 78288
L112356 78312
L112331 78361
" />
</g>
<g style="fill:#000000; fill-opacity:0.0; 
stroke:#000000; stroke-width:39.3701; stroke-opacity:1; 
stroke-linecap:round; stroke-linejoin:round;">
</g>
<g style="fill:#000000; fill-opacity:0.0; 
stroke:#000000; stroke-width:59.0551; stroke-opacity:1; 
stroke-linecap:round; stroke-linejoin:round;">
<path d="M3937 23622
L4724 23622
" />
</g>
<g style="fill:#000000; fill-opacity:0.0; 
stroke:#000000; stroke-width:39.3701; stroke-opacity:1; 
stroke-linecap:round; stroke-linejoin:round;">
</g>
<g style="fill:#000000; fill-opacity:0.0; 
stroke:#000000; stroke-width:59.0551; stroke-opacity:1; 
stroke-linecap:round; stroke-linejoin:round;">
<path d="M3937 43307
L4724 43307
" />
</g>
<g style="fill:#000000; fill-opacity:0.0; 
stroke:#000000; stroke-width:39.3701; stroke-opacity:1; 
stroke-linecap:round; stroke-linejoin:round;">
</g>
<g style="fill:#000000; fill-opacity:0.0; 
stroke:#000000; stroke-width:59.0551; stroke-opacity:1; 
stroke-linecap:round; stroke-linejoin:round;">
<path d="M3937 62992
L4724 62992
" />
</g>
<g style="fill:#000000; fill-opacity:0.0; 
stroke:#000000; stroke-width:39.3701; stroke-opacity:1; 
stroke-linecap:round; stroke-linejoin:round;">
</g>
<g style="fill:#000000; fill-opacity:0.0; 
stroke:#000000; stroke-width:59.0551; stroke-opacity:1; 
stroke-linecap:round; stroke-linejoin:round;">
<text x="4330.71" y="14035.4"
textLength="497.75" font-size="682.415" lengthAdjust="spacingAndGlyphs"
text-anchor="middle" opacity="0">A</text>
<path d="M4208 13864
L4452 13864
" />
<path d="M4160 14011
L4330 13499
L4501 14011
" />
</g>
<g style="fill:#000000; fill-opacity:0.0; 
stroke:#000000; stroke-width:39.3701; stroke-opacity:1; 
stroke-linecap:round; stroke-linejoin:round;">
</g>
<g style="fill:#000000; fill-opacity:0.0; 
stroke:#000000; stroke-width:59.0551; stroke-opacity:1; 
stroke-linecap:round; stroke-linejoin:round;">
<text x="4330.71" y="33720.5"
textLength="570.866" font-size="682.415" lengthAdjust="spacingAndGlyphs"
text-anchor="middle" opacity="0">B</text>
<path d="M4367 33428
L4440 33452
L4464 33476
L4489 33525
L4489 33598
L4464 33647
L4440 33671
L4391 33696
L4196 33696
L4196 33184
L4367 33184
L4416 33208
L4440 33233
L4464 33281
L4464 33330
L4440 33379
L4416 33403
L4367 33428
L4196 33428
" />
</g>
<g style="fill:#000000; fill-opacity:0.0; 
stroke:#000000; stroke-width:39.3701; stroke-opacity:1; 
stroke-linecap:round; stroke-linejoin:round;">
</g>
<g style="fill:#000000; fill-opacity:0.0; 
stroke:#000000; stroke-width:59.0551; stroke-opacity:1; 
stroke-linecap:round; stroke-linejoin:round;">
<text x="4330.71" y="53405.5"
textLength="570.866" font-size="682.415" lengthAdjust="spacingAndGlyphs"
text-anchor="middle" opacity="0">C</text>
<path d="M4489 53332
L4464 53356
L4391 53381
L4342 53381
L4269 53356
L4221 53308
L4196 53259
L4172 53161
L4172 53088
L4196 52991
L4221 52942
L4269 52893
L4342 52869
L4391 52869
L4464 52893
L4489 52918
" />
</g>
<g style="fill:#000000; fill-opacity:0.0; 
stroke:#000000; stroke-width:39.3701; stroke-opacity:1; 
stroke-linecap:round; stroke-linejoin:round;">
</g>
<g style="fill:#000000; fill-opacity:0.0; 
stroke:#000000; stroke-width:59.0551; stroke-opacity:1; 
stroke-linecap:round; stroke-linejoin:round;">
<text x="4330.71" y="73090.6"
textLength="570.866" font-size="682.415" lengthAdjust="spacingAndGlyphs"
text-anchor="middle" opacity="0">D</text>
<path d="M4196 73066
L4196 72554
L4318 72554
L4391 72578
L4440 72627
L4464 72676
L4489 72773
L4489 72846
L4464 72944
L4440 72993
L4391 73041
L4318 73066
L4196 73066
" />
</g>
<g style="fill:#000000; fill-opacity:0.0; 
stroke:#000000; stroke-width:39.3701; stroke-opacity:1; 
stroke-linecap:round; stroke-linejoin:round;">
</g>
<g style="fill:#000000; fill-opacity:0.0; 
stroke:#000000; stroke-width:59.0551; stroke-opacity:1; 
stroke-linecap:round; stroke-linejoin:round;">
<path d="M112992 23622
L112205 23622
" />
</g>
<g style="fill:#000000; fill-opacity:0.0; 
stroke:#000000; stroke-width:39.3701; stroke-opacity:1; 
stroke-linecap:round; stroke-linejoin:round;">
</g>
<g style="fill:#000000; fill-opacity:0.0; 
stroke:#000000; stroke-width:59.0551; stroke-opacity:1; 
stroke-linecap:round; stroke-linejoin:round;">
<path d="M112992 43307
L112205 43307
" />
</g>
<g style="fill:#000000; fill-opacity:0.0; 
stroke:#000000; stroke-width:39.3701; stroke-opacity:1; 
stroke-linecap:round; stroke-linejoin:round;">
</g>
<g style="fill:#000000; fill-opacity:0.0; 
stroke:#000000; stroke-width:59.0551; stroke-opacity:1; 
stroke-linecap:round; stroke-linejoin:round;">
<path d="M112992 62992
L112205 62992
" />
</g>
<g style="fill:#000000; fill-opacity:0.0; 
stroke:#000000; stroke-width:39.3701; stroke-opacity:1; 
stroke-linecap:round; stroke-linejoin:round;">
</g>
<g style="fill:#000000; fill-opacity:0.0; 
stroke:#000000; stroke-width:59.0551; stroke-opacity:1; 
stroke-linecap:round; stroke-linejoin:round;">
<text x="112599" y="14035.4"
textLength="497.75" font-size="682.415" lengthAdjust="spacingAndGlyphs"
text-anchor="middle" opacity="0">A</text>
<path d="M112477 13864
L112721 13864
" />
<path d="M112428 14011
L112599 13499
L112769 14011
" />
</g>
<g style="fill:#000000; fill-opacity:0.0; 
stroke:#000000; stroke-width:39.3701; stroke-opacity:1; 
stroke-linecap:round; stroke-linejoin:round;">
</g>
<g style="fill:#000000; fill-opacity:0.0; 
stroke:#000000; stroke-width:59.0551; stroke-opacity:1; 
stroke-linecap:round; stroke-linejoin:round;">
<text x="112599" y="33720.5"
textLength="570.866" font-size="682.415" lengthAdjust="spacingAndGlyphs"
text-anchor="middle" opacity="0">B</text>
<path d="M112635 33428
L112708 33452
L112733 33476
L112757 33525
L112757 33598
L112733 33647
L112708 33671
L112660 33696
L112465 33696
L112465 33184
L112635 33184
L112684 33208
L112708 33233
L112733 33281
L112733 33330
L112708 33379
L112684 33403
L112635 33428
L112465 33428
" />
</g>
<g style="fill:#000000; fill-opacity:0.0; 
stroke:#000000; stroke-width:39.3701; stroke-opacity:1; 
stroke-linecap:round; stroke-linejoin:round;">
</g>
<g style="fill:#000000; fill-opacity:0.0; 
stroke:#000000; stroke-width:59.0551; stroke-opacity:1; 
stroke-linecap:round; stroke-linejoin:round;">
<text x="112599" y="53405.5"
textLength="570.866" font-size="682.415" lengthAdjust="spacingAndGlyphs"
text-anchor="middle" opacity="0">C</text>
<path d="M112757 53332
L112733 53356
L112660 53381
L112611 53381
L112538 53356
L112489 53308
L112465 53259
L112440 53161
L112440 53088
L112465 52991
L112489 52942
L112538 52893
L112611 52869
L112660 52869
L112733 52893
L112757 52918
" />
</g>
<g style="fill:#000000; fill-opacity:0.0; 
stroke:#000000; stroke-width:39.3701; stroke-opacity:1; 
stroke-linecap:round; stroke-linejoin:round;">
</g>
<g style="fill:#000000; fill-opacity:0.0; 
stroke:#000000; stroke-width:59.0551; stroke-opacity:1; 
stroke-linecap:round; stroke-linejoin:round;">
<text x="112599" y="73090.6"
textLength="570.866" font-size="682.415" lengthAdjust="spacingAndGlyphs"
text-anchor="middle" opacity="0">D</text>
<path d="M112465 73066
L112465 72554
L112587 72554
L112660 72578
L112708 72627
L112733 72676
L112757 72773
L112757 72846
L112733 72944
L112708 72993
L112660 73041
L112587 73066
L112465 73066
" />
</g>
<g style="fill:#000000; fill-opacity:0.0; 
stroke:#000000; stroke-width:39.3701; stroke-opacity:1; 
stroke-linecap:round; stroke-linejoin:round;">
</g>
<g style="fill:#000000; fill-opacity:0.0; 
stroke:#000000; stroke-width:59.0551; stroke-opacity:1; 
stroke-linecap:round; stroke-linejoin:round;">
<text x="78741" y="76321.7"
textLength="2758.72" font-size="787.402" lengthAdjust="spacingAndGlyphs"
text-anchor="start" opacity="0">Date: </text>
<path d="M78911 76293
L78911 75703
L79051 75703
L79136 75731
L79192 75787
L79220 75843
L79248 75956
L79248 76040
L79220 76153
L79192 76209
L79136 76265
L79051 76293
L78911 76293
" />
<path d="M79754 76293
L79754 75984
L79726 75928
L79670 75899
L79557 75899
L79501 75928
" />
<path d="M79754 76265
L79698 76293
L79557 76293
L79501 76265
L79473 76209
L79473 76153
L79501 76096
L79557 76068
L79698 76068
L79754 76040
" />
<path d="M79951 75899
L80176 75899
" />
<path d="M80036 75703
L80036 76209
L80064 76265
L80120 76293
L80176 76293
" />
<path d="M80598 76265
L80542 76293
L80429 76293
L80373 76265
L80345 76209
L80345 75984
L80373 75928
L80429 75899
L80542 75899
L80598 75928
L80626 75984
L80626 76040
L80345 76096
" />
<path d="M80879 76237
L80907 76265
L80879 76293
L80851 76265
L80879 76237
L80879 76293
" />
<path d="M80879 75928
L80907 75956
L80879 75984
L80851 75956
L80879 75928
L80879 75984
" />
</g>
<g style="fill:#000000; fill-opacity:0.0; 
stroke:#000000; stroke-width:39.3701; stroke-opacity:1; 
stroke-linecap:round; stroke-linejoin:round;">
</g>
<g style="fill:#000000; fill-opacity:0.0; 
stroke:#000000; stroke-width:59.0551; stroke-opacity:1; 
stroke-linecap:round; stroke-linejoin:round;">
<path d="M69685 76577
L112205 76577
" />
</g>
<g style="fill:#000000; fill-opacity:0.0; 
stroke:#000000; stroke-width:39.3701; stroke-opacity:1; 
stroke-linecap:round; stroke-linejoin:round;">
</g>
<g style="fill:#000000; fill-opacity:0.0; 
stroke:#000000; stroke-width:59.0551; stroke-opacity:1; 
stroke-linecap:round; stroke-linejoin:round;">
<text x="70079.6" y="77424.1"
textLength="14991.6" font-size="787.402" lengthAdjust="spacingAndGlyphs"
text-anchor="start" opacity="0">KiCad E.D.A.  pcbnew (5.1.10)-1</text>
<path d="M70249 77395
L70249 76805
" />
<path d="M70587 77395
L70334 77058
" />
<path d="M70587 76805
L70249 77142
" />
<path d="M70840 77395
L70840 77002
" />
<path d="M70840 76805
L70812 76833
L70840 76861
L70868 76833
L70840 76805
L70840 76861
" />
<path d="M71458 77339
L71430 77367
L71346 77395
L71290 77395
L71205 77367
L71149 77311
L71121 77255
L71093 77142
L71093 77058
L71121 76946
L71149 76889
L71205 76833
L71290 76805
L71346 76805
L71430 76833
L71458 76861
" />
<path d="M71965 77395
L71965 77086
L71937 77030
L71880 77002
L71768 77002
L71712 77030
" />
<path d="M71965 77367
L71908 77395
L71768 77395
L71712 77367
L71683 77311
L71683 77255
L71712 77199
L71768 77171
L71908 77171
L71965 77142
" />
<path d="M72499 77395
L72499 76805
" />
<path d="M72499 77367
L72443 77395
L72330 77395
L72274 77367
L72246 77339
L72218 77283
L72218 77114
L72246 77058
L72274 77030
L72330 77002
L72443 77002
L72499 77030
" />
<path d="M73230 77086
L73427 77086
" />
<path d="M73511 77395
L73230 77395
L73230 76805
L73511 76805
" />
<path d="M73764 77339
L73793 77367
L73764 77395
L73736 77367
L73764 77339
L73764 77395
" />
<path d="M74046 77395
L74046 76805
L74186 76805
L74271 76833
L74327 76889
L74355 76946
L74383 77058
L74383 77142
L74355 77255
L74327 77311
L74271 77367
L74186 77395
L74046 77395
" />
<path d="M74636 77339
L74664 77367
L74636 77395
L74608 77367
L74636 77339
L74636 77395
" />
<path d="M74889 77227
L75171 77227
" />
<path d="M74833 77395
L75030 76805
L75227 77395
" />
<path d="M75424 77339
L75452 77367
L75424 77395
L75395 77367
L75424 77339
L75424 77395
" />
<path d="M76605 77002
L76605 77592
" />
<path d="M76605 77030
L76661 77002
L76773 77002
L76830 77030
L76858 77058
L76886 77114
L76886 77283
L76858 77339
L76830 77367
L76773 77395
L76661 77395
L76605 77367
" />
<path d="M77392 77367
L77336 77395
L77223 77395
L77167 77367
L77139 77339
L77111 77283
L77111 77114
L77139 77058
L77167 77030
L77223 77002
L77336 77002
L77392 77030
" />
<path d="M77645 77395
L77645 76805
" />
<path d="M77645 77030
L77701 77002
L77814 77002
L77870 77030
L77898 77058
L77926 77114
L77926 77283
L77898 77339
L77870 77367
L77814 77395
L77701 77395
L77645 77367
" />
<path d="M78180 77002
L78180 77395
" />
<path d="M78180 77058
L78208 77030
L78264 77002
L78348 77002
L78404 77030
L78433 77086
L78433 77395
" />
<path d="M78939 77367
L78883 77395
L78770 77395
L78714 77367
L78686 77311
L78686 77086
L78714 77030
L78770 77002
L78883 77002
L78939 77030
L78967 77086
L78967 77142
L78686 77199
" />
<path d="M79164 77002
L79276 77395
L79389 77114
L79501 77395
L79614 77002
" />
<path d="M80457 77620
L80429 77592
L80373 77508
L80345 77452
L80317 77367
L80289 77227
L80289 77114
L80317 76974
L80345 76889
L80373 76833
L80429 76749
L80457 76721
" />
<path d="M80964 76805
L80682 76805
L80654 77086
L80682 77058
L80739 77030
L80879 77030
L80935 77058
L80964 77086
L80992 77142
L80992 77283
L80964 77339
L80935 77367
L80879 77395
L80739 77395
L80682 77367
L80654 77339
" />
<path d="M81245 77339
L81273 77367
L81245 77395
L81217 77367
L81245 77339
L81245 77395
" />
<path d="M81835 77395
L81498 77395
" />
<path d="M81667 77395
L81667 76805
L81610 76889
L81554 76946
L81498 76974
" />
<path d="M82088 77339
L82117 77367
L82088 77395
L82060 77367
L82088 77339
L82088 77395
" />
<path d="M82679 77395
L82341 77395
" />
<path d="M82510 77395
L82510 76805
L82454 76889
L82398 76946
L82341 76974
" />
<path d="M83045 76805
L83101 76805
L83157 76833
L83185 76861
L83213 76917
L83241 77030
L83241 77171
L83213 77283
L83185 77339
L83157 77367
L83101 77395
L83045 77395
L82988 77367
L82960 77339
L82932 77283
L82904 77171
L82904 77030
L82932 76917
L82960 76861
L82988 76833
L83045 76805
" />
<path d="M83438 77620
L83466 77592
L83523 77508
L83551 77452
L83579 77367
L83607 77227
L83607 77114
L83579 76974
L83551 76889
L83523 76833
L83466 76749
L83438 76721
" />
<path d="M83888 77171
L84338 77171
" />
<path d="M84929 77395
L84591 77395
" />
<path d="M84760 77395
L84760 76805
L84704 76889
L84647 76946
L84591 76974
" />
</g>
<g style="fill:#000000; fill-opacity:0.0; 
stroke:#000000; stroke-width:39.3701; stroke-opacity:1; 
stroke-linecap:round; stroke-linejoin:round;">
</g>
<g style="fill:#000000; fill-opacity:0.0; 
stroke:#000000; stroke-width:59.0551; stroke-opacity:1; 
stroke-linecap:round; stroke-linejoin:round;">
<path d="M69685 75396
L112205 75396
" />
</g>
<g style="fill:#000000; fill-opacity:0.0; 
stroke:#000000; stroke-width:39.3701; stroke-opacity:1; 
stroke-linecap:round; stroke-linejoin:round;">
</g>
<g style="fill:#000000; fill-opacity:0.0; 
stroke:#000000; stroke-width:118.11; stroke-opacity:1; 
stroke-linecap:round; stroke-linejoin:round;">
<text x="103544" y="76321.7"
textLength="2336.9" font-size="787.402" lengthAdjust="spacingAndGlyphs"
text-anchor="start" opacity="0">Rev: </text>
<path d="M104099 76293
L103902 76012
" />
<path d="M103761 76293
L103761 75703
L103986 75703
L104042 75731
L104070 75759
L104099 75815
L104099 75899
L104070 75956
L104042 75984
L103986 76012
L103761 76012
" />
<path d="M104577 76265
L104520 76293
L104408 76293
L104352 76265
L104323 76209
L104323 75984
L104352 75928
L104408 75899
L104520 75899
L104577 75928
L104605 75984
L104605 76040
L104323 76096
" />
<path d="M104802 75899
L104942 76293
L105083 75899
" />
<path d="M105308 76237
L105336 76265
L105308 76293
L105280 76265
L105308 76237
L105308 76293
" />
<path d="M105308 75928
L105336 75956
L105308 75984
L105280 75956
L105308 75928
L105308 75984
" />
</g>
<g style="fill:#000000; fill-opacity:0.0; 
stroke:#000000; stroke-width:39.3701; stroke-opacity:1; 
stroke-linecap:round; stroke-linejoin:round;">
</g>
<g style="fill:#000000; fill-opacity:0.0; 
stroke:#000000; stroke-width:59.0551; stroke-opacity:1; 
stroke-linecap:round; stroke-linejoin:round;">
<text x="70079.6" y="76321.7"
textLength="3781.21" font-size="787.402" lengthAdjust="spacingAndGlyphs"
text-anchor="start" opacity="0">Size: A4</text>
<path d="M70221 76265
L70305 76293
L70446 76293
L70502 76265
L70530 76237
L70559 76181
L70559 76124
L70530 76068
L70502 76040
L70446 76012
L70334 75984
L70277 75956
L70249 75928
L70221 75871
L70221 75815
L70249 75759
L70277 75731
L70334 75703
L70474 75703
L70559 75731
" />
<path d="M70812 76293
L70812 75899
" />
<path d="M70812 75703
L70784 75731
L70812 75759
L70840 75731
L70812 75703
L70812 75759
" />
<path d="M71037 75899
L71346 75899
L71037 76293
L71346 76293
" />
<path d="M71796 76265
L71740 76293
L71627 76293
L71571 76265
L71543 76209
L71543 75984
L71571 75928
L71627 75899
L71740 75899
L71796 75928
L71824 75984
L71824 76040
L71543 76096
" />
<path d="M72077 76237
L72105 76265
L72077 76293
L72049 76265
L72077 76237
L72077 76293
" />
<path d="M72077 75928
L72105 75956
L72077 75984
L72049 75956
L72077 75928
L72077 75984
" />
<path d="M72780 76124
L73061 76124
" />
<path d="M72724 76293
L72921 75703
L73118 76293
" />
<path d="M73568 75899
L73568 76293
" />
<path d="M73427 75674
L73286 76096
L73652 76096
" />
</g>
<g style="fill:#000000; fill-opacity:0.0; 
stroke:#000000; stroke-width:39.3701; stroke-opacity:1; 
stroke-linecap:round; stroke-linejoin:round;">
</g>
<g style="fill:#000000; fill-opacity:0.0; 
stroke:#000000; stroke-width:59.0551; stroke-opacity:1; 
stroke-linecap:round; stroke-linejoin:round;">
<text x="103544" y="77424.1"
textLength="3349.27" font-size="787.402" lengthAdjust="spacingAndGlyphs"
text-anchor="start" opacity="0">Id: 1/1</text>
<path d="M103714 77395
L103714 76805
" />
<path d="M104248 77395
L104248 76805
" />
<path d="M104248 77367
L104192 77395
L104079 77395
L104023 77367
L103995 77339
L103967 77283
L103967 77114
L103995 77058
L104023 77030
L104079 77002
L104192 77002
L104248 77030
" />
<path d="M104529 77339
L104557 77367
L104529 77395
L104501 77367
L104529 77339
L104529 77395
" />
<path d="M104529 77030
L104557 77058
L104529 77086
L104501 77058
L104529 77030
L104529 77086
" />
<path d="M105570 77395
L105232 77395
" />
<path d="M105401 77395
L105401 76805
L105345 76889
L105289 76946
L105232 76974
" />
<path d="M106245 76777
L105739 77536
" />
<path d="M106751 77395
L106413 77395
" />
<path d="M106582 77395
L106582 76805
L106526 76889
L106470 76946
L106413 76974
" />
</g>
<g style="fill:#000000; fill-opacity:0.0; 
stroke:#000000; stroke-width:39.3701; stroke-opacity:1; 
stroke-linecap:round; stroke-linejoin:round;">
</g>
<g style="fill:#000000; fill-opacity:0.0; 
stroke:#000000; stroke-width:59.0551; stroke-opacity:1; 
stroke-linecap:round; stroke-linejoin:round;">
<path d="M69685 73821
L112205 73821
" />
</g>
<g style="fill:#000000; fill-opacity:0.0; 
stroke:#000000; stroke-width:39.3701; stroke-opacity:1; 
stroke-linecap:round; stroke-linejoin:round;">
</g>
<g style="fill:#000000; fill-opacity:0.0; 
stroke:#000000; stroke-width:157.48; stroke-opacity:1; 
stroke-linecap:round; stroke-linejoin:round;">
<text x="70079.6" y="74924.1"
textLength="3701.14" font-size="1049.87" lengthAdjust="spacingAndGlyphs"
text-anchor="start" opacity="0">Title: </text>
<path d="M70360 74099
L70810 74099
" />
<path d="M70486 74886
L70585 74099
" />
<path d="M70974 74886
L71039 74361
" />
<path d="M71072 74099
L71030 74136
L71063 74174
L71105 74136
L71072 74099
L71063 74174
" />
<path d="M71302 74361
L71602 74361
" />
<path d="M71447 74099
L71363 74774
L71391 74849
L71461 74886
L71536 74886
" />
<path d="M71911 74886
L71841 74849
L71813 74774
L71897 74099
" />
<path d="M72516 74849
L72436 74886
L72286 74886
L72216 74849
L72187 74774
L72225 74474
L72272 74399
L72352 74361
L72501 74361
L72572 74399
L72600 74474
L72591 74549
L72206 74624
" />
<path d="M72895 74811
L72928 74849
L72886 74886
L72853 74849
L72895 74811
L72886 74886
" />
<path d="M72947 74399
L72980 74436
L72937 74474
L72905 74436
L72947 74399
L72937 74474
" />
</g>
<g style="fill:#000000; fill-opacity:0.0; 
stroke:#000000; stroke-width:39.3701; stroke-opacity:1; 
stroke-linecap:round; stroke-linejoin:round;">
</g>
<g style="fill:#000000; fill-opacity:0.0; 
stroke:#000000; stroke-width:59.0551; stroke-opacity:1; 
stroke-linecap:round; stroke-linejoin:round;">
<text x="70079.6" y="73408.3"
textLength="9962.88" font-size="787.402" lengthAdjust="spacingAndGlyphs"
text-anchor="start" opacity="0">File: EGPad.kicad_pcb</text>
<path d="M70446 73070
L70249 73070
" />
<path d="M70249 73380
L70249 72789
L70530 72789
" />
<path d="M70755 73380
L70755 72986
" />
<path d="M70755 72789
L70727 72817
L70755 72845
L70784 72817
L70755 72789
L70755 72845
" />
<path d="M71121 73380
L71065 73352
L71037 73295
L71037 72789
" />
<path d="M71571 73352
L71515 73380
L71402 73380
L71346 73352
L71318 73295
L71318 73070
L71346 73014
L71402 72986
L71515 72986
L71571 73014
L71599 73070
L71599 73127
L71318 73183
" />
<path d="M71852 73323
L71880 73352
L71852 73380
L71824 73352
L71852 73323
L71852 73380
" />
<path d="M71852 73014
L71880 73042
L71852 73070
L71824 73042
L71852 73014
L71852 73070
" />
<path d="M72583 73070
L72780 73070
" />
<path d="M72865 73380
L72583 73380
L72583 72789
L72865 72789
" />
<path d="M73427 72817
L73371 72789
L73286 72789
L73202 72817
L73146 72874
L73118 72930
L73090 73042
L73090 73127
L73118 73239
L73146 73295
L73202 73352
L73286 73380
L73343 73380
L73427 73352
L73455 73323
L73455 73127
L73343 73127
" />
<path d="M73708 73380
L73708 72789
L73933 72789
L73989 72817
L74018 72845
L74046 72902
L74046 72986
L74018 73042
L73989 73070
L73933 73099
L73708 73099
" />
<path d="M74552 73380
L74552 73070
L74524 73014
L74467 72986
L74355 72986
L74299 73014
" />
<path d="M74552 73352
L74496 73380
L74355 73380
L74299 73352
L74271 73295
L74271 73239
L74299 73183
L74355 73155
L74496 73155
L74552 73127
" />
<path d="M75086 73380
L75086 72789
" />
<path d="M75086 73352
L75030 73380
L74917 73380
L74861 73352
L74833 73323
L74805 73267
L74805 73099
L74833 73042
L74861 73014
L74917 72986
L75030 72986
L75086 73014
" />
<path d="M75367 73323
L75395 73352
L75367 73380
L75339 73352
L75367 73323
L75367 73380
" />
<path d="M75649 73380
L75649 72789
" />
<path d="M75705 73155
L75874 73380
" />
<path d="M75874 72986
L75649 73211
" />
<path d="M76127 73380
L76127 72986
" />
<path d="M76127 72789
L76099 72817
L76127 72845
L76155 72817
L76127 72789
L76127 72845
" />
<path d="M76661 73352
L76605 73380
L76492 73380
L76436 73352
L76408 73323
L76380 73267
L76380 73099
L76408 73042
L76436 73014
L76492 72986
L76605 72986
L76661 73014
" />
<path d="M77167 73380
L77167 73070
L77139 73014
L77083 72986
L76970 72986
L76914 73014
" />
<path d="M77167 73352
L77111 73380
L76970 73380
L76914 73352
L76886 73295
L76886 73239
L76914 73183
L76970 73155
L77111 73155
L77167 73127
" />
<path d="M77701 73380
L77701 72789
" />
<path d="M77701 73352
L77645 73380
L77533 73380
L77476 73352
L77448 73323
L77420 73267
L77420 73099
L77448 73042
L77476 73014
L77533 72986
L77645 72986
L77701 73014
" />
<path d="M77842 73436
L78292 73436
" />
<path d="M78433 72986
L78433 73577
" />
<path d="M78433 73014
L78489 72986
L78601 72986
L78658 73014
L78686 73042
L78714 73099
L78714 73267
L78686 73323
L78658 73352
L78601 73380
L78489 73380
L78433 73352
" />
<path d="M79220 73352
L79164 73380
L79051 73380
L78995 73352
L78967 73323
L78939 73267
L78939 73099
L78967 73042
L78995 73014
L79051 72986
L79164 72986
L79220 73014
" />
<path d="M79473 73380
L79473 72789
" />
<path d="M79473 73014
L79529 72986
L79642 72986
L79698 73014
L79726 73042
L79754 73099
L79754 73267
L79726 73323
L79698 73352
L79642 73380
L79529 73380
L79473 73352
" />
</g>
<g style="fill:#000000; fill-opacity:0.0; 
stroke:#000000; stroke-width:39.3701; stroke-opacity:1; 
stroke-linecap:round; stroke-linejoin:round;">
</g>
<g style="fill:#000000; fill-opacity:0.0; 
stroke:#000000; stroke-width:59.0551; stroke-opacity:1; 
stroke-linecap:round; stroke-linejoin:round;">
<path d="M69685 71459
L112205 71459
" />
</g>
<g style="fill:#000000; fill-opacity:0.0; 
stroke:#000000; stroke-width:39.3701; stroke-opacity:1; 
stroke-linecap:round; stroke-linejoin:round;">
</g>
<g style="fill:#000000; fill-opacity:0.0; 
stroke:#000000; stroke-width:59.0551; stroke-opacity:1; 
stroke-linecap:round; stroke-linejoin:round;">
<text x="70079.6" y="72345.4"
textLength="3236.78" font-size="787.402" lengthAdjust="spacingAndGlyphs"
text-anchor="start" opacity="0">Sheet: </text>
<path d="M70221 72289
L70305 72317
L70446 72317
L70502 72289
L70530 72260
L70559 72204
L70559 72148
L70530 72092
L70502 72064
L70446 72036
L70334 72007
L70277 71979
L70249 71951
L70221 71895
L70221 71839
L70249 71782
L70277 71754
L70334 71726
L70474 71726
L70559 71754
" />
<path d="M70812 72317
L70812 71726
" />
<path d="M71065 72317
L71065 72007
L71037 71951
L70980 71923
L70896 71923
L70840 71951
L70812 71979
" />
<path d="M71571 72289
L71515 72317
L71402 72317
L71346 72289
L71318 72232
L71318 72007
L71346 71951
L71402 71923
L71515 71923
L71571 71951
L71599 72007
L71599 72064
L71318 72120
" />
<path d="M72077 72289
L72021 72317
L71908 72317
L71852 72289
L71824 72232
L71824 72007
L71852 71951
L71908 71923
L72021 71923
L72077 71951
L72105 72007
L72105 72064
L71824 72120
" />
<path d="M72274 71923
L72499 71923
" />
<path d="M72358 71726
L72358 72232
L72386 72289
L72443 72317
L72499 72317
" />
<path d="M72696 72260
L72724 72289
L72696 72317
L72668 72289
L72696 72260
L72696 72317
" />
<path d="M72696 71951
L72724 71979
L72696 72007
L72668 71979
L72696 71951
L72696 72007
" />
</g>
<g style="fill:#000000; fill-opacity:0.0; 
stroke:#000000; stroke-width:39.3701; stroke-opacity:1; 
stroke-linecap:round; stroke-linejoin:round;">
</g>
<g style="fill:#000000; fill-opacity:0.0; 
stroke:#000000; stroke-width:59.0551; stroke-opacity:1; 
stroke-linecap:round; stroke-linejoin:round;">
<path d="M77559 75396
L77559 76577
" />
</g>
<g style="fill:#000000; fill-opacity:0.0; 
stroke:#000000; stroke-width:39.3701; stroke-opacity:1; 
stroke-linecap:round; stroke-linejoin:round;">
</g>
<g style="fill:#000000; fill-opacity:0.0; 
stroke:#000000; stroke-width:59.0551; stroke-opacity:1; 
stroke-linecap:round; stroke-linejoin:round;">
<path d="M102756 75396
L102756 77955
" />
</g>
<g style="fill:#848484; fill-opacity:0.0; 
stroke:#848484; stroke-width:59.0551; stroke-opacity:1; 
stroke-linecap:round; stroke-linejoin:round;">
<path d="M68517 26150
L68517 13150
" />
<path d="M75517 26150
L68517 26150
" />
<path d="M75517 13150
L75517 26150
" />
<path d="M68517 13150
L75517 13150
" />
<path d="M68000 13650
L75000 13650
" />
<path d="M75000 13650
L75000 26650
" />
<path d="M75000 26650
L68000 26650
" />
<path d="M68000 26650
L68000 13650
" />
</g>
<g style="fill:#848484; fill-opacity:0.0; 
stroke:#848484; stroke-width:39.3701; stroke-opacity:1; 
stroke-linecap:round; stroke-linejoin:round;">
<path d="M51493 21359
L50706 21359
" />
<path d="M51493 21438
L50706 21438
" />
<path d="M51493 21398
L50706 21398
" />
<path d="M51100 23351
L51100 22737
" />
<path d="M51100 20548
L51100 21162
" />
<path d="M51493 22737
L51493 21162
" />
<path d="M50706 22737
L51493 22737
" />
<path d="M50706 21162
L50706 22737
" />
<path d="M51493 21162
L50706 21162
" />
<path d="M64493 21359
L63706 21359
" />
<path d="M64493 21438
L63706 21438
" />
<path d="M64493 21398
L63706 21398
" />
<path d="M64100 23351
L64100 22737
" />
<path d="M64100 20548
L64100 21162
" />
<path d="M64493 22737
L64493 21162
" />
<path d="M63706 22737
L64493 22737
" />
<path d="M63706 21162
L63706 22737
" />
<path d="M64493 21162
L63706 21162
" />
<path d="M63193 21359
L62406 21359
" />
<path d="M63193 21438
L62406 21438
" />
<path d="M63193 21398
L62406 21398
" />
<path d="M62800 23351
L62800 22737
" />
<path d="M62800 20548
L62800 21162
" />
<path d="M63193 22737
L63193 21162
" />
<path d="M62406 22737
L63193 22737
" />
<path d="M62406 21162
L62406 22737
" />
<path d="M63193 21162
L62406 21162
" />
<path d="M59293 21359
L58506 21359
" />
<path d="M59293 21438
L58506 21438
" />
<path d="M59293 21398
L58506 21398
" />
<path d="M58900 23351
L58900 22737
" />
<path d="M58900 20548
L58900 21162
" />
<path d="M59293 22737
L59293 21162
" />
<path d="M58506 22737
L59293 22737
" />
<path d="M58506 21162
L58506 22737
" />
<path d="M59293 21162
L58506 21162
" />
<path d="M60593 21359
L59806 21359
" />
<path d="M60593 21438
L59806 21438
" />
<path d="M60593 21398
L59806 21398
" />
<path d="M60200 23351
L60200 22737
" />
<path d="M60200 20548
L60200 21162
" />
<path d="M60593 22737
L60593 21162
" />
<path d="M59806 22737
L60593 22737
" />
<path d="M59806 21162
L59806 22737
" />
<path d="M60593 21162
L59806 21162
" />
<path d="M61893 21359
L61106 21359
" />
<path d="M61893 21438
L61106 21438
" />
<path d="M61893 21398
L61106 21398
" />
<path d="M61500 23351
L61500 22737
" />
<path d="M61500 20548
L61500 21162
" />
<path d="M61893 22737
L61893 21162
" />
<path d="M61106 22737
L61893 22737
" />
<path d="M61106 21162
L61106 22737
" />
<path d="M61893 21162
L61106 21162
" />
<path d="M56693 21162
L55906 21162
" />
<path d="M55906 21162
L55906 22737
" />
<path d="M55906 22737
L56693 22737
" />
<path d="M56693 22737
L56693 21162
" />
<path d="M56300 20548
L56300 21162
" />
<path d="M56300 23351
L56300 22737
" />
<path d="M56693 21398
L55906 21398
" />
<path d="M56693 21438
L55906 21438
" />
<path d="M56693 21359
L55906 21359
" />
<path d="M55393 21359
L54606 21359
" />
<path d="M55393 21438
L54606 21438
" />
<path d="M55393 21398
L54606 21398
" />
<path d="M55000 23351
L55000 22737
" />
<path d="M55000 20548
L55000 21162
" />
<path d="M55393 22737
L55393 21162
" />
<path d="M54606 22737
L55393 22737
" />
<path d="M54606 21162
L54606 22737
" />
<path d="M55393 21162
L54606 21162
" />
<path d="M54093 21359
L53306 21359
" />
<path d="M54093 21438
L53306 21438
" />
<path d="M54093 21398
L53306 21398
" />
<path d="M53700 23351
L53700 22737
" />
<path d="M53700 20548
L53700 21162
" />
<path d="M54093 22737
L54093 21162
" />
<path d="M53306 22737
L54093 22737
" />
<path d="M53306 21162
L53306 22737
" />
<path d="M54093 21162
L53306 21162
" />
<path d="M52793 21359
L52006 21359
" />
<path d="M52793 21438
L52006 21438
" />
<path d="M52793 21398
L52006 21398
" />
<path d="M52400 23351
L52400 22737
" />
<path d="M52400 20548
L52400 21162
" />
<path d="M52793 22737
L52793 21162
" />
<path d="M52006 22737
L52793 22737
" />
<path d="M52006 21162
L52006 22737
" />
<path d="M52793 21162
L52006 21162
" />
<path d="M57993 21359
L57206 21359
" />
<path d="M57993 21438
L57206 21438
" />
<path d="M57993 21398
L57206 21398
" />
<path d="M57600 23351
L57600 22737
" />
<path d="M57600 20548
L57600 21162
" />
<path d="M57993 22737
L57993 21162
" />
<path d="M57206 22737
L57993 22737
" />
<path d="M57206 21162
L57206 22737
" />
<path d="M57993 21162
L57206 21162
" />
<path d="M46293 21359
L45506 21359
" />
<path d="M46293 21438
L45506 21438
" />
<path d="M46293 21398
L45506 21398
" />
<path d="M45900 23351
L45900 22737
" />
<path d="M45900 20548
L45900 21162
" />
<path d="M46293 22737
L46293 21162
" />
<path d="M45506 22737
L46293 22737
" />
<path d="M45506 21162
L45506 22737
" />
<path d="M46293 21162
L45506 21162
" />
<path d="M47593 21359
L46806 21359
" />
<path d="M47593 21438
L46806 21438
" />
<path d="M47593 21398
L46806 21398
" />
<path d="M47200 23351
L47200 22737
" />
<path d="M47200 20548
L47200 21162
" />
<path d="M47593 22737
L47593 21162
" />
<path d="M46806 22737
L47593 22737
" />
<path d="M46806 21162
L46806 22737
" />
<path d="M47593 21162
L46806 21162
" />
<path d="M48893 21359
L48106 21359
" />
<path d="M48893 21438
L48106 21438
" />
<path d="M48893 21398
L48106 21398
" />
<path d="M48500 23351
L48500 22737
" />
<path d="M48500 20548
L48500 21162
" />
<path d="M48893 22737
L48893 21162
" />
<path d="M48106 22737
L48893 22737
" />
<path d="M48106 21162
L48106 22737
" />
<path d="M48893 21162
L48106 21162
" />
<path d="M50193 21359
L49406 21359
" />
<path d="M50193 21438
L49406 21438
" />
<path d="M50193 21398
L49406 21398
" />
<path d="M49800 23351
L49800 22737
" />
<path d="M49800 20548
L49800 21162
" />
<path d="M50193 22737
L50193 21162
" />
<path d="M49406 22737
L50193 22737
" />
<path d="M49406 21162
L49406 22737
" />
<path d="M50193 21162
L49406 21162
" />
<path d="M44993 21359
L44206 21359
" />
<path d="M44993 21438
L44206 21438
" />
<path d="M44993 21398
L44206 21398
" />
<path d="M44600 23351
L44600 22737
" />
<path d="M44600 20548
L44600 21162
" />
<path d="M44993 22737
L44993 21162
" />
<path d="M44206 22737
L44993 22737
" />
<path d="M44206 21162
L44206 22737
" />
<path d="M44993 21162
L44206 21162
" />
<path d="M43693 21359
L42906 21359
" />
<path d="M43693 21438
L42906 21438
" />
<path d="M43693 21398
L42906 21398
" />
<path d="M43300 23351
L43300 22737
" />
<path d="M43300 20548
L43300 21162
" />
<path d="M43693 22737
L43693 21162
" />
<path d="M42906 22737
L43693 22737
" />
<path d="M42906 21162
L42906 22737
" />
<path d="M43693 21162
L42906 21162
" />
<path d="M42393 21359
L41606 21359
" />
<path d="M42393 21438
L41606 21438
" />
<path d="M42393 21398
L41606 21398
" />
<path d="M42000 23351
L42000 22737
" />
<path d="M42000 20548
L42000 21162
" />
<path d="M42393 22737
L42393 21162
" />
<path d="M41606 22737
L42393 22737
" />
<path d="M41606 21162
L41606 22737
" />
<path d="M42393 21162
L41606 21162
" />
<path d="M41093 21359
L40306 21359
" />
<path d="M41093 21438
L40306 21438
" />
<path d="M41093 21398
L40306 21398
" />
<path d="M40700 23351
L40700 22737
" />
<path d="M40700 20548
L40700 21162
" />
<path d="M41093 22737
L41093 21162
" />
<path d="M40306 22737
L41093 22737
" />
<path d="M40306 21162
L40306 22737
" />
<path d="M41093 21162
L40306 21162
" />
<path d="M39793 21359
L39006 21359
" />
<path d="M39793 21438
L39006 21438
" />
<path d="M39793 21398
L39006 21398
" />
<path d="M39400 23351
L39400 22737
" />
<path d="M39400 20548
L39400 21162
" />
<path d="M39793 22737
L39793 21162
" />
<path d="M39006 22737
L39793 22737
" />
<path d="M39006 21162
L39006 22737
" />
<path d="M39793 21162
L39006 21162
" />
</g>
<g style="fill:#848484; fill-opacity:0.0; 
stroke:#848484; stroke-width:47.2441; stroke-opacity:1; 
stroke-linecap:round; stroke-linejoin:round;">
<path d="M71718 58350
L74081 58350
" />
<path d="M72900 57168
L72900 59531
" />
<path d="M70537 56499
L70931 56066
" />
<path d="M70537 60633
L70537 56499
" />
<path d="M75262 60633
L70537 60633
" />
<path d="M75262 56066
L75262 60633
" />
<path d="M70931 56066
L75262 56066
" />
<circle cx="72900" cy="58350" r="1181.1" /> 
<path d="M71718 48350
L74081 48350
" />
<path d="M72900 47168
L72900 49531
" />
<path d="M70537 46499
L70931 46066
" />
<path d="M70537 50633
L70537 46499
" />
<path d="M75262 50633
L70537 50633
" />
<path d="M75262 46066
L75262 50633
" />
<path d="M70931 46066
L75262 46066
" />
<circle cx="72900" cy="48350" r="1181.1" /> 
<path d="M71718 38350
L74081 38350
" />
<path d="M72900 37168
L72900 39531
" />
<path d="M70537 36499
L70931 36066
" />
<path d="M70537 40633
L70537 36499
" />
<path d="M75262 40633
L70537 40633
" />
<path d="M75262 36066
L75262 40633
" />
<path d="M70931 36066
L75262 36066
" />
<circle cx="72900" cy="38350" r="1181.1" /> 
<g >
</g>
<g >
</g>
<g >
</g>
<g >
</g>
<g >
</g>
<g >
</g>
<g >
</g>
<g >
</g>
<g >
</g>
<g >
</g>
<g >
</g>
<g >
</g>
<g >
</g>
<g >
</g>
<g >
</g>
<g >
</g>
<g >
</g>
<g >
</g>
<g >
</g>
<g >
</g>
<g >
</g>
<g >
</g>
<g >
</g>
<g >
</g>
<g >
</g>
<g >
</g>
<g >
</g>
<g >
</g>
<g >
</g>
<g >
</g>
<g >
</g>
<g >
</g>
<g >
</g>
<g >
</g>
<g >
</g>
<g >
</g>
<g >
</g>
<g >
</g>
<g >
</g>
<g >
</g>
<g >
</g>
<g >
</g>
<g >
</g>
<g >
</g>
<g >
</g>
<g >
</g>
<g >
</g>
<g >
</g>
<g >
</g>
<g >
</g>
<g >
</g>
<g >
</g>
<g >
</g>
<g >
</g>
<g >
</g>
<g >
</g>
<g >
</g>
<g >
</g>
<g >
</g>
<g >
</g>
<g >
</g>
<g >
</g>
<g >
</g>
<g >
</g>
<g >
</g>
<g >
</g>
<g >
</g>
<g >
</g>
<g >
</g>
<g >
</g>
<g >
</g>
<g >
</g>
<g >
</g>
<g >
</g>
<g >
</g>
<g >
</g>
<g >
</g>
</g>
<g style="fill:#848484; fill-opacity:0.0; 
stroke:#848484; stroke-width:47.2441; stroke-opacity:1; 
stroke-linecap:round; stroke-linejoin:round;">
</g>
<g style="fill:#848484; fill-opacity:0.0; 
stroke:#848484; stroke-width:59.0551; stroke-opacity:1; 
stroke-linecap:round; stroke-linejoin:round;">
<g transform="rotate(-90 73696.1 28700)">
<text x="73696.1" y="28896.9"
textLength="2608.74" font-size="524.934" lengthAdjust="spacingAndGlyphs"
text-anchor="middle" opacity="0">SW_Push</text>
</g>
<path d="M73855 29899
L73874 29843
L73874 29749
L73855 29712
L73836 29693
L73799 29674
L73761 29674
L73724 29693
L73705 29712
L73686 29749
L73667 29824
L73649 29862
L73630 29881
L73592 29899
L73555 29899
L73517 29881
L73499 29862
L73480 29824
L73480 29731
L73499 29674
" />
<path d="M73480 29543
L73874 29449
L73592 29374
L73874 29299
L73480 29206
" />
<path d="M73911 29149
L73911 28849
" />
<path d="M73874 28756
L73480 28756
L73480 28606
L73499 28568
L73517 28550
L73555 28531
L73611 28531
L73649 28550
L73667 28568
L73686 28606
L73686 28756
" />
<path d="M73611 28193
L73874 28193
" />
<path d="M73611 28362
L73817 28362
L73855 28343
L73874 28306
L73874 28250
L73855 28212
L73836 28193
" />
<path d="M73855 28025
L73874 27987
L73874 27912
L73855 27875
L73817 27856
L73799 27856
L73761 27875
L73742 27912
L73742 27968
L73724 28006
L73686 28025
L73667 28025
L73630 28006
L73611 27968
L73611 27912
L73630 27875
" />
<path d="M73874 27687
L73480 27687
" />
<path d="M73874 27518
L73667 27518
L73630 27537
L73611 27575
L73611 27631
L73630 27668
L73649 27687
" />
<text x="71556.7" y="28686.8"
textLength="625.343" font-size="426.667" lengthAdjust="spacingAndGlyphs"
text-anchor="middle" opacity="0">J1</text>
<path d="M71450 28351
L71450 28580
L71434 28625
L71404 28656
L71358 28671
L71328 28671
" />
<path d="M71770 28671
L71587 28671
" />
<path d="M71678 28671
L71678 28351
L71648 28397
L71617 28427
L71587 28442
" />
</g>
<g style="fill:#848484; fill-opacity:0.0; 
stroke:#848484; stroke-width:47.2441; stroke-opacity:1; 
stroke-linecap:round; stroke-linejoin:round;">
<g transform="rotate(-90 51100 22068.1)">
<text x="51100" y="22225.6"
textLength="991.657" font-size="419.947" lengthAdjust="spacingAndGlyphs"
text-anchor="middle" opacity="0">D20</text>
</g>
<path d="M51242 22450
L50927 22450
L50927 22375
L50942 22330
L50972 22300
L51002 22285
L51062 22270
L51107 22270
L51167 22285
L51197 22300
L51227 22330
L51242 22375
L51242 22450
" />
<path d="M50957 22150
L50942 22135
L50927 22105
L50927 22030
L50942 22000
L50957 21985
L50987 21970
L51017 21970
L51062 21985
L51242 22165
L51242 21970
" />
<path d="M50927 21775
L50927 21745
L50942 21715
L50957 21700
L50987 21685
L51047 21670
L51122 21670
L51182 21685
L51212 21700
L51227 21715
L51242 21745
L51242 21775
L51227 21805
L51212 21820
L51182 21835
L51122 21850
L51047 21850
L50987 21835
L50957 21820
L50942 21805
L50927 21775
" />
</g>
<g style="fill:#848484; fill-opacity:0.0; 
stroke:#848484; stroke-width:59.0551; stroke-opacity:1; 
stroke-linecap:round; stroke-linejoin:round;">
<g transform="rotate(-90 51808.7 20450)">
<text x="51808.7" y="20646.9"
textLength="455.118" font-size="524.934" lengthAdjust="spacingAndGlyphs"
text-anchor="middle" opacity="0">K</text>
</g>
<path d="M51986 20553
L51593 20553
" />
<path d="M51986 20328
L51761 20496
" />
<path d="M51593 20328
L51818 20553
" />
</g>
<g style="fill:#848484; fill-opacity:0.0; 
stroke:#848484; stroke-width:47.2441; stroke-opacity:1; 
stroke-linecap:round; stroke-linejoin:round;">
<g transform="rotate(-90 64100 22068.1)">
<text x="64100" y="22225.6"
textLength="991.657" font-size="419.947" lengthAdjust="spacingAndGlyphs"
text-anchor="middle" opacity="0">D19</text>
</g>
<path d="M64242 22450
L63927 22450
L63927 22375
L63942 22330
L63972 22300
L64002 22285
L64062 22270
L64107 22270
L64167 22285
L64197 22300
L64227 22330
L64242 22375
L64242 22450
" />
<path d="M64242 21970
L64242 22150
" />
<path d="M64242 22060
L63927 22060
L63972 22090
L64002 22120
L64017 22150
" />
<path d="M64242 21820
L64242 21760
L64227 21730
L64212 21715
L64167 21685
L64107 21670
L63987 21670
L63957 21685
L63942 21700
L63927 21730
L63927 21790
L63942 21820
L63957 21835
L63987 21850
L64062 21850
L64092 21835
L64107 21820
L64122 21790
L64122 21730
L64107 21700
L64092 21685
L64062 21670
" />
</g>
<g style="fill:#848484; fill-opacity:0.0; 
stroke:#848484; stroke-width:59.0551; stroke-opacity:1; 
stroke-linecap:round; stroke-linejoin:round;">
<g transform="rotate(-90 64808.7 20450)">
<text x="64808.7" y="20646.9"
textLength="455.118" font-size="524.934" lengthAdjust="spacingAndGlyphs"
text-anchor="middle" opacity="0">K</text>
</g>
<path d="M64986 20553
L64593 20553
" />
<path d="M64986 20328
L64761 20496
" />
<path d="M64593 20328
L64818 20553
" />
</g>
<g style="fill:#848484; fill-opacity:0.0; 
stroke:#848484; stroke-width:47.2441; stroke-opacity:1; 
stroke-linecap:round; stroke-linejoin:round;">
<g transform="rotate(-90 62800 22068.1)">
<text x="62800" y="22225.6"
textLength="991.657" font-size="419.947" lengthAdjust="spacingAndGlyphs"
text-anchor="middle" opacity="0">D18</text>
</g>
<path d="M62942 22450
L62627 22450
L62627 22375
L62642 22330
L62672 22300
L62702 22285
L62762 22270
L62807 22270
L62867 22285
L62897 22300
L62927 22330
L62942 22375
L62942 22450
" />
<path d="M62942 21970
L62942 22150
" />
<path d="M62942 22060
L62627 22060
L62672 22090
L62702 22120
L62717 22150
" />
<path d="M62762 21790
L62747 21820
L62732 21835
L62702 21850
L62687 21850
L62657 21835
L62642 21820
L62627 21790
L62627 21730
L62642 21700
L62657 21685
L62687 21670
L62702 21670
L62732 21685
L62747 21700
L62762 21730
L62762 21790
L62777 21820
L62792 21835
L62822 21850
L62882 21850
L62912 21835
L62927 21820
L62942 21790
L62942 21730
L62927 21700
L62912 21685
L62882 21670
L62822 21670
L62792 21685
L62777 21700
L62762 21730
" />
</g>
<g style="fill:#848484; fill-opacity:0.0; 
stroke:#848484; stroke-width:59.0551; stroke-opacity:1; 
stroke-linecap:round; stroke-linejoin:round;">
<g transform="rotate(-90 63508.7 20450)">
<text x="63508.7" y="20646.9"
textLength="455.118" font-size="524.934" lengthAdjust="spacingAndGlyphs"
text-anchor="middle" opacity="0">K</text>
</g>
<path d="M63686 20553
L63293 20553
" />
<path d="M63686 20328
L63461 20496
" />
<path d="M63293 20328
L63518 20553
" />
</g>
<g style="fill:#848484; fill-opacity:0.0; 
stroke:#848484; stroke-width:47.2441; stroke-opacity:1; 
stroke-linecap:round; stroke-linejoin:round;">
<g transform="rotate(-90 58900 22068.1)">
<text x="58900" y="22225.6"
textLength="991.657" font-size="419.947" lengthAdjust="spacingAndGlyphs"
text-anchor="middle" opacity="0">D17</text>
</g>
<path d="M59042 22450
L58727 22450
L58727 22375
L58742 22330
L58772 22300
L58802 22285
L58862 22270
L58907 22270
L58967 22285
L58997 22300
L59027 22330
L59042 22375
L59042 22450
" />
<path d="M59042 21970
L59042 22150
" />
<path d="M59042 22060
L58727 22060
L58772 22090
L58802 22120
L58817 22150
" />
<path d="M58727 21865
L58727 21655
L59042 21790
" />
</g>
<g style="fill:#848484; fill-opacity:0.0; 
stroke:#848484; stroke-width:59.0551; stroke-opacity:1; 
stroke-linecap:round; stroke-linejoin:round;">
<g transform="rotate(-90 59608.7 20450)">
<text x="59608.7" y="20646.9"
textLength="455.118" font-size="524.934" lengthAdjust="spacingAndGlyphs"
text-anchor="middle" opacity="0">K</text>
</g>
<path d="M59786 20553
L59393 20553
" />
<path d="M59786 20328
L59561 20496
" />
<path d="M59393 20328
L59618 20553
" />
</g>
<g style="fill:#848484; fill-opacity:0.0; 
stroke:#848484; stroke-width:47.2441; stroke-opacity:1; 
stroke-linecap:round; stroke-linejoin:round;">
<g transform="rotate(-90 60200 22068.1)">
<text x="60200" y="22225.6"
textLength="991.657" font-size="419.947" lengthAdjust="spacingAndGlyphs"
text-anchor="middle" opacity="0">D16</text>
</g>
<path d="M60342 22450
L60027 22450
L60027 22375
L60042 22330
L60072 22300
L60102 22285
L60162 22270
L60207 22270
L60267 22285
L60297 22300
L60327 22330
L60342 22375
L60342 22450
" />
<path d="M60342 21970
L60342 22150
" />
<path d="M60342 22060
L60027 22060
L60072 22090
L60102 22120
L60117 22150
" />
<path d="M60027 21700
L60027 21760
L60042 21790
L60057 21805
L60102 21835
L60162 21850
L60282 21850
L60312 21835
L60327 21820
L60342 21790
L60342 21730
L60327 21700
L60312 21685
L60282 21670
L60207 21670
L60177 21685
L60162 21700
L60147 21730
L60147 21790
L60162 21820
L60177 21835
L60207 21850
" />
</g>
<g style="fill:#848484; fill-opacity:0.0; 
stroke:#848484; stroke-width:59.0551; stroke-opacity:1; 
stroke-linecap:round; stroke-linejoin:round;">
<g transform="rotate(-90 60908.7 20450)">
<text x="60908.7" y="20646.9"
textLength="455.118" font-size="524.934" lengthAdjust="spacingAndGlyphs"
text-anchor="middle" opacity="0">K</text>
</g>
<path d="M61086 20553
L60693 20553
" />
<path d="M61086 20328
L60861 20496
" />
<path d="M60693 20328
L60918 20553
" />
</g>
<g style="fill:#848484; fill-opacity:0.0; 
stroke:#848484; stroke-width:47.2441; stroke-opacity:1; 
stroke-linecap:round; stroke-linejoin:round;">
<g transform="rotate(-90 61500 22068.1)">
<text x="61500" y="22225.6"
textLength="991.657" font-size="419.947" lengthAdjust="spacingAndGlyphs"
text-anchor="middle" opacity="0">D15</text>
</g>
<path d="M61642 22450
L61327 22450
L61327 22375
L61342 22330
L61372 22300
L61402 22285
L61462 22270
L61507 22270
L61567 22285
L61597 22300
L61627 22330
L61642 22375
L61642 22450
" />
<path d="M61642 21970
L61642 22150
" />
<path d="M61642 22060
L61327 22060
L61372 22090
L61402 22120
L61417 22150
" />
<path d="M61327 21685
L61327 21835
L61477 21850
L61462 21835
L61447 21805
L61447 21730
L61462 21700
L61477 21685
L61507 21670
L61582 21670
L61612 21685
L61627 21700
L61642 21730
L61642 21805
L61627 21835
L61612 21850
" />
</g>
<g style="fill:#848484; fill-opacity:0.0; 
stroke:#848484; stroke-width:59.0551; stroke-opacity:1; 
stroke-linecap:round; stroke-linejoin:round;">
<g transform="rotate(-90 62208.7 20450)">
<text x="62208.7" y="20646.9"
textLength="455.118" font-size="524.934" lengthAdjust="spacingAndGlyphs"
text-anchor="middle" opacity="0">K</text>
</g>
<path d="M62386 20553
L61993 20553
" />
<path d="M62386 20328
L62161 20496
" />
<path d="M61993 20328
L62218 20553
" />
<g transform="rotate(-90 57008.7 20450)">
<text x="57008.7" y="20646.9"
textLength="470.472" font-size="524.934" lengthAdjust="spacingAndGlyphs"
text-anchor="middle" opacity="0">K</text>
</g>
<path d="M57186 20553
L56793 20553
" />
<path d="M57186 20328
L56961 20496
" />
<path d="M56793 20328
L57018 20553
" />
</g>
<g style="fill:#848484; fill-opacity:0.0; 
stroke:#848484; stroke-width:47.2441; stroke-opacity:1; 
stroke-linecap:round; stroke-linejoin:round;">
<g transform="rotate(-90 56300 22068.1)">
<text x="56300" y="22225.6"
textLength="991.657" font-size="419.947" lengthAdjust="spacingAndGlyphs"
text-anchor="middle" opacity="0">D14</text>
</g>
<path d="M56442 22450
L56127 22450
L56127 22375
L56142 22330
L56172 22300
L56202 22285
L56262 22270
L56307 22270
L56367 22285
L56397 22300
L56427 22330
L56442 22375
L56442 22450
" />
<path d="M56442 21970
L56442 22150
" />
<path d="M56442 22060
L56127 22060
L56172 22090
L56202 22120
L56217 22150
" />
<path d="M56232 21700
L56442 21700
" />
<path d="M56112 21775
L56337 21850
L56337 21655
" />
<g transform="rotate(-90 55000 22068.1)">
<text x="55000" y="22225.6"
textLength="976.303" font-size="419.947" lengthAdjust="spacingAndGlyphs"
text-anchor="middle" opacity="0">D13</text>
</g>
<path d="M55142 22450
L54827 22450
L54827 22375
L54842 22330
L54872 22300
L54902 22285
L54962 22270
L55007 22270
L55067 22285
L55097 22300
L55127 22330
L55142 22375
L55142 22450
" />
<path d="M55142 21970
L55142 22150
" />
<path d="M55142 22060
L54827 22060
L54872 22090
L54902 22120
L54917 22150
" />
<path d="M54827 21865
L54827 21670
L54947 21775
L54947 21730
L54962 21700
L54977 21685
L55007 21670
L55082 21670
L55112 21685
L55127 21700
L55142 21730
L55142 21820
L55127 21850
L55112 21865
" />
</g>
<g style="fill:#848484; fill-opacity:0.0; 
stroke:#848484; stroke-width:59.0551; stroke-opacity:1; 
stroke-linecap:round; stroke-linejoin:round;">
<g transform="rotate(-90 55708.7 20450)">
<text x="55708.7" y="20646.9"
textLength="455.118" font-size="524.934" lengthAdjust="spacingAndGlyphs"
text-anchor="middle" opacity="0">K</text>
</g>
<path d="M55886 20553
L55493 20553
" />
<path d="M55886 20328
L55661 20496
" />
<path d="M55493 20328
L55718 20553
" />
</g>
<g style="fill:#848484; fill-opacity:0.0; 
stroke:#848484; stroke-width:47.2441; stroke-opacity:1; 
stroke-linecap:round; stroke-linejoin:round;">
<g transform="rotate(-90 53700 22068.1)">
<text x="53700" y="22225.6"
textLength="991.657" font-size="419.947" lengthAdjust="spacingAndGlyphs"
text-anchor="middle" opacity="0">D12</text>
</g>
<path d="M53842 22450
L53527 22450
L53527 22375
L53542 22330
L53572 22300
L53602 22285
L53662 22270
L53707 22270
L53767 22285
L53797 22300
L53827 22330
L53842 22375
L53842 22450
" />
<path d="M53842 21970
L53842 22150
" />
<path d="M53842 22060
L53527 22060
L53572 22090
L53602 22120
L53617 22150
" />
<path d="M53557 21850
L53542 21835
L53527 21805
L53527 21730
L53542 21700
L53557 21685
L53587 21670
L53617 21670
L53662 21685
L53842 21865
L53842 21670
" />
</g>
<g style="fill:#848484; fill-opacity:0.0; 
stroke:#848484; stroke-width:59.0551; stroke-opacity:1; 
stroke-linecap:round; stroke-linejoin:round;">
<g transform="rotate(-90 54408.7 20450)">
<text x="54408.7" y="20646.9"
textLength="455.118" font-size="524.934" lengthAdjust="spacingAndGlyphs"
text-anchor="middle" opacity="0">K</text>
</g>
<path d="M54586 20553
L54193 20553
" />
<path d="M54586 20328
L54361 20496
" />
<path d="M54193 20328
L54418 20553
" />
</g>
<g style="fill:#848484; fill-opacity:0.0; 
stroke:#848484; stroke-width:47.2441; stroke-opacity:1; 
stroke-linecap:round; stroke-linejoin:round;">
<g transform="rotate(-90 52400 22068.1)">
<text x="52400" y="22225.6"
textLength="991.657" font-size="419.947" lengthAdjust="spacingAndGlyphs"
text-anchor="middle" opacity="0">D11</text>
</g>
<path d="M52542 22450
L52227 22450
L52227 22375
L52242 22330
L52272 22300
L52302 22285
L52362 22270
L52407 22270
L52467 22285
L52497 22300
L52527 22330
L52542 22375
L52542 22450
" />
<path d="M52542 21970
L52542 22150
" />
<path d="M52542 22060
L52227 22060
L52272 22090
L52302 22120
L52317 22150
" />
<path d="M52542 21670
L52542 21850
" />
<path d="M52542 21760
L52227 21760
L52272 21790
L52302 21820
L52317 21850
" />
</g>
<g style="fill:#848484; fill-opacity:0.0; 
stroke:#848484; stroke-width:59.0551; stroke-opacity:1; 
stroke-linecap:round; stroke-linejoin:round;">
<g transform="rotate(-90 53108.7 20450)">
<text x="53108.7" y="20646.9"
textLength="455.118" font-size="524.934" lengthAdjust="spacingAndGlyphs"
text-anchor="middle" opacity="0">K</text>
</g>
<path d="M53286 20553
L52893 20553
" />
<path d="M53286 20328
L53061 20496
" />
<path d="M52893 20328
L53118 20553
" />
</g>
<g style="fill:#848484; fill-opacity:0.0; 
stroke:#848484; stroke-width:47.2441; stroke-opacity:1; 
stroke-linecap:round; stroke-linejoin:round;">
<g transform="rotate(-90 57600 22068.1)">
<text x="57600" y="22225.6"
textLength="991.657" font-size="419.947" lengthAdjust="spacingAndGlyphs"
text-anchor="middle" opacity="0">D10</text>
</g>
<path d="M57742 22450
L57427 22450
L57427 22375
L57442 22330
L57472 22300
L57502 22285
L57562 22270
L57607 22270
L57667 22285
L57697 22300
L57727 22330
L57742 22375
L57742 22450
" />
<path d="M57742 21970
L57742 22150
" />
<path d="M57742 22060
L57427 22060
L57472 22090
L57502 22120
L57517 22150
" />
<path d="M57427 21775
L57427 21745
L57442 21715
L57457 21700
L57487 21685
L57547 21670
L57622 21670
L57682 21685
L57712 21700
L57727 21715
L57742 21745
L57742 21775
L57727 21805
L57712 21820
L57682 21835
L57622 21850
L57547 21850
L57487 21835
L57457 21820
L57442 21805
L57427 21775
" />
</g>
<g style="fill:#848484; fill-opacity:0.0; 
stroke:#848484; stroke-width:59.0551; stroke-opacity:1; 
stroke-linecap:round; stroke-linejoin:round;">
<g transform="rotate(-90 58308.7 20450)">
<text x="58308.7" y="20646.9"
textLength="455.118" font-size="524.934" lengthAdjust="spacingAndGlyphs"
text-anchor="middle" opacity="0">K</text>
</g>
<path d="M58486 20553
L58093 20553
" />
<path d="M58486 20328
L58261 20496
" />
<path d="M58093 20328
L58318 20553
" />
</g>
<g style="fill:#848484; fill-opacity:0.0; 
stroke:#848484; stroke-width:47.2441; stroke-opacity:1; 
stroke-linecap:round; stroke-linejoin:round;">
<g transform="rotate(-90 45900 22068.1)">
<text x="45900" y="22225.6"
textLength="691.695" font-size="419.947" lengthAdjust="spacingAndGlyphs"
text-anchor="middle" opacity="0">D9</text>
</g>
<path d="M46042 22300
L45727 22300
L45727 22225
L45742 22180
L45772 22150
L45802 22135
L45862 22120
L45907 22120
L45967 22135
L45997 22150
L46027 22180
L46042 22225
L46042 22300
" />
<path d="M46042 21970
L46042 21910
L46027 21880
L46012 21865
L45967 21835
L45907 21820
L45787 21820
L45757 21835
L45742 21850
L45727 21880
L45727 21940
L45742 21970
L45757 21985
L45787 22000
L45862 22000
L45892 21985
L45907 21970
L45922 21940
L45922 21880
L45907 21850
L45892 21835
L45862 21820
" />
</g>
<g style="fill:#848484; fill-opacity:0.0; 
stroke:#848484; stroke-width:59.0551; stroke-opacity:1; 
stroke-linecap:round; stroke-linejoin:round;">
<g transform="rotate(-90 46608.7 20450)">
<text x="46608.7" y="20646.9"
textLength="455.118" font-size="524.934" lengthAdjust="spacingAndGlyphs"
text-anchor="middle" opacity="0">K</text>
</g>
<path d="M46786 20553
L46393 20553
" />
<path d="M46786 20328
L46561 20496
" />
<path d="M46393 20328
L46618 20553
" />
</g>
<g style="fill:#848484; fill-opacity:0.0; 
stroke:#848484; stroke-width:47.2441; stroke-opacity:1; 
stroke-linecap:round; stroke-linejoin:round;">
<g transform="rotate(-90 47200 22068.1)">
<text x="47200" y="22225.6"
textLength="691.695" font-size="419.947" lengthAdjust="spacingAndGlyphs"
text-anchor="middle" opacity="0">D8</text>
</g>
<path d="M47342 22300
L47027 22300
L47027 22225
L47042 22180
L47072 22150
L47102 22135
L47162 22120
L47207 22120
L47267 22135
L47297 22150
L47327 22180
L47342 22225
L47342 22300
" />
<path d="M47162 21940
L47147 21970
L47132 21985
L47102 22000
L47087 22000
L47057 21985
L47042 21970
L47027 21940
L47027 21880
L47042 21850
L47057 21835
L47087 21820
L47102 21820
L47132 21835
L47147 21850
L47162 21880
L47162 21940
L47177 21970
L47192 21985
L47222 22000
L47282 22000
L47312 21985
L47327 21970
L47342 21940
L47342 21880
L47327 21850
L47312 21835
L47282 21820
L47222 21820
L47192 21835
L47177 21850
L47162 21880
" />
</g>
<g style="fill:#848484; fill-opacity:0.0; 
stroke:#848484; stroke-width:59.0551; stroke-opacity:1; 
stroke-linecap:round; stroke-linejoin:round;">
<g transform="rotate(-90 47908.7 20450)">
<text x="47908.7" y="20646.9"
textLength="455.118" font-size="524.934" lengthAdjust="spacingAndGlyphs"
text-anchor="middle" opacity="0">K</text>
</g>
<path d="M48086 20553
L47693 20553
" />
<path d="M48086 20328
L47861 20496
" />
<path d="M47693 20328
L47918 20553
" />
</g>
<g style="fill:#848484; fill-opacity:0.0; 
stroke:#848484; stroke-width:47.2441; stroke-opacity:1; 
stroke-linecap:round; stroke-linejoin:round;">
<g transform="rotate(-90 48500 22068.1)">
<text x="48500" y="22225.6"
textLength="691.695" font-size="419.947" lengthAdjust="spacingAndGlyphs"
text-anchor="middle" opacity="0">D7</text>
</g>
<path d="M48642 22300
L48327 22300
L48327 22225
L48342 22180
L48372 22150
L48402 22135
L48462 22120
L48507 22120
L48567 22135
L48597 22150
L48627 22180
L48642 22225
L48642 22300
" />
<path d="M48327 22015
L48327 21805
L48642 21940
" />
</g>
<g style="fill:#848484; fill-opacity:0.0; 
stroke:#848484; stroke-width:59.0551; stroke-opacity:1; 
stroke-linecap:round; stroke-linejoin:round;">
<g transform="rotate(-90 49208.7 20450)">
<text x="49208.7" y="20646.9"
textLength="455.118" font-size="524.934" lengthAdjust="spacingAndGlyphs"
text-anchor="middle" opacity="0">K</text>
</g>
<path d="M49386 20553
L48993 20553
" />
<path d="M49386 20328
L49161 20496
" />
<path d="M48993 20328
L49218 20553
" />
</g>
<g style="fill:#848484; fill-opacity:0.0; 
stroke:#848484; stroke-width:47.2441; stroke-opacity:1; 
stroke-linecap:round; stroke-linejoin:round;">
<g transform="rotate(-90 49800 22068.1)">
<text x="49800" y="22225.6"
textLength="691.695" font-size="419.947" lengthAdjust="spacingAndGlyphs"
text-anchor="middle" opacity="0">D6</text>
</g>
<path d="M49942 22300
L49627 22300
L49627 22225
L49642 22180
L49672 22150
L49702 22135
L49762 22120
L49807 22120
L49867 22135
L49897 22150
L49927 22180
L49942 22225
L49942 22300
" />
<path d="M49627 21850
L49627 21910
L49642 21940
L49657 21955
L49702 21985
L49762 22000
L49882 22000
L49912 21985
L49927 21970
L49942 21940
L49942 21880
L49927 21850
L49912 21835
L49882 21820
L49807 21820
L49777 21835
L49762 21850
L49747 21880
L49747 21940
L49762 21970
L49777 21985
L49807 22000
" />
</g>
<g style="fill:#848484; fill-opacity:0.0; 
stroke:#848484; stroke-width:59.0551; stroke-opacity:1; 
stroke-linecap:round; stroke-linejoin:round;">
<g transform="rotate(-90 50508.7 20450)">
<text x="50508.7" y="20646.9"
textLength="455.118" font-size="524.934" lengthAdjust="spacingAndGlyphs"
text-anchor="middle" opacity="0">K</text>
</g>
<path d="M50686 20553
L50293 20553
" />
<path d="M50686 20328
L50461 20496
" />
<path d="M50293 20328
L50518 20553
" />
</g>
<g style="fill:#848484; fill-opacity:0.0; 
stroke:#848484; stroke-width:47.2441; stroke-opacity:1; 
stroke-linecap:round; stroke-linejoin:round;">
<g transform="rotate(-90 44600 22068.1)">
<text x="44600" y="22225.6"
textLength="691.695" font-size="419.947" lengthAdjust="spacingAndGlyphs"
text-anchor="middle" opacity="0">D5</text>
</g>
<path d="M44742 22300
L44427 22300
L44427 22225
L44442 22180
L44472 22150
L44502 22135
L44562 22120
L44607 22120
L44667 22135
L44697 22150
L44727 22180
L44742 22225
L44742 22300
" />
<path d="M44427 21835
L44427 21985
L44577 22000
L44562 21985
L44547 21955
L44547 21880
L44562 21850
L44577 21835
L44607 21820
L44682 21820
L44712 21835
L44727 21850
L44742 21880
L44742 21955
L44727 21985
L44712 22000
" />
</g>
<g style="fill:#848484; fill-opacity:0.0; 
stroke:#848484; stroke-width:59.0551; stroke-opacity:1; 
stroke-linecap:round; stroke-linejoin:round;">
<g transform="rotate(-90 45308.7 20450)">
<text x="45308.7" y="20646.9"
textLength="455.118" font-size="524.934" lengthAdjust="spacingAndGlyphs"
text-anchor="middle" opacity="0">K</text>
</g>
<path d="M45486 20553
L45093 20553
" />
<path d="M45486 20328
L45261 20496
" />
<path d="M45093 20328
L45318 20553
" />
</g>
<g style="fill:#848484; fill-opacity:0.0; 
stroke:#848484; stroke-width:47.2441; stroke-opacity:1; 
stroke-linecap:round; stroke-linejoin:round;">
<g transform="rotate(-90 43300 22068.1)">
<text x="43300" y="22225.6"
textLength="691.695" font-size="419.947" lengthAdjust="spacingAndGlyphs"
text-anchor="middle" opacity="0">D4</text>
</g>
<path d="M43442 22300
L43127 22300
L43127 22225
L43142 22180
L43172 22150
L43202 22135
L43262 22120
L43307 22120
L43367 22135
L43397 22150
L43427 22180
L43442 22225
L43442 22300
" />
<path d="M43232 21850
L43442 21850
" />
<path d="M43112 21925
L43337 22000
L43337 21805
" />
</g>
<g style="fill:#848484; fill-opacity:0.0; 
stroke:#848484; stroke-width:59.0551; stroke-opacity:1; 
stroke-linecap:round; stroke-linejoin:round;">
<g transform="rotate(-90 44008.7 20450)">
<text x="44008.7" y="20646.9"
textLength="455.118" font-size="524.934" lengthAdjust="spacingAndGlyphs"
text-anchor="middle" opacity="0">K</text>
</g>
<path d="M44186 20553
L43793 20553
" />
<path d="M44186 20328
L43961 20496
" />
<path d="M43793 20328
L44018 20553
" />
</g>
<g style="fill:#848484; fill-opacity:0.0; 
stroke:#848484; stroke-width:47.2441; stroke-opacity:1; 
stroke-linecap:round; stroke-linejoin:round;">
<g transform="rotate(-90 42000 22068.1)">
<text x="42000" y="22225.6"
textLength="691.695" font-size="419.947" lengthAdjust="spacingAndGlyphs"
text-anchor="middle" opacity="0">D3</text>
</g>
<path d="M42142 22300
L41827 22300
L41827 22225
L41842 22180
L41872 22150
L41902 22135
L41962 22120
L42007 22120
L42067 22135
L42097 22150
L42127 22180
L42142 22225
L42142 22300
" />
<path d="M41827 22015
L41827 21820
L41947 21925
L41947 21880
L41962 21850
L41977 21835
L42007 21820
L42082 21820
L42112 21835
L42127 21850
L42142 21880
L42142 21970
L42127 22000
L42112 22015
" />
</g>
<g style="fill:#848484; fill-opacity:0.0; 
stroke:#848484; stroke-width:59.0551; stroke-opacity:1; 
stroke-linecap:round; stroke-linejoin:round;">
<g transform="rotate(-90 42708.7 20450)">
<text x="42708.7" y="20646.9"
textLength="455.118" font-size="524.934" lengthAdjust="spacingAndGlyphs"
text-anchor="middle" opacity="0">K</text>
</g>
<path d="M42886 20553
L42493 20553
" />
<path d="M42886 20328
L42661 20496
" />
<path d="M42493 20328
L42718 20553
" />
</g>
<g style="fill:#848484; fill-opacity:0.0; 
stroke:#848484; stroke-width:47.2441; stroke-opacity:1; 
stroke-linecap:round; stroke-linejoin:round;">
<g transform="rotate(-90 40700 22068.1)">
<text x="40700" y="22225.6"
textLength="691.695" font-size="419.947" lengthAdjust="spacingAndGlyphs"
text-anchor="middle" opacity="0">D2</text>
</g>
<path d="M40842 22300
L40527 22300
L40527 22225
L40542 22180
L40572 22150
L40602 22135
L40662 22120
L40707 22120
L40767 22135
L40797 22150
L40827 22180
L40842 22225
L40842 22300
" />
<path d="M40557 22000
L40542 21985
L40527 21955
L40527 21880
L40542 21850
L40557 21835
L40587 21820
L40617 21820
L40662 21835
L40842 22015
L40842 21820
" />
</g>
<g style="fill:#848484; fill-opacity:0.0; 
stroke:#848484; stroke-width:59.0551; stroke-opacity:1; 
stroke-linecap:round; stroke-linejoin:round;">
<g transform="rotate(-90 41408.7 20450)">
<text x="41408.7" y="20646.9"
textLength="455.118" font-size="524.934" lengthAdjust="spacingAndGlyphs"
text-anchor="middle" opacity="0">K</text>
</g>
<path d="M41586 20553
L41193 20553
" />
<path d="M41586 20328
L41361 20496
" />
<path d="M41193 20328
L41418 20553
" />
</g>
<g style="fill:#848484; fill-opacity:0.0; 
stroke:#848484; stroke-width:47.2441; stroke-opacity:1; 
stroke-linecap:round; stroke-linejoin:round;">
<g transform="rotate(-90 39400 22068.1)">
<text x="39400" y="22225.6"
textLength="691.695" font-size="419.947" lengthAdjust="spacingAndGlyphs"
text-anchor="middle" opacity="0">D1</text>
</g>
<path d="M39542 22300
L39227 22300
L39227 22225
L39242 22180
L39272 22150
L39302 22135
L39362 22120
L39407 22120
L39467 22135
L39497 22150
L39527 22180
L39542 22225
L39542 22300
" />
<path d="M39542 21820
L39542 22000
" />
<path d="M39542 21910
L39227 21910
L39272 21940
L39302 21970
L39317 22000
" />
</g>
<g style="fill:#848484; fill-opacity:0.0; 
stroke:#848484; stroke-width:59.0551; stroke-opacity:1; 
stroke-linecap:round; stroke-linejoin:round;">
<g transform="rotate(-90 40108.7 20450)">
<text x="40108.7" y="20646.9"
textLength="455.118" font-size="524.934" lengthAdjust="spacingAndGlyphs"
text-anchor="middle" opacity="0">K</text>
</g>
<path d="M40286 20553
L39893 20553
" />
<path d="M40286 20328
L40061 20496
" />
<path d="M39893 20328
L40118 20553
" />
<text x="72900" y="61657.1"
textLength="6788.43" font-size="524.934" lengthAdjust="spacingAndGlyphs"
text-anchor="middle" opacity="0">Rotary_Encoder_Switch</text>
<path d="M69862 61638
L69731 61450
" />
<path d="M69637 61638
L69637 61244
L69787 61244
L69825 61263
L69844 61282
L69862 61319
L69862 61375
L69844 61413
L69825 61432
L69787 61450
L69637 61450
" />
<path d="M70087 61638
L70050 61619
L70031 61600
L70012 61563
L70012 61450
L70031 61413
L70050 61394
L70087 61375
L70144 61375
L70181 61394
L70200 61413
L70219 61450
L70219 61563
L70200 61600
L70181 61619
L70144 61638
L70087 61638
" />
<path d="M70331 61375
L70481 61375
" />
<path d="M70387 61244
L70387 61582
L70406 61619
L70444 61638
L70481 61638
" />
<path d="M70781 61638
L70781 61432
L70762 61394
L70725 61375
L70650 61375
L70612 61394
" />
<path d="M70781 61619
L70744 61638
L70650 61638
L70612 61619
L70594 61582
L70594 61544
L70612 61507
L70650 61488
L70744 61488
L70781 61469
" />
<path d="M70968 61638
L70968 61375
" />
<path d="M70968 61450
L70987 61413
L71006 61394
L71043 61375
L71081 61375
" />
<path d="M71175 61375
L71268 61638
" />
<path d="M71362 61375
L71268 61638
L71231 61732
L71212 61750
L71175 61769
" />
<path d="M71418 61675
L71718 61675
" />
<path d="M71812 61432
L71943 61432
" />
<path d="M72000 61638
L71812 61638
L71812 61244
L72000 61244
" />
<path d="M72168 61375
L72168 61638
" />
<path d="M72168 61413
L72187 61394
L72225 61375
L72281 61375
L72318 61394
L72337 61432
L72337 61638
" />
<path d="M72693 61619
L72656 61638
L72581 61638
L72543 61619
L72525 61600
L72506 61563
L72506 61450
L72525 61413
L72543 61394
L72581 61375
L72656 61375
L72693 61394
" />
<path d="M72918 61638
L72881 61619
L72862 61600
L72843 61563
L72843 61450
L72862 61413
L72881 61394
L72918 61375
L72974 61375
L73012 61394
L73031 61413
L73049 61450
L73049 61563
L73031 61600
L73012 61619
L72974 61638
L72918 61638
" />
<path d="M73387 61638
L73387 61244
" />
<path d="M73387 61619
L73349 61638
L73274 61638
L73237 61619
L73218 61600
L73199 61563
L73199 61450
L73218 61413
L73237 61394
L73274 61375
L73349 61375
L73387 61394
" />
<path d="M73724 61619
L73687 61638
L73612 61638
L73574 61619
L73556 61582
L73556 61432
L73574 61394
L73612 61375
L73687 61375
L73724 61394
L73743 61432
L73743 61469
L73556 61507
" />
<path d="M73912 61638
L73912 61375
" />
<path d="M73912 61450
L73931 61413
L73949 61394
L73987 61375
L74024 61375
" />
<path d="M74062 61675
L74362 61675
" />
<path d="M74437 61619
L74493 61638
L74587 61638
L74624 61619
L74643 61600
L74662 61563
L74662 61525
L74643 61488
L74624 61469
L74587 61450
L74512 61432
L74474 61413
L74456 61394
L74437 61357
L74437 61319
L74456 61282
L74474 61263
L74512 61244
L74606 61244
L74662 61263
" />
<path d="M74793 61375
L74868 61638
L74943 61450
L75018 61638
L75093 61375
" />
<path d="M75243 61638
L75243 61375
" />
<path d="M75243 61244
L75224 61263
L75243 61282
L75262 61263
L75243 61244
L75243 61282
" />
<path d="M75374 61375
L75524 61375
" />
<path d="M75430 61244
L75430 61582
L75449 61619
L75487 61638
L75524 61638
" />
<path d="M75824 61619
L75787 61638
L75712 61638
L75674 61619
L75655 61600
L75637 61563
L75637 61450
L75655 61413
L75674 61394
L75712 61375
L75787 61375
L75824 61394
" />
<path d="M75993 61638
L75993 61244
" />
<path d="M76162 61638
L76162 61432
L76143 61394
L76105 61375
L76049 61375
L76012 61394
L75993 61413
" />
<text x="74317.3" y="60042.9"
textLength="1276.62" font-size="524.934" lengthAdjust="spacingAndGlyphs"
text-anchor="middle" opacity="0">SW3</text>
<path d="M73792 60005
L73848 60024
L73942 60024
L73979 60005
L73998 59986
L74017 59949
L74017 59911
L73998 59874
L73979 59855
L73942 59836
L73867 59817
L73829 59799
L73811 59780
L73792 59742
L73792 59705
L73811 59667
L73829 59649
L73867 59630
L73961 59630
L74017 59649
" />
<path d="M74148 59630
L74242 60024
L74317 59742
L74392 60024
L74486 59630
" />
<path d="M74598 59630
L74842 59630
L74711 59780
L74767 59780
L74804 59799
L74823 59817
L74842 59855
L74842 59949
L74823 59986
L74804 60005
L74767 60024
L74654 60024
L74617 60005
L74598 59986
" />
<text x="72900" y="51657.1"
textLength="6788.43" font-size="524.934" lengthAdjust="spacingAndGlyphs"
text-anchor="middle" opacity="0">Rotary_Encoder_Switch</text>
<path d="M69862 51638
L69731 51450
" />
<path d="M69637 51638
L69637 51244
L69787 51244
L69825 51263
L69844 51282
L69862 51319
L69862 51375
L69844 51413
L69825 51432
L69787 51450
L69637 51450
" />
<path d="M70087 51638
L70050 51619
L70031 51600
L70012 51563
L70012 51450
L70031 51413
L70050 51394
L70087 51375
L70144 51375
L70181 51394
L70200 51413
L70219 51450
L70219 51563
L70200 51600
L70181 51619
L70144 51638
L70087 51638
" />
<path d="M70331 51375
L70481 51375
" />
<path d="M70387 51244
L70387 51582
L70406 51619
L70444 51638
L70481 51638
" />
<path d="M70781 51638
L70781 51432
L70762 51394
L70725 51375
L70650 51375
L70612 51394
" />
<path d="M70781 51619
L70744 51638
L70650 51638
L70612 51619
L70594 51582
L70594 51544
L70612 51507
L70650 51488
L70744 51488
L70781 51469
" />
<path d="M70968 51638
L70968 51375
" />
<path d="M70968 51450
L70987 51413
L71006 51394
L71043 51375
L71081 51375
" />
<path d="M71175 51375
L71268 51638
" />
<path d="M71362 51375
L71268 51638
L71231 51732
L71212 51750
L71175 51769
" />
<path d="M71418 51675
L71718 51675
" />
<path d="M71812 51432
L71943 51432
" />
<path d="M72000 51638
L71812 51638
L71812 51244
L72000 51244
" />
<path d="M72168 51375
L72168 51638
" />
<path d="M72168 51413
L72187 51394
L72225 51375
L72281 51375
L72318 51394
L72337 51432
L72337 51638
" />
<path d="M72693 51619
L72656 51638
L72581 51638
L72543 51619
L72525 51600
L72506 51563
L72506 51450
L72525 51413
L72543 51394
L72581 51375
L72656 51375
L72693 51394
" />
<path d="M72918 51638
L72881 51619
L72862 51600
L72843 51563
L72843 51450
L72862 51413
L72881 51394
L72918 51375
L72974 51375
L73012 51394
L73031 51413
L73049 51450
L73049 51563
L73031 51600
L73012 51619
L72974 51638
L72918 51638
" />
<path d="M73387 51638
L73387 51244
" />
<path d="M73387 51619
L73349 51638
L73274 51638
L73237 51619
L73218 51600
L73199 51563
L73199 51450
L73218 51413
L73237 51394
L73274 51375
L73349 51375
L73387 51394
" />
<path d="M73724 51619
L73687 51638
L73612 51638
L73574 51619
L73556 51582
L73556 51432
L73574 51394
L73612 51375
L73687 51375
L73724 51394
L73743 51432
L73743 51469
L73556 51507
" />
<path d="M73912 51638
L73912 51375
" />
<path d="M73912 51450
L73931 51413
L73949 51394
L73987 51375
L74024 51375
" />
<path d="M74062 51675
L74362 51675
" />
<path d="M74437 51619
L74493 51638
L74587 51638
L74624 51619
L74643 51600
L74662 51563
L74662 51525
L74643 51488
L74624 51469
L74587 51450
L74512 51432
L74474 51413
L74456 51394
L74437 51357
L74437 51319
L74456 51282
L74474 51263
L74512 51244
L74606 51244
L74662 51263
" />
<path d="M74793 51375
L74868 51638
L74943 51450
L75018 51638
L75093 51375
" />
<path d="M75243 51638
L75243 51375
" />
<path d="M75243 51244
L75224 51263
L75243 51282
L75262 51263
L75243 51244
L75243 51282
" />
<path d="M75374 51375
L75524 51375
" />
<path d="M75430 51244
L75430 51582
L75449 51619
L75487 51638
L75524 51638
" />
<path d="M75824 51619
L75787 51638
L75712 51638
L75674 51619
L75655 51600
L75637 51563
L75637 51450
L75655 51413
L75674 51394
L75712 51375
L75787 51375
L75824 51394
" />
<path d="M75993 51638
L75993 51244
" />
<path d="M76162 51638
L76162 51432
L76143 51394
L76105 51375
L76049 51375
L76012 51394
L75993 51413
" />
<text x="74317.3" y="50042.9"
textLength="1276.62" font-size="524.934" lengthAdjust="spacingAndGlyphs"
text-anchor="middle" opacity="0">SW2</text>
<path d="M73792 50005
L73848 50024
L73942 50024
L73979 50005
L73998 49986
L74017 49949
L74017 49911
L73998 49874
L73979 49855
L73942 49836
L73867 49817
L73829 49799
L73811 49780
L73792 49742
L73792 49705
L73811 49667
L73829 49649
L73867 49630
L73961 49630
L74017 49649
" />
<path d="M74148 49630
L74242 50024
L74317 49742
L74392 50024
L74486 49630
" />
<path d="M74617 49667
L74636 49649
L74673 49630
L74767 49630
L74804 49649
L74823 49667
L74842 49705
L74842 49742
L74823 49799
L74598 50024
L74842 50024
" />
<text x="72900" y="41657.1"
textLength="6788.43" font-size="524.934" lengthAdjust="spacingAndGlyphs"
text-anchor="middle" opacity="0">Rotary_Encoder_Switch</text>
<path d="M69862 41638
L69731 41450
" />
<path d="M69637 41638
L69637 41244
L69787 41244
L69825 41263
L69844 41282
L69862 41319
L69862 41375
L69844 41413
L69825 41432
L69787 41450
L69637 41450
" />
<path d="M70087 41638
L70050 41619
L70031 41600
L70012 41563
L70012 41450
L70031 41413
L70050 41394
L70087 41375
L70144 41375
L70181 41394
L70200 41413
L70219 41450
L70219 41563
L70200 41600
L70181 41619
L70144 41638
L70087 41638
" />
<path d="M70331 41375
L70481 41375
" />
<path d="M70387 41244
L70387 41582
L70406 41619
L70444 41638
L70481 41638
" />
<path d="M70781 41638
L70781 41432
L70762 41394
L70725 41375
L70650 41375
L70612 41394
" />
<path d="M70781 41619
L70744 41638
L70650 41638
L70612 41619
L70594 41582
L70594 41544
L70612 41507
L70650 41488
L70744 41488
L70781 41469
" />
<path d="M70968 41638
L70968 41375
" />
<path d="M70968 41450
L70987 41413
L71006 41394
L71043 41375
L71081 41375
" />
<path d="M71175 41375
L71268 41638
" />
<path d="M71362 41375
L71268 41638
L71231 41732
L71212 41750
L71175 41769
" />
<path d="M71418 41675
L71718 41675
" />
<path d="M71812 41432
L71943 41432
" />
<path d="M72000 41638
L71812 41638
L71812 41244
L72000 41244
" />
<path d="M72168 41375
L72168 41638
" />
<path d="M72168 41413
L72187 41394
L72225 41375
L72281 41375
L72318 41394
L72337 41432
L72337 41638
" />
<path d="M72693 41619
L72656 41638
L72581 41638
L72543 41619
L72525 41600
L72506 41563
L72506 41450
L72525 41413
L72543 41394
L72581 41375
L72656 41375
L72693 41394
" />
<path d="M72918 41638
L72881 41619
L72862 41600
L72843 41563
L72843 41450
L72862 41413
L72881 41394
L72918 41375
L72974 41375
L73012 41394
L73031 41413
L73049 41450
L73049 41563
L73031 41600
L73012 41619
L72974 41638
L72918 41638
" />
<path d="M73387 41638
L73387 41244
" />
<path d="M73387 41619
L73349 41638
L73274 41638
L73237 41619
L73218 41600
L73199 41563
L73199 41450
L73218 41413
L73237 41394
L73274 41375
L73349 41375
L73387 41394
" />
<path d="M73724 41619
L73687 41638
L73612 41638
L73574 41619
L73556 41582
L73556 41432
L73574 41394
L73612 41375
L73687 41375
L73724 41394
L73743 41432
L73743 41469
L73556 41507
" />
<path d="M73912 41638
L73912 41375
" />
<path d="M73912 41450
L73931 41413
L73949 41394
L73987 41375
L74024 41375
" />
<path d="M74062 41675
L74362 41675
" />
<path d="M74437 41619
L74493 41638
L74587 41638
L74624 41619
L74643 41600
L74662 41563
L74662 41525
L74643 41488
L74624 41469
L74587 41450
L74512 41432
L74474 41413
L74456 41394
L74437 41357
L74437 41319
L74456 41282
L74474 41263
L74512 41244
L74606 41244
L74662 41263
" />
<path d="M74793 41375
L74868 41638
L74943 41450
L75018 41638
L75093 41375
" />
<path d="M75243 41638
L75243 41375
" />
<path d="M75243 41244
L75224 41263
L75243 41282
L75262 41263
L75243 41244
L75243 41282
" />
<path d="M75374 41375
L75524 41375
" />
<path d="M75430 41244
L75430 41582
L75449 41619
L75487 41638
L75524 41638
" />
<path d="M75824 41619
L75787 41638
L75712 41638
L75674 41619
L75655 41600
L75637 41563
L75637 41450
L75655 41413
L75674 41394
L75712 41375
L75787 41375
L75824 41394
" />
<path d="M75993 41638
L75993 41244
" />
<path d="M76162 41638
L76162 41432
L76143 41394
L76105 41375
L76049 41375
L76012 41394
L75993 41413
" />
<text x="74317.3" y="40042.9"
textLength="1276.62" font-size="524.934" lengthAdjust="spacingAndGlyphs"
text-anchor="middle" opacity="0">SW1</text>
<path d="M73792 40005
L73848 40024
L73942 40024
L73979 40005
L73998 39986
L74017 39949
L74017 39911
L73998 39874
L73979 39855
L73942 39836
L73867 39817
L73829 39799
L73811 39780
L73792 39742
L73792 39705
L73811 39667
L73829 39649
L73867 39630
L73961 39630
L74017 39649
" />
<path d="M74148 39630
L74242 40024
L74317 39742
L74392 40024
L74486 39630
" />
<path d="M74842 40024
L74617 40024
" />
<path d="M74729 40024
L74729 39630
L74692 39686
L74654 39724
L74617 39742
" />
<g >
</g>
</g>
<g style="fill:#000000; fill-opacity:0.0; 
stroke:#000000; stroke-width:59.0551; stroke-opacity:1; 
stroke-linecap:round; stroke-linejoin:round;">
</g>
<g style="fill:#C2C200; fill-opacity:0.0; 
stroke:#C2C200; stroke-width:59.0551; stroke-opacity:1; 
stroke-linecap:round; stroke-linejoin:round;">
</g>
<g style="fill:#C2C200; fill-opacity:0.0; 
stroke:#C2C200; stroke-width:19.685; stroke-opacity:1; 
stroke-linecap:round; stroke-linejoin:round;">
<path d="M35625 11562
L78750 11562
" />
<path d="M79062.5 11875 A312.5 312.5 0.0 0 0 78750 11562.5" />
<path d="M35312 63750
L35312 11875
" />
<path d="M35312.5 63750 A312.5 312.5 0.0 0 0 35625 64062.5" />
<path d="M78750 64062.5 A312.5 312.5 0.0 0 0 79062.5 63750" />
<path d="M35625 11562.5 A312.5 312.5 0.0 0 0 35312.5 11875" />
<path d="M35625 64062
L78750 64062
" />
<path d="M79062 11875
L79062 63750
" />
<g >
</g>
<g >
</g>
<g >
</g>
<g >
</g>
<g >
</g>
<g >
</g>
<g >
</g>
<g >
</g>
<g >
</g>
<g >
</g>
<g >
</g>
<g >
</g>
<g >
</g>
<g >
</g>
<g >
</g>
<g >
</g>
<g >
</g>
<g >
</g>
<g >
</g>
<g >
</g>
<g >
</g>
<g >
</g>
<g >
</g>
<g >
</g>
<g >
</g>
<g >
</g>
<g >
</g>
<g >
</g>
<g >
</g>
<g >
</g>
<g >
</g>
<g >
</g>
<g >
</g>
<g >
</g>
<g >
</g>
<g >
</g>
<g >
</g>
<g >
</g>
<g >
</g>
<g >
</g>
<g >
</g>
<g >
</g>
<g >
</g>
<g >
</g>
<g >
</g>
<g >
</g>
<g >
</g>
<g >
</g>
<g >
</g>
<g >
</g>
<g >
</g>
<g >
</g>
<g >
</g>
<g >
</g>
<g >
</g>
<g >
</g>
<g >
</g>
<g >
</g>
<g >
</g>
<g >
</g>
<g >
</g>
<g >
</g>
<g >
</g>
<g >
</g>
<g >
</g>
<g >
</g>
<g >
</g>
<g >
</g>
<g >
</g>
<g >
</g>
<g >
</g>
<g >
</g>
<g >
</g>
<g >
</g>
<g >
</g>
<g >
</g>
<g >
</g>
<g >
</g>
</g> 
</svg>
