  0
SECTION
  2
HEADER
  9
$ANGBASE
  50
0.0
  9
$ANGDIR
  70
1
  9
$MEASUREMENT
  70
1
  0
ENDSEC
  0
SECTION
  2
TABLES
  0
TABLE
  2
LTYPE
  70
4
  0
LTYPE
  5
40F
  2
CONTINUOUS
  70
0
  3
Solid line
  72
65
  73
0
  40
0.0
  0
LTYPE
  5
410
  2
DASHDOT
 70
0
  3
Dash Dot ____ _ ____ _
 72
65
 73
4
 40
2.0
 49
1.25
 49
-0.25
 49
0.25
 49
-0.25
  0
LTYPE
  5
411
  2
DASHED
 70
0
  3
Dashed __ __ __ __ __
 72
65
 73
2
 40
0.75
 49
0.5
 49
-0.25
  0
LTYPE
  5
43B
  2
DOTTED
 70
0
  3
Dotted .  .  .  .
 72
65
 73
2
 40
0.2
 49
0.0
 49
-0.2
  0
ENDTAB
  0
TABLE
  2
STYLE
  70
4
  0
STYLE
  2
KICAD
  70
0
  40
0
  41
1
  42
1
  50
0
  71
0
  3
isocp.shx
  0
STYLE
  2
KICADB
  70
0
  40
0
  41
1
  42
1
  50
0
  71
0
  3
isocp.shx
  0
STYLE
  2
KICADI
  70
0
  40
0
  41
1
  42
1
  50
15
  71
0
  3
isocp.shx
  0
STYLE
  2
KICADBI
  70
0
  40
0
  41
1
  42
1
  50
15
  71
0
  3
isocp.shx
  0
ENDTAB
  0
TABLE
  2
LAYER
  70
1
  0
LAYER
  2
BLACK
  70
0
  62
7
  6
CONTINUOUS
  0
ENDTAB
  0
ENDSEC
  0
SECTION
  2
ENTITIES
0
LINE
8
BLACK
6
CONTINUOUS
10
200.182
20
-29.359
11
200.184
21
-29.3595
0
LINE
8
BLACK
6
CONTINUOUS
10
200.184
20
-29.3595
11
200.186
21
-29.3599
0
LINE
8
BLACK
6
CONTINUOUS
10
200.186
20
-29.3599
11
200.335
21
-29.4047
0
LINE
8
BLACK
6
CONTINUOUS
10
200.335
20
-29.4047
11
200.335
21
-29.4048
0
LINE
8
BLACK
6
CONTINUOUS
10
200.335
20
-29.4048
11
200.337
21
-29.4057
0
LINE
8
BLACK
6
CONTINUOUS
10
200.337
20
-29.4057
11
200.339
21
-29.4066
0
LINE
8
BLACK
6
CONTINUOUS
10
200.339
20
-29.4066
11
200.476
21
-29.4793
0
LINE
8
BLACK
6
CONTINUOUS
10
200.476
20
-29.4793
11
200.476
21
-29.4795
0
LINE
8
BLACK
6
CONTINUOUS
10
200.476
20
-29.4795
11
200.478
21
-29.4807
0
LINE
8
BLACK
6
CONTINUOUS
10
200.478
20
-29.4807
11
200.48
21
-29.482
0
LINE
8
BLACK
6
CONTINUOUS
10
200.48
20
-29.482
11
200.6
21
-29.5799
0
LINE
8
BLACK
6
CONTINUOUS
10
200.6
20
-29.5799
11
200.6
21
-29.5801
0
LINE
8
BLACK
6
CONTINUOUS
10
200.6
20
-29.5801
11
200.602
21
-29.5817
0
LINE
8
BLACK
6
CONTINUOUS
10
200.602
20
-29.5817
11
200.604
21
-29.5833
0
LINE
8
BLACK
6
CONTINUOUS
10
200.604
20
-29.5833
11
200.702
21
-29.7027
0
LINE
8
BLACK
6
CONTINUOUS
10
200.702
20
-29.7027
11
200.703
21
-29.703
0
LINE
8
BLACK
6
CONTINUOUS
10
200.703
20
-29.703
11
200.704
21
-29.7049
0
LINE
8
BLACK
6
CONTINUOUS
10
200.704
20
-29.7049
11
200.705
21
-29.7067
0
LINE
8
BLACK
6
CONTINUOUS
10
200.705
20
-29.7067
11
200.779
21
-29.843
0
LINE
8
BLACK
6
CONTINUOUS
10
200.779
20
-29.843
11
200.779
21
-29.843
0
LINE
8
BLACK
6
CONTINUOUS
10
200.779
20
-29.843
11
200.779
21
-29.843
0
LINE
8
BLACK
6
CONTINUOUS
10
200.779
20
-29.843
11
200.779
21
-29.8433
0
LINE
8
BLACK
6
CONTINUOUS
10
200.779
20
-29.8433
11
200.78
21
-29.8454
0
LINE
8
BLACK
6
CONTINUOUS
10
200.78
20
-29.8454
11
200.781
21
-29.8475
0
LINE
8
BLACK
6
CONTINUOUS
10
200.781
20
-29.8475
11
200.826
21
-29.9955
0
LINE
8
BLACK
6
CONTINUOUS
10
200.826
20
-29.9955
11
200.827
21
-29.9958
0
LINE
8
BLACK
6
CONTINUOUS
10
200.827
20
-29.9958
11
200.827
21
-29.9981
0
LINE
8
BLACK
6
CONTINUOUS
10
200.827
20
-29.9981
11
200.827
21
-30.0003
0
LINE
8
BLACK
6
CONTINUOUS
10
200.827
20
-30.0003
11
200.844
21
-30.1543
0
LINE
8
BLACK
6
CONTINUOUS
10
200.844
20
-30.1543
11
200.844
21
-30.1547
0
LINE
8
BLACK
6
CONTINUOUS
10
200.844
20
-30.1547
11
200.844
21
-30.1558
0
LINE
8
BLACK
6
CONTINUOUS
10
200.844
20
-30.1558
11
200.844
21
-30.1569
0
LINE
8
BLACK
6
CONTINUOUS
10
200.844
20
-30.1569
11
200.844
21
-30.1612
0
LINE
8
BLACK
6
CONTINUOUS
10
200.844
20
-30.1612
11
200.844
21
-30.1613
0
LINE
8
BLACK
6
CONTINUOUS
10
200.844
20
-30.1613
11
200.844
21
-161.926
0
LINE
8
BLACK
6
CONTINUOUS
10
200.844
20
-161.926
11
200.844
21
-161.927
0
LINE
8
BLACK
6
CONTINUOUS
10
200.844
20
-161.927
11
200.844
21
-161.927
0
LINE
8
BLACK
6
CONTINUOUS
10
200.844
20
-161.927
11
200.829
21
-162.082
0
LINE
8
BLACK
6
CONTINUOUS
10
200.829
20
-162.082
11
200.828
21
-162.082
0
LINE
8
BLACK
6
CONTINUOUS
10
200.828
20
-162.082
11
200.828
21
-162.084
0
LINE
8
BLACK
6
CONTINUOUS
10
200.828
20
-162.084
11
200.828
21
-162.086
0
LINE
8
BLACK
6
CONTINUOUS
10
200.828
20
-162.086
11
200.783
21
-162.235
0
LINE
8
BLACK
6
CONTINUOUS
10
200.783
20
-162.235
11
200.783
21
-162.235
0
LINE
8
BLACK
6
CONTINUOUS
10
200.783
20
-162.235
11
200.782
21
-162.237
0
LINE
8
BLACK
6
CONTINUOUS
10
200.782
20
-162.237
11
200.781
21
-162.239
0
LINE
8
BLACK
6
CONTINUOUS
10
200.781
20
-162.239
11
200.708
21
-162.376
0
LINE
8
BLACK
6
CONTINUOUS
10
200.708
20
-162.376
11
200.708
21
-162.376
0
LINE
8
BLACK
6
CONTINUOUS
10
200.708
20
-162.376
11
200.707
21
-162.378
0
LINE
8
BLACK
6
CONTINUOUS
10
200.707
20
-162.378
11
200.706
21
-162.38
0
LINE
8
BLACK
6
CONTINUOUS
10
200.706
20
-162.38
11
200.608
21
-162.5
0
LINE
8
BLACK
6
CONTINUOUS
10
200.608
20
-162.5
11
200.607
21
-162.5
0
LINE
8
BLACK
6
CONTINUOUS
10
200.607
20
-162.5
11
200.606
21
-162.502
0
LINE
8
BLACK
6
CONTINUOUS
10
200.606
20
-162.502
11
200.604
21
-162.504
0
LINE
8
BLACK
6
CONTINUOUS
10
200.604
20
-162.504
11
200.485
21
-162.602
0
LINE
8
BLACK
6
CONTINUOUS
10
200.485
20
-162.602
11
200.485
21
-162.603
0
LINE
8
BLACK
6
CONTINUOUS
10
200.485
20
-162.603
11
200.483
21
-162.604
0
LINE
8
BLACK
6
CONTINUOUS
10
200.483
20
-162.604
11
200.481
21
-162.605
0
LINE
8
BLACK
6
CONTINUOUS
10
200.481
20
-162.605
11
200.344
21
-162.679
0
LINE
8
BLACK
6
CONTINUOUS
10
200.344
20
-162.679
11
200.344
21
-162.679
0
LINE
8
BLACK
6
CONTINUOUS
10
200.344
20
-162.679
11
200.342
21
-162.68
0
LINE
8
BLACK
6
CONTINUOUS
10
200.342
20
-162.68
11
200.34
21
-162.681
0
LINE
8
BLACK
6
CONTINUOUS
10
200.34
20
-162.681
11
200.192
21
-162.726
0
LINE
8
BLACK
6
CONTINUOUS
10
200.192
20
-162.726
11
200.192
21
-162.727
0
LINE
8
BLACK
6
CONTINUOUS
10
200.192
20
-162.727
11
200.189
21
-162.727
0
LINE
8
BLACK
6
CONTINUOUS
10
200.189
20
-162.727
11
200.187
21
-162.727
0
LINE
8
BLACK
6
CONTINUOUS
10
200.187
20
-162.727
11
200.033
21
-162.744
0
LINE
8
BLACK
6
CONTINUOUS
10
200.033
20
-162.744
11
200.033
21
-162.744
0
LINE
8
BLACK
6
CONTINUOUS
10
200.033
20
-162.744
11
200.032
21
-162.744
0
LINE
8
BLACK
6
CONTINUOUS
10
200.032
20
-162.744
11
200.031
21
-162.744
0
LINE
8
BLACK
6
CONTINUOUS
10
200.031
20
-162.744
11
200.026
21
-162.744
0
LINE
8
BLACK
6
CONTINUOUS
10
200.026
20
-162.744
11
200.026
21
-162.744
0
LINE
8
BLACK
6
CONTINUOUS
10
200.026
20
-162.744
11
90.4863
21
-162.744
0
LINE
8
BLACK
6
CONTINUOUS
10
90.4863
20
-162.744
11
90.4851
21
-162.744
0
LINE
8
BLACK
6
CONTINUOUS
10
90.4851
20
-162.744
11
90.4851
21
-162.744
0
LINE
8
BLACK
6
CONTINUOUS
10
90.4851
20
-162.744
11
90.3309
21
-162.729
0
LINE
8
BLACK
6
CONTINUOUS
10
90.3309
20
-162.729
11
90.3305
21
-162.728
0
LINE
8
BLACK
6
CONTINUOUS
10
90.3305
20
-162.728
11
90.3283
21
-162.728
0
LINE
8
BLACK
6
CONTINUOUS
10
90.3283
20
-162.728
11
90.3261
21
-162.728
0
LINE
8
BLACK
6
CONTINUOUS
10
90.3261
20
-162.728
11
90.1778
21
-162.683
0
LINE
8
BLACK
6
CONTINUOUS
10
90.1778
20
-162.683
11
90.1775
21
-162.683
0
LINE
8
BLACK
6
CONTINUOUS
10
90.1775
20
-162.683
11
90.1754
21
-162.682
0
LINE
8
BLACK
6
CONTINUOUS
10
90.1754
20
-162.682
11
90.1733
21
-162.681
0
LINE
8
BLACK
6
CONTINUOUS
10
90.1733
20
-162.681
11
90.0365
21
-162.608
0
LINE
8
BLACK
6
CONTINUOUS
10
90.0365
20
-162.608
11
90.0362
21
-162.608
0
LINE
8
BLACK
6
CONTINUOUS
10
90.0362
20
-162.608
11
90.0343
21
-162.607
0
LINE
8
BLACK
6
CONTINUOUS
10
90.0343
20
-162.607
11
90.0324
21
-162.606
0
LINE
8
BLACK
6
CONTINUOUS
10
90.0324
20
-162.606
11
89.9124
21
-162.508
0
LINE
8
BLACK
6
CONTINUOUS
10
89.9124
20
-162.508
11
89.9121
21
-162.507
0
LINE
8
BLACK
6
CONTINUOUS
10
89.9121
20
-162.507
11
89.9106
21
-162.506
0
LINE
8
BLACK
6
CONTINUOUS
10
89.9106
20
-162.506
11
89.9089
21
-162.504
0
LINE
8
BLACK
6
CONTINUOUS
10
89.9089
20
-162.504
11
89.8102
21
-162.385
0
LINE
8
BLACK
6
CONTINUOUS
10
89.8102
20
-162.385
11
89.81
21
-162.385
0
LINE
8
BLACK
6
CONTINUOUS
10
89.81
20
-162.385
11
89.8087
21
-162.383
0
LINE
8
BLACK
6
CONTINUOUS
10
89.8087
20
-162.383
11
89.8075
21
-162.381
0
LINE
8
BLACK
6
CONTINUOUS
10
89.8075
20
-162.381
11
89.7338
21
-162.244
0
LINE
8
BLACK
6
CONTINUOUS
10
89.7338
20
-162.244
11
89.7336
21
-162.244
0
LINE
8
BLACK
6
CONTINUOUS
10
89.7336
20
-162.244
11
89.7328
21
-162.242
0
LINE
8
BLACK
6
CONTINUOUS
10
89.7328
20
-162.242
11
89.7319
21
-162.24
0
LINE
8
BLACK
6
CONTINUOUS
10
89.7319
20
-162.24
11
89.6861
21
-162.092
0
LINE
8
BLACK
6
CONTINUOUS
10
89.6861
20
-162.092
11
89.686
21
-162.092
0
LINE
8
BLACK
6
CONTINUOUS
10
89.686
20
-162.092
11
89.6856
21
-162.089
0
LINE
8
BLACK
6
CONTINUOUS
10
89.6856
20
-162.089
11
89.6851
21
-162.087
0
LINE
8
BLACK
6
CONTINUOUS
10
89.6851
20
-162.087
11
89.6689
21
-161.933
0
LINE
8
BLACK
6
CONTINUOUS
10
89.6689
20
-161.933
11
89.6689
21
-161.933
0
LINE
8
BLACK
6
CONTINUOUS
10
89.6689
20
-161.933
11
89.6689
21
-161.932
0
LINE
8
BLACK
6
CONTINUOUS
10
89.6689
20
-161.932
11
89.6688
21
-161.931
0
LINE
8
BLACK
6
CONTINUOUS
10
89.6688
20
-161.931
11
89.6688
21
-161.926
0
LINE
8
BLACK
6
CONTINUOUS
10
89.6688
20
-161.926
11
89.6688
21
-161.926
0
LINE
8
BLACK
6
CONTINUOUS
10
89.6688
20
-161.926
11
89.6688
21
-30.1613
0
LINE
8
BLACK
6
CONTINUOUS
10
89.6688
20
-30.1613
11
89.6689
21
-30.1601
0
LINE
8
BLACK
6
CONTINUOUS
10
89.6689
20
-30.1601
11
89.6689
21
-30.1601
0
LINE
8
BLACK
6
CONTINUOUS
10
89.6689
20
-30.1601
11
89.684
21
-30.0059
0
LINE
8
BLACK
6
CONTINUOUS
10
89.684
20
-30.0059
11
89.684
21
-30.0055
0
LINE
8
BLACK
6
CONTINUOUS
10
89.684
20
-30.0055
11
89.6845
21
-30.0033
0
LINE
8
BLACK
6
CONTINUOUS
10
89.6845
20
-30.0033
11
89.6849
21
-30.0011
0
LINE
8
BLACK
6
CONTINUOUS
10
89.6849
20
-30.0011
11
89.7297
21
-29.8528
0
LINE
8
BLACK
6
CONTINUOUS
10
89.7297
20
-29.8528
11
89.7298
21
-29.8525
0
LINE
8
BLACK
6
CONTINUOUS
10
89.7298
20
-29.8525
11
89.7307
21
-29.8504
0
LINE
8
BLACK
6
CONTINUOUS
10
89.7307
20
-29.8504
11
89.7316
21
-29.8483
0
LINE
8
BLACK
6
CONTINUOUS
10
89.7316
20
-29.8483
11
89.8043
21
-29.7115
0
LINE
8
BLACK
6
CONTINUOUS
10
89.8043
20
-29.7115
11
89.8045
21
-29.7112
0
LINE
8
BLACK
6
CONTINUOUS
10
89.8045
20
-29.7112
11
89.8057
21
-29.7093
0
LINE
8
BLACK
6
CONTINUOUS
10
89.8057
20
-29.7093
11
89.807
21
-29.7074
0
LINE
8
BLACK
6
CONTINUOUS
10
89.807
20
-29.7074
11
89.9049
21
-29.5874
0
LINE
8
BLACK
6
CONTINUOUS
10
89.9049
20
-29.5874
11
89.9051
21
-29.5871
0
LINE
8
BLACK
6
CONTINUOUS
10
89.9051
20
-29.5871
11
89.9067
21
-29.5856
0
LINE
8
BLACK
6
CONTINUOUS
10
89.9067
20
-29.5856
11
89.9083
21
-29.5839
0
LINE
8
BLACK
6
CONTINUOUS
10
89.9083
20
-29.5839
11
90.0277
21
-29.4852
0
LINE
8
BLACK
6
CONTINUOUS
10
90.0277
20
-29.4852
11
90.028
21
-29.485
0
LINE
8
BLACK
6
CONTINUOUS
10
90.028
20
-29.485
11
90.0299
21
-29.4837
0
LINE
8
BLACK
6
CONTINUOUS
10
90.0299
20
-29.4837
11
90.0318
21
-29.4825
0
LINE
8
BLACK
6
CONTINUOUS
10
90.0318
20
-29.4825
11
90.168
21
-29.4088
0
LINE
8
BLACK
6
CONTINUOUS
10
90.168
20
-29.4088
11
90.168
21
-29.4088
0
LINE
8
BLACK
6
CONTINUOUS
10
90.168
20
-29.4088
11
90.168
21
-29.4088
0
LINE
8
BLACK
6
CONTINUOUS
10
90.168
20
-29.4088
11
90.1683
21
-29.4086
0
LINE
8
BLACK
6
CONTINUOUS
10
90.1683
20
-29.4086
11
90.1704
21
-29.4078
0
LINE
8
BLACK
6
CONTINUOUS
10
90.1704
20
-29.4078
11
90.1725
21
-29.4069
0
LINE
8
BLACK
6
CONTINUOUS
10
90.1725
20
-29.4069
11
90.3205
21
-29.3611
0
LINE
8
BLACK
6
CONTINUOUS
10
90.3205
20
-29.3611
11
90.3208
21
-29.361
0
LINE
8
BLACK
6
CONTINUOUS
10
90.3208
20
-29.361
11
90.3231
21
-29.3606
0
LINE
8
BLACK
6
CONTINUOUS
10
90.3231
20
-29.3606
11
90.3253
21
-29.3601
0
LINE
8
BLACK
6
CONTINUOUS
10
90.3253
20
-29.3601
11
90.4793
21
-29.3439
0
LINE
8
BLACK
6
CONTINUOUS
10
90.4793
20
-29.3439
11
90.4797
21
-29.3439
0
LINE
8
BLACK
6
CONTINUOUS
10
90.4797
20
-29.3439
11
90.4808
21
-29.3439
0
LINE
8
BLACK
6
CONTINUOUS
10
90.4808
20
-29.3439
11
90.4819
21
-29.3438
0
LINE
8
BLACK
6
CONTINUOUS
10
90.4819
20
-29.3438
11
90.4862
21
-29.3438
0
LINE
8
BLACK
6
CONTINUOUS
10
90.4862
20
-29.3438
11
90.4863
21
-29.3438
0
LINE
8
BLACK
6
CONTINUOUS
10
90.4863
20
-29.3438
11
200.026
21
-29.3438
0
LINE
8
BLACK
6
CONTINUOUS
10
200.026
20
-29.3438
11
200.027
21
-29.3439
0
LINE
8
BLACK
6
CONTINUOUS
10
200.027
20
-29.3439
11
200.027
21
-29.3439
0
LINE
8
BLACK
6
CONTINUOUS
10
200.027
20
-29.3439
11
200.182
21
-29.359
0
LINE
8
BLACK
6
CONTINUOUS
10
200.182
20
-29.359
11
200.182
21
-29.359
0
LINE
8
BLACK
6
CONTINUOUS
10
200.182
20
-29.359
11
200.182
21
-29.359
0
LINE
8
BLACK
6
CONTINUOUS
10
90.4876
20
-29.3937
11
90.4833
21
-29.3938
0
LINE
8
BLACK
6
CONTINUOUS
10
90.4833
20
-29.3938
11
90.3329
21
-29.4096
0
LINE
8
BLACK
6
CONTINUOUS
10
90.3329
20
-29.4096
11
90.1896
21
-29.4539
0
LINE
8
BLACK
6
CONTINUOUS
10
90.1896
20
-29.4539
11
90.0577
21
-29.5253
0
LINE
8
BLACK
6
CONTINUOUS
10
90.0577
20
-29.5253
11
89.9421
21
-29.6209
0
LINE
8
BLACK
6
CONTINUOUS
10
89.9421
20
-29.6209
11
89.8473
21
-29.7371
0
LINE
8
BLACK
6
CONTINUOUS
10
89.8473
20
-29.7371
11
89.7769
21
-29.8696
0
LINE
8
BLACK
6
CONTINUOUS
10
89.7769
20
-29.8696
11
89.7335
21
-30.0132
0
LINE
8
BLACK
6
CONTINUOUS
10
89.7335
20
-30.0132
11
89.7188
21
-30.1637
0
LINE
8
BLACK
6
CONTINUOUS
10
89.7188
20
-30.1637
11
89.7188
21
-161.925
0
LINE
8
BLACK
6
CONTINUOUS
10
89.7188
20
-161.925
11
89.7188
21
-161.929
0
LINE
8
BLACK
6
CONTINUOUS
10
89.7188
20
-161.929
11
89.7346
21
-162.08
0
LINE
8
BLACK
6
CONTINUOUS
10
89.7346
20
-162.08
11
89.7789
21
-162.223
0
LINE
8
BLACK
6
CONTINUOUS
10
89.7789
20
-162.223
11
89.8503
21
-162.355
0
LINE
8
BLACK
6
CONTINUOUS
10
89.8503
20
-162.355
11
89.9459
21
-162.47
0
LINE
8
BLACK
6
CONTINUOUS
10
89.9459
20
-162.47
11
90.0621
21
-162.565
0
LINE
8
BLACK
6
CONTINUOUS
10
90.0621
20
-162.565
11
90.1946
21
-162.636
0
LINE
8
BLACK
6
CONTINUOUS
10
90.1946
20
-162.636
11
90.3382
21
-162.679
0
LINE
8
BLACK
6
CONTINUOUS
10
90.3382
20
-162.679
11
90.4887
21
-162.694
0
LINE
8
BLACK
6
CONTINUOUS
10
90.4887
20
-162.694
11
200.025
21
-162.694
0
LINE
8
BLACK
6
CONTINUOUS
10
200.025
20
-162.694
11
200.029
21
-162.694
0
LINE
8
BLACK
6
CONTINUOUS
10
200.029
20
-162.694
11
200.18
21
-162.678
0
LINE
8
BLACK
6
CONTINUOUS
10
200.18
20
-162.678
11
200.323
21
-162.634
0
LINE
8
BLACK
6
CONTINUOUS
10
200.323
20
-162.634
11
200.455
21
-162.562
0
LINE
8
BLACK
6
CONTINUOUS
10
200.455
20
-162.562
11
200.57
21
-162.467
0
LINE
8
BLACK
6
CONTINUOUS
10
200.57
20
-162.467
11
200.665
21
-162.35
0
LINE
8
BLACK
6
CONTINUOUS
10
200.665
20
-162.35
11
200.736
21
-162.218
0
LINE
8
BLACK
6
CONTINUOUS
10
200.736
20
-162.218
11
200.779
21
-162.074
0
LINE
8
BLACK
6
CONTINUOUS
10
200.779
20
-162.074
11
200.794
21
-161.924
0
LINE
8
BLACK
6
CONTINUOUS
10
200.794
20
-161.924
11
200.794
21
-30.1626
0
LINE
8
BLACK
6
CONTINUOUS
10
200.794
20
-30.1626
11
200.794
21
-30.1583
0
LINE
8
BLACK
6
CONTINUOUS
10
200.794
20
-30.1583
11
200.778
21
-30.0079
0
LINE
8
BLACK
6
CONTINUOUS
10
200.778
20
-30.0079
11
200.734
21
-29.8646
0
LINE
8
BLACK
6
CONTINUOUS
10
200.734
20
-29.8646
11
200.662
21
-29.7327
0
LINE
8
BLACK
6
CONTINUOUS
10
200.662
20
-29.7327
11
200.567
21
-29.6171
0
LINE
8
BLACK
6
CONTINUOUS
10
200.567
20
-29.6171
11
200.45
21
-29.5223
0
LINE
8
BLACK
6
CONTINUOUS
10
200.45
20
-29.5223
11
200.318
21
-29.4519
0
LINE
8
BLACK
6
CONTINUOUS
10
200.318
20
-29.4519
11
200.174
21
-29.4085
0
LINE
8
BLACK
6
CONTINUOUS
10
200.174
20
-29.4085
11
200.024
21
-29.3937
0
LINE
8
BLACK
6
CONTINUOUS
10
200.024
20
-29.3937
11
90.4876
21
-29.3937
  0
ENDSEC
  0
EOF
