<?xml version="1.0" standalone="no"?>
 <!DOCTYPE svg PUBLIC "-//W3C//DTD SVG 1.1//EN" 
 "http://www.w3.org/Graphics/SVG/1.1/DTD/svg11.dtd"> 
<svg
  xmlns:svg="http://www.w3.org/2000/svg"
  xmlns="http://www.w3.org/2000/svg"
  xmlns:xlink="http://www.w3.org/1999/xlink"
  version="1.1"
  width="29.700220cm" height="21.000720cm" viewBox="0 0 116930 82680">
<title>SVG Picture created as EGPad-Dwgs_User.svg date 2021/11/12 18:10:15 </title>
  <desc>Picture generated by PCBNEW </desc>
<g style="fill:#000000; fill-opacity:1;stroke:#000000; stroke-opacity:1;
stroke-linecap:round; stroke-linejoin:round;"
 transform="translate(0 0) scale(1 1)">
</g>
<g style="fill:#000000; fill-opacity:0.0; 
stroke:#000000; stroke-width:-0.000393701; stroke-opacity:1; 
stroke-linecap:round; stroke-linejoin:round;">
</g>
<g style="fill:#000000; fill-opacity:0.0; 
stroke:#000000; stroke-width:39.3701; stroke-opacity:1; 
stroke-linecap:round; stroke-linejoin:round;">
</g>
<g style="fill:#000000; fill-opacity:0.0; 
stroke:#000000; stroke-width:59.0551; stroke-opacity:1; 
stroke-linecap:round; stroke-linejoin:round;">
<rect x="69685.9" y="65357.2" width="42519.7" height="12598.4" rx="0" />
</g>
<g style="fill:#000000; fill-opacity:0.0; 
stroke:#000000; stroke-width:39.3701; stroke-opacity:1; 
stroke-linecap:round; stroke-linejoin:round;">
</g>
<g style="fill:#000000; fill-opacity:0.0; 
stroke:#000000; stroke-width:59.0551; stroke-opacity:1; 
stroke-linecap:round; stroke-linejoin:round;">
<rect x="3937.01" y="3937.01" width="109056" height="74806" rx="0" />
</g>
<g style="fill:#000000; fill-opacity:0.0; 
stroke:#000000; stroke-width:39.3701; stroke-opacity:1; 
stroke-linecap:round; stroke-linejoin:round;">
</g>
<g style="fill:#000000; fill-opacity:0.0; 
stroke:#000000; stroke-width:59.0551; stroke-opacity:1; 
stroke-linecap:round; stroke-linejoin:round;">
<rect x="4724.41" y="4724.41" width="107481" height="73231.2" rx="0" />
</g>
<g style="fill:#000000; fill-opacity:0.0; 
stroke:#000000; stroke-width:39.3701; stroke-opacity:1; 
stroke-linecap:round; stroke-linejoin:round;">
</g>
<g style="fill:#000000; fill-opacity:0.0; 
stroke:#000000; stroke-width:59.0551; stroke-opacity:1; 
stroke-linecap:round; stroke-linejoin:round;">
<path d="M23622 4724
L23622 3937
" />
</g>
<g style="fill:#000000; fill-opacity:0.0; 
stroke:#000000; stroke-width:39.3701; stroke-opacity:1; 
stroke-linecap:round; stroke-linejoin:round;">
</g>
<g style="fill:#000000; fill-opacity:0.0; 
stroke:#000000; stroke-width:59.0551; stroke-opacity:1; 
stroke-linecap:round; stroke-linejoin:round;">
<path d="M43307 4724
L43307 3937
" />
</g>
<g style="fill:#000000; fill-opacity:0.0; 
stroke:#000000; stroke-width:39.3701; stroke-opacity:1; 
stroke-linecap:round; stroke-linejoin:round;">
</g>
<g style="fill:#000000; fill-opacity:0.0; 
stroke:#000000; stroke-width:59.0551; stroke-opacity:1; 
stroke-linecap:round; stroke-linejoin:round;">
<path d="M62992 4724
L62992 3937
" />
</g>
<g style="fill:#000000; fill-opacity:0.0; 
stroke:#000000; stroke-width:39.3701; stroke-opacity:1; 
stroke-linecap:round; stroke-linejoin:round;">
</g>
<g style="fill:#000000; fill-opacity:0.0; 
stroke:#000000; stroke-width:59.0551; stroke-opacity:1; 
stroke-linecap:round; stroke-linejoin:round;">
<path d="M82677 4724
L82677 3937
" />
</g>
<g style="fill:#000000; fill-opacity:0.0; 
stroke:#000000; stroke-width:39.3701; stroke-opacity:1; 
stroke-linecap:round; stroke-linejoin:round;">
</g>
<g style="fill:#000000; fill-opacity:0.0; 
stroke:#000000; stroke-width:59.0551; stroke-opacity:1; 
stroke-linecap:round; stroke-linejoin:round;">
<path d="M102362 4724
L102362 3937
" />
</g>
<g style="fill:#000000; fill-opacity:0.0; 
stroke:#000000; stroke-width:39.3701; stroke-opacity:1; 
stroke-linecap:round; stroke-linejoin:round;">
</g>
<g style="fill:#000000; fill-opacity:0.0; 
stroke:#000000; stroke-width:59.0551; stroke-opacity:1; 
stroke-linecap:round; stroke-linejoin:round;">
<text x="13779.5" y="4586.61"
textLength="546.494" font-size="682.415" lengthAdjust="spacingAndGlyphs"
text-anchor="start" opacity="0">1</text>
<path d="M14199 4562
L13906 4562
" />
<path d="M14052 4562
L14052 4050
L14004 4123
L13955 4172
L13906 4196
" />
</g>
<g style="fill:#000000; fill-opacity:0.0; 
stroke:#000000; stroke-width:39.3701; stroke-opacity:1; 
stroke-linecap:round; stroke-linejoin:round;">
</g>
<g style="fill:#000000; fill-opacity:0.0; 
stroke:#000000; stroke-width:59.0551; stroke-opacity:1; 
stroke-linecap:round; stroke-linejoin:round;">
<text x="33464.6" y="4586.61"
textLength="546.494" font-size="682.415" lengthAdjust="spacingAndGlyphs"
text-anchor="start" opacity="0">2</text>
<path d="M33591 4099
L33615 4074
L33664 4050
L33786 4050
L33835 4074
L33859 4099
L33884 4147
L33884 4196
L33859 4269
L33567 4562
L33884 4562
" />
</g>
<g style="fill:#000000; fill-opacity:0.0; 
stroke:#000000; stroke-width:39.3701; stroke-opacity:1; 
stroke-linecap:round; stroke-linejoin:round;">
</g>
<g style="fill:#000000; fill-opacity:0.0; 
stroke:#000000; stroke-width:59.0551; stroke-opacity:1; 
stroke-linecap:round; stroke-linejoin:round;">
<text x="53149.6" y="4586.61"
textLength="546.494" font-size="682.415" lengthAdjust="spacingAndGlyphs"
text-anchor="start" opacity="0">3</text>
<path d="M53252 4050
L53569 4050
L53398 4245
L53471 4245
L53520 4269
L53544 4294
L53569 4342
L53569 4464
L53544 4513
L53520 4537
L53471 4562
L53325 4562
L53276 4537
L53252 4513
" />
</g>
<g style="fill:#000000; fill-opacity:0.0; 
stroke:#000000; stroke-width:39.3701; stroke-opacity:1; 
stroke-linecap:round; stroke-linejoin:round;">
</g>
<g style="fill:#000000; fill-opacity:0.0; 
stroke:#000000; stroke-width:59.0551; stroke-opacity:1; 
stroke-linecap:round; stroke-linejoin:round;">
<text x="72834.6" y="4586.61"
textLength="546.494" font-size="682.415" lengthAdjust="spacingAndGlyphs"
text-anchor="start" opacity="0">4</text>
<path d="M73205 4221
L73205 4562
" />
<path d="M73083 4026
L72961 4391
L73278 4391
" />
</g>
<g style="fill:#000000; fill-opacity:0.0; 
stroke:#000000; stroke-width:39.3701; stroke-opacity:1; 
stroke-linecap:round; stroke-linejoin:round;">
</g>
<g style="fill:#000000; fill-opacity:0.0; 
stroke:#000000; stroke-width:59.0551; stroke-opacity:1; 
stroke-linecap:round; stroke-linejoin:round;">
<text x="92519.7" y="4586.61"
textLength="546.494" font-size="682.415" lengthAdjust="spacingAndGlyphs"
text-anchor="start" opacity="0">5</text>
<path d="M92914 4050
L92671 4050
L92646 4294
L92671 4269
L92719 4245
L92841 4245
L92890 4269
L92914 4294
L92939 4342
L92939 4464
L92914 4513
L92890 4537
L92841 4562
L92719 4562
L92671 4537
L92646 4513
" />
</g>
<g style="fill:#000000; fill-opacity:0.0; 
stroke:#000000; stroke-width:39.3701; stroke-opacity:1; 
stroke-linecap:round; stroke-linejoin:round;">
</g>
<g style="fill:#000000; fill-opacity:0.0; 
stroke:#000000; stroke-width:59.0551; stroke-opacity:1; 
stroke-linecap:round; stroke-linejoin:round;">
<text x="112205" y="4586.61"
textLength="546.494" font-size="682.415" lengthAdjust="spacingAndGlyphs"
text-anchor="start" opacity="0">6</text>
<path d="M112575 4050
L112477 4050
L112429 4074
L112404 4099
L112356 4172
L112331 4269
L112331 4464
L112356 4513
L112380 4537
L112429 4562
L112526 4562
L112575 4537
L112599 4513
L112624 4464
L112624 4342
L112599 4294
L112575 4269
L112526 4245
L112429 4245
L112380 4269
L112356 4294
L112331 4342
" />
</g>
<g style="fill:#000000; fill-opacity:0.0; 
stroke:#000000; stroke-width:39.3701; stroke-opacity:1; 
stroke-linecap:round; stroke-linejoin:round;">
</g>
<g style="fill:#000000; fill-opacity:0.0; 
stroke:#000000; stroke-width:59.0551; stroke-opacity:1; 
stroke-linecap:round; stroke-linejoin:round;">
<path d="M23622 77955
L23622 78742
" />
</g>
<g style="fill:#000000; fill-opacity:0.0; 
stroke:#000000; stroke-width:39.3701; stroke-opacity:1; 
stroke-linecap:round; stroke-linejoin:round;">
</g>
<g style="fill:#000000; fill-opacity:0.0; 
stroke:#000000; stroke-width:59.0551; stroke-opacity:1; 
stroke-linecap:round; stroke-linejoin:round;">
<path d="M43307 77955
L43307 78742
" />
</g>
<g style="fill:#000000; fill-opacity:0.0; 
stroke:#000000; stroke-width:39.3701; stroke-opacity:1; 
stroke-linecap:round; stroke-linejoin:round;">
</g>
<g style="fill:#000000; fill-opacity:0.0; 
stroke:#000000; stroke-width:59.0551; stroke-opacity:1; 
stroke-linecap:round; stroke-linejoin:round;">
<path d="M62992 77955
L62992 78742
" />
</g>
<g style="fill:#000000; fill-opacity:0.0; 
stroke:#000000; stroke-width:39.3701; stroke-opacity:1; 
stroke-linecap:round; stroke-linejoin:round;">
</g>
<g style="fill:#000000; fill-opacity:0.0; 
stroke:#000000; stroke-width:59.0551; stroke-opacity:1; 
stroke-linecap:round; stroke-linejoin:round;">
<path d="M82677 77955
L82677 78742
" />
</g>
<g style="fill:#000000; fill-opacity:0.0; 
stroke:#000000; stroke-width:39.3701; stroke-opacity:1; 
stroke-linecap:round; stroke-linejoin:round;">
</g>
<g style="fill:#000000; fill-opacity:0.0; 
stroke:#000000; stroke-width:59.0551; stroke-opacity:1; 
stroke-linecap:round; stroke-linejoin:round;">
<path d="M102362 77955
L102362 78742
" />
</g>
<g style="fill:#000000; fill-opacity:0.0; 
stroke:#000000; stroke-width:39.3701; stroke-opacity:1; 
stroke-linecap:round; stroke-linejoin:round;">
</g>
<g style="fill:#000000; fill-opacity:0.0; 
stroke:#000000; stroke-width:59.0551; stroke-opacity:1; 
stroke-linecap:round; stroke-linejoin:round;">
<text x="13779.5" y="78605.2"
textLength="546.494" font-size="682.415" lengthAdjust="spacingAndGlyphs"
text-anchor="start" opacity="0">1</text>
<path d="M14199 78580
L13906 78580
" />
<path d="M14052 78580
L14052 78069
L14004 78142
L13955 78190
L13906 78215
" />
</g>
<g style="fill:#000000; fill-opacity:0.0; 
stroke:#000000; stroke-width:39.3701; stroke-opacity:1; 
stroke-linecap:round; stroke-linejoin:round;">
</g>
<g style="fill:#000000; fill-opacity:0.0; 
stroke:#000000; stroke-width:59.0551; stroke-opacity:1; 
stroke-linecap:round; stroke-linejoin:round;">
<text x="33464.6" y="78605.2"
textLength="546.494" font-size="682.415" lengthAdjust="spacingAndGlyphs"
text-anchor="start" opacity="0">2</text>
<path d="M33591 78117
L33615 78093
L33664 78069
L33786 78069
L33835 78093
L33859 78117
L33884 78166
L33884 78215
L33859 78288
L33567 78580
L33884 78580
" />
</g>
<g style="fill:#000000; fill-opacity:0.0; 
stroke:#000000; stroke-width:39.3701; stroke-opacity:1; 
stroke-linecap:round; stroke-linejoin:round;">
</g>
<g style="fill:#000000; fill-opacity:0.0; 
stroke:#000000; stroke-width:59.0551; stroke-opacity:1; 
stroke-linecap:round; stroke-linejoin:round;">
<text x="53149.6" y="78605.2"
textLength="546.494" font-size="682.415" lengthAdjust="spacingAndGlyphs"
text-anchor="start" opacity="0">3</text>
<path d="M53252 78069
L53569 78069
L53398 78263
L53471 78263
L53520 78288
L53544 78312
L53569 78361
L53569 78483
L53544 78532
L53520 78556
L53471 78580
L53325 78580
L53276 78556
L53252 78532
" />
</g>
<g style="fill:#000000; fill-opacity:0.0; 
stroke:#000000; stroke-width:39.3701; stroke-opacity:1; 
stroke-linecap:round; stroke-linejoin:round;">
</g>
<g style="fill:#000000; fill-opacity:0.0; 
stroke:#000000; stroke-width:59.0551; stroke-opacity:1; 
stroke-linecap:round; stroke-linejoin:round;">
<text x="72834.6" y="78605.2"
textLength="546.494" font-size="682.415" lengthAdjust="spacingAndGlyphs"
text-anchor="start" opacity="0">4</text>
<path d="M73205 78239
L73205 78580
" />
<path d="M73083 78044
L72961 78410
L73278 78410
" />
</g>
<g style="fill:#000000; fill-opacity:0.0; 
stroke:#000000; stroke-width:39.3701; stroke-opacity:1; 
stroke-linecap:round; stroke-linejoin:round;">
</g>
<g style="fill:#000000; fill-opacity:0.0; 
stroke:#000000; stroke-width:59.0551; stroke-opacity:1; 
stroke-linecap:round; stroke-linejoin:round;">
<text x="92519.7" y="78605.2"
textLength="546.494" font-size="682.415" lengthAdjust="spacingAndGlyphs"
text-anchor="start" opacity="0">5</text>
<path d="M92914 78069
L92671 78069
L92646 78312
L92671 78288
L92719 78263
L92841 78263
L92890 78288
L92914 78312
L92939 78361
L92939 78483
L92914 78532
L92890 78556
L92841 78580
L92719 78580
L92671 78556
L92646 78532
" />
</g>
<g style="fill:#000000; fill-opacity:0.0; 
stroke:#000000; stroke-width:39.3701; stroke-opacity:1; 
stroke-linecap:round; stroke-linejoin:round;">
</g>
<g style="fill:#000000; fill-opacity:0.0; 
stroke:#000000; stroke-width:59.0551; stroke-opacity:1; 
stroke-linecap:round; stroke-linejoin:round;">
<text x="112205" y="78605.2"
textLength="546.494" font-size="682.415" lengthAdjust="spacingAndGlyphs"
text-anchor="start" opacity="0">6</text>
<path d="M112575 78069
L112477 78069
L112429 78093
L112404 78117
L112356 78190
L112331 78288
L112331 78483
L112356 78532
L112380 78556
L112429 78580
L112526 78580
L112575 78556
L112599 78532
L112624 78483
L112624 78361
L112599 78312
L112575 78288
L112526 78263
L112429 78263
L112380 78288
L112356 78312
L112331 78361
" />
</g>
<g style="fill:#000000; fill-opacity:0.0; 
stroke:#000000; stroke-width:39.3701; stroke-opacity:1; 
stroke-linecap:round; stroke-linejoin:round;">
</g>
<g style="fill:#000000; fill-opacity:0.0; 
stroke:#000000; stroke-width:59.0551; stroke-opacity:1; 
stroke-linecap:round; stroke-linejoin:round;">
<path d="M3937 23622
L4724 23622
" />
</g>
<g style="fill:#000000; fill-opacity:0.0; 
stroke:#000000; stroke-width:39.3701; stroke-opacity:1; 
stroke-linecap:round; stroke-linejoin:round;">
</g>
<g style="fill:#000000; fill-opacity:0.0; 
stroke:#000000; stroke-width:59.0551; stroke-opacity:1; 
stroke-linecap:round; stroke-linejoin:round;">
<path d="M3937 43307
L4724 43307
" />
</g>
<g style="fill:#000000; fill-opacity:0.0; 
stroke:#000000; stroke-width:39.3701; stroke-opacity:1; 
stroke-linecap:round; stroke-linejoin:round;">
</g>
<g style="fill:#000000; fill-opacity:0.0; 
stroke:#000000; stroke-width:59.0551; stroke-opacity:1; 
stroke-linecap:round; stroke-linejoin:round;">
<path d="M3937 62992
L4724 62992
" />
</g>
<g style="fill:#000000; fill-opacity:0.0; 
stroke:#000000; stroke-width:39.3701; stroke-opacity:1; 
stroke-linecap:round; stroke-linejoin:round;">
</g>
<g style="fill:#000000; fill-opacity:0.0; 
stroke:#000000; stroke-width:59.0551; stroke-opacity:1; 
stroke-linecap:round; stroke-linejoin:round;">
<text x="4330.71" y="14035.4"
textLength="497.75" font-size="682.415" lengthAdjust="spacingAndGlyphs"
text-anchor="middle" opacity="0">A</text>
<path d="M4208 13864
L4452 13864
" />
<path d="M4160 14011
L4330 13499
L4501 14011
" />
</g>
<g style="fill:#000000; fill-opacity:0.0; 
stroke:#000000; stroke-width:39.3701; stroke-opacity:1; 
stroke-linecap:round; stroke-linejoin:round;">
</g>
<g style="fill:#000000; fill-opacity:0.0; 
stroke:#000000; stroke-width:59.0551; stroke-opacity:1; 
stroke-linecap:round; stroke-linejoin:round;">
<text x="4330.71" y="33720.5"
textLength="570.866" font-size="682.415" lengthAdjust="spacingAndGlyphs"
text-anchor="middle" opacity="0">B</text>
<path d="M4367 33428
L4440 33452
L4464 33476
L4489 33525
L4489 33598
L4464 33647
L4440 33671
L4391 33696
L4196 33696
L4196 33184
L4367 33184
L4416 33208
L4440 33233
L4464 33281
L4464 33330
L4440 33379
L4416 33403
L4367 33428
L4196 33428
" />
</g>
<g style="fill:#000000; fill-opacity:0.0; 
stroke:#000000; stroke-width:39.3701; stroke-opacity:1; 
stroke-linecap:round; stroke-linejoin:round;">
</g>
<g style="fill:#000000; fill-opacity:0.0; 
stroke:#000000; stroke-width:59.0551; stroke-opacity:1; 
stroke-linecap:round; stroke-linejoin:round;">
<text x="4330.71" y="53405.5"
textLength="570.866" font-size="682.415" lengthAdjust="spacingAndGlyphs"
text-anchor="middle" opacity="0">C</text>
<path d="M4489 53332
L4464 53356
L4391 53381
L4342 53381
L4269 53356
L4221 53308
L4196 53259
L4172 53161
L4172 53088
L4196 52991
L4221 52942
L4269 52893
L4342 52869
L4391 52869
L4464 52893
L4489 52918
" />
</g>
<g style="fill:#000000; fill-opacity:0.0; 
stroke:#000000; stroke-width:39.3701; stroke-opacity:1; 
stroke-linecap:round; stroke-linejoin:round;">
</g>
<g style="fill:#000000; fill-opacity:0.0; 
stroke:#000000; stroke-width:59.0551; stroke-opacity:1; 
stroke-linecap:round; stroke-linejoin:round;">
<text x="4330.71" y="73090.6"
textLength="570.866" font-size="682.415" lengthAdjust="spacingAndGlyphs"
text-anchor="middle" opacity="0">D</text>
<path d="M4196 73066
L4196 72554
L4318 72554
L4391 72578
L4440 72627
L4464 72676
L4489 72773
L4489 72846
L4464 72944
L4440 72993
L4391 73041
L4318 73066
L4196 73066
" />
</g>
<g style="fill:#000000; fill-opacity:0.0; 
stroke:#000000; stroke-width:39.3701; stroke-opacity:1; 
stroke-linecap:round; stroke-linejoin:round;">
</g>
<g style="fill:#000000; fill-opacity:0.0; 
stroke:#000000; stroke-width:59.0551; stroke-opacity:1; 
stroke-linecap:round; stroke-linejoin:round;">
<path d="M112992 23622
L112205 23622
" />
</g>
<g style="fill:#000000; fill-opacity:0.0; 
stroke:#000000; stroke-width:39.3701; stroke-opacity:1; 
stroke-linecap:round; stroke-linejoin:round;">
</g>
<g style="fill:#000000; fill-opacity:0.0; 
stroke:#000000; stroke-width:59.0551; stroke-opacity:1; 
stroke-linecap:round; stroke-linejoin:round;">
<path d="M112992 43307
L112205 43307
" />
</g>
<g style="fill:#000000; fill-opacity:0.0; 
stroke:#000000; stroke-width:39.3701; stroke-opacity:1; 
stroke-linecap:round; stroke-linejoin:round;">
</g>
<g style="fill:#000000; fill-opacity:0.0; 
stroke:#000000; stroke-width:59.0551; stroke-opacity:1; 
stroke-linecap:round; stroke-linejoin:round;">
<path d="M112992 62992
L112205 62992
" />
</g>
<g style="fill:#000000; fill-opacity:0.0; 
stroke:#000000; stroke-width:39.3701; stroke-opacity:1; 
stroke-linecap:round; stroke-linejoin:round;">
</g>
<g style="fill:#000000; fill-opacity:0.0; 
stroke:#000000; stroke-width:59.0551; stroke-opacity:1; 
stroke-linecap:round; stroke-linejoin:round;">
<text x="112599" y="14035.4"
textLength="497.75" font-size="682.415" lengthAdjust="spacingAndGlyphs"
text-anchor="middle" opacity="0">A</text>
<path d="M112477 13864
L112721 13864
" />
<path d="M112428 14011
L112599 13499
L112769 14011
" />
</g>
<g style="fill:#000000; fill-opacity:0.0; 
stroke:#000000; stroke-width:39.3701; stroke-opacity:1; 
stroke-linecap:round; stroke-linejoin:round;">
</g>
<g style="fill:#000000; fill-opacity:0.0; 
stroke:#000000; stroke-width:59.0551; stroke-opacity:1; 
stroke-linecap:round; stroke-linejoin:round;">
<text x="112599" y="33720.5"
textLength="570.866" font-size="682.415" lengthAdjust="spacingAndGlyphs"
text-anchor="middle" opacity="0">B</text>
<path d="M112635 33428
L112708 33452
L112733 33476
L112757 33525
L112757 33598
L112733 33647
L112708 33671
L112660 33696
L112465 33696
L112465 33184
L112635 33184
L112684 33208
L112708 33233
L112733 33281
L112733 33330
L112708 33379
L112684 33403
L112635 33428
L112465 33428
" />
</g>
<g style="fill:#000000; fill-opacity:0.0; 
stroke:#000000; stroke-width:39.3701; stroke-opacity:1; 
stroke-linecap:round; stroke-linejoin:round;">
</g>
<g style="fill:#000000; fill-opacity:0.0; 
stroke:#000000; stroke-width:59.0551; stroke-opacity:1; 
stroke-linecap:round; stroke-linejoin:round;">
<text x="112599" y="53405.5"
textLength="570.866" font-size="682.415" lengthAdjust="spacingAndGlyphs"
text-anchor="middle" opacity="0">C</text>
<path d="M112757 53332
L112733 53356
L112660 53381
L112611 53381
L112538 53356
L112489 53308
L112465 53259
L112440 53161
L112440 53088
L112465 52991
L112489 52942
L112538 52893
L112611 52869
L112660 52869
L112733 52893
L112757 52918
" />
</g>
<g style="fill:#000000; fill-opacity:0.0; 
stroke:#000000; stroke-width:39.3701; stroke-opacity:1; 
stroke-linecap:round; stroke-linejoin:round;">
</g>
<g style="fill:#000000; fill-opacity:0.0; 
stroke:#000000; stroke-width:59.0551; stroke-opacity:1; 
stroke-linecap:round; stroke-linejoin:round;">
<text x="112599" y="73090.6"
textLength="570.866" font-size="682.415" lengthAdjust="spacingAndGlyphs"
text-anchor="middle" opacity="0">D</text>
<path d="M112465 73066
L112465 72554
L112587 72554
L112660 72578
L112708 72627
L112733 72676
L112757 72773
L112757 72846
L112733 72944
L112708 72993
L112660 73041
L112587 73066
L112465 73066
" />
</g>
<g style="fill:#000000; fill-opacity:0.0; 
stroke:#000000; stroke-width:39.3701; stroke-opacity:1; 
stroke-linecap:round; stroke-linejoin:round;">
</g>
<g style="fill:#000000; fill-opacity:0.0; 
stroke:#000000; stroke-width:59.0551; stroke-opacity:1; 
stroke-linecap:round; stroke-linejoin:round;">
<text x="78741" y="76321.7"
textLength="2758.72" font-size="787.402" lengthAdjust="spacingAndGlyphs"
text-anchor="start" opacity="0">Date: </text>
<path d="M78911 76293
L78911 75703
L79051 75703
L79136 75731
L79192 75787
L79220 75843
L79248 75956
L79248 76040
L79220 76153
L79192 76209
L79136 76265
L79051 76293
L78911 76293
" />
<path d="M79754 76293
L79754 75984
L79726 75928
L79670 75899
L79557 75899
L79501 75928
" />
<path d="M79754 76265
L79698 76293
L79557 76293
L79501 76265
L79473 76209
L79473 76153
L79501 76096
L79557 76068
L79698 76068
L79754 76040
" />
<path d="M79951 75899
L80176 75899
" />
<path d="M80036 75703
L80036 76209
L80064 76265
L80120 76293
L80176 76293
" />
<path d="M80598 76265
L80542 76293
L80429 76293
L80373 76265
L80345 76209
L80345 75984
L80373 75928
L80429 75899
L80542 75899
L80598 75928
L80626 75984
L80626 76040
L80345 76096
" />
<path d="M80879 76237
L80907 76265
L80879 76293
L80851 76265
L80879 76237
L80879 76293
" />
<path d="M80879 75928
L80907 75956
L80879 75984
L80851 75956
L80879 75928
L80879 75984
" />
</g>
<g style="fill:#000000; fill-opacity:0.0; 
stroke:#000000; stroke-width:39.3701; stroke-opacity:1; 
stroke-linecap:round; stroke-linejoin:round;">
</g>
<g style="fill:#000000; fill-opacity:0.0; 
stroke:#000000; stroke-width:59.0551; stroke-opacity:1; 
stroke-linecap:round; stroke-linejoin:round;">
<path d="M69685 76577
L112205 76577
" />
</g>
<g style="fill:#000000; fill-opacity:0.0; 
stroke:#000000; stroke-width:39.3701; stroke-opacity:1; 
stroke-linecap:round; stroke-linejoin:round;">
</g>
<g style="fill:#000000; fill-opacity:0.0; 
stroke:#000000; stroke-width:59.0551; stroke-opacity:1; 
stroke-linecap:round; stroke-linejoin:round;">
<text x="70079.6" y="77424.1"
textLength="14991.6" font-size="787.402" lengthAdjust="spacingAndGlyphs"
text-anchor="start" opacity="0">KiCad E.D.A.  pcbnew (5.1.10)-1</text>
<path d="M70249 77395
L70249 76805
" />
<path d="M70587 77395
L70334 77058
" />
<path d="M70587 76805
L70249 77142
" />
<path d="M70840 77395
L70840 77002
" />
<path d="M70840 76805
L70812 76833
L70840 76861
L70868 76833
L70840 76805
L70840 76861
" />
<path d="M71458 77339
L71430 77367
L71346 77395
L71290 77395
L71205 77367
L71149 77311
L71121 77255
L71093 77142
L71093 77058
L71121 76946
L71149 76889
L71205 76833
L71290 76805
L71346 76805
L71430 76833
L71458 76861
" />
<path d="M71965 77395
L71965 77086
L71937 77030
L71880 77002
L71768 77002
L71712 77030
" />
<path d="M71965 77367
L71908 77395
L71768 77395
L71712 77367
L71683 77311
L71683 77255
L71712 77199
L71768 77171
L71908 77171
L71965 77142
" />
<path d="M72499 77395
L72499 76805
" />
<path d="M72499 77367
L72443 77395
L72330 77395
L72274 77367
L72246 77339
L72218 77283
L72218 77114
L72246 77058
L72274 77030
L72330 77002
L72443 77002
L72499 77030
" />
<path d="M73230 77086
L73427 77086
" />
<path d="M73511 77395
L73230 77395
L73230 76805
L73511 76805
" />
<path d="M73764 77339
L73793 77367
L73764 77395
L73736 77367
L73764 77339
L73764 77395
" />
<path d="M74046 77395
L74046 76805
L74186 76805
L74271 76833
L74327 76889
L74355 76946
L74383 77058
L74383 77142
L74355 77255
L74327 77311
L74271 77367
L74186 77395
L74046 77395
" />
<path d="M74636 77339
L74664 77367
L74636 77395
L74608 77367
L74636 77339
L74636 77395
" />
<path d="M74889 77227
L75171 77227
" />
<path d="M74833 77395
L75030 76805
L75227 77395
" />
<path d="M75424 77339
L75452 77367
L75424 77395
L75395 77367
L75424 77339
L75424 77395
" />
<path d="M76605 77002
L76605 77592
" />
<path d="M76605 77030
L76661 77002
L76773 77002
L76830 77030
L76858 77058
L76886 77114
L76886 77283
L76858 77339
L76830 77367
L76773 77395
L76661 77395
L76605 77367
" />
<path d="M77392 77367
L77336 77395
L77223 77395
L77167 77367
L77139 77339
L77111 77283
L77111 77114
L77139 77058
L77167 77030
L77223 77002
L77336 77002
L77392 77030
" />
<path d="M77645 77395
L77645 76805
" />
<path d="M77645 77030
L77701 77002
L77814 77002
L77870 77030
L77898 77058
L77926 77114
L77926 77283
L77898 77339
L77870 77367
L77814 77395
L77701 77395
L77645 77367
" />
<path d="M78180 77002
L78180 77395
" />
<path d="M78180 77058
L78208 77030
L78264 77002
L78348 77002
L78404 77030
L78433 77086
L78433 77395
" />
<path d="M78939 77367
L78883 77395
L78770 77395
L78714 77367
L78686 77311
L78686 77086
L78714 77030
L78770 77002
L78883 77002
L78939 77030
L78967 77086
L78967 77142
L78686 77199
" />
<path d="M79164 77002
L79276 77395
L79389 77114
L79501 77395
L79614 77002
" />
<path d="M80457 77620
L80429 77592
L80373 77508
L80345 77452
L80317 77367
L80289 77227
L80289 77114
L80317 76974
L80345 76889
L80373 76833
L80429 76749
L80457 76721
" />
<path d="M80964 76805
L80682 76805
L80654 77086
L80682 77058
L80739 77030
L80879 77030
L80935 77058
L80964 77086
L80992 77142
L80992 77283
L80964 77339
L80935 77367
L80879 77395
L80739 77395
L80682 77367
L80654 77339
" />
<path d="M81245 77339
L81273 77367
L81245 77395
L81217 77367
L81245 77339
L81245 77395
" />
<path d="M81835 77395
L81498 77395
" />
<path d="M81667 77395
L81667 76805
L81610 76889
L81554 76946
L81498 76974
" />
<path d="M82088 77339
L82117 77367
L82088 77395
L82060 77367
L82088 77339
L82088 77395
" />
<path d="M82679 77395
L82341 77395
" />
<path d="M82510 77395
L82510 76805
L82454 76889
L82398 76946
L82341 76974
" />
<path d="M83045 76805
L83101 76805
L83157 76833
L83185 76861
L83213 76917
L83241 77030
L83241 77171
L83213 77283
L83185 77339
L83157 77367
L83101 77395
L83045 77395
L82988 77367
L82960 77339
L82932 77283
L82904 77171
L82904 77030
L82932 76917
L82960 76861
L82988 76833
L83045 76805
" />
<path d="M83438 77620
L83466 77592
L83523 77508
L83551 77452
L83579 77367
L83607 77227
L83607 77114
L83579 76974
L83551 76889
L83523 76833
L83466 76749
L83438 76721
" />
<path d="M83888 77171
L84338 77171
" />
<path d="M84929 77395
L84591 77395
" />
<path d="M84760 77395
L84760 76805
L84704 76889
L84647 76946
L84591 76974
" />
</g>
<g style="fill:#000000; fill-opacity:0.0; 
stroke:#000000; stroke-width:39.3701; stroke-opacity:1; 
stroke-linecap:round; stroke-linejoin:round;">
</g>
<g style="fill:#000000; fill-opacity:0.0; 
stroke:#000000; stroke-width:59.0551; stroke-opacity:1; 
stroke-linecap:round; stroke-linejoin:round;">
<path d="M69685 75396
L112205 75396
" />
</g>
<g style="fill:#000000; fill-opacity:0.0; 
stroke:#000000; stroke-width:39.3701; stroke-opacity:1; 
stroke-linecap:round; stroke-linejoin:round;">
</g>
<g style="fill:#000000; fill-opacity:0.0; 
stroke:#000000; stroke-width:118.11; stroke-opacity:1; 
stroke-linecap:round; stroke-linejoin:round;">
<text x="103544" y="76321.7"
textLength="2336.9" font-size="787.402" lengthAdjust="spacingAndGlyphs"
text-anchor="start" opacity="0">Rev: </text>
<path d="M104099 76293
L103902 76012
" />
<path d="M103761 76293
L103761 75703
L103986 75703
L104042 75731
L104070 75759
L104099 75815
L104099 75899
L104070 75956
L104042 75984
L103986 76012
L103761 76012
" />
<path d="M104577 76265
L104520 76293
L104408 76293
L104352 76265
L104323 76209
L104323 75984
L104352 75928
L104408 75899
L104520 75899
L104577 75928
L104605 75984
L104605 76040
L104323 76096
" />
<path d="M104802 75899
L104942 76293
L105083 75899
" />
<path d="M105308 76237
L105336 76265
L105308 76293
L105280 76265
L105308 76237
L105308 76293
" />
<path d="M105308 75928
L105336 75956
L105308 75984
L105280 75956
L105308 75928
L105308 75984
" />
</g>
<g style="fill:#000000; fill-opacity:0.0; 
stroke:#000000; stroke-width:39.3701; stroke-opacity:1; 
stroke-linecap:round; stroke-linejoin:round;">
</g>
<g style="fill:#000000; fill-opacity:0.0; 
stroke:#000000; stroke-width:59.0551; stroke-opacity:1; 
stroke-linecap:round; stroke-linejoin:round;">
<text x="70079.6" y="76321.7"
textLength="3781.21" font-size="787.402" lengthAdjust="spacingAndGlyphs"
text-anchor="start" opacity="0">Size: A4</text>
<path d="M70221 76265
L70305 76293
L70446 76293
L70502 76265
L70530 76237
L70559 76181
L70559 76124
L70530 76068
L70502 76040
L70446 76012
L70334 75984
L70277 75956
L70249 75928
L70221 75871
L70221 75815
L70249 75759
L70277 75731
L70334 75703
L70474 75703
L70559 75731
" />
<path d="M70812 76293
L70812 75899
" />
<path d="M70812 75703
L70784 75731
L70812 75759
L70840 75731
L70812 75703
L70812 75759
" />
<path d="M71037 75899
L71346 75899
L71037 76293
L71346 76293
" />
<path d="M71796 76265
L71740 76293
L71627 76293
L71571 76265
L71543 76209
L71543 75984
L71571 75928
L71627 75899
L71740 75899
L71796 75928
L71824 75984
L71824 76040
L71543 76096
" />
<path d="M72077 76237
L72105 76265
L72077 76293
L72049 76265
L72077 76237
L72077 76293
" />
<path d="M72077 75928
L72105 75956
L72077 75984
L72049 75956
L72077 75928
L72077 75984
" />
<path d="M72780 76124
L73061 76124
" />
<path d="M72724 76293
L72921 75703
L73118 76293
" />
<path d="M73568 75899
L73568 76293
" />
<path d="M73427 75674
L73286 76096
L73652 76096
" />
</g>
<g style="fill:#000000; fill-opacity:0.0; 
stroke:#000000; stroke-width:39.3701; stroke-opacity:1; 
stroke-linecap:round; stroke-linejoin:round;">
</g>
<g style="fill:#000000; fill-opacity:0.0; 
stroke:#000000; stroke-width:59.0551; stroke-opacity:1; 
stroke-linecap:round; stroke-linejoin:round;">
<text x="103544" y="77424.1"
textLength="3349.27" font-size="787.402" lengthAdjust="spacingAndGlyphs"
text-anchor="start" opacity="0">Id: 1/1</text>
<path d="M103714 77395
L103714 76805
" />
<path d="M104248 77395
L104248 76805
" />
<path d="M104248 77367
L104192 77395
L104079 77395
L104023 77367
L103995 77339
L103967 77283
L103967 77114
L103995 77058
L104023 77030
L104079 77002
L104192 77002
L104248 77030
" />
<path d="M104529 77339
L104557 77367
L104529 77395
L104501 77367
L104529 77339
L104529 77395
" />
<path d="M104529 77030
L104557 77058
L104529 77086
L104501 77058
L104529 77030
L104529 77086
" />
<path d="M105570 77395
L105232 77395
" />
<path d="M105401 77395
L105401 76805
L105345 76889
L105289 76946
L105232 76974
" />
<path d="M106245 76777
L105739 77536
" />
<path d="M106751 77395
L106413 77395
" />
<path d="M106582 77395
L106582 76805
L106526 76889
L106470 76946
L106413 76974
" />
</g>
<g style="fill:#000000; fill-opacity:0.0; 
stroke:#000000; stroke-width:39.3701; stroke-opacity:1; 
stroke-linecap:round; stroke-linejoin:round;">
</g>
<g style="fill:#000000; fill-opacity:0.0; 
stroke:#000000; stroke-width:59.0551; stroke-opacity:1; 
stroke-linecap:round; stroke-linejoin:round;">
<path d="M69685 73821
L112205 73821
" />
</g>
<g style="fill:#000000; fill-opacity:0.0; 
stroke:#000000; stroke-width:39.3701; stroke-opacity:1; 
stroke-linecap:round; stroke-linejoin:round;">
</g>
<g style="fill:#000000; fill-opacity:0.0; 
stroke:#000000; stroke-width:157.48; stroke-opacity:1; 
stroke-linecap:round; stroke-linejoin:round;">
<text x="70079.6" y="74924.1"
textLength="3701.14" font-size="1049.87" lengthAdjust="spacingAndGlyphs"
text-anchor="start" opacity="0">Title: </text>
<path d="M70360 74099
L70810 74099
" />
<path d="M70486 74886
L70585 74099
" />
<path d="M70974 74886
L71039 74361
" />
<path d="M71072 74099
L71030 74136
L71063 74174
L71105 74136
L71072 74099
L71063 74174
" />
<path d="M71302 74361
L71602 74361
" />
<path d="M71447 74099
L71363 74774
L71391 74849
L71461 74886
L71536 74886
" />
<path d="M71911 74886
L71841 74849
L71813 74774
L71897 74099
" />
<path d="M72516 74849
L72436 74886
L72286 74886
L72216 74849
L72187 74774
L72225 74474
L72272 74399
L72352 74361
L72501 74361
L72572 74399
L72600 74474
L72591 74549
L72206 74624
" />
<path d="M72895 74811
L72928 74849
L72886 74886
L72853 74849
L72895 74811
L72886 74886
" />
<path d="M72947 74399
L72980 74436
L72937 74474
L72905 74436
L72947 74399
L72937 74474
" />
</g>
<g style="fill:#000000; fill-opacity:0.0; 
stroke:#000000; stroke-width:39.3701; stroke-opacity:1; 
stroke-linecap:round; stroke-linejoin:round;">
</g>
<g style="fill:#000000; fill-opacity:0.0; 
stroke:#000000; stroke-width:59.0551; stroke-opacity:1; 
stroke-linecap:round; stroke-linejoin:round;">
<text x="70079.6" y="73408.3"
textLength="9962.88" font-size="787.402" lengthAdjust="spacingAndGlyphs"
text-anchor="start" opacity="0">File: EGPad.kicad_pcb</text>
<path d="M70446 73070
L70249 73070
" />
<path d="M70249 73380
L70249 72789
L70530 72789
" />
<path d="M70755 73380
L70755 72986
" />
<path d="M70755 72789
L70727 72817
L70755 72845
L70784 72817
L70755 72789
L70755 72845
" />
<path d="M71121 73380
L71065 73352
L71037 73295
L71037 72789
" />
<path d="M71571 73352
L71515 73380
L71402 73380
L71346 73352
L71318 73295
L71318 73070
L71346 73014
L71402 72986
L71515 72986
L71571 73014
L71599 73070
L71599 73127
L71318 73183
" />
<path d="M71852 73323
L71880 73352
L71852 73380
L71824 73352
L71852 73323
L71852 73380
" />
<path d="M71852 73014
L71880 73042
L71852 73070
L71824 73042
L71852 73014
L71852 73070
" />
<path d="M72583 73070
L72780 73070
" />
<path d="M72865 73380
L72583 73380
L72583 72789
L72865 72789
" />
<path d="M73427 72817
L73371 72789
L73286 72789
L73202 72817
L73146 72874
L73118 72930
L73090 73042
L73090 73127
L73118 73239
L73146 73295
L73202 73352
L73286 73380
L73343 73380
L73427 73352
L73455 73323
L73455 73127
L73343 73127
" />
<path d="M73708 73380
L73708 72789
L73933 72789
L73989 72817
L74018 72845
L74046 72902
L74046 72986
L74018 73042
L73989 73070
L73933 73099
L73708 73099
" />
<path d="M74552 73380
L74552 73070
L74524 73014
L74467 72986
L74355 72986
L74299 73014
" />
<path d="M74552 73352
L74496 73380
L74355 73380
L74299 73352
L74271 73295
L74271 73239
L74299 73183
L74355 73155
L74496 73155
L74552 73127
" />
<path d="M75086 73380
L75086 72789
" />
<path d="M75086 73352
L75030 73380
L74917 73380
L74861 73352
L74833 73323
L74805 73267
L74805 73099
L74833 73042
L74861 73014
L74917 72986
L75030 72986
L75086 73014
" />
<path d="M75367 73323
L75395 73352
L75367 73380
L75339 73352
L75367 73323
L75367 73380
" />
<path d="M75649 73380
L75649 72789
" />
<path d="M75705 73155
L75874 73380
" />
<path d="M75874 72986
L75649 73211
" />
<path d="M76127 73380
L76127 72986
" />
<path d="M76127 72789
L76099 72817
L76127 72845
L76155 72817
L76127 72789
L76127 72845
" />
<path d="M76661 73352
L76605 73380
L76492 73380
L76436 73352
L76408 73323
L76380 73267
L76380 73099
L76408 73042
L76436 73014
L76492 72986
L76605 72986
L76661 73014
" />
<path d="M77167 73380
L77167 73070
L77139 73014
L77083 72986
L76970 72986
L76914 73014
" />
<path d="M77167 73352
L77111 73380
L76970 73380
L76914 73352
L76886 73295
L76886 73239
L76914 73183
L76970 73155
L77111 73155
L77167 73127
" />
<path d="M77701 73380
L77701 72789
" />
<path d="M77701 73352
L77645 73380
L77533 73380
L77476 73352
L77448 73323
L77420 73267
L77420 73099
L77448 73042
L77476 73014
L77533 72986
L77645 72986
L77701 73014
" />
<path d="M77842 73436
L78292 73436
" />
<path d="M78433 72986
L78433 73577
" />
<path d="M78433 73014
L78489 72986
L78601 72986
L78658 73014
L78686 73042
L78714 73099
L78714 73267
L78686 73323
L78658 73352
L78601 73380
L78489 73380
L78433 73352
" />
<path d="M79220 73352
L79164 73380
L79051 73380
L78995 73352
L78967 73323
L78939 73267
L78939 73099
L78967 73042
L78995 73014
L79051 72986
L79164 72986
L79220 73014
" />
<path d="M79473 73380
L79473 72789
" />
<path d="M79473 73014
L79529 72986
L79642 72986
L79698 73014
L79726 73042
L79754 73099
L79754 73267
L79726 73323
L79698 73352
L79642 73380
L79529 73380
L79473 73352
" />
</g>
<g style="fill:#000000; fill-opacity:0.0; 
stroke:#000000; stroke-width:39.3701; stroke-opacity:1; 
stroke-linecap:round; stroke-linejoin:round;">
</g>
<g style="fill:#000000; fill-opacity:0.0; 
stroke:#000000; stroke-width:59.0551; stroke-opacity:1; 
stroke-linecap:round; stroke-linejoin:round;">
<path d="M69685 71459
L112205 71459
" />
</g>
<g style="fill:#000000; fill-opacity:0.0; 
stroke:#000000; stroke-width:39.3701; stroke-opacity:1; 
stroke-linecap:round; stroke-linejoin:round;">
</g>
<g style="fill:#000000; fill-opacity:0.0; 
stroke:#000000; stroke-width:59.0551; stroke-opacity:1; 
stroke-linecap:round; stroke-linejoin:round;">
<text x="70079.6" y="72345.4"
textLength="3236.78" font-size="787.402" lengthAdjust="spacingAndGlyphs"
text-anchor="start" opacity="0">Sheet: </text>
<path d="M70221 72289
L70305 72317
L70446 72317
L70502 72289
L70530 72260
L70559 72204
L70559 72148
L70530 72092
L70502 72064
L70446 72036
L70334 72007
L70277 71979
L70249 71951
L70221 71895
L70221 71839
L70249 71782
L70277 71754
L70334 71726
L70474 71726
L70559 71754
" />
<path d="M70812 72317
L70812 71726
" />
<path d="M71065 72317
L71065 72007
L71037 71951
L70980 71923
L70896 71923
L70840 71951
L70812 71979
" />
<path d="M71571 72289
L71515 72317
L71402 72317
L71346 72289
L71318 72232
L71318 72007
L71346 71951
L71402 71923
L71515 71923
L71571 71951
L71599 72007
L71599 72064
L71318 72120
" />
<path d="M72077 72289
L72021 72317
L71908 72317
L71852 72289
L71824 72232
L71824 72007
L71852 71951
L71908 71923
L72021 71923
L72077 71951
L72105 72007
L72105 72064
L71824 72120
" />
<path d="M72274 71923
L72499 71923
" />
<path d="M72358 71726
L72358 72232
L72386 72289
L72443 72317
L72499 72317
" />
<path d="M72696 72260
L72724 72289
L72696 72317
L72668 72289
L72696 72260
L72696 72317
" />
<path d="M72696 71951
L72724 71979
L72696 72007
L72668 71979
L72696 71951
L72696 72007
" />
</g>
<g style="fill:#000000; fill-opacity:0.0; 
stroke:#000000; stroke-width:39.3701; stroke-opacity:1; 
stroke-linecap:round; stroke-linejoin:round;">
</g>
<g style="fill:#000000; fill-opacity:0.0; 
stroke:#000000; stroke-width:59.0551; stroke-opacity:1; 
stroke-linecap:round; stroke-linejoin:round;">
<path d="M77559 75396
L77559 76577
" />
</g>
<g style="fill:#000000; fill-opacity:0.0; 
stroke:#000000; stroke-width:39.3701; stroke-opacity:1; 
stroke-linecap:round; stroke-linejoin:round;">
</g>
<g style="fill:#000000; fill-opacity:0.0; 
stroke:#000000; stroke-width:59.0551; stroke-opacity:1; 
stroke-linecap:round; stroke-linejoin:round;">
<path d="M102756 75396
L102756 77955
" />
</g>
<g style="fill:#C2C2C2; fill-opacity:0.0; 
stroke:#C2C2C2; stroke-width:59.0551; stroke-opacity:1; 
stroke-linecap:round; stroke-linejoin:round;">
<path d="M59062 32812
L59062 25312
" />
<path d="M66562 32812
L59062 32812
" />
<path d="M66562 25312
L66562 32812
" />
<path d="M59062 25312
L66562 25312
" />
<path d="M60056 26306
L60056 27094
" />
<path d="M60844 26306
L60056 26306
" />
<path d="M60056 31818
L60844 31818
" />
<path d="M60056 31031
L60056 31818
" />
<path d="M65568 31818
L65568 31031
" />
<path d="M64781 31818
L65568 31818
" />
<path d="M65568 26306
L65568 27094
" />
<path d="M64781 26306
L65568 26306
" />
<path d="M46031 56306
L46818 56306
" />
<path d="M46818 56306
L46818 57094
" />
<path d="M46031 61818
L46818 61818
" />
<path d="M46818 61818
L46818 61031
" />
<path d="M41306 61031
L41306 61818
" />
<path d="M41306 61818
L42094 61818
" />
<path d="M42094 56306
L41306 56306
" />
<path d="M41306 56306
L41306 57094
" />
<path d="M36562 55312
L51562 55312
" />
<path d="M51562 55312
L51562 62812
" />
<path d="M36562 62812
L51562 62812
" />
<path d="M36562 62812
L36562 55312
" />
<path d="M60056 53344
L60056 52556
" />
<path d="M60056 52556
L60844 52556
" />
<path d="M65568 53344
L65568 52556
" />
<path d="M65568 52556
L64781 52556
" />
<path d="M64781 58068
L65568 58068
" />
<path d="M65568 58068
L65568 57281
" />
<path d="M60056 57281
L60056 58068
" />
<path d="M60056 58068
L60844 58068
" />
<path d="M59062 62812
L59062 47812
" />
<path d="M59062 47812
L66562 47812
" />
<path d="M66562 62812
L66562 47812
" />
<path d="M66562 62812
L59062 62812
" />
<path d="M60056 38344
L60056 37556
" />
<path d="M60056 37556
L60844 37556
" />
<path d="M65568 38344
L65568 37556
" />
<path d="M65568 37556
L64781 37556
" />
<path d="M64781 43068
L65568 43068
" />
<path d="M65568 43068
L65568 42281
" />
<path d="M60056 42281
L60056 43068
" />
<path d="M60056 43068
L60844 43068
" />
<path d="M59062 47812
L59062 32812
" />
<path d="M59062 32812
L66562 32812
" />
<path d="M66562 47812
L66562 32812
" />
<path d="M66562 47812
L59062 47812
" />
<path d="M51562 32812
L51562 25312
" />
<path d="M59062 32812
L51562 32812
" />
<path d="M59062 25312
L59062 32812
" />
<path d="M51562 25312
L59062 25312
" />
<path d="M52556 26306
L52556 27094
" />
<path d="M53344 26306
L52556 26306
" />
<path d="M52556 31818
L53344 31818
" />
<path d="M52556 31031
L52556 31818
" />
<path d="M58068 31818
L58068 31031
" />
<path d="M57281 31818
L58068 31818
" />
<path d="M58068 26306
L58068 27094
" />
<path d="M57281 26306
L58068 26306
" />
<path d="M44062 47812
L44062 40312
" />
<path d="M51562 47812
L44062 47812
" />
<path d="M51562 40312
L51562 47812
" />
<path d="M44062 40312
L51562 40312
" />
<path d="M45056 41306
L45056 42094
" />
<path d="M45844 41306
L45056 41306
" />
<path d="M45056 46818
L45844 46818
" />
<path d="M45056 46031
L45056 46818
" />
<path d="M50568 46818
L50568 46031
" />
<path d="M49781 46818
L50568 46818
" />
<path d="M50568 41306
L50568 42094
" />
<path d="M49781 41306
L50568 41306
" />
<path d="M36562 55312
L36562 47812
" />
<path d="M44062 55312
L36562 55312
" />
<path d="M44062 47812
L44062 55312
" />
<path d="M36562 47812
L44062 47812
" />
<path d="M37556 48806
L37556 49594
" />
<path d="M38344 48806
L37556 48806
" />
<path d="M37556 54318
L38344 54318
" />
<path d="M37556 53531
L37556 54318
" />
<path d="M43068 54318
L43068 53531
" />
<path d="M42281 54318
L43068 54318
" />
<path d="M43068 48806
L43068 49594
" />
<path d="M42281 48806
L43068 48806
" />
<path d="M51562 55312
L51562 47812
" />
<path d="M59062 55312
L51562 55312
" />
<path d="M59062 47812
L59062 55312
" />
<path d="M51562 47812
L59062 47812
" />
<path d="M52556 48806
L52556 49594
" />
<path d="M53344 48806
L52556 48806
" />
<path d="M52556 54318
L53344 54318
" />
<path d="M52556 53531
L52556 54318
" />
<path d="M58068 54318
L58068 53531
" />
<path d="M57281 54318
L58068 54318
" />
<path d="M58068 48806
L58068 49594
" />
<path d="M57281 48806
L58068 48806
" />
<path d="M51562 47812
L51562 40312
" />
<path d="M59062 47812
L51562 47812
" />
<path d="M59062 40312
L59062 47812
" />
<path d="M51562 40312
L59062 40312
" />
<path d="M52556 41306
L52556 42094
" />
<path d="M53344 41306
L52556 41306
" />
<path d="M52556 46818
L53344 46818
" />
<path d="M52556 46031
L52556 46818
" />
<path d="M58068 46818
L58068 46031
" />
<path d="M57281 46818
L58068 46818
" />
<path d="M58068 41306
L58068 42094
" />
<path d="M57281 41306
L58068 41306
" />
<path d="M51562 40312
L51562 32812
" />
<path d="M59062 40312
L51562 40312
" />
<path d="M59062 32812
L59062 40312
" />
<path d="M51562 32812
L59062 32812
" />
<path d="M52556 33806
L52556 34594
" />
<path d="M53344 33806
L52556 33806
" />
<path d="M52556 39318
L53344 39318
" />
<path d="M52556 38531
L52556 39318
" />
<path d="M58068 39318
L58068 38531
" />
<path d="M57281 39318
L58068 39318
" />
<path d="M58068 33806
L58068 34594
" />
<path d="M57281 33806
L58068 33806
" />
<path d="M51562 62812
L51562 55312
" />
<path d="M59062 62812
L51562 62812
" />
<path d="M59062 55312
L59062 62812
" />
<path d="M51562 55312
L59062 55312
" />
<path d="M52556 56306
L52556 57094
" />
<path d="M53344 56306
L52556 56306
" />
<path d="M52556 61818
L53344 61818
" />
<path d="M52556 61031
L52556 61818
" />
<path d="M58068 61818
L58068 61031
" />
<path d="M57281 61818
L58068 61818
" />
<path d="M58068 56306
L58068 57094
" />
<path d="M57281 56306
L58068 56306
" />
<path d="M44062 55312
L44062 47812
" />
<path d="M51562 55312
L44062 55312
" />
<path d="M51562 47812
L51562 55312
" />
<path d="M44062 47812
L51562 47812
" />
<path d="M45056 48806
L45056 49594
" />
<path d="M45844 48806
L45056 48806
" />
<path d="M45056 54318
L45844 54318
" />
<path d="M45056 53531
L45056 54318
" />
<path d="M50568 54318
L50568 53531
" />
<path d="M49781 54318
L50568 54318
" />
<path d="M50568 48806
L50568 49594
" />
<path d="M49781 48806
L50568 48806
" />
<path d="M44062 40312
L44062 32812
" />
<path d="M51562 40312
L44062 40312
" />
<path d="M51562 32812
L51562 40312
" />
<path d="M44062 32812
L51562 32812
" />
<path d="M45056 33806
L45056 34594
" />
<path d="M45844 33806
L45056 33806
" />
<path d="M45056 39318
L45844 39318
" />
<path d="M45056 38531
L45056 39318
" />
<path d="M50568 39318
L50568 38531
" />
<path d="M49781 39318
L50568 39318
" />
<path d="M50568 33806
L50568 34594
" />
<path d="M49781 33806
L50568 33806
" />
<path d="M44062 32812
L44062 25312
" />
<path d="M51562 32812
L44062 32812
" />
<path d="M51562 25312
L51562 32812
" />
<path d="M44062 25312
L51562 25312
" />
<path d="M45056 26306
L45056 27094
" />
<path d="M45844 26306
L45056 26306
" />
<path d="M45056 31818
L45844 31818
" />
<path d="M45056 31031
L45056 31818
" />
<path d="M50568 31818
L50568 31031
" />
<path d="M49781 31818
L50568 31818
" />
<path d="M50568 26306
L50568 27094
" />
<path d="M49781 26306
L50568 26306
" />
<path d="M36562 47812
L36562 40312
" />
<path d="M44062 47812
L36562 47812
" />
<path d="M44062 40312
L44062 47812
" />
<path d="M36562 40312
L44062 40312
" />
<path d="M37556 41306
L37556 42094
" />
<path d="M38344 41306
L37556 41306
" />
<path d="M37556 46818
L38344 46818
" />
<path d="M37556 46031
L37556 46818
" />
<path d="M43068 46818
L43068 46031
" />
<path d="M42281 46818
L43068 46818
" />
<path d="M43068 41306
L43068 42094
" />
<path d="M42281 41306
L43068 41306
" />
<path d="M36562 40312
L36562 32812
" />
<path d="M44062 40312
L36562 40312
" />
<path d="M44062 32812
L44062 40312
" />
<path d="M36562 32812
L44062 32812
" />
<path d="M37556 33806
L37556 34594
" />
<path d="M38344 33806
L37556 33806
" />
<path d="M37556 39318
L38344 39318
" />
<path d="M37556 38531
L37556 39318
" />
<path d="M43068 39318
L43068 38531
" />
<path d="M42281 39318
L43068 39318
" />
<path d="M43068 33806
L43068 34594
" />
<path d="M42281 33806
L43068 33806
" />
<path d="M36562 32812
L36562 25312
" />
<path d="M44062 32812
L36562 32812
" />
<path d="M44062 25312
L44062 32812
" />
<path d="M36562 25312
L44062 25312
" />
<path d="M37556 26306
L37556 27094
" />
<path d="M38344 26306
L37556 26306
" />
<path d="M37556 31818
L38344 31818
" />
<path d="M37556 31031
L37556 31818
" />
<path d="M43068 31818
L43068 31031
" />
<path d="M42281 31818
L43068 31818
" />
<path d="M43068 26306
L43068 27094
" />
<path d="M42281 26306
L43068 26306
" />
<g >
</g>
<g >
</g>
<g >
</g>
<g >
</g>
<g >
</g>
<g >
</g>
<g >
</g>
<g >
</g>
<g >
</g>
<g >
</g>
<g >
</g>
<g >
</g>
<g >
</g>
<g >
</g>
<g >
</g>
<g >
</g>
<g >
</g>
<g >
</g>
<g >
</g>
<g >
</g>
<g >
</g>
<g >
</g>
<g >
</g>
<g >
</g>
<g >
</g>
<g >
</g>
<g >
</g>
<g >
</g>
<g >
</g>
<g >
</g>
<g >
</g>
<g >
</g>
<g >
</g>
<g >
</g>
<g >
</g>
<g >
</g>
<g >
</g>
<g >
</g>
<g >
</g>
<g >
</g>
<g >
</g>
<g >
</g>
<g >
</g>
<g >
</g>
<g >
</g>
<g >
</g>
<g >
</g>
<g >
</g>
<g >
</g>
<g >
</g>
<g >
</g>
<g >
</g>
<g >
</g>
<g >
</g>
<g >
</g>
<g >
</g>
<g >
</g>
<g >
</g>
<g >
</g>
<g >
</g>
<g >
</g>
<g >
</g>
<g >
</g>
<g >
</g>
<g >
</g>
<g >
</g>
<g >
</g>
<g >
</g>
<g >
</g>
<g >
</g>
<g >
</g>
<g >
</g>
<g >
</g>
<g >
</g>
<g >
</g>
<g >
</g>
<g >
</g>
</g>
<g style="fill:#C2C2C2; fill-opacity:0.0; 
stroke:#C2C2C2; stroke-width:59.0551; stroke-opacity:1; 
stroke-linecap:round; stroke-linejoin:round;">
<text x="62812.6" y="26134.4"
textLength="3208.66" font-size="524.934" lengthAdjust="spacingAndGlyphs"
text-anchor="middle" opacity="0">MX-NoLED</text>
<path d="M61331 26115
L61331 25721
L61462 26003
L61594 25721
L61594 26115
" />
<path d="M61743 25721
L62006 26115
" />
<path d="M62006 25721
L61743 26115
" />
<path d="M62156 25965
L62456 25965
" />
<path d="M62643 26115
L62643 25721
L62868 26115
L62868 25721
" />
<path d="M63112 26115
L63075 26096
L63056 26078
L63037 26040
L63037 25928
L63056 25890
L63075 25871
L63112 25853
L63168 25853
L63206 25871
L63225 25890
L63243 25928
L63243 26040
L63225 26078
L63206 26096
L63168 26115
L63112 26115
" />
<path d="M63600 26115
L63412 26115
L63412 25721
" />
<path d="M63731 25909
L63862 25909
" />
<path d="M63918 26115
L63731 26115
L63731 25721
L63918 25721
" />
<path d="M64087 26115
L64087 25721
L64181 25721
L64237 25740
L64274 25778
L64293 25815
L64312 25890
L64312 25946
L64293 26021
L64274 26059
L64237 26096
L64181 26115
L64087 26115
" />
<text x="44062.6" y="56134.4"
textLength="3226.38" font-size="524.934" lengthAdjust="spacingAndGlyphs"
text-anchor="middle" opacity="0">MX-NoLED</text>
<path d="M42581 56115
L42581 55722
L42712 56003
L42844 55722
L42844 56115
" />
<path d="M42993 55722
L43256 56115
" />
<path d="M43256 55722
L42993 56115
" />
<path d="M43406 55965
L43706 55965
" />
<path d="M43893 56115
L43893 55722
L44118 56115
L44118 55722
" />
<path d="M44362 56115
L44325 56096
L44306 56078
L44287 56040
L44287 55928
L44306 55890
L44325 55871
L44362 55853
L44418 55853
L44456 55871
L44475 55890
L44493 55928
L44493 56040
L44475 56078
L44456 56096
L44418 56115
L44362 56115
" />
<path d="M44850 56115
L44662 56115
L44662 55722
" />
<path d="M44981 55909
L45112 55909
" />
<path d="M45168 56115
L44981 56115
L44981 55722
L45168 55722
" />
<path d="M45337 56115
L45337 55722
L45431 55722
L45487 55740
L45524 55778
L45543 55815
L45562 55890
L45562 55946
L45543 56021
L45524 56059
L45487 56096
L45431 56115
L45337 56115
" />
</g>
<g style="fill:#C2C2C2; fill-opacity:0.0; 
stroke:#C2C2C2; stroke-width:120; stroke-opacity:1; 
stroke-linecap:round; stroke-linejoin:round;">
<text x="44062.6" y="61550.1"
textLength="2619.63" font-size="800" lengthAdjust="spacingAndGlyphs"
text-anchor="middle" opacity="0">2.00u</text>
<path d="M42905 60978
L42934 60950
L42991 60921
L43134 60921
L43191 60950
L43219 60978
L43248 61035
L43248 61092
L43219 61178
L42876 61521
L43248 61521
" />
<path d="M43505 61464
L43534 61492
L43505 61521
L43476 61492
L43505 61464
L43505 61521
" />
<path d="M43905 60921
L43962 60921
L44019 60950
L44048 60978
L44076 61035
L44105 61150
L44105 61292
L44076 61407
L44048 61464
L44019 61492
L43962 61521
L43905 61521
L43848 61492
L43819 61464
L43791 61407
L43762 61292
L43762 61150
L43791 61035
L43819 60978
L43848 60950
L43905 60921
" />
<path d="M44476 60921
L44534 60921
L44591 60950
L44619 60978
L44648 61035
L44676 61150
L44676 61292
L44648 61407
L44619 61464
L44591 61492
L44534 61521
L44476 61521
L44419 61492
L44391 61464
L44362 61407
L44334 61292
L44334 61150
L44362 61035
L44391 60978
L44419 60950
L44476 60921
" />
<path d="M45191 61121
L45191 61521
" />
<path d="M44934 61121
L44934 61435
L44962 61492
L45019 61521
L45105 61521
L45162 61492
L45191 61464
" />
<text x="62812.6" y="58737.6"
textLength="2698.86" font-size="800" lengthAdjust="spacingAndGlyphs"
text-anchor="middle" opacity="0">2.00u</text>
<path d="M61655 58166
L61684 58137
L61741 58109
L61884 58109
L61941 58137
L61969 58166
L61998 58223
L61998 58280
L61969 58366
L61626 58709
L61998 58709
" />
<path d="M62255 58651
L62284 58680
L62255 58709
L62226 58680
L62255 58651
L62255 58709
" />
<path d="M62655 58109
L62712 58109
L62769 58137
L62798 58166
L62826 58223
L62855 58337
L62855 58480
L62826 58594
L62798 58651
L62769 58680
L62712 58709
L62655 58709
L62598 58680
L62569 58651
L62541 58594
L62512 58480
L62512 58337
L62541 58223
L62569 58166
L62598 58137
L62655 58109
" />
<path d="M63226 58109
L63284 58109
L63341 58137
L63369 58166
L63398 58223
L63426 58337
L63426 58480
L63398 58594
L63369 58651
L63341 58680
L63284 58709
L63226 58709
L63169 58680
L63141 58651
L63112 58594
L63084 58480
L63084 58337
L63112 58223
L63141 58166
L63169 58137
L63226 58109
" />
<path d="M63941 58309
L63941 58709
" />
<path d="M63684 58309
L63684 58623
L63712 58680
L63769 58709
L63855 58709
L63912 58680
L63941 58651
" />
<text x="62812.6" y="43737.6"
textLength="2698.86" font-size="800" lengthAdjust="spacingAndGlyphs"
text-anchor="middle" opacity="0">2.00u</text>
<path d="M61655 43166
L61684 43137
L61741 43109
L61884 43109
L61941 43137
L61969 43166
L61998 43223
L61998 43280
L61969 43366
L61626 43709
L61998 43709
" />
<path d="M62255 43651
L62284 43680
L62255 43709
L62226 43680
L62255 43651
L62255 43709
" />
<path d="M62655 43109
L62712 43109
L62769 43137
L62798 43166
L62826 43223
L62855 43337
L62855 43480
L62826 43594
L62798 43651
L62769 43680
L62712 43709
L62655 43709
L62598 43680
L62569 43651
L62541 43594
L62512 43480
L62512 43337
L62541 43223
L62569 43166
L62598 43137
L62655 43109
" />
<path d="M63226 43109
L63284 43109
L63341 43137
L63369 43166
L63398 43223
L63426 43337
L63426 43480
L63398 43594
L63369 43651
L63341 43680
L63284 43709
L63226 43709
L63169 43680
L63141 43651
L63112 43594
L63084 43480
L63084 43337
L63112 43223
L63141 43166
L63169 43137
L63226 43109
" />
<path d="M63941 43309
L63941 43709
" />
<path d="M63684 43309
L63684 43623
L63712 43680
L63769 43709
L63855 43709
L63912 43680
L63941 43651
" />
</g>
<g style="fill:#C2C2C2; fill-opacity:0.0; 
stroke:#C2C2C2; stroke-width:59.0551; stroke-opacity:1; 
stroke-linecap:round; stroke-linejoin:round;">
<text x="55312.6" y="26134.4"
textLength="3305.61" font-size="524.934" lengthAdjust="spacingAndGlyphs"
text-anchor="middle" opacity="0">MX-NoLED</text>
<path d="M53831 26115
L53831 25721
L53962 26003
L54094 25721
L54094 26115
" />
<path d="M54243 25721
L54506 26115
" />
<path d="M54506 25721
L54243 26115
" />
<path d="M54656 25965
L54956 25965
" />
<path d="M55143 26115
L55143 25721
L55368 26115
L55368 25721
" />
<path d="M55612 26115
L55575 26096
L55556 26078
L55537 26040
L55537 25928
L55556 25890
L55575 25871
L55612 25853
L55668 25853
L55706 25871
L55725 25890
L55743 25928
L55743 26040
L55725 26078
L55706 26096
L55668 26115
L55612 26115
" />
<path d="M56100 26115
L55912 26115
L55912 25721
" />
<path d="M56231 25909
L56362 25909
" />
<path d="M56418 26115
L56231 26115
L56231 25721
L56418 25721
" />
<path d="M56587 26115
L56587 25721
L56681 25721
L56737 25740
L56774 25778
L56793 25815
L56812 25890
L56812 25946
L56793 26021
L56774 26059
L56737 26096
L56681 26115
L56587 26115
" />
<text x="47812.6" y="41134.4"
textLength="3226.38" font-size="524.934" lengthAdjust="spacingAndGlyphs"
text-anchor="middle" opacity="0">MX-NoLED</text>
<path d="M46331 41115
L46331 40722
L46462 41003
L46594 40722
L46594 41115
" />
<path d="M46743 40722
L47006 41115
" />
<path d="M47006 40722
L46743 41115
" />
<path d="M47156 40965
L47456 40965
" />
<path d="M47643 41115
L47643 40722
L47868 41115
L47868 40722
" />
<path d="M48112 41115
L48075 41096
L48056 41078
L48037 41040
L48037 40928
L48056 40890
L48075 40871
L48112 40853
L48168 40853
L48206 40871
L48225 40890
L48243 40928
L48243 41040
L48225 41078
L48206 41096
L48168 41115
L48112 41115
" />
<path d="M48600 41115
L48412 41115
L48412 40722
" />
<path d="M48731 40909
L48862 40909
" />
<path d="M48918 41115
L48731 41115
L48731 40722
L48918 40722
" />
<path d="M49087 41115
L49087 40722
L49181 40722
L49237 40740
L49274 40778
L49293 40815
L49312 40890
L49312 40946
L49293 41021
L49274 41059
L49237 41096
L49181 41115
L49087 41115
" />
<text x="40312.6" y="48634.4"
textLength="3226.38" font-size="524.934" lengthAdjust="spacingAndGlyphs"
text-anchor="middle" opacity="0">MX-NoLED</text>
<path d="M38831 48615
L38831 48222
L38962 48503
L39094 48222
L39094 48615
" />
<path d="M39243 48222
L39506 48615
" />
<path d="M39506 48222
L39243 48615
" />
<path d="M39656 48465
L39956 48465
" />
<path d="M40143 48615
L40143 48222
L40368 48615
L40368 48222
" />
<path d="M40612 48615
L40575 48596
L40556 48578
L40537 48540
L40537 48428
L40556 48390
L40575 48371
L40612 48353
L40668 48353
L40706 48371
L40725 48390
L40743 48428
L40743 48540
L40725 48578
L40706 48596
L40668 48615
L40612 48615
" />
<path d="M41100 48615
L40912 48615
L40912 48222
" />
<path d="M41231 48409
L41362 48409
" />
<path d="M41418 48615
L41231 48615
L41231 48222
L41418 48222
" />
<path d="M41587 48615
L41587 48222
L41681 48222
L41737 48240
L41774 48278
L41793 48315
L41812 48390
L41812 48446
L41793 48521
L41774 48559
L41737 48596
L41681 48615
L41587 48615
" />
<text x="55312.6" y="48634.4"
textLength="3226.38" font-size="524.934" lengthAdjust="spacingAndGlyphs"
text-anchor="middle" opacity="0">MX-NoLED</text>
<path d="M53831 48615
L53831 48222
L53962 48503
L54094 48222
L54094 48615
" />
<path d="M54243 48222
L54506 48615
" />
<path d="M54506 48222
L54243 48615
" />
<path d="M54656 48465
L54956 48465
" />
<path d="M55143 48615
L55143 48222
L55368 48615
L55368 48222
" />
<path d="M55612 48615
L55575 48596
L55556 48578
L55537 48540
L55537 48428
L55556 48390
L55575 48371
L55612 48353
L55668 48353
L55706 48371
L55725 48390
L55743 48428
L55743 48540
L55725 48578
L55706 48596
L55668 48615
L55612 48615
" />
<path d="M56100 48615
L55912 48615
L55912 48222
" />
<path d="M56231 48409
L56362 48409
" />
<path d="M56418 48615
L56231 48615
L56231 48222
L56418 48222
" />
<path d="M56587 48615
L56587 48222
L56681 48222
L56737 48240
L56774 48278
L56793 48315
L56812 48390
L56812 48446
L56793 48521
L56774 48559
L56737 48596
L56681 48615
L56587 48615
" />
<text x="55312.6" y="41134.4"
textLength="3226.38" font-size="524.934" lengthAdjust="spacingAndGlyphs"
text-anchor="middle" opacity="0">MX-NoLED</text>
<path d="M53831 41115
L53831 40722
L53962 41003
L54094 40722
L54094 41115
" />
<path d="M54243 40722
L54506 41115
" />
<path d="M54506 40722
L54243 41115
" />
<path d="M54656 40965
L54956 40965
" />
<path d="M55143 41115
L55143 40722
L55368 41115
L55368 40722
" />
<path d="M55612 41115
L55575 41096
L55556 41078
L55537 41040
L55537 40928
L55556 40890
L55575 40871
L55612 40853
L55668 40853
L55706 40871
L55725 40890
L55743 40928
L55743 41040
L55725 41078
L55706 41096
L55668 41115
L55612 41115
" />
<path d="M56100 41115
L55912 41115
L55912 40722
" />
<path d="M56231 40909
L56362 40909
" />
<path d="M56418 41115
L56231 41115
L56231 40722
L56418 40722
" />
<path d="M56587 41115
L56587 40722
L56681 40722
L56737 40740
L56774 40778
L56793 40815
L56812 40890
L56812 40946
L56793 41021
L56774 41059
L56737 41096
L56681 41115
L56587 41115
" />
<text x="55312.6" y="33634.4"
textLength="3226.38" font-size="524.934" lengthAdjust="spacingAndGlyphs"
text-anchor="middle" opacity="0">MX-NoLED</text>
<path d="M53831 33615
L53831 33221
L53962 33503
L54094 33221
L54094 33615
" />
<path d="M54243 33221
L54506 33615
" />
<path d="M54506 33221
L54243 33615
" />
<path d="M54656 33465
L54956 33465
" />
<path d="M55143 33615
L55143 33221
L55368 33615
L55368 33221
" />
<path d="M55612 33615
L55575 33596
L55556 33578
L55537 33540
L55537 33428
L55556 33390
L55575 33371
L55612 33353
L55668 33353
L55706 33371
L55725 33390
L55743 33428
L55743 33540
L55725 33578
L55706 33596
L55668 33615
L55612 33615
" />
<path d="M56100 33615
L55912 33615
L55912 33221
" />
<path d="M56231 33409
L56362 33409
" />
<path d="M56418 33615
L56231 33615
L56231 33221
L56418 33221
" />
<path d="M56587 33615
L56587 33221
L56681 33221
L56737 33240
L56774 33278
L56793 33315
L56812 33390
L56812 33446
L56793 33521
L56774 33559
L56737 33596
L56681 33615
L56587 33615
" />
<text x="55312.6" y="56134.4"
textLength="3226.38" font-size="524.934" lengthAdjust="spacingAndGlyphs"
text-anchor="middle" opacity="0">MX-NoLED</text>
<path d="M53831 56115
L53831 55722
L53962 56003
L54094 55722
L54094 56115
" />
<path d="M54243 55722
L54506 56115
" />
<path d="M54506 55722
L54243 56115
" />
<path d="M54656 55965
L54956 55965
" />
<path d="M55143 56115
L55143 55722
L55368 56115
L55368 55722
" />
<path d="M55612 56115
L55575 56096
L55556 56078
L55537 56040
L55537 55928
L55556 55890
L55575 55871
L55612 55853
L55668 55853
L55706 55871
L55725 55890
L55743 55928
L55743 56040
L55725 56078
L55706 56096
L55668 56115
L55612 56115
" />
<path d="M56100 56115
L55912 56115
L55912 55722
" />
<path d="M56231 55909
L56362 55909
" />
<path d="M56418 56115
L56231 56115
L56231 55722
L56418 55722
" />
<path d="M56587 56115
L56587 55722
L56681 55722
L56737 55740
L56774 55778
L56793 55815
L56812 55890
L56812 55946
L56793 56021
L56774 56059
L56737 56096
L56681 56115
L56587 56115
" />
<text x="47812.6" y="48634.4"
textLength="3226.38" font-size="524.934" lengthAdjust="spacingAndGlyphs"
text-anchor="middle" opacity="0">MX-NoLED</text>
<path d="M46331 48615
L46331 48222
L46462 48503
L46594 48222
L46594 48615
" />
<path d="M46743 48222
L47006 48615
" />
<path d="M47006 48222
L46743 48615
" />
<path d="M47156 48465
L47456 48465
" />
<path d="M47643 48615
L47643 48222
L47868 48615
L47868 48222
" />
<path d="M48112 48615
L48075 48596
L48056 48578
L48037 48540
L48037 48428
L48056 48390
L48075 48371
L48112 48353
L48168 48353
L48206 48371
L48225 48390
L48243 48428
L48243 48540
L48225 48578
L48206 48596
L48168 48615
L48112 48615
" />
<path d="M48600 48615
L48412 48615
L48412 48222
" />
<path d="M48731 48409
L48862 48409
" />
<path d="M48918 48615
L48731 48615
L48731 48222
L48918 48222
" />
<path d="M49087 48615
L49087 48222
L49181 48222
L49237 48240
L49274 48278
L49293 48315
L49312 48390
L49312 48446
L49293 48521
L49274 48559
L49237 48596
L49181 48615
L49087 48615
" />
<text x="47812.6" y="33634.4"
textLength="3226.38" font-size="524.934" lengthAdjust="spacingAndGlyphs"
text-anchor="middle" opacity="0">MX-NoLED</text>
<path d="M46331 33615
L46331 33221
L46462 33503
L46594 33221
L46594 33615
" />
<path d="M46743 33221
L47006 33615
" />
<path d="M47006 33221
L46743 33615
" />
<path d="M47156 33465
L47456 33465
" />
<path d="M47643 33615
L47643 33221
L47868 33615
L47868 33221
" />
<path d="M48112 33615
L48075 33596
L48056 33578
L48037 33540
L48037 33428
L48056 33390
L48075 33371
L48112 33353
L48168 33353
L48206 33371
L48225 33390
L48243 33428
L48243 33540
L48225 33578
L48206 33596
L48168 33615
L48112 33615
" />
<path d="M48600 33615
L48412 33615
L48412 33221
" />
<path d="M48731 33409
L48862 33409
" />
<path d="M48918 33615
L48731 33615
L48731 33221
L48918 33221
" />
<path d="M49087 33615
L49087 33221
L49181 33221
L49237 33240
L49274 33278
L49293 33315
L49312 33390
L49312 33446
L49293 33521
L49274 33559
L49237 33596
L49181 33615
L49087 33615
" />
<text x="47812.6" y="26134.4"
textLength="3226.38" font-size="524.934" lengthAdjust="spacingAndGlyphs"
text-anchor="middle" opacity="0">MX-NoLED</text>
<path d="M46331 26115
L46331 25721
L46462 26003
L46594 25721
L46594 26115
" />
<path d="M46743 25721
L47006 26115
" />
<path d="M47006 25721
L46743 26115
" />
<path d="M47156 25965
L47456 25965
" />
<path d="M47643 26115
L47643 25721
L47868 26115
L47868 25721
" />
<path d="M48112 26115
L48075 26096
L48056 26078
L48037 26040
L48037 25928
L48056 25890
L48075 25871
L48112 25853
L48168 25853
L48206 25871
L48225 25890
L48243 25928
L48243 26040
L48225 26078
L48206 26096
L48168 26115
L48112 26115
" />
<path d="M48600 26115
L48412 26115
L48412 25721
" />
<path d="M48731 25909
L48862 25909
" />
<path d="M48918 26115
L48731 26115
L48731 25721
L48918 25721
" />
<path d="M49087 26115
L49087 25721
L49181 25721
L49237 25740
L49274 25778
L49293 25815
L49312 25890
L49312 25946
L49293 26021
L49274 26059
L49237 26096
L49181 26115
L49087 26115
" />
<text x="40312.6" y="41134.4"
textLength="3226.38" font-size="524.934" lengthAdjust="spacingAndGlyphs"
text-anchor="middle" opacity="0">MX-NoLED</text>
<path d="M38831 41115
L38831 40722
L38962 41003
L39094 40722
L39094 41115
" />
<path d="M39243 40722
L39506 41115
" />
<path d="M39506 40722
L39243 41115
" />
<path d="M39656 40965
L39956 40965
" />
<path d="M40143 41115
L40143 40722
L40368 41115
L40368 40722
" />
<path d="M40612 41115
L40575 41096
L40556 41078
L40537 41040
L40537 40928
L40556 40890
L40575 40871
L40612 40853
L40668 40853
L40706 40871
L40725 40890
L40743 40928
L40743 41040
L40725 41078
L40706 41096
L40668 41115
L40612 41115
" />
<path d="M41100 41115
L40912 41115
L40912 40722
" />
<path d="M41231 40909
L41362 40909
" />
<path d="M41418 41115
L41231 41115
L41231 40722
L41418 40722
" />
<path d="M41587 41115
L41587 40722
L41681 40722
L41737 40740
L41774 40778
L41793 40815
L41812 40890
L41812 40946
L41793 41021
L41774 41059
L41737 41096
L41681 41115
L41587 41115
" />
<text x="40312.6" y="33634.4"
textLength="3226.38" font-size="524.934" lengthAdjust="spacingAndGlyphs"
text-anchor="middle" opacity="0">MX-NoLED</text>
<path d="M38831 33615
L38831 33221
L38962 33503
L39094 33221
L39094 33615
" />
<path d="M39243 33221
L39506 33615
" />
<path d="M39506 33221
L39243 33615
" />
<path d="M39656 33465
L39956 33465
" />
<path d="M40143 33615
L40143 33221
L40368 33615
L40368 33221
" />
<path d="M40612 33615
L40575 33596
L40556 33578
L40537 33540
L40537 33428
L40556 33390
L40575 33371
L40612 33353
L40668 33353
L40706 33371
L40725 33390
L40743 33428
L40743 33540
L40725 33578
L40706 33596
L40668 33615
L40612 33615
" />
<path d="M41100 33615
L40912 33615
L40912 33221
" />
<path d="M41231 33409
L41362 33409
" />
<path d="M41418 33615
L41231 33615
L41231 33221
L41418 33221
" />
<path d="M41587 33615
L41587 33221
L41681 33221
L41737 33240
L41774 33278
L41793 33315
L41812 33390
L41812 33446
L41793 33521
L41774 33559
L41737 33596
L41681 33615
L41587 33615
" />
<text x="40312.6" y="26134.4"
textLength="3226.38" font-size="524.934" lengthAdjust="spacingAndGlyphs"
text-anchor="middle" opacity="0">MX-NoLED</text>
<path d="M38831 26115
L38831 25721
L38962 26003
L39094 25721
L39094 26115
" />
<path d="M39243 25721
L39506 26115
" />
<path d="M39506 25721
L39243 26115
" />
<path d="M39656 25965
L39956 25965
" />
<path d="M40143 26115
L40143 25721
L40368 26115
L40368 25721
" />
<path d="M40612 26115
L40575 26096
L40556 26078
L40537 26040
L40537 25928
L40556 25890
L40575 25871
L40612 25853
L40668 25853
L40706 25871
L40725 25890
L40743 25928
L40743 26040
L40725 26078
L40706 26096
L40668 26115
L40612 26115
" />
<path d="M41100 26115
L40912 26115
L40912 25721
" />
<path d="M41231 25909
L41362 25909
" />
<path d="M41418 26115
L41231 26115
L41231 25721
L41418 25721
" />
<path d="M41587 26115
L41587 25721
L41681 25721
L41737 25740
L41774 25778
L41793 25815
L41812 25890
L41812 25946
L41793 26021
L41774 26059
L41737 26096
L41681 26115
L41587 26115
" />
<g >
</g>
</g>
<g style="fill:#000000; fill-opacity:0.0; 
stroke:#000000; stroke-width:59.0551; stroke-opacity:1; 
stroke-linecap:round; stroke-linejoin:round;">
</g>
<g style="fill:#C2C200; fill-opacity:0.0; 
stroke:#C2C200; stroke-width:59.0551; stroke-opacity:1; 
stroke-linecap:round; stroke-linejoin:round;">
</g>
<g style="fill:#C2C200; fill-opacity:0.0; 
stroke:#C2C200; stroke-width:19.685; stroke-opacity:1; 
stroke-linecap:round; stroke-linejoin:round;">
<path d="M35625 11562
L78750 11562
" />
<path d="M79062.5 11875 A312.5 312.5 0.0 0 0 78750 11562.5" />
<path d="M35312 63750
L35312 11875
" />
<path d="M35312.5 63750 A312.5 312.5 0.0 0 0 35625 64062.5" />
<path d="M78750 64062.5 A312.5 312.5 0.0 0 0 79062.5 63750" />
<path d="M35625 11562.5 A312.5 312.5 0.0 0 0 35312.5 11875" />
<path d="M35625 64062
L78750 64062
" />
<path d="M79062 11875
L79062 63750
" />
<g >
</g>
<g >
</g>
<g >
</g>
<g >
</g>
<g >
</g>
<g >
</g>
<g >
</g>
<g >
</g>
<g >
</g>
<g >
</g>
<g >
</g>
<g >
</g>
<g >
</g>
<g >
</g>
<g >
</g>
<g >
</g>
<g >
</g>
<g >
</g>
<g >
</g>
<g >
</g>
<g >
</g>
<g >
</g>
<g >
</g>
<g >
</g>
<g >
</g>
<g >
</g>
<g >
</g>
<g >
</g>
<g >
</g>
<g >
</g>
<g >
</g>
<g >
</g>
<g >
</g>
<g >
</g>
<g >
</g>
<g >
</g>
<g >
</g>
<g >
</g>
<g >
</g>
<g >
</g>
<g >
</g>
<g >
</g>
<g >
</g>
<g >
</g>
<g >
</g>
<g >
</g>
<g >
</g>
<g >
</g>
<g >
</g>
<g >
</g>
<g >
</g>
<g >
</g>
<g >
</g>
<g >
</g>
<g >
</g>
<g >
</g>
<g >
</g>
<g >
</g>
<g >
</g>
<g >
</g>
<g >
</g>
<g >
</g>
<g >
</g>
<g >
</g>
<g >
</g>
<g >
</g>
<g >
</g>
<g >
</g>
<g >
</g>
<g >
</g>
<g >
</g>
<g >
</g>
<g >
</g>
<g >
</g>
<g >
</g>
<g >
</g>
<g >
</g>
<g >
</g>
</g> 
</svg>
