solid CATIA STL
  facet normal  0.000000e+000  -0.000000e+000  1.000000e+000
    outer loop
      vertex  1.102182e-016  1.800000e+000  2.000000e+000
      vertex  3.511626e-001  1.765414e+000  2.000000e+000
      vertex  2.548404e+000  1.851524e+000  2.000000e+000
    endloop
  endfacet
  facet normal  0.000000e+000  0.000000e+000  9.999999e-001
    outer loop
      vertex  1.102182e-016  1.800000e+000  2.000000e+000
      vertex  2.548404e+000  1.851524e+000  2.000000e+000
      vertex  2.227386e+000  2.227386e+000  2.000000e+000
    endloop
  endfacet
  facet normal  0.000000e+000  0.000000e+000  1.000000e+000
    outer loop
      vertex  1.102182e-016  1.800000e+000  2.000000e+000
      vertex  2.227386e+000  2.227386e+000  2.000000e+000
      vertex  1.851524e+000  2.548404e+000  2.000000e+000
    endloop
  endfacet
  facet normal  0.000000e+000  0.000000e+000  1.000000e+000
    outer loop
      vertex  1.102182e-016  1.800000e+000  2.000000e+000
      vertex  1.851524e+000  2.548404e+000  2.000000e+000
      vertex  1.430070e+000  2.806671e+000  2.000000e+000
    endloop
  endfacet
  facet normal  0.000000e+000  0.000000e+000  9.999999e-001
    outer loop
      vertex  1.102182e-016  1.800000e+000  2.000000e+000
      vertex  1.430070e+000  2.806671e+000  2.000000e+000
      vertex  9.734035e-001  2.995828e+000  2.000000e+000
    endloop
  endfacet
  facet normal  0.000000e+000  0.000000e+000  1.000000e+000
    outer loop
      vertex  1.102182e-016  1.800000e+000  2.000000e+000
      vertex  9.734035e-001  2.995828e+000  2.000000e+000
      vertex  4.927686e-001  3.111218e+000  2.000000e+000
    endloop
  endfacet
  facet normal  0.000000e+000  0.000000e+000  1.000000e+000
    outer loop
      vertex  1.102182e-016  1.800000e+000  2.000000e+000
      vertex  4.927686e-001  3.111218e+000  2.000000e+000
      vertex  1.928819e-016  3.150000e+000  2.000000e+000
    endloop
  endfacet
  facet normal  0.000000e+000  0.000000e+000  1.000000e+000
    outer loop
      vertex  1.102182e-016  1.800000e+000  2.000000e+000
      vertex  1.928819e-016  3.150000e+000  2.000000e+000
      vertex -4.927686e-001  3.111218e+000  2.000000e+000
    endloop
  endfacet
  facet normal  0.000000e+000  0.000000e+000  1.000000e+000
    outer loop
      vertex  1.102182e-016  1.800000e+000  2.000000e+000
      vertex -4.927686e-001  3.111218e+000  2.000000e+000
      vertex -9.734035e-001  2.995828e+000  2.000000e+000
    endloop
  endfacet
  facet normal  0.000000e+000  0.000000e+000  9.999999e-001
    outer loop
      vertex  1.102182e-016  1.800000e+000  2.000000e+000
      vertex -9.734035e-001  2.995828e+000  2.000000e+000
      vertex -1.430070e+000  2.806671e+000  2.000000e+000
    endloop
  endfacet
  facet normal  0.000000e+000  0.000000e+000  9.999999e-001
    outer loop
      vertex  1.102182e-016  1.800000e+000  2.000000e+000
      vertex -1.430070e+000  2.806671e+000  2.000000e+000
      vertex -1.851524e+000  2.548404e+000  2.000000e+000
    endloop
  endfacet
  facet normal  0.000000e+000  0.000000e+000  1.000000e+000
    outer loop
      vertex  1.102182e-016  1.800000e+000  2.000000e+000
      vertex -1.851524e+000  2.548404e+000  2.000000e+000
      vertex -2.227386e+000  2.227386e+000  2.000000e+000
    endloop
  endfacet
  facet normal  0.000000e+000  0.000000e+000  9.999999e-001
    outer loop
      vertex  1.102182e-016  1.800000e+000  2.000000e+000
      vertex -2.227386e+000  2.227386e+000  2.000000e+000
      vertex -2.548404e+000  1.851524e+000  2.000000e+000
    endloop
  endfacet
  facet normal  0.000000e+000  0.000000e+000  9.999999e-001
    outer loop
      vertex  1.102182e-016  1.800000e+000  2.000000e+000
      vertex -2.548404e+000  1.851524e+000  2.000000e+000
      vertex -3.511626e-001  1.765414e+000  2.000000e+000
    endloop
  endfacet
  facet normal  0.000000e+000  0.000000e+000  1.000000e+000
    outer loop
      vertex -2.548404e+000 -1.851524e+000  2.000000e+000
      vertex -5.786456e-016 -3.150000e+000  2.000000e+000
      vertex -1.929376e-015 -1.800000e+000  2.000000e+000
    endloop
  endfacet
  facet normal  0.000000e+000  0.000000e+000  1.000000e+000
    outer loop
      vertex -2.548404e+000 -1.851524e+000  2.000000e+000
      vertex -1.929376e-015 -1.800000e+000  2.000000e+000
      vertex -3.511626e-001 -1.765414e+000  2.000000e+000
    endloop
  endfacet
  facet normal  0.000000e+000  0.000000e+000  1.000000e+000
    outer loop
      vertex -2.548404e+000 -1.851524e+000  2.000000e+000
      vertex -3.511626e-001 -1.765414e+000  2.000000e+000
      vertex -6.888302e-001 -1.662983e+000  2.000000e+000
    endloop
  endfacet
  facet normal  0.000000e+000  0.000000e+000  1.000000e+000
    outer loop
      vertex -2.548404e+000 -1.851524e+000  2.000000e+000
      vertex -6.888302e-001 -1.662983e+000  2.000000e+000
      vertex -1.000026e+000 -1.496645e+000  2.000000e+000
    endloop
  endfacet
  facet normal  0.000000e+000  0.000000e+000  1.000000e+000
    outer loop
      vertex -2.548404e+000 -1.851524e+000  2.000000e+000
      vertex -1.000026e+000 -1.496645e+000  2.000000e+000
      vertex -2.806671e+000 -1.430070e+000  2.000000e+000
    endloop
  endfacet
  facet normal  0.000000e+000  0.000000e+000  1.000000e+000
    outer loop
      vertex -5.786456e-016 -3.150000e+000  2.000000e+000
      vertex -2.548404e+000 -1.851524e+000  2.000000e+000
      vertex -2.227386e+000 -2.227386e+000  2.000000e+000
    endloop
  endfacet
  facet normal  0.000000e+000  0.000000e+000  1.000000e+000
    outer loop
      vertex -5.786456e-016 -3.150000e+000  2.000000e+000
      vertex -2.227386e+000 -2.227386e+000  2.000000e+000
      vertex -1.851524e+000 -2.548404e+000  2.000000e+000
    endloop
  endfacet
  facet normal  0.000000e+000  0.000000e+000  1.000000e+000
    outer loop
      vertex -5.786456e-016 -3.150000e+000  2.000000e+000
      vertex -1.851524e+000 -2.548404e+000  2.000000e+000
      vertex -1.430070e+000 -2.806671e+000  2.000000e+000
    endloop
  endfacet
  facet normal  0.000000e+000  0.000000e+000  1.000000e+000
    outer loop
      vertex -5.786456e-016 -3.150000e+000  2.000000e+000
      vertex -1.430070e+000 -2.806671e+000  2.000000e+000
      vertex -9.734035e-001 -2.995828e+000  2.000000e+000
    endloop
  endfacet
  facet normal  0.000000e+000  0.000000e+000  1.000000e+000
    outer loop
      vertex -5.786456e-016 -3.150000e+000  2.000000e+000
      vertex -9.734035e-001 -2.995828e+000  2.000000e+000
      vertex -4.927686e-001 -3.111218e+000  2.000000e+000
    endloop
  endfacet
  facet normal  0.000000e+000  0.000000e+000  1.000000e+000
    outer loop
      vertex  2.548404e+000 -1.851524e+000  2.000000e+000
      vertex  2.806671e+000 -1.430070e+000  2.000000e+000
      vertex  1.000026e+000 -1.496645e+000  2.000000e+000
    endloop
  endfacet
  facet normal  0.000000e+000  0.000000e+000  1.000000e+000
    outer loop
      vertex  2.548404e+000 -1.851524e+000  2.000000e+000
      vertex  1.000026e+000 -1.496645e+000  2.000000e+000
      vertex  6.888302e-001 -1.662983e+000  2.000000e+000
    endloop
  endfacet
  facet normal  0.000000e+000  0.000000e+000  1.000000e+000
    outer loop
      vertex  2.548404e+000 -1.851524e+000  2.000000e+000
      vertex  6.888302e-001 -1.662983e+000  2.000000e+000
      vertex  3.511626e-001 -1.765414e+000  2.000000e+000
    endloop
  endfacet
  facet normal  0.000000e+000  0.000000e+000  1.000000e+000
    outer loop
      vertex  2.548404e+000 -1.851524e+000  2.000000e+000
      vertex  3.511626e-001 -1.765414e+000  2.000000e+000
      vertex -1.929376e-015 -1.800000e+000  2.000000e+000
    endloop
  endfacet
  facet normal  0.000000e+000  -0.000000e+000  1.000000e+000
    outer loop
      vertex -5.786456e-016 -3.150000e+000  2.000000e+000
      vertex  4.927686e-001 -3.111218e+000  2.000000e+000
      vertex  9.734035e-001 -2.995828e+000  2.000000e+000
    endloop
  endfacet
  facet normal  0.000000e+000  -0.000000e+000  1.000000e+000
    outer loop
      vertex -5.786456e-016 -3.150000e+000  2.000000e+000
      vertex  9.734035e-001 -2.995828e+000  2.000000e+000
      vertex  1.430070e+000 -2.806671e+000  2.000000e+000
    endloop
  endfacet
  facet normal  0.000000e+000  -0.000000e+000  1.000000e+000
    outer loop
      vertex -5.786456e-016 -3.150000e+000  2.000000e+000
      vertex  1.430070e+000 -2.806671e+000  2.000000e+000
      vertex  1.851524e+000 -2.548404e+000  2.000000e+000
    endloop
  endfacet
  facet normal  0.000000e+000  -0.000000e+000  1.000000e+000
    outer loop
      vertex -5.786456e-016 -3.150000e+000  2.000000e+000
      vertex  1.851524e+000 -2.548404e+000  2.000000e+000
      vertex  2.227386e+000 -2.227386e+000  2.000000e+000
    endloop
  endfacet
  facet normal  0.000000e+000  -0.000000e+000  1.000000e+000
    outer loop
      vertex -5.786456e-016 -3.150000e+000  2.000000e+000
      vertex  2.227386e+000 -2.227386e+000  2.000000e+000
      vertex  2.548404e+000 -1.851524e+000  2.000000e+000
    endloop
  endfacet
  facet normal  0.000000e+000  0.000000e+000  1.000000e+000
    outer loop
      vertex -5.786456e-016 -3.150000e+000  2.000000e+000
      vertex  2.548404e+000 -1.851524e+000  2.000000e+000
      vertex -1.929376e-015 -1.800000e+000  2.000000e+000
    endloop
  endfacet
  facet normal  0.000000e+000  0.000000e+000  1.000000e+000
    outer loop
      vertex -3.511626e-001  1.765414e+000  2.000000e+000
      vertex -2.548404e+000  1.851524e+000  2.000000e+000
      vertex -6.888302e-001  1.662983e+000  2.000000e+000
    endloop
  endfacet
  facet normal  0.000000e+000  0.000000e+000  1.000000e+000
    outer loop
      vertex -6.888302e-001  1.662983e+000  2.000000e+000
      vertex -2.548404e+000  1.851524e+000  2.000000e+000
      vertex -2.806671e+000  1.430070e+000  2.000000e+000
    endloop
  endfacet
  facet normal  0.000000e+000  0.000000e+000  1.000000e+000
    outer loop
      vertex -6.888302e-001  1.662983e+000  2.000000e+000
      vertex -2.806671e+000  1.430070e+000  2.000000e+000
      vertex -1.000026e+000  1.496645e+000  2.000000e+000
    endloop
  endfacet
  facet normal  -0.000000e+000  0.000000e+000  1.000000e+000
    outer loop
      vertex -1.000026e+000  1.496645e+000  2.000000e+000
      vertex -2.806671e+000  1.430070e+000  2.000000e+000
      vertex -1.272792e+000  1.272792e+000  2.000000e+000
    endloop
  endfacet
  facet normal  0.000000e+000  0.000000e+000  1.000000e+000
    outer loop
      vertex -1.272792e+000  1.272792e+000  2.000000e+000
      vertex -2.806671e+000  1.430070e+000  2.000000e+000
      vertex -2.995828e+000  9.734035e-001  2.000000e+000
    endloop
  endfacet
  facet normal  0.000000e+000  0.000000e+000  1.000000e+000
    outer loop
      vertex -1.272792e+000  1.272792e+000  2.000000e+000
      vertex -2.995828e+000  9.734035e-001  2.000000e+000
      vertex -1.496645e+000  1.000026e+000  2.000000e+000
    endloop
  endfacet
  facet normal  -0.000000e+000  0.000000e+000  1.000000e+000
    outer loop
      vertex -1.496645e+000  1.000026e+000  2.000000e+000
      vertex -2.995828e+000  9.734035e-001  2.000000e+000
      vertex -1.662983e+000  6.888302e-001  2.000000e+000
    endloop
  endfacet
  facet normal  0.000000e+000  0.000000e+000  1.000000e+000
    outer loop
      vertex -1.662983e+000  6.888302e-001  2.000000e+000
      vertex -2.995828e+000  9.734035e-001  2.000000e+000
      vertex -3.111218e+000  4.927686e-001  2.000000e+000
    endloop
  endfacet
  facet normal  -0.000000e+000  0.000000e+000  1.000000e+000
    outer loop
      vertex -1.662983e+000  6.888302e-001  2.000000e+000
      vertex -3.111218e+000  4.927686e-001  2.000000e+000
      vertex -1.765414e+000  3.511626e-001  2.000000e+000
    endloop
  endfacet
  facet normal  0.000000e+000  0.000000e+000  9.999999e-001
    outer loop
      vertex -1.765414e+000  3.511626e-001  2.000000e+000
      vertex -3.111218e+000  4.927686e-001  2.000000e+000
      vertex -1.800000e+000  2.204364e-016  2.000000e+000
    endloop
  endfacet
  facet normal  0.000000e+000  0.000000e+000  1.000000e+000
    outer loop
      vertex -1.800000e+000  2.204364e-016  2.000000e+000
      vertex -3.111218e+000  4.927686e-001  2.000000e+000
      vertex -3.150000e+000  3.857637e-016  2.000000e+000
    endloop
  endfacet
  facet normal  0.000000e+000  0.000000e+000  1.000000e+000
    outer loop
      vertex -1.800000e+000  2.204364e-016  2.000000e+000
      vertex -3.150000e+000  3.857637e-016  2.000000e+000
      vertex -1.765414e+000 -3.511626e-001  2.000000e+000
    endloop
  endfacet
  facet normal  0.000000e+000  0.000000e+000  1.000000e+000
    outer loop
      vertex -1.765414e+000 -3.511626e-001  2.000000e+000
      vertex -3.150000e+000  3.857637e-016  2.000000e+000
      vertex -3.111218e+000 -4.927686e-001  2.000000e+000
    endloop
  endfacet
  facet normal  -0.000000e+000  0.000000e+000  1.000000e+000
    outer loop
      vertex -1.765414e+000 -3.511626e-001  2.000000e+000
      vertex -3.111218e+000 -4.927686e-001  2.000000e+000
      vertex -1.662983e+000 -6.888302e-001  2.000000e+000
    endloop
  endfacet
  facet normal  0.000000e+000  0.000000e+000  1.000000e+000
    outer loop
      vertex -1.662983e+000 -6.888302e-001  2.000000e+000
      vertex -3.111218e+000 -4.927686e-001  2.000000e+000
      vertex -2.995828e+000 -9.734035e-001  2.000000e+000
    endloop
  endfacet
  facet normal  -0.000000e+000  0.000000e+000  1.000000e+000
    outer loop
      vertex -1.662983e+000 -6.888302e-001  2.000000e+000
      vertex -2.995828e+000 -9.734035e-001  2.000000e+000
      vertex -1.496645e+000 -1.000026e+000  2.000000e+000
    endloop
  endfacet
  facet normal  0.000000e+000  0.000000e+000  1.000000e+000
    outer loop
      vertex -1.496645e+000 -1.000026e+000  2.000000e+000
      vertex -2.995828e+000 -9.734035e-001  2.000000e+000
      vertex -1.272792e+000 -1.272792e+000  2.000000e+000
    endloop
  endfacet
  facet normal  0.000000e+000  0.000000e+000  1.000000e+000
    outer loop
      vertex -1.272792e+000 -1.272792e+000  2.000000e+000
      vertex -2.995828e+000 -9.734035e-001  2.000000e+000
      vertex -2.806671e+000 -1.430070e+000  2.000000e+000
    endloop
  endfacet
  facet normal  -0.000000e+000  0.000000e+000  1.000000e+000
    outer loop
      vertex -1.272792e+000 -1.272792e+000  2.000000e+000
      vertex -2.806671e+000 -1.430070e+000  2.000000e+000
      vertex -1.000026e+000 -1.496645e+000  2.000000e+000
    endloop
  endfacet
  facet normal  -0.000000e+000  0.000000e+000  1.000000e+000
    outer loop
      vertex  2.548404e+000  1.851524e+000  2.000000e+000
      vertex  3.511626e-001  1.765414e+000  2.000000e+000
      vertex  2.806671e+000  1.430070e+000  2.000000e+000
    endloop
  endfacet
  facet normal  0.000000e+000  0.000000e+000  1.000000e+000
    outer loop
      vertex  2.806671e+000  1.430070e+000  2.000000e+000
      vertex  3.511626e-001  1.765414e+000  2.000000e+000
      vertex  6.888302e-001  1.662983e+000  2.000000e+000
    endloop
  endfacet
  facet normal  0.000000e+000  0.000000e+000  1.000000e+000
    outer loop
      vertex  2.806671e+000  1.430070e+000  2.000000e+000
      vertex  6.888302e-001  1.662983e+000  2.000000e+000
      vertex  1.000026e+000  1.496645e+000  2.000000e+000
    endloop
  endfacet
  facet normal  0.000000e+000  0.000000e+000  1.000000e+000
    outer loop
      vertex  2.806671e+000  1.430070e+000  2.000000e+000
      vertex  1.000026e+000  1.496645e+000  2.000000e+000
      vertex  2.995828e+000  9.734035e-001  2.000000e+000
    endloop
  endfacet
  facet normal  0.000000e+000  0.000000e+000  1.000000e+000
    outer loop
      vertex  2.995828e+000  9.734035e-001  2.000000e+000
      vertex  1.000026e+000  1.496645e+000  2.000000e+000
      vertex  1.272792e+000  1.272792e+000  2.000000e+000
    endloop
  endfacet
  facet normal  0.000000e+000  0.000000e+000  1.000000e+000
    outer loop
      vertex  2.995828e+000  9.734035e-001  2.000000e+000
      vertex  1.272792e+000  1.272792e+000  2.000000e+000
      vertex  1.496645e+000  1.000026e+000  2.000000e+000
    endloop
  endfacet
  facet normal  0.000000e+000  0.000000e+000  1.000000e+000
    outer loop
      vertex  2.995828e+000  9.734035e-001  2.000000e+000
      vertex  1.496645e+000  1.000026e+000  2.000000e+000
      vertex  3.111218e+000  4.927686e-001  2.000000e+000
    endloop
  endfacet
  facet normal  0.000000e+000  0.000000e+000  9.999999e-001
    outer loop
      vertex  3.111218e+000  4.927686e-001  2.000000e+000
      vertex  1.496645e+000  1.000026e+000  2.000000e+000
      vertex  1.662983e+000  6.888302e-001  2.000000e+000
    endloop
  endfacet
  facet normal  0.000000e+000  0.000000e+000  1.000000e+000
    outer loop
      vertex  3.111218e+000  4.927686e-001  2.000000e+000
      vertex  1.662983e+000  6.888302e-001  2.000000e+000
      vertex  1.765414e+000  3.511626e-001  2.000000e+000
    endloop
  endfacet
  facet normal  -0.000000e+000  0.000000e+000  1.000000e+000
    outer loop
      vertex  3.111218e+000  4.927686e-001  2.000000e+000
      vertex  1.765414e+000  3.511626e-001  2.000000e+000
      vertex  3.150000e+000  0.000000e+000  2.000000e+000
    endloop
  endfacet
  facet normal  0.000000e+000  0.000000e+000  1.000000e+000
    outer loop
      vertex  3.150000e+000  0.000000e+000  2.000000e+000
      vertex  1.765414e+000  3.511626e-001  2.000000e+000
      vertex  1.800000e+000  0.000000e+000  2.000000e+000
    endloop
  endfacet
  facet normal  -0.000000e+000  0.000000e+000  1.000000e+000
    outer loop
      vertex  3.150000e+000  0.000000e+000  2.000000e+000
      vertex  1.800000e+000  0.000000e+000  2.000000e+000
      vertex  3.111218e+000 -4.927686e-001  2.000000e+000
    endloop
  endfacet
  facet normal  0.000000e+000  0.000000e+000  9.999999e-001
    outer loop
      vertex  3.111218e+000 -4.927686e-001  2.000000e+000
      vertex  1.800000e+000  0.000000e+000  2.000000e+000
      vertex  1.765414e+000 -3.511626e-001  2.000000e+000
    endloop
  endfacet
  facet normal  0.000000e+000  0.000000e+000  1.000000e+000
    outer loop
      vertex  3.111218e+000 -4.927686e-001  2.000000e+000
      vertex  1.765414e+000 -3.511626e-001  2.000000e+000
      vertex  2.995828e+000 -9.734035e-001  2.000000e+000
    endloop
  endfacet
  facet normal  0.000000e+000  0.000000e+000  1.000000e+000
    outer loop
      vertex  2.995828e+000 -9.734035e-001  2.000000e+000
      vertex  1.765414e+000 -3.511626e-001  2.000000e+000
      vertex  1.662983e+000 -6.888302e-001  2.000000e+000
    endloop
  endfacet
  facet normal  0.000000e+000  0.000000e+000  1.000000e+000
    outer loop
      vertex  2.995828e+000 -9.734035e-001  2.000000e+000
      vertex  1.662983e+000 -6.888302e-001  2.000000e+000
      vertex  1.496645e+000 -1.000026e+000  2.000000e+000
    endloop
  endfacet
  facet normal  -0.000000e+000  0.000000e+000  1.000000e+000
    outer loop
      vertex  2.995828e+000 -9.734035e-001  2.000000e+000
      vertex  1.496645e+000 -1.000026e+000  2.000000e+000
      vertex  2.806671e+000 -1.430070e+000  2.000000e+000
    endloop
  endfacet
  facet normal  0.000000e+000  0.000000e+000  1.000000e+000
    outer loop
      vertex  2.806671e+000 -1.430070e+000  2.000000e+000
      vertex  1.496645e+000 -1.000026e+000  2.000000e+000
      vertex  1.272792e+000 -1.272792e+000  2.000000e+000
    endloop
  endfacet
  facet normal  0.000000e+000  0.000000e+000  1.000000e+000
    outer loop
      vertex  2.806671e+000 -1.430070e+000  2.000000e+000
      vertex  1.272792e+000 -1.272792e+000  2.000000e+000
      vertex  1.000026e+000 -1.496645e+000  2.000000e+000
    endloop
  endfacet
  facet normal  0.000000e+000  0.000000e+000 -1.000000e+000
    outer loop
      vertex  1.102182e-016  1.800000e+000  0.000000e+000
      vertex -3.511626e-001  1.765414e+000  0.000000e+000
      vertex -2.548404e+000  1.851524e+000  0.000000e+000
    endloop
  endfacet
  facet normal  0.000000e+000  0.000000e+000 -9.999999e-001
    outer loop
      vertex  1.102182e-016  1.800000e+000  0.000000e+000
      vertex -2.548404e+000  1.851524e+000  0.000000e+000
      vertex -2.227386e+000  2.227386e+000  0.000000e+000
    endloop
  endfacet
  facet normal  0.000000e+000  0.000000e+000 -1.000000e+000
    outer loop
      vertex  1.102182e-016  1.800000e+000  0.000000e+000
      vertex -2.227386e+000  2.227386e+000  0.000000e+000
      vertex -1.851524e+000  2.548404e+000  0.000000e+000
    endloop
  endfacet
  facet normal  0.000000e+000  0.000000e+000 -1.000000e+000
    outer loop
      vertex  1.102182e-016  1.800000e+000  0.000000e+000
      vertex -1.851524e+000  2.548404e+000  0.000000e+000
      vertex -1.430070e+000  2.806671e+000  0.000000e+000
    endloop
  endfacet
  facet normal  0.000000e+000  0.000000e+000 -9.999999e-001
    outer loop
      vertex  1.102182e-016  1.800000e+000  0.000000e+000
      vertex -1.430070e+000  2.806671e+000  0.000000e+000
      vertex -9.734035e-001  2.995828e+000  0.000000e+000
    endloop
  endfacet
  facet normal  0.000000e+000  0.000000e+000 -1.000000e+000
    outer loop
      vertex  1.102182e-016  1.800000e+000  0.000000e+000
      vertex -9.734035e-001  2.995828e+000  0.000000e+000
      vertex -4.927686e-001  3.111218e+000  0.000000e+000
    endloop
  endfacet
  facet normal  0.000000e+000  0.000000e+000 -1.000000e+000
    outer loop
      vertex  1.102182e-016  1.800000e+000  0.000000e+000
      vertex -4.927686e-001  3.111218e+000  0.000000e+000
      vertex  1.928819e-016  3.150000e+000  0.000000e+000
    endloop
  endfacet
  facet normal  0.000000e+000  -0.000000e+000 -1.000000e+000
    outer loop
      vertex  1.102182e-016  1.800000e+000  0.000000e+000
      vertex  1.928819e-016  3.150000e+000  0.000000e+000
      vertex  4.927686e-001  3.111218e+000  0.000000e+000
    endloop
  endfacet
  facet normal  0.000000e+000  -0.000000e+000 -1.000000e+000
    outer loop
      vertex  1.102182e-016  1.800000e+000  0.000000e+000
      vertex  4.927686e-001  3.111218e+000  0.000000e+000
      vertex  9.734035e-001  2.995828e+000  0.000000e+000
    endloop
  endfacet
  facet normal  0.000000e+000  -0.000000e+000 -9.999999e-001
    outer loop
      vertex  1.102182e-016  1.800000e+000  0.000000e+000
      vertex  9.734035e-001  2.995828e+000  0.000000e+000
      vertex  1.430070e+000  2.806671e+000  0.000000e+000
    endloop
  endfacet
  facet normal  0.000000e+000  -0.000000e+000 -9.999999e-001
    outer loop
      vertex  1.102182e-016  1.800000e+000  0.000000e+000
      vertex  1.430070e+000  2.806671e+000  0.000000e+000
      vertex  1.851524e+000  2.548404e+000  0.000000e+000
    endloop
  endfacet
  facet normal  0.000000e+000  -0.000000e+000 -1.000000e+000
    outer loop
      vertex  1.102182e-016  1.800000e+000  0.000000e+000
      vertex  1.851524e+000  2.548404e+000  0.000000e+000
      vertex  2.227386e+000  2.227386e+000  0.000000e+000
    endloop
  endfacet
  facet normal  0.000000e+000  -0.000000e+000 -9.999999e-001
    outer loop
      vertex  1.102182e-016  1.800000e+000  0.000000e+000
      vertex  2.227386e+000  2.227386e+000  0.000000e+000
      vertex  2.548404e+000  1.851524e+000  0.000000e+000
    endloop
  endfacet
  facet normal  0.000000e+000  0.000000e+000 -9.999999e-001
    outer loop
      vertex  1.102182e-016  1.800000e+000  0.000000e+000
      vertex  2.548404e+000  1.851524e+000  0.000000e+000
      vertex  3.511626e-001  1.765414e+000  0.000000e+000
    endloop
  endfacet
  facet normal  0.000000e+000  0.000000e+000 -1.000000e+000
    outer loop
      vertex -2.548404e+000 -1.851524e+000  0.000000e+000
      vertex -2.806671e+000 -1.430070e+000  0.000000e+000
      vertex -1.000026e+000 -1.496645e+000  0.000000e+000
    endloop
  endfacet
  facet normal  0.000000e+000  -0.000000e+000 -1.000000e+000
    outer loop
      vertex -2.548404e+000 -1.851524e+000  0.000000e+000
      vertex -1.000026e+000 -1.496645e+000  0.000000e+000
      vertex -6.888302e-001 -1.662983e+000  0.000000e+000
    endloop
  endfacet
  facet normal  0.000000e+000  -0.000000e+000 -1.000000e+000
    outer loop
      vertex -2.548404e+000 -1.851524e+000  0.000000e+000
      vertex -6.888302e-001 -1.662983e+000  0.000000e+000
      vertex -3.511626e-001 -1.765414e+000  0.000000e+000
    endloop
  endfacet
  facet normal  0.000000e+000  -0.000000e+000 -1.000000e+000
    outer loop
      vertex -2.548404e+000 -1.851524e+000  0.000000e+000
      vertex -3.511626e-001 -1.765414e+000  0.000000e+000
      vertex -1.929376e-015 -1.800000e+000  0.000000e+000
    endloop
  endfacet
  facet normal  0.000000e+000  -0.000000e+000 -1.000000e+000
    outer loop
      vertex -2.548404e+000 -1.851524e+000  0.000000e+000
      vertex -1.929376e-015 -1.800000e+000  0.000000e+000
      vertex -5.786456e-016 -3.150000e+000  0.000000e+000
    endloop
  endfacet
  facet normal  0.000000e+000  0.000000e+000 -1.000000e+000
    outer loop
      vertex -5.786456e-016 -3.150000e+000  0.000000e+000
      vertex -4.927686e-001 -3.111218e+000  0.000000e+000
      vertex -9.734035e-001 -2.995828e+000  0.000000e+000
    endloop
  endfacet
  facet normal  0.000000e+000  0.000000e+000 -1.000000e+000
    outer loop
      vertex -5.786456e-016 -3.150000e+000  0.000000e+000
      vertex -9.734035e-001 -2.995828e+000  0.000000e+000
      vertex -1.430070e+000 -2.806671e+000  0.000000e+000
    endloop
  endfacet
  facet normal  0.000000e+000  0.000000e+000 -1.000000e+000
    outer loop
      vertex -5.786456e-016 -3.150000e+000  0.000000e+000
      vertex -1.430070e+000 -2.806671e+000  0.000000e+000
      vertex -1.851524e+000 -2.548404e+000  0.000000e+000
    endloop
  endfacet
  facet normal  0.000000e+000  0.000000e+000 -1.000000e+000
    outer loop
      vertex -5.786456e-016 -3.150000e+000  0.000000e+000
      vertex -1.851524e+000 -2.548404e+000  0.000000e+000
      vertex -2.227386e+000 -2.227386e+000  0.000000e+000
    endloop
  endfacet
  facet normal  0.000000e+000  0.000000e+000 -1.000000e+000
    outer loop
      vertex -5.786456e-016 -3.150000e+000  0.000000e+000
      vertex -2.227386e+000 -2.227386e+000  0.000000e+000
      vertex -2.548404e+000 -1.851524e+000  0.000000e+000
    endloop
  endfacet
  facet normal  0.000000e+000  0.000000e+000 -1.000000e+000
    outer loop
      vertex  2.548404e+000 -1.851524e+000  0.000000e+000
      vertex -1.929376e-015 -1.800000e+000  0.000000e+000
      vertex  3.511626e-001 -1.765414e+000  0.000000e+000
    endloop
  endfacet
  facet normal  0.000000e+000  0.000000e+000 -1.000000e+000
    outer loop
      vertex  2.548404e+000 -1.851524e+000  0.000000e+000
      vertex  3.511626e-001 -1.765414e+000  0.000000e+000
      vertex  6.888302e-001 -1.662983e+000  0.000000e+000
    endloop
  endfacet
  facet normal  0.000000e+000  0.000000e+000 -1.000000e+000
    outer loop
      vertex  2.548404e+000 -1.851524e+000  0.000000e+000
      vertex  6.888302e-001 -1.662983e+000  0.000000e+000
      vertex  1.000026e+000 -1.496645e+000  0.000000e+000
    endloop
  endfacet
  facet normal  0.000000e+000  0.000000e+000 -1.000000e+000
    outer loop
      vertex  2.548404e+000 -1.851524e+000  0.000000e+000
      vertex  1.000026e+000 -1.496645e+000  0.000000e+000
      vertex  2.806671e+000 -1.430070e+000  0.000000e+000
    endloop
  endfacet
  facet normal  0.000000e+000  0.000000e+000 -1.000000e+000
    outer loop
      vertex -5.786456e-016 -3.150000e+000  0.000000e+000
      vertex -1.929376e-015 -1.800000e+000  0.000000e+000
      vertex  2.548404e+000 -1.851524e+000  0.000000e+000
    endloop
  endfacet
  facet normal  0.000000e+000  0.000000e+000 -1.000000e+000
    outer loop
      vertex -5.786456e-016 -3.150000e+000  0.000000e+000
      vertex  2.548404e+000 -1.851524e+000  0.000000e+000
      vertex  2.227386e+000 -2.227386e+000  0.000000e+000
    endloop
  endfacet
  facet normal  0.000000e+000  0.000000e+000 -1.000000e+000
    outer loop
      vertex -5.786456e-016 -3.150000e+000  0.000000e+000
      vertex  2.227386e+000 -2.227386e+000  0.000000e+000
      vertex  1.851524e+000 -2.548404e+000  0.000000e+000
    endloop
  endfacet
  facet normal  0.000000e+000  0.000000e+000 -1.000000e+000
    outer loop
      vertex -5.786456e-016 -3.150000e+000  0.000000e+000
      vertex  1.851524e+000 -2.548404e+000  0.000000e+000
      vertex  1.430070e+000 -2.806671e+000  0.000000e+000
    endloop
  endfacet
  facet normal  0.000000e+000  0.000000e+000 -1.000000e+000
    outer loop
      vertex -5.786456e-016 -3.150000e+000  0.000000e+000
      vertex  1.430070e+000 -2.806671e+000  0.000000e+000
      vertex  9.734035e-001 -2.995828e+000  0.000000e+000
    endloop
  endfacet
  facet normal  0.000000e+000  0.000000e+000 -1.000000e+000
    outer loop
      vertex -5.786456e-016 -3.150000e+000  0.000000e+000
      vertex  9.734035e-001 -2.995828e+000  0.000000e+000
      vertex  4.927686e-001 -3.111218e+000  0.000000e+000
    endloop
  endfacet
  facet normal  0.000000e+000  0.000000e+000 -1.000000e+000
    outer loop
      vertex -1.000026e+000  1.496645e+000  0.000000e+000
      vertex -2.806671e+000  1.430070e+000  0.000000e+000
      vertex -6.888302e-001  1.662983e+000  0.000000e+000
    endloop
  endfacet
  facet normal  -0.000000e+000  0.000000e+000 -1.000000e+000
    outer loop
      vertex -6.888302e-001  1.662983e+000  0.000000e+000
      vertex -2.806671e+000  1.430070e+000  0.000000e+000
      vertex -2.548404e+000  1.851524e+000  0.000000e+000
    endloop
  endfacet
  facet normal  0.000000e+000  0.000000e+000 -1.000000e+000
    outer loop
      vertex -6.888302e-001  1.662983e+000  0.000000e+000
      vertex -2.548404e+000  1.851524e+000  0.000000e+000
      vertex -3.511626e-001  1.765414e+000  0.000000e+000
    endloop
  endfacet
  facet normal  0.000000e+000  0.000000e+000 -1.000000e+000
    outer loop
      vertex -1.496645e+000  1.000026e+000  0.000000e+000
      vertex -2.995828e+000  9.734035e-001  0.000000e+000
      vertex -1.272792e+000  1.272792e+000  0.000000e+000
    endloop
  endfacet
  facet normal  -0.000000e+000  0.000000e+000 -1.000000e+000
    outer loop
      vertex -1.272792e+000  1.272792e+000  0.000000e+000
      vertex -2.995828e+000  9.734035e-001  0.000000e+000
      vertex -2.806671e+000  1.430070e+000  0.000000e+000
    endloop
  endfacet
  facet normal  0.000000e+000  0.000000e+000 -1.000000e+000
    outer loop
      vertex -1.272792e+000  1.272792e+000  0.000000e+000
      vertex -2.806671e+000  1.430070e+000  0.000000e+000
      vertex -1.000026e+000  1.496645e+000  0.000000e+000
    endloop
  endfacet
  facet normal  0.000000e+000  0.000000e+000 -1.000000e+000
    outer loop
      vertex -1.765414e+000  3.511626e-001  0.000000e+000
      vertex -3.111218e+000  4.927686e-001  0.000000e+000
      vertex -1.662983e+000  6.888302e-001  0.000000e+000
    endloop
  endfacet
  facet normal  -0.000000e+000  0.000000e+000 -1.000000e+000
    outer loop
      vertex -1.662983e+000  6.888302e-001  0.000000e+000
      vertex -3.111218e+000  4.927686e-001  0.000000e+000
      vertex -2.995828e+000  9.734035e-001  0.000000e+000
    endloop
  endfacet
  facet normal  0.000000e+000  0.000000e+000 -1.000000e+000
    outer loop
      vertex -1.662983e+000  6.888302e-001  0.000000e+000
      vertex -2.995828e+000  9.734035e-001  0.000000e+000
      vertex -1.496645e+000  1.000026e+000  0.000000e+000
    endloop
  endfacet
  facet normal  0.000000e+000  0.000000e+000 -1.000000e+000
    outer loop
      vertex -1.496645e+000 -1.000026e+000  0.000000e+000
      vertex -2.995828e+000 -9.734035e-001  0.000000e+000
      vertex -1.662983e+000 -6.888302e-001  0.000000e+000
    endloop
  endfacet
  facet normal  -0.000000e+000  0.000000e+000 -1.000000e+000
    outer loop
      vertex -1.662983e+000 -6.888302e-001  0.000000e+000
      vertex -2.995828e+000 -9.734035e-001  0.000000e+000
      vertex -3.111218e+000 -4.927686e-001  0.000000e+000
    endloop
  endfacet
  facet normal  0.000000e+000  0.000000e+000 -1.000000e+000
    outer loop
      vertex -1.662983e+000 -6.888302e-001  0.000000e+000
      vertex -3.111218e+000 -4.927686e-001  0.000000e+000
      vertex -1.765414e+000 -3.511626e-001  0.000000e+000
    endloop
  endfacet
  facet normal  -0.000000e+000  0.000000e+000 -1.000000e+000
    outer loop
      vertex -1.765414e+000 -3.511626e-001  0.000000e+000
      vertex -3.111218e+000 -4.927686e-001  0.000000e+000
      vertex -3.150000e+000  3.857637e-016  0.000000e+000
    endloop
  endfacet
  facet normal  0.000000e+000  0.000000e+000 -1.000000e+000
    outer loop
      vertex -1.765414e+000 -3.511626e-001  0.000000e+000
      vertex -3.150000e+000  3.857637e-016  0.000000e+000
      vertex -1.800000e+000  2.204364e-016  0.000000e+000
    endloop
  endfacet
  facet normal  0.000000e+000  0.000000e+000 -1.000000e+000
    outer loop
      vertex -1.800000e+000  2.204364e-016  0.000000e+000
      vertex -3.150000e+000  3.857637e-016  0.000000e+000
      vertex -3.111218e+000  4.927686e-001  0.000000e+000
    endloop
  endfacet
  facet normal  0.000000e+000  0.000000e+000 -9.999999e-001
    outer loop
      vertex -1.800000e+000  2.204364e-016  0.000000e+000
      vertex -3.111218e+000  4.927686e-001  0.000000e+000
      vertex -1.765414e+000  3.511626e-001  0.000000e+000
    endloop
  endfacet
  facet normal  0.000000e+000  0.000000e+000 -1.000000e+000
    outer loop
      vertex -1.000026e+000 -1.496645e+000  0.000000e+000
      vertex -2.806671e+000 -1.430070e+000  0.000000e+000
      vertex -1.272792e+000 -1.272792e+000  0.000000e+000
    endloop
  endfacet
  facet normal  -0.000000e+000  0.000000e+000 -1.000000e+000
    outer loop
      vertex -1.272792e+000 -1.272792e+000  0.000000e+000
      vertex -2.806671e+000 -1.430070e+000  0.000000e+000
      vertex -2.995828e+000 -9.734035e-001  0.000000e+000
    endloop
  endfacet
  facet normal  0.000000e+000  0.000000e+000 -1.000000e+000
    outer loop
      vertex -1.272792e+000 -1.272792e+000  0.000000e+000
      vertex -2.995828e+000 -9.734035e-001  0.000000e+000
      vertex -1.496645e+000 -1.000026e+000  0.000000e+000
    endloop
  endfacet
  facet normal  0.000000e+000  0.000000e+000 -1.000000e+000
    outer loop
      vertex  1.000026e+000  1.496645e+000  0.000000e+000
      vertex  6.888302e-001  1.662983e+000  0.000000e+000
      vertex  2.806671e+000  1.430070e+000  0.000000e+000
    endloop
  endfacet
  facet normal  0.000000e+000  0.000000e+000 -1.000000e+000
    outer loop
      vertex  2.806671e+000  1.430070e+000  0.000000e+000
      vertex  6.888302e-001  1.662983e+000  0.000000e+000
      vertex  3.511626e-001  1.765414e+000  0.000000e+000
    endloop
  endfacet
  facet normal  0.000000e+000  0.000000e+000 -1.000000e+000
    outer loop
      vertex  2.806671e+000  1.430070e+000  0.000000e+000
      vertex  3.511626e-001  1.765414e+000  0.000000e+000
      vertex  2.548404e+000  1.851524e+000  0.000000e+000
    endloop
  endfacet
  facet normal  0.000000e+000  0.000000e+000 -1.000000e+000
    outer loop
      vertex  1.496645e+000  1.000026e+000  0.000000e+000
      vertex  1.272792e+000  1.272792e+000  0.000000e+000
      vertex  2.995828e+000  9.734035e-001  0.000000e+000
    endloop
  endfacet
  facet normal  0.000000e+000  0.000000e+000 -1.000000e+000
    outer loop
      vertex  2.995828e+000  9.734035e-001  0.000000e+000
      vertex  1.272792e+000  1.272792e+000  0.000000e+000
      vertex  1.000026e+000  1.496645e+000  0.000000e+000
    endloop
  endfacet
  facet normal  0.000000e+000  0.000000e+000 -1.000000e+000
    outer loop
      vertex  2.995828e+000  9.734035e-001  0.000000e+000
      vertex  1.000026e+000  1.496645e+000  0.000000e+000
      vertex  2.806671e+000  1.430070e+000  0.000000e+000
    endloop
  endfacet
  facet normal  0.000000e+000  0.000000e+000 -1.000000e+000
    outer loop
      vertex  1.765414e+000  3.511626e-001  0.000000e+000
      vertex  1.662983e+000  6.888302e-001  0.000000e+000
      vertex  3.111218e+000  4.927686e-001  0.000000e+000
    endloop
  endfacet
  facet normal  0.000000e+000  0.000000e+000 -9.999999e-001
    outer loop
      vertex  3.111218e+000  4.927686e-001  0.000000e+000
      vertex  1.662983e+000  6.888302e-001  0.000000e+000
      vertex  1.496645e+000  1.000026e+000  0.000000e+000
    endloop
  endfacet
  facet normal  0.000000e+000  0.000000e+000 -1.000000e+000
    outer loop
      vertex  3.111218e+000  4.927686e-001  0.000000e+000
      vertex  1.496645e+000  1.000026e+000  0.000000e+000
      vertex  2.995828e+000  9.734035e-001  0.000000e+000
    endloop
  endfacet
  facet normal  0.000000e+000  -0.000000e+000 -1.000000e+000
    outer loop
      vertex  1.496645e+000 -1.000026e+000  0.000000e+000
      vertex  1.662983e+000 -6.888302e-001  0.000000e+000
      vertex  2.995828e+000 -9.734035e-001  0.000000e+000
    endloop
  endfacet
  facet normal  0.000000e+000  0.000000e+000 -1.000000e+000
    outer loop
      vertex  2.995828e+000 -9.734035e-001  0.000000e+000
      vertex  1.662983e+000 -6.888302e-001  0.000000e+000
      vertex  1.765414e+000 -3.511626e-001  0.000000e+000
    endloop
  endfacet
  facet normal  0.000000e+000  0.000000e+000 -1.000000e+000
    outer loop
      vertex  2.995828e+000 -9.734035e-001  0.000000e+000
      vertex  1.765414e+000 -3.511626e-001  0.000000e+000
      vertex  3.111218e+000 -4.927686e-001  0.000000e+000
    endloop
  endfacet
  facet normal  0.000000e+000  0.000000e+000 -9.999999e-001
    outer loop
      vertex  3.111218e+000 -4.927686e-001  0.000000e+000
      vertex  1.765414e+000 -3.511626e-001  0.000000e+000
      vertex  1.800000e+000  0.000000e+000  0.000000e+000
    endloop
  endfacet
  facet normal  0.000000e+000  0.000000e+000 -1.000000e+000
    outer loop
      vertex  3.111218e+000 -4.927686e-001  0.000000e+000
      vertex  1.800000e+000  0.000000e+000  0.000000e+000
      vertex  3.150000e+000  0.000000e+000  0.000000e+000
    endloop
  endfacet
  facet normal  0.000000e+000  0.000000e+000 -1.000000e+000
    outer loop
      vertex  3.150000e+000  0.000000e+000  0.000000e+000
      vertex  1.800000e+000  0.000000e+000  0.000000e+000
      vertex  1.765414e+000  3.511626e-001  0.000000e+000
    endloop
  endfacet
  facet normal  0.000000e+000  0.000000e+000 -1.000000e+000
    outer loop
      vertex  3.150000e+000  0.000000e+000  0.000000e+000
      vertex  1.765414e+000  3.511626e-001  0.000000e+000
      vertex  3.111218e+000  4.927686e-001  0.000000e+000
    endloop
  endfacet
  facet normal  0.000000e+000  -0.000000e+000 -1.000000e+000
    outer loop
      vertex  1.000026e+000 -1.496645e+000  0.000000e+000
      vertex  1.272792e+000 -1.272792e+000  0.000000e+000
      vertex  2.806671e+000 -1.430070e+000  0.000000e+000
    endloop
  endfacet
  facet normal  0.000000e+000  0.000000e+000 -1.000000e+000
    outer loop
      vertex  2.806671e+000 -1.430070e+000  0.000000e+000
      vertex  1.272792e+000 -1.272792e+000  0.000000e+000
      vertex  1.496645e+000 -1.000026e+000  0.000000e+000
    endloop
  endfacet
  facet normal  0.000000e+000  0.000000e+000 -1.000000e+000
    outer loop
      vertex  2.806671e+000 -1.430070e+000  0.000000e+000
      vertex  1.496645e+000 -1.000026e+000  0.000000e+000
      vertex  2.995828e+000 -9.734035e-001  0.000000e+000
    endloop
  endfacet
  facet normal  9.801695e-002 -9.951848e-001  0.000000e+000
    outer loop
      vertex  1.102182e-016  1.800000e+000  0.000000e+000
      vertex -3.511626e-001  1.765414e+000  2.000000e+000
      vertex -3.511626e-001  1.765414e+000  0.000000e+000
    endloop
  endfacet
  facet normal  2.902847e-001 -9.569404e-001  0.000000e+000
    outer loop
      vertex -3.511626e-001  1.765414e+000  0.000000e+000
      vertex -3.511626e-001  1.765414e+000  2.000000e+000
      vertex -6.888302e-001  1.662983e+000  2.000000e+000
    endloop
  endfacet
  facet normal  2.902847e-001 -9.569404e-001  0.000000e+000
    outer loop
      vertex -3.511626e-001  1.765414e+000  0.000000e+000
      vertex -6.888302e-001  1.662983e+000  2.000000e+000
      vertex -6.888302e-001  1.662983e+000  0.000000e+000
    endloop
  endfacet
  facet normal  4.713967e-001 -8.819214e-001  0.000000e+000
    outer loop
      vertex -6.888302e-001  1.662983e+000  0.000000e+000
      vertex -6.888302e-001  1.662983e+000  2.000000e+000
      vertex -1.000026e+000  1.496645e+000  2.000000e+000
    endloop
  endfacet
  facet normal  4.713967e-001 -8.819214e-001  0.000000e+000
    outer loop
      vertex -6.888302e-001  1.662983e+000  0.000000e+000
      vertex -1.000026e+000  1.496645e+000  2.000000e+000
      vertex -1.000026e+000  1.496645e+000  0.000000e+000
    endloop
  endfacet
  facet normal  6.343933e-001 -7.730104e-001  0.000000e+000
    outer loop
      vertex -1.000026e+000  1.496645e+000  0.000000e+000
      vertex -1.000026e+000  1.496645e+000  2.000000e+000
      vertex -1.272792e+000  1.272792e+000  2.000000e+000
    endloop
  endfacet
  facet normal  6.343933e-001 -7.730104e-001  0.000000e+000
    outer loop
      vertex -1.000026e+000  1.496645e+000  0.000000e+000
      vertex -1.272792e+000  1.272792e+000  2.000000e+000
      vertex -1.272792e+000  1.272792e+000  0.000000e+000
    endloop
  endfacet
  facet normal  7.730104e-001 -6.343933e-001  0.000000e+000
    outer loop
      vertex -1.272792e+000  1.272792e+000  0.000000e+000
      vertex -1.272792e+000  1.272792e+000  2.000000e+000
      vertex -1.496645e+000  1.000026e+000  2.000000e+000
    endloop
  endfacet
  facet normal  7.730104e-001 -6.343933e-001  0.000000e+000
    outer loop
      vertex -1.272792e+000  1.272792e+000  0.000000e+000
      vertex -1.496645e+000  1.000026e+000  2.000000e+000
      vertex -1.496645e+000  1.000026e+000  0.000000e+000
    endloop
  endfacet
  facet normal  8.819214e-001 -4.713967e-001  0.000000e+000
    outer loop
      vertex -1.496645e+000  1.000026e+000  0.000000e+000
      vertex -1.496645e+000  1.000026e+000  2.000000e+000
      vertex -1.662983e+000  6.888302e-001  2.000000e+000
    endloop
  endfacet
  facet normal  8.819214e-001 -4.713967e-001  0.000000e+000
    outer loop
      vertex -1.496645e+000  1.000026e+000  0.000000e+000
      vertex -1.662983e+000  6.888302e-001  2.000000e+000
      vertex -1.662983e+000  6.888302e-001  0.000000e+000
    endloop
  endfacet
  facet normal  9.569404e-001 -2.902847e-001  0.000000e+000
    outer loop
      vertex -1.662983e+000  6.888302e-001  0.000000e+000
      vertex -1.662983e+000  6.888302e-001  2.000000e+000
      vertex -1.765414e+000  3.511626e-001  2.000000e+000
    endloop
  endfacet
  facet normal  9.569404e-001 -2.902847e-001  0.000000e+000
    outer loop
      vertex -1.662983e+000  6.888302e-001  0.000000e+000
      vertex -1.765414e+000  3.511626e-001  2.000000e+000
      vertex -1.765414e+000  3.511626e-001  0.000000e+000
    endloop
  endfacet
  facet normal  9.951848e-001 -9.801695e-002  0.000000e+000
    outer loop
      vertex -1.765414e+000  3.511626e-001  0.000000e+000
      vertex -1.765414e+000  3.511626e-001  2.000000e+000
      vertex -1.800000e+000  2.204364e-016  2.000000e+000
    endloop
  endfacet
  facet normal  9.951848e-001 -9.801695e-002  0.000000e+000
    outer loop
      vertex -1.765414e+000  3.511626e-001  0.000000e+000
      vertex -1.800000e+000  2.204364e-016  2.000000e+000
      vertex -1.800000e+000  2.204364e-016  0.000000e+000
    endloop
  endfacet
  facet normal  9.801695e-002 -9.951848e-001  0.000000e+000
    outer loop
      vertex -3.511626e-001  1.765414e+000  2.000000e+000
      vertex  1.102182e-016  1.800000e+000  0.000000e+000
      vertex  1.102182e-016  1.800000e+000  2.000000e+000
    endloop
  endfacet
  facet normal -9.801695e-002 -9.951848e-001  -0.000000e+000
    outer loop
      vertex  1.102182e-016  1.800000e+000  2.000000e+000
      vertex  1.102182e-016  1.800000e+000  0.000000e+000
      vertex  3.511626e-001  1.765414e+000  0.000000e+000
    endloop
  endfacet
  facet normal -9.801695e-002 -9.951848e-001  0.000000e+000
    outer loop
      vertex  1.102182e-016  1.800000e+000  2.000000e+000
      vertex  3.511626e-001  1.765414e+000  0.000000e+000
      vertex  3.511626e-001  1.765414e+000  2.000000e+000
    endloop
  endfacet
  facet normal -2.902847e-001 -9.569404e-001  -0.000000e+000
    outer loop
      vertex  3.511626e-001  1.765414e+000  2.000000e+000
      vertex  3.511626e-001  1.765414e+000  0.000000e+000
      vertex  6.888302e-001  1.662983e+000  0.000000e+000
    endloop
  endfacet
  facet normal -2.902847e-001 -9.569404e-001  0.000000e+000
    outer loop
      vertex  3.511626e-001  1.765414e+000  2.000000e+000
      vertex  6.888302e-001  1.662983e+000  0.000000e+000
      vertex  6.888302e-001  1.662983e+000  2.000000e+000
    endloop
  endfacet
  facet normal -4.713967e-001 -8.819214e-001  -0.000000e+000
    outer loop
      vertex  6.888302e-001  1.662983e+000  2.000000e+000
      vertex  6.888302e-001  1.662983e+000  0.000000e+000
      vertex  1.000026e+000  1.496645e+000  0.000000e+000
    endloop
  endfacet
  facet normal -4.713967e-001 -8.819214e-001  0.000000e+000
    outer loop
      vertex  6.888302e-001  1.662983e+000  2.000000e+000
      vertex  1.000026e+000  1.496645e+000  0.000000e+000
      vertex  1.000026e+000  1.496645e+000  2.000000e+000
    endloop
  endfacet
  facet normal -6.343933e-001 -7.730104e-001  -0.000000e+000
    outer loop
      vertex  1.000026e+000  1.496645e+000  2.000000e+000
      vertex  1.000026e+000  1.496645e+000  0.000000e+000
      vertex  1.272792e+000  1.272792e+000  0.000000e+000
    endloop
  endfacet
  facet normal -6.343933e-001 -7.730104e-001  0.000000e+000
    outer loop
      vertex  1.000026e+000  1.496645e+000  2.000000e+000
      vertex  1.272792e+000  1.272792e+000  0.000000e+000
      vertex  1.272792e+000  1.272792e+000  2.000000e+000
    endloop
  endfacet
  facet normal -7.730104e-001 -6.343933e-001  -0.000000e+000
    outer loop
      vertex  1.272792e+000  1.272792e+000  2.000000e+000
      vertex  1.272792e+000  1.272792e+000  0.000000e+000
      vertex  1.496645e+000  1.000026e+000  0.000000e+000
    endloop
  endfacet
  facet normal -7.730104e-001 -6.343933e-001  0.000000e+000
    outer loop
      vertex  1.272792e+000  1.272792e+000  2.000000e+000
      vertex  1.496645e+000  1.000026e+000  0.000000e+000
      vertex  1.496645e+000  1.000026e+000  2.000000e+000
    endloop
  endfacet
  facet normal -8.819214e-001 -4.713967e-001  -0.000000e+000
    outer loop
      vertex  1.496645e+000  1.000026e+000  2.000000e+000
      vertex  1.496645e+000  1.000026e+000  0.000000e+000
      vertex  1.662983e+000  6.888302e-001  0.000000e+000
    endloop
  endfacet
  facet normal -8.819214e-001 -4.713967e-001  0.000000e+000
    outer loop
      vertex  1.496645e+000  1.000026e+000  2.000000e+000
      vertex  1.662983e+000  6.888302e-001  0.000000e+000
      vertex  1.662983e+000  6.888302e-001  2.000000e+000
    endloop
  endfacet
  facet normal -9.569404e-001 -2.902847e-001  -0.000000e+000
    outer loop
      vertex  1.662983e+000  6.888302e-001  2.000000e+000
      vertex  1.662983e+000  6.888302e-001  0.000000e+000
      vertex  1.765414e+000  3.511626e-001  0.000000e+000
    endloop
  endfacet
  facet normal -9.569404e-001 -2.902847e-001  0.000000e+000
    outer loop
      vertex  1.662983e+000  6.888302e-001  2.000000e+000
      vertex  1.765414e+000  3.511626e-001  0.000000e+000
      vertex  1.765414e+000  3.511626e-001  2.000000e+000
    endloop
  endfacet
  facet normal -9.951848e-001 -9.801695e-002  -0.000000e+000
    outer loop
      vertex  1.765414e+000  3.511626e-001  2.000000e+000
      vertex  1.765414e+000  3.511626e-001  0.000000e+000
      vertex  1.800000e+000  0.000000e+000  0.000000e+000
    endloop
  endfacet
  facet normal -9.951848e-001 -9.801695e-002  0.000000e+000
    outer loop
      vertex  1.765414e+000  3.511626e-001  2.000000e+000
      vertex  1.800000e+000  0.000000e+000  0.000000e+000
      vertex  1.800000e+000  0.000000e+000  2.000000e+000
    endloop
  endfacet
  facet normal -9.801695e-002  9.951848e-001  0.000000e+000
    outer loop
      vertex -1.929376e-015 -1.800000e+000  0.000000e+000
      vertex  3.511626e-001 -1.765414e+000  2.000000e+000
      vertex  3.511626e-001 -1.765414e+000  0.000000e+000
    endloop
  endfacet
  facet normal -2.902847e-001  9.569404e-001  0.000000e+000
    outer loop
      vertex  3.511626e-001 -1.765414e+000  0.000000e+000
      vertex  3.511626e-001 -1.765414e+000  2.000000e+000
      vertex  6.888302e-001 -1.662983e+000  2.000000e+000
    endloop
  endfacet
  facet normal -2.902847e-001  9.569404e-001  0.000000e+000
    outer loop
      vertex  3.511626e-001 -1.765414e+000  0.000000e+000
      vertex  6.888302e-001 -1.662983e+000  2.000000e+000
      vertex  6.888302e-001 -1.662983e+000  0.000000e+000
    endloop
  endfacet
  facet normal -4.713967e-001  8.819214e-001  0.000000e+000
    outer loop
      vertex  6.888302e-001 -1.662983e+000  0.000000e+000
      vertex  6.888302e-001 -1.662983e+000  2.000000e+000
      vertex  1.000026e+000 -1.496645e+000  2.000000e+000
    endloop
  endfacet
  facet normal -4.713967e-001  8.819214e-001  0.000000e+000
    outer loop
      vertex  6.888302e-001 -1.662983e+000  0.000000e+000
      vertex  1.000026e+000 -1.496645e+000  2.000000e+000
      vertex  1.000026e+000 -1.496645e+000  0.000000e+000
    endloop
  endfacet
  facet normal -6.343933e-001  7.730104e-001  0.000000e+000
    outer loop
      vertex  1.000026e+000 -1.496645e+000  0.000000e+000
      vertex  1.000026e+000 -1.496645e+000  2.000000e+000
      vertex  1.272792e+000 -1.272792e+000  2.000000e+000
    endloop
  endfacet
  facet normal -6.343933e-001  7.730104e-001  0.000000e+000
    outer loop
      vertex  1.000026e+000 -1.496645e+000  0.000000e+000
      vertex  1.272792e+000 -1.272792e+000  2.000000e+000
      vertex  1.272792e+000 -1.272792e+000  0.000000e+000
    endloop
  endfacet
  facet normal -7.730104e-001  6.343933e-001  0.000000e+000
    outer loop
      vertex  1.272792e+000 -1.272792e+000  0.000000e+000
      vertex  1.272792e+000 -1.272792e+000  2.000000e+000
      vertex  1.496645e+000 -1.000026e+000  2.000000e+000
    endloop
  endfacet
  facet normal -7.730104e-001  6.343933e-001  0.000000e+000
    outer loop
      vertex  1.272792e+000 -1.272792e+000  0.000000e+000
      vertex  1.496645e+000 -1.000026e+000  2.000000e+000
      vertex  1.496645e+000 -1.000026e+000  0.000000e+000
    endloop
  endfacet
  facet normal -8.819214e-001  4.713967e-001  0.000000e+000
    outer loop
      vertex  1.496645e+000 -1.000026e+000  0.000000e+000
      vertex  1.496645e+000 -1.000026e+000  2.000000e+000
      vertex  1.662983e+000 -6.888302e-001  2.000000e+000
    endloop
  endfacet
  facet normal -8.819214e-001  4.713967e-001  0.000000e+000
    outer loop
      vertex  1.496645e+000 -1.000026e+000  0.000000e+000
      vertex  1.662983e+000 -6.888302e-001  2.000000e+000
      vertex  1.662983e+000 -6.888302e-001  0.000000e+000
    endloop
  endfacet
  facet normal -9.569404e-001  2.902847e-001  0.000000e+000
    outer loop
      vertex  1.662983e+000 -6.888302e-001  0.000000e+000
      vertex  1.662983e+000 -6.888302e-001  2.000000e+000
      vertex  1.765414e+000 -3.511626e-001  2.000000e+000
    endloop
  endfacet
  facet normal -9.569404e-001  2.902847e-001  0.000000e+000
    outer loop
      vertex  1.662983e+000 -6.888302e-001  0.000000e+000
      vertex  1.765414e+000 -3.511626e-001  2.000000e+000
      vertex  1.765414e+000 -3.511626e-001  0.000000e+000
    endloop
  endfacet
  facet normal -9.951848e-001  9.801695e-002  0.000000e+000
    outer loop
      vertex  1.765414e+000 -3.511626e-001  0.000000e+000
      vertex  1.765414e+000 -3.511626e-001  2.000000e+000
      vertex  1.800000e+000  0.000000e+000  2.000000e+000
    endloop
  endfacet
  facet normal -9.951848e-001  9.801695e-002  0.000000e+000
    outer loop
      vertex  1.765414e+000 -3.511626e-001  0.000000e+000
      vertex  1.800000e+000  0.000000e+000  2.000000e+000
      vertex  1.800000e+000  0.000000e+000  0.000000e+000
    endloop
  endfacet
  facet normal -9.801695e-002  9.951848e-001  0.000000e+000
    outer loop
      vertex  3.511626e-001 -1.765414e+000  2.000000e+000
      vertex -1.929376e-015 -1.800000e+000  0.000000e+000
      vertex -1.929376e-015 -1.800000e+000  2.000000e+000
    endloop
  endfacet
  facet normal  9.801695e-002  9.951848e-001  0.000000e+000
    outer loop
      vertex -1.929376e-015 -1.800000e+000  2.000000e+000
      vertex -1.929376e-015 -1.800000e+000  0.000000e+000
      vertex -3.511626e-001 -1.765414e+000  0.000000e+000
    endloop
  endfacet
  facet normal  9.801695e-002  9.951848e-001  -0.000000e+000
    outer loop
      vertex -1.929376e-015 -1.800000e+000  2.000000e+000
      vertex -3.511626e-001 -1.765414e+000  0.000000e+000
      vertex -3.511626e-001 -1.765414e+000  2.000000e+000
    endloop
  endfacet
  facet normal  2.902847e-001  9.569404e-001  0.000000e+000
    outer loop
      vertex -3.511626e-001 -1.765414e+000  2.000000e+000
      vertex -3.511626e-001 -1.765414e+000  0.000000e+000
      vertex -6.888302e-001 -1.662983e+000  0.000000e+000
    endloop
  endfacet
  facet normal  2.902847e-001  9.569404e-001  -0.000000e+000
    outer loop
      vertex -3.511626e-001 -1.765414e+000  2.000000e+000
      vertex -6.888302e-001 -1.662983e+000  0.000000e+000
      vertex -6.888302e-001 -1.662983e+000  2.000000e+000
    endloop
  endfacet
  facet normal  4.713967e-001  8.819214e-001  0.000000e+000
    outer loop
      vertex -6.888302e-001 -1.662983e+000  2.000000e+000
      vertex -6.888302e-001 -1.662983e+000  0.000000e+000
      vertex -1.000026e+000 -1.496645e+000  0.000000e+000
    endloop
  endfacet
  facet normal  4.713967e-001  8.819214e-001  -0.000000e+000
    outer loop
      vertex -6.888302e-001 -1.662983e+000  2.000000e+000
      vertex -1.000026e+000 -1.496645e+000  0.000000e+000
      vertex -1.000026e+000 -1.496645e+000  2.000000e+000
    endloop
  endfacet
  facet normal  6.343933e-001  7.730104e-001  0.000000e+000
    outer loop
      vertex -1.000026e+000 -1.496645e+000  2.000000e+000
      vertex -1.000026e+000 -1.496645e+000  0.000000e+000
      vertex -1.272792e+000 -1.272792e+000  0.000000e+000
    endloop
  endfacet
  facet normal  6.343933e-001  7.730104e-001  -0.000000e+000
    outer loop
      vertex -1.000026e+000 -1.496645e+000  2.000000e+000
      vertex -1.272792e+000 -1.272792e+000  0.000000e+000
      vertex -1.272792e+000 -1.272792e+000  2.000000e+000
    endloop
  endfacet
  facet normal  7.730104e-001  6.343933e-001  0.000000e+000
    outer loop
      vertex -1.272792e+000 -1.272792e+000  2.000000e+000
      vertex -1.272792e+000 -1.272792e+000  0.000000e+000
      vertex -1.496645e+000 -1.000026e+000  0.000000e+000
    endloop
  endfacet
  facet normal  7.730104e-001  6.343933e-001  -0.000000e+000
    outer loop
      vertex -1.272792e+000 -1.272792e+000  2.000000e+000
      vertex -1.496645e+000 -1.000026e+000  0.000000e+000
      vertex -1.496645e+000 -1.000026e+000  2.000000e+000
    endloop
  endfacet
  facet normal  8.819214e-001  4.713967e-001  0.000000e+000
    outer loop
      vertex -1.496645e+000 -1.000026e+000  2.000000e+000
      vertex -1.496645e+000 -1.000026e+000  0.000000e+000
      vertex -1.662983e+000 -6.888302e-001  0.000000e+000
    endloop
  endfacet
  facet normal  8.819214e-001  4.713967e-001  -0.000000e+000
    outer loop
      vertex -1.496645e+000 -1.000026e+000  2.000000e+000
      vertex -1.662983e+000 -6.888302e-001  0.000000e+000
      vertex -1.662983e+000 -6.888302e-001  2.000000e+000
    endloop
  endfacet
  facet normal  9.569404e-001  2.902847e-001  0.000000e+000
    outer loop
      vertex -1.662983e+000 -6.888302e-001  2.000000e+000
      vertex -1.662983e+000 -6.888302e-001  0.000000e+000
      vertex -1.765414e+000 -3.511626e-001  0.000000e+000
    endloop
  endfacet
  facet normal  9.569404e-001  2.902847e-001  -0.000000e+000
    outer loop
      vertex -1.662983e+000 -6.888302e-001  2.000000e+000
      vertex -1.765414e+000 -3.511626e-001  0.000000e+000
      vertex -1.765414e+000 -3.511626e-001  2.000000e+000
    endloop
  endfacet
  facet normal  9.951848e-001  9.801695e-002  0.000000e+000
    outer loop
      vertex -1.765414e+000 -3.511626e-001  2.000000e+000
      vertex -1.765414e+000 -3.511626e-001  0.000000e+000
      vertex -1.800000e+000  2.204364e-016  0.000000e+000
    endloop
  endfacet
  facet normal  9.951848e-001  9.801695e-002  -0.000000e+000
    outer loop
      vertex -1.765414e+000 -3.511626e-001  2.000000e+000
      vertex -1.800000e+000  2.204364e-016  0.000000e+000
      vertex -1.800000e+000  2.204364e-016  2.000000e+000
    endloop
  endfacet
  facet normal  9.969173e-001 -7.845940e-002  0.000000e+000
    outer loop
      vertex  3.150000e+000  0.000000e+000  0.000000e+000
      vertex  3.150000e+000  0.000000e+000  2.000000e+000
      vertex  3.111218e+000 -4.927686e-001  0.000000e+000
    endloop
  endfacet
  facet normal  9.969173e-001 -7.845940e-002  0.000000e+000
    outer loop
      vertex  3.111218e+000 -4.927686e-001  0.000000e+000
      vertex  3.150000e+000  0.000000e+000  2.000000e+000
      vertex  3.111218e+000 -4.927686e-001  2.000000e+000
    endloop
  endfacet
  facet normal  9.723699e-001 -2.334455e-001  0.000000e+000
    outer loop
      vertex  3.111218e+000 -4.927686e-001  0.000000e+000
      vertex  3.111218e+000 -4.927686e-001  2.000000e+000
      vertex  2.995828e+000 -9.734035e-001  0.000000e+000
    endloop
  endfacet
  facet normal  9.723699e-001 -2.334455e-001  0.000000e+000
    outer loop
      vertex  2.995828e+000 -9.734035e-001  0.000000e+000
      vertex  3.111218e+000 -4.927686e-001  2.000000e+000
      vertex  2.995828e+000 -9.734035e-001  2.000000e+000
    endloop
  endfacet
  facet normal  9.238797e-001 -3.826831e-001  0.000000e+000
    outer loop
      vertex  2.995828e+000 -9.734035e-001  0.000000e+000
      vertex  2.995828e+000 -9.734035e-001  2.000000e+000
      vertex  2.806671e+000 -1.430070e+000  0.000000e+000
    endloop
  endfacet
  facet normal  9.238797e-001 -3.826831e-001  0.000000e+000
    outer loop
      vertex  2.806671e+000 -1.430070e+000  0.000000e+000
      vertex  2.995828e+000 -9.734035e-001  2.000000e+000
      vertex  2.806671e+000 -1.430070e+000  2.000000e+000
    endloop
  endfacet
  facet normal  8.526401e-001 -5.224988e-001  0.000000e+000
    outer loop
      vertex  2.806671e+000 -1.430070e+000  0.000000e+000
      vertex  2.806671e+000 -1.430070e+000  2.000000e+000
      vertex  2.548404e+000 -1.851524e+000  0.000000e+000
    endloop
  endfacet
  facet normal  8.526401e-001 -5.224988e-001  0.000000e+000
    outer loop
      vertex  2.548404e+000 -1.851524e+000  0.000000e+000
      vertex  2.806671e+000 -1.430070e+000  2.000000e+000
      vertex  2.548404e+000 -1.851524e+000  2.000000e+000
    endloop
  endfacet
  facet normal  7.604063e-001 -6.494477e-001  0.000000e+000
    outer loop
      vertex  2.548404e+000 -1.851524e+000  0.000000e+000
      vertex  2.548404e+000 -1.851524e+000  2.000000e+000
      vertex  2.227386e+000 -2.227386e+000  0.000000e+000
    endloop
  endfacet
  facet normal  7.604063e-001 -6.494477e-001  0.000000e+000
    outer loop
      vertex  2.227386e+000 -2.227386e+000  0.000000e+000
      vertex  2.548404e+000 -1.851524e+000  2.000000e+000
      vertex  2.227386e+000 -2.227386e+000  2.000000e+000
    endloop
  endfacet
  facet normal  6.494477e-001 -7.604063e-001  0.000000e+000
    outer loop
      vertex  2.227386e+000 -2.227386e+000  0.000000e+000
      vertex  2.227386e+000 -2.227386e+000  2.000000e+000
      vertex  1.851524e+000 -2.548404e+000  0.000000e+000
    endloop
  endfacet
  facet normal  6.494477e-001 -7.604063e-001  0.000000e+000
    outer loop
      vertex  1.851524e+000 -2.548404e+000  0.000000e+000
      vertex  2.227386e+000 -2.227386e+000  2.000000e+000
      vertex  1.851524e+000 -2.548404e+000  2.000000e+000
    endloop
  endfacet
  facet normal  5.224988e-001 -8.526401e-001  0.000000e+000
    outer loop
      vertex  1.851524e+000 -2.548404e+000  0.000000e+000
      vertex  1.851524e+000 -2.548404e+000  2.000000e+000
      vertex  1.430070e+000 -2.806671e+000  0.000000e+000
    endloop
  endfacet
  facet normal  5.224988e-001 -8.526401e-001  0.000000e+000
    outer loop
      vertex  1.430070e+000 -2.806671e+000  0.000000e+000
      vertex  1.851524e+000 -2.548404e+000  2.000000e+000
      vertex  1.430070e+000 -2.806671e+000  2.000000e+000
    endloop
  endfacet
  facet normal  3.826831e-001 -9.238797e-001  0.000000e+000
    outer loop
      vertex  1.430070e+000 -2.806671e+000  0.000000e+000
      vertex  1.430070e+000 -2.806671e+000  2.000000e+000
      vertex  9.734035e-001 -2.995828e+000  0.000000e+000
    endloop
  endfacet
  facet normal  3.826831e-001 -9.238797e-001  0.000000e+000
    outer loop
      vertex  9.734035e-001 -2.995828e+000  0.000000e+000
      vertex  1.430070e+000 -2.806671e+000  2.000000e+000
      vertex  9.734035e-001 -2.995828e+000  2.000000e+000
    endloop
  endfacet
  facet normal  2.334455e-001 -9.723699e-001  0.000000e+000
    outer loop
      vertex  9.734035e-001 -2.995828e+000  0.000000e+000
      vertex  9.734035e-001 -2.995828e+000  2.000000e+000
      vertex  4.927686e-001 -3.111218e+000  0.000000e+000
    endloop
  endfacet
  facet normal  2.334455e-001 -9.723699e-001  0.000000e+000
    outer loop
      vertex  4.927686e-001 -3.111218e+000  0.000000e+000
      vertex  9.734035e-001 -2.995828e+000  2.000000e+000
      vertex  4.927686e-001 -3.111218e+000  2.000000e+000
    endloop
  endfacet
  facet normal  7.845940e-002 -9.969173e-001  0.000000e+000
    outer loop
      vertex  4.927686e-001 -3.111218e+000  0.000000e+000
      vertex  4.927686e-001 -3.111218e+000  2.000000e+000
      vertex -5.786456e-016 -3.150000e+000  0.000000e+000
    endloop
  endfacet
  facet normal  7.845940e-002 -9.969173e-001  0.000000e+000
    outer loop
      vertex -5.786456e-016 -3.150000e+000  0.000000e+000
      vertex  4.927686e-001 -3.111218e+000  2.000000e+000
      vertex -5.786456e-016 -3.150000e+000  2.000000e+000
    endloop
  endfacet
  facet normal -7.845940e-002 -9.969173e-001  -0.000000e+000
    outer loop
      vertex -5.786456e-016 -3.150000e+000  0.000000e+000
      vertex -5.786456e-016 -3.150000e+000  2.000000e+000
      vertex -4.927686e-001 -3.111218e+000  0.000000e+000
    endloop
  endfacet
  facet normal -7.845940e-002 -9.969173e-001  0.000000e+000
    outer loop
      vertex -4.927686e-001 -3.111218e+000  0.000000e+000
      vertex -5.786456e-016 -3.150000e+000  2.000000e+000
      vertex -4.927686e-001 -3.111218e+000  2.000000e+000
    endloop
  endfacet
  facet normal -2.334455e-001 -9.723699e-001  -0.000000e+000
    outer loop
      vertex -4.927686e-001 -3.111218e+000  0.000000e+000
      vertex -4.927686e-001 -3.111218e+000  2.000000e+000
      vertex -9.734035e-001 -2.995828e+000  0.000000e+000
    endloop
  endfacet
  facet normal -2.334455e-001 -9.723699e-001  0.000000e+000
    outer loop
      vertex -9.734035e-001 -2.995828e+000  0.000000e+000
      vertex -4.927686e-001 -3.111218e+000  2.000000e+000
      vertex -9.734035e-001 -2.995828e+000  2.000000e+000
    endloop
  endfacet
  facet normal -3.826831e-001 -9.238797e-001  -0.000000e+000
    outer loop
      vertex -9.734035e-001 -2.995828e+000  0.000000e+000
      vertex -9.734035e-001 -2.995828e+000  2.000000e+000
      vertex -1.430070e+000 -2.806671e+000  0.000000e+000
    endloop
  endfacet
  facet normal -3.826831e-001 -9.238797e-001  0.000000e+000
    outer loop
      vertex -1.430070e+000 -2.806671e+000  0.000000e+000
      vertex -9.734035e-001 -2.995828e+000  2.000000e+000
      vertex -1.430070e+000 -2.806671e+000  2.000000e+000
    endloop
  endfacet
  facet normal -5.224988e-001 -8.526401e-001  -0.000000e+000
    outer loop
      vertex -1.430070e+000 -2.806671e+000  0.000000e+000
      vertex -1.430070e+000 -2.806671e+000  2.000000e+000
      vertex -1.851524e+000 -2.548404e+000  0.000000e+000
    endloop
  endfacet
  facet normal -5.224988e-001 -8.526401e-001  0.000000e+000
    outer loop
      vertex -1.851524e+000 -2.548404e+000  0.000000e+000
      vertex -1.430070e+000 -2.806671e+000  2.000000e+000
      vertex -1.851524e+000 -2.548404e+000  2.000000e+000
    endloop
  endfacet
  facet normal -6.494477e-001 -7.604063e-001  -0.000000e+000
    outer loop
      vertex -1.851524e+000 -2.548404e+000  0.000000e+000
      vertex -1.851524e+000 -2.548404e+000  2.000000e+000
      vertex -2.227386e+000 -2.227386e+000  0.000000e+000
    endloop
  endfacet
  facet normal -6.494477e-001 -7.604063e-001  0.000000e+000
    outer loop
      vertex -2.227386e+000 -2.227386e+000  0.000000e+000
      vertex -1.851524e+000 -2.548404e+000  2.000000e+000
      vertex -2.227386e+000 -2.227386e+000  2.000000e+000
    endloop
  endfacet
  facet normal -7.604063e-001 -6.494477e-001  -0.000000e+000
    outer loop
      vertex -2.227386e+000 -2.227386e+000  0.000000e+000
      vertex -2.227386e+000 -2.227386e+000  2.000000e+000
      vertex -2.548404e+000 -1.851524e+000  0.000000e+000
    endloop
  endfacet
  facet normal -7.604063e-001 -6.494477e-001  0.000000e+000
    outer loop
      vertex -2.548404e+000 -1.851524e+000  0.000000e+000
      vertex -2.227386e+000 -2.227386e+000  2.000000e+000
      vertex -2.548404e+000 -1.851524e+000  2.000000e+000
    endloop
  endfacet
  facet normal -8.526401e-001 -5.224988e-001  -0.000000e+000
    outer loop
      vertex -2.548404e+000 -1.851524e+000  0.000000e+000
      vertex -2.548404e+000 -1.851524e+000  2.000000e+000
      vertex -2.806671e+000 -1.430070e+000  0.000000e+000
    endloop
  endfacet
  facet normal -8.526401e-001 -5.224988e-001  0.000000e+000
    outer loop
      vertex -2.806671e+000 -1.430070e+000  0.000000e+000
      vertex -2.548404e+000 -1.851524e+000  2.000000e+000
      vertex -2.806671e+000 -1.430070e+000  2.000000e+000
    endloop
  endfacet
  facet normal -9.238797e-001 -3.826831e-001  -0.000000e+000
    outer loop
      vertex -2.806671e+000 -1.430070e+000  0.000000e+000
      vertex -2.806671e+000 -1.430070e+000  2.000000e+000
      vertex -2.995828e+000 -9.734035e-001  0.000000e+000
    endloop
  endfacet
  facet normal -9.238797e-001 -3.826831e-001  0.000000e+000
    outer loop
      vertex -2.995828e+000 -9.734035e-001  0.000000e+000
      vertex -2.806671e+000 -1.430070e+000  2.000000e+000
      vertex -2.995828e+000 -9.734035e-001  2.000000e+000
    endloop
  endfacet
  facet normal -9.723699e-001 -2.334455e-001  -0.000000e+000
    outer loop
      vertex -2.995828e+000 -9.734035e-001  0.000000e+000
      vertex -2.995828e+000 -9.734035e-001  2.000000e+000
      vertex -3.111218e+000 -4.927686e-001  0.000000e+000
    endloop
  endfacet
  facet normal -9.723699e-001 -2.334455e-001  0.000000e+000
    outer loop
      vertex -3.111218e+000 -4.927686e-001  0.000000e+000
      vertex -2.995828e+000 -9.734035e-001  2.000000e+000
      vertex -3.111218e+000 -4.927686e-001  2.000000e+000
    endloop
  endfacet
  facet normal -9.969173e-001 -7.845940e-002  -0.000000e+000
    outer loop
      vertex -3.111218e+000 -4.927686e-001  0.000000e+000
      vertex -3.111218e+000 -4.927686e-001  2.000000e+000
      vertex -3.150000e+000  3.857637e-016  0.000000e+000
    endloop
  endfacet
  facet normal -9.969173e-001 -7.845940e-002  0.000000e+000
    outer loop
      vertex -3.150000e+000  3.857637e-016  0.000000e+000
      vertex -3.111218e+000 -4.927686e-001  2.000000e+000
      vertex -3.150000e+000  3.857637e-016  2.000000e+000
    endloop
  endfacet
  facet normal -9.969173e-001  7.845940e-002  0.000000e+000
    outer loop
      vertex -3.150000e+000  3.857637e-016  0.000000e+000
      vertex -3.150000e+000  3.857637e-016  2.000000e+000
      vertex -3.111218e+000  4.927686e-001  0.000000e+000
    endloop
  endfacet
  facet normal -9.969173e-001  7.845940e-002  0.000000e+000
    outer loop
      vertex -3.111218e+000  4.927686e-001  0.000000e+000
      vertex -3.150000e+000  3.857637e-016  2.000000e+000
      vertex -3.111218e+000  4.927686e-001  2.000000e+000
    endloop
  endfacet
  facet normal -9.723699e-001  2.334455e-001  0.000000e+000
    outer loop
      vertex -3.111218e+000  4.927686e-001  0.000000e+000
      vertex -3.111218e+000  4.927686e-001  2.000000e+000
      vertex -2.995828e+000  9.734035e-001  0.000000e+000
    endloop
  endfacet
  facet normal -9.723699e-001  2.334455e-001  0.000000e+000
    outer loop
      vertex -2.995828e+000  9.734035e-001  0.000000e+000
      vertex -3.111218e+000  4.927686e-001  2.000000e+000
      vertex -2.995828e+000  9.734035e-001  2.000000e+000
    endloop
  endfacet
  facet normal -9.238797e-001  3.826831e-001  0.000000e+000
    outer loop
      vertex -2.995828e+000  9.734035e-001  0.000000e+000
      vertex -2.995828e+000  9.734035e-001  2.000000e+000
      vertex -2.806671e+000  1.430070e+000  0.000000e+000
    endloop
  endfacet
  facet normal -9.238797e-001  3.826831e-001  0.000000e+000
    outer loop
      vertex -2.806671e+000  1.430070e+000  0.000000e+000
      vertex -2.995828e+000  9.734035e-001  2.000000e+000
      vertex -2.806671e+000  1.430070e+000  2.000000e+000
    endloop
  endfacet
  facet normal -8.526401e-001  5.224988e-001  0.000000e+000
    outer loop
      vertex -2.806671e+000  1.430070e+000  0.000000e+000
      vertex -2.806671e+000  1.430070e+000  2.000000e+000
      vertex -2.548404e+000  1.851524e+000  0.000000e+000
    endloop
  endfacet
  facet normal -8.526401e-001  5.224988e-001  0.000000e+000
    outer loop
      vertex -2.548404e+000  1.851524e+000  0.000000e+000
      vertex -2.806671e+000  1.430070e+000  2.000000e+000
      vertex -2.548404e+000  1.851524e+000  2.000000e+000
    endloop
  endfacet
  facet normal -7.604063e-001  6.494477e-001  0.000000e+000
    outer loop
      vertex -2.548404e+000  1.851524e+000  0.000000e+000
      vertex -2.548404e+000  1.851524e+000  2.000000e+000
      vertex -2.227386e+000  2.227386e+000  0.000000e+000
    endloop
  endfacet
  facet normal -7.604063e-001  6.494477e-001  0.000000e+000
    outer loop
      vertex -2.227386e+000  2.227386e+000  0.000000e+000
      vertex -2.548404e+000  1.851524e+000  2.000000e+000
      vertex -2.227386e+000  2.227386e+000  2.000000e+000
    endloop
  endfacet
  facet normal -6.494477e-001  7.604063e-001  0.000000e+000
    outer loop
      vertex -2.227386e+000  2.227386e+000  0.000000e+000
      vertex -2.227386e+000  2.227386e+000  2.000000e+000
      vertex -1.851524e+000  2.548404e+000  0.000000e+000
    endloop
  endfacet
  facet normal -6.494477e-001  7.604063e-001  0.000000e+000
    outer loop
      vertex -1.851524e+000  2.548404e+000  0.000000e+000
      vertex -2.227386e+000  2.227386e+000  2.000000e+000
      vertex -1.851524e+000  2.548404e+000  2.000000e+000
    endloop
  endfacet
  facet normal -5.224988e-001  8.526401e-001  0.000000e+000
    outer loop
      vertex -1.851524e+000  2.548404e+000  0.000000e+000
      vertex -1.851524e+000  2.548404e+000  2.000000e+000
      vertex -1.430070e+000  2.806671e+000  0.000000e+000
    endloop
  endfacet
  facet normal -5.224988e-001  8.526401e-001  0.000000e+000
    outer loop
      vertex -1.430070e+000  2.806671e+000  0.000000e+000
      vertex -1.851524e+000  2.548404e+000  2.000000e+000
      vertex -1.430070e+000  2.806671e+000  2.000000e+000
    endloop
  endfacet
  facet normal -3.826831e-001  9.238797e-001  0.000000e+000
    outer loop
      vertex -1.430070e+000  2.806671e+000  0.000000e+000
      vertex -1.430070e+000  2.806671e+000  2.000000e+000
      vertex -9.734035e-001  2.995828e+000  0.000000e+000
    endloop
  endfacet
  facet normal -3.826831e-001  9.238797e-001  0.000000e+000
    outer loop
      vertex -9.734035e-001  2.995828e+000  0.000000e+000
      vertex -1.430070e+000  2.806671e+000  2.000000e+000
      vertex -9.734035e-001  2.995828e+000  2.000000e+000
    endloop
  endfacet
  facet normal -2.334455e-001  9.723699e-001  0.000000e+000
    outer loop
      vertex -9.734035e-001  2.995828e+000  0.000000e+000
      vertex -9.734035e-001  2.995828e+000  2.000000e+000
      vertex -4.927686e-001  3.111218e+000  0.000000e+000
    endloop
  endfacet
  facet normal -2.334455e-001  9.723699e-001  0.000000e+000
    outer loop
      vertex -4.927686e-001  3.111218e+000  0.000000e+000
      vertex -9.734035e-001  2.995828e+000  2.000000e+000
      vertex -4.927686e-001  3.111218e+000  2.000000e+000
    endloop
  endfacet
  facet normal -7.845940e-002  9.969173e-001  0.000000e+000
    outer loop
      vertex -4.927686e-001  3.111218e+000  0.000000e+000
      vertex -4.927686e-001  3.111218e+000  2.000000e+000
      vertex  1.928819e-016  3.150000e+000  0.000000e+000
    endloop
  endfacet
  facet normal -7.845940e-002  9.969173e-001  0.000000e+000
    outer loop
      vertex  1.928819e-016  3.150000e+000  0.000000e+000
      vertex -4.927686e-001  3.111218e+000  2.000000e+000
      vertex  1.928819e-016  3.150000e+000  2.000000e+000
    endloop
  endfacet
  facet normal  7.845940e-002  9.969173e-001  0.000000e+000
    outer loop
      vertex  1.928819e-016  3.150000e+000  0.000000e+000
      vertex  1.928819e-016  3.150000e+000  2.000000e+000
      vertex  4.927686e-001  3.111218e+000  0.000000e+000
    endloop
  endfacet
  facet normal  7.845940e-002  9.969173e-001  -0.000000e+000
    outer loop
      vertex  4.927686e-001  3.111218e+000  0.000000e+000
      vertex  1.928819e-016  3.150000e+000  2.000000e+000
      vertex  4.927686e-001  3.111218e+000  2.000000e+000
    endloop
  endfacet
  facet normal  2.334455e-001  9.723699e-001  0.000000e+000
    outer loop
      vertex  4.927686e-001  3.111218e+000  0.000000e+000
      vertex  4.927686e-001  3.111218e+000  2.000000e+000
      vertex  9.734035e-001  2.995828e+000  0.000000e+000
    endloop
  endfacet
  facet normal  2.334455e-001  9.723699e-001  -0.000000e+000
    outer loop
      vertex  9.734035e-001  2.995828e+000  0.000000e+000
      vertex  4.927686e-001  3.111218e+000  2.000000e+000
      vertex  9.734035e-001  2.995828e+000  2.000000e+000
    endloop
  endfacet
  facet normal  3.826831e-001  9.238797e-001  0.000000e+000
    outer loop
      vertex  9.734035e-001  2.995828e+000  0.000000e+000
      vertex  9.734035e-001  2.995828e+000  2.000000e+000
      vertex  1.430070e+000  2.806671e+000  0.000000e+000
    endloop
  endfacet
  facet normal  3.826831e-001  9.238797e-001  -0.000000e+000
    outer loop
      vertex  1.430070e+000  2.806671e+000  0.000000e+000
      vertex  9.734035e-001  2.995828e+000  2.000000e+000
      vertex  1.430070e+000  2.806671e+000  2.000000e+000
    endloop
  endfacet
  facet normal  5.224988e-001  8.526401e-001  0.000000e+000
    outer loop
      vertex  1.430070e+000  2.806671e+000  0.000000e+000
      vertex  1.430070e+000  2.806671e+000  2.000000e+000
      vertex  1.851524e+000  2.548404e+000  0.000000e+000
    endloop
  endfacet
  facet normal  5.224988e-001  8.526401e-001  -0.000000e+000
    outer loop
      vertex  1.851524e+000  2.548404e+000  0.000000e+000
      vertex  1.430070e+000  2.806671e+000  2.000000e+000
      vertex  1.851524e+000  2.548404e+000  2.000000e+000
    endloop
  endfacet
  facet normal  6.494477e-001  7.604063e-001  0.000000e+000
    outer loop
      vertex  1.851524e+000  2.548404e+000  0.000000e+000
      vertex  1.851524e+000  2.548404e+000  2.000000e+000
      vertex  2.227386e+000  2.227386e+000  0.000000e+000
    endloop
  endfacet
  facet normal  6.494477e-001  7.604063e-001  -0.000000e+000
    outer loop
      vertex  2.227386e+000  2.227386e+000  0.000000e+000
      vertex  1.851524e+000  2.548404e+000  2.000000e+000
      vertex  2.227386e+000  2.227386e+000  2.000000e+000
    endloop
  endfacet
  facet normal  7.604063e-001  6.494477e-001  0.000000e+000
    outer loop
      vertex  2.227386e+000  2.227386e+000  0.000000e+000
      vertex  2.227386e+000  2.227386e+000  2.000000e+000
      vertex  2.548404e+000  1.851524e+000  0.000000e+000
    endloop
  endfacet
  facet normal  7.604063e-001  6.494477e-001  -0.000000e+000
    outer loop
      vertex  2.548404e+000  1.851524e+000  0.000000e+000
      vertex  2.227386e+000  2.227386e+000  2.000000e+000
      vertex  2.548404e+000  1.851524e+000  2.000000e+000
    endloop
  endfacet
  facet normal  8.526401e-001  5.224988e-001  0.000000e+000
    outer loop
      vertex  2.548404e+000  1.851524e+000  0.000000e+000
      vertex  2.548404e+000  1.851524e+000  2.000000e+000
      vertex  2.806671e+000  1.430070e+000  0.000000e+000
    endloop
  endfacet
  facet normal  8.526401e-001  5.224988e-001  -0.000000e+000
    outer loop
      vertex  2.806671e+000  1.430070e+000  0.000000e+000
      vertex  2.548404e+000  1.851524e+000  2.000000e+000
      vertex  2.806671e+000  1.430070e+000  2.000000e+000
    endloop
  endfacet
  facet normal  9.238797e-001  3.826831e-001  0.000000e+000
    outer loop
      vertex  2.806671e+000  1.430070e+000  0.000000e+000
      vertex  2.806671e+000  1.430070e+000  2.000000e+000
      vertex  2.995828e+000  9.734035e-001  0.000000e+000
    endloop
  endfacet
  facet normal  9.238797e-001  3.826831e-001  -0.000000e+000
    outer loop
      vertex  2.995828e+000  9.734035e-001  0.000000e+000
      vertex  2.806671e+000  1.430070e+000  2.000000e+000
      vertex  2.995828e+000  9.734035e-001  2.000000e+000
    endloop
  endfacet
  facet normal  9.723699e-001  2.334455e-001  0.000000e+000
    outer loop
      vertex  2.995828e+000  9.734035e-001  0.000000e+000
      vertex  2.995828e+000  9.734035e-001  2.000000e+000
      vertex  3.111218e+000  4.927686e-001  0.000000e+000
    endloop
  endfacet
  facet normal  9.723699e-001  2.334455e-001  -0.000000e+000
    outer loop
      vertex  3.111218e+000  4.927686e-001  0.000000e+000
      vertex  2.995828e+000  9.734035e-001  2.000000e+000
      vertex  3.111218e+000  4.927686e-001  2.000000e+000
    endloop
  endfacet
  facet normal  9.969173e-001  7.845940e-002  0.000000e+000
    outer loop
      vertex  3.111218e+000  4.927686e-001  0.000000e+000
      vertex  3.111218e+000  4.927686e-001  2.000000e+000
      vertex  3.150000e+000  0.000000e+000  0.000000e+000
    endloop
  endfacet
  facet normal  9.969173e-001  7.845940e-002  -0.000000e+000
    outer loop
      vertex  3.150000e+000  0.000000e+000  0.000000e+000
      vertex  3.111218e+000  4.927686e-001  2.000000e+000
      vertex  3.150000e+000  0.000000e+000  2.000000e+000
    endloop
  endfacet
endsolid CATIA STL
