M48
; DRILL file {KiCad (5.1.10)-1} date 10/28/21 11:13:59
; FORMAT={-:-/ absolute / inch / decimal}
; #@! TF.CreationDate,2021-10-28T11:13:59+08:00
; #@! TF.GenerationSoftware,Kicad,Pcbnew,(5.1.10)-1
; #@! TF.FileFunction,Plated,1,2,PTH
FMAT,2
INCH
T1C0.0157
T2C0.0315
T3C0.0390
T4C0.0394
T5C0.0409
T6C0.0430
T7C0.0579
%
G90
G05
T1
X5.98Y-2.56
X7.63Y-1.26
X7.7Y-2.06
T2
X5.62Y-1.35
X5.62Y-1.55
X5.62Y-1.89
X5.62Y-2.09
X5.75Y-1.35
X5.75Y-1.55
X5.75Y-1.89
X5.75Y-2.09
X5.88Y-1.35
X5.88Y-1.55
X5.88Y-1.89
X5.88Y-2.09
X6.01Y-1.35
X6.01Y-1.55
X6.01Y-1.89
X6.01Y-2.09
X6.14Y-1.35
X6.14Y-1.55
X6.14Y-1.89
X6.14Y-2.09
X6.27Y-1.35
X6.27Y-1.55
X6.27Y-1.89
X6.27Y-2.09
X6.4Y-1.35
X6.4Y-1.55
X6.4Y-1.89
X6.4Y-2.09
X6.53Y-1.35
X6.53Y-1.55
X6.53Y-1.89
X6.53Y-2.09
X6.66Y-1.35
X6.66Y-1.55
X6.66Y-1.89
X6.66Y-2.09
X6.79Y-1.35
X6.79Y-1.55
X6.79Y-1.89
X6.79Y-2.09
T3
X7.05Y-1.38
X7.05Y-1.5
X7.05Y-1.62
X7.05Y-1.74
X7.05Y-1.86
X7.05Y-1.98
X7.0525Y-2.1
X7.0525Y-2.225
X7.0525Y-2.35
X7.0525Y-2.475
X7.0525Y-2.6
X7.0525Y-2.725
X7.45Y-1.38
X7.45Y-1.5
X7.45Y-1.62
X7.45Y-1.74
X7.45Y-1.86
X7.45Y-1.98
X7.4525Y-2.1
X7.4525Y-2.225
X7.4525Y-2.35
X7.4525Y-2.475
X7.4525Y-2.6
X7.4525Y-2.725
T4
X6.9547Y-3.5266
X6.9547Y-3.625
X6.9547Y-3.7234
X6.9547Y-4.5266
X6.9547Y-4.625
X6.9547Y-4.7234
X6.9547Y-5.5266
X6.9547Y-5.625
X6.9547Y-5.7234
X7.5256Y-3.5266
X7.5256Y-3.7234
X7.5256Y-4.5266
X7.5256Y-4.7234
X7.5256Y-5.5266
X7.5256Y-5.7234
T5
X4.3563Y-6.1063
X4.4562Y-6.1063
X6.4813Y-3.9812
X6.4813Y-4.0812
X6.4813Y-5.4813
X6.4813Y-5.5812
T6
X4.0564Y-1.3795
X4.0564Y-2.1764
X4.1564Y-1.3795
X4.1564Y-2.1764
X4.2564Y-1.3795
X4.2564Y-2.1764
X4.3564Y-1.3795
X4.3564Y-2.1764
X4.4564Y-1.3795
X4.4564Y-2.1764
X4.5564Y-1.3795
X4.5564Y-2.1764
X4.6564Y-1.3795
X4.6564Y-2.1764
X4.7564Y-1.3795
X4.7564Y-2.1764
X4.8564Y-1.3795
X4.8564Y-2.1764
X4.9564Y-1.3795
X4.9564Y-2.1764
X5.0564Y-1.3795
X5.0564Y-2.1764
X5.1564Y-1.3795
X5.1564Y-2.1764
T7
X3.8813Y-2.8062
X3.8813Y-3.5562
X3.8813Y-4.3062
X3.8813Y-5.0562
X3.9328Y-2.7488
X3.9328Y-3.4988
X3.9328Y-4.2488
X3.9328Y-4.9988
X4.1297Y-2.7291
X4.1297Y-3.4791
X4.1297Y-4.2291
X4.1297Y-4.9791
X4.1312Y-2.7062
X4.1312Y-3.4562
X4.1312Y-4.2062
X4.1312Y-4.9562
X4.2562Y-5.8062
X4.3078Y-5.7488
X4.5047Y-5.7291
X4.5062Y-5.7062
X4.6312Y-2.8062
X4.6312Y-3.5562
X4.6312Y-4.3062
X4.6312Y-5.0562
X4.6828Y-2.7488
X4.6828Y-3.4988
X4.6828Y-4.2488
X4.6828Y-4.9988
X4.8797Y-2.7291
X4.8797Y-3.4791
X4.8797Y-4.2291
X4.8797Y-4.9791
X4.8812Y-2.7062
X4.8812Y-3.4562
X4.8812Y-4.2062
X4.8812Y-4.9562
X5.3812Y-2.8062
X5.3812Y-3.5562
X5.3812Y-4.3062
X5.3812Y-5.0562
X5.3812Y-5.8062
X5.4328Y-2.7488
X5.4328Y-3.4988
X5.4328Y-4.2488
X5.4328Y-4.9988
X5.4328Y-5.7488
X5.6297Y-2.7291
X5.6297Y-3.4791
X5.6297Y-4.2291
X5.6297Y-4.9791
X5.6297Y-5.7291
X5.6312Y-2.7062
X5.6312Y-3.4562
X5.6312Y-4.2062
X5.6312Y-4.9562
X5.6312Y-5.7062
X6.0812Y-3.9312
X6.0812Y-5.4312
X6.1041Y-3.9328
X6.1041Y-5.4328
X6.1238Y-4.1297
X6.1238Y-5.6297
X6.1312Y-2.8062
X6.1812Y-4.1812
X6.1812Y-5.6812
X6.1828Y-2.7488
X6.3797Y-2.7291
X6.3812Y-2.7062
T0
M30
