%TF.GenerationSoftware,KiCad,Pcbnew,(5.1.10)-1*%
%TF.CreationDate,2021-10-28T11:13:53+08:00*%
%TF.ProjectId,EGPad,45475061-642e-46b6-9963-61645f706362,rev?*%
%TF.SameCoordinates,Original*%
%TF.FileFunction,Copper,L2,Bot*%
%TF.FilePolarity,Positive*%
%FSLAX46Y46*%
G04 Gerber Fmt 4.6, Leading zero omitted, Abs format (unit mm)*
G04 Created by KiCad (PCBNEW (5.1.10)-1) date 2021-10-28 11:13:53*
%MOMM*%
%LPD*%
G01*
G04 APERTURE LIST*
%TA.AperFunction,ComponentPad*%
%ADD10C,2.250000*%
%TD*%
%TA.AperFunction,ComponentPad*%
%ADD11C,1.905000*%
%TD*%
%TA.AperFunction,ComponentPad*%
%ADD12R,1.905000X1.905000*%
%TD*%
%TA.AperFunction,ComponentPad*%
%ADD13R,1.600000X1.600000*%
%TD*%
%TA.AperFunction,ComponentPad*%
%ADD14O,1.600000X1.600000*%
%TD*%
%TA.AperFunction,ComponentPad*%
%ADD15C,1.752600*%
%TD*%
%TA.AperFunction,ComponentPad*%
%ADD16R,1.752600X1.752600*%
%TD*%
%TA.AperFunction,ComponentPad*%
%ADD17C,2.000000*%
%TD*%
%TA.AperFunction,WasherPad*%
%ADD18R,3.200000X2.000000*%
%TD*%
%TA.AperFunction,ComponentPad*%
%ADD19R,2.000000X2.000000*%
%TD*%
%TA.AperFunction,ComponentPad*%
%ADD20C,1.651000*%
%TD*%
%TA.AperFunction,ViaPad*%
%ADD21C,0.800000*%
%TD*%
%TA.AperFunction,Conductor*%
%ADD22C,0.254000*%
%TD*%
G04 APERTURE END LIST*
D10*
%TO.P,MX15,2*%
%TO.N,Net-(D15-Pad2)*%
X157043750Y-69818750D03*
%TA.AperFunction,ComponentPad*%
G36*
G01*
X154980978Y-72114788D02*
X154980978Y-72114788D01*
G75*
G02*
X154897712Y-70525978I752772J836038D01*
G01*
X156210250Y-69068258D01*
G75*
G02*
X157799060Y-68984992I836038J-752772D01*
G01*
X157799060Y-68984992D01*
G75*
G02*
X157882326Y-70573802I-752772J-836038D01*
G01*
X156569788Y-72031522D01*
G75*
G02*
X154980978Y-72114788I-836038J752772D01*
G01*
G37*
%TD.AperFunction*%
%TO.P,MX15,1*%
%TO.N,COL4*%
X162083750Y-68738750D03*
%TA.AperFunction,ComponentPad*%
G36*
G01*
X161965274Y-70441010D02*
X161965274Y-70441010D01*
G75*
G02*
X160921490Y-69240274I78476J1122260D01*
G01*
X160962044Y-68660312D01*
G75*
G02*
X162162780Y-67616528I1122260J-78476D01*
G01*
X162162780Y-67616528D01*
G75*
G02*
X163206564Y-68817264I-78476J-1122260D01*
G01*
X163166010Y-69397226D01*
G75*
G02*
X161965274Y-70441010I-1122260J78476D01*
G01*
G37*
%TD.AperFunction*%
%TD*%
%TO.P,MX5,1*%
%TO.N,COL1*%
%TA.AperFunction,ComponentPad*%
G36*
G01*
X114340274Y-146641010D02*
X114340274Y-146641010D01*
G75*
G02*
X113296490Y-145440274I78476J1122260D01*
G01*
X113337044Y-144860312D01*
G75*
G02*
X114537780Y-143816528I1122260J-78476D01*
G01*
X114537780Y-143816528D01*
G75*
G02*
X115581564Y-145017264I-78476J-1122260D01*
G01*
X115541010Y-145597226D01*
G75*
G02*
X114340274Y-146641010I-1122260J78476D01*
G01*
G37*
%TD.AperFunction*%
X114458750Y-144938750D03*
%TO.P,MX5,2*%
%TO.N,Net-(D5-Pad2)*%
%TA.AperFunction,ComponentPad*%
G36*
G01*
X107355978Y-148314788D02*
X107355978Y-148314788D01*
G75*
G02*
X107272712Y-146725978I752772J836038D01*
G01*
X108585250Y-145268258D01*
G75*
G02*
X110174060Y-145184992I836038J-752772D01*
G01*
X110174060Y-145184992D01*
G75*
G02*
X110257326Y-146773802I-752772J-836038D01*
G01*
X108944788Y-148231522D01*
G75*
G02*
X107355978Y-148314788I-836038J752772D01*
G01*
G37*
%TD.AperFunction*%
X109418750Y-146018750D03*
D11*
%TO.P,MX5,3*%
%TO.N,N/C*%
X110648750Y-155098750D03*
D12*
%TO.P,MX5,4*%
X113188750Y-155098750D03*
%TD*%
%TO.P,MX17,1*%
%TO.N,COL4*%
%TA.AperFunction,ComponentPad*%
G36*
G01*
X156166010Y-138072226D02*
X156166010Y-138072226D01*
G75*
G02*
X154965274Y-139116010I-1122260J78476D01*
G01*
X154385312Y-139075456D01*
G75*
G02*
X153341528Y-137874720I78476J1122260D01*
G01*
X153341528Y-137874720D01*
G75*
G02*
X154542264Y-136830936I1122260J-78476D01*
G01*
X155122226Y-136871490D01*
G75*
G02*
X156166010Y-138072226I-78476J-1122260D01*
G01*
G37*
%TD.AperFunction*%
D10*
X154463750Y-137953750D03*
%TO.P,MX17,2*%
%TO.N,Net-(D17-Pad2)*%
%TA.AperFunction,ComponentPad*%
G36*
G01*
X157839788Y-145056522D02*
X157839788Y-145056522D01*
G75*
G02*
X156250978Y-145139788I-836038J752772D01*
G01*
X154793258Y-143827250D01*
G75*
G02*
X154709992Y-142238440I752772J836038D01*
G01*
X154709992Y-142238440D01*
G75*
G02*
X156298802Y-142155174I836038J-752772D01*
G01*
X157756522Y-143467712D01*
G75*
G02*
X157839788Y-145056522I-752772J-836038D01*
G01*
G37*
%TD.AperFunction*%
X155543750Y-142993750D03*
D11*
%TO.P,MX17,3*%
%TO.N,N/C*%
X164623750Y-141763750D03*
D12*
%TO.P,MX17,4*%
X164623750Y-139223750D03*
%TD*%
%TO.P,MX16,1*%
%TO.N,COL4*%
%TA.AperFunction,ComponentPad*%
G36*
G01*
X156166010Y-99972226D02*
X156166010Y-99972226D01*
G75*
G02*
X154965274Y-101016010I-1122260J78476D01*
G01*
X154385312Y-100975456D01*
G75*
G02*
X153341528Y-99774720I78476J1122260D01*
G01*
X153341528Y-99774720D01*
G75*
G02*
X154542264Y-98730936I1122260J-78476D01*
G01*
X155122226Y-98771490D01*
G75*
G02*
X156166010Y-99972226I-78476J-1122260D01*
G01*
G37*
%TD.AperFunction*%
D10*
X154463750Y-99853750D03*
%TO.P,MX16,2*%
%TO.N,Net-(D16-Pad2)*%
%TA.AperFunction,ComponentPad*%
G36*
G01*
X157839788Y-106956522D02*
X157839788Y-106956522D01*
G75*
G02*
X156250978Y-107039788I-836038J752772D01*
G01*
X154793258Y-105727250D01*
G75*
G02*
X154709992Y-104138440I752772J836038D01*
G01*
X154709992Y-104138440D01*
G75*
G02*
X156298802Y-104055174I836038J-752772D01*
G01*
X157756522Y-105367712D01*
G75*
G02*
X157839788Y-106956522I-752772J-836038D01*
G01*
G37*
%TD.AperFunction*%
X155543750Y-104893750D03*
D11*
%TO.P,MX16,3*%
%TO.N,N/C*%
X164623750Y-103663750D03*
D12*
%TO.P,MX16,4*%
X164623750Y-101123750D03*
%TD*%
D10*
%TO.P,MX11,2*%
%TO.N,Net-(D11-Pad2)*%
X137993750Y-69818750D03*
%TA.AperFunction,ComponentPad*%
G36*
G01*
X135930978Y-72114788D02*
X135930978Y-72114788D01*
G75*
G02*
X135847712Y-70525978I752772J836038D01*
G01*
X137160250Y-69068258D01*
G75*
G02*
X138749060Y-68984992I836038J-752772D01*
G01*
X138749060Y-68984992D01*
G75*
G02*
X138832326Y-70573802I-752772J-836038D01*
G01*
X137519788Y-72031522D01*
G75*
G02*
X135930978Y-72114788I-836038J752772D01*
G01*
G37*
%TD.AperFunction*%
%TO.P,MX11,1*%
%TO.N,COL3*%
X143033750Y-68738750D03*
%TA.AperFunction,ComponentPad*%
G36*
G01*
X142915274Y-70441010D02*
X142915274Y-70441010D01*
G75*
G02*
X141871490Y-69240274I78476J1122260D01*
G01*
X141912044Y-68660312D01*
G75*
G02*
X143112780Y-67616528I1122260J-78476D01*
G01*
X143112780Y-67616528D01*
G75*
G02*
X144156564Y-68817264I-78476J-1122260D01*
G01*
X144116010Y-69397226D01*
G75*
G02*
X142915274Y-70441010I-1122260J78476D01*
G01*
G37*
%TD.AperFunction*%
%TD*%
%TO.P,MX8,2*%
%TO.N,Net-(D8-Pad2)*%
X118943750Y-107918750D03*
%TA.AperFunction,ComponentPad*%
G36*
G01*
X116880978Y-110214788D02*
X116880978Y-110214788D01*
G75*
G02*
X116797712Y-108625978I752772J836038D01*
G01*
X118110250Y-107168258D01*
G75*
G02*
X119699060Y-107084992I836038J-752772D01*
G01*
X119699060Y-107084992D01*
G75*
G02*
X119782326Y-108673802I-752772J-836038D01*
G01*
X118469788Y-110131522D01*
G75*
G02*
X116880978Y-110214788I-836038J752772D01*
G01*
G37*
%TD.AperFunction*%
%TO.P,MX8,1*%
%TO.N,COL2*%
X123983750Y-106838750D03*
%TA.AperFunction,ComponentPad*%
G36*
G01*
X123865274Y-108541010D02*
X123865274Y-108541010D01*
G75*
G02*
X122821490Y-107340274I78476J1122260D01*
G01*
X122862044Y-106760312D01*
G75*
G02*
X124062780Y-105716528I1122260J-78476D01*
G01*
X124062780Y-105716528D01*
G75*
G02*
X125106564Y-106917264I-78476J-1122260D01*
G01*
X125066010Y-107497226D01*
G75*
G02*
X123865274Y-108541010I-1122260J78476D01*
G01*
G37*
%TD.AperFunction*%
%TD*%
%TO.P,MX4,2*%
%TO.N,Net-(D4-Pad2)*%
X99893750Y-126968750D03*
%TA.AperFunction,ComponentPad*%
G36*
G01*
X97830978Y-129264788D02*
X97830978Y-129264788D01*
G75*
G02*
X97747712Y-127675978I752772J836038D01*
G01*
X99060250Y-126218258D01*
G75*
G02*
X100649060Y-126134992I836038J-752772D01*
G01*
X100649060Y-126134992D01*
G75*
G02*
X100732326Y-127723802I-752772J-836038D01*
G01*
X99419788Y-129181522D01*
G75*
G02*
X97830978Y-129264788I-836038J752772D01*
G01*
G37*
%TD.AperFunction*%
%TO.P,MX4,1*%
%TO.N,COL1*%
X104933750Y-125888750D03*
%TA.AperFunction,ComponentPad*%
G36*
G01*
X104815274Y-127591010D02*
X104815274Y-127591010D01*
G75*
G02*
X103771490Y-126390274I78476J1122260D01*
G01*
X103812044Y-125810312D01*
G75*
G02*
X105012780Y-124766528I1122260J-78476D01*
G01*
X105012780Y-124766528D01*
G75*
G02*
X106056564Y-125967264I-78476J-1122260D01*
G01*
X106016010Y-126547226D01*
G75*
G02*
X104815274Y-127591010I-1122260J78476D01*
G01*
G37*
%TD.AperFunction*%
%TD*%
%TO.P,MX14,2*%
%TO.N,Net-(D14-Pad2)*%
X137993750Y-126968750D03*
%TA.AperFunction,ComponentPad*%
G36*
G01*
X135930978Y-129264788D02*
X135930978Y-129264788D01*
G75*
G02*
X135847712Y-127675978I752772J836038D01*
G01*
X137160250Y-126218258D01*
G75*
G02*
X138749060Y-126134992I836038J-752772D01*
G01*
X138749060Y-126134992D01*
G75*
G02*
X138832326Y-127723802I-752772J-836038D01*
G01*
X137519788Y-129181522D01*
G75*
G02*
X135930978Y-129264788I-836038J752772D01*
G01*
G37*
%TD.AperFunction*%
%TO.P,MX14,1*%
%TO.N,COL3*%
X143033750Y-125888750D03*
%TA.AperFunction,ComponentPad*%
G36*
G01*
X142915274Y-127591010D02*
X142915274Y-127591010D01*
G75*
G02*
X141871490Y-126390274I78476J1122260D01*
G01*
X141912044Y-125810312D01*
G75*
G02*
X143112780Y-124766528I1122260J-78476D01*
G01*
X143112780Y-124766528D01*
G75*
G02*
X144156564Y-125967264I-78476J-1122260D01*
G01*
X144116010Y-126547226D01*
G75*
G02*
X142915274Y-127591010I-1122260J78476D01*
G01*
G37*
%TD.AperFunction*%
%TD*%
%TO.P,MX13,2*%
%TO.N,Net-(D13-Pad2)*%
X137993750Y-107918750D03*
%TA.AperFunction,ComponentPad*%
G36*
G01*
X135930978Y-110214788D02*
X135930978Y-110214788D01*
G75*
G02*
X135847712Y-108625978I752772J836038D01*
G01*
X137160250Y-107168258D01*
G75*
G02*
X138749060Y-107084992I836038J-752772D01*
G01*
X138749060Y-107084992D01*
G75*
G02*
X138832326Y-108673802I-752772J-836038D01*
G01*
X137519788Y-110131522D01*
G75*
G02*
X135930978Y-110214788I-836038J752772D01*
G01*
G37*
%TD.AperFunction*%
%TO.P,MX13,1*%
%TO.N,COL3*%
X143033750Y-106838750D03*
%TA.AperFunction,ComponentPad*%
G36*
G01*
X142915274Y-108541010D02*
X142915274Y-108541010D01*
G75*
G02*
X141871490Y-107340274I78476J1122260D01*
G01*
X141912044Y-106760312D01*
G75*
G02*
X143112780Y-105716528I1122260J-78476D01*
G01*
X143112780Y-105716528D01*
G75*
G02*
X144156564Y-106917264I-78476J-1122260D01*
G01*
X144116010Y-107497226D01*
G75*
G02*
X142915274Y-108541010I-1122260J78476D01*
G01*
G37*
%TD.AperFunction*%
%TD*%
%TO.P,MX12,2*%
%TO.N,Net-(D12-Pad2)*%
X137993750Y-88868750D03*
%TA.AperFunction,ComponentPad*%
G36*
G01*
X135930978Y-91164788D02*
X135930978Y-91164788D01*
G75*
G02*
X135847712Y-89575978I752772J836038D01*
G01*
X137160250Y-88118258D01*
G75*
G02*
X138749060Y-88034992I836038J-752772D01*
G01*
X138749060Y-88034992D01*
G75*
G02*
X138832326Y-89623802I-752772J-836038D01*
G01*
X137519788Y-91081522D01*
G75*
G02*
X135930978Y-91164788I-836038J752772D01*
G01*
G37*
%TD.AperFunction*%
%TO.P,MX12,1*%
%TO.N,COL3*%
X143033750Y-87788750D03*
%TA.AperFunction,ComponentPad*%
G36*
G01*
X142915274Y-89491010D02*
X142915274Y-89491010D01*
G75*
G02*
X141871490Y-88290274I78476J1122260D01*
G01*
X141912044Y-87710312D01*
G75*
G02*
X143112780Y-86666528I1122260J-78476D01*
G01*
X143112780Y-86666528D01*
G75*
G02*
X144156564Y-87867264I-78476J-1122260D01*
G01*
X144116010Y-88447226D01*
G75*
G02*
X142915274Y-89491010I-1122260J78476D01*
G01*
G37*
%TD.AperFunction*%
%TD*%
%TO.P,MX10,2*%
%TO.N,Net-(D10-Pad2)*%
X137993750Y-146018750D03*
%TA.AperFunction,ComponentPad*%
G36*
G01*
X135930978Y-148314788D02*
X135930978Y-148314788D01*
G75*
G02*
X135847712Y-146725978I752772J836038D01*
G01*
X137160250Y-145268258D01*
G75*
G02*
X138749060Y-145184992I836038J-752772D01*
G01*
X138749060Y-145184992D01*
G75*
G02*
X138832326Y-146773802I-752772J-836038D01*
G01*
X137519788Y-148231522D01*
G75*
G02*
X135930978Y-148314788I-836038J752772D01*
G01*
G37*
%TD.AperFunction*%
%TO.P,MX10,1*%
%TO.N,COL2*%
X143033750Y-144938750D03*
%TA.AperFunction,ComponentPad*%
G36*
G01*
X142915274Y-146641010D02*
X142915274Y-146641010D01*
G75*
G02*
X141871490Y-145440274I78476J1122260D01*
G01*
X141912044Y-144860312D01*
G75*
G02*
X143112780Y-143816528I1122260J-78476D01*
G01*
X143112780Y-143816528D01*
G75*
G02*
X144156564Y-145017264I-78476J-1122260D01*
G01*
X144116010Y-145597226D01*
G75*
G02*
X142915274Y-146641010I-1122260J78476D01*
G01*
G37*
%TD.AperFunction*%
%TD*%
%TO.P,MX9,2*%
%TO.N,Net-(D9-Pad2)*%
X118943750Y-126968750D03*
%TA.AperFunction,ComponentPad*%
G36*
G01*
X116880978Y-129264788D02*
X116880978Y-129264788D01*
G75*
G02*
X116797712Y-127675978I752772J836038D01*
G01*
X118110250Y-126218258D01*
G75*
G02*
X119699060Y-126134992I836038J-752772D01*
G01*
X119699060Y-126134992D01*
G75*
G02*
X119782326Y-127723802I-752772J-836038D01*
G01*
X118469788Y-129181522D01*
G75*
G02*
X116880978Y-129264788I-836038J752772D01*
G01*
G37*
%TD.AperFunction*%
%TO.P,MX9,1*%
%TO.N,COL2*%
X123983750Y-125888750D03*
%TA.AperFunction,ComponentPad*%
G36*
G01*
X123865274Y-127591010D02*
X123865274Y-127591010D01*
G75*
G02*
X122821490Y-126390274I78476J1122260D01*
G01*
X122862044Y-125810312D01*
G75*
G02*
X124062780Y-124766528I1122260J-78476D01*
G01*
X124062780Y-124766528D01*
G75*
G02*
X125106564Y-125967264I-78476J-1122260D01*
G01*
X125066010Y-126547226D01*
G75*
G02*
X123865274Y-127591010I-1122260J78476D01*
G01*
G37*
%TD.AperFunction*%
%TD*%
%TO.P,MX7,2*%
%TO.N,Net-(D7-Pad2)*%
X118943750Y-88868750D03*
%TA.AperFunction,ComponentPad*%
G36*
G01*
X116880978Y-91164788D02*
X116880978Y-91164788D01*
G75*
G02*
X116797712Y-89575978I752772J836038D01*
G01*
X118110250Y-88118258D01*
G75*
G02*
X119699060Y-88034992I836038J-752772D01*
G01*
X119699060Y-88034992D01*
G75*
G02*
X119782326Y-89623802I-752772J-836038D01*
G01*
X118469788Y-91081522D01*
G75*
G02*
X116880978Y-91164788I-836038J752772D01*
G01*
G37*
%TD.AperFunction*%
%TO.P,MX7,1*%
%TO.N,COL2*%
X123983750Y-87788750D03*
%TA.AperFunction,ComponentPad*%
G36*
G01*
X123865274Y-89491010D02*
X123865274Y-89491010D01*
G75*
G02*
X122821490Y-88290274I78476J1122260D01*
G01*
X122862044Y-87710312D01*
G75*
G02*
X124062780Y-86666528I1122260J-78476D01*
G01*
X124062780Y-86666528D01*
G75*
G02*
X125106564Y-87867264I-78476J-1122260D01*
G01*
X125066010Y-88447226D01*
G75*
G02*
X123865274Y-89491010I-1122260J78476D01*
G01*
G37*
%TD.AperFunction*%
%TD*%
%TO.P,MX6,2*%
%TO.N,Net-(D6-Pad2)*%
X118943750Y-69818750D03*
%TA.AperFunction,ComponentPad*%
G36*
G01*
X116880978Y-72114788D02*
X116880978Y-72114788D01*
G75*
G02*
X116797712Y-70525978I752772J836038D01*
G01*
X118110250Y-69068258D01*
G75*
G02*
X119699060Y-68984992I836038J-752772D01*
G01*
X119699060Y-68984992D01*
G75*
G02*
X119782326Y-70573802I-752772J-836038D01*
G01*
X118469788Y-72031522D01*
G75*
G02*
X116880978Y-72114788I-836038J752772D01*
G01*
G37*
%TD.AperFunction*%
%TO.P,MX6,1*%
%TO.N,COL2*%
X123983750Y-68738750D03*
%TA.AperFunction,ComponentPad*%
G36*
G01*
X123865274Y-70441010D02*
X123865274Y-70441010D01*
G75*
G02*
X122821490Y-69240274I78476J1122260D01*
G01*
X122862044Y-68660312D01*
G75*
G02*
X124062780Y-67616528I1122260J-78476D01*
G01*
X124062780Y-67616528D01*
G75*
G02*
X125106564Y-68817264I-78476J-1122260D01*
G01*
X125066010Y-69397226D01*
G75*
G02*
X123865274Y-70441010I-1122260J78476D01*
G01*
G37*
%TD.AperFunction*%
%TD*%
%TO.P,MX3,2*%
%TO.N,Net-(D3-Pad2)*%
X99893750Y-107918750D03*
%TA.AperFunction,ComponentPad*%
G36*
G01*
X97830978Y-110214788D02*
X97830978Y-110214788D01*
G75*
G02*
X97747712Y-108625978I752772J836038D01*
G01*
X99060250Y-107168258D01*
G75*
G02*
X100649060Y-107084992I836038J-752772D01*
G01*
X100649060Y-107084992D01*
G75*
G02*
X100732326Y-108673802I-752772J-836038D01*
G01*
X99419788Y-110131522D01*
G75*
G02*
X97830978Y-110214788I-836038J752772D01*
G01*
G37*
%TD.AperFunction*%
%TO.P,MX3,1*%
%TO.N,COL1*%
X104933750Y-106838750D03*
%TA.AperFunction,ComponentPad*%
G36*
G01*
X104815274Y-108541010D02*
X104815274Y-108541010D01*
G75*
G02*
X103771490Y-107340274I78476J1122260D01*
G01*
X103812044Y-106760312D01*
G75*
G02*
X105012780Y-105716528I1122260J-78476D01*
G01*
X105012780Y-105716528D01*
G75*
G02*
X106056564Y-106917264I-78476J-1122260D01*
G01*
X106016010Y-107497226D01*
G75*
G02*
X104815274Y-108541010I-1122260J78476D01*
G01*
G37*
%TD.AperFunction*%
%TD*%
%TO.P,MX2,2*%
%TO.N,Net-(D2-Pad2)*%
X99893750Y-88868750D03*
%TA.AperFunction,ComponentPad*%
G36*
G01*
X97830978Y-91164788D02*
X97830978Y-91164788D01*
G75*
G02*
X97747712Y-89575978I752772J836038D01*
G01*
X99060250Y-88118258D01*
G75*
G02*
X100649060Y-88034992I836038J-752772D01*
G01*
X100649060Y-88034992D01*
G75*
G02*
X100732326Y-89623802I-752772J-836038D01*
G01*
X99419788Y-91081522D01*
G75*
G02*
X97830978Y-91164788I-836038J752772D01*
G01*
G37*
%TD.AperFunction*%
%TO.P,MX2,1*%
%TO.N,COL1*%
X104933750Y-87788750D03*
%TA.AperFunction,ComponentPad*%
G36*
G01*
X104815274Y-89491010D02*
X104815274Y-89491010D01*
G75*
G02*
X103771490Y-88290274I78476J1122260D01*
G01*
X103812044Y-87710312D01*
G75*
G02*
X105012780Y-86666528I1122260J-78476D01*
G01*
X105012780Y-86666528D01*
G75*
G02*
X106056564Y-87867264I-78476J-1122260D01*
G01*
X106016010Y-88447226D01*
G75*
G02*
X104815274Y-89491010I-1122260J78476D01*
G01*
G37*
%TD.AperFunction*%
%TD*%
%TO.P,MX1,2*%
%TO.N,Net-(D1-Pad2)*%
X99893750Y-69818750D03*
%TA.AperFunction,ComponentPad*%
G36*
G01*
X97830978Y-72114788D02*
X97830978Y-72114788D01*
G75*
G02*
X97747712Y-70525978I752772J836038D01*
G01*
X99060250Y-69068258D01*
G75*
G02*
X100649060Y-68984992I836038J-752772D01*
G01*
X100649060Y-68984992D01*
G75*
G02*
X100732326Y-70573802I-752772J-836038D01*
G01*
X99419788Y-72031522D01*
G75*
G02*
X97830978Y-72114788I-836038J752772D01*
G01*
G37*
%TD.AperFunction*%
%TO.P,MX1,1*%
%TO.N,COL1*%
X104933750Y-68738750D03*
%TA.AperFunction,ComponentPad*%
G36*
G01*
X104815274Y-70441010D02*
X104815274Y-70441010D01*
G75*
G02*
X103771490Y-69240274I78476J1122260D01*
G01*
X103812044Y-68660312D01*
G75*
G02*
X105012780Y-67616528I1122260J-78476D01*
G01*
X105012780Y-67616528D01*
G75*
G02*
X106056564Y-68817264I-78476J-1122260D01*
G01*
X106016010Y-69397226D01*
G75*
G02*
X104815274Y-70441010I-1122260J78476D01*
G01*
G37*
%TD.AperFunction*%
%TD*%
D13*
%TO.P,D20,1*%
%TO.N,ROW3*%
X172466000Y-34290000D03*
D14*
%TO.P,D20,2*%
%TO.N,Net-(D20-Pad2)*%
X172466000Y-39370000D03*
%TD*%
D13*
%TO.P,D19,1*%
%TO.N,ROW2*%
X172466000Y-48006000D03*
D14*
%TO.P,D19,2*%
%TO.N,Net-(D19-Pad2)*%
X172466000Y-53086000D03*
%TD*%
D13*
%TO.P,D18,1*%
%TO.N,ROW1*%
X169164000Y-48006000D03*
D14*
%TO.P,D18,2*%
%TO.N,Net-(D18-Pad2)*%
X169164000Y-53086000D03*
%TD*%
D13*
%TO.P,D17,1*%
%TO.N,ROW3*%
X159258000Y-48006000D03*
D14*
%TO.P,D17,2*%
%TO.N,Net-(D17-Pad2)*%
X159258000Y-53086000D03*
%TD*%
D13*
%TO.P,D16,1*%
%TO.N,ROW2*%
X162560000Y-48006000D03*
D14*
%TO.P,D16,2*%
%TO.N,Net-(D16-Pad2)*%
X162560000Y-53086000D03*
%TD*%
D13*
%TO.P,D15,1*%
%TO.N,ROW1*%
X165862000Y-48006000D03*
D14*
%TO.P,D15,2*%
%TO.N,Net-(D15-Pad2)*%
X165862000Y-53086000D03*
%TD*%
%TO.P,D14,2*%
%TO.N,Net-(D14-Pad2)*%
X152654000Y-53086000D03*
D13*
%TO.P,D14,1*%
%TO.N,ROW4*%
X152654000Y-48006000D03*
%TD*%
%TO.P,D13,1*%
%TO.N,ROW3*%
X149352000Y-48006000D03*
D14*
%TO.P,D13,2*%
%TO.N,Net-(D13-Pad2)*%
X149352000Y-53086000D03*
%TD*%
D13*
%TO.P,D12,1*%
%TO.N,ROW2*%
X146050000Y-48006000D03*
D14*
%TO.P,D12,2*%
%TO.N,Net-(D12-Pad2)*%
X146050000Y-53086000D03*
%TD*%
D13*
%TO.P,D11,1*%
%TO.N,ROW1*%
X142748000Y-48006000D03*
D14*
%TO.P,D11,2*%
%TO.N,Net-(D11-Pad2)*%
X142748000Y-53086000D03*
%TD*%
D13*
%TO.P,D10,1*%
%TO.N,ROW5*%
X155956000Y-48006000D03*
D14*
%TO.P,D10,2*%
%TO.N,Net-(D10-Pad2)*%
X155956000Y-53086000D03*
%TD*%
D13*
%TO.P,D9,1*%
%TO.N,ROW4*%
X159258000Y-34290000D03*
D14*
%TO.P,D9,2*%
%TO.N,Net-(D9-Pad2)*%
X159258000Y-39370000D03*
%TD*%
D13*
%TO.P,D8,1*%
%TO.N,ROW3*%
X162560000Y-34290000D03*
D14*
%TO.P,D8,2*%
%TO.N,Net-(D8-Pad2)*%
X162560000Y-39370000D03*
%TD*%
D13*
%TO.P,D7,1*%
%TO.N,ROW2*%
X165862000Y-34290000D03*
D14*
%TO.P,D7,2*%
%TO.N,Net-(D7-Pad2)*%
X165862000Y-39370000D03*
%TD*%
D13*
%TO.P,D6,1*%
%TO.N,ROW1*%
X169164000Y-34290000D03*
D14*
%TO.P,D6,2*%
%TO.N,Net-(D6-Pad2)*%
X169164000Y-39370000D03*
%TD*%
D13*
%TO.P,D5,1*%
%TO.N,ROW5*%
X155956000Y-34290000D03*
D14*
%TO.P,D5,2*%
%TO.N,Net-(D5-Pad2)*%
X155956000Y-39370000D03*
%TD*%
D13*
%TO.P,D4,1*%
%TO.N,ROW4*%
X152654000Y-34290000D03*
D14*
%TO.P,D4,2*%
%TO.N,Net-(D4-Pad2)*%
X152654000Y-39370000D03*
%TD*%
D13*
%TO.P,D3,1*%
%TO.N,ROW3*%
X149352000Y-34290000D03*
D14*
%TO.P,D3,2*%
%TO.N,Net-(D3-Pad2)*%
X149352000Y-39370000D03*
%TD*%
D13*
%TO.P,D2,1*%
%TO.N,ROW2*%
X146050000Y-34290000D03*
D14*
%TO.P,D2,2*%
%TO.N,Net-(D2-Pad2)*%
X146050000Y-39370000D03*
%TD*%
D13*
%TO.P,D1,1*%
%TO.N,ROW1*%
X142748000Y-34290000D03*
D14*
%TO.P,D1,2*%
%TO.N,Net-(D1-Pad2)*%
X142748000Y-39370000D03*
%TD*%
D15*
%TO.P,U1,24*%
%TO.N,Net-(U1-Pad24)*%
X103033610Y-35040202D03*
%TO.P,U1,12*%
%TO.N,COL5*%
X130973610Y-55280202D03*
%TO.P,U1,23*%
%TO.N,GND*%
X105573610Y-35040202D03*
%TO.P,U1,22*%
%TO.N,Net-(U1-Pad22)*%
X108113610Y-35040202D03*
%TO.P,U1,21*%
%TO.N,VCC*%
X110653610Y-35040202D03*
%TO.P,U1,20*%
%TO.N,B1*%
X113193610Y-35040202D03*
%TO.P,U1,19*%
%TO.N,B2*%
X115733610Y-35040202D03*
%TO.P,U1,18*%
%TO.N,B3*%
X118273610Y-35040202D03*
%TO.P,U1,17*%
%TO.N,ROW5*%
X120813610Y-35040202D03*
%TO.P,U1,16*%
%TO.N,ROW4*%
X123353610Y-35040202D03*
%TO.P,U1,15*%
%TO.N,ROW3*%
X125893610Y-35040202D03*
%TO.P,U1,14*%
%TO.N,ROW2*%
X128433610Y-35040202D03*
%TO.P,U1,13*%
%TO.N,ROW1*%
X130973610Y-35040202D03*
%TO.P,U1,11*%
%TO.N,COL4*%
X128433610Y-55280202D03*
%TO.P,U1,10*%
%TO.N,COL3*%
X125893610Y-55280202D03*
%TO.P,U1,9*%
%TO.N,COL2*%
X123353610Y-55280202D03*
%TO.P,U1,8*%
%TO.N,COL1*%
X120813610Y-55280202D03*
%TO.P,U1,7*%
%TO.N,A3*%
X118273610Y-55280202D03*
%TO.P,U1,6*%
%TO.N,A2*%
X115733610Y-55280202D03*
%TO.P,U1,5*%
%TO.N,A1*%
X113193610Y-55280202D03*
%TO.P,U1,4*%
%TO.N,Net-(U1-Pad4)*%
X110653610Y-55280202D03*
%TO.P,U1,3*%
%TO.N,Net-(U1-Pad3)*%
X108113610Y-55280202D03*
%TO.P,U1,2*%
%TO.N,Net-(U1-Pad2)*%
X105573610Y-55280202D03*
D16*
%TO.P,U1,1*%
%TO.N,Net-(U1-Pad1)*%
X103033610Y-55280202D03*
%TD*%
D17*
%TO.P,SW3,S1*%
%TO.N,COL5*%
X191150000Y-145375000D03*
%TO.P,SW3,S2*%
%TO.N,Net-(D20-Pad2)*%
X191150000Y-140375000D03*
D18*
%TO.P,SW3,*%
%TO.N,*%
X184150000Y-148475000D03*
X184150000Y-137275000D03*
D17*
%TO.P,SW3,B*%
%TO.N,Net-(R12-Pad2)*%
X176650000Y-145375000D03*
%TO.P,SW3,C*%
%TO.N,GND*%
X176650000Y-142875000D03*
D19*
%TO.P,SW3,A*%
%TO.N,Net-(R11-Pad2)*%
X176650000Y-140375000D03*
%TD*%
D17*
%TO.P,SW2,S1*%
%TO.N,COL5*%
X191150000Y-119975000D03*
%TO.P,SW2,S2*%
%TO.N,Net-(D19-Pad2)*%
X191150000Y-114975000D03*
D18*
%TO.P,SW2,*%
%TO.N,*%
X184150000Y-123075000D03*
X184150000Y-111875000D03*
D17*
%TO.P,SW2,B*%
%TO.N,Net-(R10-Pad2)*%
X176650000Y-119975000D03*
%TO.P,SW2,C*%
%TO.N,GND*%
X176650000Y-117475000D03*
D19*
%TO.P,SW2,A*%
%TO.N,Net-(R3-Pad2)*%
X176650000Y-114975000D03*
%TD*%
D17*
%TO.P,SW1,S1*%
%TO.N,COL5*%
X191150000Y-94575000D03*
%TO.P,SW1,S2*%
%TO.N,Net-(D18-Pad2)*%
X191150000Y-89575000D03*
D18*
%TO.P,SW1,*%
%TO.N,*%
X184150000Y-97675000D03*
X184150000Y-86475000D03*
D17*
%TO.P,SW1,B*%
%TO.N,Net-(R2-Pad2)*%
X176650000Y-94575000D03*
%TO.P,SW1,C*%
%TO.N,GND*%
X176650000Y-92075000D03*
D19*
%TO.P,SW1,A*%
%TO.N,Net-(R1-Pad2)*%
X176650000Y-89575000D03*
%TD*%
D20*
%TO.P,R12,1*%
%TO.N,VCC*%
X189293500Y-53340000D03*
%TO.P,R12,2*%
%TO.N,Net-(R12-Pad2)*%
X179133500Y-53340000D03*
%TD*%
%TO.P,R11,1*%
%TO.N,VCC*%
X189293500Y-56515000D03*
%TO.P,R11,2*%
%TO.N,Net-(R11-Pad2)*%
X179133500Y-56515000D03*
%TD*%
%TO.P,R10,1*%
%TO.N,VCC*%
X189293500Y-59690000D03*
%TO.P,R10,2*%
%TO.N,Net-(R10-Pad2)*%
X179133500Y-59690000D03*
%TD*%
%TO.P,R9,1*%
%TO.N,VCC*%
X189293500Y-62865000D03*
%TO.P,R9,2*%
%TO.N,Net-(R3-Pad2)*%
X179133500Y-62865000D03*
%TD*%
%TO.P,R8,1*%
%TO.N,VCC*%
X189293500Y-66040000D03*
%TO.P,R8,2*%
%TO.N,Net-(R2-Pad2)*%
X179133500Y-66040000D03*
%TD*%
%TO.P,R7,1*%
%TO.N,VCC*%
X189293500Y-69215000D03*
%TO.P,R7,2*%
%TO.N,Net-(R1-Pad2)*%
X179133500Y-69215000D03*
%TD*%
%TO.P,R6,1*%
%TO.N,B3*%
X189230000Y-50292000D03*
%TO.P,R6,2*%
%TO.N,Net-(R12-Pad2)*%
X179070000Y-50292000D03*
%TD*%
%TO.P,R5,1*%
%TO.N,A3*%
X189230000Y-47244000D03*
%TO.P,R5,2*%
%TO.N,Net-(R11-Pad2)*%
X179070000Y-47244000D03*
%TD*%
%TO.P,R4,1*%
%TO.N,B2*%
X189230000Y-44196000D03*
%TO.P,R4,2*%
%TO.N,Net-(R10-Pad2)*%
X179070000Y-44196000D03*
%TD*%
%TO.P,R3,1*%
%TO.N,A2*%
X189230000Y-41148000D03*
%TO.P,R3,2*%
%TO.N,Net-(R3-Pad2)*%
X179070000Y-41148000D03*
%TD*%
%TO.P,R2,1*%
%TO.N,B1*%
X189230000Y-38100000D03*
%TO.P,R2,2*%
%TO.N,Net-(R2-Pad2)*%
X179070000Y-38100000D03*
%TD*%
%TO.P,R1,1*%
%TO.N,A1*%
X189230000Y-35052000D03*
%TO.P,R1,2*%
%TO.N,Net-(R1-Pad2)*%
X179070000Y-35052000D03*
%TD*%
D21*
%TO.N,GND*%
X195580000Y-52324000D03*
X193802000Y-32004000D03*
%TO.N,COL5*%
X151892000Y-65024000D03*
%TD*%
D22*
%TO.N,ROW1*%
X142748000Y-48006000D02*
X143256000Y-48006000D01*
X143256000Y-48006000D02*
X144272000Y-46990000D01*
X144272000Y-35814000D02*
X142748000Y-34290000D01*
X144272000Y-46990000D02*
X144272000Y-35814000D01*
%TO.N,ROW2*%
X146050000Y-48006000D02*
X147574000Y-46482000D01*
X147574000Y-35814000D02*
X146050000Y-34290000D01*
X147574000Y-46482000D02*
X147574000Y-35814000D01*
%TO.N,ROW3*%
X150479001Y-35417001D02*
X149352000Y-34290000D01*
X150479001Y-46878999D02*
X150479001Y-35417001D01*
X149352000Y-48006000D02*
X150479001Y-46878999D01*
%TO.N,COL1*%
X114418750Y-145518750D02*
X114418750Y-143628750D01*
X114418750Y-143628750D02*
X105918000Y-135128000D01*
X105918000Y-126873000D02*
X104933750Y-125888750D01*
X105918000Y-107823000D02*
X104933750Y-106838750D01*
X105918000Y-127000000D02*
X105918000Y-107823000D01*
X105918000Y-135128000D02*
X105918000Y-127000000D01*
X105918000Y-127000000D02*
X105918000Y-126873000D01*
X104893750Y-87828750D02*
X104933750Y-87788750D01*
X104893750Y-107418750D02*
X104893750Y-87828750D01*
X104893750Y-68778750D02*
X104933750Y-68738750D01*
X104893750Y-88368750D02*
X104893750Y-68778750D01*
X104893750Y-69318750D02*
X104893750Y-62746250D01*
X104893750Y-62746250D02*
X108458000Y-59182000D01*
X108458000Y-59182000D02*
X118364000Y-59182000D01*
X120813610Y-56732390D02*
X120813610Y-55280202D01*
X118364000Y-59182000D02*
X120813610Y-56732390D01*
%TO.N,A1*%
X113193610Y-54700390D02*
X113193610Y-55280202D01*
X113817099Y-54076901D02*
X113193610Y-54700390D01*
X141830925Y-51050979D02*
X139831886Y-53050018D01*
X139831886Y-53050018D02*
X118639848Y-53050018D01*
X180848000Y-35052000D02*
X179695499Y-36204501D01*
X176891980Y-50677888D02*
X176518889Y-51050979D01*
X179695499Y-36204501D02*
X178425499Y-36204501D01*
X116197933Y-53594000D02*
X115715032Y-54076901D01*
X178425499Y-36204501D02*
X176891980Y-37738020D01*
X176891980Y-37738020D02*
X176891980Y-50677888D01*
X118095866Y-53594000D02*
X116197933Y-53594000D01*
X189230000Y-35052000D02*
X180848000Y-35052000D01*
X176518889Y-51050979D02*
X141830925Y-51050979D01*
X115715032Y-54076901D02*
X113817099Y-54076901D01*
X118639848Y-53050018D02*
X118095866Y-53594000D01*
%TO.N,GND*%
X192077990Y-31803990D02*
X108809822Y-31803990D01*
X189738000Y-72644000D02*
X190836511Y-71545489D01*
X182880000Y-72644000D02*
X189738000Y-72644000D01*
X178508010Y-77015990D02*
X182880000Y-72644000D01*
X178508010Y-90216990D02*
X178508010Y-77015990D01*
X108809822Y-31803990D02*
X105573610Y-35040202D01*
X190836511Y-71545489D02*
X190836511Y-55289489D01*
X176650000Y-92075000D02*
X178508010Y-90216990D01*
X190836511Y-55289489D02*
X190836511Y-54781489D01*
X190836511Y-54781489D02*
X192532000Y-53086000D01*
X192532000Y-53086000D02*
X194818000Y-53086000D01*
X194818000Y-53086000D02*
X195580000Y-52324000D01*
X195580000Y-52324000D02*
X195580000Y-52070000D01*
X192278000Y-32004000D02*
X192077990Y-31803990D01*
X193802000Y-32004000D02*
X192278000Y-32004000D01*
X176650000Y-142875000D02*
X178562000Y-140963000D01*
X178562000Y-119387000D02*
X176650000Y-117475000D01*
X178562000Y-140963000D02*
X178562000Y-119387000D01*
X178562000Y-93987000D02*
X176650000Y-92075000D01*
X178562000Y-119387000D02*
X178562000Y-93987000D01*
%TO.N,A2*%
X179324000Y-42926000D02*
X181102000Y-41148000D01*
X178415980Y-42926000D02*
X179324000Y-42926000D01*
X177345990Y-43995990D02*
X178415980Y-42926000D01*
X176706945Y-51504989D02*
X177345990Y-50865944D01*
X181102000Y-41148000D02*
X189230000Y-41148000D01*
X142018982Y-51504989D02*
X176706945Y-51504989D01*
X140019943Y-53504028D02*
X142018982Y-51504989D01*
X116357099Y-54076901D02*
X118255032Y-54076901D01*
X118255032Y-54076901D02*
X118827905Y-53504028D01*
X115733610Y-54700390D02*
X116357099Y-54076901D01*
X177345990Y-50865944D02*
X177345990Y-43995990D01*
X118827905Y-53504028D02*
X140019943Y-53504028D01*
X115733610Y-55280202D02*
X115733610Y-54700390D01*
%TO.N,A3*%
X119015962Y-53958038D02*
X118273610Y-54700390D01*
X142207039Y-51958999D02*
X140208000Y-53958038D01*
X176895001Y-51958999D02*
X142207039Y-51958999D01*
X177800000Y-51054000D02*
X176895001Y-51958999D01*
X177800000Y-49022000D02*
X177800000Y-51054000D01*
X118273610Y-54700390D02*
X118273610Y-55280202D01*
X140208000Y-53958038D02*
X119015962Y-53958038D01*
X178308000Y-48514000D02*
X177800000Y-49022000D01*
X180848000Y-47244000D02*
X179578000Y-48514000D01*
X179578000Y-48514000D02*
X178308000Y-48514000D01*
X189230000Y-47244000D02*
X180848000Y-47244000D01*
%TO.N,ROW4*%
X153781001Y-35417001D02*
X152654000Y-34290000D01*
X153781001Y-46878999D02*
X153781001Y-35417001D01*
X152654000Y-48006000D02*
X153781001Y-46878999D01*
%TO.N,ROW5*%
X155956000Y-48006000D02*
X156210000Y-48006000D01*
X157083001Y-35417001D02*
X155956000Y-34290000D01*
X157083001Y-47132999D02*
X157083001Y-35417001D01*
X156210000Y-48006000D02*
X157083001Y-47132999D01*
%TO.N,COL2*%
X142993750Y-145518750D02*
X142993750Y-145279750D01*
X142993750Y-145279750D02*
X137668000Y-139954000D01*
X137668000Y-139954000D02*
X129540000Y-139954000D01*
X129540000Y-139954000D02*
X124714000Y-135128000D01*
X124714000Y-126619000D02*
X123983750Y-125888750D01*
X124714000Y-108189000D02*
X123943750Y-107418750D01*
X124714000Y-127508000D02*
X124714000Y-108189000D01*
X124714000Y-135128000D02*
X124714000Y-127508000D01*
X124714000Y-127508000D02*
X124714000Y-126619000D01*
X123943750Y-107418750D02*
X123943750Y-88368750D01*
X123943750Y-88368750D02*
X123943750Y-69318750D01*
X123943750Y-69318750D02*
X123943750Y-68063750D01*
X123353610Y-67473610D02*
X123353610Y-55280202D01*
X123943750Y-68063750D02*
X123353610Y-67473610D01*
%TO.N,COL3*%
X142993750Y-69318750D02*
X142993750Y-66539750D01*
X142993750Y-66539750D02*
X137414000Y-60960000D01*
X137414000Y-60960000D02*
X128270000Y-60960000D01*
X125893610Y-58583610D02*
X125893610Y-55280202D01*
X128270000Y-60960000D02*
X125893610Y-58583610D01*
X142993750Y-126468750D02*
X142993750Y-107418750D01*
X142993750Y-107418750D02*
X142993750Y-88368750D01*
X142993750Y-68778750D02*
X143033750Y-68738750D01*
X142993750Y-88368750D02*
X142993750Y-68778750D01*
%TO.N,COL4*%
X155043750Y-137993750D02*
X155043750Y-107545750D01*
X153338751Y-100978749D02*
X154463750Y-99853750D01*
X153338751Y-105840751D02*
X153338751Y-100978749D01*
X155043750Y-107545750D02*
X153338751Y-105840751D01*
X162043750Y-69318750D02*
X162028750Y-69318750D01*
X128433610Y-58583610D02*
X128433610Y-55280202D01*
X130302000Y-60452000D02*
X128433610Y-58583610D01*
X137668000Y-60452000D02*
X130302000Y-60452000D01*
X147574000Y-70358000D02*
X137668000Y-60452000D01*
X147574000Y-96647962D02*
X147574000Y-70358000D01*
X150819788Y-99893750D02*
X147574000Y-96647962D01*
X155043750Y-99893750D02*
X150819788Y-99893750D01*
X162043750Y-69318750D02*
X160250750Y-69318750D01*
X149565251Y-68366749D02*
X147574000Y-70358000D01*
X159298749Y-68366749D02*
X149565251Y-68366749D01*
X160250750Y-69318750D02*
X159298749Y-68366749D01*
%TO.N,Net-(R1-Pad2)*%
X176650000Y-89575000D02*
X177125000Y-89575000D01*
X178054000Y-70294500D02*
X179133500Y-69215000D01*
X176650000Y-89575000D02*
X176650000Y-87136066D01*
X176650000Y-87136066D02*
X178054000Y-85732066D01*
X178054000Y-85732066D02*
X178054000Y-70294500D01*
%TO.N,Net-(R2-Pad2)*%
X175322999Y-93247999D02*
X175322999Y-87821001D01*
X176650000Y-94575000D02*
X175322999Y-93247999D01*
X177599990Y-85544010D02*
X177599990Y-69034010D01*
X175322999Y-87821001D02*
X177599990Y-85544010D01*
X177599990Y-69034010D02*
X178054000Y-68580000D01*
X178054000Y-67119500D02*
X179133500Y-66040000D01*
X178054000Y-68580000D02*
X178054000Y-67119500D01*
%TO.N,Net-(R3-Pad2)*%
X178689000Y-62865000D02*
X179133500Y-62865000D01*
X177980999Y-66550434D02*
X177980999Y-63573001D01*
X177599990Y-66931443D02*
X177980999Y-66550434D01*
X177145980Y-68845953D02*
X177599990Y-68391943D01*
X177145980Y-85355953D02*
X177145980Y-68845953D01*
X174868989Y-87632944D02*
X177145980Y-85355953D01*
X177599990Y-68391943D02*
X177599990Y-66931443D01*
X174868989Y-114162989D02*
X174868989Y-87632944D01*
X175681000Y-114975000D02*
X174868989Y-114162989D01*
X177980999Y-63573001D02*
X178689000Y-62865000D01*
X176650000Y-114975000D02*
X175681000Y-114975000D01*
%TO.N,Net-(R10-Pad2)*%
X176691970Y-85167897D02*
X174414979Y-87444888D01*
X176691970Y-68657896D02*
X176691970Y-85167897D01*
X177145980Y-68203886D02*
X176691970Y-68657896D01*
X174414979Y-87444888D02*
X174414979Y-117739979D01*
X177145980Y-66743386D02*
X177145980Y-68203886D01*
X177526989Y-66362377D02*
X177145980Y-66743386D01*
X177526989Y-63384944D02*
X177526989Y-66362377D01*
X177980999Y-60271001D02*
X177980999Y-62930935D01*
X174414979Y-117739979D02*
X176650000Y-119975000D01*
X178562000Y-59690000D02*
X177980999Y-60271001D01*
X177980999Y-62930935D02*
X177526989Y-63384944D01*
X179133500Y-59690000D02*
X178562000Y-59690000D01*
%TO.N,Net-(R11-Pad2)*%
X178689000Y-56515000D02*
X179133500Y-56515000D01*
X176650000Y-140375000D02*
X173960969Y-137685969D01*
X176237960Y-84979840D02*
X176237960Y-68469839D01*
X173960969Y-137685969D02*
X173960969Y-87256831D01*
X177072979Y-66174320D02*
X177072979Y-63196887D01*
X176237960Y-68469839D02*
X176691970Y-68015829D01*
X177526989Y-60082944D02*
X177980999Y-59628934D01*
X176691970Y-68015829D02*
X176691970Y-66555329D01*
X177072979Y-63196887D02*
X177526989Y-62742877D01*
X173960969Y-87256831D02*
X176237960Y-84979840D01*
X177526989Y-62742877D02*
X177526989Y-60082944D01*
X176691970Y-66555329D02*
X177072979Y-66174320D01*
X177980999Y-59628934D02*
X177980999Y-57223001D01*
X177980999Y-57223001D02*
X178689000Y-56515000D01*
%TO.N,Net-(R12-Pad2)*%
X179133500Y-53340000D02*
X178816000Y-53340000D01*
X176650000Y-145375000D02*
X173482000Y-142207000D01*
X173482000Y-142207000D02*
X173482000Y-134112000D01*
X173506959Y-87068774D02*
X173772913Y-86802821D01*
X173506959Y-114021041D02*
X173506959Y-87068774D01*
X173482000Y-114046000D02*
X173506959Y-114021041D01*
X173482000Y-134112000D02*
X173482000Y-114046000D01*
X175626867Y-84948867D02*
X175753867Y-84821867D01*
X173772913Y-86802821D02*
X175626867Y-84948867D01*
X178562000Y-53340000D02*
X179133500Y-53340000D01*
X175626867Y-84948867D02*
X175768000Y-84807734D01*
X177072979Y-62554820D02*
X177072979Y-59894887D01*
X177980999Y-53921001D02*
X178562000Y-53340000D01*
X175768000Y-84807734D02*
X175768000Y-84582000D01*
X175768000Y-84582000D02*
X175783950Y-84566050D01*
X175783950Y-84566050D02*
X175783950Y-68281782D01*
X175783950Y-68281782D02*
X176237960Y-67827772D01*
X177072979Y-59894887D02*
X177526989Y-59440877D01*
X177980999Y-56580935D02*
X177980999Y-53921001D01*
X176237960Y-67827772D02*
X176237960Y-66367272D01*
X176237960Y-66367272D02*
X176618969Y-65986263D01*
X177526989Y-59440877D02*
X177526989Y-57034944D01*
X176618969Y-65986263D02*
X176618969Y-63008830D01*
X176618969Y-63008830D02*
X177072979Y-62554820D01*
X177526989Y-57034944D02*
X177980999Y-56580935D01*
%TO.N,VCC*%
X110653610Y-35040202D02*
X113435812Y-32258000D01*
X113435812Y-32258000D02*
X189484000Y-32258000D01*
X190382501Y-52250999D02*
X189293500Y-53340000D01*
X190382501Y-33156501D02*
X190382501Y-52250999D01*
X189484000Y-32258000D02*
X190382501Y-33156501D01*
X190382501Y-55425999D02*
X189293500Y-56515000D01*
X190382501Y-58600999D02*
X189293500Y-59690000D01*
X190382501Y-54981499D02*
X190382501Y-58600999D01*
X190382501Y-52250999D02*
X190382501Y-54981499D01*
X190382501Y-54981499D02*
X190382501Y-55425999D01*
X189293500Y-62865000D02*
X189611000Y-62865000D01*
X190382501Y-62093499D02*
X190382501Y-58600999D01*
X189611000Y-62865000D02*
X190382501Y-62093499D01*
X189293500Y-66040000D02*
X189738000Y-66040000D01*
X190382501Y-65395499D02*
X190382501Y-62093499D01*
X189738000Y-66040000D02*
X190382501Y-65395499D01*
X190382501Y-65395499D02*
X190382501Y-68125999D01*
X190382501Y-68125999D02*
X190341250Y-68167250D01*
X190382501Y-68125999D02*
X189293500Y-69215000D01*
%TO.N,COL5*%
X130973610Y-58329610D02*
X130973610Y-55280202D01*
X132588000Y-59944000D02*
X130973610Y-58329610D01*
X137802066Y-59944000D02*
X132588000Y-59944000D01*
X142882066Y-65024000D02*
X137802066Y-59944000D01*
X151892000Y-65024000D02*
X142882066Y-65024000D01*
%TD*%
M02*
