%TF.GenerationSoftware,KiCad,Pcbnew,(5.1.10)-1*%
%TF.CreationDate,2021-10-28T11:13:53+08:00*%
%TF.ProjectId,EGPad,45475061-642e-46b6-9963-61645f706362,rev?*%
%TF.SameCoordinates,Original*%
%TF.FileFunction,Legend,Top*%
%TF.FilePolarity,Positive*%
%FSLAX46Y46*%
G04 Gerber Fmt 4.6, Leading zero omitted, Abs format (unit mm)*
G04 Created by KiCad (PCBNEW (5.1.10)-1) date 2021-10-28 11:13:53*
%MOMM*%
%LPD*%
G01*
G04 APERTURE LIST*
%ADD10C,0.150000*%
%ADD11C,0.120000*%
%ADD12C,0.200000*%
%ADD13C,0.381000*%
%ADD14C,0.203200*%
%ADD15C,0.254000*%
G04 APERTURE END LIST*
D10*
X177173511Y-156297321D02*
X177506845Y-156297321D01*
X177649702Y-156821130D02*
X177173511Y-156821130D01*
X177173511Y-155821130D01*
X177649702Y-155821130D01*
X178602083Y-155868750D02*
X178506845Y-155821130D01*
X178363988Y-155821130D01*
X178221130Y-155868750D01*
X178125892Y-155963988D01*
X178078273Y-156059226D01*
X178030654Y-156249702D01*
X178030654Y-156392559D01*
X178078273Y-156583035D01*
X178125892Y-156678273D01*
X178221130Y-156773511D01*
X178363988Y-156821130D01*
X178459226Y-156821130D01*
X178602083Y-156773511D01*
X178649702Y-156725892D01*
X178649702Y-156392559D01*
X178459226Y-156392559D01*
X179078273Y-156821130D02*
X179078273Y-155821130D01*
X179459226Y-155821130D01*
X179554464Y-155868750D01*
X179602083Y-155916369D01*
X179649702Y-156011607D01*
X179649702Y-156154464D01*
X179602083Y-156249702D01*
X179554464Y-156297321D01*
X179459226Y-156344940D01*
X179078273Y-156344940D01*
X180506845Y-156821130D02*
X180506845Y-156297321D01*
X180459226Y-156202083D01*
X180363988Y-156154464D01*
X180173511Y-156154464D01*
X180078273Y-156202083D01*
X180506845Y-156773511D02*
X180411607Y-156821130D01*
X180173511Y-156821130D01*
X180078273Y-156773511D01*
X180030654Y-156678273D01*
X180030654Y-156583035D01*
X180078273Y-156487797D01*
X180173511Y-156440178D01*
X180411607Y-156440178D01*
X180506845Y-156392559D01*
X181411607Y-156821130D02*
X181411607Y-155821130D01*
X181411607Y-156773511D02*
X181316369Y-156821130D01*
X181125892Y-156821130D01*
X181030654Y-156773511D01*
X180983035Y-156725892D01*
X180935416Y-156630654D01*
X180935416Y-156344940D01*
X180983035Y-156249702D01*
X181030654Y-156202083D01*
X181125892Y-156154464D01*
X181316369Y-156154464D01*
X181411607Y-156202083D01*
X182506845Y-155821130D02*
X182840178Y-156821130D01*
X183173511Y-155821130D01*
X184030654Y-156821130D02*
X183459226Y-156821130D01*
X183744940Y-156821130D02*
X183744940Y-155821130D01*
X183649702Y-155963988D01*
X183554464Y-156059226D01*
X183459226Y-156106845D01*
X184459226Y-156725892D02*
X184506845Y-156773511D01*
X184459226Y-156821130D01*
X184411607Y-156773511D01*
X184459226Y-156725892D01*
X184459226Y-156821130D01*
X185125892Y-155821130D02*
X185221130Y-155821130D01*
X185316369Y-155868750D01*
X185363988Y-155916369D01*
X185411607Y-156011607D01*
X185459226Y-156202083D01*
X185459226Y-156440178D01*
X185411607Y-156630654D01*
X185363988Y-156725892D01*
X185316369Y-156773511D01*
X185221130Y-156821130D01*
X185125892Y-156821130D01*
X185030654Y-156773511D01*
X184983035Y-156725892D01*
X184935416Y-156630654D01*
X184887797Y-156440178D01*
X184887797Y-156202083D01*
X184935416Y-156011607D01*
X184983035Y-155916369D01*
X185030654Y-155868750D01*
X185125892Y-155821130D01*
X186411607Y-156821130D02*
X185840178Y-156821130D01*
X186125892Y-156821130D02*
X186125892Y-155821130D01*
X186030654Y-155963988D01*
X185935416Y-156059226D01*
X185840178Y-156106845D01*
D11*
%TO.C,D20*%
X171936000Y-36380000D02*
X173016000Y-36380000D01*
X171936000Y-37430000D02*
X173016000Y-37430000D01*
X172466000Y-36490000D02*
X171936000Y-37400000D01*
X172476000Y-36480000D02*
X173016000Y-37430000D01*
X171466000Y-35350000D02*
X173466000Y-35350000D01*
X172476000Y-35090000D02*
X172476000Y-36370000D01*
X172476000Y-38550000D02*
X172476000Y-37430000D01*
X171466000Y-38340000D02*
X173456000Y-38340000D01*
X173466000Y-35350000D02*
X173456000Y-38340000D01*
X171466000Y-35360000D02*
X171466000Y-38330000D01*
%TO.C,D19*%
X171936000Y-50096000D02*
X173016000Y-50096000D01*
X171936000Y-51146000D02*
X173016000Y-51146000D01*
X172466000Y-50206000D02*
X171936000Y-51116000D01*
X172476000Y-50196000D02*
X173016000Y-51146000D01*
X171466000Y-49066000D02*
X173466000Y-49066000D01*
X172476000Y-48806000D02*
X172476000Y-50086000D01*
X172476000Y-52266000D02*
X172476000Y-51146000D01*
X171466000Y-52056000D02*
X173456000Y-52056000D01*
X173466000Y-49066000D02*
X173456000Y-52056000D01*
X171466000Y-49076000D02*
X171466000Y-52046000D01*
%TO.C,D18*%
X168634000Y-50096000D02*
X169714000Y-50096000D01*
X168634000Y-51146000D02*
X169714000Y-51146000D01*
X169164000Y-50206000D02*
X168634000Y-51116000D01*
X169174000Y-50196000D02*
X169714000Y-51146000D01*
X168164000Y-49066000D02*
X170164000Y-49066000D01*
X169174000Y-48806000D02*
X169174000Y-50086000D01*
X169174000Y-52266000D02*
X169174000Y-51146000D01*
X168164000Y-52056000D02*
X170154000Y-52056000D01*
X170164000Y-49066000D02*
X170154000Y-52056000D01*
X168164000Y-49076000D02*
X168164000Y-52046000D01*
%TO.C,D17*%
X158728000Y-50096000D02*
X159808000Y-50096000D01*
X158728000Y-51146000D02*
X159808000Y-51146000D01*
X159258000Y-50206000D02*
X158728000Y-51116000D01*
X159268000Y-50196000D02*
X159808000Y-51146000D01*
X158258000Y-49066000D02*
X160258000Y-49066000D01*
X159268000Y-48806000D02*
X159268000Y-50086000D01*
X159268000Y-52266000D02*
X159268000Y-51146000D01*
X158258000Y-52056000D02*
X160248000Y-52056000D01*
X160258000Y-49066000D02*
X160248000Y-52056000D01*
X158258000Y-49076000D02*
X158258000Y-52046000D01*
%TO.C,D16*%
X162030000Y-50096000D02*
X163110000Y-50096000D01*
X162030000Y-51146000D02*
X163110000Y-51146000D01*
X162560000Y-50206000D02*
X162030000Y-51116000D01*
X162570000Y-50196000D02*
X163110000Y-51146000D01*
X161560000Y-49066000D02*
X163560000Y-49066000D01*
X162570000Y-48806000D02*
X162570000Y-50086000D01*
X162570000Y-52266000D02*
X162570000Y-51146000D01*
X161560000Y-52056000D02*
X163550000Y-52056000D01*
X163560000Y-49066000D02*
X163550000Y-52056000D01*
X161560000Y-49076000D02*
X161560000Y-52046000D01*
%TO.C,D15*%
X165332000Y-50096000D02*
X166412000Y-50096000D01*
X165332000Y-51146000D02*
X166412000Y-51146000D01*
X165862000Y-50206000D02*
X165332000Y-51116000D01*
X165872000Y-50196000D02*
X166412000Y-51146000D01*
X164862000Y-49066000D02*
X166862000Y-49066000D01*
X165872000Y-48806000D02*
X165872000Y-50086000D01*
X165872000Y-52266000D02*
X165872000Y-51146000D01*
X164862000Y-52056000D02*
X166852000Y-52056000D01*
X166862000Y-49066000D02*
X166852000Y-52056000D01*
X164862000Y-49076000D02*
X164862000Y-52046000D01*
%TO.C,D14*%
X151654000Y-49076000D02*
X151654000Y-52046000D01*
X153654000Y-49066000D02*
X153644000Y-52056000D01*
X151654000Y-52056000D02*
X153644000Y-52056000D01*
X152664000Y-52266000D02*
X152664000Y-51146000D01*
X152664000Y-48806000D02*
X152664000Y-50086000D01*
X151654000Y-49066000D02*
X153654000Y-49066000D01*
X152664000Y-50196000D02*
X153204000Y-51146000D01*
X152654000Y-50206000D02*
X152124000Y-51116000D01*
X152124000Y-51146000D02*
X153204000Y-51146000D01*
X152124000Y-50096000D02*
X153204000Y-50096000D01*
%TO.C,D13*%
X148822000Y-50096000D02*
X149902000Y-50096000D01*
X148822000Y-51146000D02*
X149902000Y-51146000D01*
X149352000Y-50206000D02*
X148822000Y-51116000D01*
X149362000Y-50196000D02*
X149902000Y-51146000D01*
X148352000Y-49066000D02*
X150352000Y-49066000D01*
X149362000Y-48806000D02*
X149362000Y-50086000D01*
X149362000Y-52266000D02*
X149362000Y-51146000D01*
X148352000Y-52056000D02*
X150342000Y-52056000D01*
X150352000Y-49066000D02*
X150342000Y-52056000D01*
X148352000Y-49076000D02*
X148352000Y-52046000D01*
%TO.C,D12*%
X145520000Y-50096000D02*
X146600000Y-50096000D01*
X145520000Y-51146000D02*
X146600000Y-51146000D01*
X146050000Y-50206000D02*
X145520000Y-51116000D01*
X146060000Y-50196000D02*
X146600000Y-51146000D01*
X145050000Y-49066000D02*
X147050000Y-49066000D01*
X146060000Y-48806000D02*
X146060000Y-50086000D01*
X146060000Y-52266000D02*
X146060000Y-51146000D01*
X145050000Y-52056000D02*
X147040000Y-52056000D01*
X147050000Y-49066000D02*
X147040000Y-52056000D01*
X145050000Y-49076000D02*
X145050000Y-52046000D01*
%TO.C,D11*%
X142218000Y-50096000D02*
X143298000Y-50096000D01*
X142218000Y-51146000D02*
X143298000Y-51146000D01*
X142748000Y-50206000D02*
X142218000Y-51116000D01*
X142758000Y-50196000D02*
X143298000Y-51146000D01*
X141748000Y-49066000D02*
X143748000Y-49066000D01*
X142758000Y-48806000D02*
X142758000Y-50086000D01*
X142758000Y-52266000D02*
X142758000Y-51146000D01*
X141748000Y-52056000D02*
X143738000Y-52056000D01*
X143748000Y-49066000D02*
X143738000Y-52056000D01*
X141748000Y-49076000D02*
X141748000Y-52046000D01*
%TO.C,D10*%
X155426000Y-50096000D02*
X156506000Y-50096000D01*
X155426000Y-51146000D02*
X156506000Y-51146000D01*
X155956000Y-50206000D02*
X155426000Y-51116000D01*
X155966000Y-50196000D02*
X156506000Y-51146000D01*
X154956000Y-49066000D02*
X156956000Y-49066000D01*
X155966000Y-48806000D02*
X155966000Y-50086000D01*
X155966000Y-52266000D02*
X155966000Y-51146000D01*
X154956000Y-52056000D02*
X156946000Y-52056000D01*
X156956000Y-49066000D02*
X156946000Y-52056000D01*
X154956000Y-49076000D02*
X154956000Y-52046000D01*
%TO.C,D9*%
X158728000Y-36380000D02*
X159808000Y-36380000D01*
X158728000Y-37430000D02*
X159808000Y-37430000D01*
X159258000Y-36490000D02*
X158728000Y-37400000D01*
X159268000Y-36480000D02*
X159808000Y-37430000D01*
X158258000Y-35350000D02*
X160258000Y-35350000D01*
X159268000Y-35090000D02*
X159268000Y-36370000D01*
X159268000Y-38550000D02*
X159268000Y-37430000D01*
X158258000Y-38340000D02*
X160248000Y-38340000D01*
X160258000Y-35350000D02*
X160248000Y-38340000D01*
X158258000Y-35360000D02*
X158258000Y-38330000D01*
%TO.C,D8*%
X162030000Y-36380000D02*
X163110000Y-36380000D01*
X162030000Y-37430000D02*
X163110000Y-37430000D01*
X162560000Y-36490000D02*
X162030000Y-37400000D01*
X162570000Y-36480000D02*
X163110000Y-37430000D01*
X161560000Y-35350000D02*
X163560000Y-35350000D01*
X162570000Y-35090000D02*
X162570000Y-36370000D01*
X162570000Y-38550000D02*
X162570000Y-37430000D01*
X161560000Y-38340000D02*
X163550000Y-38340000D01*
X163560000Y-35350000D02*
X163550000Y-38340000D01*
X161560000Y-35360000D02*
X161560000Y-38330000D01*
%TO.C,D7*%
X165332000Y-36380000D02*
X166412000Y-36380000D01*
X165332000Y-37430000D02*
X166412000Y-37430000D01*
X165862000Y-36490000D02*
X165332000Y-37400000D01*
X165872000Y-36480000D02*
X166412000Y-37430000D01*
X164862000Y-35350000D02*
X166862000Y-35350000D01*
X165872000Y-35090000D02*
X165872000Y-36370000D01*
X165872000Y-38550000D02*
X165872000Y-37430000D01*
X164862000Y-38340000D02*
X166852000Y-38340000D01*
X166862000Y-35350000D02*
X166852000Y-38340000D01*
X164862000Y-35360000D02*
X164862000Y-38330000D01*
%TO.C,D6*%
X168634000Y-36380000D02*
X169714000Y-36380000D01*
X168634000Y-37430000D02*
X169714000Y-37430000D01*
X169164000Y-36490000D02*
X168634000Y-37400000D01*
X169174000Y-36480000D02*
X169714000Y-37430000D01*
X168164000Y-35350000D02*
X170164000Y-35350000D01*
X169174000Y-35090000D02*
X169174000Y-36370000D01*
X169174000Y-38550000D02*
X169174000Y-37430000D01*
X168164000Y-38340000D02*
X170154000Y-38340000D01*
X170164000Y-35350000D02*
X170154000Y-38340000D01*
X168164000Y-35360000D02*
X168164000Y-38330000D01*
%TO.C,D5*%
X155426000Y-36380000D02*
X156506000Y-36380000D01*
X155426000Y-37430000D02*
X156506000Y-37430000D01*
X155956000Y-36490000D02*
X155426000Y-37400000D01*
X155966000Y-36480000D02*
X156506000Y-37430000D01*
X154956000Y-35350000D02*
X156956000Y-35350000D01*
X155966000Y-35090000D02*
X155966000Y-36370000D01*
X155966000Y-38550000D02*
X155966000Y-37430000D01*
X154956000Y-38340000D02*
X156946000Y-38340000D01*
X156956000Y-35350000D02*
X156946000Y-38340000D01*
X154956000Y-35360000D02*
X154956000Y-38330000D01*
%TO.C,D4*%
X152124000Y-36380000D02*
X153204000Y-36380000D01*
X152124000Y-37430000D02*
X153204000Y-37430000D01*
X152654000Y-36490000D02*
X152124000Y-37400000D01*
X152664000Y-36480000D02*
X153204000Y-37430000D01*
X151654000Y-35350000D02*
X153654000Y-35350000D01*
X152664000Y-35090000D02*
X152664000Y-36370000D01*
X152664000Y-38550000D02*
X152664000Y-37430000D01*
X151654000Y-38340000D02*
X153644000Y-38340000D01*
X153654000Y-35350000D02*
X153644000Y-38340000D01*
X151654000Y-35360000D02*
X151654000Y-38330000D01*
%TO.C,D3*%
X148822000Y-36380000D02*
X149902000Y-36380000D01*
X148822000Y-37430000D02*
X149902000Y-37430000D01*
X149352000Y-36490000D02*
X148822000Y-37400000D01*
X149362000Y-36480000D02*
X149902000Y-37430000D01*
X148352000Y-35350000D02*
X150352000Y-35350000D01*
X149362000Y-35090000D02*
X149362000Y-36370000D01*
X149362000Y-38550000D02*
X149362000Y-37430000D01*
X148352000Y-38340000D02*
X150342000Y-38340000D01*
X150352000Y-35350000D02*
X150342000Y-38340000D01*
X148352000Y-35360000D02*
X148352000Y-38330000D01*
%TO.C,D2*%
X145520000Y-36380000D02*
X146600000Y-36380000D01*
X145520000Y-37430000D02*
X146600000Y-37430000D01*
X146050000Y-36490000D02*
X145520000Y-37400000D01*
X146060000Y-36480000D02*
X146600000Y-37430000D01*
X145050000Y-35350000D02*
X147050000Y-35350000D01*
X146060000Y-35090000D02*
X146060000Y-36370000D01*
X146060000Y-38550000D02*
X146060000Y-37430000D01*
X145050000Y-38340000D02*
X147040000Y-38340000D01*
X147050000Y-35350000D02*
X147040000Y-38340000D01*
X145050000Y-35360000D02*
X145050000Y-38330000D01*
%TO.C,D1*%
X142218000Y-36380000D02*
X143298000Y-36380000D01*
X142218000Y-37430000D02*
X143298000Y-37430000D01*
X142748000Y-36490000D02*
X142218000Y-37400000D01*
X142758000Y-36480000D02*
X143298000Y-37430000D01*
X141748000Y-35350000D02*
X143748000Y-35350000D01*
X142758000Y-35090000D02*
X142758000Y-36370000D01*
X142758000Y-38550000D02*
X142758000Y-37430000D01*
X141748000Y-38340000D02*
X143738000Y-38340000D01*
X143748000Y-35350000D02*
X143738000Y-38340000D01*
X141748000Y-35360000D02*
X141748000Y-38330000D01*
D12*
%TO.C,U1*%
X91503610Y-49160202D02*
X101003610Y-49160202D01*
X91503610Y-41160202D02*
X91503610Y-49160202D01*
X101003610Y-41160202D02*
X91503610Y-41160202D01*
X101003610Y-49160202D02*
X101003610Y-41160202D01*
D13*
X101763610Y-54010202D02*
X101763610Y-56550202D01*
D10*
G36*
X108242970Y-37728634D02*
G01*
X108442970Y-37728634D01*
X108442970Y-37828634D01*
X108242970Y-37828634D01*
X108242970Y-37728634D01*
G37*
X108242970Y-37728634D02*
X108442970Y-37728634D01*
X108442970Y-37828634D01*
X108242970Y-37828634D01*
X108242970Y-37728634D01*
G36*
X107642970Y-38128634D02*
G01*
X108442970Y-38128634D01*
X108442970Y-38228634D01*
X107642970Y-38228634D01*
X107642970Y-38128634D01*
G37*
X107642970Y-38128634D02*
X108442970Y-38128634D01*
X108442970Y-38228634D01*
X107642970Y-38228634D01*
X107642970Y-38128634D01*
G36*
X107642970Y-37728634D02*
G01*
X107742970Y-37728634D01*
X107742970Y-38228634D01*
X107642970Y-38228634D01*
X107642970Y-37728634D01*
G37*
X107642970Y-37728634D02*
X107742970Y-37728634D01*
X107742970Y-38228634D01*
X107642970Y-38228634D01*
X107642970Y-37728634D01*
G36*
X108042970Y-37928634D02*
G01*
X108142970Y-37928634D01*
X108142970Y-38028634D01*
X108042970Y-38028634D01*
X108042970Y-37928634D01*
G37*
X108042970Y-37928634D02*
X108142970Y-37928634D01*
X108142970Y-38028634D01*
X108042970Y-38028634D01*
X108042970Y-37928634D01*
G36*
X107642970Y-37728634D02*
G01*
X107942970Y-37728634D01*
X107942970Y-37828634D01*
X107642970Y-37828634D01*
X107642970Y-37728634D01*
G37*
X107642970Y-37728634D02*
X107942970Y-37728634D01*
X107942970Y-37828634D01*
X107642970Y-37828634D01*
X107642970Y-37728634D01*
D13*
X104303610Y-54010202D02*
X104303610Y-56550202D01*
X101763610Y-54010202D02*
X104303610Y-54010202D01*
X132243610Y-33770202D02*
X92963610Y-33770202D01*
X132243610Y-56550202D02*
X132243610Y-33770202D01*
X92963610Y-56550202D02*
X132243610Y-56550202D01*
X92963610Y-33770202D02*
X92963610Y-56550202D01*
D11*
%TO.C,SW3*%
X187150000Y-142875000D02*
G75*
G03*
X187150000Y-142875000I-3000000J0D01*
G01*
X186150000Y-136975000D02*
X190250000Y-136975000D01*
X190250000Y-148775000D02*
X186150000Y-148775000D01*
X182150000Y-148775000D02*
X178050000Y-148775000D01*
X182150000Y-136975000D02*
X178050000Y-136975000D01*
X178050000Y-136975000D02*
X178050000Y-148775000D01*
X176650000Y-139075000D02*
X176350000Y-138775000D01*
X176350000Y-138775000D02*
X176950000Y-138775000D01*
X176950000Y-138775000D02*
X176650000Y-139075000D01*
X190250000Y-136975000D02*
X190250000Y-139375000D01*
X190250000Y-141575000D02*
X190250000Y-144175000D01*
X190250000Y-146375000D02*
X190250000Y-148775000D01*
X184150000Y-142375000D02*
X184150000Y-143375000D01*
X183650000Y-142875000D02*
X184650000Y-142875000D01*
%TO.C,SW2*%
X187150000Y-117475000D02*
G75*
G03*
X187150000Y-117475000I-3000000J0D01*
G01*
X186150000Y-111575000D02*
X190250000Y-111575000D01*
X190250000Y-123375000D02*
X186150000Y-123375000D01*
X182150000Y-123375000D02*
X178050000Y-123375000D01*
X182150000Y-111575000D02*
X178050000Y-111575000D01*
X178050000Y-111575000D02*
X178050000Y-123375000D01*
X176650000Y-113675000D02*
X176350000Y-113375000D01*
X176350000Y-113375000D02*
X176950000Y-113375000D01*
X176950000Y-113375000D02*
X176650000Y-113675000D01*
X190250000Y-111575000D02*
X190250000Y-113975000D01*
X190250000Y-116175000D02*
X190250000Y-118775000D01*
X190250000Y-120975000D02*
X190250000Y-123375000D01*
X184150000Y-116975000D02*
X184150000Y-117975000D01*
X183650000Y-117475000D02*
X184650000Y-117475000D01*
%TO.C,SW1*%
X187150000Y-92075000D02*
G75*
G03*
X187150000Y-92075000I-3000000J0D01*
G01*
X186150000Y-86175000D02*
X190250000Y-86175000D01*
X190250000Y-97975000D02*
X186150000Y-97975000D01*
X182150000Y-97975000D02*
X178050000Y-97975000D01*
X182150000Y-86175000D02*
X178050000Y-86175000D01*
X178050000Y-86175000D02*
X178050000Y-97975000D01*
X176650000Y-88275000D02*
X176350000Y-87975000D01*
X176350000Y-87975000D02*
X176950000Y-87975000D01*
X176950000Y-87975000D02*
X176650000Y-88275000D01*
X190250000Y-86175000D02*
X190250000Y-88575000D01*
X190250000Y-90775000D02*
X190250000Y-93375000D01*
X190250000Y-95575000D02*
X190250000Y-97975000D01*
X184150000Y-91575000D02*
X184150000Y-92575000D01*
X183650000Y-92075000D02*
X184650000Y-92075000D01*
D10*
%TO.C,R12*%
X181213500Y-53340000D02*
X180013500Y-53340000D01*
X188413500Y-53340000D02*
X187213500Y-53340000D01*
X186413500Y-54340000D02*
X186213500Y-54140000D01*
X186813500Y-54340000D02*
X186413500Y-54340000D01*
X187013500Y-54140000D02*
X186813500Y-54340000D01*
X187213500Y-53340000D02*
X187013500Y-54140000D01*
X187013500Y-52540000D02*
X187213500Y-53340000D01*
X186813500Y-52340000D02*
X187013500Y-52540000D01*
X186413500Y-52340000D02*
X186813500Y-52340000D01*
X186213500Y-52540000D02*
X186413500Y-52340000D01*
X182213500Y-52540000D02*
X186213500Y-52540000D01*
X182013500Y-52340000D02*
X182213500Y-52540000D01*
X181613500Y-52340000D02*
X182013500Y-52340000D01*
X181413500Y-52540000D02*
X181613500Y-52340000D01*
X181213500Y-53340000D02*
X181413500Y-52540000D01*
X181413500Y-54140000D02*
X181213500Y-53340000D01*
X181613500Y-54340000D02*
X181413500Y-54140000D01*
X182013500Y-54340000D02*
X181613500Y-54340000D01*
X182213500Y-54140000D02*
X182013500Y-54340000D01*
X186213500Y-54140000D02*
X182213500Y-54140000D01*
%TO.C,R11*%
X181213500Y-56515000D02*
X180013500Y-56515000D01*
X188413500Y-56515000D02*
X187213500Y-56515000D01*
X186413500Y-57515000D02*
X186213500Y-57315000D01*
X186813500Y-57515000D02*
X186413500Y-57515000D01*
X187013500Y-57315000D02*
X186813500Y-57515000D01*
X187213500Y-56515000D02*
X187013500Y-57315000D01*
X187013500Y-55715000D02*
X187213500Y-56515000D01*
X186813500Y-55515000D02*
X187013500Y-55715000D01*
X186413500Y-55515000D02*
X186813500Y-55515000D01*
X186213500Y-55715000D02*
X186413500Y-55515000D01*
X182213500Y-55715000D02*
X186213500Y-55715000D01*
X182013500Y-55515000D02*
X182213500Y-55715000D01*
X181613500Y-55515000D02*
X182013500Y-55515000D01*
X181413500Y-55715000D02*
X181613500Y-55515000D01*
X181213500Y-56515000D02*
X181413500Y-55715000D01*
X181413500Y-57315000D02*
X181213500Y-56515000D01*
X181613500Y-57515000D02*
X181413500Y-57315000D01*
X182013500Y-57515000D02*
X181613500Y-57515000D01*
X182213500Y-57315000D02*
X182013500Y-57515000D01*
X186213500Y-57315000D02*
X182213500Y-57315000D01*
%TO.C,R10*%
X181213500Y-59690000D02*
X180013500Y-59690000D01*
X188413500Y-59690000D02*
X187213500Y-59690000D01*
X186413500Y-60690000D02*
X186213500Y-60490000D01*
X186813500Y-60690000D02*
X186413500Y-60690000D01*
X187013500Y-60490000D02*
X186813500Y-60690000D01*
X187213500Y-59690000D02*
X187013500Y-60490000D01*
X187013500Y-58890000D02*
X187213500Y-59690000D01*
X186813500Y-58690000D02*
X187013500Y-58890000D01*
X186413500Y-58690000D02*
X186813500Y-58690000D01*
X186213500Y-58890000D02*
X186413500Y-58690000D01*
X182213500Y-58890000D02*
X186213500Y-58890000D01*
X182013500Y-58690000D02*
X182213500Y-58890000D01*
X181613500Y-58690000D02*
X182013500Y-58690000D01*
X181413500Y-58890000D02*
X181613500Y-58690000D01*
X181213500Y-59690000D02*
X181413500Y-58890000D01*
X181413500Y-60490000D02*
X181213500Y-59690000D01*
X181613500Y-60690000D02*
X181413500Y-60490000D01*
X182013500Y-60690000D02*
X181613500Y-60690000D01*
X182213500Y-60490000D02*
X182013500Y-60690000D01*
X186213500Y-60490000D02*
X182213500Y-60490000D01*
%TO.C,R9*%
X181213500Y-62865000D02*
X180013500Y-62865000D01*
X188413500Y-62865000D02*
X187213500Y-62865000D01*
X186413500Y-63865000D02*
X186213500Y-63665000D01*
X186813500Y-63865000D02*
X186413500Y-63865000D01*
X187013500Y-63665000D02*
X186813500Y-63865000D01*
X187213500Y-62865000D02*
X187013500Y-63665000D01*
X187013500Y-62065000D02*
X187213500Y-62865000D01*
X186813500Y-61865000D02*
X187013500Y-62065000D01*
X186413500Y-61865000D02*
X186813500Y-61865000D01*
X186213500Y-62065000D02*
X186413500Y-61865000D01*
X182213500Y-62065000D02*
X186213500Y-62065000D01*
X182013500Y-61865000D02*
X182213500Y-62065000D01*
X181613500Y-61865000D02*
X182013500Y-61865000D01*
X181413500Y-62065000D02*
X181613500Y-61865000D01*
X181213500Y-62865000D02*
X181413500Y-62065000D01*
X181413500Y-63665000D02*
X181213500Y-62865000D01*
X181613500Y-63865000D02*
X181413500Y-63665000D01*
X182013500Y-63865000D02*
X181613500Y-63865000D01*
X182213500Y-63665000D02*
X182013500Y-63865000D01*
X186213500Y-63665000D02*
X182213500Y-63665000D01*
%TO.C,R8*%
X181213500Y-66040000D02*
X180013500Y-66040000D01*
X188413500Y-66040000D02*
X187213500Y-66040000D01*
X186413500Y-67040000D02*
X186213500Y-66840000D01*
X186813500Y-67040000D02*
X186413500Y-67040000D01*
X187013500Y-66840000D02*
X186813500Y-67040000D01*
X187213500Y-66040000D02*
X187013500Y-66840000D01*
X187013500Y-65240000D02*
X187213500Y-66040000D01*
X186813500Y-65040000D02*
X187013500Y-65240000D01*
X186413500Y-65040000D02*
X186813500Y-65040000D01*
X186213500Y-65240000D02*
X186413500Y-65040000D01*
X182213500Y-65240000D02*
X186213500Y-65240000D01*
X182013500Y-65040000D02*
X182213500Y-65240000D01*
X181613500Y-65040000D02*
X182013500Y-65040000D01*
X181413500Y-65240000D02*
X181613500Y-65040000D01*
X181213500Y-66040000D02*
X181413500Y-65240000D01*
X181413500Y-66840000D02*
X181213500Y-66040000D01*
X181613500Y-67040000D02*
X181413500Y-66840000D01*
X182013500Y-67040000D02*
X181613500Y-67040000D01*
X182213500Y-66840000D02*
X182013500Y-67040000D01*
X186213500Y-66840000D02*
X182213500Y-66840000D01*
%TO.C,R7*%
X181213500Y-69215000D02*
X180013500Y-69215000D01*
X188413500Y-69215000D02*
X187213500Y-69215000D01*
X186413500Y-70215000D02*
X186213500Y-70015000D01*
X186813500Y-70215000D02*
X186413500Y-70215000D01*
X187013500Y-70015000D02*
X186813500Y-70215000D01*
X187213500Y-69215000D02*
X187013500Y-70015000D01*
X187013500Y-68415000D02*
X187213500Y-69215000D01*
X186813500Y-68215000D02*
X187013500Y-68415000D01*
X186413500Y-68215000D02*
X186813500Y-68215000D01*
X186213500Y-68415000D02*
X186413500Y-68215000D01*
X182213500Y-68415000D02*
X186213500Y-68415000D01*
X182013500Y-68215000D02*
X182213500Y-68415000D01*
X181613500Y-68215000D02*
X182013500Y-68215000D01*
X181413500Y-68415000D02*
X181613500Y-68215000D01*
X181213500Y-69215000D02*
X181413500Y-68415000D01*
X181413500Y-70015000D02*
X181213500Y-69215000D01*
X181613500Y-70215000D02*
X181413500Y-70015000D01*
X182013500Y-70215000D02*
X181613500Y-70215000D01*
X182213500Y-70015000D02*
X182013500Y-70215000D01*
X186213500Y-70015000D02*
X182213500Y-70015000D01*
%TO.C,R6*%
X181150000Y-50292000D02*
X179950000Y-50292000D01*
X188350000Y-50292000D02*
X187150000Y-50292000D01*
X186350000Y-51292000D02*
X186150000Y-51092000D01*
X186750000Y-51292000D02*
X186350000Y-51292000D01*
X186950000Y-51092000D02*
X186750000Y-51292000D01*
X187150000Y-50292000D02*
X186950000Y-51092000D01*
X186950000Y-49492000D02*
X187150000Y-50292000D01*
X186750000Y-49292000D02*
X186950000Y-49492000D01*
X186350000Y-49292000D02*
X186750000Y-49292000D01*
X186150000Y-49492000D02*
X186350000Y-49292000D01*
X182150000Y-49492000D02*
X186150000Y-49492000D01*
X181950000Y-49292000D02*
X182150000Y-49492000D01*
X181550000Y-49292000D02*
X181950000Y-49292000D01*
X181350000Y-49492000D02*
X181550000Y-49292000D01*
X181150000Y-50292000D02*
X181350000Y-49492000D01*
X181350000Y-51092000D02*
X181150000Y-50292000D01*
X181550000Y-51292000D02*
X181350000Y-51092000D01*
X181950000Y-51292000D02*
X181550000Y-51292000D01*
X182150000Y-51092000D02*
X181950000Y-51292000D01*
X186150000Y-51092000D02*
X182150000Y-51092000D01*
%TO.C,R5*%
X181150000Y-47244000D02*
X179950000Y-47244000D01*
X188350000Y-47244000D02*
X187150000Y-47244000D01*
X186350000Y-48244000D02*
X186150000Y-48044000D01*
X186750000Y-48244000D02*
X186350000Y-48244000D01*
X186950000Y-48044000D02*
X186750000Y-48244000D01*
X187150000Y-47244000D02*
X186950000Y-48044000D01*
X186950000Y-46444000D02*
X187150000Y-47244000D01*
X186750000Y-46244000D02*
X186950000Y-46444000D01*
X186350000Y-46244000D02*
X186750000Y-46244000D01*
X186150000Y-46444000D02*
X186350000Y-46244000D01*
X182150000Y-46444000D02*
X186150000Y-46444000D01*
X181950000Y-46244000D02*
X182150000Y-46444000D01*
X181550000Y-46244000D02*
X181950000Y-46244000D01*
X181350000Y-46444000D02*
X181550000Y-46244000D01*
X181150000Y-47244000D02*
X181350000Y-46444000D01*
X181350000Y-48044000D02*
X181150000Y-47244000D01*
X181550000Y-48244000D02*
X181350000Y-48044000D01*
X181950000Y-48244000D02*
X181550000Y-48244000D01*
X182150000Y-48044000D02*
X181950000Y-48244000D01*
X186150000Y-48044000D02*
X182150000Y-48044000D01*
%TO.C,R4*%
X181150000Y-44196000D02*
X179950000Y-44196000D01*
X188350000Y-44196000D02*
X187150000Y-44196000D01*
X186350000Y-45196000D02*
X186150000Y-44996000D01*
X186750000Y-45196000D02*
X186350000Y-45196000D01*
X186950000Y-44996000D02*
X186750000Y-45196000D01*
X187150000Y-44196000D02*
X186950000Y-44996000D01*
X186950000Y-43396000D02*
X187150000Y-44196000D01*
X186750000Y-43196000D02*
X186950000Y-43396000D01*
X186350000Y-43196000D02*
X186750000Y-43196000D01*
X186150000Y-43396000D02*
X186350000Y-43196000D01*
X182150000Y-43396000D02*
X186150000Y-43396000D01*
X181950000Y-43196000D02*
X182150000Y-43396000D01*
X181550000Y-43196000D02*
X181950000Y-43196000D01*
X181350000Y-43396000D02*
X181550000Y-43196000D01*
X181150000Y-44196000D02*
X181350000Y-43396000D01*
X181350000Y-44996000D02*
X181150000Y-44196000D01*
X181550000Y-45196000D02*
X181350000Y-44996000D01*
X181950000Y-45196000D02*
X181550000Y-45196000D01*
X182150000Y-44996000D02*
X181950000Y-45196000D01*
X186150000Y-44996000D02*
X182150000Y-44996000D01*
%TO.C,R3*%
X181150000Y-41148000D02*
X179950000Y-41148000D01*
X188350000Y-41148000D02*
X187150000Y-41148000D01*
X186350000Y-42148000D02*
X186150000Y-41948000D01*
X186750000Y-42148000D02*
X186350000Y-42148000D01*
X186950000Y-41948000D02*
X186750000Y-42148000D01*
X187150000Y-41148000D02*
X186950000Y-41948000D01*
X186950000Y-40348000D02*
X187150000Y-41148000D01*
X186750000Y-40148000D02*
X186950000Y-40348000D01*
X186350000Y-40148000D02*
X186750000Y-40148000D01*
X186150000Y-40348000D02*
X186350000Y-40148000D01*
X182150000Y-40348000D02*
X186150000Y-40348000D01*
X181950000Y-40148000D02*
X182150000Y-40348000D01*
X181550000Y-40148000D02*
X181950000Y-40148000D01*
X181350000Y-40348000D02*
X181550000Y-40148000D01*
X181150000Y-41148000D02*
X181350000Y-40348000D01*
X181350000Y-41948000D02*
X181150000Y-41148000D01*
X181550000Y-42148000D02*
X181350000Y-41948000D01*
X181950000Y-42148000D02*
X181550000Y-42148000D01*
X182150000Y-41948000D02*
X181950000Y-42148000D01*
X186150000Y-41948000D02*
X182150000Y-41948000D01*
%TO.C,R2*%
X181150000Y-38100000D02*
X179950000Y-38100000D01*
X188350000Y-38100000D02*
X187150000Y-38100000D01*
X186350000Y-39100000D02*
X186150000Y-38900000D01*
X186750000Y-39100000D02*
X186350000Y-39100000D01*
X186950000Y-38900000D02*
X186750000Y-39100000D01*
X187150000Y-38100000D02*
X186950000Y-38900000D01*
X186950000Y-37300000D02*
X187150000Y-38100000D01*
X186750000Y-37100000D02*
X186950000Y-37300000D01*
X186350000Y-37100000D02*
X186750000Y-37100000D01*
X186150000Y-37300000D02*
X186350000Y-37100000D01*
X182150000Y-37300000D02*
X186150000Y-37300000D01*
X181950000Y-37100000D02*
X182150000Y-37300000D01*
X181550000Y-37100000D02*
X181950000Y-37100000D01*
X181350000Y-37300000D02*
X181550000Y-37100000D01*
X181150000Y-38100000D02*
X181350000Y-37300000D01*
X181350000Y-38900000D02*
X181150000Y-38100000D01*
X181550000Y-39100000D02*
X181350000Y-38900000D01*
X181950000Y-39100000D02*
X181550000Y-39100000D01*
X182150000Y-38900000D02*
X181950000Y-39100000D01*
X186150000Y-38900000D02*
X182150000Y-38900000D01*
%TO.C,R1*%
X181150000Y-35052000D02*
X179950000Y-35052000D01*
X188350000Y-35052000D02*
X187150000Y-35052000D01*
X186350000Y-36052000D02*
X186150000Y-35852000D01*
X186750000Y-36052000D02*
X186350000Y-36052000D01*
X186950000Y-35852000D02*
X186750000Y-36052000D01*
X187150000Y-35052000D02*
X186950000Y-35852000D01*
X186950000Y-34252000D02*
X187150000Y-35052000D01*
X186750000Y-34052000D02*
X186950000Y-34252000D01*
X186350000Y-34052000D02*
X186750000Y-34052000D01*
X186150000Y-34252000D02*
X186350000Y-34052000D01*
X182150000Y-34252000D02*
X186150000Y-34252000D01*
X181950000Y-34052000D02*
X182150000Y-34252000D01*
X181550000Y-34052000D02*
X181950000Y-34052000D01*
X181350000Y-34252000D02*
X181550000Y-34052000D01*
X181150000Y-35052000D02*
X181350000Y-34252000D01*
X181350000Y-35852000D02*
X181150000Y-35052000D01*
X181550000Y-36052000D02*
X181350000Y-35852000D01*
X181950000Y-36052000D02*
X181550000Y-36052000D01*
X182150000Y-35852000D02*
X181950000Y-36052000D01*
X186150000Y-35852000D02*
X182150000Y-35852000D01*
D12*
%TO.C,C6*%
X192452000Y-50842000D02*
X192452000Y-49742000D01*
X195152000Y-50842000D02*
X192452000Y-50842000D01*
X195152000Y-49742000D02*
X195152000Y-50842000D01*
X192452000Y-49742000D02*
X195152000Y-49742000D01*
%TO.C,C5*%
X192452000Y-47794000D02*
X192452000Y-46694000D01*
X195152000Y-47794000D02*
X192452000Y-47794000D01*
X195152000Y-46694000D02*
X195152000Y-47794000D01*
X192452000Y-46694000D02*
X195152000Y-46694000D01*
%TO.C,C4*%
X192452000Y-44746000D02*
X192452000Y-43646000D01*
X195152000Y-44746000D02*
X192452000Y-44746000D01*
X195152000Y-43646000D02*
X195152000Y-44746000D01*
X192452000Y-43646000D02*
X195152000Y-43646000D01*
%TO.C,C3*%
X192452000Y-41698000D02*
X192452000Y-40598000D01*
X195152000Y-41698000D02*
X192452000Y-41698000D01*
X195152000Y-40598000D02*
X195152000Y-41698000D01*
X192452000Y-40598000D02*
X195152000Y-40598000D01*
%TO.C,C2*%
X192452000Y-38650000D02*
X192452000Y-37550000D01*
X195152000Y-38650000D02*
X192452000Y-38650000D01*
X195152000Y-37550000D02*
X195152000Y-38650000D01*
X192452000Y-37550000D02*
X195152000Y-37550000D01*
%TO.C,C1*%
X192452000Y-35602000D02*
X192452000Y-34502000D01*
X195152000Y-35602000D02*
X192452000Y-35602000D01*
X195152000Y-34502000D02*
X195152000Y-35602000D01*
X192452000Y-34502000D02*
X195152000Y-34502000D01*
%TO.C,MX15*%
D10*
X157781845Y-77446130D02*
X157781845Y-76446130D01*
X158115178Y-77160416D01*
X158448511Y-76446130D01*
X158448511Y-77446130D01*
X158829464Y-76446130D02*
X159496130Y-77446130D01*
X159496130Y-76446130D02*
X158829464Y-77446130D01*
X160400892Y-77446130D02*
X159829464Y-77446130D01*
X160115178Y-77446130D02*
X160115178Y-76446130D01*
X160019940Y-76588988D01*
X159924702Y-76684226D01*
X159829464Y-76731845D01*
X161305654Y-76446130D02*
X160829464Y-76446130D01*
X160781845Y-76922321D01*
X160829464Y-76874702D01*
X160924702Y-76827083D01*
X161162797Y-76827083D01*
X161258035Y-76874702D01*
X161305654Y-76922321D01*
X161353273Y-77017559D01*
X161353273Y-77255654D01*
X161305654Y-77350892D01*
X161258035Y-77398511D01*
X161162797Y-77446130D01*
X160924702Y-77446130D01*
X160829464Y-77398511D01*
X160781845Y-77350892D01*
%TO.C,MX5*%
X110633035Y-153646130D02*
X110633035Y-152646130D01*
X110966369Y-153360416D01*
X111299702Y-152646130D01*
X111299702Y-153646130D01*
X111680654Y-152646130D02*
X112347321Y-153646130D01*
X112347321Y-152646130D02*
X111680654Y-153646130D01*
X113204464Y-152646130D02*
X112728273Y-152646130D01*
X112680654Y-153122321D01*
X112728273Y-153074702D01*
X112823511Y-153027083D01*
X113061607Y-153027083D01*
X113156845Y-153074702D01*
X113204464Y-153122321D01*
X113252083Y-153217559D01*
X113252083Y-153455654D01*
X113204464Y-153550892D01*
X113156845Y-153598511D01*
X113061607Y-153646130D01*
X112823511Y-153646130D01*
X112728273Y-153598511D01*
X112680654Y-153550892D01*
%TO.C,MX17*%
D14*
X156858607Y-137893273D02*
X156858607Y-136623273D01*
X157366607Y-137530416D01*
X157874607Y-136623273D01*
X157874607Y-137893273D01*
X158455178Y-136623273D02*
X159471178Y-137893273D01*
X159471178Y-136623273D02*
X158455178Y-137893273D01*
X160850035Y-137893273D02*
X159979178Y-137893273D01*
X160414607Y-137893273D02*
X160414607Y-136623273D01*
X160269464Y-136804702D01*
X160124321Y-136925654D01*
X159979178Y-136986130D01*
X161358035Y-136623273D02*
X162374035Y-136623273D01*
X161720892Y-137893273D01*
%TO.C,MX16*%
X156858607Y-99793273D02*
X156858607Y-98523273D01*
X157366607Y-99430416D01*
X157874607Y-98523273D01*
X157874607Y-99793273D01*
X158455178Y-98523273D02*
X159471178Y-99793273D01*
X159471178Y-98523273D02*
X158455178Y-99793273D01*
X160850035Y-99793273D02*
X159979178Y-99793273D01*
X160414607Y-99793273D02*
X160414607Y-98523273D01*
X160269464Y-98704702D01*
X160124321Y-98825654D01*
X159979178Y-98886130D01*
X162156321Y-98523273D02*
X161866035Y-98523273D01*
X161720892Y-98583750D01*
X161648321Y-98644226D01*
X161503178Y-98825654D01*
X161430607Y-99067559D01*
X161430607Y-99551369D01*
X161503178Y-99672321D01*
X161575750Y-99732797D01*
X161720892Y-99793273D01*
X162011178Y-99793273D01*
X162156321Y-99732797D01*
X162228892Y-99672321D01*
X162301464Y-99551369D01*
X162301464Y-99248988D01*
X162228892Y-99128035D01*
X162156321Y-99067559D01*
X162011178Y-99007083D01*
X161720892Y-99007083D01*
X161575750Y-99067559D01*
X161503178Y-99128035D01*
X161430607Y-99248988D01*
%TO.C,MX11*%
D10*
X138731845Y-77446130D02*
X138731845Y-76446130D01*
X139065178Y-77160416D01*
X139398511Y-76446130D01*
X139398511Y-77446130D01*
X139779464Y-76446130D02*
X140446130Y-77446130D01*
X140446130Y-76446130D02*
X139779464Y-77446130D01*
X141350892Y-77446130D02*
X140779464Y-77446130D01*
X141065178Y-77446130D02*
X141065178Y-76446130D01*
X140969940Y-76588988D01*
X140874702Y-76684226D01*
X140779464Y-76731845D01*
X142303273Y-77446130D02*
X141731845Y-77446130D01*
X142017559Y-77446130D02*
X142017559Y-76446130D01*
X141922321Y-76588988D01*
X141827083Y-76684226D01*
X141731845Y-76731845D01*
%TO.C,MX8*%
X120158035Y-115546130D02*
X120158035Y-114546130D01*
X120491369Y-115260416D01*
X120824702Y-114546130D01*
X120824702Y-115546130D01*
X121205654Y-114546130D02*
X121872321Y-115546130D01*
X121872321Y-114546130D02*
X121205654Y-115546130D01*
X122396130Y-114974702D02*
X122300892Y-114927083D01*
X122253273Y-114879464D01*
X122205654Y-114784226D01*
X122205654Y-114736607D01*
X122253273Y-114641369D01*
X122300892Y-114593750D01*
X122396130Y-114546130D01*
X122586607Y-114546130D01*
X122681845Y-114593750D01*
X122729464Y-114641369D01*
X122777083Y-114736607D01*
X122777083Y-114784226D01*
X122729464Y-114879464D01*
X122681845Y-114927083D01*
X122586607Y-114974702D01*
X122396130Y-114974702D01*
X122300892Y-115022321D01*
X122253273Y-115069940D01*
X122205654Y-115165178D01*
X122205654Y-115355654D01*
X122253273Y-115450892D01*
X122300892Y-115498511D01*
X122396130Y-115546130D01*
X122586607Y-115546130D01*
X122681845Y-115498511D01*
X122729464Y-115450892D01*
X122777083Y-115355654D01*
X122777083Y-115165178D01*
X122729464Y-115069940D01*
X122681845Y-115022321D01*
X122586607Y-114974702D01*
%TO.C,MX4*%
X101108035Y-134596130D02*
X101108035Y-133596130D01*
X101441369Y-134310416D01*
X101774702Y-133596130D01*
X101774702Y-134596130D01*
X102155654Y-133596130D02*
X102822321Y-134596130D01*
X102822321Y-133596130D02*
X102155654Y-134596130D01*
X103631845Y-133929464D02*
X103631845Y-134596130D01*
X103393750Y-133548511D02*
X103155654Y-134262797D01*
X103774702Y-134262797D01*
%TO.C,MX14*%
X138731845Y-134596130D02*
X138731845Y-133596130D01*
X139065178Y-134310416D01*
X139398511Y-133596130D01*
X139398511Y-134596130D01*
X139779464Y-133596130D02*
X140446130Y-134596130D01*
X140446130Y-133596130D02*
X139779464Y-134596130D01*
X141350892Y-134596130D02*
X140779464Y-134596130D01*
X141065178Y-134596130D02*
X141065178Y-133596130D01*
X140969940Y-133738988D01*
X140874702Y-133834226D01*
X140779464Y-133881845D01*
X142208035Y-133929464D02*
X142208035Y-134596130D01*
X141969940Y-133548511D02*
X141731845Y-134262797D01*
X142350892Y-134262797D01*
%TO.C,MX13*%
X138731845Y-115546130D02*
X138731845Y-114546130D01*
X139065178Y-115260416D01*
X139398511Y-114546130D01*
X139398511Y-115546130D01*
X139779464Y-114546130D02*
X140446130Y-115546130D01*
X140446130Y-114546130D02*
X139779464Y-115546130D01*
X141350892Y-115546130D02*
X140779464Y-115546130D01*
X141065178Y-115546130D02*
X141065178Y-114546130D01*
X140969940Y-114688988D01*
X140874702Y-114784226D01*
X140779464Y-114831845D01*
X141684226Y-114546130D02*
X142303273Y-114546130D01*
X141969940Y-114927083D01*
X142112797Y-114927083D01*
X142208035Y-114974702D01*
X142255654Y-115022321D01*
X142303273Y-115117559D01*
X142303273Y-115355654D01*
X142255654Y-115450892D01*
X142208035Y-115498511D01*
X142112797Y-115546130D01*
X141827083Y-115546130D01*
X141731845Y-115498511D01*
X141684226Y-115450892D01*
%TO.C,MX12*%
X138731845Y-96496130D02*
X138731845Y-95496130D01*
X139065178Y-96210416D01*
X139398511Y-95496130D01*
X139398511Y-96496130D01*
X139779464Y-95496130D02*
X140446130Y-96496130D01*
X140446130Y-95496130D02*
X139779464Y-96496130D01*
X141350892Y-96496130D02*
X140779464Y-96496130D01*
X141065178Y-96496130D02*
X141065178Y-95496130D01*
X140969940Y-95638988D01*
X140874702Y-95734226D01*
X140779464Y-95781845D01*
X141731845Y-95591369D02*
X141779464Y-95543750D01*
X141874702Y-95496130D01*
X142112797Y-95496130D01*
X142208035Y-95543750D01*
X142255654Y-95591369D01*
X142303273Y-95686607D01*
X142303273Y-95781845D01*
X142255654Y-95924702D01*
X141684226Y-96496130D01*
X142303273Y-96496130D01*
%TO.C,MX10*%
X138731845Y-153646130D02*
X138731845Y-152646130D01*
X139065178Y-153360416D01*
X139398511Y-152646130D01*
X139398511Y-153646130D01*
X139779464Y-152646130D02*
X140446130Y-153646130D01*
X140446130Y-152646130D02*
X139779464Y-153646130D01*
X141350892Y-153646130D02*
X140779464Y-153646130D01*
X141065178Y-153646130D02*
X141065178Y-152646130D01*
X140969940Y-152788988D01*
X140874702Y-152884226D01*
X140779464Y-152931845D01*
X141969940Y-152646130D02*
X142065178Y-152646130D01*
X142160416Y-152693750D01*
X142208035Y-152741369D01*
X142255654Y-152836607D01*
X142303273Y-153027083D01*
X142303273Y-153265178D01*
X142255654Y-153455654D01*
X142208035Y-153550892D01*
X142160416Y-153598511D01*
X142065178Y-153646130D01*
X141969940Y-153646130D01*
X141874702Y-153598511D01*
X141827083Y-153550892D01*
X141779464Y-153455654D01*
X141731845Y-153265178D01*
X141731845Y-153027083D01*
X141779464Y-152836607D01*
X141827083Y-152741369D01*
X141874702Y-152693750D01*
X141969940Y-152646130D01*
%TO.C,MX9*%
X120158035Y-134596130D02*
X120158035Y-133596130D01*
X120491369Y-134310416D01*
X120824702Y-133596130D01*
X120824702Y-134596130D01*
X121205654Y-133596130D02*
X121872321Y-134596130D01*
X121872321Y-133596130D02*
X121205654Y-134596130D01*
X122300892Y-134596130D02*
X122491369Y-134596130D01*
X122586607Y-134548511D01*
X122634226Y-134500892D01*
X122729464Y-134358035D01*
X122777083Y-134167559D01*
X122777083Y-133786607D01*
X122729464Y-133691369D01*
X122681845Y-133643750D01*
X122586607Y-133596130D01*
X122396130Y-133596130D01*
X122300892Y-133643750D01*
X122253273Y-133691369D01*
X122205654Y-133786607D01*
X122205654Y-134024702D01*
X122253273Y-134119940D01*
X122300892Y-134167559D01*
X122396130Y-134215178D01*
X122586607Y-134215178D01*
X122681845Y-134167559D01*
X122729464Y-134119940D01*
X122777083Y-134024702D01*
%TO.C,MX7*%
X120158035Y-96496130D02*
X120158035Y-95496130D01*
X120491369Y-96210416D01*
X120824702Y-95496130D01*
X120824702Y-96496130D01*
X121205654Y-95496130D02*
X121872321Y-96496130D01*
X121872321Y-95496130D02*
X121205654Y-96496130D01*
X122158035Y-95496130D02*
X122824702Y-95496130D01*
X122396130Y-96496130D01*
%TO.C,MX6*%
X120158035Y-77446130D02*
X120158035Y-76446130D01*
X120491369Y-77160416D01*
X120824702Y-76446130D01*
X120824702Y-77446130D01*
X121205654Y-76446130D02*
X121872321Y-77446130D01*
X121872321Y-76446130D02*
X121205654Y-77446130D01*
X122681845Y-76446130D02*
X122491369Y-76446130D01*
X122396130Y-76493750D01*
X122348511Y-76541369D01*
X122253273Y-76684226D01*
X122205654Y-76874702D01*
X122205654Y-77255654D01*
X122253273Y-77350892D01*
X122300892Y-77398511D01*
X122396130Y-77446130D01*
X122586607Y-77446130D01*
X122681845Y-77398511D01*
X122729464Y-77350892D01*
X122777083Y-77255654D01*
X122777083Y-77017559D01*
X122729464Y-76922321D01*
X122681845Y-76874702D01*
X122586607Y-76827083D01*
X122396130Y-76827083D01*
X122300892Y-76874702D01*
X122253273Y-76922321D01*
X122205654Y-77017559D01*
%TO.C,MX3*%
X101108035Y-115546130D02*
X101108035Y-114546130D01*
X101441369Y-115260416D01*
X101774702Y-114546130D01*
X101774702Y-115546130D01*
X102155654Y-114546130D02*
X102822321Y-115546130D01*
X102822321Y-114546130D02*
X102155654Y-115546130D01*
X103108035Y-114546130D02*
X103727083Y-114546130D01*
X103393750Y-114927083D01*
X103536607Y-114927083D01*
X103631845Y-114974702D01*
X103679464Y-115022321D01*
X103727083Y-115117559D01*
X103727083Y-115355654D01*
X103679464Y-115450892D01*
X103631845Y-115498511D01*
X103536607Y-115546130D01*
X103250892Y-115546130D01*
X103155654Y-115498511D01*
X103108035Y-115450892D01*
%TO.C,MX2*%
X101108035Y-96496130D02*
X101108035Y-95496130D01*
X101441369Y-96210416D01*
X101774702Y-95496130D01*
X101774702Y-96496130D01*
X102155654Y-95496130D02*
X102822321Y-96496130D01*
X102822321Y-95496130D02*
X102155654Y-96496130D01*
X103155654Y-95591369D02*
X103203273Y-95543750D01*
X103298511Y-95496130D01*
X103536607Y-95496130D01*
X103631845Y-95543750D01*
X103679464Y-95591369D01*
X103727083Y-95686607D01*
X103727083Y-95781845D01*
X103679464Y-95924702D01*
X103108035Y-96496130D01*
X103727083Y-96496130D01*
%TO.C,MX1*%
X101108035Y-77446130D02*
X101108035Y-76446130D01*
X101441369Y-77160416D01*
X101774702Y-76446130D01*
X101774702Y-77446130D01*
X102155654Y-76446130D02*
X102822321Y-77446130D01*
X102822321Y-76446130D02*
X102155654Y-77446130D01*
X103727083Y-77446130D02*
X103155654Y-77446130D01*
X103441369Y-77446130D02*
X103441369Y-76446130D01*
X103346130Y-76588988D01*
X103250892Y-76684226D01*
X103155654Y-76731845D01*
%TO.C,D20*%
D15*
X173155428Y-33223200D02*
X171631428Y-33223200D01*
X171631428Y-32884533D01*
X171704000Y-32681333D01*
X171849142Y-32545866D01*
X171994285Y-32478133D01*
X172284571Y-32410400D01*
X172502285Y-32410400D01*
X172792571Y-32478133D01*
X172937714Y-32545866D01*
X173082857Y-32681333D01*
X173155428Y-32884533D01*
X173155428Y-33223200D01*
X171776571Y-31868533D02*
X171704000Y-31800800D01*
X171631428Y-31665333D01*
X171631428Y-31326666D01*
X171704000Y-31191200D01*
X171776571Y-31123466D01*
X171921714Y-31055733D01*
X172066857Y-31055733D01*
X172284571Y-31123466D01*
X173155428Y-31936266D01*
X173155428Y-31055733D01*
X171631428Y-30175200D02*
X171631428Y-30039733D01*
X171704000Y-29904266D01*
X171776571Y-29836533D01*
X171921714Y-29768800D01*
X172212000Y-29701066D01*
X172574857Y-29701066D01*
X172865142Y-29768800D01*
X173010285Y-29836533D01*
X173082857Y-29904266D01*
X173155428Y-30039733D01*
X173155428Y-30175200D01*
X173082857Y-30310666D01*
X173010285Y-30378400D01*
X172865142Y-30446133D01*
X172574857Y-30513866D01*
X172212000Y-30513866D01*
X171921714Y-30446133D01*
X171776571Y-30378400D01*
X171704000Y-30310666D01*
X171631428Y-30175200D01*
%TO.C,D19*%
X173155428Y-46554571D02*
X171631428Y-46554571D01*
X171631428Y-46191714D01*
X171704000Y-45974000D01*
X171849142Y-45828857D01*
X171994285Y-45756285D01*
X172284571Y-45683714D01*
X172502285Y-45683714D01*
X172792571Y-45756285D01*
X172937714Y-45828857D01*
X173082857Y-45974000D01*
X173155428Y-46191714D01*
X173155428Y-46554571D01*
X173155428Y-44232285D02*
X173155428Y-45103142D01*
X173155428Y-44667714D02*
X171631428Y-44667714D01*
X171849142Y-44812857D01*
X171994285Y-44958000D01*
X172066857Y-45103142D01*
X173155428Y-43506571D02*
X173155428Y-43216285D01*
X173082857Y-43071142D01*
X173010285Y-42998571D01*
X172792571Y-42853428D01*
X172502285Y-42780857D01*
X171921714Y-42780857D01*
X171776571Y-42853428D01*
X171704000Y-42926000D01*
X171631428Y-43071142D01*
X171631428Y-43361428D01*
X171704000Y-43506571D01*
X171776571Y-43579142D01*
X171921714Y-43651714D01*
X172284571Y-43651714D01*
X172429714Y-43579142D01*
X172502285Y-43506571D01*
X172574857Y-43361428D01*
X172574857Y-43071142D01*
X172502285Y-42926000D01*
X172429714Y-42853428D01*
X172284571Y-42780857D01*
%TO.C,D18*%
X169853428Y-46554571D02*
X168329428Y-46554571D01*
X168329428Y-46191714D01*
X168402000Y-45974000D01*
X168547142Y-45828857D01*
X168692285Y-45756285D01*
X168982571Y-45683714D01*
X169200285Y-45683714D01*
X169490571Y-45756285D01*
X169635714Y-45828857D01*
X169780857Y-45974000D01*
X169853428Y-46191714D01*
X169853428Y-46554571D01*
X169853428Y-44232285D02*
X169853428Y-45103142D01*
X169853428Y-44667714D02*
X168329428Y-44667714D01*
X168547142Y-44812857D01*
X168692285Y-44958000D01*
X168764857Y-45103142D01*
X168982571Y-43361428D02*
X168910000Y-43506571D01*
X168837428Y-43579142D01*
X168692285Y-43651714D01*
X168619714Y-43651714D01*
X168474571Y-43579142D01*
X168402000Y-43506571D01*
X168329428Y-43361428D01*
X168329428Y-43071142D01*
X168402000Y-42926000D01*
X168474571Y-42853428D01*
X168619714Y-42780857D01*
X168692285Y-42780857D01*
X168837428Y-42853428D01*
X168910000Y-42926000D01*
X168982571Y-43071142D01*
X168982571Y-43361428D01*
X169055142Y-43506571D01*
X169127714Y-43579142D01*
X169272857Y-43651714D01*
X169563142Y-43651714D01*
X169708285Y-43579142D01*
X169780857Y-43506571D01*
X169853428Y-43361428D01*
X169853428Y-43071142D01*
X169780857Y-42926000D01*
X169708285Y-42853428D01*
X169563142Y-42780857D01*
X169272857Y-42780857D01*
X169127714Y-42853428D01*
X169055142Y-42926000D01*
X168982571Y-43071142D01*
%TO.C,D17*%
X159947428Y-46554571D02*
X158423428Y-46554571D01*
X158423428Y-46191714D01*
X158496000Y-45974000D01*
X158641142Y-45828857D01*
X158786285Y-45756285D01*
X159076571Y-45683714D01*
X159294285Y-45683714D01*
X159584571Y-45756285D01*
X159729714Y-45828857D01*
X159874857Y-45974000D01*
X159947428Y-46191714D01*
X159947428Y-46554571D01*
X159947428Y-44232285D02*
X159947428Y-45103142D01*
X159947428Y-44667714D02*
X158423428Y-44667714D01*
X158641142Y-44812857D01*
X158786285Y-44958000D01*
X158858857Y-45103142D01*
X158423428Y-43724285D02*
X158423428Y-42708285D01*
X159947428Y-43361428D01*
%TO.C,D16*%
X163249428Y-46554571D02*
X161725428Y-46554571D01*
X161725428Y-46191714D01*
X161798000Y-45974000D01*
X161943142Y-45828857D01*
X162088285Y-45756285D01*
X162378571Y-45683714D01*
X162596285Y-45683714D01*
X162886571Y-45756285D01*
X163031714Y-45828857D01*
X163176857Y-45974000D01*
X163249428Y-46191714D01*
X163249428Y-46554571D01*
X163249428Y-44232285D02*
X163249428Y-45103142D01*
X163249428Y-44667714D02*
X161725428Y-44667714D01*
X161943142Y-44812857D01*
X162088285Y-44958000D01*
X162160857Y-45103142D01*
X161725428Y-42926000D02*
X161725428Y-43216285D01*
X161798000Y-43361428D01*
X161870571Y-43434000D01*
X162088285Y-43579142D01*
X162378571Y-43651714D01*
X162959142Y-43651714D01*
X163104285Y-43579142D01*
X163176857Y-43506571D01*
X163249428Y-43361428D01*
X163249428Y-43071142D01*
X163176857Y-42926000D01*
X163104285Y-42853428D01*
X162959142Y-42780857D01*
X162596285Y-42780857D01*
X162451142Y-42853428D01*
X162378571Y-42926000D01*
X162306000Y-43071142D01*
X162306000Y-43361428D01*
X162378571Y-43506571D01*
X162451142Y-43579142D01*
X162596285Y-43651714D01*
%TO.C,D15*%
X166551428Y-46554571D02*
X165027428Y-46554571D01*
X165027428Y-46191714D01*
X165100000Y-45974000D01*
X165245142Y-45828857D01*
X165390285Y-45756285D01*
X165680571Y-45683714D01*
X165898285Y-45683714D01*
X166188571Y-45756285D01*
X166333714Y-45828857D01*
X166478857Y-45974000D01*
X166551428Y-46191714D01*
X166551428Y-46554571D01*
X166551428Y-44232285D02*
X166551428Y-45103142D01*
X166551428Y-44667714D02*
X165027428Y-44667714D01*
X165245142Y-44812857D01*
X165390285Y-44958000D01*
X165462857Y-45103142D01*
X165027428Y-42853428D02*
X165027428Y-43579142D01*
X165753142Y-43651714D01*
X165680571Y-43579142D01*
X165608000Y-43434000D01*
X165608000Y-43071142D01*
X165680571Y-42926000D01*
X165753142Y-42853428D01*
X165898285Y-42780857D01*
X166261142Y-42780857D01*
X166406285Y-42853428D01*
X166478857Y-42926000D01*
X166551428Y-43071142D01*
X166551428Y-43434000D01*
X166478857Y-43579142D01*
X166406285Y-43651714D01*
%TO.C,D14*%
X153343428Y-46554571D02*
X151819428Y-46554571D01*
X151819428Y-46191714D01*
X151892000Y-45974000D01*
X152037142Y-45828857D01*
X152182285Y-45756285D01*
X152472571Y-45683714D01*
X152690285Y-45683714D01*
X152980571Y-45756285D01*
X153125714Y-45828857D01*
X153270857Y-45974000D01*
X153343428Y-46191714D01*
X153343428Y-46554571D01*
X153343428Y-44232285D02*
X153343428Y-45103142D01*
X153343428Y-44667714D02*
X151819428Y-44667714D01*
X152037142Y-44812857D01*
X152182285Y-44958000D01*
X152254857Y-45103142D01*
X152327428Y-42926000D02*
X153343428Y-42926000D01*
X151746857Y-43288857D02*
X152835428Y-43651714D01*
X152835428Y-42708285D01*
%TO.C,D13*%
X150041428Y-46554571D02*
X148517428Y-46554571D01*
X148517428Y-46191714D01*
X148590000Y-45974000D01*
X148735142Y-45828857D01*
X148880285Y-45756285D01*
X149170571Y-45683714D01*
X149388285Y-45683714D01*
X149678571Y-45756285D01*
X149823714Y-45828857D01*
X149968857Y-45974000D01*
X150041428Y-46191714D01*
X150041428Y-46554571D01*
X150041428Y-44232285D02*
X150041428Y-45103142D01*
X150041428Y-44667714D02*
X148517428Y-44667714D01*
X148735142Y-44812857D01*
X148880285Y-44958000D01*
X148952857Y-45103142D01*
X148517428Y-43724285D02*
X148517428Y-42780857D01*
X149098000Y-43288857D01*
X149098000Y-43071142D01*
X149170571Y-42926000D01*
X149243142Y-42853428D01*
X149388285Y-42780857D01*
X149751142Y-42780857D01*
X149896285Y-42853428D01*
X149968857Y-42926000D01*
X150041428Y-43071142D01*
X150041428Y-43506571D01*
X149968857Y-43651714D01*
X149896285Y-43724285D01*
%TO.C,D12*%
X146739428Y-46554571D02*
X145215428Y-46554571D01*
X145215428Y-46191714D01*
X145288000Y-45974000D01*
X145433142Y-45828857D01*
X145578285Y-45756285D01*
X145868571Y-45683714D01*
X146086285Y-45683714D01*
X146376571Y-45756285D01*
X146521714Y-45828857D01*
X146666857Y-45974000D01*
X146739428Y-46191714D01*
X146739428Y-46554571D01*
X146739428Y-44232285D02*
X146739428Y-45103142D01*
X146739428Y-44667714D02*
X145215428Y-44667714D01*
X145433142Y-44812857D01*
X145578285Y-44958000D01*
X145650857Y-45103142D01*
X145360571Y-43651714D02*
X145288000Y-43579142D01*
X145215428Y-43434000D01*
X145215428Y-43071142D01*
X145288000Y-42926000D01*
X145360571Y-42853428D01*
X145505714Y-42780857D01*
X145650857Y-42780857D01*
X145868571Y-42853428D01*
X146739428Y-43724285D01*
X146739428Y-42780857D01*
%TO.C,D11*%
X143437428Y-46554571D02*
X141913428Y-46554571D01*
X141913428Y-46191714D01*
X141986000Y-45974000D01*
X142131142Y-45828857D01*
X142276285Y-45756285D01*
X142566571Y-45683714D01*
X142784285Y-45683714D01*
X143074571Y-45756285D01*
X143219714Y-45828857D01*
X143364857Y-45974000D01*
X143437428Y-46191714D01*
X143437428Y-46554571D01*
X143437428Y-44232285D02*
X143437428Y-45103142D01*
X143437428Y-44667714D02*
X141913428Y-44667714D01*
X142131142Y-44812857D01*
X142276285Y-44958000D01*
X142348857Y-45103142D01*
X143437428Y-42780857D02*
X143437428Y-43651714D01*
X143437428Y-43216285D02*
X141913428Y-43216285D01*
X142131142Y-43361428D01*
X142276285Y-43506571D01*
X142348857Y-43651714D01*
%TO.C,D10*%
X156645428Y-46554571D02*
X155121428Y-46554571D01*
X155121428Y-46191714D01*
X155194000Y-45974000D01*
X155339142Y-45828857D01*
X155484285Y-45756285D01*
X155774571Y-45683714D01*
X155992285Y-45683714D01*
X156282571Y-45756285D01*
X156427714Y-45828857D01*
X156572857Y-45974000D01*
X156645428Y-46191714D01*
X156645428Y-46554571D01*
X156645428Y-44232285D02*
X156645428Y-45103142D01*
X156645428Y-44667714D02*
X155121428Y-44667714D01*
X155339142Y-44812857D01*
X155484285Y-44958000D01*
X155556857Y-45103142D01*
X155121428Y-43288857D02*
X155121428Y-43143714D01*
X155194000Y-42998571D01*
X155266571Y-42926000D01*
X155411714Y-42853428D01*
X155702000Y-42780857D01*
X156064857Y-42780857D01*
X156355142Y-42853428D01*
X156500285Y-42926000D01*
X156572857Y-42998571D01*
X156645428Y-43143714D01*
X156645428Y-43288857D01*
X156572857Y-43434000D01*
X156500285Y-43506571D01*
X156355142Y-43579142D01*
X156064857Y-43651714D01*
X155702000Y-43651714D01*
X155411714Y-43579142D01*
X155266571Y-43506571D01*
X155194000Y-43434000D01*
X155121428Y-43288857D01*
%TO.C,D9*%
X159947428Y-33128857D02*
X158423428Y-33128857D01*
X158423428Y-32766000D01*
X158496000Y-32548285D01*
X158641142Y-32403142D01*
X158786285Y-32330571D01*
X159076571Y-32258000D01*
X159294285Y-32258000D01*
X159584571Y-32330571D01*
X159729714Y-32403142D01*
X159874857Y-32548285D01*
X159947428Y-32766000D01*
X159947428Y-33128857D01*
X159947428Y-31532285D02*
X159947428Y-31242000D01*
X159874857Y-31096857D01*
X159802285Y-31024285D01*
X159584571Y-30879142D01*
X159294285Y-30806571D01*
X158713714Y-30806571D01*
X158568571Y-30879142D01*
X158496000Y-30951714D01*
X158423428Y-31096857D01*
X158423428Y-31387142D01*
X158496000Y-31532285D01*
X158568571Y-31604857D01*
X158713714Y-31677428D01*
X159076571Y-31677428D01*
X159221714Y-31604857D01*
X159294285Y-31532285D01*
X159366857Y-31387142D01*
X159366857Y-31096857D01*
X159294285Y-30951714D01*
X159221714Y-30879142D01*
X159076571Y-30806571D01*
%TO.C,D8*%
X163249428Y-33128857D02*
X161725428Y-33128857D01*
X161725428Y-32766000D01*
X161798000Y-32548285D01*
X161943142Y-32403142D01*
X162088285Y-32330571D01*
X162378571Y-32258000D01*
X162596285Y-32258000D01*
X162886571Y-32330571D01*
X163031714Y-32403142D01*
X163176857Y-32548285D01*
X163249428Y-32766000D01*
X163249428Y-33128857D01*
X162378571Y-31387142D02*
X162306000Y-31532285D01*
X162233428Y-31604857D01*
X162088285Y-31677428D01*
X162015714Y-31677428D01*
X161870571Y-31604857D01*
X161798000Y-31532285D01*
X161725428Y-31387142D01*
X161725428Y-31096857D01*
X161798000Y-30951714D01*
X161870571Y-30879142D01*
X162015714Y-30806571D01*
X162088285Y-30806571D01*
X162233428Y-30879142D01*
X162306000Y-30951714D01*
X162378571Y-31096857D01*
X162378571Y-31387142D01*
X162451142Y-31532285D01*
X162523714Y-31604857D01*
X162668857Y-31677428D01*
X162959142Y-31677428D01*
X163104285Y-31604857D01*
X163176857Y-31532285D01*
X163249428Y-31387142D01*
X163249428Y-31096857D01*
X163176857Y-30951714D01*
X163104285Y-30879142D01*
X162959142Y-30806571D01*
X162668857Y-30806571D01*
X162523714Y-30879142D01*
X162451142Y-30951714D01*
X162378571Y-31096857D01*
%TO.C,D7*%
X166551428Y-33128857D02*
X165027428Y-33128857D01*
X165027428Y-32766000D01*
X165100000Y-32548285D01*
X165245142Y-32403142D01*
X165390285Y-32330571D01*
X165680571Y-32258000D01*
X165898285Y-32258000D01*
X166188571Y-32330571D01*
X166333714Y-32403142D01*
X166478857Y-32548285D01*
X166551428Y-32766000D01*
X166551428Y-33128857D01*
X165027428Y-31750000D02*
X165027428Y-30734000D01*
X166551428Y-31387142D01*
%TO.C,D6*%
X169853428Y-33128857D02*
X168329428Y-33128857D01*
X168329428Y-32766000D01*
X168402000Y-32548285D01*
X168547142Y-32403142D01*
X168692285Y-32330571D01*
X168982571Y-32258000D01*
X169200285Y-32258000D01*
X169490571Y-32330571D01*
X169635714Y-32403142D01*
X169780857Y-32548285D01*
X169853428Y-32766000D01*
X169853428Y-33128857D01*
X168329428Y-30951714D02*
X168329428Y-31242000D01*
X168402000Y-31387142D01*
X168474571Y-31459714D01*
X168692285Y-31604857D01*
X168982571Y-31677428D01*
X169563142Y-31677428D01*
X169708285Y-31604857D01*
X169780857Y-31532285D01*
X169853428Y-31387142D01*
X169853428Y-31096857D01*
X169780857Y-30951714D01*
X169708285Y-30879142D01*
X169563142Y-30806571D01*
X169200285Y-30806571D01*
X169055142Y-30879142D01*
X168982571Y-30951714D01*
X168910000Y-31096857D01*
X168910000Y-31387142D01*
X168982571Y-31532285D01*
X169055142Y-31604857D01*
X169200285Y-31677428D01*
%TO.C,D5*%
X156645428Y-33128857D02*
X155121428Y-33128857D01*
X155121428Y-32766000D01*
X155194000Y-32548285D01*
X155339142Y-32403142D01*
X155484285Y-32330571D01*
X155774571Y-32258000D01*
X155992285Y-32258000D01*
X156282571Y-32330571D01*
X156427714Y-32403142D01*
X156572857Y-32548285D01*
X156645428Y-32766000D01*
X156645428Y-33128857D01*
X155121428Y-30879142D02*
X155121428Y-31604857D01*
X155847142Y-31677428D01*
X155774571Y-31604857D01*
X155702000Y-31459714D01*
X155702000Y-31096857D01*
X155774571Y-30951714D01*
X155847142Y-30879142D01*
X155992285Y-30806571D01*
X156355142Y-30806571D01*
X156500285Y-30879142D01*
X156572857Y-30951714D01*
X156645428Y-31096857D01*
X156645428Y-31459714D01*
X156572857Y-31604857D01*
X156500285Y-31677428D01*
%TO.C,D4*%
X153597428Y-33128857D02*
X152073428Y-33128857D01*
X152073428Y-32766000D01*
X152146000Y-32548285D01*
X152291142Y-32403142D01*
X152436285Y-32330571D01*
X152726571Y-32258000D01*
X152944285Y-32258000D01*
X153234571Y-32330571D01*
X153379714Y-32403142D01*
X153524857Y-32548285D01*
X153597428Y-32766000D01*
X153597428Y-33128857D01*
X152581428Y-30951714D02*
X153597428Y-30951714D01*
X152000857Y-31314571D02*
X153089428Y-31677428D01*
X153089428Y-30734000D01*
%TO.C,D3*%
X150041428Y-33128857D02*
X148517428Y-33128857D01*
X148517428Y-32766000D01*
X148590000Y-32548285D01*
X148735142Y-32403142D01*
X148880285Y-32330571D01*
X149170571Y-32258000D01*
X149388285Y-32258000D01*
X149678571Y-32330571D01*
X149823714Y-32403142D01*
X149968857Y-32548285D01*
X150041428Y-32766000D01*
X150041428Y-33128857D01*
X148517428Y-31750000D02*
X148517428Y-30806571D01*
X149098000Y-31314571D01*
X149098000Y-31096857D01*
X149170571Y-30951714D01*
X149243142Y-30879142D01*
X149388285Y-30806571D01*
X149751142Y-30806571D01*
X149896285Y-30879142D01*
X149968857Y-30951714D01*
X150041428Y-31096857D01*
X150041428Y-31532285D01*
X149968857Y-31677428D01*
X149896285Y-31750000D01*
%TO.C,D2*%
X146739428Y-33128857D02*
X145215428Y-33128857D01*
X145215428Y-32766000D01*
X145288000Y-32548285D01*
X145433142Y-32403142D01*
X145578285Y-32330571D01*
X145868571Y-32258000D01*
X146086285Y-32258000D01*
X146376571Y-32330571D01*
X146521714Y-32403142D01*
X146666857Y-32548285D01*
X146739428Y-32766000D01*
X146739428Y-33128857D01*
X145360571Y-31677428D02*
X145288000Y-31604857D01*
X145215428Y-31459714D01*
X145215428Y-31096857D01*
X145288000Y-30951714D01*
X145360571Y-30879142D01*
X145505714Y-30806571D01*
X145650857Y-30806571D01*
X145868571Y-30879142D01*
X146739428Y-31750000D01*
X146739428Y-30806571D01*
%TO.C,D1*%
X143437428Y-33128857D02*
X141913428Y-33128857D01*
X141913428Y-32766000D01*
X141986000Y-32548285D01*
X142131142Y-32403142D01*
X142276285Y-32330571D01*
X142566571Y-32258000D01*
X142784285Y-32258000D01*
X143074571Y-32330571D01*
X143219714Y-32403142D01*
X143364857Y-32548285D01*
X143437428Y-32766000D01*
X143437428Y-33128857D01*
X143437428Y-30806571D02*
X143437428Y-31677428D01*
X143437428Y-31242000D02*
X141913428Y-31242000D01*
X142131142Y-31387142D01*
X142276285Y-31532285D01*
X142348857Y-31677428D01*
%TO.C,U1*%
D10*
X102595514Y-53422550D02*
X102595514Y-52965407D01*
X103395514Y-53193978D02*
X102595514Y-53193978D01*
X102595514Y-52774931D02*
X103395514Y-52241597D01*
X102595514Y-52241597D02*
X103395514Y-52774931D01*
X102595514Y-51784454D02*
X102595514Y-51708264D01*
X102633610Y-51632074D01*
X102671705Y-51593978D01*
X102747895Y-51555883D01*
X102900276Y-51517788D01*
X103090752Y-51517788D01*
X103243133Y-51555883D01*
X103319324Y-51593978D01*
X103357419Y-51632074D01*
X103395514Y-51708264D01*
X103395514Y-51784454D01*
X103357419Y-51860645D01*
X103319324Y-51898740D01*
X103243133Y-51936835D01*
X103090752Y-51974931D01*
X102900276Y-51974931D01*
X102747895Y-51936835D01*
X102671705Y-51898740D01*
X102633610Y-51860645D01*
X102595514Y-51784454D01*
X102557419Y-50603502D02*
X103585990Y-51289216D01*
X103395514Y-50336835D02*
X102595514Y-50336835D01*
X102595514Y-50146359D01*
X102633610Y-50032074D01*
X102709800Y-49955883D01*
X102785990Y-49917788D01*
X102938371Y-49879693D01*
X103052657Y-49879693D01*
X103205038Y-49917788D01*
X103281229Y-49955883D01*
X103357419Y-50032074D01*
X103395514Y-50146359D01*
X103395514Y-50336835D01*
X102595514Y-49613026D02*
X102595514Y-49117788D01*
X102900276Y-49384454D01*
X102900276Y-49270169D01*
X102938371Y-49193978D01*
X102976467Y-49155883D01*
X103052657Y-49117788D01*
X103243133Y-49117788D01*
X103319324Y-49155883D01*
X103357419Y-49193978D01*
X103395514Y-49270169D01*
X103395514Y-49498740D01*
X103357419Y-49574931D01*
X103319324Y-49613026D01*
X105935514Y-53711678D02*
X105135514Y-53711678D01*
X105135514Y-53521202D01*
X105173610Y-53406916D01*
X105249800Y-53330725D01*
X105325990Y-53292630D01*
X105478371Y-53254535D01*
X105592657Y-53254535D01*
X105745038Y-53292630D01*
X105821229Y-53330725D01*
X105897419Y-53406916D01*
X105935514Y-53521202D01*
X105935514Y-53711678D01*
X105211705Y-52949773D02*
X105173610Y-52911678D01*
X105135514Y-52835487D01*
X105135514Y-52645011D01*
X105173610Y-52568821D01*
X105211705Y-52530725D01*
X105287895Y-52492630D01*
X105364086Y-52492630D01*
X105478371Y-52530725D01*
X105935514Y-52987868D01*
X105935514Y-52492630D01*
X116095514Y-53711678D02*
X115295514Y-53711678D01*
X115295514Y-53521202D01*
X115333610Y-53406916D01*
X115409800Y-53330725D01*
X115485990Y-53292630D01*
X115638371Y-53254535D01*
X115752657Y-53254535D01*
X115905038Y-53292630D01*
X115981229Y-53330725D01*
X116057419Y-53406916D01*
X116095514Y-53521202D01*
X116095514Y-53711678D01*
X115295514Y-52759297D02*
X115295514Y-52683106D01*
X115333610Y-52606916D01*
X115371705Y-52568821D01*
X115447895Y-52530725D01*
X115600276Y-52492630D01*
X115790752Y-52492630D01*
X115943133Y-52530725D01*
X116019324Y-52568821D01*
X116057419Y-52606916D01*
X116095514Y-52683106D01*
X116095514Y-52759297D01*
X116057419Y-52835487D01*
X116019324Y-52873582D01*
X115943133Y-52911678D01*
X115790752Y-52949773D01*
X115600276Y-52949773D01*
X115447895Y-52911678D01*
X115371705Y-52873582D01*
X115333610Y-52835487D01*
X115295514Y-52759297D01*
X113555514Y-53711678D02*
X112755514Y-53711678D01*
X112755514Y-53521202D01*
X112793610Y-53406916D01*
X112869800Y-53330725D01*
X112945990Y-53292630D01*
X113098371Y-53254535D01*
X113212657Y-53254535D01*
X113365038Y-53292630D01*
X113441229Y-53330725D01*
X113517419Y-53406916D01*
X113555514Y-53521202D01*
X113555514Y-53711678D01*
X113555514Y-52492630D02*
X113555514Y-52949773D01*
X113555514Y-52721202D02*
X112755514Y-52721202D01*
X112869800Y-52797392D01*
X112945990Y-52873582D01*
X112984086Y-52949773D01*
X110253610Y-53730725D02*
X110215514Y-53806916D01*
X110215514Y-53921202D01*
X110253610Y-54035487D01*
X110329800Y-54111678D01*
X110405990Y-54149773D01*
X110558371Y-54187868D01*
X110672657Y-54187868D01*
X110825038Y-54149773D01*
X110901229Y-54111678D01*
X110977419Y-54035487D01*
X111015514Y-53921202D01*
X111015514Y-53845011D01*
X110977419Y-53730725D01*
X110939324Y-53692630D01*
X110672657Y-53692630D01*
X110672657Y-53845011D01*
X111015514Y-53349773D02*
X110215514Y-53349773D01*
X111015514Y-52892630D01*
X110215514Y-52892630D01*
X111015514Y-52511678D02*
X110215514Y-52511678D01*
X110215514Y-52321202D01*
X110253610Y-52206916D01*
X110329800Y-52130725D01*
X110405990Y-52092630D01*
X110558371Y-52054535D01*
X110672657Y-52054535D01*
X110825038Y-52092630D01*
X110901229Y-52130725D01*
X110977419Y-52206916D01*
X111015514Y-52321202D01*
X111015514Y-52511678D01*
X107713610Y-53730725D02*
X107675514Y-53806916D01*
X107675514Y-53921202D01*
X107713610Y-54035487D01*
X107789800Y-54111678D01*
X107865990Y-54149773D01*
X108018371Y-54187868D01*
X108132657Y-54187868D01*
X108285038Y-54149773D01*
X108361229Y-54111678D01*
X108437419Y-54035487D01*
X108475514Y-53921202D01*
X108475514Y-53845011D01*
X108437419Y-53730725D01*
X108399324Y-53692630D01*
X108132657Y-53692630D01*
X108132657Y-53845011D01*
X108475514Y-53349773D02*
X107675514Y-53349773D01*
X108475514Y-52892630D01*
X107675514Y-52892630D01*
X108475514Y-52511678D02*
X107675514Y-52511678D01*
X107675514Y-52321202D01*
X107713610Y-52206916D01*
X107789800Y-52130725D01*
X107865990Y-52092630D01*
X108018371Y-52054535D01*
X108132657Y-52054535D01*
X108285038Y-52092630D01*
X108361229Y-52130725D01*
X108437419Y-52206916D01*
X108475514Y-52321202D01*
X108475514Y-52511678D01*
X118635514Y-53711678D02*
X117835514Y-53711678D01*
X117835514Y-53521202D01*
X117873610Y-53406916D01*
X117949800Y-53330725D01*
X118025990Y-53292630D01*
X118178371Y-53254535D01*
X118292657Y-53254535D01*
X118445038Y-53292630D01*
X118521229Y-53330725D01*
X118597419Y-53406916D01*
X118635514Y-53521202D01*
X118635514Y-53711678D01*
X118102181Y-52568821D02*
X118635514Y-52568821D01*
X117797419Y-52759297D02*
X118368848Y-52949773D01*
X118368848Y-52454535D01*
X121099324Y-53254535D02*
X121137419Y-53292630D01*
X121175514Y-53406916D01*
X121175514Y-53483106D01*
X121137419Y-53597392D01*
X121061229Y-53673582D01*
X120985038Y-53711678D01*
X120832657Y-53749773D01*
X120718371Y-53749773D01*
X120565990Y-53711678D01*
X120489800Y-53673582D01*
X120413610Y-53597392D01*
X120375514Y-53483106D01*
X120375514Y-53406916D01*
X120413610Y-53292630D01*
X120451705Y-53254535D01*
X120375514Y-52568821D02*
X120375514Y-52721202D01*
X120413610Y-52797392D01*
X120451705Y-52835487D01*
X120565990Y-52911678D01*
X120718371Y-52949773D01*
X121023133Y-52949773D01*
X121099324Y-52911678D01*
X121137419Y-52873582D01*
X121175514Y-52797392D01*
X121175514Y-52645011D01*
X121137419Y-52568821D01*
X121099324Y-52530725D01*
X121023133Y-52492630D01*
X120832657Y-52492630D01*
X120756467Y-52530725D01*
X120718371Y-52568821D01*
X120680276Y-52645011D01*
X120680276Y-52797392D01*
X120718371Y-52873582D01*
X120756467Y-52911678D01*
X120832657Y-52949773D01*
X123715514Y-53711678D02*
X122915514Y-53711678D01*
X122915514Y-53521202D01*
X122953610Y-53406916D01*
X123029800Y-53330725D01*
X123105990Y-53292630D01*
X123258371Y-53254535D01*
X123372657Y-53254535D01*
X123525038Y-53292630D01*
X123601229Y-53330725D01*
X123677419Y-53406916D01*
X123715514Y-53521202D01*
X123715514Y-53711678D01*
X122915514Y-52987868D02*
X122915514Y-52454535D01*
X123715514Y-52797392D01*
X125836467Y-53673582D02*
X125836467Y-53406916D01*
X126255514Y-53292630D02*
X126255514Y-53673582D01*
X125455514Y-53673582D01*
X125455514Y-53292630D01*
X125455514Y-52606916D02*
X125455514Y-52759297D01*
X125493610Y-52835487D01*
X125531705Y-52873582D01*
X125645990Y-52949773D01*
X125798371Y-52987868D01*
X126103133Y-52987868D01*
X126179324Y-52949773D01*
X126217419Y-52911678D01*
X126255514Y-52835487D01*
X126255514Y-52683106D01*
X126217419Y-52606916D01*
X126179324Y-52568821D01*
X126103133Y-52530725D01*
X125912657Y-52530725D01*
X125836467Y-52568821D01*
X125798371Y-52606916D01*
X125760276Y-52683106D01*
X125760276Y-52835487D01*
X125798371Y-52911678D01*
X125836467Y-52949773D01*
X125912657Y-52987868D01*
X128376467Y-53445011D02*
X128414562Y-53330725D01*
X128452657Y-53292630D01*
X128528848Y-53254535D01*
X128643133Y-53254535D01*
X128719324Y-53292630D01*
X128757419Y-53330725D01*
X128795514Y-53406916D01*
X128795514Y-53711678D01*
X127995514Y-53711678D01*
X127995514Y-53445011D01*
X128033610Y-53368821D01*
X128071705Y-53330725D01*
X128147895Y-53292630D01*
X128224086Y-53292630D01*
X128300276Y-53330725D01*
X128338371Y-53368821D01*
X128376467Y-53445011D01*
X128376467Y-53711678D01*
X128262181Y-52568821D02*
X128795514Y-52568821D01*
X127957419Y-52759297D02*
X128528848Y-52949773D01*
X128528848Y-52454535D01*
X130916467Y-53445011D02*
X130954562Y-53330725D01*
X130992657Y-53292630D01*
X131068848Y-53254535D01*
X131183133Y-53254535D01*
X131259324Y-53292630D01*
X131297419Y-53330725D01*
X131335514Y-53406916D01*
X131335514Y-53711678D01*
X130535514Y-53711678D01*
X130535514Y-53445011D01*
X130573610Y-53368821D01*
X130611705Y-53330725D01*
X130687895Y-53292630D01*
X130764086Y-53292630D01*
X130840276Y-53330725D01*
X130878371Y-53368821D01*
X130916467Y-53445011D01*
X130916467Y-53711678D01*
X130535514Y-52530725D02*
X130535514Y-52911678D01*
X130916467Y-52949773D01*
X130878371Y-52911678D01*
X130840276Y-52835487D01*
X130840276Y-52645011D01*
X130878371Y-52568821D01*
X130916467Y-52530725D01*
X130992657Y-52492630D01*
X131183133Y-52492630D01*
X131259324Y-52530725D01*
X131297419Y-52568821D01*
X131335514Y-52645011D01*
X131335514Y-52835487D01*
X131297419Y-52911678D01*
X131259324Y-52949773D01*
X130916467Y-37523011D02*
X130954562Y-37408725D01*
X130992657Y-37370630D01*
X131068848Y-37332535D01*
X131183133Y-37332535D01*
X131259324Y-37370630D01*
X131297419Y-37408725D01*
X131335514Y-37484916D01*
X131335514Y-37789678D01*
X130535514Y-37789678D01*
X130535514Y-37523011D01*
X130573610Y-37446821D01*
X130611705Y-37408725D01*
X130687895Y-37370630D01*
X130764086Y-37370630D01*
X130840276Y-37408725D01*
X130878371Y-37446821D01*
X130916467Y-37523011D01*
X130916467Y-37789678D01*
X130535514Y-36646821D02*
X130535514Y-36799202D01*
X130573610Y-36875392D01*
X130611705Y-36913487D01*
X130725990Y-36989678D01*
X130878371Y-37027773D01*
X131183133Y-37027773D01*
X131259324Y-36989678D01*
X131297419Y-36951582D01*
X131335514Y-36875392D01*
X131335514Y-36723011D01*
X131297419Y-36646821D01*
X131259324Y-36608725D01*
X131183133Y-36570630D01*
X130992657Y-36570630D01*
X130916467Y-36608725D01*
X130878371Y-36646821D01*
X130840276Y-36723011D01*
X130840276Y-36875392D01*
X130878371Y-36951582D01*
X130916467Y-36989678D01*
X130992657Y-37027773D01*
X125836467Y-37523011D02*
X125874562Y-37408725D01*
X125912657Y-37370630D01*
X125988848Y-37332535D01*
X126103133Y-37332535D01*
X126179324Y-37370630D01*
X126217419Y-37408725D01*
X126255514Y-37484916D01*
X126255514Y-37789678D01*
X125455514Y-37789678D01*
X125455514Y-37523011D01*
X125493610Y-37446821D01*
X125531705Y-37408725D01*
X125607895Y-37370630D01*
X125684086Y-37370630D01*
X125760276Y-37408725D01*
X125798371Y-37446821D01*
X125836467Y-37523011D01*
X125836467Y-37789678D01*
X125455514Y-37065868D02*
X125455514Y-36570630D01*
X125760276Y-36837297D01*
X125760276Y-36723011D01*
X125798371Y-36646821D01*
X125836467Y-36608725D01*
X125912657Y-36570630D01*
X126103133Y-36570630D01*
X126179324Y-36608725D01*
X126217419Y-36646821D01*
X126255514Y-36723011D01*
X126255514Y-36951582D01*
X126217419Y-37027773D01*
X126179324Y-37065868D01*
X123296467Y-37523011D02*
X123334562Y-37408725D01*
X123372657Y-37370630D01*
X123448848Y-37332535D01*
X123563133Y-37332535D01*
X123639324Y-37370630D01*
X123677419Y-37408725D01*
X123715514Y-37484916D01*
X123715514Y-37789678D01*
X122915514Y-37789678D01*
X122915514Y-37523011D01*
X122953610Y-37446821D01*
X122991705Y-37408725D01*
X123067895Y-37370630D01*
X123144086Y-37370630D01*
X123220276Y-37408725D01*
X123258371Y-37446821D01*
X123296467Y-37523011D01*
X123296467Y-37789678D01*
X123715514Y-36570630D02*
X123715514Y-37027773D01*
X123715514Y-36799202D02*
X122915514Y-36799202D01*
X123029800Y-36875392D01*
X123105990Y-36951582D01*
X123144086Y-37027773D01*
X113136467Y-37465868D02*
X113136467Y-37732535D01*
X113555514Y-37732535D02*
X112755514Y-37732535D01*
X112755514Y-37351582D01*
X113022181Y-36703963D02*
X113555514Y-36703963D01*
X112717419Y-36894440D02*
X113288848Y-37084916D01*
X113288848Y-36589678D01*
X110215514Y-38265868D02*
X111015514Y-37999202D01*
X110215514Y-37732535D01*
X110939324Y-37008725D02*
X110977419Y-37046821D01*
X111015514Y-37161106D01*
X111015514Y-37237297D01*
X110977419Y-37351582D01*
X110901229Y-37427773D01*
X110825038Y-37465868D01*
X110672657Y-37503963D01*
X110558371Y-37503963D01*
X110405990Y-37465868D01*
X110329800Y-37427773D01*
X110253610Y-37351582D01*
X110215514Y-37237297D01*
X110215514Y-37161106D01*
X110253610Y-37046821D01*
X110291705Y-37008725D01*
X110939324Y-36208725D02*
X110977419Y-36246821D01*
X111015514Y-36361106D01*
X111015514Y-36437297D01*
X110977419Y-36551582D01*
X110901229Y-36627773D01*
X110825038Y-36665868D01*
X110672657Y-36703963D01*
X110558371Y-36703963D01*
X110405990Y-36665868D01*
X110329800Y-36627773D01*
X110253610Y-36551582D01*
X110215514Y-36437297D01*
X110215514Y-36361106D01*
X110253610Y-36246821D01*
X110291705Y-36208725D01*
X108407419Y-37460415D02*
X108445514Y-37346129D01*
X108445514Y-37155653D01*
X108407419Y-37079462D01*
X108369324Y-37041367D01*
X108293133Y-37003272D01*
X108216943Y-37003272D01*
X108140752Y-37041367D01*
X108102657Y-37079462D01*
X108064562Y-37155653D01*
X108026467Y-37308034D01*
X107988371Y-37384224D01*
X107950276Y-37422320D01*
X107874086Y-37460415D01*
X107797895Y-37460415D01*
X107721705Y-37422320D01*
X107683610Y-37384224D01*
X107645514Y-37308034D01*
X107645514Y-37117558D01*
X107683610Y-37003272D01*
X107645514Y-36774701D02*
X107645514Y-36317558D01*
X108445514Y-36546129D02*
X107645514Y-36546129D01*
X105173610Y-37808725D02*
X105135514Y-37884916D01*
X105135514Y-37999202D01*
X105173610Y-38113487D01*
X105249800Y-38189678D01*
X105325990Y-38227773D01*
X105478371Y-38265868D01*
X105592657Y-38265868D01*
X105745038Y-38227773D01*
X105821229Y-38189678D01*
X105897419Y-38113487D01*
X105935514Y-37999202D01*
X105935514Y-37923011D01*
X105897419Y-37808725D01*
X105859324Y-37770630D01*
X105592657Y-37770630D01*
X105592657Y-37923011D01*
X105935514Y-37427773D02*
X105135514Y-37427773D01*
X105935514Y-36970630D01*
X105135514Y-36970630D01*
X105935514Y-36589678D02*
X105135514Y-36589678D01*
X105135514Y-36399202D01*
X105173610Y-36284916D01*
X105249800Y-36208725D01*
X105325990Y-36170630D01*
X105478371Y-36132535D01*
X105592657Y-36132535D01*
X105745038Y-36170630D01*
X105821229Y-36208725D01*
X105897419Y-36284916D01*
X105935514Y-36399202D01*
X105935514Y-36589678D01*
X103395514Y-37751582D02*
X103014562Y-38018249D01*
X103395514Y-38208725D02*
X102595514Y-38208725D01*
X102595514Y-37903963D01*
X102633610Y-37827773D01*
X102671705Y-37789678D01*
X102747895Y-37751582D01*
X102862181Y-37751582D01*
X102938371Y-37789678D01*
X102976467Y-37827773D01*
X103014562Y-37903963D01*
X103014562Y-38208725D01*
X103166943Y-37446821D02*
X103166943Y-37065868D01*
X103395514Y-37523011D02*
X102595514Y-37256344D01*
X103395514Y-36989678D01*
X102595514Y-36799202D02*
X103395514Y-36608725D01*
X102824086Y-36456344D01*
X103395514Y-36303963D01*
X102595514Y-36113487D01*
X115676467Y-37465868D02*
X115676467Y-37732535D01*
X116095514Y-37732535D02*
X115295514Y-37732535D01*
X115295514Y-37351582D01*
X115295514Y-36665868D02*
X115295514Y-37046821D01*
X115676467Y-37084916D01*
X115638371Y-37046821D01*
X115600276Y-36970630D01*
X115600276Y-36780154D01*
X115638371Y-36703963D01*
X115676467Y-36665868D01*
X115752657Y-36627773D01*
X115943133Y-36627773D01*
X116019324Y-36665868D01*
X116057419Y-36703963D01*
X116095514Y-36780154D01*
X116095514Y-36970630D01*
X116057419Y-37046821D01*
X116019324Y-37084916D01*
X118216467Y-37465868D02*
X118216467Y-37732535D01*
X118635514Y-37732535D02*
X117835514Y-37732535D01*
X117835514Y-37351582D01*
X117835514Y-36703963D02*
X117835514Y-36856344D01*
X117873610Y-36932535D01*
X117911705Y-36970630D01*
X118025990Y-37046821D01*
X118178371Y-37084916D01*
X118483133Y-37084916D01*
X118559324Y-37046821D01*
X118597419Y-37008725D01*
X118635514Y-36932535D01*
X118635514Y-36780154D01*
X118597419Y-36703963D01*
X118559324Y-36665868D01*
X118483133Y-36627773D01*
X118292657Y-36627773D01*
X118216467Y-36665868D01*
X118178371Y-36703963D01*
X118140276Y-36780154D01*
X118140276Y-36932535D01*
X118178371Y-37008725D01*
X118216467Y-37046821D01*
X118292657Y-37084916D01*
X120756467Y-37465868D02*
X120756467Y-37732535D01*
X121175514Y-37732535D02*
X120375514Y-37732535D01*
X120375514Y-37351582D01*
X120375514Y-37123011D02*
X120375514Y-36589678D01*
X121175514Y-36932535D01*
X128376467Y-37523011D02*
X128414562Y-37408725D01*
X128452657Y-37370630D01*
X128528848Y-37332535D01*
X128643133Y-37332535D01*
X128719324Y-37370630D01*
X128757419Y-37408725D01*
X128795514Y-37484916D01*
X128795514Y-37789678D01*
X127995514Y-37789678D01*
X127995514Y-37523011D01*
X128033610Y-37446821D01*
X128071705Y-37408725D01*
X128147895Y-37370630D01*
X128224086Y-37370630D01*
X128300276Y-37408725D01*
X128338371Y-37446821D01*
X128376467Y-37523011D01*
X128376467Y-37789678D01*
X128071705Y-37027773D02*
X128033610Y-36989678D01*
X127995514Y-36913487D01*
X127995514Y-36723011D01*
X128033610Y-36646821D01*
X128071705Y-36608725D01*
X128147895Y-36570630D01*
X128224086Y-36570630D01*
X128338371Y-36608725D01*
X128795514Y-37065868D01*
X128795514Y-36570630D01*
%TO.C,M2*%
X136350476Y-34590380D02*
X136350476Y-33590380D01*
X136683809Y-34304666D01*
X137017142Y-33590380D01*
X137017142Y-34590380D01*
X137445714Y-33685619D02*
X137493333Y-33638000D01*
X137588571Y-33590380D01*
X137826666Y-33590380D01*
X137921904Y-33638000D01*
X137969523Y-33685619D01*
X138017142Y-33780857D01*
X138017142Y-33876095D01*
X137969523Y-34018952D01*
X137398095Y-34590380D01*
X138017142Y-34590380D01*
X183340476Y-102027380D02*
X183340476Y-101027380D01*
X183673809Y-101741666D01*
X184007142Y-101027380D01*
X184007142Y-102027380D01*
X184435714Y-101122619D02*
X184483333Y-101075000D01*
X184578571Y-101027380D01*
X184816666Y-101027380D01*
X184911904Y-101075000D01*
X184959523Y-101122619D01*
X185007142Y-101217857D01*
X185007142Y-101313095D01*
X184959523Y-101455952D01*
X184388095Y-102027380D01*
X185007142Y-102027380D01*
X130159226Y-118696130D02*
X130159226Y-117696130D01*
X130492559Y-118410416D01*
X130825892Y-117696130D01*
X130825892Y-118696130D01*
X131254464Y-117791369D02*
X131302083Y-117743750D01*
X131397321Y-117696130D01*
X131635416Y-117696130D01*
X131730654Y-117743750D01*
X131778273Y-117791369D01*
X131825892Y-117886607D01*
X131825892Y-117981845D01*
X131778273Y-118124702D01*
X131206845Y-118696130D01*
X131825892Y-118696130D01*
X130159226Y-80596130D02*
X130159226Y-79596130D01*
X130492559Y-80310416D01*
X130825892Y-79596130D01*
X130825892Y-80596130D01*
X131254464Y-79691369D02*
X131302083Y-79643750D01*
X131397321Y-79596130D01*
X131635416Y-79596130D01*
X131730654Y-79643750D01*
X131778273Y-79691369D01*
X131825892Y-79786607D01*
X131825892Y-79881845D01*
X131778273Y-80024702D01*
X131206845Y-80596130D01*
X131825892Y-80596130D01*
X92852976Y-156002380D02*
X92852976Y-155002380D01*
X93186309Y-155716666D01*
X93519642Y-155002380D01*
X93519642Y-156002380D01*
X93948214Y-155097619D02*
X93995833Y-155050000D01*
X94091071Y-155002380D01*
X94329166Y-155002380D01*
X94424404Y-155050000D01*
X94472023Y-155097619D01*
X94519642Y-155192857D01*
X94519642Y-155288095D01*
X94472023Y-155430952D01*
X93900595Y-156002380D01*
X94519642Y-156002380D01*
X196040476Y-156002380D02*
X196040476Y-155002380D01*
X196373809Y-155716666D01*
X196707142Y-155002380D01*
X196707142Y-156002380D01*
X197135714Y-155097619D02*
X197183333Y-155050000D01*
X197278571Y-155002380D01*
X197516666Y-155002380D01*
X197611904Y-155050000D01*
X197659523Y-155097619D01*
X197707142Y-155192857D01*
X197707142Y-155288095D01*
X197659523Y-155430952D01*
X197088095Y-156002380D01*
X197707142Y-156002380D01*
X194452976Y-57577380D02*
X194452976Y-56577380D01*
X194786309Y-57291666D01*
X195119642Y-56577380D01*
X195119642Y-57577380D01*
X195548214Y-56672619D02*
X195595833Y-56625000D01*
X195691071Y-56577380D01*
X195929166Y-56577380D01*
X196024404Y-56625000D01*
X196072023Y-56672619D01*
X196119642Y-56767857D01*
X196119642Y-56863095D01*
X196072023Y-57005952D01*
X195500595Y-57577380D01*
X196119642Y-57577380D01*
X94440476Y-57577380D02*
X94440476Y-56577380D01*
X94773809Y-57291666D01*
X95107142Y-56577380D01*
X95107142Y-57577380D01*
X95535714Y-56672619D02*
X95583333Y-56625000D01*
X95678571Y-56577380D01*
X95916666Y-56577380D01*
X96011904Y-56625000D01*
X96059523Y-56672619D01*
X96107142Y-56767857D01*
X96107142Y-56863095D01*
X96059523Y-57005952D01*
X95488095Y-57577380D01*
X96107142Y-57577380D01*
%TO.C,SW3*%
X178116666Y-136079761D02*
X178259523Y-136127380D01*
X178497619Y-136127380D01*
X178592857Y-136079761D01*
X178640476Y-136032142D01*
X178688095Y-135936904D01*
X178688095Y-135841666D01*
X178640476Y-135746428D01*
X178592857Y-135698809D01*
X178497619Y-135651190D01*
X178307142Y-135603571D01*
X178211904Y-135555952D01*
X178164285Y-135508333D01*
X178116666Y-135413095D01*
X178116666Y-135317857D01*
X178164285Y-135222619D01*
X178211904Y-135175000D01*
X178307142Y-135127380D01*
X178545238Y-135127380D01*
X178688095Y-135175000D01*
X179021428Y-135127380D02*
X179259523Y-136127380D01*
X179450000Y-135413095D01*
X179640476Y-136127380D01*
X179878571Y-135127380D01*
X180164285Y-135127380D02*
X180783333Y-135127380D01*
X180450000Y-135508333D01*
X180592857Y-135508333D01*
X180688095Y-135555952D01*
X180735714Y-135603571D01*
X180783333Y-135698809D01*
X180783333Y-135936904D01*
X180735714Y-136032142D01*
X180688095Y-136079761D01*
X180592857Y-136127380D01*
X180307142Y-136127380D01*
X180211904Y-136079761D01*
X180164285Y-136032142D01*
%TO.C,SW2*%
X178116666Y-110679761D02*
X178259523Y-110727380D01*
X178497619Y-110727380D01*
X178592857Y-110679761D01*
X178640476Y-110632142D01*
X178688095Y-110536904D01*
X178688095Y-110441666D01*
X178640476Y-110346428D01*
X178592857Y-110298809D01*
X178497619Y-110251190D01*
X178307142Y-110203571D01*
X178211904Y-110155952D01*
X178164285Y-110108333D01*
X178116666Y-110013095D01*
X178116666Y-109917857D01*
X178164285Y-109822619D01*
X178211904Y-109775000D01*
X178307142Y-109727380D01*
X178545238Y-109727380D01*
X178688095Y-109775000D01*
X179021428Y-109727380D02*
X179259523Y-110727380D01*
X179450000Y-110013095D01*
X179640476Y-110727380D01*
X179878571Y-109727380D01*
X180211904Y-109822619D02*
X180259523Y-109775000D01*
X180354761Y-109727380D01*
X180592857Y-109727380D01*
X180688095Y-109775000D01*
X180735714Y-109822619D01*
X180783333Y-109917857D01*
X180783333Y-110013095D01*
X180735714Y-110155952D01*
X180164285Y-110727380D01*
X180783333Y-110727380D01*
%TO.C,SW1*%
X178116666Y-85279761D02*
X178259523Y-85327380D01*
X178497619Y-85327380D01*
X178592857Y-85279761D01*
X178640476Y-85232142D01*
X178688095Y-85136904D01*
X178688095Y-85041666D01*
X178640476Y-84946428D01*
X178592857Y-84898809D01*
X178497619Y-84851190D01*
X178307142Y-84803571D01*
X178211904Y-84755952D01*
X178164285Y-84708333D01*
X178116666Y-84613095D01*
X178116666Y-84517857D01*
X178164285Y-84422619D01*
X178211904Y-84375000D01*
X178307142Y-84327380D01*
X178545238Y-84327380D01*
X178688095Y-84375000D01*
X179021428Y-84327380D02*
X179259523Y-85327380D01*
X179450000Y-84613095D01*
X179640476Y-85327380D01*
X179878571Y-84327380D01*
X180783333Y-85327380D02*
X180211904Y-85327380D01*
X180497619Y-85327380D02*
X180497619Y-84327380D01*
X180402380Y-84470238D01*
X180307142Y-84565476D01*
X180211904Y-84613095D01*
%TO.C,R12*%
D12*
X183618261Y-53792380D02*
X183046833Y-53792380D01*
X183332547Y-53792380D02*
X183332547Y-52792380D01*
X183237309Y-52935238D01*
X183142071Y-53030476D01*
X183046833Y-53078095D01*
X184237309Y-52792380D02*
X184332547Y-52792380D01*
X184427785Y-52840000D01*
X184475404Y-52887619D01*
X184523023Y-52982857D01*
X184570642Y-53173333D01*
X184570642Y-53411428D01*
X184523023Y-53601904D01*
X184475404Y-53697142D01*
X184427785Y-53744761D01*
X184332547Y-53792380D01*
X184237309Y-53792380D01*
X184142071Y-53744761D01*
X184094452Y-53697142D01*
X184046833Y-53601904D01*
X183999214Y-53411428D01*
X183999214Y-53173333D01*
X184046833Y-52982857D01*
X184094452Y-52887619D01*
X184142071Y-52840000D01*
X184237309Y-52792380D01*
X184999214Y-53792380D02*
X184999214Y-52792380D01*
X185094452Y-53411428D02*
X185380166Y-53792380D01*
X185380166Y-53125714D02*
X184999214Y-53506666D01*
%TO.C,R11*%
X183618261Y-56967380D02*
X183046833Y-56967380D01*
X183332547Y-56967380D02*
X183332547Y-55967380D01*
X183237309Y-56110238D01*
X183142071Y-56205476D01*
X183046833Y-56253095D01*
X184237309Y-55967380D02*
X184332547Y-55967380D01*
X184427785Y-56015000D01*
X184475404Y-56062619D01*
X184523023Y-56157857D01*
X184570642Y-56348333D01*
X184570642Y-56586428D01*
X184523023Y-56776904D01*
X184475404Y-56872142D01*
X184427785Y-56919761D01*
X184332547Y-56967380D01*
X184237309Y-56967380D01*
X184142071Y-56919761D01*
X184094452Y-56872142D01*
X184046833Y-56776904D01*
X183999214Y-56586428D01*
X183999214Y-56348333D01*
X184046833Y-56157857D01*
X184094452Y-56062619D01*
X184142071Y-56015000D01*
X184237309Y-55967380D01*
X184999214Y-56967380D02*
X184999214Y-55967380D01*
X185094452Y-56586428D02*
X185380166Y-56967380D01*
X185380166Y-56300714D02*
X184999214Y-56681666D01*
%TO.C,R10*%
X183618261Y-60142380D02*
X183046833Y-60142380D01*
X183332547Y-60142380D02*
X183332547Y-59142380D01*
X183237309Y-59285238D01*
X183142071Y-59380476D01*
X183046833Y-59428095D01*
X184237309Y-59142380D02*
X184332547Y-59142380D01*
X184427785Y-59190000D01*
X184475404Y-59237619D01*
X184523023Y-59332857D01*
X184570642Y-59523333D01*
X184570642Y-59761428D01*
X184523023Y-59951904D01*
X184475404Y-60047142D01*
X184427785Y-60094761D01*
X184332547Y-60142380D01*
X184237309Y-60142380D01*
X184142071Y-60094761D01*
X184094452Y-60047142D01*
X184046833Y-59951904D01*
X183999214Y-59761428D01*
X183999214Y-59523333D01*
X184046833Y-59332857D01*
X184094452Y-59237619D01*
X184142071Y-59190000D01*
X184237309Y-59142380D01*
X184999214Y-60142380D02*
X184999214Y-59142380D01*
X185094452Y-59761428D02*
X185380166Y-60142380D01*
X185380166Y-59475714D02*
X184999214Y-59856666D01*
%TO.C,R9*%
X183618261Y-63317380D02*
X183046833Y-63317380D01*
X183332547Y-63317380D02*
X183332547Y-62317380D01*
X183237309Y-62460238D01*
X183142071Y-62555476D01*
X183046833Y-62603095D01*
X184237309Y-62317380D02*
X184332547Y-62317380D01*
X184427785Y-62365000D01*
X184475404Y-62412619D01*
X184523023Y-62507857D01*
X184570642Y-62698333D01*
X184570642Y-62936428D01*
X184523023Y-63126904D01*
X184475404Y-63222142D01*
X184427785Y-63269761D01*
X184332547Y-63317380D01*
X184237309Y-63317380D01*
X184142071Y-63269761D01*
X184094452Y-63222142D01*
X184046833Y-63126904D01*
X183999214Y-62936428D01*
X183999214Y-62698333D01*
X184046833Y-62507857D01*
X184094452Y-62412619D01*
X184142071Y-62365000D01*
X184237309Y-62317380D01*
X184999214Y-63317380D02*
X184999214Y-62317380D01*
X185094452Y-62936428D02*
X185380166Y-63317380D01*
X185380166Y-62650714D02*
X184999214Y-63031666D01*
%TO.C,R8*%
X183618261Y-66492380D02*
X183046833Y-66492380D01*
X183332547Y-66492380D02*
X183332547Y-65492380D01*
X183237309Y-65635238D01*
X183142071Y-65730476D01*
X183046833Y-65778095D01*
X184237309Y-65492380D02*
X184332547Y-65492380D01*
X184427785Y-65540000D01*
X184475404Y-65587619D01*
X184523023Y-65682857D01*
X184570642Y-65873333D01*
X184570642Y-66111428D01*
X184523023Y-66301904D01*
X184475404Y-66397142D01*
X184427785Y-66444761D01*
X184332547Y-66492380D01*
X184237309Y-66492380D01*
X184142071Y-66444761D01*
X184094452Y-66397142D01*
X184046833Y-66301904D01*
X183999214Y-66111428D01*
X183999214Y-65873333D01*
X184046833Y-65682857D01*
X184094452Y-65587619D01*
X184142071Y-65540000D01*
X184237309Y-65492380D01*
X184999214Y-66492380D02*
X184999214Y-65492380D01*
X185094452Y-66111428D02*
X185380166Y-66492380D01*
X185380166Y-65825714D02*
X184999214Y-66206666D01*
%TO.C,R7*%
X183618261Y-69667380D02*
X183046833Y-69667380D01*
X183332547Y-69667380D02*
X183332547Y-68667380D01*
X183237309Y-68810238D01*
X183142071Y-68905476D01*
X183046833Y-68953095D01*
X184237309Y-68667380D02*
X184332547Y-68667380D01*
X184427785Y-68715000D01*
X184475404Y-68762619D01*
X184523023Y-68857857D01*
X184570642Y-69048333D01*
X184570642Y-69286428D01*
X184523023Y-69476904D01*
X184475404Y-69572142D01*
X184427785Y-69619761D01*
X184332547Y-69667380D01*
X184237309Y-69667380D01*
X184142071Y-69619761D01*
X184094452Y-69572142D01*
X184046833Y-69476904D01*
X183999214Y-69286428D01*
X183999214Y-69048333D01*
X184046833Y-68857857D01*
X184094452Y-68762619D01*
X184142071Y-68715000D01*
X184237309Y-68667380D01*
X184999214Y-69667380D02*
X184999214Y-68667380D01*
X185094452Y-69286428D02*
X185380166Y-69667380D01*
X185380166Y-69000714D02*
X184999214Y-69381666D01*
%TO.C,R6*%
X183554761Y-50744380D02*
X182983333Y-50744380D01*
X183269047Y-50744380D02*
X183269047Y-49744380D01*
X183173809Y-49887238D01*
X183078571Y-49982476D01*
X182983333Y-50030095D01*
X184173809Y-49744380D02*
X184269047Y-49744380D01*
X184364285Y-49792000D01*
X184411904Y-49839619D01*
X184459523Y-49934857D01*
X184507142Y-50125333D01*
X184507142Y-50363428D01*
X184459523Y-50553904D01*
X184411904Y-50649142D01*
X184364285Y-50696761D01*
X184269047Y-50744380D01*
X184173809Y-50744380D01*
X184078571Y-50696761D01*
X184030952Y-50649142D01*
X183983333Y-50553904D01*
X183935714Y-50363428D01*
X183935714Y-50125333D01*
X183983333Y-49934857D01*
X184030952Y-49839619D01*
X184078571Y-49792000D01*
X184173809Y-49744380D01*
X184935714Y-50744380D02*
X184935714Y-49744380D01*
X185030952Y-50363428D02*
X185316666Y-50744380D01*
X185316666Y-50077714D02*
X184935714Y-50458666D01*
%TO.C,R5*%
X183554761Y-47696380D02*
X182983333Y-47696380D01*
X183269047Y-47696380D02*
X183269047Y-46696380D01*
X183173809Y-46839238D01*
X183078571Y-46934476D01*
X182983333Y-46982095D01*
X184173809Y-46696380D02*
X184269047Y-46696380D01*
X184364285Y-46744000D01*
X184411904Y-46791619D01*
X184459523Y-46886857D01*
X184507142Y-47077333D01*
X184507142Y-47315428D01*
X184459523Y-47505904D01*
X184411904Y-47601142D01*
X184364285Y-47648761D01*
X184269047Y-47696380D01*
X184173809Y-47696380D01*
X184078571Y-47648761D01*
X184030952Y-47601142D01*
X183983333Y-47505904D01*
X183935714Y-47315428D01*
X183935714Y-47077333D01*
X183983333Y-46886857D01*
X184030952Y-46791619D01*
X184078571Y-46744000D01*
X184173809Y-46696380D01*
X184935714Y-47696380D02*
X184935714Y-46696380D01*
X185030952Y-47315428D02*
X185316666Y-47696380D01*
X185316666Y-47029714D02*
X184935714Y-47410666D01*
%TO.C,R4*%
X183554761Y-44648380D02*
X182983333Y-44648380D01*
X183269047Y-44648380D02*
X183269047Y-43648380D01*
X183173809Y-43791238D01*
X183078571Y-43886476D01*
X182983333Y-43934095D01*
X184173809Y-43648380D02*
X184269047Y-43648380D01*
X184364285Y-43696000D01*
X184411904Y-43743619D01*
X184459523Y-43838857D01*
X184507142Y-44029333D01*
X184507142Y-44267428D01*
X184459523Y-44457904D01*
X184411904Y-44553142D01*
X184364285Y-44600761D01*
X184269047Y-44648380D01*
X184173809Y-44648380D01*
X184078571Y-44600761D01*
X184030952Y-44553142D01*
X183983333Y-44457904D01*
X183935714Y-44267428D01*
X183935714Y-44029333D01*
X183983333Y-43838857D01*
X184030952Y-43743619D01*
X184078571Y-43696000D01*
X184173809Y-43648380D01*
X184935714Y-44648380D02*
X184935714Y-43648380D01*
X185030952Y-44267428D02*
X185316666Y-44648380D01*
X185316666Y-43981714D02*
X184935714Y-44362666D01*
%TO.C,R3*%
X183554761Y-41600380D02*
X182983333Y-41600380D01*
X183269047Y-41600380D02*
X183269047Y-40600380D01*
X183173809Y-40743238D01*
X183078571Y-40838476D01*
X182983333Y-40886095D01*
X184173809Y-40600380D02*
X184269047Y-40600380D01*
X184364285Y-40648000D01*
X184411904Y-40695619D01*
X184459523Y-40790857D01*
X184507142Y-40981333D01*
X184507142Y-41219428D01*
X184459523Y-41409904D01*
X184411904Y-41505142D01*
X184364285Y-41552761D01*
X184269047Y-41600380D01*
X184173809Y-41600380D01*
X184078571Y-41552761D01*
X184030952Y-41505142D01*
X183983333Y-41409904D01*
X183935714Y-41219428D01*
X183935714Y-40981333D01*
X183983333Y-40790857D01*
X184030952Y-40695619D01*
X184078571Y-40648000D01*
X184173809Y-40600380D01*
X184935714Y-41600380D02*
X184935714Y-40600380D01*
X185030952Y-41219428D02*
X185316666Y-41600380D01*
X185316666Y-40933714D02*
X184935714Y-41314666D01*
%TO.C,R2*%
X183554761Y-38552380D02*
X182983333Y-38552380D01*
X183269047Y-38552380D02*
X183269047Y-37552380D01*
X183173809Y-37695238D01*
X183078571Y-37790476D01*
X182983333Y-37838095D01*
X184173809Y-37552380D02*
X184269047Y-37552380D01*
X184364285Y-37600000D01*
X184411904Y-37647619D01*
X184459523Y-37742857D01*
X184507142Y-37933333D01*
X184507142Y-38171428D01*
X184459523Y-38361904D01*
X184411904Y-38457142D01*
X184364285Y-38504761D01*
X184269047Y-38552380D01*
X184173809Y-38552380D01*
X184078571Y-38504761D01*
X184030952Y-38457142D01*
X183983333Y-38361904D01*
X183935714Y-38171428D01*
X183935714Y-37933333D01*
X183983333Y-37742857D01*
X184030952Y-37647619D01*
X184078571Y-37600000D01*
X184173809Y-37552380D01*
X184935714Y-38552380D02*
X184935714Y-37552380D01*
X185030952Y-38171428D02*
X185316666Y-38552380D01*
X185316666Y-37885714D02*
X184935714Y-38266666D01*
%TO.C,R1*%
X183554761Y-35504380D02*
X182983333Y-35504380D01*
X183269047Y-35504380D02*
X183269047Y-34504380D01*
X183173809Y-34647238D01*
X183078571Y-34742476D01*
X182983333Y-34790095D01*
X184173809Y-34504380D02*
X184269047Y-34504380D01*
X184364285Y-34552000D01*
X184411904Y-34599619D01*
X184459523Y-34694857D01*
X184507142Y-34885333D01*
X184507142Y-35123428D01*
X184459523Y-35313904D01*
X184411904Y-35409142D01*
X184364285Y-35456761D01*
X184269047Y-35504380D01*
X184173809Y-35504380D01*
X184078571Y-35456761D01*
X184030952Y-35409142D01*
X183983333Y-35313904D01*
X183935714Y-35123428D01*
X183935714Y-34885333D01*
X183983333Y-34694857D01*
X184030952Y-34599619D01*
X184078571Y-34552000D01*
X184173809Y-34504380D01*
X184935714Y-35504380D02*
X184935714Y-34504380D01*
X185030952Y-35123428D02*
X185316666Y-35504380D01*
X185316666Y-34837714D02*
X184935714Y-35218666D01*
%TO.C,C6*%
D10*
X192002000Y-50408666D02*
X192035333Y-50442000D01*
X192068666Y-50542000D01*
X192068666Y-50608666D01*
X192035333Y-50708666D01*
X191968666Y-50775333D01*
X191902000Y-50808666D01*
X191768666Y-50842000D01*
X191668666Y-50842000D01*
X191535333Y-50808666D01*
X191468666Y-50775333D01*
X191402000Y-50708666D01*
X191368666Y-50608666D01*
X191368666Y-50542000D01*
X191402000Y-50442000D01*
X191435333Y-50408666D01*
X191368666Y-49808666D02*
X191368666Y-49942000D01*
X191402000Y-50008666D01*
X191435333Y-50042000D01*
X191535333Y-50108666D01*
X191668666Y-50142000D01*
X191935333Y-50142000D01*
X192002000Y-50108666D01*
X192035333Y-50075333D01*
X192068666Y-50008666D01*
X192068666Y-49875333D01*
X192035333Y-49808666D01*
X192002000Y-49775333D01*
X191935333Y-49742000D01*
X191768666Y-49742000D01*
X191702000Y-49775333D01*
X191668666Y-49808666D01*
X191635333Y-49875333D01*
X191635333Y-50008666D01*
X191668666Y-50075333D01*
X191702000Y-50108666D01*
X191768666Y-50142000D01*
X193052000Y-49358666D02*
X192652000Y-49358666D01*
X192852000Y-49358666D02*
X192852000Y-48658666D01*
X192785333Y-48758666D01*
X192718666Y-48825333D01*
X192652000Y-48858666D01*
X193485333Y-48658666D02*
X193552000Y-48658666D01*
X193618666Y-48692000D01*
X193652000Y-48725333D01*
X193685333Y-48792000D01*
X193718666Y-48925333D01*
X193718666Y-49092000D01*
X193685333Y-49225333D01*
X193652000Y-49292000D01*
X193618666Y-49325333D01*
X193552000Y-49358666D01*
X193485333Y-49358666D01*
X193418666Y-49325333D01*
X193385333Y-49292000D01*
X193352000Y-49225333D01*
X193318666Y-49092000D01*
X193318666Y-48925333D01*
X193352000Y-48792000D01*
X193385333Y-48725333D01*
X193418666Y-48692000D01*
X193485333Y-48658666D01*
X194018666Y-48892000D02*
X194018666Y-49358666D01*
X194018666Y-48958666D02*
X194052000Y-48925333D01*
X194118666Y-48892000D01*
X194218666Y-48892000D01*
X194285333Y-48925333D01*
X194318666Y-48992000D01*
X194318666Y-49358666D01*
X194885333Y-48992000D02*
X194652000Y-48992000D01*
X194652000Y-49358666D02*
X194652000Y-48658666D01*
X194985333Y-48658666D01*
%TO.C,C5*%
X192002000Y-47360666D02*
X192035333Y-47394000D01*
X192068666Y-47494000D01*
X192068666Y-47560666D01*
X192035333Y-47660666D01*
X191968666Y-47727333D01*
X191902000Y-47760666D01*
X191768666Y-47794000D01*
X191668666Y-47794000D01*
X191535333Y-47760666D01*
X191468666Y-47727333D01*
X191402000Y-47660666D01*
X191368666Y-47560666D01*
X191368666Y-47494000D01*
X191402000Y-47394000D01*
X191435333Y-47360666D01*
X191368666Y-46727333D02*
X191368666Y-47060666D01*
X191702000Y-47094000D01*
X191668666Y-47060666D01*
X191635333Y-46994000D01*
X191635333Y-46827333D01*
X191668666Y-46760666D01*
X191702000Y-46727333D01*
X191768666Y-46694000D01*
X191935333Y-46694000D01*
X192002000Y-46727333D01*
X192035333Y-46760666D01*
X192068666Y-46827333D01*
X192068666Y-46994000D01*
X192035333Y-47060666D01*
X192002000Y-47094000D01*
X193052000Y-46310666D02*
X192652000Y-46310666D01*
X192852000Y-46310666D02*
X192852000Y-45610666D01*
X192785333Y-45710666D01*
X192718666Y-45777333D01*
X192652000Y-45810666D01*
X193485333Y-45610666D02*
X193552000Y-45610666D01*
X193618666Y-45644000D01*
X193652000Y-45677333D01*
X193685333Y-45744000D01*
X193718666Y-45877333D01*
X193718666Y-46044000D01*
X193685333Y-46177333D01*
X193652000Y-46244000D01*
X193618666Y-46277333D01*
X193552000Y-46310666D01*
X193485333Y-46310666D01*
X193418666Y-46277333D01*
X193385333Y-46244000D01*
X193352000Y-46177333D01*
X193318666Y-46044000D01*
X193318666Y-45877333D01*
X193352000Y-45744000D01*
X193385333Y-45677333D01*
X193418666Y-45644000D01*
X193485333Y-45610666D01*
X194018666Y-45844000D02*
X194018666Y-46310666D01*
X194018666Y-45910666D02*
X194052000Y-45877333D01*
X194118666Y-45844000D01*
X194218666Y-45844000D01*
X194285333Y-45877333D01*
X194318666Y-45944000D01*
X194318666Y-46310666D01*
X194885333Y-45944000D02*
X194652000Y-45944000D01*
X194652000Y-46310666D02*
X194652000Y-45610666D01*
X194985333Y-45610666D01*
%TO.C,C4*%
X192002000Y-44312666D02*
X192035333Y-44346000D01*
X192068666Y-44446000D01*
X192068666Y-44512666D01*
X192035333Y-44612666D01*
X191968666Y-44679333D01*
X191902000Y-44712666D01*
X191768666Y-44746000D01*
X191668666Y-44746000D01*
X191535333Y-44712666D01*
X191468666Y-44679333D01*
X191402000Y-44612666D01*
X191368666Y-44512666D01*
X191368666Y-44446000D01*
X191402000Y-44346000D01*
X191435333Y-44312666D01*
X191602000Y-43712666D02*
X192068666Y-43712666D01*
X191335333Y-43879333D02*
X191835333Y-44046000D01*
X191835333Y-43612666D01*
X193052000Y-43262666D02*
X192652000Y-43262666D01*
X192852000Y-43262666D02*
X192852000Y-42562666D01*
X192785333Y-42662666D01*
X192718666Y-42729333D01*
X192652000Y-42762666D01*
X193485333Y-42562666D02*
X193552000Y-42562666D01*
X193618666Y-42596000D01*
X193652000Y-42629333D01*
X193685333Y-42696000D01*
X193718666Y-42829333D01*
X193718666Y-42996000D01*
X193685333Y-43129333D01*
X193652000Y-43196000D01*
X193618666Y-43229333D01*
X193552000Y-43262666D01*
X193485333Y-43262666D01*
X193418666Y-43229333D01*
X193385333Y-43196000D01*
X193352000Y-43129333D01*
X193318666Y-42996000D01*
X193318666Y-42829333D01*
X193352000Y-42696000D01*
X193385333Y-42629333D01*
X193418666Y-42596000D01*
X193485333Y-42562666D01*
X194018666Y-42796000D02*
X194018666Y-43262666D01*
X194018666Y-42862666D02*
X194052000Y-42829333D01*
X194118666Y-42796000D01*
X194218666Y-42796000D01*
X194285333Y-42829333D01*
X194318666Y-42896000D01*
X194318666Y-43262666D01*
X194885333Y-42896000D02*
X194652000Y-42896000D01*
X194652000Y-43262666D02*
X194652000Y-42562666D01*
X194985333Y-42562666D01*
%TO.C,C3*%
X192002000Y-41264666D02*
X192035333Y-41298000D01*
X192068666Y-41398000D01*
X192068666Y-41464666D01*
X192035333Y-41564666D01*
X191968666Y-41631333D01*
X191902000Y-41664666D01*
X191768666Y-41698000D01*
X191668666Y-41698000D01*
X191535333Y-41664666D01*
X191468666Y-41631333D01*
X191402000Y-41564666D01*
X191368666Y-41464666D01*
X191368666Y-41398000D01*
X191402000Y-41298000D01*
X191435333Y-41264666D01*
X191368666Y-41031333D02*
X191368666Y-40598000D01*
X191635333Y-40831333D01*
X191635333Y-40731333D01*
X191668666Y-40664666D01*
X191702000Y-40631333D01*
X191768666Y-40598000D01*
X191935333Y-40598000D01*
X192002000Y-40631333D01*
X192035333Y-40664666D01*
X192068666Y-40731333D01*
X192068666Y-40931333D01*
X192035333Y-40998000D01*
X192002000Y-41031333D01*
X193052000Y-40214666D02*
X192652000Y-40214666D01*
X192852000Y-40214666D02*
X192852000Y-39514666D01*
X192785333Y-39614666D01*
X192718666Y-39681333D01*
X192652000Y-39714666D01*
X193485333Y-39514666D02*
X193552000Y-39514666D01*
X193618666Y-39548000D01*
X193652000Y-39581333D01*
X193685333Y-39648000D01*
X193718666Y-39781333D01*
X193718666Y-39948000D01*
X193685333Y-40081333D01*
X193652000Y-40148000D01*
X193618666Y-40181333D01*
X193552000Y-40214666D01*
X193485333Y-40214666D01*
X193418666Y-40181333D01*
X193385333Y-40148000D01*
X193352000Y-40081333D01*
X193318666Y-39948000D01*
X193318666Y-39781333D01*
X193352000Y-39648000D01*
X193385333Y-39581333D01*
X193418666Y-39548000D01*
X193485333Y-39514666D01*
X194018666Y-39748000D02*
X194018666Y-40214666D01*
X194018666Y-39814666D02*
X194052000Y-39781333D01*
X194118666Y-39748000D01*
X194218666Y-39748000D01*
X194285333Y-39781333D01*
X194318666Y-39848000D01*
X194318666Y-40214666D01*
X194885333Y-39848000D02*
X194652000Y-39848000D01*
X194652000Y-40214666D02*
X194652000Y-39514666D01*
X194985333Y-39514666D01*
%TO.C,C2*%
X192002000Y-38216666D02*
X192035333Y-38250000D01*
X192068666Y-38350000D01*
X192068666Y-38416666D01*
X192035333Y-38516666D01*
X191968666Y-38583333D01*
X191902000Y-38616666D01*
X191768666Y-38650000D01*
X191668666Y-38650000D01*
X191535333Y-38616666D01*
X191468666Y-38583333D01*
X191402000Y-38516666D01*
X191368666Y-38416666D01*
X191368666Y-38350000D01*
X191402000Y-38250000D01*
X191435333Y-38216666D01*
X191435333Y-37950000D02*
X191402000Y-37916666D01*
X191368666Y-37850000D01*
X191368666Y-37683333D01*
X191402000Y-37616666D01*
X191435333Y-37583333D01*
X191502000Y-37550000D01*
X191568666Y-37550000D01*
X191668666Y-37583333D01*
X192068666Y-37983333D01*
X192068666Y-37550000D01*
X193052000Y-37166666D02*
X192652000Y-37166666D01*
X192852000Y-37166666D02*
X192852000Y-36466666D01*
X192785333Y-36566666D01*
X192718666Y-36633333D01*
X192652000Y-36666666D01*
X193485333Y-36466666D02*
X193552000Y-36466666D01*
X193618666Y-36500000D01*
X193652000Y-36533333D01*
X193685333Y-36600000D01*
X193718666Y-36733333D01*
X193718666Y-36900000D01*
X193685333Y-37033333D01*
X193652000Y-37100000D01*
X193618666Y-37133333D01*
X193552000Y-37166666D01*
X193485333Y-37166666D01*
X193418666Y-37133333D01*
X193385333Y-37100000D01*
X193352000Y-37033333D01*
X193318666Y-36900000D01*
X193318666Y-36733333D01*
X193352000Y-36600000D01*
X193385333Y-36533333D01*
X193418666Y-36500000D01*
X193485333Y-36466666D01*
X194018666Y-36700000D02*
X194018666Y-37166666D01*
X194018666Y-36766666D02*
X194052000Y-36733333D01*
X194118666Y-36700000D01*
X194218666Y-36700000D01*
X194285333Y-36733333D01*
X194318666Y-36800000D01*
X194318666Y-37166666D01*
X194885333Y-36800000D02*
X194652000Y-36800000D01*
X194652000Y-37166666D02*
X194652000Y-36466666D01*
X194985333Y-36466666D01*
%TO.C,C1*%
X192002000Y-35168666D02*
X192035333Y-35202000D01*
X192068666Y-35302000D01*
X192068666Y-35368666D01*
X192035333Y-35468666D01*
X191968666Y-35535333D01*
X191902000Y-35568666D01*
X191768666Y-35602000D01*
X191668666Y-35602000D01*
X191535333Y-35568666D01*
X191468666Y-35535333D01*
X191402000Y-35468666D01*
X191368666Y-35368666D01*
X191368666Y-35302000D01*
X191402000Y-35202000D01*
X191435333Y-35168666D01*
X192068666Y-34502000D02*
X192068666Y-34902000D01*
X192068666Y-34702000D02*
X191368666Y-34702000D01*
X191468666Y-34768666D01*
X191535333Y-34835333D01*
X191568666Y-34902000D01*
X193052000Y-34118666D02*
X192652000Y-34118666D01*
X192852000Y-34118666D02*
X192852000Y-33418666D01*
X192785333Y-33518666D01*
X192718666Y-33585333D01*
X192652000Y-33618666D01*
X193485333Y-33418666D02*
X193552000Y-33418666D01*
X193618666Y-33452000D01*
X193652000Y-33485333D01*
X193685333Y-33552000D01*
X193718666Y-33685333D01*
X193718666Y-33852000D01*
X193685333Y-33985333D01*
X193652000Y-34052000D01*
X193618666Y-34085333D01*
X193552000Y-34118666D01*
X193485333Y-34118666D01*
X193418666Y-34085333D01*
X193385333Y-34052000D01*
X193352000Y-33985333D01*
X193318666Y-33852000D01*
X193318666Y-33685333D01*
X193352000Y-33552000D01*
X193385333Y-33485333D01*
X193418666Y-33452000D01*
X193485333Y-33418666D01*
X194018666Y-33652000D02*
X194018666Y-34118666D01*
X194018666Y-33718666D02*
X194052000Y-33685333D01*
X194118666Y-33652000D01*
X194218666Y-33652000D01*
X194285333Y-33685333D01*
X194318666Y-33752000D01*
X194318666Y-34118666D01*
X194885333Y-33752000D02*
X194652000Y-33752000D01*
X194652000Y-34118666D02*
X194652000Y-33418666D01*
X194985333Y-33418666D01*
%TD*%
M02*
