M48
; DRILL file {KiCad (5.1.10)-1} date 10/28/21 11:13:59
; FORMAT={-:-/ absolute / inch / decimal}
; #@! TF.CreationDate,2021-10-28T11:13:59+08:00
; #@! TF.GenerationSoftware,Kicad,Pcbnew,(5.1.10)-1
; #@! TF.FileFunction,NonPlated,1,2,NPTH
FMAT,2
INCH
T1C0.0591
T2C0.0689
T3C0.0787
T4C0.1200
T5C0.1570
%
G90
G05
T2
X3.8312Y-2.9062
X3.8312Y-3.6562
X3.8312Y-4.4062
X3.8312Y-5.1562
X4.2062Y-5.9062
X4.2313Y-2.9062
X4.2313Y-3.6562
X4.2313Y-4.4062
X4.2313Y-5.1562
X4.5812Y-2.9062
X4.5812Y-3.6562
X4.5812Y-4.4062
X4.5812Y-5.1562
X4.6063Y-5.9062
X4.9813Y-2.9062
X4.9813Y-3.6562
X4.9813Y-4.4062
X4.9813Y-5.1562
X5.3312Y-2.9062
X5.3312Y-3.6562
X5.3312Y-4.4062
X5.3312Y-5.1562
X5.3312Y-5.9062
X5.7313Y-2.9062
X5.7313Y-3.6562
X5.7313Y-4.4062
X5.7313Y-5.1562
X5.7313Y-5.9062
X6.0812Y-2.9062
X6.2812Y-3.8312
X6.2812Y-4.2313
X6.2812Y-5.3312
X6.2812Y-5.7313
X6.4813Y-2.9062
T3
X3.6875Y-6.25
X3.75Y-2.375
X5.1562Y-3.2812
X5.1562Y-4.7812
X5.4Y-1.47
X7.25Y-4.125
X7.6875Y-2.375
X7.75Y-6.25
T4
X3.9362Y-5.6312
X4.8762Y-5.6312
X6.0062Y-3.5612
X6.0062Y-4.5012
X6.0062Y-5.0613
X6.0062Y-6.0012
T5
X3.9362Y-6.2313
X4.0312Y-2.9062
X4.0312Y-3.6562
X4.0312Y-4.4062
X4.0312Y-5.1562
X4.4062Y-5.9062
X4.7812Y-2.9062
X4.7812Y-3.6562
X4.7812Y-4.4062
X4.7812Y-5.1562
X4.8762Y-6.2313
X5.5312Y-2.9062
X5.5312Y-3.6562
X5.5312Y-4.4062
X5.5312Y-5.1562
X5.5312Y-5.9062
X6.2812Y-2.9062
X6.2812Y-4.0312
X6.2812Y-5.5312
X6.6063Y-3.5612
X6.6063Y-4.5012
X6.6063Y-5.0613
X6.6063Y-6.0012
T1
G00X7.2244Y-3.4045
M15
G01X7.2756Y-3.4045
M16
G05
G00X7.2244Y-3.8455
M15
G01X7.2756Y-3.8455
M16
G05
G00X7.2244Y-4.4045
M15
G01X7.2756Y-4.4045
M16
G05
G00X7.2244Y-4.8455
M15
G01X7.2756Y-4.8455
M16
G05
G00X7.2244Y-5.4045
M15
G01X7.2756Y-5.4045
M16
G05
G00X7.2244Y-5.8455
M15
G01X7.2756Y-5.8455
M16
G05
T0
M30
