%TF.GenerationSoftware,KiCad,Pcbnew,(5.1.10)-1*%
%TF.CreationDate,2021-10-28T11:13:53+08:00*%
%TF.ProjectId,EGPad,45475061-642e-46b6-9963-61645f706362,rev?*%
%TF.SameCoordinates,Original*%
%TF.FileFunction,Soldermask,Bot*%
%TF.FilePolarity,Negative*%
%FSLAX46Y46*%
G04 Gerber Fmt 4.6, Leading zero omitted, Abs format (unit mm)*
G04 Created by KiCad (PCBNEW (5.1.10)-1) date 2021-10-28 11:13:53*
%MOMM*%
%LPD*%
G01*
G04 APERTURE LIST*
%ADD10C,1.750000*%
%ADD11C,2.250000*%
%ADD12C,3.987800*%
%ADD13C,1.905000*%
%ADD14R,1.905000X1.905000*%
%ADD15C,3.048000*%
%ADD16R,1.600000X1.600000*%
%ADD17O,1.600000X1.600000*%
%ADD18C,1.752600*%
%ADD19R,1.752600X1.752600*%
%ADD20C,2.000000*%
%ADD21R,3.200000X2.000000*%
%ADD22R,2.000000X2.000000*%
%ADD23C,1.651000*%
G04 APERTURE END LIST*
D10*
%TO.C,MX15*%
X164623750Y-73818750D03*
X154463750Y-73818750D03*
D11*
X157043750Y-69818750D03*
D12*
X159543750Y-73818750D03*
G36*
G01*
X154980978Y-72114788D02*
X154980978Y-72114788D01*
G75*
G02*
X154897712Y-70525978I752772J836038D01*
G01*
X156210250Y-69068258D01*
G75*
G02*
X157799060Y-68984992I836038J-752772D01*
G01*
X157799060Y-68984992D01*
G75*
G02*
X157882326Y-70573802I-752772J-836038D01*
G01*
X156569788Y-72031522D01*
G75*
G02*
X154980978Y-72114788I-836038J752772D01*
G01*
G37*
D11*
X162083750Y-68738750D03*
G36*
G01*
X161965274Y-70441010D02*
X161965274Y-70441010D01*
G75*
G02*
X160921490Y-69240274I78476J1122260D01*
G01*
X160962044Y-68660312D01*
G75*
G02*
X162162780Y-67616528I1122260J-78476D01*
G01*
X162162780Y-67616528D01*
G75*
G02*
X163206564Y-68817264I-78476J-1122260D01*
G01*
X163166010Y-69397226D01*
G75*
G02*
X161965274Y-70441010I-1122260J78476D01*
G01*
G37*
%TD*%
%TO.C,MX5*%
G36*
G01*
X114340274Y-146641010D02*
X114340274Y-146641010D01*
G75*
G02*
X113296490Y-145440274I78476J1122260D01*
G01*
X113337044Y-144860312D01*
G75*
G02*
X114537780Y-143816528I1122260J-78476D01*
G01*
X114537780Y-143816528D01*
G75*
G02*
X115581564Y-145017264I-78476J-1122260D01*
G01*
X115541010Y-145597226D01*
G75*
G02*
X114340274Y-146641010I-1122260J78476D01*
G01*
G37*
X114458750Y-144938750D03*
G36*
G01*
X107355978Y-148314788D02*
X107355978Y-148314788D01*
G75*
G02*
X107272712Y-146725978I752772J836038D01*
G01*
X108585250Y-145268258D01*
G75*
G02*
X110174060Y-145184992I836038J-752772D01*
G01*
X110174060Y-145184992D01*
G75*
G02*
X110257326Y-146773802I-752772J-836038D01*
G01*
X108944788Y-148231522D01*
G75*
G02*
X107355978Y-148314788I-836038J752772D01*
G01*
G37*
D12*
X111918750Y-150018750D03*
D11*
X109418750Y-146018750D03*
D13*
X110648750Y-155098750D03*
D14*
X113188750Y-155098750D03*
D10*
X106838750Y-150018750D03*
X116998750Y-150018750D03*
D15*
X99980750Y-143033750D03*
X123856750Y-143033750D03*
D12*
X99980750Y-158273750D03*
X123856750Y-158273750D03*
%TD*%
%TO.C,MX17*%
G36*
G01*
X156166010Y-138072226D02*
X156166010Y-138072226D01*
G75*
G02*
X154965274Y-139116010I-1122260J78476D01*
G01*
X154385312Y-139075456D01*
G75*
G02*
X153341528Y-137874720I78476J1122260D01*
G01*
X153341528Y-137874720D01*
G75*
G02*
X154542264Y-136830936I1122260J-78476D01*
G01*
X155122226Y-136871490D01*
G75*
G02*
X156166010Y-138072226I-78476J-1122260D01*
G01*
G37*
D11*
X154463750Y-137953750D03*
G36*
G01*
X157839788Y-145056522D02*
X157839788Y-145056522D01*
G75*
G02*
X156250978Y-145139788I-836038J752772D01*
G01*
X154793258Y-143827250D01*
G75*
G02*
X154709992Y-142238440I752772J836038D01*
G01*
X154709992Y-142238440D01*
G75*
G02*
X156298802Y-142155174I836038J-752772D01*
G01*
X157756522Y-143467712D01*
G75*
G02*
X157839788Y-145056522I-752772J-836038D01*
G01*
G37*
D12*
X159543750Y-140493750D03*
D11*
X155543750Y-142993750D03*
D13*
X164623750Y-141763750D03*
D14*
X164623750Y-139223750D03*
D10*
X159543750Y-145573750D03*
X159543750Y-135413750D03*
D15*
X152558750Y-152431750D03*
X152558750Y-128555750D03*
D12*
X167798750Y-152431750D03*
X167798750Y-128555750D03*
%TD*%
%TO.C,MX16*%
G36*
G01*
X156166010Y-99972226D02*
X156166010Y-99972226D01*
G75*
G02*
X154965274Y-101016010I-1122260J78476D01*
G01*
X154385312Y-100975456D01*
G75*
G02*
X153341528Y-99774720I78476J1122260D01*
G01*
X153341528Y-99774720D01*
G75*
G02*
X154542264Y-98730936I1122260J-78476D01*
G01*
X155122226Y-98771490D01*
G75*
G02*
X156166010Y-99972226I-78476J-1122260D01*
G01*
G37*
D11*
X154463750Y-99853750D03*
G36*
G01*
X157839788Y-106956522D02*
X157839788Y-106956522D01*
G75*
G02*
X156250978Y-107039788I-836038J752772D01*
G01*
X154793258Y-105727250D01*
G75*
G02*
X154709992Y-104138440I752772J836038D01*
G01*
X154709992Y-104138440D01*
G75*
G02*
X156298802Y-104055174I836038J-752772D01*
G01*
X157756522Y-105367712D01*
G75*
G02*
X157839788Y-106956522I-752772J-836038D01*
G01*
G37*
D12*
X159543750Y-102393750D03*
D11*
X155543750Y-104893750D03*
D13*
X164623750Y-103663750D03*
D14*
X164623750Y-101123750D03*
D10*
X159543750Y-107473750D03*
X159543750Y-97313750D03*
D15*
X152558750Y-114331750D03*
X152558750Y-90455750D03*
D12*
X167798750Y-114331750D03*
X167798750Y-90455750D03*
%TD*%
D10*
%TO.C,MX11*%
X145573750Y-73818750D03*
X135413750Y-73818750D03*
D11*
X137993750Y-69818750D03*
D12*
X140493750Y-73818750D03*
G36*
G01*
X135930978Y-72114788D02*
X135930978Y-72114788D01*
G75*
G02*
X135847712Y-70525978I752772J836038D01*
G01*
X137160250Y-69068258D01*
G75*
G02*
X138749060Y-68984992I836038J-752772D01*
G01*
X138749060Y-68984992D01*
G75*
G02*
X138832326Y-70573802I-752772J-836038D01*
G01*
X137519788Y-72031522D01*
G75*
G02*
X135930978Y-72114788I-836038J752772D01*
G01*
G37*
D11*
X143033750Y-68738750D03*
G36*
G01*
X142915274Y-70441010D02*
X142915274Y-70441010D01*
G75*
G02*
X141871490Y-69240274I78476J1122260D01*
G01*
X141912044Y-68660312D01*
G75*
G02*
X143112780Y-67616528I1122260J-78476D01*
G01*
X143112780Y-67616528D01*
G75*
G02*
X144156564Y-68817264I-78476J-1122260D01*
G01*
X144116010Y-69397226D01*
G75*
G02*
X142915274Y-70441010I-1122260J78476D01*
G01*
G37*
%TD*%
D10*
%TO.C,MX8*%
X126523750Y-111918750D03*
X116363750Y-111918750D03*
D11*
X118943750Y-107918750D03*
D12*
X121443750Y-111918750D03*
G36*
G01*
X116880978Y-110214788D02*
X116880978Y-110214788D01*
G75*
G02*
X116797712Y-108625978I752772J836038D01*
G01*
X118110250Y-107168258D01*
G75*
G02*
X119699060Y-107084992I836038J-752772D01*
G01*
X119699060Y-107084992D01*
G75*
G02*
X119782326Y-108673802I-752772J-836038D01*
G01*
X118469788Y-110131522D01*
G75*
G02*
X116880978Y-110214788I-836038J752772D01*
G01*
G37*
D11*
X123983750Y-106838750D03*
G36*
G01*
X123865274Y-108541010D02*
X123865274Y-108541010D01*
G75*
G02*
X122821490Y-107340274I78476J1122260D01*
G01*
X122862044Y-106760312D01*
G75*
G02*
X124062780Y-105716528I1122260J-78476D01*
G01*
X124062780Y-105716528D01*
G75*
G02*
X125106564Y-106917264I-78476J-1122260D01*
G01*
X125066010Y-107497226D01*
G75*
G02*
X123865274Y-108541010I-1122260J78476D01*
G01*
G37*
%TD*%
D10*
%TO.C,MX4*%
X107473750Y-130968750D03*
X97313750Y-130968750D03*
D11*
X99893750Y-126968750D03*
D12*
X102393750Y-130968750D03*
G36*
G01*
X97830978Y-129264788D02*
X97830978Y-129264788D01*
G75*
G02*
X97747712Y-127675978I752772J836038D01*
G01*
X99060250Y-126218258D01*
G75*
G02*
X100649060Y-126134992I836038J-752772D01*
G01*
X100649060Y-126134992D01*
G75*
G02*
X100732326Y-127723802I-752772J-836038D01*
G01*
X99419788Y-129181522D01*
G75*
G02*
X97830978Y-129264788I-836038J752772D01*
G01*
G37*
D11*
X104933750Y-125888750D03*
G36*
G01*
X104815274Y-127591010D02*
X104815274Y-127591010D01*
G75*
G02*
X103771490Y-126390274I78476J1122260D01*
G01*
X103812044Y-125810312D01*
G75*
G02*
X105012780Y-124766528I1122260J-78476D01*
G01*
X105012780Y-124766528D01*
G75*
G02*
X106056564Y-125967264I-78476J-1122260D01*
G01*
X106016010Y-126547226D01*
G75*
G02*
X104815274Y-127591010I-1122260J78476D01*
G01*
G37*
%TD*%
D10*
%TO.C,MX14*%
X145573750Y-130968750D03*
X135413750Y-130968750D03*
D11*
X137993750Y-126968750D03*
D12*
X140493750Y-130968750D03*
G36*
G01*
X135930978Y-129264788D02*
X135930978Y-129264788D01*
G75*
G02*
X135847712Y-127675978I752772J836038D01*
G01*
X137160250Y-126218258D01*
G75*
G02*
X138749060Y-126134992I836038J-752772D01*
G01*
X138749060Y-126134992D01*
G75*
G02*
X138832326Y-127723802I-752772J-836038D01*
G01*
X137519788Y-129181522D01*
G75*
G02*
X135930978Y-129264788I-836038J752772D01*
G01*
G37*
D11*
X143033750Y-125888750D03*
G36*
G01*
X142915274Y-127591010D02*
X142915274Y-127591010D01*
G75*
G02*
X141871490Y-126390274I78476J1122260D01*
G01*
X141912044Y-125810312D01*
G75*
G02*
X143112780Y-124766528I1122260J-78476D01*
G01*
X143112780Y-124766528D01*
G75*
G02*
X144156564Y-125967264I-78476J-1122260D01*
G01*
X144116010Y-126547226D01*
G75*
G02*
X142915274Y-127591010I-1122260J78476D01*
G01*
G37*
%TD*%
D10*
%TO.C,MX13*%
X145573750Y-111918750D03*
X135413750Y-111918750D03*
D11*
X137993750Y-107918750D03*
D12*
X140493750Y-111918750D03*
G36*
G01*
X135930978Y-110214788D02*
X135930978Y-110214788D01*
G75*
G02*
X135847712Y-108625978I752772J836038D01*
G01*
X137160250Y-107168258D01*
G75*
G02*
X138749060Y-107084992I836038J-752772D01*
G01*
X138749060Y-107084992D01*
G75*
G02*
X138832326Y-108673802I-752772J-836038D01*
G01*
X137519788Y-110131522D01*
G75*
G02*
X135930978Y-110214788I-836038J752772D01*
G01*
G37*
D11*
X143033750Y-106838750D03*
G36*
G01*
X142915274Y-108541010D02*
X142915274Y-108541010D01*
G75*
G02*
X141871490Y-107340274I78476J1122260D01*
G01*
X141912044Y-106760312D01*
G75*
G02*
X143112780Y-105716528I1122260J-78476D01*
G01*
X143112780Y-105716528D01*
G75*
G02*
X144156564Y-106917264I-78476J-1122260D01*
G01*
X144116010Y-107497226D01*
G75*
G02*
X142915274Y-108541010I-1122260J78476D01*
G01*
G37*
%TD*%
D10*
%TO.C,MX12*%
X145573750Y-92868750D03*
X135413750Y-92868750D03*
D11*
X137993750Y-88868750D03*
D12*
X140493750Y-92868750D03*
G36*
G01*
X135930978Y-91164788D02*
X135930978Y-91164788D01*
G75*
G02*
X135847712Y-89575978I752772J836038D01*
G01*
X137160250Y-88118258D01*
G75*
G02*
X138749060Y-88034992I836038J-752772D01*
G01*
X138749060Y-88034992D01*
G75*
G02*
X138832326Y-89623802I-752772J-836038D01*
G01*
X137519788Y-91081522D01*
G75*
G02*
X135930978Y-91164788I-836038J752772D01*
G01*
G37*
D11*
X143033750Y-87788750D03*
G36*
G01*
X142915274Y-89491010D02*
X142915274Y-89491010D01*
G75*
G02*
X141871490Y-88290274I78476J1122260D01*
G01*
X141912044Y-87710312D01*
G75*
G02*
X143112780Y-86666528I1122260J-78476D01*
G01*
X143112780Y-86666528D01*
G75*
G02*
X144156564Y-87867264I-78476J-1122260D01*
G01*
X144116010Y-88447226D01*
G75*
G02*
X142915274Y-89491010I-1122260J78476D01*
G01*
G37*
%TD*%
D10*
%TO.C,MX10*%
X145573750Y-150018750D03*
X135413750Y-150018750D03*
D11*
X137993750Y-146018750D03*
D12*
X140493750Y-150018750D03*
G36*
G01*
X135930978Y-148314788D02*
X135930978Y-148314788D01*
G75*
G02*
X135847712Y-146725978I752772J836038D01*
G01*
X137160250Y-145268258D01*
G75*
G02*
X138749060Y-145184992I836038J-752772D01*
G01*
X138749060Y-145184992D01*
G75*
G02*
X138832326Y-146773802I-752772J-836038D01*
G01*
X137519788Y-148231522D01*
G75*
G02*
X135930978Y-148314788I-836038J752772D01*
G01*
G37*
D11*
X143033750Y-144938750D03*
G36*
G01*
X142915274Y-146641010D02*
X142915274Y-146641010D01*
G75*
G02*
X141871490Y-145440274I78476J1122260D01*
G01*
X141912044Y-144860312D01*
G75*
G02*
X143112780Y-143816528I1122260J-78476D01*
G01*
X143112780Y-143816528D01*
G75*
G02*
X144156564Y-145017264I-78476J-1122260D01*
G01*
X144116010Y-145597226D01*
G75*
G02*
X142915274Y-146641010I-1122260J78476D01*
G01*
G37*
%TD*%
D10*
%TO.C,MX9*%
X126523750Y-130968750D03*
X116363750Y-130968750D03*
D11*
X118943750Y-126968750D03*
D12*
X121443750Y-130968750D03*
G36*
G01*
X116880978Y-129264788D02*
X116880978Y-129264788D01*
G75*
G02*
X116797712Y-127675978I752772J836038D01*
G01*
X118110250Y-126218258D01*
G75*
G02*
X119699060Y-126134992I836038J-752772D01*
G01*
X119699060Y-126134992D01*
G75*
G02*
X119782326Y-127723802I-752772J-836038D01*
G01*
X118469788Y-129181522D01*
G75*
G02*
X116880978Y-129264788I-836038J752772D01*
G01*
G37*
D11*
X123983750Y-125888750D03*
G36*
G01*
X123865274Y-127591010D02*
X123865274Y-127591010D01*
G75*
G02*
X122821490Y-126390274I78476J1122260D01*
G01*
X122862044Y-125810312D01*
G75*
G02*
X124062780Y-124766528I1122260J-78476D01*
G01*
X124062780Y-124766528D01*
G75*
G02*
X125106564Y-125967264I-78476J-1122260D01*
G01*
X125066010Y-126547226D01*
G75*
G02*
X123865274Y-127591010I-1122260J78476D01*
G01*
G37*
%TD*%
D10*
%TO.C,MX7*%
X126523750Y-92868750D03*
X116363750Y-92868750D03*
D11*
X118943750Y-88868750D03*
D12*
X121443750Y-92868750D03*
G36*
G01*
X116880978Y-91164788D02*
X116880978Y-91164788D01*
G75*
G02*
X116797712Y-89575978I752772J836038D01*
G01*
X118110250Y-88118258D01*
G75*
G02*
X119699060Y-88034992I836038J-752772D01*
G01*
X119699060Y-88034992D01*
G75*
G02*
X119782326Y-89623802I-752772J-836038D01*
G01*
X118469788Y-91081522D01*
G75*
G02*
X116880978Y-91164788I-836038J752772D01*
G01*
G37*
D11*
X123983750Y-87788750D03*
G36*
G01*
X123865274Y-89491010D02*
X123865274Y-89491010D01*
G75*
G02*
X122821490Y-88290274I78476J1122260D01*
G01*
X122862044Y-87710312D01*
G75*
G02*
X124062780Y-86666528I1122260J-78476D01*
G01*
X124062780Y-86666528D01*
G75*
G02*
X125106564Y-87867264I-78476J-1122260D01*
G01*
X125066010Y-88447226D01*
G75*
G02*
X123865274Y-89491010I-1122260J78476D01*
G01*
G37*
%TD*%
D10*
%TO.C,MX6*%
X126523750Y-73818750D03*
X116363750Y-73818750D03*
D11*
X118943750Y-69818750D03*
D12*
X121443750Y-73818750D03*
G36*
G01*
X116880978Y-72114788D02*
X116880978Y-72114788D01*
G75*
G02*
X116797712Y-70525978I752772J836038D01*
G01*
X118110250Y-69068258D01*
G75*
G02*
X119699060Y-68984992I836038J-752772D01*
G01*
X119699060Y-68984992D01*
G75*
G02*
X119782326Y-70573802I-752772J-836038D01*
G01*
X118469788Y-72031522D01*
G75*
G02*
X116880978Y-72114788I-836038J752772D01*
G01*
G37*
D11*
X123983750Y-68738750D03*
G36*
G01*
X123865274Y-70441010D02*
X123865274Y-70441010D01*
G75*
G02*
X122821490Y-69240274I78476J1122260D01*
G01*
X122862044Y-68660312D01*
G75*
G02*
X124062780Y-67616528I1122260J-78476D01*
G01*
X124062780Y-67616528D01*
G75*
G02*
X125106564Y-68817264I-78476J-1122260D01*
G01*
X125066010Y-69397226D01*
G75*
G02*
X123865274Y-70441010I-1122260J78476D01*
G01*
G37*
%TD*%
D10*
%TO.C,MX3*%
X107473750Y-111918750D03*
X97313750Y-111918750D03*
D11*
X99893750Y-107918750D03*
D12*
X102393750Y-111918750D03*
G36*
G01*
X97830978Y-110214788D02*
X97830978Y-110214788D01*
G75*
G02*
X97747712Y-108625978I752772J836038D01*
G01*
X99060250Y-107168258D01*
G75*
G02*
X100649060Y-107084992I836038J-752772D01*
G01*
X100649060Y-107084992D01*
G75*
G02*
X100732326Y-108673802I-752772J-836038D01*
G01*
X99419788Y-110131522D01*
G75*
G02*
X97830978Y-110214788I-836038J752772D01*
G01*
G37*
D11*
X104933750Y-106838750D03*
G36*
G01*
X104815274Y-108541010D02*
X104815274Y-108541010D01*
G75*
G02*
X103771490Y-107340274I78476J1122260D01*
G01*
X103812044Y-106760312D01*
G75*
G02*
X105012780Y-105716528I1122260J-78476D01*
G01*
X105012780Y-105716528D01*
G75*
G02*
X106056564Y-106917264I-78476J-1122260D01*
G01*
X106016010Y-107497226D01*
G75*
G02*
X104815274Y-108541010I-1122260J78476D01*
G01*
G37*
%TD*%
D10*
%TO.C,MX2*%
X107473750Y-92868750D03*
X97313750Y-92868750D03*
D11*
X99893750Y-88868750D03*
D12*
X102393750Y-92868750D03*
G36*
G01*
X97830978Y-91164788D02*
X97830978Y-91164788D01*
G75*
G02*
X97747712Y-89575978I752772J836038D01*
G01*
X99060250Y-88118258D01*
G75*
G02*
X100649060Y-88034992I836038J-752772D01*
G01*
X100649060Y-88034992D01*
G75*
G02*
X100732326Y-89623802I-752772J-836038D01*
G01*
X99419788Y-91081522D01*
G75*
G02*
X97830978Y-91164788I-836038J752772D01*
G01*
G37*
D11*
X104933750Y-87788750D03*
G36*
G01*
X104815274Y-89491010D02*
X104815274Y-89491010D01*
G75*
G02*
X103771490Y-88290274I78476J1122260D01*
G01*
X103812044Y-87710312D01*
G75*
G02*
X105012780Y-86666528I1122260J-78476D01*
G01*
X105012780Y-86666528D01*
G75*
G02*
X106056564Y-87867264I-78476J-1122260D01*
G01*
X106016010Y-88447226D01*
G75*
G02*
X104815274Y-89491010I-1122260J78476D01*
G01*
G37*
%TD*%
D10*
%TO.C,MX1*%
X107473750Y-73818750D03*
X97313750Y-73818750D03*
D11*
X99893750Y-69818750D03*
D12*
X102393750Y-73818750D03*
G36*
G01*
X97830978Y-72114788D02*
X97830978Y-72114788D01*
G75*
G02*
X97747712Y-70525978I752772J836038D01*
G01*
X99060250Y-69068258D01*
G75*
G02*
X100649060Y-68984992I836038J-752772D01*
G01*
X100649060Y-68984992D01*
G75*
G02*
X100732326Y-70573802I-752772J-836038D01*
G01*
X99419788Y-72031522D01*
G75*
G02*
X97830978Y-72114788I-836038J752772D01*
G01*
G37*
D11*
X104933750Y-68738750D03*
G36*
G01*
X104815274Y-70441010D02*
X104815274Y-70441010D01*
G75*
G02*
X103771490Y-69240274I78476J1122260D01*
G01*
X103812044Y-68660312D01*
G75*
G02*
X105012780Y-67616528I1122260J-78476D01*
G01*
X105012780Y-67616528D01*
G75*
G02*
X106056564Y-68817264I-78476J-1122260D01*
G01*
X106016010Y-69397226D01*
G75*
G02*
X104815274Y-70441010I-1122260J78476D01*
G01*
G37*
%TD*%
D16*
%TO.C,D20*%
X172466000Y-34290000D03*
D17*
X172466000Y-39370000D03*
%TD*%
D16*
%TO.C,D19*%
X172466000Y-48006000D03*
D17*
X172466000Y-53086000D03*
%TD*%
D16*
%TO.C,D18*%
X169164000Y-48006000D03*
D17*
X169164000Y-53086000D03*
%TD*%
D16*
%TO.C,D17*%
X159258000Y-48006000D03*
D17*
X159258000Y-53086000D03*
%TD*%
D16*
%TO.C,D16*%
X162560000Y-48006000D03*
D17*
X162560000Y-53086000D03*
%TD*%
D16*
%TO.C,D15*%
X165862000Y-48006000D03*
D17*
X165862000Y-53086000D03*
%TD*%
%TO.C,D14*%
X152654000Y-53086000D03*
D16*
X152654000Y-48006000D03*
%TD*%
%TO.C,D13*%
X149352000Y-48006000D03*
D17*
X149352000Y-53086000D03*
%TD*%
D16*
%TO.C,D12*%
X146050000Y-48006000D03*
D17*
X146050000Y-53086000D03*
%TD*%
D16*
%TO.C,D11*%
X142748000Y-48006000D03*
D17*
X142748000Y-53086000D03*
%TD*%
D16*
%TO.C,D10*%
X155956000Y-48006000D03*
D17*
X155956000Y-53086000D03*
%TD*%
D16*
%TO.C,D9*%
X159258000Y-34290000D03*
D17*
X159258000Y-39370000D03*
%TD*%
D16*
%TO.C,D8*%
X162560000Y-34290000D03*
D17*
X162560000Y-39370000D03*
%TD*%
D16*
%TO.C,D7*%
X165862000Y-34290000D03*
D17*
X165862000Y-39370000D03*
%TD*%
D16*
%TO.C,D6*%
X169164000Y-34290000D03*
D17*
X169164000Y-39370000D03*
%TD*%
D16*
%TO.C,D5*%
X155956000Y-34290000D03*
D17*
X155956000Y-39370000D03*
%TD*%
D16*
%TO.C,D4*%
X152654000Y-34290000D03*
D17*
X152654000Y-39370000D03*
%TD*%
D16*
%TO.C,D3*%
X149352000Y-34290000D03*
D17*
X149352000Y-39370000D03*
%TD*%
D16*
%TO.C,D2*%
X146050000Y-34290000D03*
D17*
X146050000Y-39370000D03*
%TD*%
D16*
%TO.C,D1*%
X142748000Y-34290000D03*
D17*
X142748000Y-39370000D03*
%TD*%
D18*
%TO.C,U1*%
X103033610Y-35040202D03*
X130973610Y-55280202D03*
X105573610Y-35040202D03*
X108113610Y-35040202D03*
X110653610Y-35040202D03*
X113193610Y-35040202D03*
X115733610Y-35040202D03*
X118273610Y-35040202D03*
X120813610Y-35040202D03*
X123353610Y-35040202D03*
X125893610Y-35040202D03*
X128433610Y-35040202D03*
X130973610Y-35040202D03*
X128433610Y-55280202D03*
X125893610Y-55280202D03*
X123353610Y-55280202D03*
X120813610Y-55280202D03*
X118273610Y-55280202D03*
X115733610Y-55280202D03*
X113193610Y-55280202D03*
X110653610Y-55280202D03*
X108113610Y-55280202D03*
X105573610Y-55280202D03*
D19*
X103033610Y-55280202D03*
%TD*%
D20*
%TO.C,M2*%
X137160000Y-37338000D03*
%TD*%
%TO.C,M2*%
X184150000Y-104775000D03*
%TD*%
%TO.C,M2*%
X130968750Y-121443750D03*
%TD*%
%TO.C,M2*%
X130968750Y-83343750D03*
%TD*%
%TO.C,M2*%
X93662500Y-158750000D03*
%TD*%
%TO.C,M2*%
X196850000Y-158750000D03*
%TD*%
%TO.C,M2*%
X195262500Y-60325000D03*
%TD*%
%TO.C,M2*%
X95250000Y-60325000D03*
%TD*%
%TO.C,SW3*%
X191150000Y-145375000D03*
X191150000Y-140375000D03*
D21*
X184150000Y-148475000D03*
X184150000Y-137275000D03*
D20*
X176650000Y-145375000D03*
X176650000Y-142875000D03*
D22*
X176650000Y-140375000D03*
%TD*%
D20*
%TO.C,SW2*%
X191150000Y-119975000D03*
X191150000Y-114975000D03*
D21*
X184150000Y-123075000D03*
X184150000Y-111875000D03*
D20*
X176650000Y-119975000D03*
X176650000Y-117475000D03*
D22*
X176650000Y-114975000D03*
%TD*%
D20*
%TO.C,SW1*%
X191150000Y-94575000D03*
X191150000Y-89575000D03*
D21*
X184150000Y-97675000D03*
X184150000Y-86475000D03*
D20*
X176650000Y-94575000D03*
X176650000Y-92075000D03*
D22*
X176650000Y-89575000D03*
%TD*%
D23*
%TO.C,R12*%
X189293500Y-53340000D03*
X179133500Y-53340000D03*
%TD*%
%TO.C,R11*%
X189293500Y-56515000D03*
X179133500Y-56515000D03*
%TD*%
%TO.C,R10*%
X189293500Y-59690000D03*
X179133500Y-59690000D03*
%TD*%
%TO.C,R9*%
X189293500Y-62865000D03*
X179133500Y-62865000D03*
%TD*%
%TO.C,R8*%
X189293500Y-66040000D03*
X179133500Y-66040000D03*
%TD*%
%TO.C,R7*%
X189293500Y-69215000D03*
X179133500Y-69215000D03*
%TD*%
%TO.C,R6*%
X189230000Y-50292000D03*
X179070000Y-50292000D03*
%TD*%
%TO.C,R5*%
X189230000Y-47244000D03*
X179070000Y-47244000D03*
%TD*%
%TO.C,R4*%
X189230000Y-44196000D03*
X179070000Y-44196000D03*
%TD*%
%TO.C,R3*%
X189230000Y-41148000D03*
X179070000Y-41148000D03*
%TD*%
%TO.C,R2*%
X189230000Y-38100000D03*
X179070000Y-38100000D03*
%TD*%
%TO.C,R1*%
X189230000Y-35052000D03*
X179070000Y-35052000D03*
%TD*%
M02*
