%TF.GenerationSoftware,KiCad,Pcbnew,(5.1.10)-1*%
%TF.CreationDate,2021-10-28T11:13:53+08:00*%
%TF.ProjectId,EGPad,45475061-642e-46b6-9963-61645f706362,rev?*%
%TF.SameCoordinates,Original*%
%TF.FileFunction,Copper,L1,Top*%
%TF.FilePolarity,Positive*%
%FSLAX46Y46*%
G04 Gerber Fmt 4.6, Leading zero omitted, Abs format (unit mm)*
G04 Created by KiCad (PCBNEW (5.1.10)-1) date 2021-10-28 11:13:53*
%MOMM*%
%LPD*%
G01*
G04 APERTURE LIST*
%TA.AperFunction,ComponentPad*%
%ADD10C,2.250000*%
%TD*%
%TA.AperFunction,ComponentPad*%
%ADD11C,1.905000*%
%TD*%
%TA.AperFunction,ComponentPad*%
%ADD12R,1.905000X1.905000*%
%TD*%
%TA.AperFunction,ComponentPad*%
%ADD13R,1.600000X1.600000*%
%TD*%
%TA.AperFunction,ComponentPad*%
%ADD14O,1.600000X1.600000*%
%TD*%
%TA.AperFunction,ComponentPad*%
%ADD15C,1.752600*%
%TD*%
%TA.AperFunction,ComponentPad*%
%ADD16R,1.752600X1.752600*%
%TD*%
%TA.AperFunction,ComponentPad*%
%ADD17C,2.000000*%
%TD*%
%TA.AperFunction,WasherPad*%
%ADD18R,3.200000X2.000000*%
%TD*%
%TA.AperFunction,ComponentPad*%
%ADD19R,2.000000X2.000000*%
%TD*%
%TA.AperFunction,ComponentPad*%
%ADD20C,1.651000*%
%TD*%
%TA.AperFunction,SMDPad,CuDef*%
%ADD21R,0.800000X0.750000*%
%TD*%
%TA.AperFunction,ViaPad*%
%ADD22C,0.800000*%
%TD*%
%TA.AperFunction,Conductor*%
%ADD23C,0.254000*%
%TD*%
%TA.AperFunction,Conductor*%
%ADD24C,0.381000*%
%TD*%
G04 APERTURE END LIST*
D10*
%TO.P,MX15,2*%
%TO.N,Net-(D15-Pad2)*%
X157043750Y-69818750D03*
%TA.AperFunction,ComponentPad*%
G36*
G01*
X154980978Y-72114788D02*
X154980978Y-72114788D01*
G75*
G02*
X154897712Y-70525978I752772J836038D01*
G01*
X156210250Y-69068258D01*
G75*
G02*
X157799060Y-68984992I836038J-752772D01*
G01*
X157799060Y-68984992D01*
G75*
G02*
X157882326Y-70573802I-752772J-836038D01*
G01*
X156569788Y-72031522D01*
G75*
G02*
X154980978Y-72114788I-836038J752772D01*
G01*
G37*
%TD.AperFunction*%
%TO.P,MX15,1*%
%TO.N,COL4*%
X162083750Y-68738750D03*
%TA.AperFunction,ComponentPad*%
G36*
G01*
X161965274Y-70441010D02*
X161965274Y-70441010D01*
G75*
G02*
X160921490Y-69240274I78476J1122260D01*
G01*
X160962044Y-68660312D01*
G75*
G02*
X162162780Y-67616528I1122260J-78476D01*
G01*
X162162780Y-67616528D01*
G75*
G02*
X163206564Y-68817264I-78476J-1122260D01*
G01*
X163166010Y-69397226D01*
G75*
G02*
X161965274Y-70441010I-1122260J78476D01*
G01*
G37*
%TD.AperFunction*%
%TD*%
%TO.P,MX5,1*%
%TO.N,COL1*%
%TA.AperFunction,ComponentPad*%
G36*
G01*
X114340274Y-146641010D02*
X114340274Y-146641010D01*
G75*
G02*
X113296490Y-145440274I78476J1122260D01*
G01*
X113337044Y-144860312D01*
G75*
G02*
X114537780Y-143816528I1122260J-78476D01*
G01*
X114537780Y-143816528D01*
G75*
G02*
X115581564Y-145017264I-78476J-1122260D01*
G01*
X115541010Y-145597226D01*
G75*
G02*
X114340274Y-146641010I-1122260J78476D01*
G01*
G37*
%TD.AperFunction*%
X114458750Y-144938750D03*
%TO.P,MX5,2*%
%TO.N,Net-(D5-Pad2)*%
%TA.AperFunction,ComponentPad*%
G36*
G01*
X107355978Y-148314788D02*
X107355978Y-148314788D01*
G75*
G02*
X107272712Y-146725978I752772J836038D01*
G01*
X108585250Y-145268258D01*
G75*
G02*
X110174060Y-145184992I836038J-752772D01*
G01*
X110174060Y-145184992D01*
G75*
G02*
X110257326Y-146773802I-752772J-836038D01*
G01*
X108944788Y-148231522D01*
G75*
G02*
X107355978Y-148314788I-836038J752772D01*
G01*
G37*
%TD.AperFunction*%
X109418750Y-146018750D03*
D11*
%TO.P,MX5,3*%
%TO.N,N/C*%
X110648750Y-155098750D03*
D12*
%TO.P,MX5,4*%
X113188750Y-155098750D03*
%TD*%
%TO.P,MX17,1*%
%TO.N,COL4*%
%TA.AperFunction,ComponentPad*%
G36*
G01*
X156166010Y-138072226D02*
X156166010Y-138072226D01*
G75*
G02*
X154965274Y-139116010I-1122260J78476D01*
G01*
X154385312Y-139075456D01*
G75*
G02*
X153341528Y-137874720I78476J1122260D01*
G01*
X153341528Y-137874720D01*
G75*
G02*
X154542264Y-136830936I1122260J-78476D01*
G01*
X155122226Y-136871490D01*
G75*
G02*
X156166010Y-138072226I-78476J-1122260D01*
G01*
G37*
%TD.AperFunction*%
D10*
X154463750Y-137953750D03*
%TO.P,MX17,2*%
%TO.N,Net-(D17-Pad2)*%
%TA.AperFunction,ComponentPad*%
G36*
G01*
X157839788Y-145056522D02*
X157839788Y-145056522D01*
G75*
G02*
X156250978Y-145139788I-836038J752772D01*
G01*
X154793258Y-143827250D01*
G75*
G02*
X154709992Y-142238440I752772J836038D01*
G01*
X154709992Y-142238440D01*
G75*
G02*
X156298802Y-142155174I836038J-752772D01*
G01*
X157756522Y-143467712D01*
G75*
G02*
X157839788Y-145056522I-752772J-836038D01*
G01*
G37*
%TD.AperFunction*%
X155543750Y-142993750D03*
D11*
%TO.P,MX17,3*%
%TO.N,N/C*%
X164623750Y-141763750D03*
D12*
%TO.P,MX17,4*%
X164623750Y-139223750D03*
%TD*%
%TO.P,MX16,1*%
%TO.N,COL4*%
%TA.AperFunction,ComponentPad*%
G36*
G01*
X156166010Y-99972226D02*
X156166010Y-99972226D01*
G75*
G02*
X154965274Y-101016010I-1122260J78476D01*
G01*
X154385312Y-100975456D01*
G75*
G02*
X153341528Y-99774720I78476J1122260D01*
G01*
X153341528Y-99774720D01*
G75*
G02*
X154542264Y-98730936I1122260J-78476D01*
G01*
X155122226Y-98771490D01*
G75*
G02*
X156166010Y-99972226I-78476J-1122260D01*
G01*
G37*
%TD.AperFunction*%
D10*
X154463750Y-99853750D03*
%TO.P,MX16,2*%
%TO.N,Net-(D16-Pad2)*%
%TA.AperFunction,ComponentPad*%
G36*
G01*
X157839788Y-106956522D02*
X157839788Y-106956522D01*
G75*
G02*
X156250978Y-107039788I-836038J752772D01*
G01*
X154793258Y-105727250D01*
G75*
G02*
X154709992Y-104138440I752772J836038D01*
G01*
X154709992Y-104138440D01*
G75*
G02*
X156298802Y-104055174I836038J-752772D01*
G01*
X157756522Y-105367712D01*
G75*
G02*
X157839788Y-106956522I-752772J-836038D01*
G01*
G37*
%TD.AperFunction*%
X155543750Y-104893750D03*
D11*
%TO.P,MX16,3*%
%TO.N,N/C*%
X164623750Y-103663750D03*
D12*
%TO.P,MX16,4*%
X164623750Y-101123750D03*
%TD*%
D10*
%TO.P,MX11,2*%
%TO.N,Net-(D11-Pad2)*%
X137993750Y-69818750D03*
%TA.AperFunction,ComponentPad*%
G36*
G01*
X135930978Y-72114788D02*
X135930978Y-72114788D01*
G75*
G02*
X135847712Y-70525978I752772J836038D01*
G01*
X137160250Y-69068258D01*
G75*
G02*
X138749060Y-68984992I836038J-752772D01*
G01*
X138749060Y-68984992D01*
G75*
G02*
X138832326Y-70573802I-752772J-836038D01*
G01*
X137519788Y-72031522D01*
G75*
G02*
X135930978Y-72114788I-836038J752772D01*
G01*
G37*
%TD.AperFunction*%
%TO.P,MX11,1*%
%TO.N,COL3*%
X143033750Y-68738750D03*
%TA.AperFunction,ComponentPad*%
G36*
G01*
X142915274Y-70441010D02*
X142915274Y-70441010D01*
G75*
G02*
X141871490Y-69240274I78476J1122260D01*
G01*
X141912044Y-68660312D01*
G75*
G02*
X143112780Y-67616528I1122260J-78476D01*
G01*
X143112780Y-67616528D01*
G75*
G02*
X144156564Y-68817264I-78476J-1122260D01*
G01*
X144116010Y-69397226D01*
G75*
G02*
X142915274Y-70441010I-1122260J78476D01*
G01*
G37*
%TD.AperFunction*%
%TD*%
%TO.P,MX8,2*%
%TO.N,Net-(D8-Pad2)*%
X118943750Y-107918750D03*
%TA.AperFunction,ComponentPad*%
G36*
G01*
X116880978Y-110214788D02*
X116880978Y-110214788D01*
G75*
G02*
X116797712Y-108625978I752772J836038D01*
G01*
X118110250Y-107168258D01*
G75*
G02*
X119699060Y-107084992I836038J-752772D01*
G01*
X119699060Y-107084992D01*
G75*
G02*
X119782326Y-108673802I-752772J-836038D01*
G01*
X118469788Y-110131522D01*
G75*
G02*
X116880978Y-110214788I-836038J752772D01*
G01*
G37*
%TD.AperFunction*%
%TO.P,MX8,1*%
%TO.N,COL2*%
X123983750Y-106838750D03*
%TA.AperFunction,ComponentPad*%
G36*
G01*
X123865274Y-108541010D02*
X123865274Y-108541010D01*
G75*
G02*
X122821490Y-107340274I78476J1122260D01*
G01*
X122862044Y-106760312D01*
G75*
G02*
X124062780Y-105716528I1122260J-78476D01*
G01*
X124062780Y-105716528D01*
G75*
G02*
X125106564Y-106917264I-78476J-1122260D01*
G01*
X125066010Y-107497226D01*
G75*
G02*
X123865274Y-108541010I-1122260J78476D01*
G01*
G37*
%TD.AperFunction*%
%TD*%
%TO.P,MX4,2*%
%TO.N,Net-(D4-Pad2)*%
X99893750Y-126968750D03*
%TA.AperFunction,ComponentPad*%
G36*
G01*
X97830978Y-129264788D02*
X97830978Y-129264788D01*
G75*
G02*
X97747712Y-127675978I752772J836038D01*
G01*
X99060250Y-126218258D01*
G75*
G02*
X100649060Y-126134992I836038J-752772D01*
G01*
X100649060Y-126134992D01*
G75*
G02*
X100732326Y-127723802I-752772J-836038D01*
G01*
X99419788Y-129181522D01*
G75*
G02*
X97830978Y-129264788I-836038J752772D01*
G01*
G37*
%TD.AperFunction*%
%TO.P,MX4,1*%
%TO.N,COL1*%
X104933750Y-125888750D03*
%TA.AperFunction,ComponentPad*%
G36*
G01*
X104815274Y-127591010D02*
X104815274Y-127591010D01*
G75*
G02*
X103771490Y-126390274I78476J1122260D01*
G01*
X103812044Y-125810312D01*
G75*
G02*
X105012780Y-124766528I1122260J-78476D01*
G01*
X105012780Y-124766528D01*
G75*
G02*
X106056564Y-125967264I-78476J-1122260D01*
G01*
X106016010Y-126547226D01*
G75*
G02*
X104815274Y-127591010I-1122260J78476D01*
G01*
G37*
%TD.AperFunction*%
%TD*%
%TO.P,MX14,2*%
%TO.N,Net-(D14-Pad2)*%
X137993750Y-126968750D03*
%TA.AperFunction,ComponentPad*%
G36*
G01*
X135930978Y-129264788D02*
X135930978Y-129264788D01*
G75*
G02*
X135847712Y-127675978I752772J836038D01*
G01*
X137160250Y-126218258D01*
G75*
G02*
X138749060Y-126134992I836038J-752772D01*
G01*
X138749060Y-126134992D01*
G75*
G02*
X138832326Y-127723802I-752772J-836038D01*
G01*
X137519788Y-129181522D01*
G75*
G02*
X135930978Y-129264788I-836038J752772D01*
G01*
G37*
%TD.AperFunction*%
%TO.P,MX14,1*%
%TO.N,COL3*%
X143033750Y-125888750D03*
%TA.AperFunction,ComponentPad*%
G36*
G01*
X142915274Y-127591010D02*
X142915274Y-127591010D01*
G75*
G02*
X141871490Y-126390274I78476J1122260D01*
G01*
X141912044Y-125810312D01*
G75*
G02*
X143112780Y-124766528I1122260J-78476D01*
G01*
X143112780Y-124766528D01*
G75*
G02*
X144156564Y-125967264I-78476J-1122260D01*
G01*
X144116010Y-126547226D01*
G75*
G02*
X142915274Y-127591010I-1122260J78476D01*
G01*
G37*
%TD.AperFunction*%
%TD*%
%TO.P,MX13,2*%
%TO.N,Net-(D13-Pad2)*%
X137993750Y-107918750D03*
%TA.AperFunction,ComponentPad*%
G36*
G01*
X135930978Y-110214788D02*
X135930978Y-110214788D01*
G75*
G02*
X135847712Y-108625978I752772J836038D01*
G01*
X137160250Y-107168258D01*
G75*
G02*
X138749060Y-107084992I836038J-752772D01*
G01*
X138749060Y-107084992D01*
G75*
G02*
X138832326Y-108673802I-752772J-836038D01*
G01*
X137519788Y-110131522D01*
G75*
G02*
X135930978Y-110214788I-836038J752772D01*
G01*
G37*
%TD.AperFunction*%
%TO.P,MX13,1*%
%TO.N,COL3*%
X143033750Y-106838750D03*
%TA.AperFunction,ComponentPad*%
G36*
G01*
X142915274Y-108541010D02*
X142915274Y-108541010D01*
G75*
G02*
X141871490Y-107340274I78476J1122260D01*
G01*
X141912044Y-106760312D01*
G75*
G02*
X143112780Y-105716528I1122260J-78476D01*
G01*
X143112780Y-105716528D01*
G75*
G02*
X144156564Y-106917264I-78476J-1122260D01*
G01*
X144116010Y-107497226D01*
G75*
G02*
X142915274Y-108541010I-1122260J78476D01*
G01*
G37*
%TD.AperFunction*%
%TD*%
%TO.P,MX12,2*%
%TO.N,Net-(D12-Pad2)*%
X137993750Y-88868750D03*
%TA.AperFunction,ComponentPad*%
G36*
G01*
X135930978Y-91164788D02*
X135930978Y-91164788D01*
G75*
G02*
X135847712Y-89575978I752772J836038D01*
G01*
X137160250Y-88118258D01*
G75*
G02*
X138749060Y-88034992I836038J-752772D01*
G01*
X138749060Y-88034992D01*
G75*
G02*
X138832326Y-89623802I-752772J-836038D01*
G01*
X137519788Y-91081522D01*
G75*
G02*
X135930978Y-91164788I-836038J752772D01*
G01*
G37*
%TD.AperFunction*%
%TO.P,MX12,1*%
%TO.N,COL3*%
X143033750Y-87788750D03*
%TA.AperFunction,ComponentPad*%
G36*
G01*
X142915274Y-89491010D02*
X142915274Y-89491010D01*
G75*
G02*
X141871490Y-88290274I78476J1122260D01*
G01*
X141912044Y-87710312D01*
G75*
G02*
X143112780Y-86666528I1122260J-78476D01*
G01*
X143112780Y-86666528D01*
G75*
G02*
X144156564Y-87867264I-78476J-1122260D01*
G01*
X144116010Y-88447226D01*
G75*
G02*
X142915274Y-89491010I-1122260J78476D01*
G01*
G37*
%TD.AperFunction*%
%TD*%
%TO.P,MX10,2*%
%TO.N,Net-(D10-Pad2)*%
X137993750Y-146018750D03*
%TA.AperFunction,ComponentPad*%
G36*
G01*
X135930978Y-148314788D02*
X135930978Y-148314788D01*
G75*
G02*
X135847712Y-146725978I752772J836038D01*
G01*
X137160250Y-145268258D01*
G75*
G02*
X138749060Y-145184992I836038J-752772D01*
G01*
X138749060Y-145184992D01*
G75*
G02*
X138832326Y-146773802I-752772J-836038D01*
G01*
X137519788Y-148231522D01*
G75*
G02*
X135930978Y-148314788I-836038J752772D01*
G01*
G37*
%TD.AperFunction*%
%TO.P,MX10,1*%
%TO.N,COL2*%
X143033750Y-144938750D03*
%TA.AperFunction,ComponentPad*%
G36*
G01*
X142915274Y-146641010D02*
X142915274Y-146641010D01*
G75*
G02*
X141871490Y-145440274I78476J1122260D01*
G01*
X141912044Y-144860312D01*
G75*
G02*
X143112780Y-143816528I1122260J-78476D01*
G01*
X143112780Y-143816528D01*
G75*
G02*
X144156564Y-145017264I-78476J-1122260D01*
G01*
X144116010Y-145597226D01*
G75*
G02*
X142915274Y-146641010I-1122260J78476D01*
G01*
G37*
%TD.AperFunction*%
%TD*%
%TO.P,MX9,2*%
%TO.N,Net-(D9-Pad2)*%
X118943750Y-126968750D03*
%TA.AperFunction,ComponentPad*%
G36*
G01*
X116880978Y-129264788D02*
X116880978Y-129264788D01*
G75*
G02*
X116797712Y-127675978I752772J836038D01*
G01*
X118110250Y-126218258D01*
G75*
G02*
X119699060Y-126134992I836038J-752772D01*
G01*
X119699060Y-126134992D01*
G75*
G02*
X119782326Y-127723802I-752772J-836038D01*
G01*
X118469788Y-129181522D01*
G75*
G02*
X116880978Y-129264788I-836038J752772D01*
G01*
G37*
%TD.AperFunction*%
%TO.P,MX9,1*%
%TO.N,COL2*%
X123983750Y-125888750D03*
%TA.AperFunction,ComponentPad*%
G36*
G01*
X123865274Y-127591010D02*
X123865274Y-127591010D01*
G75*
G02*
X122821490Y-126390274I78476J1122260D01*
G01*
X122862044Y-125810312D01*
G75*
G02*
X124062780Y-124766528I1122260J-78476D01*
G01*
X124062780Y-124766528D01*
G75*
G02*
X125106564Y-125967264I-78476J-1122260D01*
G01*
X125066010Y-126547226D01*
G75*
G02*
X123865274Y-127591010I-1122260J78476D01*
G01*
G37*
%TD.AperFunction*%
%TD*%
%TO.P,MX7,2*%
%TO.N,Net-(D7-Pad2)*%
X118943750Y-88868750D03*
%TA.AperFunction,ComponentPad*%
G36*
G01*
X116880978Y-91164788D02*
X116880978Y-91164788D01*
G75*
G02*
X116797712Y-89575978I752772J836038D01*
G01*
X118110250Y-88118258D01*
G75*
G02*
X119699060Y-88034992I836038J-752772D01*
G01*
X119699060Y-88034992D01*
G75*
G02*
X119782326Y-89623802I-752772J-836038D01*
G01*
X118469788Y-91081522D01*
G75*
G02*
X116880978Y-91164788I-836038J752772D01*
G01*
G37*
%TD.AperFunction*%
%TO.P,MX7,1*%
%TO.N,COL2*%
X123983750Y-87788750D03*
%TA.AperFunction,ComponentPad*%
G36*
G01*
X123865274Y-89491010D02*
X123865274Y-89491010D01*
G75*
G02*
X122821490Y-88290274I78476J1122260D01*
G01*
X122862044Y-87710312D01*
G75*
G02*
X124062780Y-86666528I1122260J-78476D01*
G01*
X124062780Y-86666528D01*
G75*
G02*
X125106564Y-87867264I-78476J-1122260D01*
G01*
X125066010Y-88447226D01*
G75*
G02*
X123865274Y-89491010I-1122260J78476D01*
G01*
G37*
%TD.AperFunction*%
%TD*%
%TO.P,MX6,2*%
%TO.N,Net-(D6-Pad2)*%
X118943750Y-69818750D03*
%TA.AperFunction,ComponentPad*%
G36*
G01*
X116880978Y-72114788D02*
X116880978Y-72114788D01*
G75*
G02*
X116797712Y-70525978I752772J836038D01*
G01*
X118110250Y-69068258D01*
G75*
G02*
X119699060Y-68984992I836038J-752772D01*
G01*
X119699060Y-68984992D01*
G75*
G02*
X119782326Y-70573802I-752772J-836038D01*
G01*
X118469788Y-72031522D01*
G75*
G02*
X116880978Y-72114788I-836038J752772D01*
G01*
G37*
%TD.AperFunction*%
%TO.P,MX6,1*%
%TO.N,COL2*%
X123983750Y-68738750D03*
%TA.AperFunction,ComponentPad*%
G36*
G01*
X123865274Y-70441010D02*
X123865274Y-70441010D01*
G75*
G02*
X122821490Y-69240274I78476J1122260D01*
G01*
X122862044Y-68660312D01*
G75*
G02*
X124062780Y-67616528I1122260J-78476D01*
G01*
X124062780Y-67616528D01*
G75*
G02*
X125106564Y-68817264I-78476J-1122260D01*
G01*
X125066010Y-69397226D01*
G75*
G02*
X123865274Y-70441010I-1122260J78476D01*
G01*
G37*
%TD.AperFunction*%
%TD*%
%TO.P,MX3,2*%
%TO.N,Net-(D3-Pad2)*%
X99893750Y-107918750D03*
%TA.AperFunction,ComponentPad*%
G36*
G01*
X97830978Y-110214788D02*
X97830978Y-110214788D01*
G75*
G02*
X97747712Y-108625978I752772J836038D01*
G01*
X99060250Y-107168258D01*
G75*
G02*
X100649060Y-107084992I836038J-752772D01*
G01*
X100649060Y-107084992D01*
G75*
G02*
X100732326Y-108673802I-752772J-836038D01*
G01*
X99419788Y-110131522D01*
G75*
G02*
X97830978Y-110214788I-836038J752772D01*
G01*
G37*
%TD.AperFunction*%
%TO.P,MX3,1*%
%TO.N,COL1*%
X104933750Y-106838750D03*
%TA.AperFunction,ComponentPad*%
G36*
G01*
X104815274Y-108541010D02*
X104815274Y-108541010D01*
G75*
G02*
X103771490Y-107340274I78476J1122260D01*
G01*
X103812044Y-106760312D01*
G75*
G02*
X105012780Y-105716528I1122260J-78476D01*
G01*
X105012780Y-105716528D01*
G75*
G02*
X106056564Y-106917264I-78476J-1122260D01*
G01*
X106016010Y-107497226D01*
G75*
G02*
X104815274Y-108541010I-1122260J78476D01*
G01*
G37*
%TD.AperFunction*%
%TD*%
%TO.P,MX2,2*%
%TO.N,Net-(D2-Pad2)*%
X99893750Y-88868750D03*
%TA.AperFunction,ComponentPad*%
G36*
G01*
X97830978Y-91164788D02*
X97830978Y-91164788D01*
G75*
G02*
X97747712Y-89575978I752772J836038D01*
G01*
X99060250Y-88118258D01*
G75*
G02*
X100649060Y-88034992I836038J-752772D01*
G01*
X100649060Y-88034992D01*
G75*
G02*
X100732326Y-89623802I-752772J-836038D01*
G01*
X99419788Y-91081522D01*
G75*
G02*
X97830978Y-91164788I-836038J752772D01*
G01*
G37*
%TD.AperFunction*%
%TO.P,MX2,1*%
%TO.N,COL1*%
X104933750Y-87788750D03*
%TA.AperFunction,ComponentPad*%
G36*
G01*
X104815274Y-89491010D02*
X104815274Y-89491010D01*
G75*
G02*
X103771490Y-88290274I78476J1122260D01*
G01*
X103812044Y-87710312D01*
G75*
G02*
X105012780Y-86666528I1122260J-78476D01*
G01*
X105012780Y-86666528D01*
G75*
G02*
X106056564Y-87867264I-78476J-1122260D01*
G01*
X106016010Y-88447226D01*
G75*
G02*
X104815274Y-89491010I-1122260J78476D01*
G01*
G37*
%TD.AperFunction*%
%TD*%
%TO.P,MX1,2*%
%TO.N,Net-(D1-Pad2)*%
X99893750Y-69818750D03*
%TA.AperFunction,ComponentPad*%
G36*
G01*
X97830978Y-72114788D02*
X97830978Y-72114788D01*
G75*
G02*
X97747712Y-70525978I752772J836038D01*
G01*
X99060250Y-69068258D01*
G75*
G02*
X100649060Y-68984992I836038J-752772D01*
G01*
X100649060Y-68984992D01*
G75*
G02*
X100732326Y-70573802I-752772J-836038D01*
G01*
X99419788Y-72031522D01*
G75*
G02*
X97830978Y-72114788I-836038J752772D01*
G01*
G37*
%TD.AperFunction*%
%TO.P,MX1,1*%
%TO.N,COL1*%
X104933750Y-68738750D03*
%TA.AperFunction,ComponentPad*%
G36*
G01*
X104815274Y-70441010D02*
X104815274Y-70441010D01*
G75*
G02*
X103771490Y-69240274I78476J1122260D01*
G01*
X103812044Y-68660312D01*
G75*
G02*
X105012780Y-67616528I1122260J-78476D01*
G01*
X105012780Y-67616528D01*
G75*
G02*
X106056564Y-68817264I-78476J-1122260D01*
G01*
X106016010Y-69397226D01*
G75*
G02*
X104815274Y-70441010I-1122260J78476D01*
G01*
G37*
%TD.AperFunction*%
%TD*%
D13*
%TO.P,D20,1*%
%TO.N,ROW3*%
X172466000Y-34290000D03*
D14*
%TO.P,D20,2*%
%TO.N,Net-(D20-Pad2)*%
X172466000Y-39370000D03*
%TD*%
D13*
%TO.P,D19,1*%
%TO.N,ROW2*%
X172466000Y-48006000D03*
D14*
%TO.P,D19,2*%
%TO.N,Net-(D19-Pad2)*%
X172466000Y-53086000D03*
%TD*%
D13*
%TO.P,D18,1*%
%TO.N,ROW1*%
X169164000Y-48006000D03*
D14*
%TO.P,D18,2*%
%TO.N,Net-(D18-Pad2)*%
X169164000Y-53086000D03*
%TD*%
D13*
%TO.P,D17,1*%
%TO.N,ROW3*%
X159258000Y-48006000D03*
D14*
%TO.P,D17,2*%
%TO.N,Net-(D17-Pad2)*%
X159258000Y-53086000D03*
%TD*%
D13*
%TO.P,D16,1*%
%TO.N,ROW2*%
X162560000Y-48006000D03*
D14*
%TO.P,D16,2*%
%TO.N,Net-(D16-Pad2)*%
X162560000Y-53086000D03*
%TD*%
D13*
%TO.P,D15,1*%
%TO.N,ROW1*%
X165862000Y-48006000D03*
D14*
%TO.P,D15,2*%
%TO.N,Net-(D15-Pad2)*%
X165862000Y-53086000D03*
%TD*%
%TO.P,D14,2*%
%TO.N,Net-(D14-Pad2)*%
X152654000Y-53086000D03*
D13*
%TO.P,D14,1*%
%TO.N,ROW4*%
X152654000Y-48006000D03*
%TD*%
%TO.P,D13,1*%
%TO.N,ROW3*%
X149352000Y-48006000D03*
D14*
%TO.P,D13,2*%
%TO.N,Net-(D13-Pad2)*%
X149352000Y-53086000D03*
%TD*%
D13*
%TO.P,D12,1*%
%TO.N,ROW2*%
X146050000Y-48006000D03*
D14*
%TO.P,D12,2*%
%TO.N,Net-(D12-Pad2)*%
X146050000Y-53086000D03*
%TD*%
D13*
%TO.P,D11,1*%
%TO.N,ROW1*%
X142748000Y-48006000D03*
D14*
%TO.P,D11,2*%
%TO.N,Net-(D11-Pad2)*%
X142748000Y-53086000D03*
%TD*%
D13*
%TO.P,D10,1*%
%TO.N,ROW5*%
X155956000Y-48006000D03*
D14*
%TO.P,D10,2*%
%TO.N,Net-(D10-Pad2)*%
X155956000Y-53086000D03*
%TD*%
D13*
%TO.P,D9,1*%
%TO.N,ROW4*%
X159258000Y-34290000D03*
D14*
%TO.P,D9,2*%
%TO.N,Net-(D9-Pad2)*%
X159258000Y-39370000D03*
%TD*%
D13*
%TO.P,D8,1*%
%TO.N,ROW3*%
X162560000Y-34290000D03*
D14*
%TO.P,D8,2*%
%TO.N,Net-(D8-Pad2)*%
X162560000Y-39370000D03*
%TD*%
D13*
%TO.P,D7,1*%
%TO.N,ROW2*%
X165862000Y-34290000D03*
D14*
%TO.P,D7,2*%
%TO.N,Net-(D7-Pad2)*%
X165862000Y-39370000D03*
%TD*%
D13*
%TO.P,D6,1*%
%TO.N,ROW1*%
X169164000Y-34290000D03*
D14*
%TO.P,D6,2*%
%TO.N,Net-(D6-Pad2)*%
X169164000Y-39370000D03*
%TD*%
D13*
%TO.P,D5,1*%
%TO.N,ROW5*%
X155956000Y-34290000D03*
D14*
%TO.P,D5,2*%
%TO.N,Net-(D5-Pad2)*%
X155956000Y-39370000D03*
%TD*%
D13*
%TO.P,D4,1*%
%TO.N,ROW4*%
X152654000Y-34290000D03*
D14*
%TO.P,D4,2*%
%TO.N,Net-(D4-Pad2)*%
X152654000Y-39370000D03*
%TD*%
D13*
%TO.P,D3,1*%
%TO.N,ROW3*%
X149352000Y-34290000D03*
D14*
%TO.P,D3,2*%
%TO.N,Net-(D3-Pad2)*%
X149352000Y-39370000D03*
%TD*%
D13*
%TO.P,D2,1*%
%TO.N,ROW2*%
X146050000Y-34290000D03*
D14*
%TO.P,D2,2*%
%TO.N,Net-(D2-Pad2)*%
X146050000Y-39370000D03*
%TD*%
D13*
%TO.P,D1,1*%
%TO.N,ROW1*%
X142748000Y-34290000D03*
D14*
%TO.P,D1,2*%
%TO.N,Net-(D1-Pad2)*%
X142748000Y-39370000D03*
%TD*%
D15*
%TO.P,U1,24*%
%TO.N,Net-(U1-Pad24)*%
X103033610Y-35040202D03*
%TO.P,U1,12*%
%TO.N,COL5*%
X130973610Y-55280202D03*
%TO.P,U1,23*%
%TO.N,GND*%
X105573610Y-35040202D03*
%TO.P,U1,22*%
%TO.N,Net-(U1-Pad22)*%
X108113610Y-35040202D03*
%TO.P,U1,21*%
%TO.N,VCC*%
X110653610Y-35040202D03*
%TO.P,U1,20*%
%TO.N,B1*%
X113193610Y-35040202D03*
%TO.P,U1,19*%
%TO.N,B2*%
X115733610Y-35040202D03*
%TO.P,U1,18*%
%TO.N,B3*%
X118273610Y-35040202D03*
%TO.P,U1,17*%
%TO.N,ROW5*%
X120813610Y-35040202D03*
%TO.P,U1,16*%
%TO.N,ROW4*%
X123353610Y-35040202D03*
%TO.P,U1,15*%
%TO.N,ROW3*%
X125893610Y-35040202D03*
%TO.P,U1,14*%
%TO.N,ROW2*%
X128433610Y-35040202D03*
%TO.P,U1,13*%
%TO.N,ROW1*%
X130973610Y-35040202D03*
%TO.P,U1,11*%
%TO.N,COL4*%
X128433610Y-55280202D03*
%TO.P,U1,10*%
%TO.N,COL3*%
X125893610Y-55280202D03*
%TO.P,U1,9*%
%TO.N,COL2*%
X123353610Y-55280202D03*
%TO.P,U1,8*%
%TO.N,COL1*%
X120813610Y-55280202D03*
%TO.P,U1,7*%
%TO.N,A3*%
X118273610Y-55280202D03*
%TO.P,U1,6*%
%TO.N,A2*%
X115733610Y-55280202D03*
%TO.P,U1,5*%
%TO.N,A1*%
X113193610Y-55280202D03*
%TO.P,U1,4*%
%TO.N,Net-(U1-Pad4)*%
X110653610Y-55280202D03*
%TO.P,U1,3*%
%TO.N,Net-(U1-Pad3)*%
X108113610Y-55280202D03*
%TO.P,U1,2*%
%TO.N,Net-(U1-Pad2)*%
X105573610Y-55280202D03*
D16*
%TO.P,U1,1*%
%TO.N,Net-(U1-Pad1)*%
X103033610Y-55280202D03*
%TD*%
D17*
%TO.P,SW3,S1*%
%TO.N,COL5*%
X191150000Y-145375000D03*
%TO.P,SW3,S2*%
%TO.N,Net-(D20-Pad2)*%
X191150000Y-140375000D03*
D18*
%TO.P,SW3,*%
%TO.N,*%
X184150000Y-148475000D03*
X184150000Y-137275000D03*
D17*
%TO.P,SW3,B*%
%TO.N,Net-(R12-Pad2)*%
X176650000Y-145375000D03*
%TO.P,SW3,C*%
%TO.N,GND*%
X176650000Y-142875000D03*
D19*
%TO.P,SW3,A*%
%TO.N,Net-(R11-Pad2)*%
X176650000Y-140375000D03*
%TD*%
D17*
%TO.P,SW2,S1*%
%TO.N,COL5*%
X191150000Y-119975000D03*
%TO.P,SW2,S2*%
%TO.N,Net-(D19-Pad2)*%
X191150000Y-114975000D03*
D18*
%TO.P,SW2,*%
%TO.N,*%
X184150000Y-123075000D03*
X184150000Y-111875000D03*
D17*
%TO.P,SW2,B*%
%TO.N,Net-(R10-Pad2)*%
X176650000Y-119975000D03*
%TO.P,SW2,C*%
%TO.N,GND*%
X176650000Y-117475000D03*
D19*
%TO.P,SW2,A*%
%TO.N,Net-(R3-Pad2)*%
X176650000Y-114975000D03*
%TD*%
D17*
%TO.P,SW1,S1*%
%TO.N,COL5*%
X191150000Y-94575000D03*
%TO.P,SW1,S2*%
%TO.N,Net-(D18-Pad2)*%
X191150000Y-89575000D03*
D18*
%TO.P,SW1,*%
%TO.N,*%
X184150000Y-97675000D03*
X184150000Y-86475000D03*
D17*
%TO.P,SW1,B*%
%TO.N,Net-(R2-Pad2)*%
X176650000Y-94575000D03*
%TO.P,SW1,C*%
%TO.N,GND*%
X176650000Y-92075000D03*
D19*
%TO.P,SW1,A*%
%TO.N,Net-(R1-Pad2)*%
X176650000Y-89575000D03*
%TD*%
D20*
%TO.P,R12,1*%
%TO.N,VCC*%
X189293500Y-53340000D03*
%TO.P,R12,2*%
%TO.N,Net-(R12-Pad2)*%
X179133500Y-53340000D03*
%TD*%
%TO.P,R11,1*%
%TO.N,VCC*%
X189293500Y-56515000D03*
%TO.P,R11,2*%
%TO.N,Net-(R11-Pad2)*%
X179133500Y-56515000D03*
%TD*%
%TO.P,R10,1*%
%TO.N,VCC*%
X189293500Y-59690000D03*
%TO.P,R10,2*%
%TO.N,Net-(R10-Pad2)*%
X179133500Y-59690000D03*
%TD*%
%TO.P,R9,1*%
%TO.N,VCC*%
X189293500Y-62865000D03*
%TO.P,R9,2*%
%TO.N,Net-(R3-Pad2)*%
X179133500Y-62865000D03*
%TD*%
%TO.P,R8,1*%
%TO.N,VCC*%
X189293500Y-66040000D03*
%TO.P,R8,2*%
%TO.N,Net-(R2-Pad2)*%
X179133500Y-66040000D03*
%TD*%
%TO.P,R7,1*%
%TO.N,VCC*%
X189293500Y-69215000D03*
%TO.P,R7,2*%
%TO.N,Net-(R1-Pad2)*%
X179133500Y-69215000D03*
%TD*%
%TO.P,R6,1*%
%TO.N,B3*%
X189230000Y-50292000D03*
%TO.P,R6,2*%
%TO.N,Net-(R12-Pad2)*%
X179070000Y-50292000D03*
%TD*%
%TO.P,R5,1*%
%TO.N,A3*%
X189230000Y-47244000D03*
%TO.P,R5,2*%
%TO.N,Net-(R11-Pad2)*%
X179070000Y-47244000D03*
%TD*%
%TO.P,R4,1*%
%TO.N,B2*%
X189230000Y-44196000D03*
%TO.P,R4,2*%
%TO.N,Net-(R10-Pad2)*%
X179070000Y-44196000D03*
%TD*%
%TO.P,R3,1*%
%TO.N,A2*%
X189230000Y-41148000D03*
%TO.P,R3,2*%
%TO.N,Net-(R3-Pad2)*%
X179070000Y-41148000D03*
%TD*%
%TO.P,R2,1*%
%TO.N,B1*%
X189230000Y-38100000D03*
%TO.P,R2,2*%
%TO.N,Net-(R2-Pad2)*%
X179070000Y-38100000D03*
%TD*%
%TO.P,R1,1*%
%TO.N,A1*%
X189230000Y-35052000D03*
%TO.P,R1,2*%
%TO.N,Net-(R1-Pad2)*%
X179070000Y-35052000D03*
%TD*%
D21*
%TO.P,C6,2*%
%TO.N,GND*%
X194552000Y-50292000D03*
%TO.P,C6,1*%
%TO.N,B3*%
X193052000Y-50292000D03*
%TD*%
%TO.P,C5,2*%
%TO.N,GND*%
X194552000Y-47244000D03*
%TO.P,C5,1*%
%TO.N,A3*%
X193052000Y-47244000D03*
%TD*%
%TO.P,C4,2*%
%TO.N,GND*%
X194552000Y-44196000D03*
%TO.P,C4,1*%
%TO.N,B2*%
X193052000Y-44196000D03*
%TD*%
%TO.P,C3,2*%
%TO.N,GND*%
X194552000Y-41148000D03*
%TO.P,C3,1*%
%TO.N,A2*%
X193052000Y-41148000D03*
%TD*%
%TO.P,C2,2*%
%TO.N,GND*%
X194552000Y-38100000D03*
%TO.P,C2,1*%
%TO.N,B1*%
X193052000Y-38100000D03*
%TD*%
%TO.P,C1,2*%
%TO.N,GND*%
X194552000Y-35052000D03*
%TO.P,C1,1*%
%TO.N,A1*%
X193052000Y-35052000D03*
%TD*%
D22*
%TO.N,GND*%
X195580000Y-52324000D03*
X193802000Y-32004000D03*
%TO.N,COL5*%
X151892000Y-65024000D03*
%TD*%
D23*
%TO.N,*%
X99765750Y-72136000D02*
X99260360Y-72697292D01*
X99822000Y-72136000D02*
X99765750Y-72136000D01*
X99260360Y-72697292D02*
X98659743Y-72728768D01*
%TO.N,Net-(D1-Pad2)*%
X98583750Y-71278750D02*
X107537250Y-71278750D01*
X107537250Y-71278750D02*
X109728000Y-69088000D01*
X109728000Y-69088000D02*
X109728000Y-59944000D01*
X109728000Y-59944000D02*
X112522000Y-57150000D01*
X112522000Y-57150000D02*
X132588000Y-57150000D01*
X132588000Y-57150000D02*
X133350000Y-56388000D01*
X142748000Y-40132000D02*
X142748000Y-39370000D01*
X141986000Y-40894000D02*
X142748000Y-40132000D01*
X133350000Y-43060066D02*
X135516066Y-40894000D01*
X133350000Y-56388000D02*
X133350000Y-43060066D01*
X135516066Y-40894000D02*
X141986000Y-40894000D01*
%TO.N,ROW1*%
X166531970Y-36922030D02*
X169164000Y-34290000D01*
X145380030Y-36922030D02*
X166531970Y-36922030D01*
X142748000Y-34290000D02*
X145380030Y-36922030D01*
X144783021Y-50041021D02*
X142748000Y-48006000D01*
X163826979Y-50041021D02*
X144783021Y-50041021D01*
X165862000Y-48006000D02*
X163826979Y-50041021D01*
X169164000Y-48006000D02*
X169164000Y-48768000D01*
X167890979Y-50041021D02*
X163826979Y-50041021D01*
X169164000Y-48768000D02*
X167890979Y-50041021D01*
X142748000Y-34290000D02*
X142748000Y-34036000D01*
X131572000Y-33528000D02*
X130973610Y-34126390D01*
X130973610Y-34126390D02*
X130973610Y-35040202D01*
X141986000Y-33528000D02*
X131572000Y-33528000D01*
X142748000Y-34290000D02*
X141986000Y-33528000D01*
%TO.N,Net-(D2-Pad2)*%
X132776057Y-57604009D02*
X133804010Y-56576057D01*
X112710056Y-57604010D02*
X132776057Y-57604009D01*
X110182010Y-60132056D02*
X112710056Y-57604010D01*
X110182010Y-89969990D02*
X110182010Y-60132056D01*
X109823250Y-90328750D02*
X110182010Y-89969990D01*
X98583750Y-90328750D02*
X109823250Y-90328750D01*
X144922999Y-40497001D02*
X146050000Y-39370000D01*
X143025066Y-40497001D02*
X144922999Y-40497001D01*
X142174057Y-41348010D02*
X143025066Y-40497001D01*
X133804010Y-56576057D02*
X133804010Y-43248122D01*
X135704122Y-41348010D02*
X142174057Y-41348010D01*
X133804010Y-43248122D02*
X135704122Y-41348010D01*
%TO.N,ROW2*%
X148228020Y-36468020D02*
X164953980Y-36468020D01*
X146050000Y-34290000D02*
X148228020Y-36468020D01*
X165862000Y-35560000D02*
X165862000Y-34290000D01*
X164953980Y-36468020D02*
X165862000Y-35560000D01*
X147631011Y-49587011D02*
X146050000Y-48006000D01*
X160978989Y-49587011D02*
X147631011Y-49587011D01*
X162560000Y-48006000D02*
X160978989Y-49587011D01*
X163687001Y-46878999D02*
X162560000Y-48006000D01*
X171338999Y-46878999D02*
X163687001Y-46878999D01*
X172466000Y-48006000D02*
X171338999Y-46878999D01*
X144833990Y-33073990D02*
X131264010Y-33073990D01*
X146050000Y-34290000D02*
X144833990Y-33073990D01*
X130501099Y-33836901D02*
X129231099Y-33836901D01*
X131264010Y-33073990D02*
X130501099Y-33836901D01*
X128433610Y-34634390D02*
X128433610Y-35040202D01*
X129231099Y-33836901D02*
X128433610Y-34634390D01*
%TO.N,Net-(D3-Pad2)*%
X98583750Y-109378750D02*
X106838750Y-109378750D01*
X106838750Y-109378750D02*
X110636020Y-105581480D01*
X110636020Y-105581480D02*
X110636020Y-60320112D01*
X110636020Y-60320112D02*
X112898114Y-58058018D01*
X132964114Y-58058018D02*
X134258020Y-56764114D01*
X112898114Y-58058018D02*
X132964114Y-58058018D01*
X134258020Y-56764114D02*
X134258020Y-43436178D01*
X142362114Y-41802020D02*
X143213123Y-40951011D01*
X135892178Y-41802020D02*
X142362114Y-41802020D01*
X134258020Y-43436178D02*
X135892178Y-41802020D01*
X145565066Y-40497001D02*
X148986999Y-40497001D01*
X145111056Y-40951011D02*
X145565066Y-40497001D01*
X143213123Y-40951011D02*
X145111056Y-40951011D01*
X149352000Y-40132000D02*
X149352000Y-39370000D01*
X148986999Y-40497001D02*
X149352000Y-40132000D01*
%TO.N,ROW3*%
X162560000Y-35560000D02*
X162560000Y-34290000D01*
X162105990Y-36014010D02*
X162560000Y-35560000D01*
X149352000Y-34290000D02*
X149352000Y-35306000D01*
X150060010Y-36014010D02*
X162105990Y-36014010D01*
X149352000Y-35306000D02*
X150060010Y-36014010D01*
X159258000Y-48006000D02*
X159258000Y-48514000D01*
X150479001Y-49133001D02*
X149352000Y-48006000D01*
X158638999Y-49133001D02*
X150479001Y-49133001D01*
X159258000Y-48514000D02*
X158638999Y-49133001D01*
X163687001Y-33162999D02*
X162560000Y-34290000D01*
X171338999Y-33162999D02*
X163687001Y-33162999D01*
X172466000Y-34290000D02*
X171338999Y-33162999D01*
X126691099Y-33836901D02*
X125893610Y-34634390D01*
X128589032Y-33836901D02*
X126691099Y-33836901D01*
X125893610Y-34634390D02*
X125893610Y-35040202D01*
X129043042Y-33382891D02*
X128589032Y-33836901D01*
X130313042Y-33382891D02*
X129043042Y-33382891D01*
X131075953Y-32619980D02*
X130313042Y-33382891D01*
X147681980Y-32619980D02*
X131075953Y-32619980D01*
X149352000Y-34290000D02*
X147681980Y-32619980D01*
%TO.N,Net-(D6-Pad2)*%
X168656000Y-40640000D02*
X169164000Y-40132000D01*
X165996067Y-40640000D02*
X168656000Y-40640000D01*
X165685056Y-40951011D02*
X165996067Y-40640000D01*
X163025123Y-40951011D02*
X165685056Y-40951011D01*
X162571113Y-41405021D02*
X163025123Y-40951011D01*
X159911180Y-41405021D02*
X162571113Y-41405021D01*
X153429294Y-42313041D02*
X156343227Y-42313041D01*
X169164000Y-40132000D02*
X169164000Y-39370000D01*
X150569351Y-42767051D02*
X152975284Y-42767051D01*
X117633750Y-71278750D02*
X114458750Y-71278750D01*
X114458750Y-71278750D02*
X113376030Y-70196030D01*
X114010498Y-60798030D02*
X134076504Y-60798030D01*
X159457170Y-41859031D02*
X159911180Y-41405021D01*
X113376030Y-70196030D02*
X113376030Y-61432498D01*
X156343227Y-42313041D02*
X156797237Y-41859031D01*
X113376030Y-61432498D02*
X114010498Y-60798030D01*
X150115341Y-43221061D02*
X150569351Y-42767051D01*
X143474505Y-44542030D02*
X144341464Y-43675071D01*
X146316929Y-43675071D02*
X146770939Y-43221061D01*
X156797237Y-41859031D02*
X159457170Y-41859031D01*
X144341464Y-43675071D02*
X146316929Y-43675071D01*
X152975284Y-42767051D02*
X153429294Y-42313041D01*
X134076504Y-60798030D02*
X136998030Y-57876505D01*
X146770939Y-43221061D02*
X150115341Y-43221061D01*
X136998030Y-44865970D02*
X137321970Y-44542030D01*
X136998030Y-57876505D02*
X136998030Y-44865970D01*
X137321970Y-44542030D02*
X143474505Y-44542030D01*
%TO.N,Net-(D7-Pad2)*%
X162837066Y-40497001D02*
X165496999Y-40497001D01*
X162383056Y-40951011D02*
X162837066Y-40497001D01*
X156609180Y-41405021D02*
X159269113Y-41405021D01*
X159723123Y-40951011D02*
X162383056Y-40951011D01*
X156155170Y-41859031D02*
X156609180Y-41405021D01*
X153241237Y-41859031D02*
X156155170Y-41859031D01*
X152787227Y-42313041D02*
X153241237Y-41859031D01*
X146505351Y-42767051D02*
X149927284Y-42767051D01*
X117633750Y-90328750D02*
X114458750Y-90328750D01*
X114458750Y-90328750D02*
X113030000Y-88900000D01*
X165862000Y-40132000D02*
X165862000Y-39370000D01*
X113030000Y-84328000D02*
X112922020Y-84220020D01*
X165496999Y-40497001D02*
X165862000Y-40132000D01*
X150381294Y-42313041D02*
X152787227Y-42313041D01*
X133888447Y-60344020D02*
X136544020Y-57688448D01*
X112922020Y-84220020D02*
X112922020Y-61244442D01*
X112922020Y-61244442D02*
X113822442Y-60344020D01*
X136544020Y-44360508D02*
X136816508Y-44088020D01*
X113030000Y-88900000D02*
X113030000Y-84328000D01*
X136816508Y-44088020D02*
X143286448Y-44088020D01*
X113822442Y-60344020D02*
X133888447Y-60344020D01*
X136544020Y-57688448D02*
X136544020Y-44360508D01*
X159269113Y-41405021D02*
X159723123Y-40951011D01*
X149927284Y-42767051D02*
X150381294Y-42313041D01*
X143286448Y-44088020D02*
X144153407Y-43221061D01*
X146051341Y-43221061D02*
X146505351Y-42767051D01*
X144153407Y-43221061D02*
X146051341Y-43221061D01*
%TO.N,Net-(D11-Pad2)*%
X136683750Y-71278750D02*
X136683750Y-70580250D01*
X142748000Y-53594000D02*
X142748000Y-53086000D01*
X143256000Y-54102000D02*
X142748000Y-53594000D01*
X145288000Y-54102000D02*
X143256000Y-54102000D01*
X145996010Y-54810010D02*
X145288000Y-54102000D01*
X146758010Y-54810010D02*
X145996010Y-54810010D01*
X147574000Y-55626000D02*
X146758010Y-54810010D01*
X147574000Y-69342000D02*
X147574000Y-55626000D01*
X145637250Y-71278750D02*
X147574000Y-69342000D01*
X136683750Y-71278750D02*
X145637250Y-71278750D01*
%TO.N,Net-(D12-Pad2)*%
X136683750Y-90328750D02*
X136048750Y-90328750D01*
X136683750Y-90328750D02*
X145891250Y-90328750D01*
X145891250Y-90328750D02*
X148028010Y-88191990D01*
X146050000Y-54102000D02*
X146050000Y-53086000D01*
X146304000Y-54356000D02*
X146050000Y-54102000D01*
X146946067Y-54356000D02*
X146304000Y-54356000D01*
X148028010Y-55437943D02*
X146946067Y-54356000D01*
X148028010Y-88191990D02*
X148028010Y-55437943D01*
%TO.N,Net-(D13-Pad2)*%
X149352000Y-54610000D02*
X149352000Y-53086000D01*
X148482020Y-55479980D02*
X149352000Y-54610000D01*
X148482020Y-104038260D02*
X148482020Y-55479980D01*
X143141530Y-109378750D02*
X148482020Y-104038260D01*
X136683750Y-109378750D02*
X143141530Y-109378750D01*
%TO.N,Net-(D15-Pad2)*%
X165862000Y-53848000D02*
X165862000Y-53086000D01*
X160098019Y-54556010D02*
X165153990Y-54556010D01*
X165153990Y-54556010D02*
X165862000Y-53848000D01*
X156609179Y-55121021D02*
X159533008Y-55121021D01*
X155958180Y-55772020D02*
X156609179Y-55121021D01*
X153538113Y-55772020D02*
X155958180Y-55772020D01*
X159533008Y-55121021D02*
X160098019Y-54556010D01*
X152050750Y-71278750D02*
X150822010Y-70050010D01*
X155733750Y-71278750D02*
X152050750Y-71278750D01*
X150822010Y-58488123D02*
X153538112Y-55772021D01*
X150822010Y-70050010D02*
X150822010Y-58488123D01*
%TO.N,Net-(D17-Pad2)*%
X153701750Y-144303750D02*
X149860000Y-140462000D01*
X157003750Y-144303750D02*
X153701750Y-144303750D01*
X149860000Y-56134000D02*
X150595914Y-55398086D01*
X149860000Y-140462000D02*
X149860000Y-56134000D01*
X150595914Y-55398086D02*
X152627914Y-55398086D01*
X152627914Y-55398086D02*
X153162000Y-54864000D01*
X153162000Y-54864000D02*
X155582066Y-54864000D01*
X156233065Y-54213001D02*
X158892999Y-54213001D01*
X155582066Y-54864000D02*
X156233065Y-54213001D01*
X159258000Y-53848000D02*
X159258000Y-53086000D01*
X158892999Y-54213001D02*
X159258000Y-53848000D01*
D24*
%TO.N,A1*%
X193052000Y-35052000D02*
X189230000Y-35052000D01*
D23*
%TO.N,GND*%
X195580000Y-52324000D02*
X195580000Y-51054000D01*
X194818000Y-50292000D02*
X194552000Y-50292000D01*
X195580000Y-51054000D02*
X194818000Y-50292000D01*
X195580000Y-48272000D02*
X194552000Y-47244000D01*
X195580000Y-51054000D02*
X195580000Y-48272000D01*
X195580000Y-45224000D02*
X194552000Y-44196000D01*
X195580000Y-48272000D02*
X195580000Y-45224000D01*
X195580000Y-45224000D02*
X195580000Y-42176000D01*
X195447000Y-42043000D02*
X195447000Y-38995000D01*
X195447000Y-38995000D02*
X194552000Y-38100000D01*
X195580000Y-42176000D02*
X195447000Y-42043000D01*
X195447000Y-42043000D02*
X194552000Y-41148000D01*
X195447000Y-35947000D02*
X194552000Y-35052000D01*
X195447000Y-38995000D02*
X195447000Y-35947000D01*
X195447000Y-35947000D02*
X195447000Y-33395000D01*
X194056000Y-32004000D02*
X193802000Y-32004000D01*
X195447000Y-33395000D02*
X194056000Y-32004000D01*
%TO.N,B1*%
X193052000Y-38100000D02*
X189230000Y-38100000D01*
X115689933Y-33782000D02*
X113538000Y-33782000D01*
X116089042Y-33382891D02*
X115689933Y-33782000D01*
X120592918Y-32928881D02*
X118694985Y-32928881D01*
X118694985Y-32928881D02*
X118240975Y-33382891D01*
X121046928Y-32474871D02*
X120592918Y-32928881D01*
X123398871Y-32020861D02*
X122944861Y-32474871D01*
X184658000Y-38100000D02*
X183842010Y-37284010D01*
X183842010Y-37284010D02*
X183842010Y-35491877D01*
X113538000Y-33782000D02*
X113193610Y-34126390D01*
X122944861Y-32474871D02*
X121046928Y-32474871D01*
X128102757Y-31112841D02*
X127648747Y-31566851D01*
X118240975Y-33382891D02*
X116089042Y-33382891D01*
X183842010Y-35491877D02*
X180151103Y-31800969D01*
X189230000Y-38100000D02*
X184658000Y-38100000D01*
X130113943Y-30279990D02*
X129281092Y-31112841D01*
X125750814Y-31566851D02*
X125296804Y-32020861D01*
X155393167Y-31800969D02*
X153872189Y-30279990D01*
X113193610Y-34126390D02*
X113193610Y-35040202D01*
X153872189Y-30279990D02*
X130113943Y-30279990D01*
X127648747Y-31566851D02*
X125750814Y-31566851D01*
X125296804Y-32020861D02*
X123398871Y-32020861D01*
X180151103Y-31800969D02*
X155393167Y-31800969D01*
X129281092Y-31112841D02*
X128102757Y-31112841D01*
%TO.N,A2*%
X193052000Y-41148000D02*
X189230000Y-41148000D01*
%TO.N,B2*%
X193052000Y-44196000D02*
X189230000Y-44196000D01*
X116277099Y-33836901D02*
X115733610Y-34380390D01*
X118883042Y-33382891D02*
X118429032Y-33836901D01*
X120780975Y-33382891D02*
X118883042Y-33382891D01*
X118429032Y-33836901D02*
X116277099Y-33836901D01*
X121234985Y-32928881D02*
X120780975Y-33382891D01*
X123132918Y-32928881D02*
X121234985Y-32928881D01*
X125938871Y-32020861D02*
X125484861Y-32474871D01*
X183896000Y-44196000D02*
X183388000Y-43688000D01*
X129469149Y-31566851D02*
X128290814Y-31566851D01*
X183388000Y-35679934D02*
X179963046Y-32254979D01*
X155205111Y-32254979D02*
X153684132Y-30734000D01*
X127836805Y-32020861D02*
X125938871Y-32020861D01*
X115733610Y-34380390D02*
X115733610Y-35040202D01*
X123586928Y-32474871D02*
X123132918Y-32928881D01*
X125484861Y-32474871D02*
X123586928Y-32474871D01*
X183388000Y-43688000D02*
X183388000Y-35679934D01*
X179963046Y-32254979D02*
X155205111Y-32254979D01*
X153684132Y-30734000D02*
X130302000Y-30734000D01*
X130302000Y-30734000D02*
X129469149Y-31566851D01*
X189230000Y-44196000D02*
X183896000Y-44196000D01*
X128290814Y-31566851D02*
X127836805Y-32020861D01*
%TO.N,A3*%
X193052000Y-47244000D02*
X189230000Y-47244000D01*
%TO.N,B3*%
X193052000Y-50292000D02*
X189230000Y-50292000D01*
X118273610Y-34634390D02*
X118273610Y-35040202D01*
X119071099Y-33836901D02*
X118273610Y-34634390D01*
X120969032Y-33836901D02*
X119071099Y-33836901D01*
X121423042Y-33382891D02*
X120969032Y-33836901D01*
X123320975Y-33382891D02*
X121423042Y-33382891D01*
X123774985Y-32928881D02*
X123320975Y-33382891D01*
X189230000Y-50292000D02*
X184404000Y-50292000D01*
X129748872Y-32020861D02*
X128478871Y-32020861D01*
X184404000Y-50292000D02*
X182880000Y-48768000D01*
X182880000Y-35814000D02*
X179774989Y-32708989D01*
X182880000Y-48768000D02*
X182880000Y-35814000D01*
X179774989Y-32708989D02*
X155017055Y-32708989D01*
X155017055Y-32708989D02*
X153550066Y-31242000D01*
X153550066Y-31242000D02*
X130527733Y-31242000D01*
X130527733Y-31242000D02*
X129748872Y-32020861D01*
X125672918Y-32928881D02*
X123774985Y-32928881D01*
X128478871Y-32020861D02*
X128024861Y-32474871D01*
X128024861Y-32474871D02*
X126126928Y-32474871D01*
X126126928Y-32474871D02*
X125672918Y-32928881D01*
%TO.N,Net-(D4-Pad2)*%
X133152171Y-58512028D02*
X134712030Y-56952171D01*
X113086170Y-58512028D02*
X133152171Y-58512028D01*
X111090030Y-60508168D02*
X113086170Y-58512028D01*
X111090030Y-124875970D02*
X111090030Y-60508168D01*
X107537250Y-128428750D02*
X111090030Y-124875970D01*
X98583750Y-128428750D02*
X107537250Y-128428750D01*
X134712030Y-56952171D02*
X134712030Y-43624234D01*
X142550171Y-42256030D02*
X143401180Y-41405021D01*
X136080234Y-42256030D02*
X142550171Y-42256030D01*
X134712030Y-43624234D02*
X136080234Y-42256030D01*
X145299113Y-41405021D02*
X145753123Y-40951011D01*
X143401180Y-41405021D02*
X145299113Y-41405021D01*
X149629066Y-40497001D02*
X152034999Y-40497001D01*
X149175056Y-40951011D02*
X149629066Y-40497001D01*
X145753123Y-40951011D02*
X149175056Y-40951011D01*
X152654000Y-39878000D02*
X152654000Y-39370000D01*
X152034999Y-40497001D02*
X152654000Y-39878000D01*
%TO.N,ROW4*%
X152654000Y-34290000D02*
X152654000Y-34798000D01*
X152654000Y-34798000D02*
X153416000Y-35560000D01*
X157988000Y-35560000D02*
X159258000Y-34290000D01*
X153416000Y-35560000D02*
X157988000Y-35560000D01*
X123353610Y-34634390D02*
X123353610Y-35040202D01*
X126503042Y-33382891D02*
X126049032Y-33836901D01*
X128400975Y-33382891D02*
X126503042Y-33382891D01*
X128854985Y-32928881D02*
X128400975Y-33382891D01*
X124151099Y-33836901D02*
X123353610Y-34634390D01*
X130124985Y-32928881D02*
X128854985Y-32928881D01*
X150529970Y-32165970D02*
X130887896Y-32165970D01*
X126049032Y-33836901D02*
X124151099Y-33836901D01*
X130887896Y-32165970D02*
X130124985Y-32928881D01*
X152654000Y-34290000D02*
X150529970Y-32165970D01*
%TO.N,Net-(D5-Pad2)*%
X155956000Y-40132000D02*
X155956000Y-39370000D01*
X155590999Y-40497001D02*
X155956000Y-40132000D01*
X152677066Y-40497001D02*
X155590999Y-40497001D01*
X152223056Y-40951011D02*
X152677066Y-40497001D01*
X149817123Y-40951011D02*
X152223056Y-40951011D01*
X149363113Y-41405021D02*
X149817123Y-40951011D01*
X145941180Y-41405021D02*
X149363113Y-41405021D01*
X108108750Y-147478750D02*
X111544040Y-144043460D01*
X145487170Y-41859031D02*
X145941180Y-41405021D01*
X111544040Y-144043460D02*
X111544040Y-60696224D01*
X111544040Y-60696224D02*
X113274226Y-58966038D01*
X113274226Y-58966038D02*
X133340228Y-58966038D01*
X133606181Y-58700084D02*
X133606184Y-58700084D01*
X133340228Y-58966038D02*
X133606181Y-58700084D01*
X133606184Y-58700084D02*
X135166040Y-57140228D01*
X135166040Y-57140228D02*
X135166040Y-43812290D01*
X136268290Y-42710040D02*
X142738228Y-42710040D01*
X142738228Y-42710040D02*
X143589237Y-41859031D01*
X135166040Y-43812290D02*
X136268290Y-42710040D01*
X143589237Y-41859031D02*
X145487170Y-41859031D01*
%TO.N,ROW5*%
X155956000Y-34290000D02*
X153377960Y-31711960D01*
X130699839Y-31711960D02*
X129936928Y-32474871D01*
X153377960Y-31711960D02*
X130699839Y-31711960D01*
X128666928Y-32474871D02*
X128212918Y-32928881D01*
X129936928Y-32474871D02*
X128666928Y-32474871D01*
X126314985Y-32928881D02*
X125860975Y-33382891D01*
X128212918Y-32928881D02*
X126314985Y-32928881D01*
X123963042Y-33382891D02*
X123509032Y-33836901D01*
X125860975Y-33382891D02*
X123963042Y-33382891D01*
X123509032Y-33836901D02*
X121611099Y-33836901D01*
X120813610Y-34634390D02*
X120813610Y-35040202D01*
X121611099Y-33836901D02*
X120813610Y-34634390D01*
%TO.N,Net-(D8-Pad2)*%
X162560000Y-40132000D02*
X162560000Y-39370000D01*
X162194999Y-40497001D02*
X162560000Y-40132000D01*
X159535066Y-40497001D02*
X162194999Y-40497001D01*
X159081056Y-40951011D02*
X159535066Y-40497001D01*
X155967113Y-41405021D02*
X156421123Y-40951011D01*
X153053180Y-41405021D02*
X155967113Y-41405021D01*
X152599170Y-41859031D02*
X153053180Y-41405021D01*
X150193237Y-41859031D02*
X152599170Y-41859031D01*
X149739227Y-42313041D02*
X150193237Y-41859031D01*
X146317294Y-42313041D02*
X149739227Y-42313041D01*
X117633750Y-109378750D02*
X113950750Y-109378750D01*
X133966344Y-59624056D02*
X136090010Y-57500391D01*
X156421123Y-40951011D02*
X159081056Y-40951011D01*
X113950750Y-109378750D02*
X112468010Y-107896010D01*
X112468010Y-107896010D02*
X112468010Y-61056386D01*
X136628452Y-43634010D02*
X143098391Y-43634010D01*
X112468010Y-61056386D02*
X113634386Y-59890010D01*
X133700391Y-59890010D02*
X133966344Y-59624056D01*
X136090010Y-57500391D02*
X136090010Y-44172452D01*
X136090010Y-44172452D02*
X136628452Y-43634010D01*
X143098391Y-43634010D02*
X143965350Y-42767051D01*
X143965350Y-42767051D02*
X145863284Y-42767051D01*
X113634386Y-59890010D02*
X133700391Y-59890010D01*
X145863284Y-42767051D02*
X146317294Y-42313041D01*
%TO.N,Net-(D9-Pad2)*%
X159258000Y-40132000D02*
X159258000Y-39370000D01*
X158892999Y-40497001D02*
X159258000Y-40132000D01*
X156233066Y-40497001D02*
X158892999Y-40497001D01*
X155779056Y-40951011D02*
X156233066Y-40497001D01*
X152865123Y-40951011D02*
X155779056Y-40951011D01*
X150005180Y-41405021D02*
X152411113Y-41405021D01*
X149551170Y-41859031D02*
X150005180Y-41405021D01*
X117633750Y-128428750D02*
X112680750Y-128428750D01*
X135636000Y-43984396D02*
X136440396Y-43180000D01*
X152411113Y-41405021D02*
X152865123Y-40951011D01*
X112680750Y-128428750D02*
X112014000Y-127762000D01*
X133512334Y-59436000D02*
X135636000Y-57312334D01*
X142910334Y-43180000D02*
X143777293Y-42313041D01*
X112014000Y-127762000D02*
X112014000Y-60868330D01*
X143777293Y-42313041D02*
X145675227Y-42313041D01*
X112014000Y-60868330D02*
X113446330Y-59436000D01*
X136440396Y-43180000D02*
X142910334Y-43180000D01*
X113446330Y-59436000D02*
X133512334Y-59436000D01*
X135636000Y-57312334D02*
X135636000Y-43984396D01*
X145675227Y-42313041D02*
X146129237Y-41859031D01*
X146129237Y-41859031D02*
X149551170Y-41859031D01*
%TO.N,Net-(D10-Pad2)*%
X143141530Y-147478750D02*
X149390040Y-141230240D01*
X136683750Y-147478750D02*
X143141530Y-147478750D01*
X149390040Y-141230240D02*
X149390040Y-55856092D01*
X150302056Y-54944076D02*
X152319924Y-54944076D01*
X149390040Y-55856092D02*
X150302056Y-54944076D01*
X152319924Y-54944076D02*
X152908000Y-54356000D01*
X152908000Y-54356000D02*
X155448000Y-54356000D01*
X155956000Y-53848000D02*
X155956000Y-53086000D01*
X155448000Y-54356000D02*
X155956000Y-53848000D01*
%TO.N,Net-(D14-Pad2)*%
X143141530Y-128428750D02*
X148936030Y-122634250D01*
X136683750Y-128428750D02*
X143141530Y-128428750D01*
X148936030Y-55668036D02*
X150114000Y-54490066D01*
X148936030Y-122634250D02*
X148936030Y-55668036D01*
X150114000Y-54490066D02*
X152011934Y-54490066D01*
X152654000Y-53848000D02*
X152654000Y-53086000D01*
X152011934Y-54490066D02*
X152654000Y-53848000D01*
%TO.N,Net-(D16-Pad2)*%
X159909962Y-54102000D02*
X162306000Y-54102000D01*
X156421122Y-54667011D02*
X159344951Y-54667011D01*
X162306000Y-54102000D02*
X162560000Y-53848000D01*
X155770123Y-55318010D02*
X156421122Y-54667011D01*
X153350057Y-55318010D02*
X155770123Y-55318010D01*
X152815971Y-55852096D02*
X153350057Y-55318010D01*
X150783970Y-55852096D02*
X152815971Y-55852096D01*
X162560000Y-53848000D02*
X162560000Y-53086000D01*
X159344951Y-54667011D02*
X159909962Y-54102000D01*
X150368000Y-56268066D02*
X150783970Y-55852096D01*
X150368000Y-104140000D02*
X150368000Y-56268066D01*
X152431750Y-106203750D02*
X150368000Y-104140000D01*
X157003750Y-106203750D02*
X152431750Y-106203750D01*
%TO.N,Net-(D18-Pad2)*%
X169164000Y-53848000D02*
X169164000Y-53086000D01*
X168656000Y-54356000D02*
X169164000Y-53848000D01*
X165461980Y-55010020D02*
X166116000Y-54356000D01*
X166116000Y-54356000D02*
X168656000Y-54356000D01*
X160381980Y-55010020D02*
X165461980Y-55010020D01*
X159816969Y-55575031D02*
X160381980Y-55010020D01*
X191150000Y-89575000D02*
X191150000Y-86502000D01*
X156146237Y-56226030D02*
X156797236Y-55575031D01*
X191150000Y-86502000D02*
X189795999Y-85147999D01*
X168910000Y-66040000D02*
X167386000Y-64516000D01*
X189795999Y-85147999D02*
X170491999Y-85147999D01*
X170491999Y-85147999D02*
X168910000Y-83566000D01*
X151384000Y-58568199D02*
X153726169Y-56226030D01*
X156797236Y-55575031D02*
X159816969Y-55575031D01*
X168910000Y-83566000D02*
X168910000Y-66040000D01*
X167386000Y-64516000D02*
X152908000Y-64516000D01*
X152908000Y-64516000D02*
X151384000Y-62992000D01*
X151384000Y-62992000D02*
X151384000Y-58568199D01*
X153726169Y-56226030D02*
X156146237Y-56226030D01*
%TO.N,Net-(D19-Pad2)*%
X172466000Y-53594000D02*
X172466000Y-53086000D01*
X171958000Y-54102000D02*
X172466000Y-53594000D01*
X168963990Y-54810010D02*
X169672000Y-54102000D01*
X160570037Y-55464030D02*
X165650037Y-55464030D01*
X156985293Y-56029041D02*
X160005026Y-56029041D01*
X160005026Y-56029041D02*
X160570037Y-55464030D01*
X156334294Y-56680040D02*
X156985293Y-56029041D01*
X151838010Y-58756255D02*
X153914225Y-56680040D01*
X189984056Y-84693989D02*
X170680055Y-84693989D01*
X194818000Y-111307000D02*
X194818000Y-89527934D01*
X194818000Y-89527934D02*
X189984056Y-84693989D01*
X169672000Y-54102000D02*
X171958000Y-54102000D01*
X169364010Y-83377944D02*
X169364010Y-65851943D01*
X170680055Y-84693989D02*
X169364010Y-83377944D01*
X169364010Y-65851943D02*
X169098056Y-65585990D01*
X191150000Y-114975000D02*
X194818000Y-111307000D01*
X169098056Y-65585990D02*
X167574057Y-64061990D01*
X166304057Y-54810010D02*
X168963990Y-54810010D01*
X167574057Y-64061990D02*
X153096056Y-64061990D01*
X153096056Y-64061990D02*
X151838010Y-62803944D01*
X151838010Y-62803944D02*
X151838010Y-58756255D01*
X165650037Y-55464030D02*
X166304057Y-54810010D01*
X153914225Y-56680040D02*
X156334294Y-56680040D01*
%TO.N,Net-(D20-Pad2)*%
X169152047Y-55264020D02*
X169860057Y-54556010D01*
X166492114Y-55264020D02*
X169152047Y-55264020D01*
X165838094Y-55918040D02*
X166492114Y-55264020D01*
X157173349Y-56483051D02*
X160193083Y-56483051D01*
X173593001Y-40497001D02*
X172466000Y-39370000D01*
X160758094Y-55918040D02*
X165838094Y-55918040D01*
X191150000Y-140375000D02*
X195272010Y-136252990D01*
X160193083Y-56483051D02*
X160758094Y-55918040D01*
X169818018Y-65663885D02*
X167762114Y-63607980D01*
X195272010Y-136252990D02*
X195272010Y-89339877D01*
X153284112Y-63607980D02*
X152292020Y-62615888D01*
X156522351Y-57134049D02*
X157173349Y-56483051D01*
X190172113Y-84239979D02*
X170868111Y-84239979D01*
X170868111Y-84239979D02*
X169818111Y-83189979D01*
X169818111Y-83189979D02*
X169818018Y-65663885D01*
X195272010Y-89339877D02*
X190172113Y-84239979D01*
X154102281Y-57134050D02*
X156522351Y-57134049D01*
X167762114Y-63607980D02*
X153284112Y-63607980D01*
X152292020Y-62615888D02*
X152292020Y-58944311D01*
X152292020Y-58944311D02*
X154102281Y-57134050D01*
X169860057Y-54556010D02*
X173789990Y-54556010D01*
X173789990Y-54556010D02*
X174498000Y-53848000D01*
X174498000Y-41402000D02*
X173593001Y-40497001D01*
X174498000Y-53848000D02*
X174498000Y-41402000D01*
%TO.N,Net-(R1-Pad2)*%
X182356050Y-38338050D02*
X179070000Y-35052000D01*
X182356050Y-65992450D02*
X182356050Y-38338050D01*
X179133500Y-69215000D02*
X182356050Y-65992450D01*
%TO.N,Net-(R2-Pad2)*%
X181902040Y-40932040D02*
X179070000Y-38100000D01*
X181902040Y-63271460D02*
X181902040Y-40932040D01*
X179133500Y-66040000D02*
X181902040Y-63271460D01*
%TO.N,Net-(R3-Pad2)*%
X181448030Y-43526030D02*
X179070000Y-41148000D01*
X181448030Y-60550470D02*
X181448030Y-43526030D01*
X179133500Y-62865000D02*
X181448030Y-60550470D01*
%TO.N,Net-(R10-Pad2)*%
X180994020Y-46120020D02*
X179070000Y-44196000D01*
X180994020Y-57829480D02*
X180994020Y-46120020D01*
X179133500Y-59690000D02*
X180994020Y-57829480D01*
%TO.N,Net-(R11-Pad2)*%
X179133500Y-56515000D02*
X180540010Y-55108490D01*
X180540010Y-48714010D02*
X179070000Y-47244000D01*
X180540010Y-55108490D02*
X180540010Y-48714010D01*
%TO.N,Net-(R12-Pad2)*%
X179133500Y-53340000D02*
X179832000Y-53340000D01*
X180086000Y-50800000D02*
X179578000Y-50292000D01*
X180086000Y-52578000D02*
X180086000Y-50800000D01*
X179324000Y-53340000D02*
X180086000Y-52578000D01*
X179578000Y-50292000D02*
X179070000Y-50292000D01*
X179133500Y-53340000D02*
X179324000Y-53340000D01*
%TO.N,COL5*%
X191150000Y-94575000D02*
X188550991Y-94575000D01*
X188550991Y-94575000D02*
X179578000Y-85602009D01*
X170303942Y-85602009D02*
X168402000Y-83700067D01*
X179578000Y-85602009D02*
X170303942Y-85602009D01*
X168402000Y-83700067D02*
X168402000Y-81534000D01*
X168402000Y-66294000D02*
X167132000Y-65024000D01*
X168402000Y-81534000D02*
X168402000Y-66294000D01*
X167132000Y-65024000D02*
X151892000Y-65024000D01*
X189822999Y-121302001D02*
X191150000Y-119975000D01*
X189822999Y-144047999D02*
X189822999Y-121302001D01*
X191150000Y-145375000D02*
X189822999Y-144047999D01*
X189822999Y-95902001D02*
X191150000Y-94575000D01*
X189822999Y-118647999D02*
X189822999Y-95902001D01*
X191150000Y-119975000D02*
X189822999Y-118647999D01*
%TD*%
M02*
