%TF.GenerationSoftware,KiCad,Pcbnew,(5.1.10)-1*%
%TF.CreationDate,2021-10-28T11:13:53+08:00*%
%TF.ProjectId,EGPad,45475061-642e-46b6-9963-61645f706362,rev?*%
%TF.SameCoordinates,Original*%
%TF.FileFunction,Soldermask,Top*%
%TF.FilePolarity,Negative*%
%FSLAX46Y46*%
G04 Gerber Fmt 4.6, Leading zero omitted, Abs format (unit mm)*
G04 Created by KiCad (PCBNEW (5.1.10)-1) date 2021-10-28 11:13:53*
%MOMM*%
%LPD*%
G01*
G04 APERTURE LIST*
%ADD10C,1.750000*%
%ADD11C,3.987800*%
%ADD12C,3.048000*%
%ADD13R,1.600000X1.600000*%
%ADD14O,1.600000X1.600000*%
%ADD15C,1.752600*%
%ADD16R,1.752600X1.752600*%
%ADD17C,2.000000*%
%ADD18R,3.200000X2.000000*%
%ADD19R,2.000000X2.000000*%
%ADD20C,1.651000*%
%ADD21R,0.800000X0.750000*%
G04 APERTURE END LIST*
D10*
%TO.C,MX15*%
X164623750Y-73818750D03*
X154463750Y-73818750D03*
D11*
X159543750Y-73818750D03*
%TD*%
%TO.C,MX5*%
X111918750Y-150018750D03*
D10*
X106838750Y-150018750D03*
X116998750Y-150018750D03*
D12*
X99980750Y-143033750D03*
X123856750Y-143033750D03*
D11*
X99980750Y-158273750D03*
X123856750Y-158273750D03*
%TD*%
%TO.C,MX17*%
X159543750Y-140493750D03*
D10*
X159543750Y-145573750D03*
X159543750Y-135413750D03*
D12*
X152558750Y-152431750D03*
X152558750Y-128555750D03*
D11*
X167798750Y-152431750D03*
X167798750Y-128555750D03*
%TD*%
%TO.C,MX16*%
X159543750Y-102393750D03*
D10*
X159543750Y-107473750D03*
X159543750Y-97313750D03*
D12*
X152558750Y-114331750D03*
X152558750Y-90455750D03*
D11*
X167798750Y-114331750D03*
X167798750Y-90455750D03*
%TD*%
D10*
%TO.C,MX11*%
X145573750Y-73818750D03*
X135413750Y-73818750D03*
D11*
X140493750Y-73818750D03*
%TD*%
D10*
%TO.C,MX8*%
X126523750Y-111918750D03*
X116363750Y-111918750D03*
D11*
X121443750Y-111918750D03*
%TD*%
D10*
%TO.C,MX4*%
X107473750Y-130968750D03*
X97313750Y-130968750D03*
D11*
X102393750Y-130968750D03*
%TD*%
D10*
%TO.C,MX14*%
X145573750Y-130968750D03*
X135413750Y-130968750D03*
D11*
X140493750Y-130968750D03*
%TD*%
D10*
%TO.C,MX13*%
X145573750Y-111918750D03*
X135413750Y-111918750D03*
D11*
X140493750Y-111918750D03*
%TD*%
D10*
%TO.C,MX12*%
X145573750Y-92868750D03*
X135413750Y-92868750D03*
D11*
X140493750Y-92868750D03*
%TD*%
D10*
%TO.C,MX10*%
X145573750Y-150018750D03*
X135413750Y-150018750D03*
D11*
X140493750Y-150018750D03*
%TD*%
D10*
%TO.C,MX9*%
X126523750Y-130968750D03*
X116363750Y-130968750D03*
D11*
X121443750Y-130968750D03*
%TD*%
D10*
%TO.C,MX7*%
X126523750Y-92868750D03*
X116363750Y-92868750D03*
D11*
X121443750Y-92868750D03*
%TD*%
D10*
%TO.C,MX6*%
X126523750Y-73818750D03*
X116363750Y-73818750D03*
D11*
X121443750Y-73818750D03*
%TD*%
D10*
%TO.C,MX3*%
X107473750Y-111918750D03*
X97313750Y-111918750D03*
D11*
X102393750Y-111918750D03*
%TD*%
D10*
%TO.C,MX2*%
X107473750Y-92868750D03*
X97313750Y-92868750D03*
D11*
X102393750Y-92868750D03*
%TD*%
D10*
%TO.C,MX1*%
X107473750Y-73818750D03*
X97313750Y-73818750D03*
D11*
X102393750Y-73818750D03*
%TD*%
D13*
%TO.C,D20*%
X172466000Y-34290000D03*
D14*
X172466000Y-39370000D03*
%TD*%
D13*
%TO.C,D19*%
X172466000Y-48006000D03*
D14*
X172466000Y-53086000D03*
%TD*%
D13*
%TO.C,D18*%
X169164000Y-48006000D03*
D14*
X169164000Y-53086000D03*
%TD*%
D13*
%TO.C,D17*%
X159258000Y-48006000D03*
D14*
X159258000Y-53086000D03*
%TD*%
D13*
%TO.C,D16*%
X162560000Y-48006000D03*
D14*
X162560000Y-53086000D03*
%TD*%
D13*
%TO.C,D15*%
X165862000Y-48006000D03*
D14*
X165862000Y-53086000D03*
%TD*%
%TO.C,D14*%
X152654000Y-53086000D03*
D13*
X152654000Y-48006000D03*
%TD*%
%TO.C,D13*%
X149352000Y-48006000D03*
D14*
X149352000Y-53086000D03*
%TD*%
D13*
%TO.C,D12*%
X146050000Y-48006000D03*
D14*
X146050000Y-53086000D03*
%TD*%
D13*
%TO.C,D11*%
X142748000Y-48006000D03*
D14*
X142748000Y-53086000D03*
%TD*%
D13*
%TO.C,D10*%
X155956000Y-48006000D03*
D14*
X155956000Y-53086000D03*
%TD*%
D13*
%TO.C,D9*%
X159258000Y-34290000D03*
D14*
X159258000Y-39370000D03*
%TD*%
D13*
%TO.C,D8*%
X162560000Y-34290000D03*
D14*
X162560000Y-39370000D03*
%TD*%
D13*
%TO.C,D7*%
X165862000Y-34290000D03*
D14*
X165862000Y-39370000D03*
%TD*%
D13*
%TO.C,D6*%
X169164000Y-34290000D03*
D14*
X169164000Y-39370000D03*
%TD*%
D13*
%TO.C,D5*%
X155956000Y-34290000D03*
D14*
X155956000Y-39370000D03*
%TD*%
D13*
%TO.C,D4*%
X152654000Y-34290000D03*
D14*
X152654000Y-39370000D03*
%TD*%
D13*
%TO.C,D3*%
X149352000Y-34290000D03*
D14*
X149352000Y-39370000D03*
%TD*%
D13*
%TO.C,D2*%
X146050000Y-34290000D03*
D14*
X146050000Y-39370000D03*
%TD*%
D13*
%TO.C,D1*%
X142748000Y-34290000D03*
D14*
X142748000Y-39370000D03*
%TD*%
D15*
%TO.C,U1*%
X103033610Y-35040202D03*
X130973610Y-55280202D03*
X105573610Y-35040202D03*
X108113610Y-35040202D03*
X110653610Y-35040202D03*
X113193610Y-35040202D03*
X115733610Y-35040202D03*
X118273610Y-35040202D03*
X120813610Y-35040202D03*
X123353610Y-35040202D03*
X125893610Y-35040202D03*
X128433610Y-35040202D03*
X130973610Y-35040202D03*
X128433610Y-55280202D03*
X125893610Y-55280202D03*
X123353610Y-55280202D03*
X120813610Y-55280202D03*
X118273610Y-55280202D03*
X115733610Y-55280202D03*
X113193610Y-55280202D03*
X110653610Y-55280202D03*
X108113610Y-55280202D03*
X105573610Y-55280202D03*
D16*
X103033610Y-55280202D03*
%TD*%
D17*
%TO.C,M2*%
X137160000Y-37338000D03*
%TD*%
%TO.C,M2*%
X184150000Y-104775000D03*
%TD*%
%TO.C,M2*%
X130968750Y-121443750D03*
%TD*%
%TO.C,M2*%
X130968750Y-83343750D03*
%TD*%
%TO.C,M2*%
X93662500Y-158750000D03*
%TD*%
%TO.C,M2*%
X196850000Y-158750000D03*
%TD*%
%TO.C,M2*%
X195262500Y-60325000D03*
%TD*%
%TO.C,M2*%
X95250000Y-60325000D03*
%TD*%
%TO.C,SW3*%
X191150000Y-145375000D03*
X191150000Y-140375000D03*
D18*
X184150000Y-148475000D03*
X184150000Y-137275000D03*
D17*
X176650000Y-145375000D03*
X176650000Y-142875000D03*
D19*
X176650000Y-140375000D03*
%TD*%
D17*
%TO.C,SW2*%
X191150000Y-119975000D03*
X191150000Y-114975000D03*
D18*
X184150000Y-123075000D03*
X184150000Y-111875000D03*
D17*
X176650000Y-119975000D03*
X176650000Y-117475000D03*
D19*
X176650000Y-114975000D03*
%TD*%
D17*
%TO.C,SW1*%
X191150000Y-94575000D03*
X191150000Y-89575000D03*
D18*
X184150000Y-97675000D03*
X184150000Y-86475000D03*
D17*
X176650000Y-94575000D03*
X176650000Y-92075000D03*
D19*
X176650000Y-89575000D03*
%TD*%
D20*
%TO.C,R12*%
X189293500Y-53340000D03*
X179133500Y-53340000D03*
%TD*%
%TO.C,R11*%
X189293500Y-56515000D03*
X179133500Y-56515000D03*
%TD*%
%TO.C,R10*%
X189293500Y-59690000D03*
X179133500Y-59690000D03*
%TD*%
%TO.C,R9*%
X189293500Y-62865000D03*
X179133500Y-62865000D03*
%TD*%
%TO.C,R8*%
X189293500Y-66040000D03*
X179133500Y-66040000D03*
%TD*%
%TO.C,R7*%
X189293500Y-69215000D03*
X179133500Y-69215000D03*
%TD*%
%TO.C,R6*%
X189230000Y-50292000D03*
X179070000Y-50292000D03*
%TD*%
%TO.C,R5*%
X189230000Y-47244000D03*
X179070000Y-47244000D03*
%TD*%
%TO.C,R4*%
X189230000Y-44196000D03*
X179070000Y-44196000D03*
%TD*%
%TO.C,R3*%
X189230000Y-41148000D03*
X179070000Y-41148000D03*
%TD*%
%TO.C,R2*%
X189230000Y-38100000D03*
X179070000Y-38100000D03*
%TD*%
%TO.C,R1*%
X189230000Y-35052000D03*
X179070000Y-35052000D03*
%TD*%
D21*
%TO.C,C6*%
X194552000Y-50292000D03*
X193052000Y-50292000D03*
%TD*%
%TO.C,C5*%
X194552000Y-47244000D03*
X193052000Y-47244000D03*
%TD*%
%TO.C,C4*%
X194552000Y-44196000D03*
X193052000Y-44196000D03*
%TD*%
%TO.C,C3*%
X194552000Y-41148000D03*
X193052000Y-41148000D03*
%TD*%
%TO.C,C2*%
X194552000Y-38100000D03*
X193052000Y-38100000D03*
%TD*%
%TO.C,C1*%
X194552000Y-35052000D03*
X193052000Y-35052000D03*
%TD*%
M02*
