M48
; DRILL file {KiCad (5.1.10)-1} date 10/30/21 13:12:38
; FORMAT={-:-/ absolute / inch / decimal}
; #@! TF.CreationDate,2021-10-30T13:12:38+08:00
; #@! TF.GenerationSoftware,Kicad,Pcbnew,(5.1.10)-1
; #@! TF.FileFunction,Plated,1,2,PTH
FMAT,2
INCH
T1C0.0157
T2C0.0315
T3C0.0320
T4C0.0390
T5C0.0394
T6C0.0409
T7C0.0512
T8C0.0579
%
G90
G05
T1
X5.7597Y-2.2155
X6.4288Y-1.515
X6.5503Y-2.1473
X6.985Y-2.3189
X6.9891Y-2.1486
X6.99Y-2.19
T2
X3.94Y-2.095
X3.94Y-2.295
X4.07Y-2.095
X4.07Y-2.295
X4.2Y-2.095
X4.2Y-2.295
X4.33Y-2.095
X4.33Y-2.295
X4.46Y-2.095
X4.46Y-2.295
X4.59Y-2.095
X4.59Y-2.295
X4.72Y-2.095
X4.72Y-2.295
X4.85Y-2.095
X4.85Y-2.295
X4.98Y-2.095
X4.98Y-2.295
X5.11Y-2.095
X5.11Y-2.295
X5.24Y-2.095
X5.24Y-2.295
X5.37Y-2.095
X5.37Y-2.295
X5.5Y-2.095
X5.5Y-2.295
X5.63Y-2.095
X5.63Y-2.295
X5.76Y-2.095
X5.76Y-2.295
X5.89Y-2.095
X5.89Y-2.295
X6.02Y-2.095
X6.02Y-2.295
X6.15Y-2.095
X6.15Y-2.295
X6.28Y-2.095
X6.28Y-2.295
X6.41Y-2.095
X6.41Y-2.295
T3
X6.85Y-1.515
X6.85Y-1.615
X6.85Y-1.715
X6.85Y-1.815
X6.85Y-1.915
X6.85Y-2.015
X6.85Y-2.115
X6.85Y-2.215
X6.85Y-2.315
X6.85Y-2.415
X6.85Y-2.515
X6.85Y-2.615
X6.9022Y-1.465
X6.9022Y-1.565
X6.9022Y-1.665
X6.9022Y-1.765
X6.9022Y-1.865
X6.9022Y-1.965
X6.9022Y-2.065
X6.9022Y-2.165
X6.9022Y-2.265
X6.9022Y-2.365
X6.9022Y-2.465
X6.9022Y-2.565
X7.01Y-2.77
X7.065Y-2.905
X7.065Y-3.01
X7.11Y-2.77
X7.21Y-2.77
X7.265Y-2.905
X7.265Y-3.01
X7.31Y-2.77
X7.45Y-1.515
X7.45Y-1.615
X7.45Y-1.715
X7.45Y-1.815
X7.45Y-1.915
X7.45Y-2.015
X7.45Y-2.115
X7.45Y-2.215
X7.45Y-2.315
X7.45Y-2.415
X7.45Y-2.515
X7.45Y-2.615
X7.5014Y-1.465
X7.5014Y-1.565
X7.5014Y-1.665
X7.5014Y-1.765
X7.5014Y-1.865
X7.5014Y-1.965
X7.5014Y-2.065
X7.5014Y-2.165
X7.5014Y-2.265
X7.5014Y-2.365
X7.5014Y-2.465
X7.5014Y-2.565
T4
X3.94Y-1.395
X3.94Y-1.795
X4.1339Y-1.3925
X4.1339Y-1.7925
X4.3307Y-1.3925
X4.3307Y-1.7925
X4.5276Y-1.3925
X4.5276Y-1.7925
X4.7244Y-1.3925
X4.7244Y-1.7925
X4.9213Y-1.395
X4.9213Y-1.795
X5.1181Y-1.395
X5.1181Y-1.795
X5.315Y-1.395
X5.315Y-1.795
X5.5118Y-1.395
X5.5118Y-1.795
X5.7087Y-1.395
X5.7087Y-1.795
X5.9055Y-1.395
X5.9055Y-1.795
X6.1024Y-1.395
X6.1024Y-1.795
T5
X6.9947Y-3.7366
X6.9947Y-3.835
X6.9947Y-3.9334
X6.9947Y-4.7366
X6.9947Y-4.835
X6.9947Y-4.9334
X6.9947Y-5.7366
X6.9947Y-5.835
X6.9947Y-5.9334
X7.5656Y-3.7366
X7.5656Y-3.9334
X7.5656Y-4.7366
X7.5656Y-4.9334
X7.5656Y-5.7366
X7.5656Y-5.9334
T6
X4.3563Y-6.1063
X4.4563Y-6.1063
X6.4813Y-3.9813
X6.4813Y-4.0813
X6.4813Y-5.4813
X6.4813Y-5.5813
T7
X7.47Y-2.742
X7.47Y-2.998
T8
X3.8813Y-2.8063
X3.8813Y-3.5563
X3.8813Y-4.3063
X3.8813Y-5.0563
X3.9328Y-2.7488
X3.9328Y-3.4988
X3.9328Y-4.2488
X3.9328Y-4.9988
X4.1297Y-2.7291
X4.1297Y-3.4791
X4.1297Y-4.2291
X4.1297Y-4.9791
X4.1313Y-2.7063
X4.1313Y-3.4563
X4.1313Y-4.2063
X4.1313Y-4.9563
X4.2563Y-5.8063
X4.3078Y-5.7488
X4.5047Y-5.7291
X4.5063Y-5.7063
X4.6313Y-2.8063
X4.6313Y-3.5563
X4.6313Y-4.3063
X4.6313Y-5.0563
X4.6828Y-2.7488
X4.6828Y-3.4988
X4.6828Y-4.2488
X4.6828Y-4.9988
X4.8797Y-2.7291
X4.8797Y-3.4791
X4.8797Y-4.2291
X4.8797Y-4.9791
X4.8813Y-2.7063
X4.8813Y-3.4563
X4.8813Y-4.2063
X4.8813Y-4.9563
X5.3813Y-2.8063
X5.3813Y-3.5563
X5.3813Y-4.3063
X5.3813Y-5.0563
X5.3813Y-5.8063
X5.4328Y-2.7488
X5.4328Y-3.4988
X5.4328Y-4.2488
X5.4328Y-4.9988
X5.4328Y-5.7488
X5.6297Y-2.7291
X5.6297Y-3.4791
X5.6297Y-4.2291
X5.6297Y-4.9791
X5.6297Y-5.7291
X5.6313Y-2.7063
X5.6313Y-3.4563
X5.6313Y-4.2063
X5.6313Y-4.9563
X5.6313Y-5.7063
X6.0813Y-3.9313
X6.0813Y-5.4313
X6.1041Y-3.9328
X6.1041Y-5.4328
X6.1238Y-4.1297
X6.1238Y-5.6297
X6.1313Y-2.8063
X6.1813Y-4.1813
X6.1813Y-5.6813
X6.1828Y-2.7488
X6.3797Y-2.7291
X6.3813Y-2.7063
T0
M30
