%TF.GenerationSoftware,KiCad,Pcbnew,(5.1.10)-1*%
%TF.CreationDate,2021-10-30T13:12:34+08:00*%
%TF.ProjectId,EGPad,45475061-642e-46b6-9963-61645f706362,rev?*%
%TF.SameCoordinates,Original*%
%TF.FileFunction,Legend,Bot*%
%TF.FilePolarity,Positive*%
%FSLAX46Y46*%
G04 Gerber Fmt 4.6, Leading zero omitted, Abs format (unit mm)*
G04 Created by KiCad (PCBNEW (5.1.10)-1) date 2021-10-30 13:12:34*
%MOMM*%
%LPD*%
G01*
G04 APERTURE LIST*
%ADD10C,0.150000*%
%ADD11C,0.125000*%
G04 APERTURE END LIST*
D10*
%TO.C,JP8*%
X178943000Y-67691000D02*
X178943000Y-65405000D01*
X178943000Y-65405000D02*
X177165000Y-65405000D01*
X177165000Y-65405000D02*
X177165000Y-67691000D01*
X177165000Y-67691000D02*
X178943000Y-67691000D01*
%TO.C,JP7*%
X181483000Y-67691000D02*
X181483000Y-65405000D01*
X181483000Y-65405000D02*
X179705000Y-65405000D01*
X179705000Y-65405000D02*
X179705000Y-67691000D01*
X179705000Y-67691000D02*
X181483000Y-67691000D01*
%TO.C,JP6*%
X184023000Y-67698600D02*
X184023000Y-65412600D01*
X184023000Y-65412600D02*
X182245000Y-65412600D01*
X182245000Y-65412600D02*
X182245000Y-67698600D01*
X182245000Y-67698600D02*
X184023000Y-67698600D01*
%TO.C,JP5*%
X184785000Y-67691000D02*
X186563000Y-67691000D01*
X184785000Y-65405000D02*
X184785000Y-67691000D01*
X186563000Y-65405000D02*
X184785000Y-65405000D01*
X186563000Y-67691000D02*
X186563000Y-65405000D01*
%TO.C,U1*%
X172720000Y-67691000D02*
X172720000Y-37211000D01*
X175260000Y-67691000D02*
X172720000Y-67691000D01*
X175260000Y-37211000D02*
X175260000Y-67691000D01*
X172720000Y-37211000D02*
X175260000Y-37211000D01*
X187960000Y-67691000D02*
X187960000Y-37211000D01*
X190500000Y-67691000D02*
X187960000Y-67691000D01*
X190500000Y-37211000D02*
X190500000Y-67691000D01*
X187960000Y-37211000D02*
X190500000Y-37211000D01*
%TO.C,RSW1*%
X191238000Y-69898000D02*
X191488000Y-69898000D01*
X191488000Y-69898000D02*
X191488000Y-75898000D01*
X191488000Y-75898000D02*
X191238000Y-75898000D01*
X188238000Y-75898000D02*
X187988000Y-75898000D01*
X187988000Y-75898000D02*
X187988000Y-69898000D01*
X187988000Y-69898000D02*
X188238000Y-69898000D01*
%TO.C,R14*%
X180491000Y-75454000D02*
X183491000Y-75454000D01*
X183491000Y-75454000D02*
X183491000Y-77454000D01*
X183491000Y-77454000D02*
X180491000Y-77454000D01*
X180491000Y-77454000D02*
X180491000Y-75454000D01*
%TO.C,R13*%
X180491000Y-72787000D02*
X183491000Y-72787000D01*
X183491000Y-72787000D02*
X183491000Y-74787000D01*
X183491000Y-74787000D02*
X180491000Y-74787000D01*
X180491000Y-74787000D02*
X180491000Y-72787000D01*
%TO.C,J1*%
X176784000Y-69088000D02*
X186944000Y-69088000D01*
X186944000Y-69088000D02*
X186944000Y-71628000D01*
X186944000Y-71628000D02*
X176784000Y-71628000D01*
X176784000Y-71628000D02*
X176784000Y-69088000D01*
%TO.C,R12*%
X105000000Y-43449500D02*
X105000000Y-44649500D01*
X104200000Y-37649500D02*
X105000000Y-37449500D01*
X104000000Y-37849500D02*
X104200000Y-37649500D01*
X104000000Y-38249500D02*
X104000000Y-37849500D01*
X104200000Y-38449500D02*
X104000000Y-38249500D01*
X104200000Y-42449500D02*
X104200000Y-38449500D01*
X104000000Y-42649500D02*
X104200000Y-42449500D01*
X104000000Y-43049500D02*
X104000000Y-42649500D01*
X104200000Y-43249500D02*
X104000000Y-43049500D01*
X105000000Y-43449500D02*
X104200000Y-43249500D01*
X105800000Y-43249500D02*
X105000000Y-43449500D01*
X106000000Y-43049500D02*
X105800000Y-43249500D01*
X106000000Y-42649500D02*
X106000000Y-43049500D01*
X105800000Y-42449500D02*
X106000000Y-42649500D01*
X105800000Y-38449500D02*
X105800000Y-42449500D01*
X106000000Y-38249500D02*
X105800000Y-38449500D01*
X106000000Y-37849500D02*
X106000000Y-38249500D01*
X105800000Y-37649500D02*
X106000000Y-37849500D01*
X105000000Y-37449500D02*
X105800000Y-37649500D01*
X105000000Y-36249500D02*
X105000000Y-37449500D01*
%TO.C,R11*%
X110000000Y-43449500D02*
X110000000Y-44649500D01*
X109200000Y-37649500D02*
X110000000Y-37449500D01*
X109000000Y-37849500D02*
X109200000Y-37649500D01*
X109000000Y-38249500D02*
X109000000Y-37849500D01*
X109200000Y-38449500D02*
X109000000Y-38249500D01*
X109200000Y-42449500D02*
X109200000Y-38449500D01*
X109000000Y-42649500D02*
X109200000Y-42449500D01*
X109000000Y-43049500D02*
X109000000Y-42649500D01*
X109200000Y-43249500D02*
X109000000Y-43049500D01*
X110000000Y-43449500D02*
X109200000Y-43249500D01*
X110800000Y-43249500D02*
X110000000Y-43449500D01*
X111000000Y-43049500D02*
X110800000Y-43249500D01*
X111000000Y-42649500D02*
X111000000Y-43049500D01*
X110800000Y-42449500D02*
X111000000Y-42649500D01*
X110800000Y-38449500D02*
X110800000Y-42449500D01*
X111000000Y-38249500D02*
X110800000Y-38449500D01*
X111000000Y-37849500D02*
X111000000Y-38249500D01*
X110800000Y-37649500D02*
X111000000Y-37849500D01*
X110000000Y-37449500D02*
X110800000Y-37649500D01*
X110000000Y-36249500D02*
X110000000Y-37449500D01*
%TO.C,R10*%
X115000000Y-43449500D02*
X115000000Y-44649500D01*
X114200000Y-37649500D02*
X115000000Y-37449500D01*
X114000000Y-37849500D02*
X114200000Y-37649500D01*
X114000000Y-38249500D02*
X114000000Y-37849500D01*
X114200000Y-38449500D02*
X114000000Y-38249500D01*
X114200000Y-42449500D02*
X114200000Y-38449500D01*
X114000000Y-42649500D02*
X114200000Y-42449500D01*
X114000000Y-43049500D02*
X114000000Y-42649500D01*
X114200000Y-43249500D02*
X114000000Y-43049500D01*
X115000000Y-43449500D02*
X114200000Y-43249500D01*
X115800000Y-43249500D02*
X115000000Y-43449500D01*
X116000000Y-43049500D02*
X115800000Y-43249500D01*
X116000000Y-42649500D02*
X116000000Y-43049500D01*
X115800000Y-42449500D02*
X116000000Y-42649500D01*
X115800000Y-38449500D02*
X115800000Y-42449500D01*
X116000000Y-38249500D02*
X115800000Y-38449500D01*
X116000000Y-37849500D02*
X116000000Y-38249500D01*
X115800000Y-37649500D02*
X116000000Y-37849500D01*
X115000000Y-37449500D02*
X115800000Y-37649500D01*
X115000000Y-36249500D02*
X115000000Y-37449500D01*
%TO.C,R9*%
X120000000Y-43449500D02*
X120000000Y-44649500D01*
X119200000Y-37649500D02*
X120000000Y-37449500D01*
X119000000Y-37849500D02*
X119200000Y-37649500D01*
X119000000Y-38249500D02*
X119000000Y-37849500D01*
X119200000Y-38449500D02*
X119000000Y-38249500D01*
X119200000Y-42449500D02*
X119200000Y-38449500D01*
X119000000Y-42649500D02*
X119200000Y-42449500D01*
X119000000Y-43049500D02*
X119000000Y-42649500D01*
X119200000Y-43249500D02*
X119000000Y-43049500D01*
X120000000Y-43449500D02*
X119200000Y-43249500D01*
X120800000Y-43249500D02*
X120000000Y-43449500D01*
X121000000Y-43049500D02*
X120800000Y-43249500D01*
X121000000Y-42649500D02*
X121000000Y-43049500D01*
X120800000Y-42449500D02*
X121000000Y-42649500D01*
X120800000Y-38449500D02*
X120800000Y-42449500D01*
X121000000Y-38249500D02*
X120800000Y-38449500D01*
X121000000Y-37849500D02*
X121000000Y-38249500D01*
X120800000Y-37649500D02*
X121000000Y-37849500D01*
X120000000Y-37449500D02*
X120800000Y-37649500D01*
X120000000Y-36249500D02*
X120000000Y-37449500D01*
%TO.C,R8*%
X125000000Y-43513000D02*
X125000000Y-44713000D01*
X124200000Y-37713000D02*
X125000000Y-37513000D01*
X124000000Y-37913000D02*
X124200000Y-37713000D01*
X124000000Y-38313000D02*
X124000000Y-37913000D01*
X124200000Y-38513000D02*
X124000000Y-38313000D01*
X124200000Y-42513000D02*
X124200000Y-38513000D01*
X124000000Y-42713000D02*
X124200000Y-42513000D01*
X124000000Y-43113000D02*
X124000000Y-42713000D01*
X124200000Y-43313000D02*
X124000000Y-43113000D01*
X125000000Y-43513000D02*
X124200000Y-43313000D01*
X125800000Y-43313000D02*
X125000000Y-43513000D01*
X126000000Y-43113000D02*
X125800000Y-43313000D01*
X126000000Y-42713000D02*
X126000000Y-43113000D01*
X125800000Y-42513000D02*
X126000000Y-42713000D01*
X125800000Y-38513000D02*
X125800000Y-42513000D01*
X126000000Y-38313000D02*
X125800000Y-38513000D01*
X126000000Y-37913000D02*
X126000000Y-38313000D01*
X125800000Y-37713000D02*
X126000000Y-37913000D01*
X125000000Y-37513000D02*
X125800000Y-37713000D01*
X125000000Y-36313000D02*
X125000000Y-37513000D01*
%TO.C,R7*%
X130000000Y-43513000D02*
X130000000Y-44713000D01*
X129200000Y-37713000D02*
X130000000Y-37513000D01*
X129000000Y-37913000D02*
X129200000Y-37713000D01*
X129000000Y-38313000D02*
X129000000Y-37913000D01*
X129200000Y-38513000D02*
X129000000Y-38313000D01*
X129200000Y-42513000D02*
X129200000Y-38513000D01*
X129000000Y-42713000D02*
X129200000Y-42513000D01*
X129000000Y-43113000D02*
X129000000Y-42713000D01*
X129200000Y-43313000D02*
X129000000Y-43113000D01*
X130000000Y-43513000D02*
X129200000Y-43313000D01*
X130800000Y-43313000D02*
X130000000Y-43513000D01*
X131000000Y-43113000D02*
X130800000Y-43313000D01*
X131000000Y-42713000D02*
X131000000Y-43113000D01*
X130800000Y-42513000D02*
X131000000Y-42713000D01*
X130800000Y-38513000D02*
X130800000Y-42513000D01*
X131000000Y-38313000D02*
X130800000Y-38513000D01*
X131000000Y-37913000D02*
X131000000Y-38313000D01*
X130800000Y-37713000D02*
X131000000Y-37913000D01*
X130000000Y-37513000D02*
X130800000Y-37713000D01*
X130000000Y-36313000D02*
X130000000Y-37513000D01*
%TO.C,R6*%
X135000000Y-43513000D02*
X135000000Y-44713000D01*
X134200000Y-37713000D02*
X135000000Y-37513000D01*
X134000000Y-37913000D02*
X134200000Y-37713000D01*
X134000000Y-38313000D02*
X134000000Y-37913000D01*
X134200000Y-38513000D02*
X134000000Y-38313000D01*
X134200000Y-42513000D02*
X134200000Y-38513000D01*
X134000000Y-42713000D02*
X134200000Y-42513000D01*
X134000000Y-43113000D02*
X134000000Y-42713000D01*
X134200000Y-43313000D02*
X134000000Y-43113000D01*
X135000000Y-43513000D02*
X134200000Y-43313000D01*
X135800000Y-43313000D02*
X135000000Y-43513000D01*
X136000000Y-43113000D02*
X135800000Y-43313000D01*
X136000000Y-42713000D02*
X136000000Y-43113000D01*
X135800000Y-42513000D02*
X136000000Y-42713000D01*
X135800000Y-38513000D02*
X135800000Y-42513000D01*
X136000000Y-38313000D02*
X135800000Y-38513000D01*
X136000000Y-37913000D02*
X136000000Y-38313000D01*
X135800000Y-37713000D02*
X136000000Y-37913000D01*
X135000000Y-37513000D02*
X135800000Y-37713000D01*
X135000000Y-36313000D02*
X135000000Y-37513000D01*
%TO.C,R5*%
X140000000Y-43513000D02*
X140000000Y-44713000D01*
X139200000Y-37713000D02*
X140000000Y-37513000D01*
X139000000Y-37913000D02*
X139200000Y-37713000D01*
X139000000Y-38313000D02*
X139000000Y-37913000D01*
X139200000Y-38513000D02*
X139000000Y-38313000D01*
X139200000Y-42513000D02*
X139200000Y-38513000D01*
X139000000Y-42713000D02*
X139200000Y-42513000D01*
X139000000Y-43113000D02*
X139000000Y-42713000D01*
X139200000Y-43313000D02*
X139000000Y-43113000D01*
X140000000Y-43513000D02*
X139200000Y-43313000D01*
X140800000Y-43313000D02*
X140000000Y-43513000D01*
X141000000Y-43113000D02*
X140800000Y-43313000D01*
X141000000Y-42713000D02*
X141000000Y-43113000D01*
X140800000Y-42513000D02*
X141000000Y-42713000D01*
X140800000Y-38513000D02*
X140800000Y-42513000D01*
X141000000Y-38313000D02*
X140800000Y-38513000D01*
X141000000Y-37913000D02*
X141000000Y-38313000D01*
X140800000Y-37713000D02*
X141000000Y-37913000D01*
X140000000Y-37513000D02*
X140800000Y-37713000D01*
X140000000Y-36313000D02*
X140000000Y-37513000D01*
%TO.C,R4*%
X145000000Y-43513000D02*
X145000000Y-44713000D01*
X144200000Y-37713000D02*
X145000000Y-37513000D01*
X144000000Y-37913000D02*
X144200000Y-37713000D01*
X144000000Y-38313000D02*
X144000000Y-37913000D01*
X144200000Y-38513000D02*
X144000000Y-38313000D01*
X144200000Y-42513000D02*
X144200000Y-38513000D01*
X144000000Y-42713000D02*
X144200000Y-42513000D01*
X144000000Y-43113000D02*
X144000000Y-42713000D01*
X144200000Y-43313000D02*
X144000000Y-43113000D01*
X145000000Y-43513000D02*
X144200000Y-43313000D01*
X145800000Y-43313000D02*
X145000000Y-43513000D01*
X146000000Y-43113000D02*
X145800000Y-43313000D01*
X146000000Y-42713000D02*
X146000000Y-43113000D01*
X145800000Y-42513000D02*
X146000000Y-42713000D01*
X145800000Y-38513000D02*
X145800000Y-42513000D01*
X146000000Y-38313000D02*
X145800000Y-38513000D01*
X146000000Y-37913000D02*
X146000000Y-38313000D01*
X145800000Y-37713000D02*
X146000000Y-37913000D01*
X145000000Y-37513000D02*
X145800000Y-37713000D01*
X145000000Y-36313000D02*
X145000000Y-37513000D01*
%TO.C,R3*%
X150000000Y-43513000D02*
X150000000Y-44713000D01*
X149200000Y-37713000D02*
X150000000Y-37513000D01*
X149000000Y-37913000D02*
X149200000Y-37713000D01*
X149000000Y-38313000D02*
X149000000Y-37913000D01*
X149200000Y-38513000D02*
X149000000Y-38313000D01*
X149200000Y-42513000D02*
X149200000Y-38513000D01*
X149000000Y-42713000D02*
X149200000Y-42513000D01*
X149000000Y-43113000D02*
X149000000Y-42713000D01*
X149200000Y-43313000D02*
X149000000Y-43113000D01*
X150000000Y-43513000D02*
X149200000Y-43313000D01*
X150800000Y-43313000D02*
X150000000Y-43513000D01*
X151000000Y-43113000D02*
X150800000Y-43313000D01*
X151000000Y-42713000D02*
X151000000Y-43113000D01*
X150800000Y-42513000D02*
X151000000Y-42713000D01*
X150800000Y-38513000D02*
X150800000Y-42513000D01*
X151000000Y-38313000D02*
X150800000Y-38513000D01*
X151000000Y-37913000D02*
X151000000Y-38313000D01*
X150800000Y-37713000D02*
X151000000Y-37913000D01*
X150000000Y-37513000D02*
X150800000Y-37713000D01*
X150000000Y-36313000D02*
X150000000Y-37513000D01*
%TO.C,R2*%
X155000000Y-43513000D02*
X155000000Y-44713000D01*
X154200000Y-37713000D02*
X155000000Y-37513000D01*
X154000000Y-37913000D02*
X154200000Y-37713000D01*
X154000000Y-38313000D02*
X154000000Y-37913000D01*
X154200000Y-38513000D02*
X154000000Y-38313000D01*
X154200000Y-42513000D02*
X154200000Y-38513000D01*
X154000000Y-42713000D02*
X154200000Y-42513000D01*
X154000000Y-43113000D02*
X154000000Y-42713000D01*
X154200000Y-43313000D02*
X154000000Y-43113000D01*
X155000000Y-43513000D02*
X154200000Y-43313000D01*
X155800000Y-43313000D02*
X155000000Y-43513000D01*
X156000000Y-43113000D02*
X155800000Y-43313000D01*
X156000000Y-42713000D02*
X156000000Y-43113000D01*
X155800000Y-42513000D02*
X156000000Y-42713000D01*
X155800000Y-38513000D02*
X155800000Y-42513000D01*
X156000000Y-38313000D02*
X155800000Y-38513000D01*
X156000000Y-37913000D02*
X156000000Y-38313000D01*
X155800000Y-37713000D02*
X156000000Y-37913000D01*
X155000000Y-37513000D02*
X155800000Y-37713000D01*
X155000000Y-36313000D02*
X155000000Y-37513000D01*
%TO.C,R1*%
X100076000Y-43513000D02*
X100076000Y-44713000D01*
X99276000Y-37713000D02*
X100076000Y-37513000D01*
X99076000Y-37913000D02*
X99276000Y-37713000D01*
X99076000Y-38313000D02*
X99076000Y-37913000D01*
X99276000Y-38513000D02*
X99076000Y-38313000D01*
X99276000Y-42513000D02*
X99276000Y-38513000D01*
X99076000Y-42713000D02*
X99276000Y-42513000D01*
X99076000Y-43113000D02*
X99076000Y-42713000D01*
X99276000Y-43313000D02*
X99076000Y-43113000D01*
X100076000Y-43513000D02*
X99276000Y-43313000D01*
X100876000Y-43313000D02*
X100076000Y-43513000D01*
X101076000Y-43113000D02*
X100876000Y-43313000D01*
X101076000Y-42713000D02*
X101076000Y-43113000D01*
X100876000Y-42513000D02*
X101076000Y-42713000D01*
X100876000Y-38513000D02*
X100876000Y-42513000D01*
X101076000Y-38313000D02*
X100876000Y-38513000D01*
X101076000Y-37913000D02*
X101076000Y-38313000D01*
X100876000Y-37713000D02*
X101076000Y-37913000D01*
X100076000Y-37513000D02*
X100876000Y-37713000D01*
X100076000Y-36313000D02*
X100076000Y-37513000D01*
%TO.C,U1*%
D11*
X172210952Y-56663785D02*
X172377619Y-56306642D01*
X172496666Y-56663785D02*
X172496666Y-55913785D01*
X172306190Y-55913785D01*
X172258571Y-55949500D01*
X172234761Y-55985214D01*
X172210952Y-56056642D01*
X172210952Y-56163785D01*
X172234761Y-56235214D01*
X172258571Y-56270928D01*
X172306190Y-56306642D01*
X172496666Y-56306642D01*
X171901428Y-55913785D02*
X171806190Y-55913785D01*
X171758571Y-55949500D01*
X171710952Y-56020928D01*
X171687142Y-56163785D01*
X171687142Y-56413785D01*
X171710952Y-56556642D01*
X171758571Y-56628071D01*
X171806190Y-56663785D01*
X171901428Y-56663785D01*
X171949047Y-56628071D01*
X171996666Y-56556642D01*
X172020476Y-56413785D01*
X172020476Y-56163785D01*
X171996666Y-56020928D01*
X171949047Y-55949500D01*
X171901428Y-55913785D01*
X171520476Y-55913785D02*
X171401428Y-56663785D01*
X171306190Y-56128071D01*
X171210952Y-56663785D01*
X171091904Y-55913785D01*
X170639523Y-56663785D02*
X170925238Y-56663785D01*
X170782380Y-56663785D02*
X170782380Y-55913785D01*
X170830000Y-56020928D01*
X170877619Y-56092357D01*
X170925238Y-56128071D01*
X187377619Y-59068857D02*
X187401428Y-59104571D01*
X187472857Y-59140285D01*
X187520476Y-59140285D01*
X187591904Y-59104571D01*
X187639523Y-59033142D01*
X187663333Y-58961714D01*
X187687142Y-58818857D01*
X187687142Y-58711714D01*
X187663333Y-58568857D01*
X187639523Y-58497428D01*
X187591904Y-58426000D01*
X187520476Y-58390285D01*
X187472857Y-58390285D01*
X187401428Y-58426000D01*
X187377619Y-58461714D01*
X187068095Y-58390285D02*
X186972857Y-58390285D01*
X186925238Y-58426000D01*
X186877619Y-58497428D01*
X186853809Y-58640285D01*
X186853809Y-58890285D01*
X186877619Y-59033142D01*
X186925238Y-59104571D01*
X186972857Y-59140285D01*
X187068095Y-59140285D01*
X187115714Y-59104571D01*
X187163333Y-59033142D01*
X187187142Y-58890285D01*
X187187142Y-58640285D01*
X187163333Y-58497428D01*
X187115714Y-58426000D01*
X187068095Y-58390285D01*
X186401428Y-59140285D02*
X186639523Y-59140285D01*
X186639523Y-58390285D01*
X186020476Y-58640285D02*
X186020476Y-59140285D01*
X186139523Y-58354571D02*
X186258571Y-58890285D01*
X185949047Y-58890285D01*
X172210952Y-59267285D02*
X172377619Y-58910142D01*
X172496666Y-59267285D02*
X172496666Y-58517285D01*
X172306190Y-58517285D01*
X172258571Y-58553000D01*
X172234761Y-58588714D01*
X172210952Y-58660142D01*
X172210952Y-58767285D01*
X172234761Y-58838714D01*
X172258571Y-58874428D01*
X172306190Y-58910142D01*
X172496666Y-58910142D01*
X171901428Y-58517285D02*
X171806190Y-58517285D01*
X171758571Y-58553000D01*
X171710952Y-58624428D01*
X171687142Y-58767285D01*
X171687142Y-59017285D01*
X171710952Y-59160142D01*
X171758571Y-59231571D01*
X171806190Y-59267285D01*
X171901428Y-59267285D01*
X171949047Y-59231571D01*
X171996666Y-59160142D01*
X172020476Y-59017285D01*
X172020476Y-58767285D01*
X171996666Y-58624428D01*
X171949047Y-58553000D01*
X171901428Y-58517285D01*
X171520476Y-58517285D02*
X171401428Y-59267285D01*
X171306190Y-58731571D01*
X171210952Y-59267285D01*
X171091904Y-58517285D01*
X170925238Y-58588714D02*
X170901428Y-58553000D01*
X170853809Y-58517285D01*
X170734761Y-58517285D01*
X170687142Y-58553000D01*
X170663333Y-58588714D01*
X170639523Y-58660142D01*
X170639523Y-58731571D01*
X170663333Y-58838714D01*
X170949047Y-59267285D01*
X170639523Y-59267285D01*
X187427619Y-61706857D02*
X187451428Y-61742571D01*
X187522857Y-61778285D01*
X187570476Y-61778285D01*
X187641904Y-61742571D01*
X187689523Y-61671142D01*
X187713333Y-61599714D01*
X187737142Y-61456857D01*
X187737142Y-61349714D01*
X187713333Y-61206857D01*
X187689523Y-61135428D01*
X187641904Y-61064000D01*
X187570476Y-61028285D01*
X187522857Y-61028285D01*
X187451428Y-61064000D01*
X187427619Y-61099714D01*
X187118095Y-61028285D02*
X187022857Y-61028285D01*
X186975238Y-61064000D01*
X186927619Y-61135428D01*
X186903809Y-61278285D01*
X186903809Y-61528285D01*
X186927619Y-61671142D01*
X186975238Y-61742571D01*
X187022857Y-61778285D01*
X187118095Y-61778285D01*
X187165714Y-61742571D01*
X187213333Y-61671142D01*
X187237142Y-61528285D01*
X187237142Y-61278285D01*
X187213333Y-61135428D01*
X187165714Y-61064000D01*
X187118095Y-61028285D01*
X186451428Y-61778285D02*
X186689523Y-61778285D01*
X186689523Y-61028285D01*
X186046666Y-61028285D02*
X186284761Y-61028285D01*
X186308571Y-61385428D01*
X186284761Y-61349714D01*
X186237142Y-61314000D01*
X186118095Y-61314000D01*
X186070476Y-61349714D01*
X186046666Y-61385428D01*
X186022857Y-61456857D01*
X186022857Y-61635428D01*
X186046666Y-61706857D01*
X186070476Y-61742571D01*
X186118095Y-61778285D01*
X186237142Y-61778285D01*
X186284761Y-61742571D01*
X186308571Y-61706857D01*
X172210952Y-61778285D02*
X172377619Y-61421142D01*
X172496666Y-61778285D02*
X172496666Y-61028285D01*
X172306190Y-61028285D01*
X172258571Y-61064000D01*
X172234761Y-61099714D01*
X172210952Y-61171142D01*
X172210952Y-61278285D01*
X172234761Y-61349714D01*
X172258571Y-61385428D01*
X172306190Y-61421142D01*
X172496666Y-61421142D01*
X171901428Y-61028285D02*
X171806190Y-61028285D01*
X171758571Y-61064000D01*
X171710952Y-61135428D01*
X171687142Y-61278285D01*
X171687142Y-61528285D01*
X171710952Y-61671142D01*
X171758571Y-61742571D01*
X171806190Y-61778285D01*
X171901428Y-61778285D01*
X171949047Y-61742571D01*
X171996666Y-61671142D01*
X172020476Y-61528285D01*
X172020476Y-61278285D01*
X171996666Y-61135428D01*
X171949047Y-61064000D01*
X171901428Y-61028285D01*
X171520476Y-61028285D02*
X171401428Y-61778285D01*
X171306190Y-61242571D01*
X171210952Y-61778285D01*
X171091904Y-61028285D01*
X170949047Y-61028285D02*
X170639523Y-61028285D01*
X170806190Y-61314000D01*
X170734761Y-61314000D01*
X170687142Y-61349714D01*
X170663333Y-61385428D01*
X170639523Y-61456857D01*
X170639523Y-61635428D01*
X170663333Y-61706857D01*
X170687142Y-61742571D01*
X170734761Y-61778285D01*
X170877619Y-61778285D01*
X170925238Y-61742571D01*
X170949047Y-61706857D01*
X187590880Y-63763928D02*
X187519452Y-63799642D01*
X187495642Y-63835357D01*
X187471833Y-63906785D01*
X187471833Y-64013928D01*
X187495642Y-64085357D01*
X187519452Y-64121071D01*
X187567071Y-64156785D01*
X187757547Y-64156785D01*
X187757547Y-63406785D01*
X187590880Y-63406785D01*
X187543261Y-63442500D01*
X187519452Y-63478214D01*
X187495642Y-63549642D01*
X187495642Y-63621071D01*
X187519452Y-63692500D01*
X187543261Y-63728214D01*
X187590880Y-63763928D01*
X187757547Y-63763928D01*
X187281357Y-63478214D02*
X187257547Y-63442500D01*
X187209928Y-63406785D01*
X187090880Y-63406785D01*
X187043261Y-63442500D01*
X187019452Y-63478214D01*
X186995642Y-63549642D01*
X186995642Y-63621071D01*
X187019452Y-63728214D01*
X187305166Y-64156785D01*
X186995642Y-64156785D01*
X172033380Y-63890928D02*
X171961952Y-63926642D01*
X171938142Y-63962357D01*
X171914333Y-64033785D01*
X171914333Y-64140928D01*
X171938142Y-64212357D01*
X171961952Y-64248071D01*
X172009571Y-64283785D01*
X172200047Y-64283785D01*
X172200047Y-63533785D01*
X172033380Y-63533785D01*
X171985761Y-63569500D01*
X171961952Y-63605214D01*
X171938142Y-63676642D01*
X171938142Y-63748071D01*
X171961952Y-63819500D01*
X171985761Y-63855214D01*
X172033380Y-63890928D01*
X172200047Y-63890928D01*
X171485761Y-63783785D02*
X171485761Y-64283785D01*
X171604809Y-63498071D02*
X171723857Y-64033785D01*
X171414333Y-64033785D01*
X172033380Y-66430928D02*
X171961952Y-66466642D01*
X171938142Y-66502357D01*
X171914333Y-66573785D01*
X171914333Y-66680928D01*
X171938142Y-66752357D01*
X171961952Y-66788071D01*
X172009571Y-66823785D01*
X172200047Y-66823785D01*
X172200047Y-66073785D01*
X172033380Y-66073785D01*
X171985761Y-66109500D01*
X171961952Y-66145214D01*
X171938142Y-66216642D01*
X171938142Y-66288071D01*
X171961952Y-66359500D01*
X171985761Y-66395214D01*
X172033380Y-66430928D01*
X172200047Y-66430928D01*
X171461952Y-66073785D02*
X171700047Y-66073785D01*
X171723857Y-66430928D01*
X171700047Y-66395214D01*
X171652428Y-66359500D01*
X171533380Y-66359500D01*
X171485761Y-66395214D01*
X171461952Y-66430928D01*
X171438142Y-66502357D01*
X171438142Y-66680928D01*
X171461952Y-66752357D01*
X171485761Y-66788071D01*
X171533380Y-66823785D01*
X171652428Y-66823785D01*
X171700047Y-66788071D01*
X171723857Y-66752357D01*
X187527380Y-66367428D02*
X187455952Y-66403142D01*
X187432142Y-66438857D01*
X187408333Y-66510285D01*
X187408333Y-66617428D01*
X187432142Y-66688857D01*
X187455952Y-66724571D01*
X187503571Y-66760285D01*
X187694047Y-66760285D01*
X187694047Y-66010285D01*
X187527380Y-66010285D01*
X187479761Y-66046000D01*
X187455952Y-66081714D01*
X187432142Y-66153142D01*
X187432142Y-66224571D01*
X187455952Y-66296000D01*
X187479761Y-66331714D01*
X187527380Y-66367428D01*
X187694047Y-66367428D01*
X186979761Y-66010285D02*
X187075000Y-66010285D01*
X187122619Y-66046000D01*
X187146428Y-66081714D01*
X187194047Y-66188857D01*
X187217857Y-66331714D01*
X187217857Y-66617428D01*
X187194047Y-66688857D01*
X187170238Y-66724571D01*
X187122619Y-66760285D01*
X187027380Y-66760285D01*
X186979761Y-66724571D01*
X186955952Y-66688857D01*
X186932142Y-66617428D01*
X186932142Y-66438857D01*
X186955952Y-66367428D01*
X186979761Y-66331714D01*
X187027380Y-66296000D01*
X187122619Y-66296000D01*
X187170238Y-66331714D01*
X187194047Y-66367428D01*
X187217857Y-66438857D01*
X187427619Y-49006857D02*
X187451428Y-49042571D01*
X187522857Y-49078285D01*
X187570476Y-49078285D01*
X187641904Y-49042571D01*
X187689523Y-48971142D01*
X187713333Y-48899714D01*
X187737142Y-48756857D01*
X187737142Y-48649714D01*
X187713333Y-48506857D01*
X187689523Y-48435428D01*
X187641904Y-48364000D01*
X187570476Y-48328285D01*
X187522857Y-48328285D01*
X187451428Y-48364000D01*
X187427619Y-48399714D01*
X187118095Y-48328285D02*
X187022857Y-48328285D01*
X186975238Y-48364000D01*
X186927619Y-48435428D01*
X186903809Y-48578285D01*
X186903809Y-48828285D01*
X186927619Y-48971142D01*
X186975238Y-49042571D01*
X187022857Y-49078285D01*
X187118095Y-49078285D01*
X187165714Y-49042571D01*
X187213333Y-48971142D01*
X187237142Y-48828285D01*
X187237142Y-48578285D01*
X187213333Y-48435428D01*
X187165714Y-48364000D01*
X187118095Y-48328285D01*
X186451428Y-49078285D02*
X186689523Y-49078285D01*
X186689523Y-48328285D01*
X186189523Y-48328285D02*
X186141904Y-48328285D01*
X186094285Y-48364000D01*
X186070476Y-48399714D01*
X186046666Y-48471142D01*
X186022857Y-48614000D01*
X186022857Y-48792571D01*
X186046666Y-48935428D01*
X186070476Y-49006857D01*
X186094285Y-49042571D01*
X186141904Y-49078285D01*
X186189523Y-49078285D01*
X186237142Y-49042571D01*
X186260952Y-49006857D01*
X186284761Y-48935428D01*
X186308571Y-48792571D01*
X186308571Y-48614000D01*
X186284761Y-48471142D01*
X186260952Y-48399714D01*
X186237142Y-48364000D01*
X186189523Y-48328285D01*
X172438142Y-49008071D02*
X172366714Y-49043785D01*
X172247666Y-49043785D01*
X172200047Y-49008071D01*
X172176238Y-48972357D01*
X172152428Y-48900928D01*
X172152428Y-48829500D01*
X172176238Y-48758071D01*
X172200047Y-48722357D01*
X172247666Y-48686642D01*
X172342904Y-48650928D01*
X172390523Y-48615214D01*
X172414333Y-48579500D01*
X172438142Y-48508071D01*
X172438142Y-48436642D01*
X172414333Y-48365214D01*
X172390523Y-48329500D01*
X172342904Y-48293785D01*
X172223857Y-48293785D01*
X172152428Y-48329500D01*
X171938142Y-49043785D02*
X171938142Y-48293785D01*
X171819095Y-48293785D01*
X171747666Y-48329500D01*
X171700047Y-48400928D01*
X171676238Y-48472357D01*
X171652428Y-48615214D01*
X171652428Y-48722357D01*
X171676238Y-48865214D01*
X171700047Y-48936642D01*
X171747666Y-49008071D01*
X171819095Y-49043785D01*
X171938142Y-49043785D01*
X171461952Y-48829500D02*
X171223857Y-48829500D01*
X171509571Y-49043785D02*
X171342904Y-48293785D01*
X171176238Y-49043785D01*
X187427619Y-51512357D02*
X187451428Y-51548071D01*
X187522857Y-51583785D01*
X187570476Y-51583785D01*
X187641904Y-51548071D01*
X187689523Y-51476642D01*
X187713333Y-51405214D01*
X187737142Y-51262357D01*
X187737142Y-51155214D01*
X187713333Y-51012357D01*
X187689523Y-50940928D01*
X187641904Y-50869500D01*
X187570476Y-50833785D01*
X187522857Y-50833785D01*
X187451428Y-50869500D01*
X187427619Y-50905214D01*
X187118095Y-50833785D02*
X187022857Y-50833785D01*
X186975238Y-50869500D01*
X186927619Y-50940928D01*
X186903809Y-51083785D01*
X186903809Y-51333785D01*
X186927619Y-51476642D01*
X186975238Y-51548071D01*
X187022857Y-51583785D01*
X187118095Y-51583785D01*
X187165714Y-51548071D01*
X187213333Y-51476642D01*
X187237142Y-51333785D01*
X187237142Y-51083785D01*
X187213333Y-50940928D01*
X187165714Y-50869500D01*
X187118095Y-50833785D01*
X186451428Y-51583785D02*
X186689523Y-51583785D01*
X186689523Y-50833785D01*
X186022857Y-51583785D02*
X186308571Y-51583785D01*
X186165714Y-51583785D02*
X186165714Y-50833785D01*
X186213333Y-50940928D01*
X186260952Y-51012357D01*
X186308571Y-51048071D01*
X172426238Y-51548071D02*
X172354809Y-51583785D01*
X172235761Y-51583785D01*
X172188142Y-51548071D01*
X172164333Y-51512357D01*
X172140523Y-51440928D01*
X172140523Y-51369500D01*
X172164333Y-51298071D01*
X172188142Y-51262357D01*
X172235761Y-51226642D01*
X172331000Y-51190928D01*
X172378619Y-51155214D01*
X172402428Y-51119500D01*
X172426238Y-51048071D01*
X172426238Y-50976642D01*
X172402428Y-50905214D01*
X172378619Y-50869500D01*
X172331000Y-50833785D01*
X172211952Y-50833785D01*
X172140523Y-50869500D01*
X171640523Y-51512357D02*
X171664333Y-51548071D01*
X171735761Y-51583785D01*
X171783380Y-51583785D01*
X171854809Y-51548071D01*
X171902428Y-51476642D01*
X171926238Y-51405214D01*
X171950047Y-51262357D01*
X171950047Y-51155214D01*
X171926238Y-51012357D01*
X171902428Y-50940928D01*
X171854809Y-50869500D01*
X171783380Y-50833785D01*
X171735761Y-50833785D01*
X171664333Y-50869500D01*
X171640523Y-50905214D01*
X171188142Y-51583785D02*
X171426238Y-51583785D01*
X171426238Y-50833785D01*
X187427619Y-54056857D02*
X187451428Y-54092571D01*
X187522857Y-54128285D01*
X187570476Y-54128285D01*
X187641904Y-54092571D01*
X187689523Y-54021142D01*
X187713333Y-53949714D01*
X187737142Y-53806857D01*
X187737142Y-53699714D01*
X187713333Y-53556857D01*
X187689523Y-53485428D01*
X187641904Y-53414000D01*
X187570476Y-53378285D01*
X187522857Y-53378285D01*
X187451428Y-53414000D01*
X187427619Y-53449714D01*
X187118095Y-53378285D02*
X187022857Y-53378285D01*
X186975238Y-53414000D01*
X186927619Y-53485428D01*
X186903809Y-53628285D01*
X186903809Y-53878285D01*
X186927619Y-54021142D01*
X186975238Y-54092571D01*
X187022857Y-54128285D01*
X187118095Y-54128285D01*
X187165714Y-54092571D01*
X187213333Y-54021142D01*
X187237142Y-53878285D01*
X187237142Y-53628285D01*
X187213333Y-53485428D01*
X187165714Y-53414000D01*
X187118095Y-53378285D01*
X186451428Y-54128285D02*
X186689523Y-54128285D01*
X186689523Y-53378285D01*
X186308571Y-53449714D02*
X186284761Y-53414000D01*
X186237142Y-53378285D01*
X186118095Y-53378285D01*
X186070476Y-53414000D01*
X186046666Y-53449714D01*
X186022857Y-53521142D01*
X186022857Y-53592571D01*
X186046666Y-53699714D01*
X186332380Y-54128285D01*
X186022857Y-54128285D01*
X172210952Y-54060285D02*
X172377619Y-53703142D01*
X172496666Y-54060285D02*
X172496666Y-53310285D01*
X172306190Y-53310285D01*
X172258571Y-53346000D01*
X172234761Y-53381714D01*
X172210952Y-53453142D01*
X172210952Y-53560285D01*
X172234761Y-53631714D01*
X172258571Y-53667428D01*
X172306190Y-53703142D01*
X172496666Y-53703142D01*
X171901428Y-53310285D02*
X171806190Y-53310285D01*
X171758571Y-53346000D01*
X171710952Y-53417428D01*
X171687142Y-53560285D01*
X171687142Y-53810285D01*
X171710952Y-53953142D01*
X171758571Y-54024571D01*
X171806190Y-54060285D01*
X171901428Y-54060285D01*
X171949047Y-54024571D01*
X171996666Y-53953142D01*
X172020476Y-53810285D01*
X172020476Y-53560285D01*
X171996666Y-53417428D01*
X171949047Y-53346000D01*
X171901428Y-53310285D01*
X171520476Y-53310285D02*
X171401428Y-54060285D01*
X171306190Y-53524571D01*
X171210952Y-54060285D01*
X171091904Y-53310285D01*
X170806190Y-53310285D02*
X170758571Y-53310285D01*
X170710952Y-53346000D01*
X170687142Y-53381714D01*
X170663333Y-53453142D01*
X170639523Y-53596000D01*
X170639523Y-53774571D01*
X170663333Y-53917428D01*
X170687142Y-53988857D01*
X170710952Y-54024571D01*
X170758571Y-54060285D01*
X170806190Y-54060285D01*
X170853809Y-54024571D01*
X170877619Y-53988857D01*
X170901428Y-53917428D01*
X170925238Y-53774571D01*
X170925238Y-53596000D01*
X170901428Y-53453142D01*
X170877619Y-53381714D01*
X170853809Y-53346000D01*
X170806190Y-53310285D01*
X187427619Y-56556857D02*
X187451428Y-56592571D01*
X187522857Y-56628285D01*
X187570476Y-56628285D01*
X187641904Y-56592571D01*
X187689523Y-56521142D01*
X187713333Y-56449714D01*
X187737142Y-56306857D01*
X187737142Y-56199714D01*
X187713333Y-56056857D01*
X187689523Y-55985428D01*
X187641904Y-55914000D01*
X187570476Y-55878285D01*
X187522857Y-55878285D01*
X187451428Y-55914000D01*
X187427619Y-55949714D01*
X187118095Y-55878285D02*
X187022857Y-55878285D01*
X186975238Y-55914000D01*
X186927619Y-55985428D01*
X186903809Y-56128285D01*
X186903809Y-56378285D01*
X186927619Y-56521142D01*
X186975238Y-56592571D01*
X187022857Y-56628285D01*
X187118095Y-56628285D01*
X187165714Y-56592571D01*
X187213333Y-56521142D01*
X187237142Y-56378285D01*
X187237142Y-56128285D01*
X187213333Y-55985428D01*
X187165714Y-55914000D01*
X187118095Y-55878285D01*
X186451428Y-56628285D02*
X186689523Y-56628285D01*
X186689523Y-55878285D01*
X186332380Y-55878285D02*
X186022857Y-55878285D01*
X186189523Y-56164000D01*
X186118095Y-56164000D01*
X186070476Y-56199714D01*
X186046666Y-56235428D01*
X186022857Y-56306857D01*
X186022857Y-56485428D01*
X186046666Y-56556857D01*
X186070476Y-56592571D01*
X186118095Y-56628285D01*
X186260952Y-56628285D01*
X186308571Y-56592571D01*
X186332380Y-56556857D01*
X172211952Y-45789500D02*
X172259571Y-45753785D01*
X172331000Y-45753785D01*
X172402428Y-45789500D01*
X172450047Y-45860928D01*
X172473857Y-45932357D01*
X172497666Y-46075214D01*
X172497666Y-46182357D01*
X172473857Y-46325214D01*
X172450047Y-46396642D01*
X172402428Y-46468071D01*
X172331000Y-46503785D01*
X172283380Y-46503785D01*
X172211952Y-46468071D01*
X172188142Y-46432357D01*
X172188142Y-46182357D01*
X172283380Y-46182357D01*
X171973857Y-46503785D02*
X171973857Y-45753785D01*
X171688142Y-46503785D01*
X171688142Y-45753785D01*
X171450047Y-46503785D02*
X171450047Y-45753785D01*
X171331000Y-45753785D01*
X171259571Y-45789500D01*
X171211952Y-45860928D01*
X171188142Y-45932357D01*
X171164333Y-46075214D01*
X171164333Y-46182357D01*
X171188142Y-46325214D01*
X171211952Y-46396642D01*
X171259571Y-46468071D01*
X171331000Y-46503785D01*
X171450047Y-46503785D01*
X187674166Y-45753785D02*
X187507500Y-46503785D01*
X187340833Y-45753785D01*
X186888452Y-46432357D02*
X186912261Y-46468071D01*
X186983690Y-46503785D01*
X187031309Y-46503785D01*
X187102738Y-46468071D01*
X187150357Y-46396642D01*
X187174166Y-46325214D01*
X187197976Y-46182357D01*
X187197976Y-46075214D01*
X187174166Y-45932357D01*
X187150357Y-45860928D01*
X187102738Y-45789500D01*
X187031309Y-45753785D01*
X186983690Y-45753785D01*
X186912261Y-45789500D01*
X186888452Y-45825214D01*
X186388452Y-46432357D02*
X186412261Y-46468071D01*
X186483690Y-46503785D01*
X186531309Y-46503785D01*
X186602738Y-46468071D01*
X186650357Y-46396642D01*
X186674166Y-46325214D01*
X186697976Y-46182357D01*
X186697976Y-46075214D01*
X186674166Y-45932357D01*
X186650357Y-45860928D01*
X186602738Y-45789500D01*
X186531309Y-45753785D01*
X186483690Y-45753785D01*
X186412261Y-45789500D01*
X186388452Y-45825214D01*
X172211952Y-43249500D02*
X172259571Y-43213785D01*
X172331000Y-43213785D01*
X172402428Y-43249500D01*
X172450047Y-43320928D01*
X172473857Y-43392357D01*
X172497666Y-43535214D01*
X172497666Y-43642357D01*
X172473857Y-43785214D01*
X172450047Y-43856642D01*
X172402428Y-43928071D01*
X172331000Y-43963785D01*
X172283380Y-43963785D01*
X172211952Y-43928071D01*
X172188142Y-43892357D01*
X172188142Y-43642357D01*
X172283380Y-43642357D01*
X171973857Y-43963785D02*
X171973857Y-43213785D01*
X171688142Y-43963785D01*
X171688142Y-43213785D01*
X171450047Y-43963785D02*
X171450047Y-43213785D01*
X171331000Y-43213785D01*
X171259571Y-43249500D01*
X171211952Y-43320928D01*
X171188142Y-43392357D01*
X171164333Y-43535214D01*
X171164333Y-43642357D01*
X171188142Y-43785214D01*
X171211952Y-43856642D01*
X171259571Y-43928071D01*
X171331000Y-43963785D01*
X171450047Y-43963785D01*
X187344809Y-43963785D02*
X187511476Y-43606642D01*
X187630523Y-43963785D02*
X187630523Y-43213785D01*
X187440047Y-43213785D01*
X187392428Y-43249500D01*
X187368619Y-43285214D01*
X187344809Y-43356642D01*
X187344809Y-43463785D01*
X187368619Y-43535214D01*
X187392428Y-43570928D01*
X187440047Y-43606642D01*
X187630523Y-43606642D01*
X187154333Y-43928071D02*
X187082904Y-43963785D01*
X186963857Y-43963785D01*
X186916238Y-43928071D01*
X186892428Y-43892357D01*
X186868619Y-43820928D01*
X186868619Y-43749500D01*
X186892428Y-43678071D01*
X186916238Y-43642357D01*
X186963857Y-43606642D01*
X187059095Y-43570928D01*
X187106714Y-43535214D01*
X187130523Y-43499500D01*
X187154333Y-43428071D01*
X187154333Y-43356642D01*
X187130523Y-43285214D01*
X187106714Y-43249500D01*
X187059095Y-43213785D01*
X186940047Y-43213785D01*
X186868619Y-43249500D01*
X186725761Y-43213785D02*
X186440047Y-43213785D01*
X186582904Y-43963785D02*
X186582904Y-43213785D01*
X172430000Y-41528285D02*
X172430000Y-40778285D01*
X172310952Y-40778285D01*
X172239523Y-40814000D01*
X172191904Y-40885428D01*
X172168095Y-40956857D01*
X172144285Y-41099714D01*
X172144285Y-41206857D01*
X172168095Y-41349714D01*
X172191904Y-41421142D01*
X172239523Y-41492571D01*
X172310952Y-41528285D01*
X172430000Y-41528285D01*
X171953809Y-41314000D02*
X171715714Y-41314000D01*
X172001428Y-41528285D02*
X171834761Y-40778285D01*
X171668095Y-41528285D01*
X171572857Y-40778285D02*
X171287142Y-40778285D01*
X171430000Y-41528285D02*
X171430000Y-40778285D01*
X171144285Y-41314000D02*
X170906190Y-41314000D01*
X171191904Y-41528285D02*
X171025238Y-40778285D01*
X170858571Y-41528285D01*
X187388452Y-40646000D02*
X187436071Y-40610285D01*
X187507500Y-40610285D01*
X187578928Y-40646000D01*
X187626547Y-40717428D01*
X187650357Y-40788857D01*
X187674166Y-40931714D01*
X187674166Y-41038857D01*
X187650357Y-41181714D01*
X187626547Y-41253142D01*
X187578928Y-41324571D01*
X187507500Y-41360285D01*
X187459880Y-41360285D01*
X187388452Y-41324571D01*
X187364642Y-41288857D01*
X187364642Y-41038857D01*
X187459880Y-41038857D01*
X187150357Y-41360285D02*
X187150357Y-40610285D01*
X186864642Y-41360285D01*
X186864642Y-40610285D01*
X186626547Y-41360285D02*
X186626547Y-40610285D01*
X186507500Y-40610285D01*
X186436071Y-40646000D01*
X186388452Y-40717428D01*
X186364642Y-40788857D01*
X186340833Y-40931714D01*
X186340833Y-41038857D01*
X186364642Y-41181714D01*
X186388452Y-41253142D01*
X186436071Y-41324571D01*
X186507500Y-41360285D01*
X186626547Y-41360285D01*
X172152428Y-38883785D02*
X172390523Y-38883785D01*
X172390523Y-38133785D01*
X171985761Y-38490928D02*
X171819095Y-38490928D01*
X171747666Y-38883785D02*
X171985761Y-38883785D01*
X171985761Y-38133785D01*
X171747666Y-38133785D01*
X171533380Y-38883785D02*
X171533380Y-38133785D01*
X171414333Y-38133785D01*
X171342904Y-38169500D01*
X171295285Y-38240928D01*
X171271476Y-38312357D01*
X171247666Y-38455214D01*
X171247666Y-38562357D01*
X171271476Y-38705214D01*
X171295285Y-38776642D01*
X171342904Y-38848071D01*
X171414333Y-38883785D01*
X171533380Y-38883785D01*
X187416238Y-38883785D02*
X187582904Y-38526642D01*
X187701952Y-38883785D02*
X187701952Y-38133785D01*
X187511476Y-38133785D01*
X187463857Y-38169500D01*
X187440047Y-38205214D01*
X187416238Y-38276642D01*
X187416238Y-38383785D01*
X187440047Y-38455214D01*
X187463857Y-38490928D01*
X187511476Y-38526642D01*
X187701952Y-38526642D01*
X187225761Y-38669500D02*
X186987666Y-38669500D01*
X187273380Y-38883785D02*
X187106714Y-38133785D01*
X186940047Y-38883785D01*
X186821000Y-38133785D02*
X186701952Y-38883785D01*
X186606714Y-38348071D01*
X186511476Y-38883785D01*
X186392428Y-38133785D01*
%TO.C,RSW1*%
D10*
X190190380Y-71318619D02*
X189714190Y-70985285D01*
X190190380Y-70747190D02*
X189190380Y-70747190D01*
X189190380Y-71128142D01*
X189238000Y-71223380D01*
X189285619Y-71271000D01*
X189380857Y-71318619D01*
X189523714Y-71318619D01*
X189618952Y-71271000D01*
X189666571Y-71223380D01*
X189714190Y-71128142D01*
X189714190Y-70747190D01*
X189666571Y-71747190D02*
X189666571Y-72080523D01*
X190190380Y-72223380D02*
X190190380Y-71747190D01*
X189190380Y-71747190D01*
X189190380Y-72223380D01*
X190142761Y-72604333D02*
X190190380Y-72747190D01*
X190190380Y-72985285D01*
X190142761Y-73080523D01*
X190095142Y-73128142D01*
X189999904Y-73175761D01*
X189904666Y-73175761D01*
X189809428Y-73128142D01*
X189761809Y-73080523D01*
X189714190Y-72985285D01*
X189666571Y-72794809D01*
X189618952Y-72699571D01*
X189571333Y-72651952D01*
X189476095Y-72604333D01*
X189380857Y-72604333D01*
X189285619Y-72651952D01*
X189238000Y-72699571D01*
X189190380Y-72794809D01*
X189190380Y-73032904D01*
X189238000Y-73175761D01*
X189666571Y-73604333D02*
X189666571Y-73937666D01*
X190190380Y-74080523D02*
X190190380Y-73604333D01*
X189190380Y-73604333D01*
X189190380Y-74080523D01*
X189190380Y-74366238D02*
X189190380Y-74937666D01*
X190190380Y-74651952D02*
X189190380Y-74651952D01*
%TO.C,R14*%
X182300638Y-75945395D02*
X182300638Y-76138919D01*
X182494161Y-76061509D02*
X182300638Y-76138919D01*
X182107114Y-76061509D01*
X182416752Y-76293738D02*
X182300638Y-76138919D01*
X182184523Y-76293738D01*
X181681361Y-75945395D02*
X181681361Y-76138919D01*
X181874885Y-76061509D02*
X181681361Y-76138919D01*
X181487838Y-76061509D01*
X181797476Y-76293738D02*
X181681361Y-76138919D01*
X181565247Y-76293738D01*
%TO.C,R13*%
X182300638Y-73278395D02*
X182300638Y-73471919D01*
X182494161Y-73394509D02*
X182300638Y-73471919D01*
X182107114Y-73394509D01*
X182416752Y-73626738D02*
X182300638Y-73471919D01*
X182184523Y-73626738D01*
X181681361Y-73278395D02*
X181681361Y-73471919D01*
X181874885Y-73394509D02*
X181681361Y-73471919D01*
X181487838Y-73394509D01*
X181797476Y-73626738D02*
X181681361Y-73471919D01*
X181565247Y-73626738D01*
%TO.C,J1*%
X183256380Y-67710380D02*
X183065904Y-67710380D01*
X182970666Y-67758000D01*
X182875428Y-67853238D01*
X182827809Y-68043714D01*
X182827809Y-68377047D01*
X182875428Y-68567523D01*
X182970666Y-68662761D01*
X183065904Y-68710380D01*
X183256380Y-68710380D01*
X183351619Y-68662761D01*
X183446857Y-68567523D01*
X183494476Y-68377047D01*
X183494476Y-68043714D01*
X183446857Y-67853238D01*
X183351619Y-67758000D01*
X183256380Y-67710380D01*
X181923047Y-68710380D02*
X182399238Y-68710380D01*
X182399238Y-67710380D01*
X181589714Y-68186571D02*
X181256380Y-68186571D01*
X181113523Y-68710380D02*
X181589714Y-68710380D01*
X181589714Y-67710380D01*
X181113523Y-67710380D01*
X180684952Y-68710380D02*
X180684952Y-67710380D01*
X180446857Y-67710380D01*
X180304000Y-67758000D01*
X180208761Y-67853238D01*
X180161142Y-67948476D01*
X180113523Y-68138952D01*
X180113523Y-68281809D01*
X180161142Y-68472285D01*
X180208761Y-68567523D01*
X180304000Y-68662761D01*
X180446857Y-68710380D01*
X180684952Y-68710380D01*
%TD*%
M02*
