M48
; DRILL file {KiCad (5.1.10)-1} date 10/30/21 13:12:38
; FORMAT={-:-/ absolute / inch / decimal}
; #@! TF.CreationDate,2021-10-30T13:12:38+08:00
; #@! TF.GenerationSoftware,Kicad,Pcbnew,(5.1.10)-1
; #@! TF.FileFunction,NonPlated,1,2,NPTH
FMAT,2
INCH
T1C0.0591
T2C0.0689
T3C0.1200
T4C0.1570
T5C0.1693
%
G90
G05
T2
X3.8313Y-2.9063
X3.8313Y-3.6563
X3.8313Y-4.4063
X3.8313Y-5.1563
X4.2063Y-5.9063
X4.2313Y-2.9063
X4.2313Y-3.6563
X4.2313Y-4.4063
X4.2313Y-5.1563
X4.5813Y-2.9063
X4.5813Y-3.6563
X4.5813Y-4.4063
X4.5813Y-5.1563
X4.6063Y-5.9063
X4.9813Y-2.9063
X4.9813Y-3.6563
X4.9813Y-4.4063
X4.9813Y-5.1563
X5.3313Y-2.9063
X5.3313Y-3.6563
X5.3313Y-4.4063
X5.3313Y-5.1563
X5.3313Y-5.9063
X5.7313Y-2.9063
X5.7313Y-3.6563
X5.7313Y-4.4063
X5.7313Y-5.1563
X5.7313Y-5.9063
X6.0813Y-2.9063
X6.2813Y-3.8313
X6.2813Y-4.2313
X6.2813Y-5.3313
X6.2813Y-5.7313
X6.4813Y-2.9063
T3
X3.9363Y-5.6313
X4.8763Y-5.6313
X6.0063Y-3.5613
X6.0063Y-4.5013
X6.0063Y-5.0613
X6.0063Y-6.0013
T4
X3.9363Y-6.2313
X4.0313Y-2.9063
X4.0313Y-3.6563
X4.0313Y-4.4063
X4.0313Y-5.1563
X4.4063Y-5.9063
X4.7813Y-2.9063
X4.7813Y-3.6563
X4.7813Y-4.4063
X4.7813Y-5.1563
X4.8763Y-6.2313
X5.5313Y-2.9063
X5.5313Y-3.6563
X5.5313Y-4.4063
X5.5313Y-5.1563
X5.5313Y-5.9063
X6.2813Y-2.9063
X6.2813Y-4.0313
X6.2813Y-5.5313
X6.6063Y-3.5613
X6.6063Y-4.5013
X6.6063Y-5.0613
X6.6063Y-6.0013
T5
X3.74Y-1.375
X4.405Y-3.285
X4.41Y-5.535
X7.285Y-3.33
X7.285Y-5.34
X7.69Y-1.385
T1
G00X7.2644Y-3.6145
M15
G01X7.3156Y-3.6145
M16
G05
G00X7.2644Y-4.0555
M15
G01X7.3156Y-4.0555
M16
G05
G00X7.2644Y-4.6145
M15
G01X7.3156Y-4.6145
M16
G05
G00X7.2644Y-5.0555
M15
G01X7.3156Y-5.0555
M16
G05
G00X7.2644Y-5.6145
M15
G01X7.3156Y-5.6145
M16
G05
G00X7.2644Y-6.0555
M15
G01X7.3156Y-6.0555
M16
G05
T0
M30
