%TF.GenerationSoftware,KiCad,Pcbnew,(5.1.10)-1*%
%TF.CreationDate,2021-10-30T13:12:34+08:00*%
%TF.ProjectId,EGPad,45475061-642e-46b6-9963-61645f706362,rev?*%
%TF.SameCoordinates,Original*%
%TF.FileFunction,Legend,Top*%
%TF.FilePolarity,Positive*%
%FSLAX46Y46*%
G04 Gerber Fmt 4.6, Leading zero omitted, Abs format (unit mm)*
G04 Created by KiCad (PCBNEW (5.1.10)-1) date 2021-10-30 13:12:34*
%MOMM*%
%LPD*%
G01*
G04 APERTURE LIST*
%ADD10C,0.150000*%
%ADD11C,0.120000*%
%ADD12C,0.200000*%
%ADD13C,0.125000*%
%ADD14C,0.203200*%
G04 APERTURE END LIST*
D10*
X176618083Y-161631321D02*
X176951416Y-161631321D01*
X177094273Y-162155130D02*
X176618083Y-162155130D01*
X176618083Y-161155130D01*
X177094273Y-161155130D01*
X178046654Y-161202750D02*
X177951416Y-161155130D01*
X177808559Y-161155130D01*
X177665702Y-161202750D01*
X177570464Y-161297988D01*
X177522845Y-161393226D01*
X177475226Y-161583702D01*
X177475226Y-161726559D01*
X177522845Y-161917035D01*
X177570464Y-162012273D01*
X177665702Y-162107511D01*
X177808559Y-162155130D01*
X177903797Y-162155130D01*
X178046654Y-162107511D01*
X178094273Y-162059892D01*
X178094273Y-161726559D01*
X177903797Y-161726559D01*
X178522845Y-162155130D02*
X178522845Y-161155130D01*
X178903797Y-161155130D01*
X178999035Y-161202750D01*
X179046654Y-161250369D01*
X179094273Y-161345607D01*
X179094273Y-161488464D01*
X179046654Y-161583702D01*
X178999035Y-161631321D01*
X178903797Y-161678940D01*
X178522845Y-161678940D01*
X179951416Y-162155130D02*
X179951416Y-161631321D01*
X179903797Y-161536083D01*
X179808559Y-161488464D01*
X179618083Y-161488464D01*
X179522845Y-161536083D01*
X179951416Y-162107511D02*
X179856178Y-162155130D01*
X179618083Y-162155130D01*
X179522845Y-162107511D01*
X179475226Y-162012273D01*
X179475226Y-161917035D01*
X179522845Y-161821797D01*
X179618083Y-161774178D01*
X179856178Y-161774178D01*
X179951416Y-161726559D01*
X180856178Y-162155130D02*
X180856178Y-161155130D01*
X180856178Y-162107511D02*
X180760940Y-162155130D01*
X180570464Y-162155130D01*
X180475226Y-162107511D01*
X180427607Y-162059892D01*
X180379988Y-161964654D01*
X180379988Y-161678940D01*
X180427607Y-161583702D01*
X180475226Y-161536083D01*
X180570464Y-161488464D01*
X180760940Y-161488464D01*
X180856178Y-161536083D01*
X182284750Y-161155130D02*
X182475226Y-161155130D01*
X182570464Y-161202750D01*
X182665702Y-161297988D01*
X182713321Y-161488464D01*
X182713321Y-161821797D01*
X182665702Y-162012273D01*
X182570464Y-162107511D01*
X182475226Y-162155130D01*
X182284750Y-162155130D01*
X182189511Y-162107511D01*
X182094273Y-162012273D01*
X182046654Y-161821797D01*
X182046654Y-161488464D01*
X182094273Y-161297988D01*
X182189511Y-161202750D01*
X182284750Y-161155130D01*
X183284750Y-162155130D02*
X183189511Y-162107511D01*
X183141892Y-162012273D01*
X183141892Y-161155130D01*
X184046654Y-162107511D02*
X183951416Y-162155130D01*
X183760940Y-162155130D01*
X183665702Y-162107511D01*
X183618083Y-162012273D01*
X183618083Y-161631321D01*
X183665702Y-161536083D01*
X183760940Y-161488464D01*
X183951416Y-161488464D01*
X184046654Y-161536083D01*
X184094273Y-161631321D01*
X184094273Y-161726559D01*
X183618083Y-161821797D01*
X184951416Y-162155130D02*
X184951416Y-161155130D01*
X184951416Y-162107511D02*
X184856178Y-162155130D01*
X184665702Y-162155130D01*
X184570464Y-162107511D01*
X184522845Y-162059892D01*
X184475226Y-161964654D01*
X184475226Y-161678940D01*
X184522845Y-161583702D01*
X184570464Y-161536083D01*
X184665702Y-161488464D01*
X184856178Y-161488464D01*
X184951416Y-161536083D01*
X186046654Y-161155130D02*
X186379988Y-162155130D01*
X186713321Y-161155130D01*
X187570464Y-162155130D02*
X186999035Y-162155130D01*
X187284750Y-162155130D02*
X187284750Y-161155130D01*
X187189511Y-161297988D01*
X187094273Y-161393226D01*
X186999035Y-161440845D01*
X187999035Y-162059892D02*
X188046654Y-162107511D01*
X187999035Y-162155130D01*
X187951416Y-162107511D01*
X187999035Y-162059892D01*
X187999035Y-162155130D01*
X188665702Y-161155130D02*
X188760940Y-161155130D01*
X188856178Y-161202750D01*
X188903797Y-161250369D01*
X188951416Y-161345607D01*
X188999035Y-161536083D01*
X188999035Y-161774178D01*
X188951416Y-161964654D01*
X188903797Y-162059892D01*
X188856178Y-162107511D01*
X188760940Y-162155130D01*
X188665702Y-162155130D01*
X188570464Y-162107511D01*
X188522845Y-162059892D01*
X188475226Y-161964654D01*
X188427607Y-161774178D01*
X188427607Y-161536083D01*
X188475226Y-161345607D01*
X188522845Y-161250369D01*
X188570464Y-161202750D01*
X188665702Y-161155130D01*
%TO.C,U1*%
X174046400Y-35941000D02*
X176586400Y-35941000D01*
X176586400Y-35941000D02*
X176586400Y-66421000D01*
X176586400Y-66421000D02*
X174046400Y-66421000D01*
X174046400Y-66421000D02*
X174046400Y-35941000D01*
X189266400Y-35941000D02*
X191806400Y-35941000D01*
X191806400Y-35941000D02*
X191806400Y-66421000D01*
X191806400Y-66421000D02*
X189266400Y-66421000D01*
X189266400Y-66421000D02*
X189266400Y-35941000D01*
%TO.C,RSW1*%
X191488000Y-75898000D02*
X191488000Y-69898000D01*
X191488000Y-69898000D02*
X191238000Y-69898000D01*
X191488000Y-75898000D02*
X191238000Y-75898000D01*
X187988000Y-75898000D02*
X188238000Y-75898000D01*
X187988000Y-75898000D02*
X187988000Y-69898000D01*
X187988000Y-69898000D02*
X188238000Y-69898000D01*
%TO.C,R14*%
X180489860Y-75453240D02*
X180489860Y-77454760D01*
X180489860Y-77454760D02*
X183492140Y-77454760D01*
X183492140Y-77454760D02*
X183492140Y-75453240D01*
X183492140Y-75453240D02*
X180489860Y-75453240D01*
%TO.C,R13*%
X180489860Y-72786240D02*
X180489860Y-74787760D01*
X180489860Y-74787760D02*
X183492140Y-74787760D01*
X183492140Y-74787760D02*
X183492140Y-72786240D01*
X183492140Y-72786240D02*
X180489860Y-72786240D01*
%TO.C,JP4*%
X177165000Y-67691000D02*
X177165000Y-65405000D01*
X177165000Y-65405000D02*
X178943000Y-65405000D01*
X178943000Y-65405000D02*
X178943000Y-67691000D01*
X178943000Y-67691000D02*
X177165000Y-67691000D01*
%TO.C,JP3*%
X179705000Y-67698600D02*
X179705000Y-65412600D01*
X179705000Y-65412600D02*
X181483000Y-65412600D01*
X181483000Y-65412600D02*
X181483000Y-67698600D01*
X181483000Y-67698600D02*
X179705000Y-67698600D01*
%TO.C,JP2*%
X182245000Y-67691000D02*
X182245000Y-65405000D01*
X182245000Y-65405000D02*
X184023000Y-65405000D01*
X184023000Y-65405000D02*
X184023000Y-67691000D01*
X184023000Y-67691000D02*
X182245000Y-67691000D01*
%TO.C,JP1*%
X184785000Y-67691000D02*
X184785000Y-65405000D01*
X184785000Y-65405000D02*
X186563000Y-65405000D01*
X186563000Y-65405000D02*
X186563000Y-67691000D01*
X186563000Y-67691000D02*
X184785000Y-67691000D01*
%TO.C,J1*%
X176784000Y-71628000D02*
X186944000Y-71628000D01*
X176784000Y-69088000D02*
X186944000Y-69088000D01*
X186944000Y-69088000D02*
X186944000Y-71628000D01*
X176784000Y-71628000D02*
X176784000Y-69088000D01*
D11*
%TO.C,D20*%
X129264000Y-55303000D02*
X130344000Y-55303000D01*
X129264000Y-56353000D02*
X130344000Y-56353000D01*
X129794000Y-55413000D02*
X129264000Y-56323000D01*
X129804000Y-55403000D02*
X130344000Y-56353000D01*
X128794000Y-54273000D02*
X130794000Y-54273000D01*
X129804000Y-54013000D02*
X129804000Y-55293000D01*
X129804000Y-57473000D02*
X129804000Y-56353000D01*
X128794000Y-57263000D02*
X130784000Y-57263000D01*
X130794000Y-54273000D02*
X130784000Y-57263000D01*
X128794000Y-54283000D02*
X128794000Y-57253000D01*
%TO.C,D19*%
X162284000Y-55303000D02*
X163364000Y-55303000D01*
X162284000Y-56353000D02*
X163364000Y-56353000D01*
X162814000Y-55413000D02*
X162284000Y-56323000D01*
X162824000Y-55403000D02*
X163364000Y-56353000D01*
X161814000Y-54273000D02*
X163814000Y-54273000D01*
X162824000Y-54013000D02*
X162824000Y-55293000D01*
X162824000Y-57473000D02*
X162824000Y-56353000D01*
X161814000Y-57263000D02*
X163804000Y-57263000D01*
X163814000Y-54273000D02*
X163804000Y-57263000D01*
X161814000Y-54283000D02*
X161814000Y-57253000D01*
%TO.C,D18*%
X158982000Y-55303000D02*
X160062000Y-55303000D01*
X158982000Y-56353000D02*
X160062000Y-56353000D01*
X159512000Y-55413000D02*
X158982000Y-56323000D01*
X159522000Y-55403000D02*
X160062000Y-56353000D01*
X158512000Y-54273000D02*
X160512000Y-54273000D01*
X159522000Y-54013000D02*
X159522000Y-55293000D01*
X159522000Y-57473000D02*
X159522000Y-56353000D01*
X158512000Y-57263000D02*
X160502000Y-57263000D01*
X160512000Y-54273000D02*
X160502000Y-57263000D01*
X158512000Y-54283000D02*
X158512000Y-57253000D01*
%TO.C,D17*%
X149076000Y-55303000D02*
X150156000Y-55303000D01*
X149076000Y-56353000D02*
X150156000Y-56353000D01*
X149606000Y-55413000D02*
X149076000Y-56323000D01*
X149616000Y-55403000D02*
X150156000Y-56353000D01*
X148606000Y-54273000D02*
X150606000Y-54273000D01*
X149616000Y-54013000D02*
X149616000Y-55293000D01*
X149616000Y-57473000D02*
X149616000Y-56353000D01*
X148606000Y-57263000D02*
X150596000Y-57263000D01*
X150606000Y-54273000D02*
X150596000Y-57263000D01*
X148606000Y-54283000D02*
X148606000Y-57253000D01*
%TO.C,D16*%
X152378000Y-55303000D02*
X153458000Y-55303000D01*
X152378000Y-56353000D02*
X153458000Y-56353000D01*
X152908000Y-55413000D02*
X152378000Y-56323000D01*
X152918000Y-55403000D02*
X153458000Y-56353000D01*
X151908000Y-54273000D02*
X153908000Y-54273000D01*
X152918000Y-54013000D02*
X152918000Y-55293000D01*
X152918000Y-57473000D02*
X152918000Y-56353000D01*
X151908000Y-57263000D02*
X153898000Y-57263000D01*
X153908000Y-54273000D02*
X153898000Y-57263000D01*
X151908000Y-54283000D02*
X151908000Y-57253000D01*
%TO.C,D15*%
X155680000Y-55303000D02*
X156760000Y-55303000D01*
X155680000Y-56353000D02*
X156760000Y-56353000D01*
X156210000Y-55413000D02*
X155680000Y-56323000D01*
X156220000Y-55403000D02*
X156760000Y-56353000D01*
X155210000Y-54273000D02*
X157210000Y-54273000D01*
X156220000Y-54013000D02*
X156220000Y-55293000D01*
X156220000Y-57473000D02*
X156220000Y-56353000D01*
X155210000Y-57263000D02*
X157200000Y-57263000D01*
X157210000Y-54273000D02*
X157200000Y-57263000D01*
X155210000Y-54283000D02*
X155210000Y-57253000D01*
%TO.C,D14*%
X142002000Y-54283000D02*
X142002000Y-57253000D01*
X144002000Y-54273000D02*
X143992000Y-57263000D01*
X142002000Y-57263000D02*
X143992000Y-57263000D01*
X143012000Y-57473000D02*
X143012000Y-56353000D01*
X143012000Y-54013000D02*
X143012000Y-55293000D01*
X142002000Y-54273000D02*
X144002000Y-54273000D01*
X143012000Y-55403000D02*
X143552000Y-56353000D01*
X143002000Y-55413000D02*
X142472000Y-56323000D01*
X142472000Y-56353000D02*
X143552000Y-56353000D01*
X142472000Y-55303000D02*
X143552000Y-55303000D01*
%TO.C,D13*%
X139170000Y-55303000D02*
X140250000Y-55303000D01*
X139170000Y-56353000D02*
X140250000Y-56353000D01*
X139700000Y-55413000D02*
X139170000Y-56323000D01*
X139710000Y-55403000D02*
X140250000Y-56353000D01*
X138700000Y-54273000D02*
X140700000Y-54273000D01*
X139710000Y-54013000D02*
X139710000Y-55293000D01*
X139710000Y-57473000D02*
X139710000Y-56353000D01*
X138700000Y-57263000D02*
X140690000Y-57263000D01*
X140700000Y-54273000D02*
X140690000Y-57263000D01*
X138700000Y-54283000D02*
X138700000Y-57253000D01*
%TO.C,D12*%
X135868000Y-55303000D02*
X136948000Y-55303000D01*
X135868000Y-56353000D02*
X136948000Y-56353000D01*
X136398000Y-55413000D02*
X135868000Y-56323000D01*
X136408000Y-55403000D02*
X136948000Y-56353000D01*
X135398000Y-54273000D02*
X137398000Y-54273000D01*
X136408000Y-54013000D02*
X136408000Y-55293000D01*
X136408000Y-57473000D02*
X136408000Y-56353000D01*
X135398000Y-57263000D02*
X137388000Y-57263000D01*
X137398000Y-54273000D02*
X137388000Y-57263000D01*
X135398000Y-54283000D02*
X135398000Y-57253000D01*
%TO.C,D11*%
X132566000Y-55303000D02*
X133646000Y-55303000D01*
X132566000Y-56353000D02*
X133646000Y-56353000D01*
X133096000Y-55413000D02*
X132566000Y-56323000D01*
X133106000Y-55403000D02*
X133646000Y-56353000D01*
X132096000Y-54273000D02*
X134096000Y-54273000D01*
X133106000Y-54013000D02*
X133106000Y-55293000D01*
X133106000Y-57473000D02*
X133106000Y-56353000D01*
X132096000Y-57263000D02*
X134086000Y-57263000D01*
X134096000Y-54273000D02*
X134086000Y-57263000D01*
X132096000Y-54283000D02*
X132096000Y-57253000D01*
%TO.C,D10*%
X145774000Y-55303000D02*
X146854000Y-55303000D01*
X145774000Y-56353000D02*
X146854000Y-56353000D01*
X146304000Y-55413000D02*
X145774000Y-56323000D01*
X146314000Y-55403000D02*
X146854000Y-56353000D01*
X145304000Y-54273000D02*
X147304000Y-54273000D01*
X146314000Y-54013000D02*
X146314000Y-55293000D01*
X146314000Y-57473000D02*
X146314000Y-56353000D01*
X145304000Y-57263000D02*
X147294000Y-57263000D01*
X147304000Y-54273000D02*
X147294000Y-57263000D01*
X145304000Y-54283000D02*
X145304000Y-57253000D01*
%TO.C,D9*%
X116056000Y-55303000D02*
X117136000Y-55303000D01*
X116056000Y-56353000D02*
X117136000Y-56353000D01*
X116586000Y-55413000D02*
X116056000Y-56323000D01*
X116596000Y-55403000D02*
X117136000Y-56353000D01*
X115586000Y-54273000D02*
X117586000Y-54273000D01*
X116596000Y-54013000D02*
X116596000Y-55293000D01*
X116596000Y-57473000D02*
X116596000Y-56353000D01*
X115586000Y-57263000D02*
X117576000Y-57263000D01*
X117586000Y-54273000D02*
X117576000Y-57263000D01*
X115586000Y-54283000D02*
X115586000Y-57253000D01*
%TO.C,D8*%
X119358000Y-55303000D02*
X120438000Y-55303000D01*
X119358000Y-56353000D02*
X120438000Y-56353000D01*
X119888000Y-55413000D02*
X119358000Y-56323000D01*
X119898000Y-55403000D02*
X120438000Y-56353000D01*
X118888000Y-54273000D02*
X120888000Y-54273000D01*
X119898000Y-54013000D02*
X119898000Y-55293000D01*
X119898000Y-57473000D02*
X119898000Y-56353000D01*
X118888000Y-57263000D02*
X120878000Y-57263000D01*
X120888000Y-54273000D02*
X120878000Y-57263000D01*
X118888000Y-54283000D02*
X118888000Y-57253000D01*
%TO.C,D7*%
X122660000Y-55303000D02*
X123740000Y-55303000D01*
X122660000Y-56353000D02*
X123740000Y-56353000D01*
X123190000Y-55413000D02*
X122660000Y-56323000D01*
X123200000Y-55403000D02*
X123740000Y-56353000D01*
X122190000Y-54273000D02*
X124190000Y-54273000D01*
X123200000Y-54013000D02*
X123200000Y-55293000D01*
X123200000Y-57473000D02*
X123200000Y-56353000D01*
X122190000Y-57263000D02*
X124180000Y-57263000D01*
X124190000Y-54273000D02*
X124180000Y-57263000D01*
X122190000Y-54283000D02*
X122190000Y-57253000D01*
%TO.C,D6*%
X125962000Y-55303000D02*
X127042000Y-55303000D01*
X125962000Y-56353000D02*
X127042000Y-56353000D01*
X126492000Y-55413000D02*
X125962000Y-56323000D01*
X126502000Y-55403000D02*
X127042000Y-56353000D01*
X125492000Y-54273000D02*
X127492000Y-54273000D01*
X126502000Y-54013000D02*
X126502000Y-55293000D01*
X126502000Y-57473000D02*
X126502000Y-56353000D01*
X125492000Y-57263000D02*
X127482000Y-57263000D01*
X127492000Y-54273000D02*
X127482000Y-57263000D01*
X125492000Y-54283000D02*
X125492000Y-57253000D01*
%TO.C,D5*%
X112754000Y-55303000D02*
X113834000Y-55303000D01*
X112754000Y-56353000D02*
X113834000Y-56353000D01*
X113284000Y-55413000D02*
X112754000Y-56323000D01*
X113294000Y-55403000D02*
X113834000Y-56353000D01*
X112284000Y-54273000D02*
X114284000Y-54273000D01*
X113294000Y-54013000D02*
X113294000Y-55293000D01*
X113294000Y-57473000D02*
X113294000Y-56353000D01*
X112284000Y-57263000D02*
X114274000Y-57263000D01*
X114284000Y-54273000D02*
X114274000Y-57263000D01*
X112284000Y-54283000D02*
X112284000Y-57253000D01*
%TO.C,D4*%
X109452000Y-55303000D02*
X110532000Y-55303000D01*
X109452000Y-56353000D02*
X110532000Y-56353000D01*
X109982000Y-55413000D02*
X109452000Y-56323000D01*
X109992000Y-55403000D02*
X110532000Y-56353000D01*
X108982000Y-54273000D02*
X110982000Y-54273000D01*
X109992000Y-54013000D02*
X109992000Y-55293000D01*
X109992000Y-57473000D02*
X109992000Y-56353000D01*
X108982000Y-57263000D02*
X110972000Y-57263000D01*
X110982000Y-54273000D02*
X110972000Y-57263000D01*
X108982000Y-54283000D02*
X108982000Y-57253000D01*
%TO.C,D3*%
X106150000Y-55303000D02*
X107230000Y-55303000D01*
X106150000Y-56353000D02*
X107230000Y-56353000D01*
X106680000Y-55413000D02*
X106150000Y-56323000D01*
X106690000Y-55403000D02*
X107230000Y-56353000D01*
X105680000Y-54273000D02*
X107680000Y-54273000D01*
X106690000Y-54013000D02*
X106690000Y-55293000D01*
X106690000Y-57473000D02*
X106690000Y-56353000D01*
X105680000Y-57263000D02*
X107670000Y-57263000D01*
X107680000Y-54273000D02*
X107670000Y-57263000D01*
X105680000Y-54283000D02*
X105680000Y-57253000D01*
%TO.C,D2*%
X102848000Y-55303000D02*
X103928000Y-55303000D01*
X102848000Y-56353000D02*
X103928000Y-56353000D01*
X103378000Y-55413000D02*
X102848000Y-56323000D01*
X103388000Y-55403000D02*
X103928000Y-56353000D01*
X102378000Y-54273000D02*
X104378000Y-54273000D01*
X103388000Y-54013000D02*
X103388000Y-55293000D01*
X103388000Y-57473000D02*
X103388000Y-56353000D01*
X102378000Y-57263000D02*
X104368000Y-57263000D01*
X104378000Y-54273000D02*
X104368000Y-57263000D01*
X102378000Y-54283000D02*
X102378000Y-57253000D01*
%TO.C,D1*%
X99546000Y-55303000D02*
X100626000Y-55303000D01*
X99546000Y-56353000D02*
X100626000Y-56353000D01*
X100076000Y-55413000D02*
X99546000Y-56323000D01*
X100086000Y-55403000D02*
X100626000Y-56353000D01*
X99076000Y-54273000D02*
X101076000Y-54273000D01*
X100086000Y-54013000D02*
X100086000Y-55293000D01*
X100086000Y-57473000D02*
X100086000Y-56353000D01*
X99076000Y-57263000D02*
X101066000Y-57263000D01*
X101076000Y-54273000D02*
X101066000Y-57263000D01*
X99076000Y-54283000D02*
X99076000Y-57253000D01*
%TO.C,SW3*%
X188166000Y-148209000D02*
G75*
G03*
X188166000Y-148209000I-3000000J0D01*
G01*
X187166000Y-142309000D02*
X191266000Y-142309000D01*
X191266000Y-154109000D02*
X187166000Y-154109000D01*
X183166000Y-154109000D02*
X179066000Y-154109000D01*
X183166000Y-142309000D02*
X179066000Y-142309000D01*
X179066000Y-142309000D02*
X179066000Y-154109000D01*
X177666000Y-144409000D02*
X177366000Y-144109000D01*
X177366000Y-144109000D02*
X177966000Y-144109000D01*
X177966000Y-144109000D02*
X177666000Y-144409000D01*
X191266000Y-142309000D02*
X191266000Y-144709000D01*
X191266000Y-146909000D02*
X191266000Y-149509000D01*
X191266000Y-151709000D02*
X191266000Y-154109000D01*
X185166000Y-147709000D02*
X185166000Y-148709000D01*
X184666000Y-148209000D02*
X185666000Y-148209000D01*
%TO.C,SW2*%
X188166000Y-122809000D02*
G75*
G03*
X188166000Y-122809000I-3000000J0D01*
G01*
X187166000Y-116909000D02*
X191266000Y-116909000D01*
X191266000Y-128709000D02*
X187166000Y-128709000D01*
X183166000Y-128709000D02*
X179066000Y-128709000D01*
X183166000Y-116909000D02*
X179066000Y-116909000D01*
X179066000Y-116909000D02*
X179066000Y-128709000D01*
X177666000Y-119009000D02*
X177366000Y-118709000D01*
X177366000Y-118709000D02*
X177966000Y-118709000D01*
X177966000Y-118709000D02*
X177666000Y-119009000D01*
X191266000Y-116909000D02*
X191266000Y-119309000D01*
X191266000Y-121509000D02*
X191266000Y-124109000D01*
X191266000Y-126309000D02*
X191266000Y-128709000D01*
X185166000Y-122309000D02*
X185166000Y-123309000D01*
X184666000Y-122809000D02*
X185666000Y-122809000D01*
%TO.C,SW1*%
X188166000Y-97409000D02*
G75*
G03*
X188166000Y-97409000I-3000000J0D01*
G01*
X187166000Y-91509000D02*
X191266000Y-91509000D01*
X191266000Y-103309000D02*
X187166000Y-103309000D01*
X183166000Y-103309000D02*
X179066000Y-103309000D01*
X183166000Y-91509000D02*
X179066000Y-91509000D01*
X179066000Y-91509000D02*
X179066000Y-103309000D01*
X177666000Y-93609000D02*
X177366000Y-93309000D01*
X177366000Y-93309000D02*
X177966000Y-93309000D01*
X177966000Y-93309000D02*
X177666000Y-93609000D01*
X191266000Y-91509000D02*
X191266000Y-93909000D01*
X191266000Y-96109000D02*
X191266000Y-98709000D01*
X191266000Y-100909000D02*
X191266000Y-103309000D01*
X185166000Y-96909000D02*
X185166000Y-97909000D01*
X184666000Y-97409000D02*
X185666000Y-97409000D01*
D10*
%TO.C,R12*%
X105000000Y-43449500D02*
X105000000Y-44649500D01*
X105000000Y-36249500D02*
X105000000Y-37449500D01*
X106000000Y-38249500D02*
X105800000Y-38449500D01*
X106000000Y-37849500D02*
X106000000Y-38249500D01*
X105800000Y-37649500D02*
X106000000Y-37849500D01*
X105000000Y-37449500D02*
X105800000Y-37649500D01*
X104200000Y-37649500D02*
X105000000Y-37449500D01*
X104000000Y-37849500D02*
X104200000Y-37649500D01*
X104000000Y-38249500D02*
X104000000Y-37849500D01*
X104200000Y-38449500D02*
X104000000Y-38249500D01*
X104200000Y-42449500D02*
X104200000Y-38449500D01*
X104000000Y-42649500D02*
X104200000Y-42449500D01*
X104000000Y-43049500D02*
X104000000Y-42649500D01*
X104200000Y-43249500D02*
X104000000Y-43049500D01*
X105000000Y-43449500D02*
X104200000Y-43249500D01*
X105800000Y-43249500D02*
X105000000Y-43449500D01*
X106000000Y-43049500D02*
X105800000Y-43249500D01*
X106000000Y-42649500D02*
X106000000Y-43049500D01*
X105800000Y-42449500D02*
X106000000Y-42649500D01*
X105800000Y-38449500D02*
X105800000Y-42449500D01*
%TO.C,R11*%
X110000000Y-43449500D02*
X110000000Y-44649500D01*
X110000000Y-36249500D02*
X110000000Y-37449500D01*
X111000000Y-38249500D02*
X110800000Y-38449500D01*
X111000000Y-37849500D02*
X111000000Y-38249500D01*
X110800000Y-37649500D02*
X111000000Y-37849500D01*
X110000000Y-37449500D02*
X110800000Y-37649500D01*
X109200000Y-37649500D02*
X110000000Y-37449500D01*
X109000000Y-37849500D02*
X109200000Y-37649500D01*
X109000000Y-38249500D02*
X109000000Y-37849500D01*
X109200000Y-38449500D02*
X109000000Y-38249500D01*
X109200000Y-42449500D02*
X109200000Y-38449500D01*
X109000000Y-42649500D02*
X109200000Y-42449500D01*
X109000000Y-43049500D02*
X109000000Y-42649500D01*
X109200000Y-43249500D02*
X109000000Y-43049500D01*
X110000000Y-43449500D02*
X109200000Y-43249500D01*
X110800000Y-43249500D02*
X110000000Y-43449500D01*
X111000000Y-43049500D02*
X110800000Y-43249500D01*
X111000000Y-42649500D02*
X111000000Y-43049500D01*
X110800000Y-42449500D02*
X111000000Y-42649500D01*
X110800000Y-38449500D02*
X110800000Y-42449500D01*
%TO.C,R10*%
X115000000Y-43449500D02*
X115000000Y-44649500D01*
X115000000Y-36249500D02*
X115000000Y-37449500D01*
X116000000Y-38249500D02*
X115800000Y-38449500D01*
X116000000Y-37849500D02*
X116000000Y-38249500D01*
X115800000Y-37649500D02*
X116000000Y-37849500D01*
X115000000Y-37449500D02*
X115800000Y-37649500D01*
X114200000Y-37649500D02*
X115000000Y-37449500D01*
X114000000Y-37849500D02*
X114200000Y-37649500D01*
X114000000Y-38249500D02*
X114000000Y-37849500D01*
X114200000Y-38449500D02*
X114000000Y-38249500D01*
X114200000Y-42449500D02*
X114200000Y-38449500D01*
X114000000Y-42649500D02*
X114200000Y-42449500D01*
X114000000Y-43049500D02*
X114000000Y-42649500D01*
X114200000Y-43249500D02*
X114000000Y-43049500D01*
X115000000Y-43449500D02*
X114200000Y-43249500D01*
X115800000Y-43249500D02*
X115000000Y-43449500D01*
X116000000Y-43049500D02*
X115800000Y-43249500D01*
X116000000Y-42649500D02*
X116000000Y-43049500D01*
X115800000Y-42449500D02*
X116000000Y-42649500D01*
X115800000Y-38449500D02*
X115800000Y-42449500D01*
%TO.C,R9*%
X120000000Y-43449500D02*
X120000000Y-44649500D01*
X120000000Y-36249500D02*
X120000000Y-37449500D01*
X121000000Y-38249500D02*
X120800000Y-38449500D01*
X121000000Y-37849500D02*
X121000000Y-38249500D01*
X120800000Y-37649500D02*
X121000000Y-37849500D01*
X120000000Y-37449500D02*
X120800000Y-37649500D01*
X119200000Y-37649500D02*
X120000000Y-37449500D01*
X119000000Y-37849500D02*
X119200000Y-37649500D01*
X119000000Y-38249500D02*
X119000000Y-37849500D01*
X119200000Y-38449500D02*
X119000000Y-38249500D01*
X119200000Y-42449500D02*
X119200000Y-38449500D01*
X119000000Y-42649500D02*
X119200000Y-42449500D01*
X119000000Y-43049500D02*
X119000000Y-42649500D01*
X119200000Y-43249500D02*
X119000000Y-43049500D01*
X120000000Y-43449500D02*
X119200000Y-43249500D01*
X120800000Y-43249500D02*
X120000000Y-43449500D01*
X121000000Y-43049500D02*
X120800000Y-43249500D01*
X121000000Y-42649500D02*
X121000000Y-43049500D01*
X120800000Y-42449500D02*
X121000000Y-42649500D01*
X120800000Y-38449500D02*
X120800000Y-42449500D01*
%TO.C,R8*%
X125000000Y-43513000D02*
X125000000Y-44713000D01*
X125000000Y-36313000D02*
X125000000Y-37513000D01*
X126000000Y-38313000D02*
X125800000Y-38513000D01*
X126000000Y-37913000D02*
X126000000Y-38313000D01*
X125800000Y-37713000D02*
X126000000Y-37913000D01*
X125000000Y-37513000D02*
X125800000Y-37713000D01*
X124200000Y-37713000D02*
X125000000Y-37513000D01*
X124000000Y-37913000D02*
X124200000Y-37713000D01*
X124000000Y-38313000D02*
X124000000Y-37913000D01*
X124200000Y-38513000D02*
X124000000Y-38313000D01*
X124200000Y-42513000D02*
X124200000Y-38513000D01*
X124000000Y-42713000D02*
X124200000Y-42513000D01*
X124000000Y-43113000D02*
X124000000Y-42713000D01*
X124200000Y-43313000D02*
X124000000Y-43113000D01*
X125000000Y-43513000D02*
X124200000Y-43313000D01*
X125800000Y-43313000D02*
X125000000Y-43513000D01*
X126000000Y-43113000D02*
X125800000Y-43313000D01*
X126000000Y-42713000D02*
X126000000Y-43113000D01*
X125800000Y-42513000D02*
X126000000Y-42713000D01*
X125800000Y-38513000D02*
X125800000Y-42513000D01*
%TO.C,R7*%
X130000000Y-43513000D02*
X130000000Y-44713000D01*
X130000000Y-36313000D02*
X130000000Y-37513000D01*
X131000000Y-38313000D02*
X130800000Y-38513000D01*
X131000000Y-37913000D02*
X131000000Y-38313000D01*
X130800000Y-37713000D02*
X131000000Y-37913000D01*
X130000000Y-37513000D02*
X130800000Y-37713000D01*
X129200000Y-37713000D02*
X130000000Y-37513000D01*
X129000000Y-37913000D02*
X129200000Y-37713000D01*
X129000000Y-38313000D02*
X129000000Y-37913000D01*
X129200000Y-38513000D02*
X129000000Y-38313000D01*
X129200000Y-42513000D02*
X129200000Y-38513000D01*
X129000000Y-42713000D02*
X129200000Y-42513000D01*
X129000000Y-43113000D02*
X129000000Y-42713000D01*
X129200000Y-43313000D02*
X129000000Y-43113000D01*
X130000000Y-43513000D02*
X129200000Y-43313000D01*
X130800000Y-43313000D02*
X130000000Y-43513000D01*
X131000000Y-43113000D02*
X130800000Y-43313000D01*
X131000000Y-42713000D02*
X131000000Y-43113000D01*
X130800000Y-42513000D02*
X131000000Y-42713000D01*
X130800000Y-38513000D02*
X130800000Y-42513000D01*
%TO.C,R6*%
X135000000Y-43513000D02*
X135000000Y-44713000D01*
X135000000Y-36313000D02*
X135000000Y-37513000D01*
X136000000Y-38313000D02*
X135800000Y-38513000D01*
X136000000Y-37913000D02*
X136000000Y-38313000D01*
X135800000Y-37713000D02*
X136000000Y-37913000D01*
X135000000Y-37513000D02*
X135800000Y-37713000D01*
X134200000Y-37713000D02*
X135000000Y-37513000D01*
X134000000Y-37913000D02*
X134200000Y-37713000D01*
X134000000Y-38313000D02*
X134000000Y-37913000D01*
X134200000Y-38513000D02*
X134000000Y-38313000D01*
X134200000Y-42513000D02*
X134200000Y-38513000D01*
X134000000Y-42713000D02*
X134200000Y-42513000D01*
X134000000Y-43113000D02*
X134000000Y-42713000D01*
X134200000Y-43313000D02*
X134000000Y-43113000D01*
X135000000Y-43513000D02*
X134200000Y-43313000D01*
X135800000Y-43313000D02*
X135000000Y-43513000D01*
X136000000Y-43113000D02*
X135800000Y-43313000D01*
X136000000Y-42713000D02*
X136000000Y-43113000D01*
X135800000Y-42513000D02*
X136000000Y-42713000D01*
X135800000Y-38513000D02*
X135800000Y-42513000D01*
%TO.C,R5*%
X140000000Y-43513000D02*
X140000000Y-44713000D01*
X140000000Y-36313000D02*
X140000000Y-37513000D01*
X141000000Y-38313000D02*
X140800000Y-38513000D01*
X141000000Y-37913000D02*
X141000000Y-38313000D01*
X140800000Y-37713000D02*
X141000000Y-37913000D01*
X140000000Y-37513000D02*
X140800000Y-37713000D01*
X139200000Y-37713000D02*
X140000000Y-37513000D01*
X139000000Y-37913000D02*
X139200000Y-37713000D01*
X139000000Y-38313000D02*
X139000000Y-37913000D01*
X139200000Y-38513000D02*
X139000000Y-38313000D01*
X139200000Y-42513000D02*
X139200000Y-38513000D01*
X139000000Y-42713000D02*
X139200000Y-42513000D01*
X139000000Y-43113000D02*
X139000000Y-42713000D01*
X139200000Y-43313000D02*
X139000000Y-43113000D01*
X140000000Y-43513000D02*
X139200000Y-43313000D01*
X140800000Y-43313000D02*
X140000000Y-43513000D01*
X141000000Y-43113000D02*
X140800000Y-43313000D01*
X141000000Y-42713000D02*
X141000000Y-43113000D01*
X140800000Y-42513000D02*
X141000000Y-42713000D01*
X140800000Y-38513000D02*
X140800000Y-42513000D01*
%TO.C,R4*%
X145000000Y-43513000D02*
X145000000Y-44713000D01*
X145000000Y-36313000D02*
X145000000Y-37513000D01*
X146000000Y-38313000D02*
X145800000Y-38513000D01*
X146000000Y-37913000D02*
X146000000Y-38313000D01*
X145800000Y-37713000D02*
X146000000Y-37913000D01*
X145000000Y-37513000D02*
X145800000Y-37713000D01*
X144200000Y-37713000D02*
X145000000Y-37513000D01*
X144000000Y-37913000D02*
X144200000Y-37713000D01*
X144000000Y-38313000D02*
X144000000Y-37913000D01*
X144200000Y-38513000D02*
X144000000Y-38313000D01*
X144200000Y-42513000D02*
X144200000Y-38513000D01*
X144000000Y-42713000D02*
X144200000Y-42513000D01*
X144000000Y-43113000D02*
X144000000Y-42713000D01*
X144200000Y-43313000D02*
X144000000Y-43113000D01*
X145000000Y-43513000D02*
X144200000Y-43313000D01*
X145800000Y-43313000D02*
X145000000Y-43513000D01*
X146000000Y-43113000D02*
X145800000Y-43313000D01*
X146000000Y-42713000D02*
X146000000Y-43113000D01*
X145800000Y-42513000D02*
X146000000Y-42713000D01*
X145800000Y-38513000D02*
X145800000Y-42513000D01*
%TO.C,R3*%
X150000000Y-43513000D02*
X150000000Y-44713000D01*
X150000000Y-36313000D02*
X150000000Y-37513000D01*
X151000000Y-38313000D02*
X150800000Y-38513000D01*
X151000000Y-37913000D02*
X151000000Y-38313000D01*
X150800000Y-37713000D02*
X151000000Y-37913000D01*
X150000000Y-37513000D02*
X150800000Y-37713000D01*
X149200000Y-37713000D02*
X150000000Y-37513000D01*
X149000000Y-37913000D02*
X149200000Y-37713000D01*
X149000000Y-38313000D02*
X149000000Y-37913000D01*
X149200000Y-38513000D02*
X149000000Y-38313000D01*
X149200000Y-42513000D02*
X149200000Y-38513000D01*
X149000000Y-42713000D02*
X149200000Y-42513000D01*
X149000000Y-43113000D02*
X149000000Y-42713000D01*
X149200000Y-43313000D02*
X149000000Y-43113000D01*
X150000000Y-43513000D02*
X149200000Y-43313000D01*
X150800000Y-43313000D02*
X150000000Y-43513000D01*
X151000000Y-43113000D02*
X150800000Y-43313000D01*
X151000000Y-42713000D02*
X151000000Y-43113000D01*
X150800000Y-42513000D02*
X151000000Y-42713000D01*
X150800000Y-38513000D02*
X150800000Y-42513000D01*
%TO.C,R2*%
X155000000Y-43513000D02*
X155000000Y-44713000D01*
X155000000Y-36313000D02*
X155000000Y-37513000D01*
X156000000Y-38313000D02*
X155800000Y-38513000D01*
X156000000Y-37913000D02*
X156000000Y-38313000D01*
X155800000Y-37713000D02*
X156000000Y-37913000D01*
X155000000Y-37513000D02*
X155800000Y-37713000D01*
X154200000Y-37713000D02*
X155000000Y-37513000D01*
X154000000Y-37913000D02*
X154200000Y-37713000D01*
X154000000Y-38313000D02*
X154000000Y-37913000D01*
X154200000Y-38513000D02*
X154000000Y-38313000D01*
X154200000Y-42513000D02*
X154200000Y-38513000D01*
X154000000Y-42713000D02*
X154200000Y-42513000D01*
X154000000Y-43113000D02*
X154000000Y-42713000D01*
X154200000Y-43313000D02*
X154000000Y-43113000D01*
X155000000Y-43513000D02*
X154200000Y-43313000D01*
X155800000Y-43313000D02*
X155000000Y-43513000D01*
X156000000Y-43113000D02*
X155800000Y-43313000D01*
X156000000Y-42713000D02*
X156000000Y-43113000D01*
X155800000Y-42513000D02*
X156000000Y-42713000D01*
X155800000Y-38513000D02*
X155800000Y-42513000D01*
%TO.C,R1*%
X100076000Y-43513000D02*
X100076000Y-44713000D01*
X100076000Y-36313000D02*
X100076000Y-37513000D01*
X101076000Y-38313000D02*
X100876000Y-38513000D01*
X101076000Y-37913000D02*
X101076000Y-38313000D01*
X100876000Y-37713000D02*
X101076000Y-37913000D01*
X100076000Y-37513000D02*
X100876000Y-37713000D01*
X99276000Y-37713000D02*
X100076000Y-37513000D01*
X99076000Y-37913000D02*
X99276000Y-37713000D01*
X99076000Y-38313000D02*
X99076000Y-37913000D01*
X99276000Y-38513000D02*
X99076000Y-38313000D01*
X99276000Y-42513000D02*
X99276000Y-38513000D01*
X99076000Y-42713000D02*
X99276000Y-42513000D01*
X99076000Y-43113000D02*
X99076000Y-42713000D01*
X99276000Y-43313000D02*
X99076000Y-43113000D01*
X100076000Y-43513000D02*
X99276000Y-43313000D01*
X100876000Y-43313000D02*
X100076000Y-43513000D01*
X101076000Y-43113000D02*
X100876000Y-43313000D01*
X101076000Y-42713000D02*
X101076000Y-43113000D01*
X100876000Y-42513000D02*
X101076000Y-42713000D01*
X100876000Y-38513000D02*
X100876000Y-42513000D01*
D12*
%TO.C,C6*%
X158073000Y-35226000D02*
X159173000Y-35226000D01*
X158073000Y-37926000D02*
X158073000Y-35226000D01*
X159173000Y-37926000D02*
X158073000Y-37926000D01*
X159173000Y-35226000D02*
X159173000Y-37926000D01*
%TO.C,C5*%
X161121000Y-35226000D02*
X162221000Y-35226000D01*
X161121000Y-37926000D02*
X161121000Y-35226000D01*
X162221000Y-37926000D02*
X161121000Y-37926000D01*
X162221000Y-35226000D02*
X162221000Y-37926000D01*
%TO.C,C4*%
X158073000Y-39925000D02*
X159173000Y-39925000D01*
X158073000Y-42625000D02*
X158073000Y-39925000D01*
X159173000Y-42625000D02*
X158073000Y-42625000D01*
X159173000Y-39925000D02*
X159173000Y-42625000D01*
%TO.C,C3*%
X161121000Y-39925000D02*
X162221000Y-39925000D01*
X161121000Y-42625000D02*
X161121000Y-39925000D01*
X162221000Y-42625000D02*
X161121000Y-42625000D01*
X162221000Y-39925000D02*
X162221000Y-42625000D01*
%TO.C,C2*%
X158073000Y-44243000D02*
X159173000Y-44243000D01*
X158073000Y-46943000D02*
X158073000Y-44243000D01*
X159173000Y-46943000D02*
X158073000Y-46943000D01*
X159173000Y-44243000D02*
X159173000Y-46943000D01*
%TO.C,C1*%
X161121000Y-44243000D02*
X162221000Y-44243000D01*
X161121000Y-46943000D02*
X161121000Y-44243000D01*
X162221000Y-46943000D02*
X161121000Y-46943000D01*
X162221000Y-44243000D02*
X162221000Y-46943000D01*
%TO.C,U1*%
D10*
D13*
X172819261Y-37550285D02*
X172652595Y-37193142D01*
X172533547Y-37550285D02*
X172533547Y-36800285D01*
X172724023Y-36800285D01*
X172771642Y-36836000D01*
X172795452Y-36871714D01*
X172819261Y-36943142D01*
X172819261Y-37050285D01*
X172795452Y-37121714D01*
X172771642Y-37157428D01*
X172724023Y-37193142D01*
X172533547Y-37193142D01*
X173009738Y-37336000D02*
X173247833Y-37336000D01*
X172962119Y-37550285D02*
X173128785Y-36800285D01*
X173295452Y-37550285D01*
X173414500Y-36800285D02*
X173533547Y-37550285D01*
X173628785Y-37014571D01*
X173724023Y-37550285D01*
X173843071Y-36800285D01*
X188058571Y-37550285D02*
X187820476Y-37550285D01*
X187820476Y-36800285D01*
X188225238Y-37157428D02*
X188391904Y-37157428D01*
X188463333Y-37550285D02*
X188225238Y-37550285D01*
X188225238Y-36800285D01*
X188463333Y-36800285D01*
X188677619Y-37550285D02*
X188677619Y-36800285D01*
X188796666Y-36800285D01*
X188868095Y-36836000D01*
X188915714Y-36907428D01*
X188939523Y-36978857D01*
X188963333Y-37121714D01*
X188963333Y-37228857D01*
X188939523Y-37371714D01*
X188915714Y-37443142D01*
X188868095Y-37514571D01*
X188796666Y-37550285D01*
X188677619Y-37550285D01*
X172783547Y-39376000D02*
X172735928Y-39340285D01*
X172664500Y-39340285D01*
X172593071Y-39376000D01*
X172545452Y-39447428D01*
X172521642Y-39518857D01*
X172497833Y-39661714D01*
X172497833Y-39768857D01*
X172521642Y-39911714D01*
X172545452Y-39983142D01*
X172593071Y-40054571D01*
X172664500Y-40090285D01*
X172712119Y-40090285D01*
X172783547Y-40054571D01*
X172807357Y-40018857D01*
X172807357Y-39768857D01*
X172712119Y-39768857D01*
X173021642Y-40090285D02*
X173021642Y-39340285D01*
X173307357Y-40090285D01*
X173307357Y-39340285D01*
X173545452Y-40090285D02*
X173545452Y-39340285D01*
X173664500Y-39340285D01*
X173735928Y-39376000D01*
X173783547Y-39447428D01*
X173807357Y-39518857D01*
X173831166Y-39661714D01*
X173831166Y-39768857D01*
X173807357Y-39911714D01*
X173783547Y-39983142D01*
X173735928Y-40054571D01*
X173664500Y-40090285D01*
X173545452Y-40090285D01*
X187480000Y-40078285D02*
X187480000Y-39328285D01*
X187599047Y-39328285D01*
X187670476Y-39364000D01*
X187718095Y-39435428D01*
X187741904Y-39506857D01*
X187765714Y-39649714D01*
X187765714Y-39756857D01*
X187741904Y-39899714D01*
X187718095Y-39971142D01*
X187670476Y-40042571D01*
X187599047Y-40078285D01*
X187480000Y-40078285D01*
X187956190Y-39864000D02*
X188194285Y-39864000D01*
X187908571Y-40078285D02*
X188075238Y-39328285D01*
X188241904Y-40078285D01*
X188337142Y-39328285D02*
X188622857Y-39328285D01*
X188480000Y-40078285D02*
X188480000Y-39328285D01*
X188765714Y-39864000D02*
X189003809Y-39864000D01*
X188718095Y-40078285D02*
X188884761Y-39328285D01*
X189051428Y-40078285D01*
X172890690Y-42693785D02*
X172724023Y-42336642D01*
X172604976Y-42693785D02*
X172604976Y-41943785D01*
X172795452Y-41943785D01*
X172843071Y-41979500D01*
X172866880Y-42015214D01*
X172890690Y-42086642D01*
X172890690Y-42193785D01*
X172866880Y-42265214D01*
X172843071Y-42300928D01*
X172795452Y-42336642D01*
X172604976Y-42336642D01*
X173081166Y-42658071D02*
X173152595Y-42693785D01*
X173271642Y-42693785D01*
X173319261Y-42658071D01*
X173343071Y-42622357D01*
X173366880Y-42550928D01*
X173366880Y-42479500D01*
X173343071Y-42408071D01*
X173319261Y-42372357D01*
X173271642Y-42336642D01*
X173176404Y-42300928D01*
X173128785Y-42265214D01*
X173104976Y-42229500D01*
X173081166Y-42158071D01*
X173081166Y-42086642D01*
X173104976Y-42015214D01*
X173128785Y-41979500D01*
X173176404Y-41943785D01*
X173295452Y-41943785D01*
X173366880Y-41979500D01*
X173509738Y-41943785D02*
X173795452Y-41943785D01*
X173652595Y-42693785D02*
X173652595Y-41943785D01*
X188023547Y-41979500D02*
X187975928Y-41943785D01*
X187904500Y-41943785D01*
X187833071Y-41979500D01*
X187785452Y-42050928D01*
X187761642Y-42122357D01*
X187737833Y-42265214D01*
X187737833Y-42372357D01*
X187761642Y-42515214D01*
X187785452Y-42586642D01*
X187833071Y-42658071D01*
X187904500Y-42693785D01*
X187952119Y-42693785D01*
X188023547Y-42658071D01*
X188047357Y-42622357D01*
X188047357Y-42372357D01*
X187952119Y-42372357D01*
X188261642Y-42693785D02*
X188261642Y-41943785D01*
X188547357Y-42693785D01*
X188547357Y-41943785D01*
X188785452Y-42693785D02*
X188785452Y-41943785D01*
X188904500Y-41943785D01*
X188975928Y-41979500D01*
X189023547Y-42050928D01*
X189047357Y-42122357D01*
X189071166Y-42265214D01*
X189071166Y-42372357D01*
X189047357Y-42515214D01*
X189023547Y-42586642D01*
X188975928Y-42658071D01*
X188904500Y-42693785D01*
X188785452Y-42693785D01*
X172497833Y-44420285D02*
X172664500Y-45170285D01*
X172831166Y-44420285D01*
X173283547Y-45098857D02*
X173259738Y-45134571D01*
X173188309Y-45170285D01*
X173140690Y-45170285D01*
X173069261Y-45134571D01*
X173021642Y-45063142D01*
X172997833Y-44991714D01*
X172974023Y-44848857D01*
X172974023Y-44741714D01*
X172997833Y-44598857D01*
X173021642Y-44527428D01*
X173069261Y-44456000D01*
X173140690Y-44420285D01*
X173188309Y-44420285D01*
X173259738Y-44456000D01*
X173283547Y-44491714D01*
X173783547Y-45098857D02*
X173759738Y-45134571D01*
X173688309Y-45170285D01*
X173640690Y-45170285D01*
X173569261Y-45134571D01*
X173521642Y-45063142D01*
X173497833Y-44991714D01*
X173474023Y-44848857D01*
X173474023Y-44741714D01*
X173497833Y-44598857D01*
X173521642Y-44527428D01*
X173569261Y-44456000D01*
X173640690Y-44420285D01*
X173688309Y-44420285D01*
X173759738Y-44456000D01*
X173783547Y-44491714D01*
X187960047Y-44519500D02*
X187912428Y-44483785D01*
X187841000Y-44483785D01*
X187769571Y-44519500D01*
X187721952Y-44590928D01*
X187698142Y-44662357D01*
X187674333Y-44805214D01*
X187674333Y-44912357D01*
X187698142Y-45055214D01*
X187721952Y-45126642D01*
X187769571Y-45198071D01*
X187841000Y-45233785D01*
X187888619Y-45233785D01*
X187960047Y-45198071D01*
X187983857Y-45162357D01*
X187983857Y-44912357D01*
X187888619Y-44912357D01*
X188198142Y-45233785D02*
X188198142Y-44483785D01*
X188483857Y-45233785D01*
X188483857Y-44483785D01*
X188721952Y-45233785D02*
X188721952Y-44483785D01*
X188841000Y-44483785D01*
X188912428Y-44519500D01*
X188960047Y-44590928D01*
X188983857Y-44662357D01*
X189007666Y-44805214D01*
X189007666Y-44912357D01*
X188983857Y-45055214D01*
X188960047Y-45126642D01*
X188912428Y-45198071D01*
X188841000Y-45233785D01*
X188721952Y-45233785D01*
X172332380Y-55306857D02*
X172308571Y-55342571D01*
X172237142Y-55378285D01*
X172189523Y-55378285D01*
X172118095Y-55342571D01*
X172070476Y-55271142D01*
X172046666Y-55199714D01*
X172022857Y-55056857D01*
X172022857Y-54949714D01*
X172046666Y-54806857D01*
X172070476Y-54735428D01*
X172118095Y-54664000D01*
X172189523Y-54628285D01*
X172237142Y-54628285D01*
X172308571Y-54664000D01*
X172332380Y-54699714D01*
X172641904Y-54628285D02*
X172737142Y-54628285D01*
X172784761Y-54664000D01*
X172832380Y-54735428D01*
X172856190Y-54878285D01*
X172856190Y-55128285D01*
X172832380Y-55271142D01*
X172784761Y-55342571D01*
X172737142Y-55378285D01*
X172641904Y-55378285D01*
X172594285Y-55342571D01*
X172546666Y-55271142D01*
X172522857Y-55128285D01*
X172522857Y-54878285D01*
X172546666Y-54735428D01*
X172594285Y-54664000D01*
X172641904Y-54628285D01*
X173308571Y-55378285D02*
X173070476Y-55378285D01*
X173070476Y-54628285D01*
X173427619Y-54628285D02*
X173737142Y-54628285D01*
X173570476Y-54914000D01*
X173641904Y-54914000D01*
X173689523Y-54949714D01*
X173713333Y-54985428D01*
X173737142Y-55056857D01*
X173737142Y-55235428D01*
X173713333Y-55306857D01*
X173689523Y-55342571D01*
X173641904Y-55378285D01*
X173499047Y-55378285D01*
X173451428Y-55342571D01*
X173427619Y-55306857D01*
X187449047Y-52828285D02*
X187282380Y-52471142D01*
X187163333Y-52828285D02*
X187163333Y-52078285D01*
X187353809Y-52078285D01*
X187401428Y-52114000D01*
X187425238Y-52149714D01*
X187449047Y-52221142D01*
X187449047Y-52328285D01*
X187425238Y-52399714D01*
X187401428Y-52435428D01*
X187353809Y-52471142D01*
X187163333Y-52471142D01*
X187758571Y-52078285D02*
X187853809Y-52078285D01*
X187901428Y-52114000D01*
X187949047Y-52185428D01*
X187972857Y-52328285D01*
X187972857Y-52578285D01*
X187949047Y-52721142D01*
X187901428Y-52792571D01*
X187853809Y-52828285D01*
X187758571Y-52828285D01*
X187710952Y-52792571D01*
X187663333Y-52721142D01*
X187639523Y-52578285D01*
X187639523Y-52328285D01*
X187663333Y-52185428D01*
X187710952Y-52114000D01*
X187758571Y-52078285D01*
X188139523Y-52078285D02*
X188258571Y-52828285D01*
X188353809Y-52292571D01*
X188449047Y-52828285D01*
X188568095Y-52078285D01*
X188853809Y-52078285D02*
X188901428Y-52078285D01*
X188949047Y-52114000D01*
X188972857Y-52149714D01*
X188996666Y-52221142D01*
X189020476Y-52364000D01*
X189020476Y-52542571D01*
X188996666Y-52685428D01*
X188972857Y-52756857D01*
X188949047Y-52792571D01*
X188901428Y-52828285D01*
X188853809Y-52828285D01*
X188806190Y-52792571D01*
X188782380Y-52756857D01*
X188758571Y-52685428D01*
X188734761Y-52542571D01*
X188734761Y-52364000D01*
X188758571Y-52221142D01*
X188782380Y-52149714D01*
X188806190Y-52114000D01*
X188853809Y-52078285D01*
X172432380Y-52718857D02*
X172408571Y-52754571D01*
X172337142Y-52790285D01*
X172289523Y-52790285D01*
X172218095Y-52754571D01*
X172170476Y-52683142D01*
X172146666Y-52611714D01*
X172122857Y-52468857D01*
X172122857Y-52361714D01*
X172146666Y-52218857D01*
X172170476Y-52147428D01*
X172218095Y-52076000D01*
X172289523Y-52040285D01*
X172337142Y-52040285D01*
X172408571Y-52076000D01*
X172432380Y-52111714D01*
X172741904Y-52040285D02*
X172837142Y-52040285D01*
X172884761Y-52076000D01*
X172932380Y-52147428D01*
X172956190Y-52290285D01*
X172956190Y-52540285D01*
X172932380Y-52683142D01*
X172884761Y-52754571D01*
X172837142Y-52790285D01*
X172741904Y-52790285D01*
X172694285Y-52754571D01*
X172646666Y-52683142D01*
X172622857Y-52540285D01*
X172622857Y-52290285D01*
X172646666Y-52147428D01*
X172694285Y-52076000D01*
X172741904Y-52040285D01*
X173408571Y-52790285D02*
X173170476Y-52790285D01*
X173170476Y-52040285D01*
X173551428Y-52111714D02*
X173575238Y-52076000D01*
X173622857Y-52040285D01*
X173741904Y-52040285D01*
X173789523Y-52076000D01*
X173813333Y-52111714D01*
X173837142Y-52183142D01*
X173837142Y-52254571D01*
X173813333Y-52361714D01*
X173527619Y-52790285D01*
X173837142Y-52790285D01*
X187745761Y-50214571D02*
X187817190Y-50250285D01*
X187936238Y-50250285D01*
X187983857Y-50214571D01*
X188007666Y-50178857D01*
X188031476Y-50107428D01*
X188031476Y-50036000D01*
X188007666Y-49964571D01*
X187983857Y-49928857D01*
X187936238Y-49893142D01*
X187841000Y-49857428D01*
X187793380Y-49821714D01*
X187769571Y-49786000D01*
X187745761Y-49714571D01*
X187745761Y-49643142D01*
X187769571Y-49571714D01*
X187793380Y-49536000D01*
X187841000Y-49500285D01*
X187960047Y-49500285D01*
X188031476Y-49536000D01*
X188531476Y-50178857D02*
X188507666Y-50214571D01*
X188436238Y-50250285D01*
X188388619Y-50250285D01*
X188317190Y-50214571D01*
X188269571Y-50143142D01*
X188245761Y-50071714D01*
X188221952Y-49928857D01*
X188221952Y-49821714D01*
X188245761Y-49678857D01*
X188269571Y-49607428D01*
X188317190Y-49536000D01*
X188388619Y-49500285D01*
X188436238Y-49500285D01*
X188507666Y-49536000D01*
X188531476Y-49571714D01*
X188983857Y-50250285D02*
X188745761Y-50250285D01*
X188745761Y-49500285D01*
X172482380Y-50178857D02*
X172458571Y-50214571D01*
X172387142Y-50250285D01*
X172339523Y-50250285D01*
X172268095Y-50214571D01*
X172220476Y-50143142D01*
X172196666Y-50071714D01*
X172172857Y-49928857D01*
X172172857Y-49821714D01*
X172196666Y-49678857D01*
X172220476Y-49607428D01*
X172268095Y-49536000D01*
X172339523Y-49500285D01*
X172387142Y-49500285D01*
X172458571Y-49536000D01*
X172482380Y-49571714D01*
X172791904Y-49500285D02*
X172887142Y-49500285D01*
X172934761Y-49536000D01*
X172982380Y-49607428D01*
X173006190Y-49750285D01*
X173006190Y-50000285D01*
X172982380Y-50143142D01*
X172934761Y-50214571D01*
X172887142Y-50250285D01*
X172791904Y-50250285D01*
X172744285Y-50214571D01*
X172696666Y-50143142D01*
X172672857Y-50000285D01*
X172672857Y-49750285D01*
X172696666Y-49607428D01*
X172744285Y-49536000D01*
X172791904Y-49500285D01*
X173458571Y-50250285D02*
X173220476Y-50250285D01*
X173220476Y-49500285D01*
X173887142Y-50250285D02*
X173601428Y-50250285D01*
X173744285Y-50250285D02*
X173744285Y-49500285D01*
X173696666Y-49607428D01*
X173649047Y-49678857D01*
X173601428Y-49714571D01*
X187733857Y-47674571D02*
X187805285Y-47710285D01*
X187924333Y-47710285D01*
X187971952Y-47674571D01*
X187995761Y-47638857D01*
X188019571Y-47567428D01*
X188019571Y-47496000D01*
X187995761Y-47424571D01*
X187971952Y-47388857D01*
X187924333Y-47353142D01*
X187829095Y-47317428D01*
X187781476Y-47281714D01*
X187757666Y-47246000D01*
X187733857Y-47174571D01*
X187733857Y-47103142D01*
X187757666Y-47031714D01*
X187781476Y-46996000D01*
X187829095Y-46960285D01*
X187948142Y-46960285D01*
X188019571Y-46996000D01*
X188233857Y-47710285D02*
X188233857Y-46960285D01*
X188352904Y-46960285D01*
X188424333Y-46996000D01*
X188471952Y-47067428D01*
X188495761Y-47138857D01*
X188519571Y-47281714D01*
X188519571Y-47388857D01*
X188495761Y-47531714D01*
X188471952Y-47603142D01*
X188424333Y-47674571D01*
X188352904Y-47710285D01*
X188233857Y-47710285D01*
X188710047Y-47496000D02*
X188948142Y-47496000D01*
X188662428Y-47710285D02*
X188829095Y-46960285D01*
X188995761Y-47710285D01*
X172432380Y-47656857D02*
X172408571Y-47692571D01*
X172337142Y-47728285D01*
X172289523Y-47728285D01*
X172218095Y-47692571D01*
X172170476Y-47621142D01*
X172146666Y-47549714D01*
X172122857Y-47406857D01*
X172122857Y-47299714D01*
X172146666Y-47156857D01*
X172170476Y-47085428D01*
X172218095Y-47014000D01*
X172289523Y-46978285D01*
X172337142Y-46978285D01*
X172408571Y-47014000D01*
X172432380Y-47049714D01*
X172741904Y-46978285D02*
X172837142Y-46978285D01*
X172884761Y-47014000D01*
X172932380Y-47085428D01*
X172956190Y-47228285D01*
X172956190Y-47478285D01*
X172932380Y-47621142D01*
X172884761Y-47692571D01*
X172837142Y-47728285D01*
X172741904Y-47728285D01*
X172694285Y-47692571D01*
X172646666Y-47621142D01*
X172622857Y-47478285D01*
X172622857Y-47228285D01*
X172646666Y-47085428D01*
X172694285Y-47014000D01*
X172741904Y-46978285D01*
X173408571Y-47728285D02*
X173170476Y-47728285D01*
X173170476Y-46978285D01*
X173670476Y-46978285D02*
X173718095Y-46978285D01*
X173765714Y-47014000D01*
X173789523Y-47049714D01*
X173813333Y-47121142D01*
X173837142Y-47264000D01*
X173837142Y-47442571D01*
X173813333Y-47585428D01*
X173789523Y-47656857D01*
X173765714Y-47692571D01*
X173718095Y-47728285D01*
X173670476Y-47728285D01*
X173622857Y-47692571D01*
X173599047Y-47656857D01*
X173575238Y-47585428D01*
X173551428Y-47442571D01*
X173551428Y-47264000D01*
X173575238Y-47121142D01*
X173599047Y-47049714D01*
X173622857Y-47014000D01*
X173670476Y-46978285D01*
X172627619Y-65135428D02*
X172699047Y-65171142D01*
X172722857Y-65206857D01*
X172746666Y-65278285D01*
X172746666Y-65385428D01*
X172722857Y-65456857D01*
X172699047Y-65492571D01*
X172651428Y-65528285D01*
X172460952Y-65528285D01*
X172460952Y-64778285D01*
X172627619Y-64778285D01*
X172675238Y-64814000D01*
X172699047Y-64849714D01*
X172722857Y-64921142D01*
X172722857Y-64992571D01*
X172699047Y-65064000D01*
X172675238Y-65099714D01*
X172627619Y-65135428D01*
X172460952Y-65135428D01*
X173175238Y-64778285D02*
X173080000Y-64778285D01*
X173032380Y-64814000D01*
X173008571Y-64849714D01*
X172960952Y-64956857D01*
X172937142Y-65099714D01*
X172937142Y-65385428D01*
X172960952Y-65456857D01*
X172984761Y-65492571D01*
X173032380Y-65528285D01*
X173127619Y-65528285D01*
X173175238Y-65492571D01*
X173199047Y-65456857D01*
X173222857Y-65385428D01*
X173222857Y-65206857D01*
X173199047Y-65135428D01*
X173175238Y-65099714D01*
X173127619Y-65064000D01*
X173032380Y-65064000D01*
X172984761Y-65099714D01*
X172960952Y-65135428D01*
X172937142Y-65206857D01*
X187877619Y-65160928D02*
X187949047Y-65196642D01*
X187972857Y-65232357D01*
X187996666Y-65303785D01*
X187996666Y-65410928D01*
X187972857Y-65482357D01*
X187949047Y-65518071D01*
X187901428Y-65553785D01*
X187710952Y-65553785D01*
X187710952Y-64803785D01*
X187877619Y-64803785D01*
X187925238Y-64839500D01*
X187949047Y-64875214D01*
X187972857Y-64946642D01*
X187972857Y-65018071D01*
X187949047Y-65089500D01*
X187925238Y-65125214D01*
X187877619Y-65160928D01*
X187710952Y-65160928D01*
X188449047Y-64803785D02*
X188210952Y-64803785D01*
X188187142Y-65160928D01*
X188210952Y-65125214D01*
X188258571Y-65089500D01*
X188377619Y-65089500D01*
X188425238Y-65125214D01*
X188449047Y-65160928D01*
X188472857Y-65232357D01*
X188472857Y-65410928D01*
X188449047Y-65482357D01*
X188425238Y-65518071D01*
X188377619Y-65553785D01*
X188258571Y-65553785D01*
X188210952Y-65518071D01*
X188187142Y-65482357D01*
X187877619Y-62557428D02*
X187949047Y-62593142D01*
X187972857Y-62628857D01*
X187996666Y-62700285D01*
X187996666Y-62807428D01*
X187972857Y-62878857D01*
X187949047Y-62914571D01*
X187901428Y-62950285D01*
X187710952Y-62950285D01*
X187710952Y-62200285D01*
X187877619Y-62200285D01*
X187925238Y-62236000D01*
X187949047Y-62271714D01*
X187972857Y-62343142D01*
X187972857Y-62414571D01*
X187949047Y-62486000D01*
X187925238Y-62521714D01*
X187877619Y-62557428D01*
X187710952Y-62557428D01*
X188425238Y-62450285D02*
X188425238Y-62950285D01*
X188306190Y-62164571D02*
X188187142Y-62700285D01*
X188496666Y-62700285D01*
X172727619Y-62585428D02*
X172799047Y-62621142D01*
X172822857Y-62656857D01*
X172846666Y-62728285D01*
X172846666Y-62835428D01*
X172822857Y-62906857D01*
X172799047Y-62942571D01*
X172751428Y-62978285D01*
X172560952Y-62978285D01*
X172560952Y-62228285D01*
X172727619Y-62228285D01*
X172775238Y-62264000D01*
X172799047Y-62299714D01*
X172822857Y-62371142D01*
X172822857Y-62442571D01*
X172799047Y-62514000D01*
X172775238Y-62549714D01*
X172727619Y-62585428D01*
X172560952Y-62585428D01*
X173037142Y-62299714D02*
X173060952Y-62264000D01*
X173108571Y-62228285D01*
X173227619Y-62228285D01*
X173275238Y-62264000D01*
X173299047Y-62299714D01*
X173322857Y-62371142D01*
X173322857Y-62442571D01*
X173299047Y-62549714D01*
X173013333Y-62978285D01*
X173322857Y-62978285D01*
X187449047Y-60473785D02*
X187282380Y-60116642D01*
X187163333Y-60473785D02*
X187163333Y-59723785D01*
X187353809Y-59723785D01*
X187401428Y-59759500D01*
X187425238Y-59795214D01*
X187449047Y-59866642D01*
X187449047Y-59973785D01*
X187425238Y-60045214D01*
X187401428Y-60080928D01*
X187353809Y-60116642D01*
X187163333Y-60116642D01*
X187758571Y-59723785D02*
X187853809Y-59723785D01*
X187901428Y-59759500D01*
X187949047Y-59830928D01*
X187972857Y-59973785D01*
X187972857Y-60223785D01*
X187949047Y-60366642D01*
X187901428Y-60438071D01*
X187853809Y-60473785D01*
X187758571Y-60473785D01*
X187710952Y-60438071D01*
X187663333Y-60366642D01*
X187639523Y-60223785D01*
X187639523Y-59973785D01*
X187663333Y-59830928D01*
X187710952Y-59759500D01*
X187758571Y-59723785D01*
X188139523Y-59723785D02*
X188258571Y-60473785D01*
X188353809Y-59938071D01*
X188449047Y-60473785D01*
X188568095Y-59723785D01*
X188710952Y-59723785D02*
X189020476Y-59723785D01*
X188853809Y-60009500D01*
X188925238Y-60009500D01*
X188972857Y-60045214D01*
X188996666Y-60080928D01*
X189020476Y-60152357D01*
X189020476Y-60330928D01*
X188996666Y-60402357D01*
X188972857Y-60438071D01*
X188925238Y-60473785D01*
X188782380Y-60473785D01*
X188734761Y-60438071D01*
X188710952Y-60402357D01*
X172382380Y-60402357D02*
X172358571Y-60438071D01*
X172287142Y-60473785D01*
X172239523Y-60473785D01*
X172168095Y-60438071D01*
X172120476Y-60366642D01*
X172096666Y-60295214D01*
X172072857Y-60152357D01*
X172072857Y-60045214D01*
X172096666Y-59902357D01*
X172120476Y-59830928D01*
X172168095Y-59759500D01*
X172239523Y-59723785D01*
X172287142Y-59723785D01*
X172358571Y-59759500D01*
X172382380Y-59795214D01*
X172691904Y-59723785D02*
X172787142Y-59723785D01*
X172834761Y-59759500D01*
X172882380Y-59830928D01*
X172906190Y-59973785D01*
X172906190Y-60223785D01*
X172882380Y-60366642D01*
X172834761Y-60438071D01*
X172787142Y-60473785D01*
X172691904Y-60473785D01*
X172644285Y-60438071D01*
X172596666Y-60366642D01*
X172572857Y-60223785D01*
X172572857Y-59973785D01*
X172596666Y-59830928D01*
X172644285Y-59759500D01*
X172691904Y-59723785D01*
X173358571Y-60473785D02*
X173120476Y-60473785D01*
X173120476Y-59723785D01*
X173763333Y-59723785D02*
X173525238Y-59723785D01*
X173501428Y-60080928D01*
X173525238Y-60045214D01*
X173572857Y-60009500D01*
X173691904Y-60009500D01*
X173739523Y-60045214D01*
X173763333Y-60080928D01*
X173787142Y-60152357D01*
X173787142Y-60330928D01*
X173763333Y-60402357D01*
X173739523Y-60438071D01*
X173691904Y-60473785D01*
X173572857Y-60473785D01*
X173525238Y-60438071D01*
X173501428Y-60402357D01*
X187449047Y-57878285D02*
X187282380Y-57521142D01*
X187163333Y-57878285D02*
X187163333Y-57128285D01*
X187353809Y-57128285D01*
X187401428Y-57164000D01*
X187425238Y-57199714D01*
X187449047Y-57271142D01*
X187449047Y-57378285D01*
X187425238Y-57449714D01*
X187401428Y-57485428D01*
X187353809Y-57521142D01*
X187163333Y-57521142D01*
X187758571Y-57128285D02*
X187853809Y-57128285D01*
X187901428Y-57164000D01*
X187949047Y-57235428D01*
X187972857Y-57378285D01*
X187972857Y-57628285D01*
X187949047Y-57771142D01*
X187901428Y-57842571D01*
X187853809Y-57878285D01*
X187758571Y-57878285D01*
X187710952Y-57842571D01*
X187663333Y-57771142D01*
X187639523Y-57628285D01*
X187639523Y-57378285D01*
X187663333Y-57235428D01*
X187710952Y-57164000D01*
X187758571Y-57128285D01*
X188139523Y-57128285D02*
X188258571Y-57878285D01*
X188353809Y-57342571D01*
X188449047Y-57878285D01*
X188568095Y-57128285D01*
X188734761Y-57199714D02*
X188758571Y-57164000D01*
X188806190Y-57128285D01*
X188925238Y-57128285D01*
X188972857Y-57164000D01*
X188996666Y-57199714D01*
X189020476Y-57271142D01*
X189020476Y-57342571D01*
X188996666Y-57449714D01*
X188710952Y-57878285D01*
X189020476Y-57878285D01*
X172382380Y-57806857D02*
X172358571Y-57842571D01*
X172287142Y-57878285D01*
X172239523Y-57878285D01*
X172168095Y-57842571D01*
X172120476Y-57771142D01*
X172096666Y-57699714D01*
X172072857Y-57556857D01*
X172072857Y-57449714D01*
X172096666Y-57306857D01*
X172120476Y-57235428D01*
X172168095Y-57164000D01*
X172239523Y-57128285D01*
X172287142Y-57128285D01*
X172358571Y-57164000D01*
X172382380Y-57199714D01*
X172691904Y-57128285D02*
X172787142Y-57128285D01*
X172834761Y-57164000D01*
X172882380Y-57235428D01*
X172906190Y-57378285D01*
X172906190Y-57628285D01*
X172882380Y-57771142D01*
X172834761Y-57842571D01*
X172787142Y-57878285D01*
X172691904Y-57878285D01*
X172644285Y-57842571D01*
X172596666Y-57771142D01*
X172572857Y-57628285D01*
X172572857Y-57378285D01*
X172596666Y-57235428D01*
X172644285Y-57164000D01*
X172691904Y-57128285D01*
X173358571Y-57878285D02*
X173120476Y-57878285D01*
X173120476Y-57128285D01*
X173739523Y-57378285D02*
X173739523Y-57878285D01*
X173620476Y-57092571D02*
X173501428Y-57628285D01*
X173810952Y-57628285D01*
X187499047Y-55330285D02*
X187332380Y-54973142D01*
X187213333Y-55330285D02*
X187213333Y-54580285D01*
X187403809Y-54580285D01*
X187451428Y-54616000D01*
X187475238Y-54651714D01*
X187499047Y-54723142D01*
X187499047Y-54830285D01*
X187475238Y-54901714D01*
X187451428Y-54937428D01*
X187403809Y-54973142D01*
X187213333Y-54973142D01*
X187808571Y-54580285D02*
X187903809Y-54580285D01*
X187951428Y-54616000D01*
X187999047Y-54687428D01*
X188022857Y-54830285D01*
X188022857Y-55080285D01*
X187999047Y-55223142D01*
X187951428Y-55294571D01*
X187903809Y-55330285D01*
X187808571Y-55330285D01*
X187760952Y-55294571D01*
X187713333Y-55223142D01*
X187689523Y-55080285D01*
X187689523Y-54830285D01*
X187713333Y-54687428D01*
X187760952Y-54616000D01*
X187808571Y-54580285D01*
X188189523Y-54580285D02*
X188308571Y-55330285D01*
X188403809Y-54794571D01*
X188499047Y-55330285D01*
X188618095Y-54580285D01*
X189070476Y-55330285D02*
X188784761Y-55330285D01*
X188927619Y-55330285D02*
X188927619Y-54580285D01*
X188880000Y-54687428D01*
X188832380Y-54758857D01*
X188784761Y-54794571D01*
%TO.C,RSW1*%
D10*
X190190380Y-74350380D02*
X189714190Y-74683714D01*
X190190380Y-74921809D02*
X189190380Y-74921809D01*
X189190380Y-74540857D01*
X189238000Y-74445619D01*
X189285619Y-74398000D01*
X189380857Y-74350380D01*
X189523714Y-74350380D01*
X189618952Y-74398000D01*
X189666571Y-74445619D01*
X189714190Y-74540857D01*
X189714190Y-74921809D01*
X189666571Y-73921809D02*
X189666571Y-73588476D01*
X190190380Y-73445619D02*
X190190380Y-73921809D01*
X189190380Y-73921809D01*
X189190380Y-73445619D01*
X190142761Y-73064666D02*
X190190380Y-72921809D01*
X190190380Y-72683714D01*
X190142761Y-72588476D01*
X190095142Y-72540857D01*
X189999904Y-72493238D01*
X189904666Y-72493238D01*
X189809428Y-72540857D01*
X189761809Y-72588476D01*
X189714190Y-72683714D01*
X189666571Y-72874190D01*
X189618952Y-72969428D01*
X189571333Y-73017047D01*
X189476095Y-73064666D01*
X189380857Y-73064666D01*
X189285619Y-73017047D01*
X189238000Y-72969428D01*
X189190380Y-72874190D01*
X189190380Y-72636095D01*
X189238000Y-72493238D01*
X189666571Y-72064666D02*
X189666571Y-71731333D01*
X190190380Y-71588476D02*
X190190380Y-72064666D01*
X189190380Y-72064666D01*
X189190380Y-71588476D01*
X189190380Y-71302761D02*
X189190380Y-70731333D01*
X190190380Y-71017047D02*
X189190380Y-71017047D01*
%TO.C,R14*%
X181518485Y-76741695D02*
X181247552Y-76354647D01*
X181054028Y-76741695D02*
X181054028Y-75928895D01*
X181363666Y-75928895D01*
X181441076Y-75967600D01*
X181479780Y-76006304D01*
X181518485Y-76083714D01*
X181518485Y-76199828D01*
X181479780Y-76277238D01*
X181441076Y-76315942D01*
X181363666Y-76354647D01*
X181054028Y-76354647D01*
X182292580Y-76741695D02*
X181828123Y-76741695D01*
X182060352Y-76741695D02*
X182060352Y-75928895D01*
X181982942Y-76045009D01*
X181905533Y-76122419D01*
X181828123Y-76161123D01*
X182989266Y-76199828D02*
X182989266Y-76741695D01*
X182795742Y-75890190D02*
X182602219Y-76470761D01*
X183105380Y-76470761D01*
%TO.C,R13*%
X181518485Y-74074695D02*
X181247552Y-73687647D01*
X181054028Y-74074695D02*
X181054028Y-73261895D01*
X181363666Y-73261895D01*
X181441076Y-73300600D01*
X181479780Y-73339304D01*
X181518485Y-73416714D01*
X181518485Y-73532828D01*
X181479780Y-73610238D01*
X181441076Y-73648942D01*
X181363666Y-73687647D01*
X181054028Y-73687647D01*
X182292580Y-74074695D02*
X181828123Y-74074695D01*
X182060352Y-74074695D02*
X182060352Y-73261895D01*
X181982942Y-73378009D01*
X181905533Y-73455419D01*
X181828123Y-73494123D01*
X182563514Y-73261895D02*
X183066676Y-73261895D01*
X182795742Y-73571533D01*
X182911857Y-73571533D01*
X182989266Y-73610238D01*
X183027971Y-73648942D01*
X183066676Y-73726352D01*
X183066676Y-73919876D01*
X183027971Y-73997285D01*
X182989266Y-74035990D01*
X182911857Y-74074695D01*
X182679628Y-74074695D01*
X182602219Y-74035990D01*
X182563514Y-73997285D01*
%TO.C,JP1*%
X185228895Y-70135447D02*
X185809466Y-70135447D01*
X185925580Y-70174152D01*
X186002990Y-70251561D01*
X186041695Y-70367676D01*
X186041695Y-70445085D01*
X186041695Y-69748400D02*
X185499828Y-69748400D01*
X185577238Y-69748400D02*
X185538533Y-69709695D01*
X185499828Y-69632285D01*
X185499828Y-69516171D01*
X185538533Y-69438761D01*
X185615942Y-69400057D01*
X186041695Y-69400057D01*
X185615942Y-69400057D02*
X185538533Y-69361352D01*
X185499828Y-69283942D01*
X185499828Y-69167828D01*
X185538533Y-69090419D01*
X185615942Y-69051714D01*
X186041695Y-69051714D01*
X185499828Y-68664666D02*
X186312628Y-68664666D01*
X185538533Y-68664666D02*
X185499828Y-68587257D01*
X185499828Y-68432438D01*
X185538533Y-68355028D01*
X185577238Y-68316323D01*
X185654647Y-68277619D01*
X185886876Y-68277619D01*
X185964285Y-68316323D01*
X186002990Y-68355028D01*
X186041695Y-68432438D01*
X186041695Y-68587257D01*
X186002990Y-68664666D01*
%TO.C,J1*%
X180401619Y-67710380D02*
X180592095Y-67710380D01*
X180687333Y-67758000D01*
X180782571Y-67853238D01*
X180830190Y-68043714D01*
X180830190Y-68377047D01*
X180782571Y-68567523D01*
X180687333Y-68662761D01*
X180592095Y-68710380D01*
X180401619Y-68710380D01*
X180306380Y-68662761D01*
X180211142Y-68567523D01*
X180163523Y-68377047D01*
X180163523Y-68043714D01*
X180211142Y-67853238D01*
X180306380Y-67758000D01*
X180401619Y-67710380D01*
X181734952Y-68710380D02*
X181258761Y-68710380D01*
X181258761Y-67710380D01*
X182068285Y-68186571D02*
X182401619Y-68186571D01*
X182544476Y-68710380D02*
X182068285Y-68710380D01*
X182068285Y-67710380D01*
X182544476Y-67710380D01*
X182973047Y-68710380D02*
X182973047Y-67710380D01*
X183211142Y-67710380D01*
X183354000Y-67758000D01*
X183449238Y-67853238D01*
X183496857Y-67948476D01*
X183544476Y-68138952D01*
X183544476Y-68281809D01*
X183496857Y-68472285D01*
X183449238Y-68567523D01*
X183354000Y-68662761D01*
X183211142Y-68710380D01*
X182973047Y-68710380D01*
%TO.C,MX15*%
X157782095Y-77446180D02*
X157782095Y-76446180D01*
X158115428Y-77160466D01*
X158448761Y-76446180D01*
X158448761Y-77446180D01*
X158829714Y-76446180D02*
X159496380Y-77446180D01*
X159496380Y-76446180D02*
X158829714Y-77446180D01*
X160401142Y-77446180D02*
X159829714Y-77446180D01*
X160115428Y-77446180D02*
X160115428Y-76446180D01*
X160020190Y-76589038D01*
X159924952Y-76684276D01*
X159829714Y-76731895D01*
X161305904Y-76446180D02*
X160829714Y-76446180D01*
X160782095Y-76922371D01*
X160829714Y-76874752D01*
X160924952Y-76827133D01*
X161163047Y-76827133D01*
X161258285Y-76874752D01*
X161305904Y-76922371D01*
X161353523Y-77017609D01*
X161353523Y-77255704D01*
X161305904Y-77350942D01*
X161258285Y-77398561D01*
X161163047Y-77446180D01*
X160924952Y-77446180D01*
X160829714Y-77398561D01*
X160782095Y-77350942D01*
%TO.C,MX5*%
X110633285Y-153646380D02*
X110633285Y-152646380D01*
X110966619Y-153360666D01*
X111299952Y-152646380D01*
X111299952Y-153646380D01*
X111680904Y-152646380D02*
X112347571Y-153646380D01*
X112347571Y-152646380D02*
X111680904Y-153646380D01*
X113204714Y-152646380D02*
X112728523Y-152646380D01*
X112680904Y-153122571D01*
X112728523Y-153074952D01*
X112823761Y-153027333D01*
X113061857Y-153027333D01*
X113157095Y-153074952D01*
X113204714Y-153122571D01*
X113252333Y-153217809D01*
X113252333Y-153455904D01*
X113204714Y-153551142D01*
X113157095Y-153598761D01*
X113061857Y-153646380D01*
X112823761Y-153646380D01*
X112728523Y-153598761D01*
X112680904Y-153551142D01*
%TO.C,MX17*%
D14*
X156858857Y-137893523D02*
X156858857Y-136623523D01*
X157366857Y-137530666D01*
X157874857Y-136623523D01*
X157874857Y-137893523D01*
X158455428Y-136623523D02*
X159471428Y-137893523D01*
X159471428Y-136623523D02*
X158455428Y-137893523D01*
X160850285Y-137893523D02*
X159979428Y-137893523D01*
X160414857Y-137893523D02*
X160414857Y-136623523D01*
X160269714Y-136804952D01*
X160124571Y-136925904D01*
X159979428Y-136986380D01*
X161358285Y-136623523D02*
X162374285Y-136623523D01*
X161721142Y-137893523D01*
%TO.C,MX16*%
X156858857Y-99793523D02*
X156858857Y-98523523D01*
X157366857Y-99430666D01*
X157874857Y-98523523D01*
X157874857Y-99793523D01*
X158455428Y-98523523D02*
X159471428Y-99793523D01*
X159471428Y-98523523D02*
X158455428Y-99793523D01*
X160850285Y-99793523D02*
X159979428Y-99793523D01*
X160414857Y-99793523D02*
X160414857Y-98523523D01*
X160269714Y-98704952D01*
X160124571Y-98825904D01*
X159979428Y-98886380D01*
X162156571Y-98523523D02*
X161866285Y-98523523D01*
X161721142Y-98584000D01*
X161648571Y-98644476D01*
X161503428Y-98825904D01*
X161430857Y-99067809D01*
X161430857Y-99551619D01*
X161503428Y-99672571D01*
X161576000Y-99733047D01*
X161721142Y-99793523D01*
X162011428Y-99793523D01*
X162156571Y-99733047D01*
X162229142Y-99672571D01*
X162301714Y-99551619D01*
X162301714Y-99249238D01*
X162229142Y-99128285D01*
X162156571Y-99067809D01*
X162011428Y-99007333D01*
X161721142Y-99007333D01*
X161576000Y-99067809D01*
X161503428Y-99128285D01*
X161430857Y-99249238D01*
%TO.C,MX11*%
D10*
X138732095Y-77446180D02*
X138732095Y-76446180D01*
X139065428Y-77160466D01*
X139398761Y-76446180D01*
X139398761Y-77446180D01*
X139779714Y-76446180D02*
X140446380Y-77446180D01*
X140446380Y-76446180D02*
X139779714Y-77446180D01*
X141351142Y-77446180D02*
X140779714Y-77446180D01*
X141065428Y-77446180D02*
X141065428Y-76446180D01*
X140970190Y-76589038D01*
X140874952Y-76684276D01*
X140779714Y-76731895D01*
X142303523Y-77446180D02*
X141732095Y-77446180D01*
X142017809Y-77446180D02*
X142017809Y-76446180D01*
X141922571Y-76589038D01*
X141827333Y-76684276D01*
X141732095Y-76731895D01*
%TO.C,MX8*%
X120158285Y-115546380D02*
X120158285Y-114546380D01*
X120491619Y-115260666D01*
X120824952Y-114546380D01*
X120824952Y-115546380D01*
X121205904Y-114546380D02*
X121872571Y-115546380D01*
X121872571Y-114546380D02*
X121205904Y-115546380D01*
X122396380Y-114974952D02*
X122301142Y-114927333D01*
X122253523Y-114879714D01*
X122205904Y-114784476D01*
X122205904Y-114736857D01*
X122253523Y-114641619D01*
X122301142Y-114594000D01*
X122396380Y-114546380D01*
X122586857Y-114546380D01*
X122682095Y-114594000D01*
X122729714Y-114641619D01*
X122777333Y-114736857D01*
X122777333Y-114784476D01*
X122729714Y-114879714D01*
X122682095Y-114927333D01*
X122586857Y-114974952D01*
X122396380Y-114974952D01*
X122301142Y-115022571D01*
X122253523Y-115070190D01*
X122205904Y-115165428D01*
X122205904Y-115355904D01*
X122253523Y-115451142D01*
X122301142Y-115498761D01*
X122396380Y-115546380D01*
X122586857Y-115546380D01*
X122682095Y-115498761D01*
X122729714Y-115451142D01*
X122777333Y-115355904D01*
X122777333Y-115165428D01*
X122729714Y-115070190D01*
X122682095Y-115022571D01*
X122586857Y-114974952D01*
%TO.C,MX4*%
X101108285Y-134596380D02*
X101108285Y-133596380D01*
X101441619Y-134310666D01*
X101774952Y-133596380D01*
X101774952Y-134596380D01*
X102155904Y-133596380D02*
X102822571Y-134596380D01*
X102822571Y-133596380D02*
X102155904Y-134596380D01*
X103632095Y-133929714D02*
X103632095Y-134596380D01*
X103394000Y-133548761D02*
X103155904Y-134263047D01*
X103774952Y-134263047D01*
%TO.C,MX14*%
X138732095Y-134596380D02*
X138732095Y-133596380D01*
X139065428Y-134310666D01*
X139398761Y-133596380D01*
X139398761Y-134596380D01*
X139779714Y-133596380D02*
X140446380Y-134596380D01*
X140446380Y-133596380D02*
X139779714Y-134596380D01*
X141351142Y-134596380D02*
X140779714Y-134596380D01*
X141065428Y-134596380D02*
X141065428Y-133596380D01*
X140970190Y-133739238D01*
X140874952Y-133834476D01*
X140779714Y-133882095D01*
X142208285Y-133929714D02*
X142208285Y-134596380D01*
X141970190Y-133548761D02*
X141732095Y-134263047D01*
X142351142Y-134263047D01*
%TO.C,MX13*%
X138732095Y-115546380D02*
X138732095Y-114546380D01*
X139065428Y-115260666D01*
X139398761Y-114546380D01*
X139398761Y-115546380D01*
X139779714Y-114546380D02*
X140446380Y-115546380D01*
X140446380Y-114546380D02*
X139779714Y-115546380D01*
X141351142Y-115546380D02*
X140779714Y-115546380D01*
X141065428Y-115546380D02*
X141065428Y-114546380D01*
X140970190Y-114689238D01*
X140874952Y-114784476D01*
X140779714Y-114832095D01*
X141684476Y-114546380D02*
X142303523Y-114546380D01*
X141970190Y-114927333D01*
X142113047Y-114927333D01*
X142208285Y-114974952D01*
X142255904Y-115022571D01*
X142303523Y-115117809D01*
X142303523Y-115355904D01*
X142255904Y-115451142D01*
X142208285Y-115498761D01*
X142113047Y-115546380D01*
X141827333Y-115546380D01*
X141732095Y-115498761D01*
X141684476Y-115451142D01*
%TO.C,MX12*%
X138732095Y-96496180D02*
X138732095Y-95496180D01*
X139065428Y-96210466D01*
X139398761Y-95496180D01*
X139398761Y-96496180D01*
X139779714Y-95496180D02*
X140446380Y-96496180D01*
X140446380Y-95496180D02*
X139779714Y-96496180D01*
X141351142Y-96496180D02*
X140779714Y-96496180D01*
X141065428Y-96496180D02*
X141065428Y-95496180D01*
X140970190Y-95639038D01*
X140874952Y-95734276D01*
X140779714Y-95781895D01*
X141732095Y-95591419D02*
X141779714Y-95543800D01*
X141874952Y-95496180D01*
X142113047Y-95496180D01*
X142208285Y-95543800D01*
X142255904Y-95591419D01*
X142303523Y-95686657D01*
X142303523Y-95781895D01*
X142255904Y-95924752D01*
X141684476Y-96496180D01*
X142303523Y-96496180D01*
%TO.C,MX10*%
X138732095Y-153646380D02*
X138732095Y-152646380D01*
X139065428Y-153360666D01*
X139398761Y-152646380D01*
X139398761Y-153646380D01*
X139779714Y-152646380D02*
X140446380Y-153646380D01*
X140446380Y-152646380D02*
X139779714Y-153646380D01*
X141351142Y-153646380D02*
X140779714Y-153646380D01*
X141065428Y-153646380D02*
X141065428Y-152646380D01*
X140970190Y-152789238D01*
X140874952Y-152884476D01*
X140779714Y-152932095D01*
X141970190Y-152646380D02*
X142065428Y-152646380D01*
X142160666Y-152694000D01*
X142208285Y-152741619D01*
X142255904Y-152836857D01*
X142303523Y-153027333D01*
X142303523Y-153265428D01*
X142255904Y-153455904D01*
X142208285Y-153551142D01*
X142160666Y-153598761D01*
X142065428Y-153646380D01*
X141970190Y-153646380D01*
X141874952Y-153598761D01*
X141827333Y-153551142D01*
X141779714Y-153455904D01*
X141732095Y-153265428D01*
X141732095Y-153027333D01*
X141779714Y-152836857D01*
X141827333Y-152741619D01*
X141874952Y-152694000D01*
X141970190Y-152646380D01*
%TO.C,MX9*%
X120158285Y-134596380D02*
X120158285Y-133596380D01*
X120491619Y-134310666D01*
X120824952Y-133596380D01*
X120824952Y-134596380D01*
X121205904Y-133596380D02*
X121872571Y-134596380D01*
X121872571Y-133596380D02*
X121205904Y-134596380D01*
X122301142Y-134596380D02*
X122491619Y-134596380D01*
X122586857Y-134548761D01*
X122634476Y-134501142D01*
X122729714Y-134358285D01*
X122777333Y-134167809D01*
X122777333Y-133786857D01*
X122729714Y-133691619D01*
X122682095Y-133644000D01*
X122586857Y-133596380D01*
X122396380Y-133596380D01*
X122301142Y-133644000D01*
X122253523Y-133691619D01*
X122205904Y-133786857D01*
X122205904Y-134024952D01*
X122253523Y-134120190D01*
X122301142Y-134167809D01*
X122396380Y-134215428D01*
X122586857Y-134215428D01*
X122682095Y-134167809D01*
X122729714Y-134120190D01*
X122777333Y-134024952D01*
%TO.C,MX7*%
X120158285Y-96496180D02*
X120158285Y-95496180D01*
X120491619Y-96210466D01*
X120824952Y-95496180D01*
X120824952Y-96496180D01*
X121205904Y-95496180D02*
X121872571Y-96496180D01*
X121872571Y-95496180D02*
X121205904Y-96496180D01*
X122158285Y-95496180D02*
X122824952Y-95496180D01*
X122396380Y-96496180D01*
%TO.C,MX6*%
X120158285Y-77446180D02*
X120158285Y-76446180D01*
X120491619Y-77160466D01*
X120824952Y-76446180D01*
X120824952Y-77446180D01*
X121205904Y-76446180D02*
X121872571Y-77446180D01*
X121872571Y-76446180D02*
X121205904Y-77446180D01*
X122682095Y-76446180D02*
X122491619Y-76446180D01*
X122396380Y-76493800D01*
X122348761Y-76541419D01*
X122253523Y-76684276D01*
X122205904Y-76874752D01*
X122205904Y-77255704D01*
X122253523Y-77350942D01*
X122301142Y-77398561D01*
X122396380Y-77446180D01*
X122586857Y-77446180D01*
X122682095Y-77398561D01*
X122729714Y-77350942D01*
X122777333Y-77255704D01*
X122777333Y-77017609D01*
X122729714Y-76922371D01*
X122682095Y-76874752D01*
X122586857Y-76827133D01*
X122396380Y-76827133D01*
X122301142Y-76874752D01*
X122253523Y-76922371D01*
X122205904Y-77017609D01*
%TO.C,MX3*%
X101108285Y-115546380D02*
X101108285Y-114546380D01*
X101441619Y-115260666D01*
X101774952Y-114546380D01*
X101774952Y-115546380D01*
X102155904Y-114546380D02*
X102822571Y-115546380D01*
X102822571Y-114546380D02*
X102155904Y-115546380D01*
X103108285Y-114546380D02*
X103727333Y-114546380D01*
X103394000Y-114927333D01*
X103536857Y-114927333D01*
X103632095Y-114974952D01*
X103679714Y-115022571D01*
X103727333Y-115117809D01*
X103727333Y-115355904D01*
X103679714Y-115451142D01*
X103632095Y-115498761D01*
X103536857Y-115546380D01*
X103251142Y-115546380D01*
X103155904Y-115498761D01*
X103108285Y-115451142D01*
%TO.C,MX2*%
X101108285Y-96496180D02*
X101108285Y-95496180D01*
X101441619Y-96210466D01*
X101774952Y-95496180D01*
X101774952Y-96496180D01*
X102155904Y-95496180D02*
X102822571Y-96496180D01*
X102822571Y-95496180D02*
X102155904Y-96496180D01*
X103155904Y-95591419D02*
X103203523Y-95543800D01*
X103298761Y-95496180D01*
X103536857Y-95496180D01*
X103632095Y-95543800D01*
X103679714Y-95591419D01*
X103727333Y-95686657D01*
X103727333Y-95781895D01*
X103679714Y-95924752D01*
X103108285Y-96496180D01*
X103727333Y-96496180D01*
%TO.C,MX1*%
X101108285Y-77446180D02*
X101108285Y-76446180D01*
X101441619Y-77160466D01*
X101774952Y-76446180D01*
X101774952Y-77446180D01*
X102155904Y-76446180D02*
X102822571Y-77446180D01*
X102822571Y-76446180D02*
X102155904Y-77446180D01*
X103727333Y-77446180D02*
X103155904Y-77446180D01*
X103441619Y-77446180D02*
X103441619Y-76446180D01*
X103346380Y-76589038D01*
X103251142Y-76684276D01*
X103155904Y-76731895D01*
%TO.C,SW3*%
X179132666Y-141413761D02*
X179275523Y-141461380D01*
X179513619Y-141461380D01*
X179608857Y-141413761D01*
X179656476Y-141366142D01*
X179704095Y-141270904D01*
X179704095Y-141175666D01*
X179656476Y-141080428D01*
X179608857Y-141032809D01*
X179513619Y-140985190D01*
X179323142Y-140937571D01*
X179227904Y-140889952D01*
X179180285Y-140842333D01*
X179132666Y-140747095D01*
X179132666Y-140651857D01*
X179180285Y-140556619D01*
X179227904Y-140509000D01*
X179323142Y-140461380D01*
X179561238Y-140461380D01*
X179704095Y-140509000D01*
X180037428Y-140461380D02*
X180275523Y-141461380D01*
X180466000Y-140747095D01*
X180656476Y-141461380D01*
X180894571Y-140461380D01*
X181180285Y-140461380D02*
X181799333Y-140461380D01*
X181466000Y-140842333D01*
X181608857Y-140842333D01*
X181704095Y-140889952D01*
X181751714Y-140937571D01*
X181799333Y-141032809D01*
X181799333Y-141270904D01*
X181751714Y-141366142D01*
X181704095Y-141413761D01*
X181608857Y-141461380D01*
X181323142Y-141461380D01*
X181227904Y-141413761D01*
X181180285Y-141366142D01*
%TO.C,SW2*%
X179132666Y-116013761D02*
X179275523Y-116061380D01*
X179513619Y-116061380D01*
X179608857Y-116013761D01*
X179656476Y-115966142D01*
X179704095Y-115870904D01*
X179704095Y-115775666D01*
X179656476Y-115680428D01*
X179608857Y-115632809D01*
X179513619Y-115585190D01*
X179323142Y-115537571D01*
X179227904Y-115489952D01*
X179180285Y-115442333D01*
X179132666Y-115347095D01*
X179132666Y-115251857D01*
X179180285Y-115156619D01*
X179227904Y-115109000D01*
X179323142Y-115061380D01*
X179561238Y-115061380D01*
X179704095Y-115109000D01*
X180037428Y-115061380D02*
X180275523Y-116061380D01*
X180466000Y-115347095D01*
X180656476Y-116061380D01*
X180894571Y-115061380D01*
X181227904Y-115156619D02*
X181275523Y-115109000D01*
X181370761Y-115061380D01*
X181608857Y-115061380D01*
X181704095Y-115109000D01*
X181751714Y-115156619D01*
X181799333Y-115251857D01*
X181799333Y-115347095D01*
X181751714Y-115489952D01*
X181180285Y-116061380D01*
X181799333Y-116061380D01*
%TO.C,SW1*%
X179132666Y-90613761D02*
X179275523Y-90661380D01*
X179513619Y-90661380D01*
X179608857Y-90613761D01*
X179656476Y-90566142D01*
X179704095Y-90470904D01*
X179704095Y-90375666D01*
X179656476Y-90280428D01*
X179608857Y-90232809D01*
X179513619Y-90185190D01*
X179323142Y-90137571D01*
X179227904Y-90089952D01*
X179180285Y-90042333D01*
X179132666Y-89947095D01*
X179132666Y-89851857D01*
X179180285Y-89756619D01*
X179227904Y-89709000D01*
X179323142Y-89661380D01*
X179561238Y-89661380D01*
X179704095Y-89709000D01*
X180037428Y-89661380D02*
X180275523Y-90661380D01*
X180466000Y-89947095D01*
X180656476Y-90661380D01*
X180894571Y-89661380D01*
X181799333Y-90661380D02*
X181227904Y-90661380D01*
X181513619Y-90661380D02*
X181513619Y-89661380D01*
X181418380Y-89804238D01*
X181323142Y-89899476D01*
X181227904Y-89947095D01*
%TO.C,R12*%
D12*
X105452380Y-41044738D02*
X105452380Y-41616166D01*
X105452380Y-41330452D02*
X104452380Y-41330452D01*
X104595238Y-41425690D01*
X104690476Y-41520928D01*
X104738095Y-41616166D01*
X104452380Y-40425690D02*
X104452380Y-40330452D01*
X104500000Y-40235214D01*
X104547619Y-40187595D01*
X104642857Y-40139976D01*
X104833333Y-40092357D01*
X105071428Y-40092357D01*
X105261904Y-40139976D01*
X105357142Y-40187595D01*
X105404761Y-40235214D01*
X105452380Y-40330452D01*
X105452380Y-40425690D01*
X105404761Y-40520928D01*
X105357142Y-40568547D01*
X105261904Y-40616166D01*
X105071428Y-40663785D01*
X104833333Y-40663785D01*
X104642857Y-40616166D01*
X104547619Y-40568547D01*
X104500000Y-40520928D01*
X104452380Y-40425690D01*
X105452380Y-39663785D02*
X104452380Y-39663785D01*
X105071428Y-39568547D02*
X105452380Y-39282833D01*
X104785714Y-39282833D02*
X105166666Y-39663785D01*
%TO.C,R11*%
X110452380Y-41044738D02*
X110452380Y-41616166D01*
X110452380Y-41330452D02*
X109452380Y-41330452D01*
X109595238Y-41425690D01*
X109690476Y-41520928D01*
X109738095Y-41616166D01*
X109452380Y-40425690D02*
X109452380Y-40330452D01*
X109500000Y-40235214D01*
X109547619Y-40187595D01*
X109642857Y-40139976D01*
X109833333Y-40092357D01*
X110071428Y-40092357D01*
X110261904Y-40139976D01*
X110357142Y-40187595D01*
X110404761Y-40235214D01*
X110452380Y-40330452D01*
X110452380Y-40425690D01*
X110404761Y-40520928D01*
X110357142Y-40568547D01*
X110261904Y-40616166D01*
X110071428Y-40663785D01*
X109833333Y-40663785D01*
X109642857Y-40616166D01*
X109547619Y-40568547D01*
X109500000Y-40520928D01*
X109452380Y-40425690D01*
X110452380Y-39663785D02*
X109452380Y-39663785D01*
X110071428Y-39568547D02*
X110452380Y-39282833D01*
X109785714Y-39282833D02*
X110166666Y-39663785D01*
%TO.C,R10*%
X115452380Y-41044738D02*
X115452380Y-41616166D01*
X115452380Y-41330452D02*
X114452380Y-41330452D01*
X114595238Y-41425690D01*
X114690476Y-41520928D01*
X114738095Y-41616166D01*
X114452380Y-40425690D02*
X114452380Y-40330452D01*
X114500000Y-40235214D01*
X114547619Y-40187595D01*
X114642857Y-40139976D01*
X114833333Y-40092357D01*
X115071428Y-40092357D01*
X115261904Y-40139976D01*
X115357142Y-40187595D01*
X115404761Y-40235214D01*
X115452380Y-40330452D01*
X115452380Y-40425690D01*
X115404761Y-40520928D01*
X115357142Y-40568547D01*
X115261904Y-40616166D01*
X115071428Y-40663785D01*
X114833333Y-40663785D01*
X114642857Y-40616166D01*
X114547619Y-40568547D01*
X114500000Y-40520928D01*
X114452380Y-40425690D01*
X115452380Y-39663785D02*
X114452380Y-39663785D01*
X115071428Y-39568547D02*
X115452380Y-39282833D01*
X114785714Y-39282833D02*
X115166666Y-39663785D01*
%TO.C,R9*%
X120452380Y-41044738D02*
X120452380Y-41616166D01*
X120452380Y-41330452D02*
X119452380Y-41330452D01*
X119595238Y-41425690D01*
X119690476Y-41520928D01*
X119738095Y-41616166D01*
X119452380Y-40425690D02*
X119452380Y-40330452D01*
X119500000Y-40235214D01*
X119547619Y-40187595D01*
X119642857Y-40139976D01*
X119833333Y-40092357D01*
X120071428Y-40092357D01*
X120261904Y-40139976D01*
X120357142Y-40187595D01*
X120404761Y-40235214D01*
X120452380Y-40330452D01*
X120452380Y-40425690D01*
X120404761Y-40520928D01*
X120357142Y-40568547D01*
X120261904Y-40616166D01*
X120071428Y-40663785D01*
X119833333Y-40663785D01*
X119642857Y-40616166D01*
X119547619Y-40568547D01*
X119500000Y-40520928D01*
X119452380Y-40425690D01*
X120452380Y-39663785D02*
X119452380Y-39663785D01*
X120071428Y-39568547D02*
X120452380Y-39282833D01*
X119785714Y-39282833D02*
X120166666Y-39663785D01*
%TO.C,R8*%
X125452380Y-41108238D02*
X125452380Y-41679666D01*
X125452380Y-41393952D02*
X124452380Y-41393952D01*
X124595238Y-41489190D01*
X124690476Y-41584428D01*
X124738095Y-41679666D01*
X124452380Y-40489190D02*
X124452380Y-40393952D01*
X124500000Y-40298714D01*
X124547619Y-40251095D01*
X124642857Y-40203476D01*
X124833333Y-40155857D01*
X125071428Y-40155857D01*
X125261904Y-40203476D01*
X125357142Y-40251095D01*
X125404761Y-40298714D01*
X125452380Y-40393952D01*
X125452380Y-40489190D01*
X125404761Y-40584428D01*
X125357142Y-40632047D01*
X125261904Y-40679666D01*
X125071428Y-40727285D01*
X124833333Y-40727285D01*
X124642857Y-40679666D01*
X124547619Y-40632047D01*
X124500000Y-40584428D01*
X124452380Y-40489190D01*
X125452380Y-39727285D02*
X124452380Y-39727285D01*
X125071428Y-39632047D02*
X125452380Y-39346333D01*
X124785714Y-39346333D02*
X125166666Y-39727285D01*
%TO.C,R7*%
X130452380Y-41108238D02*
X130452380Y-41679666D01*
X130452380Y-41393952D02*
X129452380Y-41393952D01*
X129595238Y-41489190D01*
X129690476Y-41584428D01*
X129738095Y-41679666D01*
X129452380Y-40489190D02*
X129452380Y-40393952D01*
X129500000Y-40298714D01*
X129547619Y-40251095D01*
X129642857Y-40203476D01*
X129833333Y-40155857D01*
X130071428Y-40155857D01*
X130261904Y-40203476D01*
X130357142Y-40251095D01*
X130404761Y-40298714D01*
X130452380Y-40393952D01*
X130452380Y-40489190D01*
X130404761Y-40584428D01*
X130357142Y-40632047D01*
X130261904Y-40679666D01*
X130071428Y-40727285D01*
X129833333Y-40727285D01*
X129642857Y-40679666D01*
X129547619Y-40632047D01*
X129500000Y-40584428D01*
X129452380Y-40489190D01*
X130452380Y-39727285D02*
X129452380Y-39727285D01*
X130071428Y-39632047D02*
X130452380Y-39346333D01*
X129785714Y-39346333D02*
X130166666Y-39727285D01*
%TO.C,R6*%
X135452380Y-41108238D02*
X135452380Y-41679666D01*
X135452380Y-41393952D02*
X134452380Y-41393952D01*
X134595238Y-41489190D01*
X134690476Y-41584428D01*
X134738095Y-41679666D01*
X134452380Y-40489190D02*
X134452380Y-40393952D01*
X134500000Y-40298714D01*
X134547619Y-40251095D01*
X134642857Y-40203476D01*
X134833333Y-40155857D01*
X135071428Y-40155857D01*
X135261904Y-40203476D01*
X135357142Y-40251095D01*
X135404761Y-40298714D01*
X135452380Y-40393952D01*
X135452380Y-40489190D01*
X135404761Y-40584428D01*
X135357142Y-40632047D01*
X135261904Y-40679666D01*
X135071428Y-40727285D01*
X134833333Y-40727285D01*
X134642857Y-40679666D01*
X134547619Y-40632047D01*
X134500000Y-40584428D01*
X134452380Y-40489190D01*
X135452380Y-39727285D02*
X134452380Y-39727285D01*
X135071428Y-39632047D02*
X135452380Y-39346333D01*
X134785714Y-39346333D02*
X135166666Y-39727285D01*
%TO.C,R5*%
X140452380Y-41108238D02*
X140452380Y-41679666D01*
X140452380Y-41393952D02*
X139452380Y-41393952D01*
X139595238Y-41489190D01*
X139690476Y-41584428D01*
X139738095Y-41679666D01*
X139452380Y-40489190D02*
X139452380Y-40393952D01*
X139500000Y-40298714D01*
X139547619Y-40251095D01*
X139642857Y-40203476D01*
X139833333Y-40155857D01*
X140071428Y-40155857D01*
X140261904Y-40203476D01*
X140357142Y-40251095D01*
X140404761Y-40298714D01*
X140452380Y-40393952D01*
X140452380Y-40489190D01*
X140404761Y-40584428D01*
X140357142Y-40632047D01*
X140261904Y-40679666D01*
X140071428Y-40727285D01*
X139833333Y-40727285D01*
X139642857Y-40679666D01*
X139547619Y-40632047D01*
X139500000Y-40584428D01*
X139452380Y-40489190D01*
X140452380Y-39727285D02*
X139452380Y-39727285D01*
X140071428Y-39632047D02*
X140452380Y-39346333D01*
X139785714Y-39346333D02*
X140166666Y-39727285D01*
%TO.C,R4*%
X145452380Y-41108238D02*
X145452380Y-41679666D01*
X145452380Y-41393952D02*
X144452380Y-41393952D01*
X144595238Y-41489190D01*
X144690476Y-41584428D01*
X144738095Y-41679666D01*
X144452380Y-40489190D02*
X144452380Y-40393952D01*
X144500000Y-40298714D01*
X144547619Y-40251095D01*
X144642857Y-40203476D01*
X144833333Y-40155857D01*
X145071428Y-40155857D01*
X145261904Y-40203476D01*
X145357142Y-40251095D01*
X145404761Y-40298714D01*
X145452380Y-40393952D01*
X145452380Y-40489190D01*
X145404761Y-40584428D01*
X145357142Y-40632047D01*
X145261904Y-40679666D01*
X145071428Y-40727285D01*
X144833333Y-40727285D01*
X144642857Y-40679666D01*
X144547619Y-40632047D01*
X144500000Y-40584428D01*
X144452380Y-40489190D01*
X145452380Y-39727285D02*
X144452380Y-39727285D01*
X145071428Y-39632047D02*
X145452380Y-39346333D01*
X144785714Y-39346333D02*
X145166666Y-39727285D01*
%TO.C,R3*%
X150452380Y-41108238D02*
X150452380Y-41679666D01*
X150452380Y-41393952D02*
X149452380Y-41393952D01*
X149595238Y-41489190D01*
X149690476Y-41584428D01*
X149738095Y-41679666D01*
X149452380Y-40489190D02*
X149452380Y-40393952D01*
X149500000Y-40298714D01*
X149547619Y-40251095D01*
X149642857Y-40203476D01*
X149833333Y-40155857D01*
X150071428Y-40155857D01*
X150261904Y-40203476D01*
X150357142Y-40251095D01*
X150404761Y-40298714D01*
X150452380Y-40393952D01*
X150452380Y-40489190D01*
X150404761Y-40584428D01*
X150357142Y-40632047D01*
X150261904Y-40679666D01*
X150071428Y-40727285D01*
X149833333Y-40727285D01*
X149642857Y-40679666D01*
X149547619Y-40632047D01*
X149500000Y-40584428D01*
X149452380Y-40489190D01*
X150452380Y-39727285D02*
X149452380Y-39727285D01*
X150071428Y-39632047D02*
X150452380Y-39346333D01*
X149785714Y-39346333D02*
X150166666Y-39727285D01*
%TO.C,R2*%
X155452380Y-41108238D02*
X155452380Y-41679666D01*
X155452380Y-41393952D02*
X154452380Y-41393952D01*
X154595238Y-41489190D01*
X154690476Y-41584428D01*
X154738095Y-41679666D01*
X154452380Y-40489190D02*
X154452380Y-40393952D01*
X154500000Y-40298714D01*
X154547619Y-40251095D01*
X154642857Y-40203476D01*
X154833333Y-40155857D01*
X155071428Y-40155857D01*
X155261904Y-40203476D01*
X155357142Y-40251095D01*
X155404761Y-40298714D01*
X155452380Y-40393952D01*
X155452380Y-40489190D01*
X155404761Y-40584428D01*
X155357142Y-40632047D01*
X155261904Y-40679666D01*
X155071428Y-40727285D01*
X154833333Y-40727285D01*
X154642857Y-40679666D01*
X154547619Y-40632047D01*
X154500000Y-40584428D01*
X154452380Y-40489190D01*
X155452380Y-39727285D02*
X154452380Y-39727285D01*
X155071428Y-39632047D02*
X155452380Y-39346333D01*
X154785714Y-39346333D02*
X155166666Y-39727285D01*
%TO.C,R1*%
X100528380Y-41108238D02*
X100528380Y-41679666D01*
X100528380Y-41393952D02*
X99528380Y-41393952D01*
X99671238Y-41489190D01*
X99766476Y-41584428D01*
X99814095Y-41679666D01*
X99528380Y-40489190D02*
X99528380Y-40393952D01*
X99576000Y-40298714D01*
X99623619Y-40251095D01*
X99718857Y-40203476D01*
X99909333Y-40155857D01*
X100147428Y-40155857D01*
X100337904Y-40203476D01*
X100433142Y-40251095D01*
X100480761Y-40298714D01*
X100528380Y-40393952D01*
X100528380Y-40489190D01*
X100480761Y-40584428D01*
X100433142Y-40632047D01*
X100337904Y-40679666D01*
X100147428Y-40727285D01*
X99909333Y-40727285D01*
X99718857Y-40679666D01*
X99623619Y-40632047D01*
X99576000Y-40584428D01*
X99528380Y-40489190D01*
X100528380Y-39727285D02*
X99528380Y-39727285D01*
X100147428Y-39632047D02*
X100528380Y-39346333D01*
X99861714Y-39346333D02*
X100242666Y-39727285D01*
%TO.C,C6*%
D13*
X158956190Y-37111714D02*
X158956190Y-37397428D01*
X158956190Y-37254571D02*
X158456190Y-37254571D01*
X158527619Y-37302190D01*
X158575238Y-37349809D01*
X158599047Y-37397428D01*
X158456190Y-36802190D02*
X158456190Y-36754571D01*
X158480000Y-36706952D01*
X158503809Y-36683142D01*
X158551428Y-36659333D01*
X158646666Y-36635523D01*
X158765714Y-36635523D01*
X158860952Y-36659333D01*
X158908571Y-36683142D01*
X158932380Y-36706952D01*
X158956190Y-36754571D01*
X158956190Y-36802190D01*
X158932380Y-36849809D01*
X158908571Y-36873619D01*
X158860952Y-36897428D01*
X158765714Y-36921238D01*
X158646666Y-36921238D01*
X158551428Y-36897428D01*
X158503809Y-36873619D01*
X158480000Y-36849809D01*
X158456190Y-36802190D01*
X158622857Y-36421238D02*
X158956190Y-36421238D01*
X158670476Y-36421238D02*
X158646666Y-36397428D01*
X158622857Y-36349809D01*
X158622857Y-36278380D01*
X158646666Y-36230761D01*
X158694285Y-36206952D01*
X158956190Y-36206952D01*
X158694285Y-35802190D02*
X158694285Y-35968857D01*
X158956190Y-35968857D02*
X158456190Y-35968857D01*
X158456190Y-35730761D01*
%TO.C,C5*%
X162004190Y-37111714D02*
X162004190Y-37397428D01*
X162004190Y-37254571D02*
X161504190Y-37254571D01*
X161575619Y-37302190D01*
X161623238Y-37349809D01*
X161647047Y-37397428D01*
X161504190Y-36802190D02*
X161504190Y-36754571D01*
X161528000Y-36706952D01*
X161551809Y-36683142D01*
X161599428Y-36659333D01*
X161694666Y-36635523D01*
X161813714Y-36635523D01*
X161908952Y-36659333D01*
X161956571Y-36683142D01*
X161980380Y-36706952D01*
X162004190Y-36754571D01*
X162004190Y-36802190D01*
X161980380Y-36849809D01*
X161956571Y-36873619D01*
X161908952Y-36897428D01*
X161813714Y-36921238D01*
X161694666Y-36921238D01*
X161599428Y-36897428D01*
X161551809Y-36873619D01*
X161528000Y-36849809D01*
X161504190Y-36802190D01*
X161670857Y-36421238D02*
X162004190Y-36421238D01*
X161718476Y-36421238D02*
X161694666Y-36397428D01*
X161670857Y-36349809D01*
X161670857Y-36278380D01*
X161694666Y-36230761D01*
X161742285Y-36206952D01*
X162004190Y-36206952D01*
X161742285Y-35802190D02*
X161742285Y-35968857D01*
X162004190Y-35968857D02*
X161504190Y-35968857D01*
X161504190Y-35730761D01*
%TO.C,C4*%
X158956190Y-41810714D02*
X158956190Y-42096428D01*
X158956190Y-41953571D02*
X158456190Y-41953571D01*
X158527619Y-42001190D01*
X158575238Y-42048809D01*
X158599047Y-42096428D01*
X158456190Y-41501190D02*
X158456190Y-41453571D01*
X158480000Y-41405952D01*
X158503809Y-41382142D01*
X158551428Y-41358333D01*
X158646666Y-41334523D01*
X158765714Y-41334523D01*
X158860952Y-41358333D01*
X158908571Y-41382142D01*
X158932380Y-41405952D01*
X158956190Y-41453571D01*
X158956190Y-41501190D01*
X158932380Y-41548809D01*
X158908571Y-41572619D01*
X158860952Y-41596428D01*
X158765714Y-41620238D01*
X158646666Y-41620238D01*
X158551428Y-41596428D01*
X158503809Y-41572619D01*
X158480000Y-41548809D01*
X158456190Y-41501190D01*
X158622857Y-41120238D02*
X158956190Y-41120238D01*
X158670476Y-41120238D02*
X158646666Y-41096428D01*
X158622857Y-41048809D01*
X158622857Y-40977380D01*
X158646666Y-40929761D01*
X158694285Y-40905952D01*
X158956190Y-40905952D01*
X158694285Y-40501190D02*
X158694285Y-40667857D01*
X158956190Y-40667857D02*
X158456190Y-40667857D01*
X158456190Y-40429761D01*
%TO.C,C3*%
X162004190Y-41810714D02*
X162004190Y-42096428D01*
X162004190Y-41953571D02*
X161504190Y-41953571D01*
X161575619Y-42001190D01*
X161623238Y-42048809D01*
X161647047Y-42096428D01*
X161504190Y-41501190D02*
X161504190Y-41453571D01*
X161528000Y-41405952D01*
X161551809Y-41382142D01*
X161599428Y-41358333D01*
X161694666Y-41334523D01*
X161813714Y-41334523D01*
X161908952Y-41358333D01*
X161956571Y-41382142D01*
X161980380Y-41405952D01*
X162004190Y-41453571D01*
X162004190Y-41501190D01*
X161980380Y-41548809D01*
X161956571Y-41572619D01*
X161908952Y-41596428D01*
X161813714Y-41620238D01*
X161694666Y-41620238D01*
X161599428Y-41596428D01*
X161551809Y-41572619D01*
X161528000Y-41548809D01*
X161504190Y-41501190D01*
X161670857Y-41120238D02*
X162004190Y-41120238D01*
X161718476Y-41120238D02*
X161694666Y-41096428D01*
X161670857Y-41048809D01*
X161670857Y-40977380D01*
X161694666Y-40929761D01*
X161742285Y-40905952D01*
X162004190Y-40905952D01*
X161742285Y-40501190D02*
X161742285Y-40667857D01*
X162004190Y-40667857D02*
X161504190Y-40667857D01*
X161504190Y-40429761D01*
%TO.C,C2*%
X158956190Y-46128714D02*
X158956190Y-46414428D01*
X158956190Y-46271571D02*
X158456190Y-46271571D01*
X158527619Y-46319190D01*
X158575238Y-46366809D01*
X158599047Y-46414428D01*
X158456190Y-45819190D02*
X158456190Y-45771571D01*
X158480000Y-45723952D01*
X158503809Y-45700142D01*
X158551428Y-45676333D01*
X158646666Y-45652523D01*
X158765714Y-45652523D01*
X158860952Y-45676333D01*
X158908571Y-45700142D01*
X158932380Y-45723952D01*
X158956190Y-45771571D01*
X158956190Y-45819190D01*
X158932380Y-45866809D01*
X158908571Y-45890619D01*
X158860952Y-45914428D01*
X158765714Y-45938238D01*
X158646666Y-45938238D01*
X158551428Y-45914428D01*
X158503809Y-45890619D01*
X158480000Y-45866809D01*
X158456190Y-45819190D01*
X158622857Y-45438238D02*
X158956190Y-45438238D01*
X158670476Y-45438238D02*
X158646666Y-45414428D01*
X158622857Y-45366809D01*
X158622857Y-45295380D01*
X158646666Y-45247761D01*
X158694285Y-45223952D01*
X158956190Y-45223952D01*
X158694285Y-44819190D02*
X158694285Y-44985857D01*
X158956190Y-44985857D02*
X158456190Y-44985857D01*
X158456190Y-44747761D01*
%TO.C,C1*%
X162004190Y-46128714D02*
X162004190Y-46414428D01*
X162004190Y-46271571D02*
X161504190Y-46271571D01*
X161575619Y-46319190D01*
X161623238Y-46366809D01*
X161647047Y-46414428D01*
X161504190Y-45819190D02*
X161504190Y-45771571D01*
X161528000Y-45723952D01*
X161551809Y-45700142D01*
X161599428Y-45676333D01*
X161694666Y-45652523D01*
X161813714Y-45652523D01*
X161908952Y-45676333D01*
X161956571Y-45700142D01*
X161980380Y-45723952D01*
X162004190Y-45771571D01*
X162004190Y-45819190D01*
X161980380Y-45866809D01*
X161956571Y-45890619D01*
X161908952Y-45914428D01*
X161813714Y-45938238D01*
X161694666Y-45938238D01*
X161599428Y-45914428D01*
X161551809Y-45890619D01*
X161528000Y-45866809D01*
X161504190Y-45819190D01*
X161670857Y-45438238D02*
X162004190Y-45438238D01*
X161718476Y-45438238D02*
X161694666Y-45414428D01*
X161670857Y-45366809D01*
X161670857Y-45295380D01*
X161694666Y-45247761D01*
X161742285Y-45223952D01*
X162004190Y-45223952D01*
X161742285Y-44819190D02*
X161742285Y-44985857D01*
X162004190Y-44985857D02*
X161504190Y-44985857D01*
X161504190Y-44747761D01*
%TD*%
M02*
